<?xml version="1.0" encoding="UTF-8" standalone="no"?>
<!-- Created with Inkscape (http://www.inkscape.org/) -->

<svg
   xmlns:dc="http://purl.org/dc/elements/1.1/"
   xmlns:cc="http://creativecommons.org/ns#"
   xmlns:rdf="http://www.w3.org/1999/02/22-rdf-syntax-ns#"
   xmlns:svg="http://www.w3.org/2000/svg"
   xmlns="http://www.w3.org/2000/svg"
   xmlns:sodipodi="http://sodipodi.sourceforge.net/DTD/sodipodi-0.dtd"
   xmlns:inkscape="http://www.inkscape.org/namespaces/inkscape"
   width="109.06067mm"
   height="41.868752mm"
   viewBox="0 0 109.06066 41.868752"
   version="1.1"
   id="svg8"
   inkscape:version="0.92.4 (5da689c313, 2019-01-14)"
   sodipodi:docname="allosaurus.svg">
  <defs
     id="defs2" />
  <sodipodi:namedview
     id="base"
     pagecolor="#ffffff"
     bordercolor="#666666"
     borderopacity="1.0"
     inkscape:pageopacity="0.0"
     inkscape:pageshadow="2"
     inkscape:zoom="0.7"
     inkscape:cx="296.39354"
     inkscape:cy="-104.89886"
     inkscape:document-units="mm"
     inkscape:current-layer="layer1"
     showgrid="false"
     inkscape:window-width="1366"
     inkscape:window-height="745"
     inkscape:window-x="-8"
     inkscape:window-y="-8"
     inkscape:window-maximized="1" />
  <metadata
     id="metadata5">
    <rdf:RDF>
      <cc:Work
         rdf:about="">
        <dc:format>image/svg+xml</dc:format>
        <dc:type
           rdf:resource="http://purl.org/dc/dcmitype/StillImage" />
        <dc:title></dc:title>
      </cc:Work>
    </rdf:RDF>
  </metadata>
  <g
     inkscape:label="Camada 1"
     inkscape:groupmode="layer"
     id="layer1"
     transform="translate(-40.142348,-60.977669)">
    <path
       style="fill:#d5d5d5;fill-opacity:1;stroke-width:1"
       d="m 88.406093,102.47266 c 0.08465,-0.25396 0.361701,-0.53101 0.615665,-0.61566 0.263856,-0.088 0.395785,0.044 0.307833,0.30783 -0.08466,0.25396 -0.361705,0.53101 -0.615666,0.61567 -0.263856,0.0879 -0.395784,-0.044 -0.307832,-0.30784 z m 1.952066,-0.066 c -1.204202,-0.91444 -1.914183,-3.936047 -1.11308,-4.737154 0.322943,-0.322939 0.502284,-1.251854 0.502284,-2.6016 0,-1.966051 0.08819,-2.191092 1.389271,-3.545133 1.000104,-1.040808 1.495176,-1.939623 1.767329,-3.208628 0.207929,-0.969546 0.692876,-2.474514 1.077656,-3.344373 0.38478,-0.869859 0.6581,-1.596675 0.60738,-1.615147 -0.05072,-0.01847 -0.804632,-0.382312 -1.675358,-0.808534 -0.870727,-0.426223 -3.482905,-1.108567 -5.804842,-1.51632 C 79.651374,79.720219 71.755096,77.695999 65.654225,75.529909 62.162299,74.290115 54.555843,72.37743 51.096332,71.869248 49.196024,71.590105 46.735127,71.52184 44.148111,71.676506 c -2.203169,0.131718 -4.005763,0.169858 -4.005763,0.08476 0,-0.246166 2.548115,-1.498214 3.554033,-1.746319 0.503507,-0.124188 1.532547,-0.347389 2.286756,-0.496003 1.910829,-0.37652 12.578503,-0.224354 17.026771,0.242874 5.806968,0.60994 17.086683,0.85172 19.877187,0.426067 5.499645,-0.838897 7.080251,-1.196319 11.360372,-2.568918 8.107333,-2.599952 14.534623,-3.073657 20.994323,-1.547325 2.02208,0.477787 4.25651,1.111043 4.9654,1.407235 2.58935,1.081902 3.34686,0.818633 6.5537,-2.277716 1.60422,-1.548936 3.56042,-3.132075 4.34711,-3.518087 1.62233,-0.796035 4.9741,-0.946774 6.8113,-0.306323 0.83997,0.292816 1.23728,0.292816 1.5301,0 0.55966,-0.559662 1.32552,-0.490714 2.07408,0.186723 0.5996,0.542627 0.69074,0.539368 1.33965,-0.04789 0.67,-0.606341 0.70582,-0.605272 0.94895,0.02832 0.13897,0.362146 1.18043,1.517387 2.31436,2.567202 2.43381,2.253279 3.07658,3.363098 3.07658,5.312054 0,1.057308 -0.22791,1.668605 -0.85643,2.29713 -0.85539,0.855385 -0.86432,0.856277 -7.30003,0.728328 l -6.44359,-0.128105 -2.56792,2.437382 c -1.41235,1.34056 -2.93973,2.606794 -3.39417,2.813853 -0.46125,0.210158 -0.90917,0.790992 -1.01393,1.314787 -0.10321,0.516073 -0.85707,1.698802 -1.67523,2.628286 l -1.48757,1.68997 0.0429,4.731447 c 0.0236,2.602298 -0.10552,5.121905 -0.28696,5.59913 -0.36883,0.970095 -1.31358,1.157563 -1.6334,0.324115 -0.17561,-0.457623 -0.28827,-0.429812 -0.71253,0.175904 -0.5953,0.84991 -2.05833,1.010771 -1.74405,0.19176 0.11138,-0.290242 0.01,-0.54454 -0.22621,-0.56511 -0.2358,-0.02058 -0.73813,-0.06014 -1.11628,-0.08795 -0.37816,-0.02779 -1.06953,-0.604654 -1.53638,-1.281885 l -0.84883,-1.23133 0.24541,1.716069 c 0.13496,0.943839 0.32875,1.933301 0.43063,2.198804 0.3141,0.818511 -0.88932,0.541641 -1.34235,-0.308835 -0.23191,-0.435363 -0.66074,-0.96785 -0.95296,-1.183305 -0.41021,-0.30245 -0.5419,-1.242419 -0.57778,-4.12401 -0.0256,-2.05275 -0.14133,-3.827136 -0.25727,-3.943081 -0.18467,-0.184662 -1.7721,-0.011 -7.08564,0.775172 -1.30314,0.192806 -1.4103,0.315996 -2.80712,3.227052 -1.21466,2.531428 -1.44477,3.352641 -1.40645,5.019461 0.0474,2.060244 0.99065,4.721451 1.95591,5.518006 0.3012,0.248555 1.39555,0.544455 2.43188,0.657545 2.07473,0.22642 3.46738,0.91302 3.46738,1.70948 0,0.43111 -0.86793,0.5137 -5.27712,0.5021 l -5.27713,-0.0139 v -1.04492 c 0,-0.5747 -0.39579,-2.018943 -0.87953,-3.209428 -1.01259,-2.492008 -1.09729,-3.767881 -0.3465,-5.21975 0.51529,-0.996455 0.4056,-3.859639 -0.14786,-3.859639 -0.12569,0 -0.97163,0.672834 -1.879875,1.495186 -1.901075,1.721294 -3.430606,4.431216 -3.430606,6.078135 0,1.876825 0.923199,3.643516 2.025046,3.875246 1.383751,0.29103 2.004435,0.68132 2.134505,1.3422 0.0968,0.49188 -0.25316,0.57796 -2.349583,0.57796 -1.770308,0 -2.61886,-0.15554 -3.016168,-0.55284 -0.502583,-0.50259 -0.552843,-0.50259 -0.552843,0 0,0.66693 -0.370802,0.70345 -1.148247,0.11308 z M 120.31139,91.259509 c 0.50602,-1.176262 0.74694,-2.471956 0.74694,-4.017026 0,-3.254539 -0.0706,-3.360433 -1.95233,-2.929824 l -1.56575,0.358295 0.0154,2.139533 c 0.008,1.176742 0.24358,2.772787 0.52242,3.546766 0.27883,0.773979 0.50936,1.684284 0.51227,2.0229 0.0105,1.218081 0.98903,0.580892 1.72102,-1.120644 z"
       id="path900"
       inkscape:connector-curvature="0" />
  </g>
</svg>
