<?xml version="1.0" encoding="UTF-8" standalone="no"?>
<!-- Created with Inkscape (http://www.inkscape.org/) -->

<svg
   xmlns:dc="http://purl.org/dc/elements/1.1/"
   xmlns:cc="http://creativecommons.org/ns#"
   xmlns:rdf="http://www.w3.org/1999/02/22-rdf-syntax-ns#"
   xmlns:svg="http://www.w3.org/2000/svg"
   xmlns="http://www.w3.org/2000/svg"
   xmlns:sodipodi="http://sodipodi.sourceforge.net/DTD/sodipodi-0.dtd"
   xmlns:inkscape="http://www.inkscape.org/namespaces/inkscape"
   width="72.294044mm"
   height="37.880474mm"
   viewBox="0 0 72.294031 37.880474"
   version="1.1"
   id="svg8"
   inkscape:version="0.92.4 (5da689c313, 2019-01-14)"
   sodipodi:docname="anchiornis.svg">
  <defs
     id="defs2" />
  <sodipodi:namedview
     id="base"
     pagecolor="#ffffff"
     bordercolor="#666666"
     borderopacity="1.0"
     inkscape:pageopacity="0.0"
     inkscape:pageshadow="2"
     inkscape:zoom="1.4"
     inkscape:cx="173.63399"
     inkscape:cy="132.09747"
     inkscape:document-units="mm"
     inkscape:current-layer="layer1"
     showgrid="false"
     inkscape:window-width="1366"
     inkscape:window-height="745"
     inkscape:window-x="-8"
     inkscape:window-y="-8"
     inkscape:window-maximized="1" />
  <metadata
     id="metadata5">
    <rdf:RDF>
      <cc:Work
         rdf:about="">
        <dc:format>image/svg+xml</dc:format>
        <dc:type
           rdf:resource="http://purl.org/dc/dcmitype/StillImage" />
        <dc:title></dc:title>
      </cc:Work>
    </rdf:RDF>
  </metadata>
  <g
     inkscape:label="Camada 1"
     inkscape:groupmode="layer"
     id="layer1"
     transform="translate(-57.715824,-60.25383)">
    <path
       style="fill:#d5d5d5;fill-opacity:1;stroke-width:1"
       d="m 111.02424,98.082037 c -0.17365,-0.06516 -0.28009,-0.176142 -0.23652,-0.246627 0.138,-0.223303 -0.11367,-0.264028 -0.81426,-0.131759 -0.60497,0.114217 -0.70472,0.09811 -0.90484,-0.14611 -0.20526,-0.250499 -0.23272,-0.254127 -0.3143,-0.04153 -0.0597,0.155477 -0.12109,0.181672 -0.18469,0.07876 -0.17231,-0.278806 -1.10308,-0.376546 -1.19925,-0.125933 -0.0463,0.120755 -0.1427,0.219556 -0.21414,0.219556 -0.0714,0 -0.0946,-0.05715 -0.0514,-0.127002 0.0432,-0.06985 0.0161,-0.165564 -0.0602,-0.212695 -0.0763,-0.04713 -0.13866,-0.01654 -0.13866,0.06798 0,0.174734 -0.5856,0.03655 -0.6594,-0.155604 -0.025,-0.06512 -0.16263,-0.118396 -0.30581,-0.118396 -0.14319,0 -0.33702,-0.122786 -0.43074,-0.272857 -0.0937,-0.150072 -0.3016,-0.272858 -0.46195,-0.272858 -0.16035,0 -0.36798,-0.09209 -0.46139,-0.204643 -0.0934,-0.112554 -0.30641,-0.204644 -0.47333,-0.204644 -0.16692,0 -0.44507,-0.122786 -0.6181,-0.272857 -0.17303,-0.150072 -0.40482,-0.272858 -0.51508,-0.272858 -0.16272,0 -0.16849,-0.03853 -0.0306,-0.204643 0.14363,-0.173058 0.11462,-0.204644 -0.18792,-0.204644 -0.3703,0 -0.48662,-0.19813 -0.18724,-0.318932 0.0938,-0.03785 0.0359,-0.07366 -0.1287,-0.07958 -0.16457,-0.0059 -0.38318,-0.130639 -0.4858,-0.277143 -0.22525,-0.321594 -1.18051,-0.59459 -1.986923,-0.567827 -0.370479,0.01229 -0.557126,-0.03216 -0.502961,-0.119805 0.04737,-0.07664 -0.0252,-0.180487 -0.161271,-0.230761 -0.136069,-0.05027 -0.291204,-0.157278 -0.344744,-0.237787 -0.05354,-0.08051 -0.145628,-0.154638 -0.204643,-0.164732 -0.401764,-0.06872 -0.704549,-0.244205 -0.755137,-0.437655 -0.03252,-0.124375 -0.07048,-0.270721 -0.08433,-0.325211 -0.01386,-0.05449 -0.175951,-0.261741 -0.360207,-0.460558 -0.184257,-0.198816 -0.301842,-0.415153 -0.261303,-0.480749 0.04054,-0.06559 0.0042,-0.119265 -0.08077,-0.119265 -0.08497,0 -0.134042,-0.10614 -0.10906,-0.235867 0.02499,-0.129765 -0.130488,-0.393046 -0.345627,-0.585273 -0.246159,-0.219943 -0.411079,-0.521416 -0.445105,-0.81365 -0.02973,-0.255335 -0.104398,-0.498455 -0.165929,-0.540266 -0.09699,-0.0659 -0.313947,-0.487409 -0.355136,-0.68995 -0.0076,-0.03752 -0.05998,-0.140714 -0.116329,-0.229323 -0.05635,-0.08861 -0.051,-0.192912 0.0119,-0.231783 0.06289,-0.03887 0.09718,-0.288685 0.0762,-0.555143 -0.02099,-0.266458 0.02064,-0.484468 0.09251,-0.484468 0.07187,0 0.13067,-0.153483 0.13067,-0.341072 0,-0.18759 0.06139,-0.341072 0.136429,-0.341072 0.07504,0 0.136429,-0.122786 0.136429,-0.272858 0,-0.150072 0.06942,-0.272858 0.154279,-0.272858 0.100313,0 0.127001,-0.168097 0.0763,-0.480558 -0.04289,-0.264307 -0.02389,-0.447124 0.04223,-0.406261 0.06612,0.04086 0.231313,-0.04143 0.367099,-0.182884 0.135785,-0.141449 0.338973,-0.292854 0.451526,-0.336454 0.112554,-0.0436 -0.312132,-0.04233 -0.943749,0.0028 -1.032649,0.07382 -1.139646,0.0593 -1.061606,-0.144072 0.07183,-0.187192 -0.0065,-0.22617 -0.454645,-0.22617 -0.580842,0 -0.698678,-0.191627 -0.302684,-0.492228 0.218219,-0.165654 0.208443,-0.181612 -0.11369,-0.185578 -0.444043,-0.0055 -0.575055,-0.131974 -0.38003,-0.366965 0.120601,-0.145314 0.07753,-0.183089 -0.208751,-0.183089 -0.429794,0 -0.814866,-0.618587 -0.504484,-0.810413 0.121568,-0.07513 0.03527,-0.157762 -0.279281,-0.267416 -0.36229,-0.126295 -0.483327,-0.121833 -0.59297,0.02186 -0.07577,0.0993 -0.371807,0.323492 -0.657861,0.498204 l -0.5201,0.317656 -0.07499,-0.286756 c -0.06963,-0.266284 -0.0962,-0.255277 -0.372123,0.154161 -0.346707,0.514478 -0.700591,0.583709 -0.68472,0.133954 0.01124,-0.318549 -0.137102,-0.407723 -0.28369,-0.170536 -0.10944,0.177076 -0.709301,0.176806 -0.818801,-4.1e-4 -0.05099,-0.08251 -0.17601,-0.08983 -0.315017,-0.01843 -0.337505,0.173331 -0.553213,0.04639 -0.468917,-0.275953 0.06838,-0.261494 0.03313,-0.274828 -0.491985,-0.186111 -0.478338,0.08082 -0.565643,0.05987 -0.565643,-0.135666 0,-0.147247 -0.07274,-0.203319 -0.200274,-0.154379 -0.369429,0.141763 -0.383227,-0.209719 -0.02141,-0.545219 0.481019,-0.446027 0.451145,-0.510159 -0.08529,-0.18309 -0.936126,0.570766 -1.342738,0.211745 -0.482698,-0.426201 0.592594,-0.439566 0.560925,-0.447213 -0.308954,-0.0746 -0.323799,0.138699 -0.550232,0.164534 -0.682144,0.07783 -0.208686,-0.137163 -0.132246,-0.222993 0.760478,-0.853898 0.458968,-0.324363 0.340388,-0.458929 -0.131783,-0.14955 -0.427487,0.2801 -0.612272,0.159202 -0.364086,-0.238207 0.158222,-0.253354 0.151788,-0.276038 -0.05571,-0.196411 -0.186372,0.07152 -0.219416,0.03198 -0.160752,-0.192353 0.05552,-0.212325 -0.01176,-0.31492 -0.271245,-0.413574 -0.378945,-0.144075 -0.263425,-0.447483 0.230003,-0.604091 0.525816,-0.166888 0.43058,-0.472506 -0.123108,-0.39506 -0.586231,0.082 -1.034452,-0.22312 -0.927662,-0.631487 0.05272,-0.201596 -0.07255,-0.245018 -0.871868,-0.302209 -0.513387,-0.03673 -1.073512,-0.158017 -1.244723,-0.269523 -0.17121,-0.111505 -0.648953,-0.280237 -1.06165,-0.374961 -0.412697,-0.09472 -0.903841,-0.237217 -1.091431,-0.316653 -0.18759,-0.07944 -0.678734,-0.190891 -1.091431,-0.24768 -0.89206,-0.122749 -2.876194,-0.567732 -3.069649,-0.68843 -0.07504,-0.04682 -0.412698,-0.126109 -0.750359,-0.176207 -0.997247,-0.147959 -1.948401,-0.374314 -2.408124,-0.573084 -0.236447,-0.102191 -0.59308,-0.185835 -0.792518,-0.185835 -0.207,0 -0.326427,-0.05855 -0.278294,-0.136429 0.04762,-0.07706 -0.06411,-0.136429 -0.256755,-0.136429 -0.18759,0 -0.379014,-0.06139 -0.425389,-0.136429 -0.04637,-0.07504 -0.209356,-0.136429 -0.362181,-0.136429 -0.152825,0 -0.440819,-0.08841 -0.639986,-0.196456 -0.199167,-0.10805 -0.592346,-0.233619 -0.87373,-0.279039 -0.281385,-0.04542 -0.511608,-0.141196 -0.511608,-0.21283 0,-0.07164 -0.216803,-0.130248 -0.481783,-0.130248 -0.302397,0 -0.511022,-0.0762 -0.560312,-0.204643 -0.05253,-0.136882 -0.267944,-0.204643 -0.650577,-0.204643 -0.314626,0 -0.630371,-0.05457 -0.701655,-0.121277 -0.07128,-0.0667 -0.549899,-0.261155 -1.06359,-0.432118 -0.51369,-0.170965 -1.011812,-0.388674 -1.106938,-0.483799 -0.09513,-0.09513 -0.503639,-0.277904 -0.907807,-0.406175 -0.404168,-0.12827 -0.793175,-0.285737 -0.864459,-0.349927 -0.07128,-0.06419 -0.265721,-0.116708 -0.432083,-0.116708 -0.461285,0 -1.552957,-0.511217 -1.552957,-0.727231 0,-0.109587 -0.349431,-0.31862 -0.818573,-0.489678 -0.480754,-0.175291 -0.818573,-0.379141 -0.818573,-0.49395 0,-0.107516 -0.214876,-0.285264 -0.477501,-0.394996 -0.491323,-0.205288 -0.633272,-0.571511 -0.274833,-0.709057 0.163907,-0.0629 0.144337,-0.126779 -0.102322,-0.334019 -0.37672,-0.316515 -0.116037,-0.582153 0.467136,-0.476015 0.230801,0.04201 0.388873,-0.0018 0.434379,-0.120393 0.09713,-0.253117 0.68372,-0.109601 2.097384,0.513148 0.616564,0.271609 1.568156,0.646116 2.114647,0.832237 1.173747,0.399748 3.549759,1.288811 4.608986,1.724603 2.502996,1.029795 6.39537,2.138564 8.595018,2.448349 0.937948,0.132094 1.950933,0.303723 2.251076,0.381396 1.104277,0.285776 1.950215,0.435634 3.675319,0.651082 0.970922,0.12126 2.168085,0.359469 2.660362,0.529357 3.495334,1.206253 7.163214,1.111818 11.400071,-0.293513 1.412039,-0.468363 2.678419,-1.064922 2.553718,-1.202989 -0.0539,-0.05968 -0.02685,-0.0678 0.06011,-0.01804 0.08696,0.04975 0.804442,-0.125817 1.594408,-0.390155 2.30626,-0.771722 4.12492,-1.046856 6.97892,-1.055794 2.84004,-0.0089 3.39718,0.117033 5.64631,1.276199 0.97336,0.50165 1.44701,0.668752 1.89559,0.668752 0.61151,0 2.47533,-0.57006 2.95937,-0.90514 0.25976,-0.179814 0.25739,-0.186363 -0.0682,-0.188379 -0.19432,-0.0012 -0.27143,-0.04458 -0.18188,-0.102322 0.11412,-0.07359 0.10924,-0.143082 -0.0184,-0.261455 -0.13508,-0.125293 -0.23686,-0.10249 -0.4567,0.102322 -0.15559,0.144949 -0.34614,0.263543 -0.42346,0.263543 -0.24381,0 -0.6894,-0.459752 -0.6894,-0.711308 0,-0.13276 -0.12279,-0.318063 -0.27286,-0.411784 -0.30725,-0.19188 -0.35369,-0.515083 -0.10915,-0.759626 0.12734,-0.127333 0.11218,-0.163714 -0.0682,-0.163714 -0.12756,0 -0.23193,0.07455 -0.23193,0.165663 0,0.105348 -0.0827,0.083 -0.22703,-0.06137 -0.18415,-0.184153 -0.1949,-0.265744 -0.0569,-0.432007 0.0936,-0.112736 0.19432,-0.346041 0.2239,-0.518455 0.0296,-0.172414 0.12069,-0.620445 0.20246,-0.995624 0.0818,-0.375179 0.16087,-0.835627 0.17576,-1.023217 0.0149,-0.187589 0.0758,-0.417813 0.13537,-0.511608 0.0596,-0.0938 0.0687,-0.234618 0.0203,-0.312941 -0.0484,-0.07832 -0.0126,-0.233289 0.0796,-0.344369 0.0922,-0.11108 0.13014,-0.239446 0.0843,-0.285257 -0.0458,-0.04581 0.13807,-0.259203 0.40861,-0.474204 0.31805,-0.252755 0.41294,-0.390911 0.26849,-0.390911 -0.12287,0 -0.22145,-0.04604 -0.21906,-0.102322 0.009,-0.216646 0.34476,-0.532852 0.50736,-0.478075 0.11356,0.03826 0.14003,-0.02226 0.0791,-0.180942 -0.0562,-0.146371 -0.0378,-0.205244 0.0476,-0.152485 0.0765,0.04727 0.21953,-0.06443 0.31789,-0.248217 0.0983,-0.183785 0.29179,-0.370006 0.42984,-0.413824 0.22841,-0.07249 0.31083,-0.228178 0.26717,-0.504675 -0.009,-0.05628 0.0489,-0.102322 0.12833,-0.102322 0.0795,0 0.1135,-0.05013 0.0756,-0.111396 -0.0379,-0.06127 0.12108,-0.223589 0.35321,-0.360712 0.23213,-0.137123 0.37865,-0.179084 0.3256,-0.09325 -0.14288,0.231195 0.49621,0.196484 0.81447,-0.04424 0.14565,-0.110167 0.43366,-0.202257 0.64001,-0.204643 0.20634,-0.0024 0.37518,-0.06712 0.37518,-0.143856 0,-0.08473 0.26785,-0.115176 0.68214,-0.07753 0.52981,0.04815 0.68214,0.01837 0.68214,-0.13334 0,-0.3118 0.20571,-0.228616 0.59415,0.240257 0.37459,0.452161 0.51317,0.36365 0.16055,-0.102547 -0.32167,-0.425285 -0.27225,-0.650371 0.098,-0.446316 0.16884,0.09305 0.40213,0.154825 0.51843,0.137277 0.22835,-0.03446 0.61827,0.744674 1.15348,2.304883 0.16912,0.493009 0.36726,1.01485 0.44031,1.159645 0.073,0.144795 0.2455,0.496989 0.38321,0.782653 0.13772,0.285664 0.38932,0.669295 0.55912,0.852514 0.1698,0.183218 0.48877,0.59412 0.70881,0.913114 0.54066,0.783805 0.77221,0.963058 1.72791,1.337683 0.45021,0.176481 0.92208,0.40647 1.04859,0.511087 0.29988,0.247983 0.54773,0.949264 0.37354,1.056921 -0.0718,0.04436 -0.0971,0.134728 -0.0563,0.200814 0.17572,0.284318 -0.58244,0.443539 -2.00772,0.421641 -1.6321,-0.02508 -2.01853,0.09133 -2.01853,0.608075 0,0.187305 -0.0921,0.375892 -0.20464,0.419083 -0.11255,0.04319 -0.20464,0.165978 -0.20464,0.272857 0,0.106882 -0.0921,0.229668 -0.20465,0.272858 -0.11255,0.04319 -0.20464,0.170619 -0.20464,0.283173 0,0.12264 -0.0792,0.17425 -0.19766,0.128795 -0.12125,-0.04653 -0.23181,0.03175 -0.28601,0.202519 -0.0597,0.188214 -0.17084,0.256798 -0.34304,0.211766 -0.14008,-0.03663 -0.32216,0.01469 -0.40462,0.114048 -0.0915,0.110256 -0.35225,0.162132 -0.66915,0.133124 -0.62386,-0.05711 -1.2669,0.408883 -1.94295,1.40799 -0.57077,0.843515 -3.81876,4.079266 -4.68337,4.665722 -0.37518,0.254479 -0.80493,0.578052 -0.95501,0.71905 -0.55436,0.520851 -2.49174,1.856045 -3.6776,2.534515 -1.21922,0.697563 -1.59724,0.976522 -1.98443,1.464419 -0.11269,0.141994 -0.435,0.540762 -0.71625,0.886151 -0.28126,0.34539 -0.51137,0.665501 -0.51137,0.711359 0,0.04586 -0.33766,0.780363 -0.75036,1.632235 -0.4127,0.851871 -0.74876,1.728923 -0.74681,1.949005 0.004,0.491169 0.53515,2.116978 0.93171,2.853844 0.16093,0.299033 0.2926,0.587923 0.2926,0.641979 0,0.260007 1.75056,2.429691 1.96034,2.429691 0.0342,0 0.48192,0.239272 0.995,0.531714 0.72843,0.415186 1.23188,0.583576 2.29717,0.768355 1.3908,0.241236 2.11465,0.530139 2.11465,0.843994 0,0.09637 -0.0614,0.175228 -0.13643,0.175228 -0.075,0 -0.13643,0.122786 -0.13643,0.272857 0,0.305536 -0.14108,0.350065 -0.37332,0.117829 -0.11575,-0.115754 -0.27633,-0.08346 -0.63383,0.12747 -0.39228,0.231452 -0.56372,0.259052 -0.94877,0.152735 -0.30616,-0.08454 -0.59716,-0.08141 -0.83489,0.009 -0.25506,0.09698 -0.4506,0.09289 -0.64953,-0.01357 -0.24028,-0.128594 -0.27143,-0.117972 -0.19999,0.0682 0.0596,0.155266 0.008,0.220514 -0.17396,0.220514 -0.14221,0 -0.27842,0.08453 -0.30268,0.187839 -0.0321,0.136824 -0.12986,0.155664 -0.35984,0.06937 z m -3.16321,-0.310826 c 0,-0.02949 0.0921,-0.08896 0.20465,-0.132148 0.11255,-0.04319 0.20464,-0.01906 0.20464,0.05362 0,0.07268 -0.0921,0.132148 -0.20464,0.132148 -0.11256,0 -0.20465,-0.02413 -0.20465,-0.05362 z m -2.07201,-0.176007 c 0.0985,-0.03941 0.21616,-0.03456 0.26149,0.01076 0.0453,0.04533 -0.0352,0.07758 -0.17906,0.07166 -0.15894,-0.0065 -0.19126,-0.03887 -0.0824,-0.08243 z m -0.14496,-0.270016 c 0.0938,-0.03785 0.24728,-0.03785 0.34108,0 0.0938,0.03785 0.017,0.06881 -0.17054,0.06881 -0.18759,0 -0.26433,-0.03097 -0.17054,-0.06881 z M 80.16598,75.851731 c 0,-0.07946 0.06139,-0.106538 0.136429,-0.06016 0.07504,0.04637 0.136429,0.111392 0.136429,0.144481 0,0.03309 -0.06139,0.06016 -0.136429,0.06016 -0.07504,0 -0.136429,-0.06502 -0.136429,-0.144481 z m 41.17593,-15.365177 c 0.0985,-0.03941 0.21616,-0.03456 0.26149,0.01077 0.0453,0.04533 -0.0353,0.07758 -0.17906,0.07165 -0.15894,-0.0065 -0.19126,-0.03887 -0.0824,-0.08243 z"
       id="path1004"
       inkscape:connector-curvature="0" />
  </g>
</svg>
