<?xml version="1.0" encoding="UTF-8" standalone="no"?>
<!-- Created with Inkscape (http://www.inkscape.org/) -->

<svg
   xmlns:dc="http://purl.org/dc/elements/1.1/"
   xmlns:cc="http://creativecommons.org/ns#"
   xmlns:rdf="http://www.w3.org/1999/02/22-rdf-syntax-ns#"
   xmlns:svg="http://www.w3.org/2000/svg"
   xmlns="http://www.w3.org/2000/svg"
   xmlns:sodipodi="http://sodipodi.sourceforge.net/DTD/sodipodi-0.dtd"
   xmlns:inkscape="http://www.inkscape.org/namespaces/inkscape"
   width="100.99002mm"
   height="32.09642mm"
   viewBox="0 0 100.99 32.09642"
   version="1.1"
   id="svg8"
   inkscape:version="0.92.4 (5da689c313, 2019-01-14)"
   sodipodi:docname="ankylosaurus.svg">
  <defs
     id="defs2" />
  <sodipodi:namedview
     id="base"
     pagecolor="#ffffff"
     bordercolor="#666666"
     borderopacity="1.0"
     inkscape:pageopacity="0.0"
     inkscape:pageshadow="2"
     inkscape:zoom="0.98994949"
     inkscape:cx="269.31254"
     inkscape:cy="234.69079"
     inkscape:document-units="mm"
     inkscape:current-layer="layer1"
     showgrid="false"
     inkscape:window-width="1366"
     inkscape:window-height="745"
     inkscape:window-x="-8"
     inkscape:window-y="-8"
     inkscape:window-maximized="1" />
  <metadata
     id="metadata5">
    <rdf:RDF>
      <cc:Work
         rdf:about="">
        <dc:format>image/svg+xml</dc:format>
        <dc:type
           rdf:resource="http://purl.org/dc/dcmitype/StillImage" />
        <dc:title></dc:title>
      </cc:Work>
    </rdf:RDF>
  </metadata>
  <g
     inkscape:label="Camada 1"
     inkscape:groupmode="layer"
     id="layer1"
     transform="translate(-49.161258,-64.373009)">
    <path
       style="fill:#d5d5d5;fill-opacity:1;stroke-width:1"
       d="m 75.408576,96.413505 c -0.06741,-0.04035 -0.122569,-0.134828 -0.122569,-0.209957 0,-0.08694 -0.04781,-0.136599 -0.131504,-0.136599 -0.156256,0 -0.254511,-0.110955 -0.310113,-0.350198 -0.05814,-0.250177 0.178899,-0.602638 0.778878,-1.158127 0.601881,-0.557249 0.735417,-0.819592 0.89264,-1.753671 0.211737,-1.257952 0.233928,-1.372244 0.316546,-1.630305 0.04501,-0.140583 0.247053,-0.633819 0.44899,-1.09608 0.471962,-1.080388 0.555359,-1.44278 0.506243,-2.199834 -0.04899,-0.755163 -0.245843,-1.297139 -0.592652,-1.631702 -0.244216,-0.235594 -0.83884,-0.59662 -0.884578,-0.537074 -0.01105,0.01439 -0.170978,0.309819 -0.355394,0.656514 -0.637727,1.198904 -1.36372,2.033483 -2.063908,2.372605 -0.176614,0.08554 -0.589018,0.315947 -0.916453,0.512015 -0.327435,0.196068 -0.97355,0.571607 -1.435811,0.834532 -1.502087,0.854357 -1.889801,1.37425 -2.407688,3.228515 -0.138962,0.497547 -0.33453,0.589243 -1.701255,0.797666 -0.375898,0.05732 -0.598839,0.0603 -0.74337,0.0099 -0.150387,-0.05243 -0.318397,-0.04563 -0.618727,0.02502 -0.621105,0.146117 -0.833844,0.129089 -0.998235,-0.0799 -0.120816,-0.153591 -0.17641,-0.172411 -0.39061,-0.132226 -0.176987,0.0332 -0.300669,0.01349 -0.424536,-0.06767 -0.316693,-0.207506 -0.198247,-0.546132 0.368068,-1.052276 0.366737,-0.327771 0.722407,-0.805114 1.149129,-1.542235 0.355172,-0.613527 0.573718,-0.937676 1.214654,-1.801593 0.23113,-0.31154 0.466448,-0.633186 0.52293,-0.714768 0.05648,-0.08158 0.330151,-0.452751 0.608157,-0.824818 0.278006,-0.372068 0.574924,-0.813317 0.659817,-0.980554 0.08489,-0.167237 0.241184,-0.430863 0.34731,-0.585835 0.106128,-0.154971 0.227419,-0.407113 0.269536,-0.560316 0.07882,-0.286707 0.238037,-3.460164 0.18616,-3.710487 -0.01597,-0.07704 -0.04781,-0.22883 -0.07076,-0.337303 -0.107805,-0.509494 -1.556122,-0.598347 -5.46481,-0.335259 -1.897576,0.127722 -5.212769,-0.02233 -6.758816,-0.305924 -1.08213,-0.198494 -2.382562,-0.218885 -3.223691,-0.05054 -1.957536,0.391769 -2.409564,0.417186 -3.165839,0.178005 -0.275442,-0.08711 -0.372458,-0.08976 -0.577056,-0.01578 -0.684229,0.247421 -1.158001,-0.487076 -1.158001,-1.795271 0,-1.070344 0.279964,-1.87069 0.95931,-2.742423 0.185032,-0.237431 0.519946,-0.671504 0.744254,-0.964606 0.224308,-0.293101 0.574613,-0.65612 0.778455,-0.806708 0.387478,-0.286246 0.758067,-0.742354 1.012333,-1.245942 0.155009,-0.307006 1.773944,-2.06743 1.936554,-2.105803 0.177517,-0.04189 0.701676,0.286108 1.066937,0.667646 l 0.369383,0.385845 0.61117,-0.04724 c 0.82412,-0.0637 1.169331,-0.170405 2.30453,-0.712343 1.171589,-0.559309 1.8232,-0.797934 2.175011,-0.796505 0.364293,0.0015 0.411113,0.0478 0.504268,0.498881 0.121045,0.586128 0.220207,0.647953 0.766544,0.477914 0.752857,-0.234315 1.0896,-0.183739 1.526173,0.22922 l 0.221718,0.209725 0.4346,-0.1656 c 0.270422,-0.103041 0.475746,-0.231746 0.543521,-0.340698 0.05991,-0.0963 0.245094,-0.317893 0.411526,-0.492419 0.166433,-0.174526 0.373636,-0.45794 0.460453,-0.629809 0.153198,-0.303281 0.491292,-0.61578 1.409392,-1.302693 0.659284,-0.49327 1.559624,-0.696449 2.550004,-0.575456 0.800592,0.09781 1.024778,0.0827 1.367568,-0.09218 0.156765,-0.07998 0.503007,-0.205815 0.769427,-0.279644 0.672269,-0.186295 1.030393,-0.379161 1.030393,-0.554912 0,-0.256782 0.204114,-0.544197 0.63282,-0.891079 0.530585,-0.429316 1.749047,-1.046693 2.181245,-1.105205 0.395258,-0.05351 1.899882,0.151709 2.182574,0.297686 0.109412,0.0565 0.244878,0.08509 0.301036,0.06354 0.05616,-0.02155 0.675282,-0.136924 1.375831,-0.256387 1.272853,-0.217056 1.273934,-0.217396 1.576562,-0.496348 0.529961,-0.488502 1.383105,-0.844129 2.175335,-0.906774 0.811904,-0.0642 1.038295,-0.01358 1.619551,0.3621 l 0.441296,0.285224 1.229483,-0.05025 c 1.222311,-0.04995 1.230408,-0.05135 1.388257,-0.23894 0.225146,-0.267571 0.899788,-0.549288 1.613913,-0.673936 0.84251,-0.147057 1.420781,-0.03931 1.920351,0.357815 0.1691,0.134414 0.34442,0.244696 0.38962,0.245069 0.0452,3.5e-4 0.17582,0.07948 0.29027,0.175779 0.20237,0.170283 0.23793,0.175099 1.2932,0.175099 h 1.0851 l 0.58573,-0.30736 c 0.74179,-0.389249 1.30475,-0.498895 2.21748,-0.431896 0.37044,0.02719 0.73791,0.08226 0.81662,0.122369 0.21183,0.10796 0.73843,0.63225 0.73843,0.735195 0,0.108732 0.1057,0.130782 1.089144,0.227211 0.75333,0.07387 0.78786,0.07098 1.29573,-0.108245 1.13402,-0.400193 2.34399,-0.07949 2.8155,0.74625 0.0867,0.15186 0.18127,0.276351 0.21013,0.276648 0.0289,2.8e-4 0.44722,0.192466 0.9297,0.427043 0.80006,0.388982 0.89649,0.41979 1.09613,0.350197 0.37585,-0.131025 0.971,-0.09237 1.28097,0.08319 0.30087,0.170409 0.41738,0.401136 0.49242,0.975119 0.0315,0.240654 0.0794,0.340705 0.17828,0.37209 0.0744,0.02361 0.42398,0.202214 0.77687,0.396897 l 0.64163,0.353969 0.55052,-0.04802 c 1.07436,-0.09372 1.49896,0.164197 2.07005,1.257407 l 0.2927,0.560317 0.80861,0.413215 0.80861,0.413215 0.87944,-0.01428 c 0.7711,-0.01252 0.90723,0.0029 1.10499,0.12512 0.23004,0.142176 0.53867,0.505514 0.53867,0.634169 0,0.181466 1.51152,0.832246 1.63838,0.705395 0.0388,-0.03882 0.25596,-0.07059 0.48253,-0.07059 0.47123,0 0.88981,0.269321 1.13967,0.733272 0.1128,0.209464 0.21489,0.275131 0.70139,0.451167 0.84273,0.304933 1.00791,0.323132 1.38281,0.152345 0.61577,-0.280514 0.9141,-0.191893 1.42707,0.423921 0.32312,0.387911 0.4584,0.49694 0.68507,0.552131 0.15535,0.03782 0.42428,0.116144 0.59762,0.174045 0.43336,0.144748 0.63227,0.132141 0.98924,-0.0627 0.7488,-0.408689 1.15103,-0.391028 1.86279,0.08179 0.38938,0.258667 0.39748,0.260557 1.09894,0.256479 0.40044,-0.0023 0.83329,-0.04591 0.99887,-0.100562 0.24473,-0.08078 0.33803,-0.08133 0.5742,-0.0034 0.33733,0.11133 1.59536,-0.0023 2.05301,-0.185384 0.19591,-0.07839 0.38478,-0.09726 0.65521,-0.06548 0.54144,0.06363 1.68132,-0.07715 2.01884,-0.249332 0.21847,-0.111454 0.34103,-0.130831 0.56461,-0.08926 0.62893,0.116943 4.28808,-0.0076 4.69805,-0.159882 2.44648,-0.908845 4.37362,-1.042117 6.09344,-0.421396 0.23113,0.08342 0.54316,0.239806 0.69339,0.347524 0.18887,0.135418 0.35868,0.195853 0.55028,0.195853 0.71878,0 1.79898,0.280037 2.10072,0.544598 0.24708,0.216639 0.0902,0.678973 -0.39617,1.167557 -0.15769,0.158409 -0.38127,0.459412 -0.49683,0.668896 -0.26372,0.478029 -0.974,0.984298 -1.87186,1.334208 -0.58708,0.228795 -2.30548,0.426559 -2.97353,0.342213 -1.93854,-0.244756 -1.71913,-0.204021 -2.89398,-0.537291 -1.02108,-0.28965 -1.44264,-0.458995 -1.66985,-0.670787 -0.16068,-0.149788 -0.19812,-0.152417 -1.85605,-0.130298 -1.84454,0.02461 -1.78861,0.01908 -3.9627,0.391664 -1.65888,0.28429 -2.98879,0.592766 -4.62824,1.073535 -1.6162,0.473948 -1.70965,0.497571 -2.69653,0.681602 -0.50078,0.09339 -1.11538,0.216432 -1.36577,0.273438 -1.46793,0.334198 -3.91586,0.534004 -6.58371,0.537381 -3.63309,0.0046 -5.07424,0.08623 -6.05842,0.343173 -1.21538,0.317295 -1.9078,0.545132 -2.29164,0.75404 -0.47517,0.258622 -0.51654,0.324915 -0.34958,0.560244 0.1674,0.235951 0.82954,1.61931 1.09763,2.293191 0.1066,0.267961 0.32152,0.693451 0.4776,0.945533 0.15608,0.252082 0.41738,0.694714 0.58067,0.983627 0.6251,1.106002 1.20023,1.842695 2.03911,2.611923 0.1593,0.146078 0.42643,0.475684 0.59362,0.732456 l 0.30397,0.46686 -0.0199,0.7633 -0.0199,0.763299 0.29054,0.600247 0.29053,0.600245 -0.14599,0.3005 c -0.0925,0.19038 -0.25583,0.369882 -0.44572,0.489834 -0.16484,0.104135 -0.41003,0.26075 -0.54486,0.348034 -0.30216,0.195614 -1.15141,0.517929 -1.36466,0.517929 -0.0865,0 -0.24133,-0.06609 -0.34402,-0.14686 l -0.1867,-0.14686 -0.54834,0.181879 c -0.61707,0.20468 -0.95968,0.22941 -1.12356,0.0811 -0.0613,-0.05543 -0.37073,-0.133301 -0.68774,-0.173051 -1.13149,-0.141877 -1.31,-0.65345 -0.45491,-1.303653 0.48142,-0.366058 1.02054,-1.009913 1.1672,-1.393928 0.25757,-0.67444 -0.0265,-1.508188 -0.74522,-2.186944 -0.2868,-0.270869 -1.99574,-1.145204 -2.23837,-1.145204 -0.14107,0 -1.57122,-0.66039 -2.16796,-1.001088 -0.85837,-0.49006 -1.88433,-1.362307 -2.40069,-2.040999 -0.63077,-0.829068 -1.10122,-1.279752 -1.56054,-1.494957 -0.40239,-0.188531 -0.42301,-0.190623 -1.877694,-0.190421 -1.38912,2.1e-4 -1.50974,0.01093 -2.17123,0.193324 -0.74623,0.205761 -1.34504,0.404948 -1.48834,0.495085 -0.15347,0.09653 -0.0991,0.617451 0.1109,1.062376 0.52991,1.122744 0.5748,1.553904 0.29788,2.860882 -0.0924,0.436172 -0.14613,0.947064 -0.14613,1.389985 0,0.963149 -0.023,0.994429 -1.11461,1.516545 -0.92465,0.442258 -1.29038,0.565731 -2.21226,0.746878 -0.30818,0.06056 -0.63912,0.13778 -0.73542,0.17161 -0.0963,0.03383 -0.39902,0.07963 -0.6727,0.101774 -0.43162,0.03493 -0.51894,0.02175 -0.65858,-0.09936 -0.10761,-0.09333 -0.267733,-0.141387 -0.482955,-0.14495 -0.458277,-0.0076 -0.807212,-0.147388 -0.834788,-0.334464 -0.06563,-0.445259 0.09292,-0.644356 1.724973,-2.166118 1.08677,-1.013323 1.30119,-1.393234 1.28472,-2.276299 -0.0185,-0.991797 -0.12391,-1.370358 -0.47725,-1.713958 -0.34907,-0.339433 -0.47929,-0.359223 -1.214172,-0.184517 -1.308332,0.311036 -1.724349,0.368062 -3.82845,0.524789 -1.044141,0.07778 -1.886277,0.06252 -2.689033,-0.04871 l -0.318984,-0.0442 0.02895,0.454682 c 0.03166,0.49728 -0.05609,0.744333 -0.830647,2.338593 -0.325923,0.670838 -0.463359,0.85957 -1.491139,2.04768 -0.186637,0.215751 -0.420513,0.534105 -0.519726,0.707453 -0.09921,0.173347 -0.324723,0.520043 -0.501135,0.770435 l -0.320749,0.455257 0.01448,0.630356 c 0.008,0.346695 0.0194,0.841124 0.02541,1.098731 0.01337,0.572848 -0.131606,0.817293 -0.636412,1.073097 -0.186501,0.09451 -0.356645,0.200231 -0.378097,0.23494 -0.0905,0.146426 -4.034333,0.281594 -4.260832,0.146033 z"
       id="path1056"
       inkscape:connector-curvature="0" />
  </g>
</svg>
