<?xml version="1.0" encoding="UTF-8" standalone="no"?>
<!-- Created with Inkscape (http://www.inkscape.org/) -->

<svg
   xmlns:dc="http://purl.org/dc/elements/1.1/"
   xmlns:cc="http://creativecommons.org/ns#"
   xmlns:rdf="http://www.w3.org/1999/02/22-rdf-syntax-ns#"
   xmlns:svg="http://www.w3.org/2000/svg"
   xmlns="http://www.w3.org/2000/svg"
   xmlns:sodipodi="http://sodipodi.sourceforge.net/DTD/sodipodi-0.dtd"
   xmlns:inkscape="http://www.inkscape.org/namespaces/inkscape"
   width="80.248695mm"
   height="32.58091mm"
   viewBox="0 0 80.248696 32.58091"
   version="1.1"
   id="svg852"
   inkscape:version="0.92.4 (5da689c313, 2019-01-14)"
   sodipodi:docname="argentinosaurus.svg">
  <defs
     id="defs846">
    <filter
       style="color-interpolation-filters:sRGB"
       inkscape:label="Brilliance"
       id="filter1987">
      <feColorMatrix
         values="1 -0 -0 0 -10 -0 1 -0 0 -10 -0 -0 1 0 -10 0 0 0 1 0 "
         id="feColorMatrix1985" />
    </filter>
    <filter
       style="color-interpolation-filters:sRGB"
       inkscape:label="Lightness-Contrast"
       id="filter2289">
      <feColorMatrix
         values="11 0 0 -4.59375 -5 0 11 0 -4.59375 -5 0 0 11 -4.59375 -5 0 0 0 1 0"
         id="feColorMatrix2287"
         result="fbSourceGraphic" />
      <feColorMatrix
         result="fbSourceGraphicAlpha"
         in="fbSourceGraphic"
         values="0 0 0 -1 0 0 0 0 -1 0 0 0 0 -1 0 0 0 0 1 0"
         id="feColorMatrix2291" />
      <feColorMatrix
         id="feColorMatrix2293"
         values="11 0 0 -4.5936 -5 0 11 0 -4.5936 -5 0 0 11 -4.5936 -5 0 0 0 1 0"
         in="fbSourceGraphic" />
    </filter>
    <filter
       style="color-interpolation-filters:sRGB"
       inkscape:label="Lightness-Contrast"
       id="filter2308">
      <feColorMatrix
         values="11 0 0 -4.5936 -5 0 11 0 -4.5936 -5 0 0 11 -4.5936 -5 0 0 0 1 0"
         id="feColorMatrix2306"
         result="fbSourceGraphic" />
      <feColorMatrix
         result="fbSourceGraphicAlpha"
         in="fbSourceGraphic"
         values="0 0 0 -1 0 0 0 0 -1 0 0 0 0 -1 0 0 0 0 1 0"
         id="feColorMatrix2310" />
      <feColorMatrix
         id="feColorMatrix2312"
         values="11 0 0 -4.5936 -5 0 11 0 -4.5936 -5 0 0 11 -4.5936 -5 0 0 0 1 0"
         in="fbSourceGraphic" />
    </filter>
    <filter
       style="color-interpolation-filters:sRGB"
       inkscape:label="Lightness-Contrast"
       id="filter2337">
      <feColorMatrix
         values="11 0 0 -6 -5 0 11 0 -6 -5 0 0 11 -6 -5 0 0 0 1 0"
         id="feColorMatrix2335" />
    </filter>
    <filter
       style="color-interpolation-filters:sRGB"
       inkscape:label="Lightness-Contrast"
       id="filter2407">
      <feColorMatrix
         values="11 0 0 -4.78125 -5 0 11 0 -4.78125 -5 0 0 11 -4.78125 -5 0 0 0 1 0"
         id="feColorMatrix2405"
         result="fbSourceGraphic" />
      <feColorMatrix
         result="fbSourceGraphicAlpha"
         in="fbSourceGraphic"
         values="0 0 0 -1 0 0 0 0 -1 0 0 0 0 -1 0 0 0 0 1 0"
         id="feColorMatrix2409" />
      <feColorMatrix
         id="feColorMatrix2411"
         values="11 0 0 -4.7814 -5 0 11 0 -4.7814 -5 0 0 11 -4.7814 -5 0 0 0 1 0"
         in="fbSourceGraphic"
         result="fbSourceGraphic" />
      <feColorMatrix
         result="fbSourceGraphicAlpha"
         in="fbSourceGraphic"
         values="0 0 0 -1 0 0 0 0 -1 0 0 0 0 -1 0 0 0 0 1 0"
         id="feColorMatrix2413" />
      <feColorMatrix
         id="feColorMatrix2415"
         values="11 0 0 -4.7814 -5 0 11 0 -4.7814 -5 0 0 11 -4.7814 -5 0 0 0 1 0"
         in="fbSourceGraphic"
         result="fbSourceGraphic" />
      <feColorMatrix
         result="fbSourceGraphicAlpha"
         in="fbSourceGraphic"
         values="0 0 0 -1 0 0 0 0 -1 0 0 0 0 -1 0 0 0 0 1 0"
         id="feColorMatrix2417" />
      <feColorMatrix
         id="feColorMatrix2419"
         values="11 0 0 -4.7814 -5 0 11 0 -4.7814 -5 0 0 11 -4.7814 -5 0 0 0 1 0"
         in="fbSourceGraphic"
         result="fbSourceGraphic" />
      <feColorMatrix
         result="fbSourceGraphicAlpha"
         in="fbSourceGraphic"
         values="0 0 0 -1 0 0 0 0 -1 0 0 0 0 -1 0 0 0 0 1 0"
         id="feColorMatrix2421" />
      <feColorMatrix
         id="feColorMatrix2423"
         values="11 0 0 -4.7814 -5 0 11 0 -4.7814 -5 0 0 11 -4.7814 -5 0 0 0 1 0"
         in="fbSourceGraphic"
         result="fbSourceGraphic" />
      <feColorMatrix
         result="fbSourceGraphicAlpha"
         in="fbSourceGraphic"
         values="0 0 0 -1 0 0 0 0 -1 0 0 0 0 -1 0 0 0 0 1 0"
         id="feColorMatrix2425" />
      <feColorMatrix
         id="feColorMatrix2427"
         values="11 0 0 -4.7814 -5 0 11 0 -4.7814 -5 0 0 11 -4.7814 -5 0 0 0 1 0"
         in="fbSourceGraphic"
         result="fbSourceGraphic" />
      <feColorMatrix
         result="fbSourceGraphicAlpha"
         in="fbSourceGraphic"
         values="0 0 0 -1 0 0 0 0 -1 0 0 0 0 -1 0 0 0 0 1 0"
         id="feColorMatrix2429" />
      <feColorMatrix
         id="feColorMatrix2431"
         values="11 0 0 -4.7814 -5 0 11 0 -4.7814 -5 0 0 11 -4.7814 -5 0 0 0 1 0"
         in="fbSourceGraphic"
         result="fbSourceGraphic" />
      <feColorMatrix
         result="fbSourceGraphicAlpha"
         in="fbSourceGraphic"
         values="0 0 0 -1 0 0 0 0 -1 0 0 0 0 -1 0 0 0 0 1 0"
         id="feColorMatrix2433" />
      <feColorMatrix
         id="feColorMatrix2435"
         values="11 0 0 -4.7814 -5 0 11 0 -4.7814 -5 0 0 11 -4.7814 -5 0 0 0 1 0"
         in="fbSourceGraphic" />
    </filter>
  </defs>
  <sodipodi:namedview
     id="base"
     pagecolor="#ffffff"
     bordercolor="#666666"
     borderopacity="1.0"
     inkscape:pageopacity="0.0"
     inkscape:pageshadow="2"
     inkscape:zoom="1.4"
     inkscape:cx="154.74834"
     inkscape:cy="177.39244"
     inkscape:document-units="mm"
     inkscape:current-layer="layer1"
     showgrid="false"
     inkscape:window-width="1366"
     inkscape:window-height="745"
     inkscape:window-x="-8"
     inkscape:window-y="-8"
     inkscape:window-maximized="1" />
  <metadata
     id="metadata849">
    <rdf:RDF>
      <cc:Work
         rdf:about="">
        <dc:format>image/svg+xml</dc:format>
        <dc:type
           rdf:resource="http://purl.org/dc/dcmitype/StillImage" />
        <dc:title></dc:title>
      </cc:Work>
    </rdf:RDF>
  </metadata>
  <g
     inkscape:label="Camada 1"
     inkscape:groupmode="layer"
     id="layer1"
     transform="translate(-46.239001,-3.9202697)">
    <path
       style="fill:#d5d5d5;stroke-width:1;fill-opacity:1"
       d="m 74.309536,36.494348 c -0.0064,-0.0044 -1.483835,-0.0294 -3.283175,-0.0555 -1.799339,-0.0261 -3.29448,-0.06164 -3.322534,-0.07898 -0.167421,-0.103472 -10.791706,-0.151431 -17.356754,-0.07835 -3.002005,0.03342 -3.625742,0.01691 -3.625742,-0.09594 0,-0.07266 0.384705,-0.122516 1.324791,-0.171701 0.402666,-0.02107 0.857627,-0.05346 1.011024,-0.07198 0.451179,-0.05447 3.346104,-0.09222 15.758032,-0.205459 2.147555,-0.01959 5.143159,-0.03568 6.656897,-0.03576 2.332191,-1.4e-4 2.731261,-0.0145 2.614718,-0.09428 -0.07564,-0.05178 -0.262306,-0.113714 -0.414803,-0.137632 -0.152497,-0.02392 -0.356445,-0.102363 -0.453218,-0.174323 -0.296828,-0.220721 -0.263985,-0.39712 0.155899,-0.837324 0.255919,-0.268304 0.416504,-0.512608 0.497768,-0.757268 0.06598,-0.19865 0.242854,-0.551315 0.393052,-0.7837 0.150197,-0.232385 0.427298,-0.749448 0.615779,-1.149027 0.188481,-0.39958 0.457215,-0.899044 0.597187,-1.10992 0.296846,-0.447218 0.303373,-0.50946 0.218409,-2.082973 l -0.05913,-1.095028 -0.451927,-0.543529 c -0.877975,-1.05593 -0.985564,-1.277428 -1.066038,-2.194684 -0.144654,-1.648775 -0.652189,-2.439379 -2.297152,-3.578348 -0.691313,-0.478664 -1.034008,-0.703595 -1.255064,-0.823775 -0.134222,-0.07297 -0.293576,-0.176316 -0.35412,-0.229654 -0.06054,-0.05334 -0.131444,-0.09698 -0.157557,-0.09698 -0.02611,0 -0.286325,-0.180416 -0.578248,-0.400923 -0.291925,-0.220508 -0.597544,-0.446836 -0.679154,-0.502951 -0.593774,-0.40828 -3.235446,-2.470858 -3.390631,-2.647355 -0.164664,-0.187277 -1.477096,-1.28393 -4.349301,-3.634224 -0.723926,-0.592381 -1.633848,-1.337398 -2.022048,-1.655594 -0.627866,-0.514642 -2.819313,-2.0361802 -2.932678,-2.0361802 -0.02424,0 -0.301837,-0.146971 -0.616888,-0.326602 -2.903168,-1.65529 -3.866483,-1.981626 -5.87198,-1.989217 -1.135883,-0.0043 -1.57067,0.07819 -2.091774,0.396878 -0.551161,0.337067 -0.580274,0.340322 -0.861253,0.0963 -0.139898,-0.121495 -0.292469,-0.286663 -0.339046,-0.367038 -0.11299,-0.19498 -0.111592,-0.494327 0.0028,-0.589224 0.05081,-0.04217 0.176826,-0.242114 0.280038,-0.444324 0.103211,-0.20221 0.338184,-0.587291 0.522161,-0.855736 0.404402,-0.590068 0.727721,-0.79905 1.238776,-0.800699 0.195442,-6.28e-4 0.45304,-0.04988 0.572441,-0.109447 0.119401,-0.05956 0.409339,-0.144052 0.644305,-0.187749 0.7176,-0.133452 2.704612,0.09786 4.32339,0.503292 1.917382,0.48022 4.827906,1.691535 6.584925,2.740544 0.383773,0.229127 0.791899,0.470756 0.906946,0.536953 0.430441,0.24767 1.706779,1.049588 2.684444,1.686626 0.556063,0.362325 1.340478,0.8581922 1.743145,1.1019272 0.402666,0.243734 1.20277,0.731503 1.778008,1.08393 1.012699,0.620444 2.932742,1.708462 4.148685,2.350907 0.325969,0.172226 0.812306,0.432255 1.08075,0.577844 0.721835,0.391481 2.489447,1.281392 3.207387,1.614773 3.543142,1.645284 5.62699,2.47159 9.361188,3.711984 1.160336,0.38543 2.230337,0.762326 2.377779,0.837546 0.474827,0.242238 1.911342,0.689193 2.591293,0.806251 1.529021,0.263228 3.391925,0.816757 4.565427,1.356535 0.88634,0.40769 2.57059,1.126445 3.13766,1.339005 0.3068,0.114998 0.73038,0.282921 0.9413,0.373162 1.124655,0.481181 3.154645,1.046283 4.601915,1.281067 1.37853,0.223633 2.20201,0.295066 5.71751,0.495963 0.67111,0.03835 1.39277,0.08443 1.6037,0.102398 0.21092,0.01797 0.65019,0.0516 0.97616,0.07475 0.85266,0.06055 2.99615,0.357504 4.25327,0.589248 3.70356,0.682735 5.94083,0.614339 7.46066,-0.228085 0.79948,-0.443141 2.02846,-1.590618 2.49562,-2.330114 0.17524,-0.277398 0.36314,-0.394909 0.36314,-0.227106 0,0.286443 -0.72694,1.335908 -1.39037,2.007243 -0.87266,0.883066 -1.68686,1.372721 -2.74361,1.650012 -1.53183,0.401949 -2.9732,0.436649 -5.6625,0.136318 -1.52218,-0.169992 -1.9828,-0.193379 -3.63378,-0.184502 -1.03986,0.0056 -2.48319,0.05721 -3.20739,0.114701 -2.59856,0.206298 -3.99943,0.2671 -6.09296,0.264452 -2.07271,-0.0026 -2.6866,-0.03665 -6.484505,-0.359417 -2.32722,-0.197783 -4.549367,-0.304916 -5.159708,-0.248757 -0.319689,0.02942 -0.661062,0.113164 -0.878301,0.215472 -0.195446,0.09204 -0.43552,0.167355 -0.533496,0.167355 -0.177682,0 -0.178268,0.002 -0.227652,0.792418 -0.06117,0.979002 -0.03078,1.272481 0.195933,1.892026 0.111657,0.30513 0.247623,0.971593 0.362734,1.778008 0.131806,0.923371 0.252089,1.486581 0.423278,1.98196 0.131532,0.380618 0.239149,0.812046 0.239149,0.95873 v 0.266697 l 0.95873,-0.0024 c 2.594083,-0.0065 14.176058,0.06971 14.938758,0.09828 1.04808,0.03925 4.48146,0.111818 7.63497,0.161363 1.26553,0.01988 2.51275,0.03989 2.7716,0.04447 0.25886,0.0046 0.47065,0.03269 0.47065,0.06248 0,0.02979 -0.0549,0.0534 -0.12202,0.05247 -1.00779,-0.01395 -14.04391,0.08489 -14.34608,0.10877 -0.2301,0.01818 -1.92443,0.04855 -3.7652,0.06747 -1.840765,0.01893 -5.166685,0.05283 -7.390932,0.07534 -3.428767,0.0347 -18.500277,0.08009 -18.535416,0.05583 z m 3.43543,-1.020413 c 0.103905,-0.297978 0.03889,-2.240913 -0.113019,-3.377263 L 77.51836,31.24697 77.378504,31.434277 c -0.07692,0.103018 -0.288128,0.34419 -0.46935,0.535936 -0.335463,0.354943 -1.098083,1.433151 -1.393213,1.969754 -0.08964,0.162984 -0.188188,0.296335 -0.218994,0.296335 -0.105426,0 -0.401825,0.547623 -0.478491,0.884053 -0.04213,0.184882 -0.106162,0.391057 -0.142293,0.458168 -0.06164,0.114497 0.02852,0.122021 1.462046,0.122021 h 1.527738 z m 6.454743,0.003 c 0.117683,-0.192681 0.2073,-0.244493 0.557806,-0.322494 0.688257,-0.153166 0.807178,-0.219572 0.947845,-0.529288 0.198672,-0.437429 0.164349,-0.87782 -0.149995,-1.924559 -0.237441,-0.790657 -0.288685,-1.073078 -0.32343,-1.782524 l -0.04129,-0.843011 -0.286671,0.05556 c -0.464809,0.09008 -1.838391,0.06865 -2.558694,-0.03994 -0.800847,-0.120723 -1.500518,-0.306408 -2.278772,-0.604759 -0.317034,-0.121538 -0.591042,-0.206359 -0.608909,-0.188493 -0.01787,0.01787 -0.0025,0.136876 0.03405,0.264464 0.124396,0.433744 0.160091,1.21976 0.07318,1.611364 -0.119481,0.538335 -0.215003,3.557755 -0.128233,4.053409 l 0.06961,0.397648 0.394051,0.02071 c 0.216727,0.01139 1.241218,0.02988 2.276646,0.04109 l 1.882597,0.02038 z m 4.279291,0.02314 c 0.128497,-0.137556 0.285063,-0.215325 0.498624,-0.247675 0.796018,-0.120578 1.056416,-0.404697 0.908671,-0.991446 -0.113117,-0.449229 -0.226977,-0.649047 -0.636512,-1.117046 -0.4684,-0.535268 -0.738956,-1.003553 -1.150879,-1.991972 -0.340212,-0.816349 -0.341282,-0.817866 -0.442567,-0.627533 -0.05584,0.104937 -0.124376,0.504561 -0.152298,0.888053 -0.02792,0.383492 -0.100364,1.011024 -0.160981,1.394516 -0.138663,0.877255 -0.141479,1.725211 -0.0072,2.16785 0.05711,0.188254 0.104174,0.428565 0.104589,0.534025 7.39e-4,0.188135 0.0088,0.191746 0.425998,0.191746 0.378505,0 0.44583,-0.02204 0.612555,-0.200518 z m 30.50398,0.655667 c -0.087,-0.06362 -0.0373,-0.0797 0.24641,-0.0797 0.19547,0 0.3554,0.02534 0.3554,0.05632 0,0.03097 -0.0392,0.05893 -0.0871,0.06213 -0.0479,0.0032 -0.15882,0.01372 -0.24641,0.02339 -0.0876,0.0097 -0.20831,-0.01829 -0.26825,-0.06213 z m 0.72694,0.0226 c -0.0542,-0.0344 0.0466,-0.05769 0.25256,-0.05833 0.18854,-5.58e-4 0.3221,0.01965 0.29677,0.04498 -0.0694,0.06938 -0.44656,0.07854 -0.54933,0.01335 z m 0.64186,0.0042 c 0,-0.03497 0.0994,-0.06359 0.2208,-0.06359 0.25285,0 0.22056,0.07872 -0.0442,0.107786 -0.0971,0.01066 -0.17659,-0.0092 -0.17659,-0.0442 z m 0.53956,-0.0051 c -0.0411,-0.02538 0.29492,-0.0472 0.74661,-0.04851 0.4517,-0.0013 0.79938,0.01946 0.77261,0.04614 -0.062,0.06182 -1.4196,0.06394 -1.51922,0.0024 z m 1.64926,-9.35e-4 c -0.0195,-0.03163 0.1684,-0.05752 0.41767,-0.05752 0.24927,0 0.46768,0.02353 0.48537,0.05229 0.0177,0.02876 -0.17027,0.05465 -0.41767,0.05752 -0.24741,0.0029 -0.46582,-0.02066 -0.48537,-0.05229 z"
       id="path2455"
       inkscape:connector-curvature="0" />
  </g>
</svg>
