<?xml version="1.0" encoding="UTF-8" standalone="no"?>
<!-- Created with Inkscape (http://www.inkscape.org/) -->

<svg
   xmlns:dc="http://purl.org/dc/elements/1.1/"
   xmlns:cc="http://creativecommons.org/ns#"
   xmlns:rdf="http://www.w3.org/1999/02/22-rdf-syntax-ns#"
   xmlns:svg="http://www.w3.org/2000/svg"
   xmlns="http://www.w3.org/2000/svg"
   xmlns:sodipodi="http://sodipodi.sourceforge.net/DTD/sodipodi-0.dtd"
   xmlns:inkscape="http://www.inkscape.org/namespaces/inkscape"
   width="53.793221mm"
   height="40.020927mm"
   viewBox="0 0 53.79322 40.020928"
   version="1.1"
   id="svg8"
   inkscape:version="0.92.4 (5da689c313, 2019-01-14)"
   sodipodi:docname="bird.svg">
  <defs
     id="defs2" />
  <sodipodi:namedview
     id="base"
     pagecolor="#ffffff"
     bordercolor="#666666"
     borderopacity="1.0"
     inkscape:pageopacity="0.0"
     inkscape:pageshadow="2"
     inkscape:zoom="1.4"
     inkscape:cx="82.568996"
     inkscape:cy="40.425069"
     inkscape:document-units="mm"
     inkscape:current-layer="layer1"
     showgrid="false"
     inkscape:window-width="1366"
     inkscape:window-height="745"
     inkscape:window-x="-8"
     inkscape:window-y="-8"
     inkscape:window-maximized="1" />
  <metadata
     id="metadata5">
    <rdf:RDF>
      <cc:Work
         rdf:about="">
        <dc:format>image/svg+xml</dc:format>
        <dc:type
           rdf:resource="http://purl.org/dc/dcmitype/StillImage" />
        <dc:title />
      </cc:Work>
    </rdf:RDF>
  </metadata>
  <g
     inkscape:label="Camada 1"
     inkscape:groupmode="layer"
     id="layer1"
     transform="translate(-88.503427,-31.405049)">
    <path
       style="fill:#d5d5d5;fill-opacity:1;stroke-width:0.99999994"
       d="m 141.56032,70.137381 c -0.85357,-0.208005 -2.55342,-0.788468 -3.22356,-1.100773 -0.7696,-0.358659 -2.62727,-1.031627 -2.72011,-0.985396 -0.22624,0.112665 0.46145,0.62762 1.45044,1.086101 0.41487,0.192333 0.91869,0.45447 1.1196,0.58253 0.2009,0.128065 0.62975,0.318318 0.95299,0.422785 0.54139,0.174981 0.84026,0.410036 0.64499,0.507277 -0.0444,0.02211 -0.32208,-0.05765 -0.61706,-0.177244 -0.29499,-0.119591 -1.27758,-0.438306 -2.18352,-0.708254 -1.81535,-0.540923 -2.39516,-0.802936 -2.82057,-1.274572 -0.8009,-0.887938 -2.09704,-2.054049 -2.59317,-2.333032 -2.34606,-1.319255 -2.33036,-1.314551 -1.91262,-0.573129 0.18429,0.326998 0.40957,0.627517 0.5007,0.667787 0.0911,0.04028 0.29572,0.284522 0.45463,0.542796 0.33088,0.537693 0.50031,0.76575 0.82107,1.104849 0.1251,0.132306 0.33472,0.387823 0.46575,0.567852 0.131,0.180049 0.42687,0.468786 0.65744,0.641672 0.23055,0.172891 0.59238,0.44366 0.80405,0.601714 0.21167,0.158055 0.40315,0.324095 0.4255,0.36898 0.0224,0.04488 0.1627,0.115846 0.31187,0.157703 0.14918,0.04185 0.40328,0.179783 0.56466,0.306514 0.16141,0.126716 0.32985,0.212277 0.37437,0.190109 0.0445,-0.02215 0.10276,0.0036 0.12945,0.05715 0.0267,0.0536 0.2351,0.18923 0.46315,0.301407 0.7215,0.354914 0.031,0.239202 -0.9245,-0.15494 -0.45877,-0.189237 -0.938,-0.372356 -1.06496,-0.406931 -0.12692,-0.03459 -0.24568,-0.09272 -0.26385,-0.129211 -0.0182,-0.03649 -0.19772,-0.128063 -0.399,-0.203495 -0.20128,-0.07543 -0.44557,-0.200116 -0.54287,-0.277067 -0.0973,-0.07695 -0.35847,-0.254714 -0.5804,-0.395017 -0.22191,-0.140307 -0.49072,-0.327254 -0.59735,-0.415439 -0.1066,-0.0882 -0.36351,-0.29787 -0.57083,-0.465969 -0.72692,-0.589395 -1.2266,-1.072155 -1.33497,-1.289772 -0.0601,-0.120785 -0.16403,-0.224613 -0.23078,-0.230754 -0.0667,-0.0062 -0.11721,-0.05746 -0.112,-0.114087 0.005,-0.05663 -0.0449,-0.108164 -0.11224,-0.114104 -0.17544,-0.0161 -0.10599,0.411451 0.16262,1.001072 0.26065,0.572081 0.50108,1.175567 0.4738,1.189154 -0.0549,0.02733 0.17865,0.620051 0.57096,1.449455 0.36466,0.771067 0.41336,0.931234 0.26844,0.883056 -0.39284,-0.130528 -0.92571,-0.901947 -1.71247,-2.479073 -0.42847,-0.858813 -0.95974,-1.858813 -1.18069,-2.222179 l -0.40172,-0.66066 -0.70356,-0.0025 c -0.38695,-0.0014 -0.91459,-0.07069 -1.1725,-0.15399 -0.45495,-0.146928 -2.18012,-0.806363 -2.37105,-0.906328 -0.052,-0.02725 -0.29584,-0.05141 -0.5418,-0.05373 -0.24597,-0.0023 -1.14877,-0.244137 -2.00623,-0.537366 -1.23498,-0.42234 -1.53786,-0.490693 -1.45727,-0.328867 0.056,0.112356 0.0675,0.221358 0.0256,0.24222 -0.0419,0.02086 -0.4634,-0.102709 -0.93661,-0.274629 -0.47323,-0.171918 -0.89105,-0.297321 -0.92849,-0.278674 -0.0374,0.01863 -0.23136,-0.0387 -0.43094,-0.127421 -0.19957,-0.08873 -0.40662,-0.139529 -0.46013,-0.112886 -0.0535,0.02666 -0.31194,-0.0276 -0.57431,-0.120546 -0.26237,-0.09294 -0.66456,-0.184947 -0.89373,-0.204457 -0.22918,-0.01951 -0.46845,-0.06371 -0.5317,-0.09822 -0.0632,-0.03453 -0.0995,-0.02998 -0.0805,0.01004 0.019,0.04003 -0.0389,0.05431 -0.12849,0.03167 -0.4254,-0.107391 -3.06389,-0.252761 -3.40391,-0.187538 -0.2584,0.04956 -0.75871,0.06757 -0.86378,0.03108 -0.21765,-0.07558 -2.39721,0.282607 -2.73092,0.448791 -0.21733,0.108229 0.80548,1.701151 1.11676,1.739335 0.0641,0.0078 0.12323,0.06598 0.13136,0.129179 0.0224,0.173531 -0.82272,0.176363 -1.43625,0.0048 -0.60148,-0.168198 -1.2391,-0.750023 -1.61688,-1.475394 -0.18533,-0.356444 -0.28663,-0.451067 -0.51608,-0.484048 -0.15694,-0.02255 -0.4315,-0.08364 -0.61015,-0.135761 -0.17865,-0.05212 -0.35772,-0.07837 -0.39794,-0.05835 -0.0613,0.03054 -1.33728,-0.376813 -3.13892,-1.002027 -0.22262,-0.07725 -1.001576,-0.330634 -1.731017,-0.563072 -0.729442,-0.232437 -1.673153,-0.59489 -2.097136,-0.805451 -0.702341,-0.348801 -0.80445,-0.436353 -1.148451,-0.984731 -0.495244,-0.789474 -1.000225,-1.255756 -1.939388,-1.790761 -0.788281,-0.449053 -1.718641,-0.689022 -2.540378,-0.655241 -0.240229,0.0099 -0.584457,-0.05197 -0.764953,-0.137443 -0.30486,-0.144358 -0.360996,-0.134598 -0.790154,0.137391 -0.25409,0.161031 -0.477801,0.261019 -0.497134,0.222197 -0.0509,-0.10222 0.130574,-0.530487 0.249994,-0.589957 0.05588,-0.02783 0.107125,-0.110678 0.113863,-0.184116 0.0085,-0.09272 -0.09761,-0.06508 -0.347259,0.09044 -0.244426,0.152263 -0.377365,0.188116 -0.415271,0.111999 -0.06602,-0.132583 0.272327,-0.856978 0.439062,-0.94001 0.06373,-0.03173 0.267854,-0.361279 0.453612,-0.732318 0.533094,-1.064817 0.954723,-1.286905 2.697335,-1.420792 0.452952,-0.0348 1.050841,-0.0914 1.328643,-0.125778 0.429796,-0.05319 0.495647,-0.03431 0.441718,0.126609 -0.03486,0.104015 -0.104651,0.209668 -0.155098,0.23479 -0.185567,0.09241 -0.01705,0.471019 0.341551,0.767384 0.483514,0.399591 1.970762,1.007174 2.690885,1.099302 0.139541,0.01785 0.662208,-0.13151 1.161476,-0.331915 0.769321,-0.308801 0.998635,-0.444903 1.503603,-0.892374 0.327719,-0.290402 0.612777,-0.578498 0.633447,-0.640215 0.0207,-0.06171 -0.200341,-0.59276 -0.491244,-1.180058 -0.435986,-0.879981 -0.573341,-1.276265 -0.781689,-2.253025 -0.202728,-0.950196 -0.347892,-1.375174 -0.732196,-2.143543 -0.497167,-0.993864 -1.235399,-2.005761 -1.812674,-2.484338 -0.179184,-0.148495 -0.356739,-0.305881 -0.39465,-0.349706 -0.03791,-0.04382 -0.133684,-0.137216 -0.21283,-0.207535 -0.483815,-0.429919 0.790501,0.03857 1.339724,0.492536 l 0.307959,0.254543 -0.314171,-0.755608 c -0.306107,-0.736273 -0.698659,-1.370212 -1.018907,-1.645797 -0.1103,-0.09497 -0.118345,-0.141859 -0.02629,-0.154864 0.07264,-0.01026 0.455756,0.254857 0.851384,0.589144 0.666501,0.563147 0.713228,0.58571 0.636258,0.307139 -0.0457,-0.165354 -0.207195,-0.533837 -0.358943,-0.818819 -0.151926,-0.284891 -0.244843,-0.533615 -0.206979,-0.552471 0.07716,-0.03843 0.66849,0.674058 0.83201,1.002418 0.05826,0.116985 0.185873,0.231472 0.28357,0.254428 0.144512,0.03394 0.15858,-0.07663 0.0754,-0.592652 -0.05625,-0.348903 -0.07674,-0.64752 -0.04556,-0.663587 0.07833,-0.04035 0.419118,0.412367 0.63151,0.838868 0.09696,0.194696 0.214417,0.335003 0.261144,0.311734 0.145748,-0.07258 0.231602,-0.459926 0.165309,-0.74584 -0.03492,-0.150661 -0.05404,-0.329937 -0.04241,-0.398436 0.03657,-0.215814 -0.176892,-1.501538 -0.288943,-1.740297 -0.0592,-0.125599 -0.260947,-0.588834 -0.448744,-1.029206 -0.292493,-0.68583 -0.426325,-0.886829 -0.932944,-1.401458 -0.811471,-0.824289 -1.58664,-1.446446 -1.71965,-1.380208 -0.06087,0.03031 -0.253631,-0.06608 -0.428337,-0.214222 -0.17466,-0.148162 -0.465071,-0.336174 -0.645273,-0.417846 -0.505944,-0.229319 -0.348858,-0.295821 0.347893,-0.147284 1.288764,0.274743 1.864636,0.517198 2.821486,1.187924 0.326252,0.228689 0.629989,0.398078 0.67498,0.376416 0.04586,-0.02209 -0.164595,-0.480373 -0.478848,-1.042773 -0.602628,-1.078443 -1.335543,-1.923103 -2.346115,-2.703636 -0.558894,-0.431682 -0.55779,-0.499143 0.0074,-0.451359 0.731651,0.06186 1.888733,0.925993 2.897706,2.164065 0.36349,0.446028 0.753148,0.893276 0.865918,0.993878 l 0.205018,0.182923 -0.01377,-0.278162 c -0.0087,-0.176618 -0.386414,-1.018586 -1.034585,-2.30648 -0.561192,-1.115701 -0.994527,-2.041057 -0.962488,-2.056583 0.136632,-0.06625 0.78707,0.39974 1.172866,0.840243 0.512762,0.585472 1.469155,2.103014 1.797695,2.852461 0.17943,0.409451 0.2831,0.550556 0.39215,0.535973 0.0902,-0.01214 0.1033,-0.04798 0.0332,-0.09141 -0.0633,-0.03929 -0.10867,-0.138809 -0.1011,-0.220961 0.008,-0.08233 10e-4,-0.194483 -0.0147,-0.249185 -0.0161,-0.0547 -0.0817,-0.458087 -0.14595,-0.896381 -0.0642,-0.438294 -0.23996,-1.171642 -0.39051,-1.629658 -0.15055,-0.458011 -0.305059,-0.945406 -0.343379,-1.083083 -0.03829,-0.137691 -0.144284,-0.45686 -0.235411,-0.709325 -0.09119,-0.252434 -0.135169,-0.474223 -0.09788,-0.492794 0.186898,-0.09307 0.72431,0.71922 1.23134,1.861167 0.29172,0.657127 0.55309,1.28608 0.58082,1.397681 0.0277,0.111633 0.16847,0.605848 0.31284,1.098294 0.47653,1.625546 0.43239,1.511281 0.49806,1.289549 0.14604,-0.49314 -0.10546,-4.022338 -0.37419,-5.250869 -0.052,-0.237755 -0.0608,-0.532936 -0.0196,-0.655917 0.0694,-0.206914 0.0868,-0.215495 0.23425,-0.114977 0.39569,0.269861 0.91174,1.998198 1.00735,3.373974 0.0607,0.873931 0.25527,2.232515 0.32289,2.255175 0.0772,0.02587 0.30194,-0.235375 0.26546,-0.308623 -0.0169,-0.034 -0.004,-0.342767 0.0288,-0.68614 0.0994,-1.040777 0.23582,-2.670739 0.28027,-3.348725 0.057,-0.869798 0.15489,-0.927196 0.45003,-0.263945 0.28755,0.646076 0.38578,1.279601 0.39862,2.569727 0.0212,2.135114 0.20904,2.401216 0.50605,0.717056 0.0849,-0.481188 0.15696,-1.026093 0.16021,-1.210902 0.005,-0.300829 0.0238,-0.323822 0.17667,-0.219572 0.34387,0.234527 0.55814,1.163646 0.52644,2.283138 -0.0166,0.5883 -0.01,1.059431 0.0153,1.046954 0.0251,-0.01248 0.18055,-0.320781 0.34554,-0.685113 0.30872,-0.681684 0.40245,-0.794016 0.57386,-0.6877 0.14161,0.08786 0.13034,1.194332 -0.0191,1.874188 -0.0697,0.317107 -0.15784,0.73739 -0.19586,0.933971 -0.038,0.196576 -0.22362,0.870443 -0.41248,1.497477 -0.18886,0.627035 -0.32287,1.147197 -0.29779,1.155915 0.0913,0.03176 0.62575,-0.87761 0.61031,-1.038509 -0.009,-0.09108 0.0383,-0.160605 0.10444,-0.154537 0.0661,0.0061 0.0952,-0.03937 0.0645,-0.100926 -0.0307,-0.06159 -0.0163,-0.09874 0.0319,-0.08259 0.0483,0.01615 0.24662,-0.311201 0.44089,-0.727478 0.19426,-0.416275 0.38988,-0.744573 0.4347,-0.729552 0.0448,0.01504 0.0813,0.490111 0.081,1.055762 l -4.7e-4,1.028448 0.21685,-0.349613 c 0.1534,-0.247311 0.25951,-0.335322 0.36261,-0.300774 0.17755,0.05951 0.0715,1.172269 -0.19283,2.023406 -0.16132,0.519411 -0.15829,0.567353 0.0349,0.55265 0.11636,-0.0089 0.33071,-0.0013 0.47636,0.01688 0.26378,0.03285 0.26459,0.03427 0.21171,0.369047 l -0.0531,0.336078 0.50209,0.105871 c 0.47361,0.09987 0.50448,0.124618 0.54416,0.43634 0.0391,0.30692 0.0765,0.340365 0.52606,0.469438 0.55028,0.158005 0.56685,0.174431 0.46936,0.465343 -0.0645,0.19231 -0.045,0.220441 0.2034,0.294034 0.33404,0.09895 0.35128,0.131709 0.2749,0.522197 -0.0598,0.305768 -0.0565,0.310867 0.33021,0.501118 0.33671,0.165633 0.38746,0.225705 0.36729,0.434717 -0.0203,0.210336 0.0242,0.259597 0.33489,0.371192 0.31598,0.113476 0.35358,0.156271 0.31833,0.362372 -0.0346,0.202539 -0.005,0.246798 0.22217,0.331947 0.37484,0.140548 0.51189,0.478178 0.30016,0.739366 l -0.1742,0.214883 0.35869,0.155579 c 0.3624,0.157183 0.52231,0.351465 0.49108,0.596627 -0.0258,0.202604 -0.28686,0.530444 -0.51142,0.642275 -0.16806,0.08369 -0.17068,0.112464 -0.0164,0.180585 0.20621,0.09112 0.55428,0.575672 0.45356,0.631422 -0.0359,0.01989 -0.11205,0.130491 -0.16922,0.245808 -0.0984,0.198498 -0.0894,0.218155 0.16876,0.368937 0.22601,0.132031 0.26454,0.193837 0.22525,0.361254 -0.0261,0.111109 -0.12404,0.218022 -0.21767,0.23761 -0.0937,0.01962 -0.21476,0.121658 -0.26915,0.226823 -0.0842,0.162792 -0.0641,0.219411 0.13525,0.381068 0.3093,0.250752 0.24105,0.352803 -0.5744,0.858915 -0.49005,0.304157 -0.76463,0.414933 -1.17226,0.472942 -0.29276,0.04167 -0.57067,0.05194 -0.61758,0.02285 -0.0469,-0.0291 -0.27411,0.0052 -0.50491,0.07625 -0.23078,0.07104 -0.47651,0.117906 -0.54606,0.104166 -0.0695,-0.01375 -0.28518,0.01685 -0.47919,0.06797 -0.19401,0.05113 -0.69771,0.09563 -1.11933,0.09889 -0.678,0.0053 -0.79735,0.03516 -1.03272,0.258788 l -0.26613,0.252846 0.68043,-0.0138 c 0.37423,-0.0076 0.7203,-0.03366 0.76905,-0.05794 0.17544,-0.08737 1.2353,0.179917 1.77625,0.447938 0.30373,0.150493 0.63228,0.301558 0.73011,0.335702 0.0979,0.03412 0.19267,0.09179 0.21076,0.128105 0.0181,0.03632 0.26945,0.154763 0.5586,0.263207 0.28914,0.10845 0.72878,0.295884 0.97697,0.416524 0.24819,0.120641 0.65371,0.299877 0.90115,0.398304 0.88207,0.350866 1.44963,0.606113 2.3855,1.072803 0.89556,0.446601 3.32261,1.392542 3.66502,1.428453 0.41194,0.0432 1.05898,0.266593 1.05017,0.362573 -0.005,0.05909 0.0241,0.09053 0.0655,0.06989 0.0414,-0.02064 0.4047,0.05879 0.80718,0.176543 0.40249,0.117746 1.14318,0.326059 1.64596,0.462918 0.5028,0.136855 1.14552,0.320008 1.42827,0.407001 0.28276,0.08699 0.50245,0.131503 0.48821,0.0989 -0.014,-0.0327 0.0742,-0.0095 0.19654,0.05126 0.12233,0.0608 0.20684,0.07923 0.18779,0.04097 -0.0612,-0.1228 2.62551,0.617763 3.40154,0.937614 1.0021,0.41302 1.20595,0.516565 1.88238,0.956122 0.99552,0.646898 1.30869,0.869512 1.49045,1.059428 0.0969,0.101309 0.30035,0.251262 0.45201,0.333253 0.15165,0.082 0.74569,0.497747 1.32007,0.923897 0.57439,0.426149 1.57252,1.080761 2.21808,1.454696 0.64556,0.373934 1.19175,0.716034 1.21375,0.760225 0.022,0.04419 0.19278,0.140748 0.3795,0.214571 0.98887,0.390979 1.37769,0.566766 1.41374,0.63914 0.0623,0.125074 1.85247,0.48877 2.01281,0.408923 0.0445,-0.02215 0.16284,-0.0041 0.26292,0.04008 0.15397,0.06803 0.14469,0.09896 -0.0605,0.201162 -0.13337,0.06642 -0.41472,0.132191 -0.62522,0.146156 -0.39497,0.02621 -0.45434,0.141925 -0.11385,0.221892 0.10652,0.02501 0.21299,0.0843 0.23662,0.131748 0.0236,0.04744 0.22089,0.173792 0.43836,0.280774 0.54174,0.266482 0.30238,0.366788 -0.44224,0.185333 z M 126.456,65.202611 c -0.10832,-0.217507 -0.22512,-0.343925 -0.28855,-0.312338 -0.0586,0.0292 -0.0945,0.01705 -0.0798,-0.02696 0.0499,-0.149019 -0.45216,-0.559851 -1.13355,-0.927516 -0.64084,-0.345793 -2.78842,-1.156976 -2.90687,-1.097987 -0.0621,0.03094 0.70103,0.709107 1.55895,1.385391 0.31498,0.248293 0.59819,0.502651 0.62936,0.565241 0.0312,0.06259 0.12502,0.107257 0.20865,0.09922 0.0836,-0.008 0.14775,0.03151 0.1426,0.08783 -0.0104,0.113137 1.82075,0.707274 1.96243,0.636718 0.0488,-0.0243 0.007,-0.208612 -0.0933,-0.409589 z"
       id="path826"
       inkscape:connector-curvature="0" />
  </g>
</svg>
