<?xml version="1.0" encoding="UTF-8" standalone="no"?>
<!-- Created with Inkscape (http://www.inkscape.org/) -->

<svg
   xmlns:dc="http://purl.org/dc/elements/1.1/"
   xmlns:cc="http://creativecommons.org/ns#"
   xmlns:rdf="http://www.w3.org/1999/02/22-rdf-syntax-ns#"
   xmlns:svg="http://www.w3.org/2000/svg"
   xmlns="http://www.w3.org/2000/svg"
   xmlns:sodipodi="http://sodipodi.sourceforge.net/DTD/sodipodi-0.dtd"
   xmlns:inkscape="http://www.inkscape.org/namespaces/inkscape"
   width="55.833485mm"
   height="38.333588mm"
   viewBox="0 0 55.833485 38.333588"
   version="1.1"
   id="svg852"
   inkscape:version="0.92.4 (5da689c313, 2019-01-14)"
   sodipodi:docname="brachiosaurus.svg">
  <defs
     id="defs846">
    <filter
       style="color-interpolation-filters:sRGB"
       inkscape:label="Brilliance"
       id="filter1987">
      <feColorMatrix
         values="1 -0 -0 0 -10 -0 1 -0 0 -10 -0 -0 1 0 -10 0 0 0 1 0 "
         id="feColorMatrix1985" />
    </filter>
    <filter
       style="color-interpolation-filters:sRGB"
       inkscape:label="Lightness-Contrast"
       id="filter2289">
      <feColorMatrix
         values="11 0 0 -4.59375 -5 0 11 0 -4.59375 -5 0 0 11 -4.59375 -5 0 0 0 1 0"
         id="feColorMatrix2287"
         result="fbSourceGraphic" />
      <feColorMatrix
         result="fbSourceGraphicAlpha"
         in="fbSourceGraphic"
         values="0 0 0 -1 0 0 0 0 -1 0 0 0 0 -1 0 0 0 0 1 0"
         id="feColorMatrix2291" />
      <feColorMatrix
         id="feColorMatrix2293"
         values="11 0 0 -4.5936 -5 0 11 0 -4.5936 -5 0 0 11 -4.5936 -5 0 0 0 1 0"
         in="fbSourceGraphic" />
    </filter>
    <filter
       style="color-interpolation-filters:sRGB"
       inkscape:label="Lightness-Contrast"
       id="filter2308">
      <feColorMatrix
         values="11 0 0 -4.5936 -5 0 11 0 -4.5936 -5 0 0 11 -4.5936 -5 0 0 0 1 0"
         id="feColorMatrix2306"
         result="fbSourceGraphic" />
      <feColorMatrix
         result="fbSourceGraphicAlpha"
         in="fbSourceGraphic"
         values="0 0 0 -1 0 0 0 0 -1 0 0 0 0 -1 0 0 0 0 1 0"
         id="feColorMatrix2310" />
      <feColorMatrix
         id="feColorMatrix2312"
         values="11 0 0 -4.5936 -5 0 11 0 -4.5936 -5 0 0 11 -4.5936 -5 0 0 0 1 0"
         in="fbSourceGraphic" />
    </filter>
    <filter
       style="color-interpolation-filters:sRGB"
       inkscape:label="Lightness-Contrast"
       id="filter2337">
      <feColorMatrix
         values="11 0 0 -6 -5 0 11 0 -6 -5 0 0 11 -6 -5 0 0 0 1 0"
         id="feColorMatrix2335" />
    </filter>
  </defs>
  <sodipodi:namedview
     id="base"
     pagecolor="#ffffff"
     bordercolor="#666666"
     borderopacity="1.0"
     inkscape:pageopacity="0.0"
     inkscape:pageshadow="2"
     inkscape:zoom="1.4"
     inkscape:cx="40.484768"
     inkscape:cy="50.848716"
     inkscape:document-units="mm"
     inkscape:current-layer="layer1"
     showgrid="false"
     inkscape:window-width="1366"
     inkscape:window-height="745"
     inkscape:window-x="-8"
     inkscape:window-y="-8"
     inkscape:window-maximized="1" />
  <metadata
     id="metadata849">
    <rdf:RDF>
      <cc:Work
         rdf:about="">
        <dc:format>image/svg+xml</dc:format>
        <dc:type
           rdf:resource="http://purl.org/dc/dcmitype/StillImage" />
        <dc:title></dc:title>
      </cc:Work>
    </rdf:RDF>
  </metadata>
  <g
     inkscape:label="Camada 1"
     inkscape:groupmode="layer"
     id="layer1"
     transform="translate(-49.708814,-0.90056582)">
    <path
       style="fill:#d5d5d5;fill-opacity:1;stroke-width:0.99999994"
       d="m 72.29216,39.106381 c 0.01778,-0.09234 0.160306,-0.248685 0.316718,-0.34744 0.716325,-0.452271 0.62203,-1.687642 -0.342478,-4.486806 -0.258873,-0.751297 -0.401003,-1.055477 -0.451236,-0.965717 -0.04033,0.07207 -0.134558,1.007049 -0.209392,2.077736 -0.189417,2.710095 -0.265609,3.323993 -0.433365,3.491749 -0.114964,0.114963 -0.396821,0.146387 -1.480219,0.165026 -1.519729,0.02615 -1.627467,-0.03101 -0.94435,-0.50101 0.668555,-0.459978 0.743762,-0.891991 0.986357,-5.665937 0.208386,-4.10074 0.210101,-4.065943 -0.254056,-5.153157 -0.571405,-1.338426 -1.069224,-2.589393 -1.392624,-3.499521 -0.404443,-1.138204 -0.883174,-1.795144 -2.2421,-3.076733 -1.390367,-1.311237 -3.132765,-3.035777 -3.829428,-3.790177 -1.078426,-1.167803 -2.270113,-2.882959 -3.160091,-4.548213 -0.235924,-0.441444 -0.502921,-0.909149 -0.593326,-1.039344 -0.09041,-0.130195 -0.164373,-0.259386 -0.164373,-0.287092 0,-0.145302 -2.569362,-4.7066854 -3.050025,-5.4147021 C 54.277239,4.9294568 52.812341,3.4156083 52.169843,3.0905341 51.742728,2.8744334 51.601128,2.8454372 51.183448,2.8885462 c -0.26823,0.027683 -0.603875,0.1082948 -0.745879,0.1791354 -0.339655,0.1694423 -0.51362,0.071381 -0.365235,-0.205878 0.101631,-0.1898994 0.0943,-0.1983439 -0.124564,-0.1434131 -0.351663,0.088262 -0.306849,-0.2542362 0.07958,-0.6081897 0.179992,-0.1648665 0.312132,-0.3710735 0.312132,-0.4870868 0,-0.2715272 0.465006,-0.72254818 0.744954,-0.72254818 0.122974,0 0.47721,0.11560298 0.78719,0.25689498 0.309981,0.141292 0.713322,0.304674 0.896314,0.363072 0.566635,0.1808301 1.689936,0.9756561 2.320711,1.6420887 0.331248,0.3499734 1.006141,1.1780879 1.499762,1.8402541 0.997596,1.3382215 3.413151,4.6383738 3.851282,5.2616574 0.952629,1.355205 4.071174,5.047955 4.957233,5.869988 0.884106,0.820221 2.555501,1.867306 4.606885,2.886094 1.333362,0.662192 2.206396,0.9304 3.978155,1.222141 2.693827,0.443569 3.917367,0.806922 5.742535,1.705354 1.882013,0.926413 4.337981,2.624761 6.554777,4.532754 0.36787,0.316625 0.790107,0.680182 0.938306,0.807903 1.059954,0.913498 2.240484,1.810344 3.030232,2.302059 0.411812,0.256404 0.897687,0.491473 2.051155,0.992363 1.08394,0.470698 2.814821,0.867778 5.083297,1.166157 3.22054,0.423607 3.60989,0.453625 5.88381,0.453625 1.88125,0 2.27622,0.02146 2.27622,0.123673 0,0.115722 -0.27423,0.18526 -1.42689,0.361822 -1.68577,0.258224 -6.729334,0.306799 -9.943643,0.09577 -1.177185,-0.07729 -2.200533,-0.15722 -2.274107,-0.17763 -0.07357,-0.02041 -0.73574,-0.100462 -1.47148,-0.177894 -2.003346,-0.21084 -3.629839,-0.402459 -3.871243,-0.456079 l -0.214836,-0.04772 0.06081,1.365262 c 0.03345,0.750895 0.121237,1.646182 0.195089,1.989527 0.214674,0.998041 0.477392,2.728896 0.481824,3.174386 0.0062,0.626232 -0.09807,0.676967 -1.489698,0.724589 -1.258965,0.04308 -1.405231,-0.0091 -0.975134,-0.347572 0.451587,-0.355434 0.536273,-1.272092 0.233353,-2.525826 -0.100734,-0.416919 -0.262396,-1.199479 -0.359248,-1.739022 -0.09685,-0.539543 -0.197447,-1.051217 -0.223545,-1.137053 -0.06283,-0.206647 -0.213792,-0.200268 -0.213792,0.009 0,0.09081 -0.115558,0.622544 -0.256797,1.181643 -0.267129,1.057442 -0.410796,2.001352 -0.500741,3.289941 -0.07765,1.112434 -0.08669,1.120404 -1.353533,1.192737 -0.580163,0.03313 -1.145137,0.08414 -1.255498,0.113356 -0.260909,0.06908 -0.269683,-0.145104 -0.01537,-0.37525 0.488178,-0.441795 0.859302,-1.759723 0.972697,-3.454214 0.04988,-0.745403 0.115998,-1.660304 0.146924,-2.033115 l 0.05623,-0.677836 -0.390729,-0.05862 c -0.46405,-0.06958 -3.839276,-0.523895 -5.774836,-0.777274 -0.754036,-0.09871 -1.390829,-0.159616 -1.415094,-0.135351 -0.02427,0.02426 -1.79e-4,0.397231 0.05343,0.828814 0.237752,1.912418 0.54605,4.125841 0.625404,4.490088 0.153155,0.703001 0.207463,1.547838 0.114976,1.788592 -0.08858,0.230579 -0.0982,0.232692 -1.278013,0.280668 -0.65382,0.02659 -1.263063,0.07839 -1.353874,0.115112 -0.130323,0.0527 -0.158299,0.0314 -0.13278,-0.101114 z"
       id="path2352"
       inkscape:connector-curvature="0" />
  </g>
</svg>
