<?xml version="1.0" encoding="UTF-8" standalone="no"?>
<!-- Created with Inkscape (http://www.inkscape.org/) -->

<svg
   xmlns:dc="http://purl.org/dc/elements/1.1/"
   xmlns:cc="http://creativecommons.org/ns#"
   xmlns:rdf="http://www.w3.org/1999/02/22-rdf-syntax-ns#"
   xmlns:svg="http://www.w3.org/2000/svg"
   xmlns="http://www.w3.org/2000/svg"
   xmlns:sodipodi="http://sodipodi.sourceforge.net/DTD/sodipodi-0.dtd"
   xmlns:inkscape="http://www.inkscape.org/namespaces/inkscape"
   width="71.008644mm"
   height="45.228729mm"
   viewBox="0 0 71.008644 45.22873"
   version="1.1"
   id="svg852"
   inkscape:version="0.92.4 (5da689c313, 2019-01-14)"
   sodipodi:docname="camarasaurus.svg">
  <defs
     id="defs846">
    <filter
       style="color-interpolation-filters:sRGB"
       inkscape:label="Brilliance"
       id="filter1987">
      <feColorMatrix
         values="1 -0 -0 0 -10 -0 1 -0 0 -10 -0 -0 1 0 -10 0 0 0 1 0 "
         id="feColorMatrix1985" />
    </filter>
    <filter
       style="color-interpolation-filters:sRGB"
       inkscape:label="Lightness-Contrast"
       id="filter2289">
      <feColorMatrix
         values="11 0 0 -4.59375 -5 0 11 0 -4.59375 -5 0 0 11 -4.59375 -5 0 0 0 1 0"
         id="feColorMatrix2287"
         result="fbSourceGraphic" />
      <feColorMatrix
         result="fbSourceGraphicAlpha"
         in="fbSourceGraphic"
         values="0 0 0 -1 0 0 0 0 -1 0 0 0 0 -1 0 0 0 0 1 0"
         id="feColorMatrix2291" />
      <feColorMatrix
         id="feColorMatrix2293"
         values="11 0 0 -4.5936 -5 0 11 0 -4.5936 -5 0 0 11 -4.5936 -5 0 0 0 1 0"
         in="fbSourceGraphic" />
    </filter>
    <filter
       style="color-interpolation-filters:sRGB"
       inkscape:label="Lightness-Contrast"
       id="filter2308">
      <feColorMatrix
         values="11 0 0 -4.5936 -5 0 11 0 -4.5936 -5 0 0 11 -4.5936 -5 0 0 0 1 0"
         id="feColorMatrix2306"
         result="fbSourceGraphic" />
      <feColorMatrix
         result="fbSourceGraphicAlpha"
         in="fbSourceGraphic"
         values="0 0 0 -1 0 0 0 0 -1 0 0 0 0 -1 0 0 0 0 1 0"
         id="feColorMatrix2310" />
      <feColorMatrix
         id="feColorMatrix2312"
         values="11 0 0 -4.5936 -5 0 11 0 -4.5936 -5 0 0 11 -4.5936 -5 0 0 0 1 0"
         in="fbSourceGraphic" />
    </filter>
    <filter
       style="color-interpolation-filters:sRGB"
       inkscape:label="Lightness-Contrast"
       id="filter2337">
      <feColorMatrix
         values="11 0 0 -6 -5 0 11 0 -6 -5 0 0 11 -6 -5 0 0 0 1 0"
         id="feColorMatrix2335" />
    </filter>
  </defs>
  <sodipodi:namedview
     id="base"
     pagecolor="#ffffff"
     bordercolor="#666666"
     borderopacity="1.0"
     inkscape:pageopacity="0.0"
     inkscape:pageshadow="2"
     inkscape:zoom="1.4"
     inkscape:cx="40.484768"
     inkscape:cy="50.848716"
     inkscape:document-units="mm"
     inkscape:current-layer="layer1"
     showgrid="false"
     inkscape:window-width="1366"
     inkscape:window-height="745"
     inkscape:window-x="-8"
     inkscape:window-y="-8"
     inkscape:window-maximized="1" />
  <metadata
     id="metadata849">
    <rdf:RDF>
      <cc:Work
         rdf:about="">
        <dc:format>image/svg+xml</dc:format>
        <dc:type
           rdf:resource="http://purl.org/dc/dcmitype/StillImage" />
        <dc:title></dc:title>
      </cc:Work>
    </rdf:RDF>
  </metadata>
  <g
     inkscape:label="Camada 1"
     inkscape:groupmode="layer"
     id="layer1"
     transform="translate(-39.35867,1.2473297)">
    <path
       style="fill:#d5d5d5;fill-opacity:1;stroke-width:1"
       d="m 64.92318,43.86281 c -0.535348,-0.132913 -0.635472,-0.18925 -0.635472,-0.357566 0,-0.119527 0.149639,-0.320048 0.372463,-0.499115 0.489302,-0.393214 0.581908,-0.751951 0.514133,-1.991651 -0.04588,-0.839213 -0.02337,-1.095154 0.149019,-1.694593 0.118804,-0.413098 0.257312,-1.331111 0.3338,-2.212386 0.07191,-0.828468 0.187339,-1.951136 0.256518,-2.494818 0.112713,-0.88581 0.109011,-1.061871 -0.03563,-1.694593 -0.08877,-0.388344 -0.19228,-1.044498 -0.23001,-1.458119 l -0.0686,-0.75204 -1.144432,-1.177914 c -1.527172,-1.571852 -1.941971,-2.22613 -2.125652,-3.352868 -0.05822,-0.357153 -0.148072,-0.760202 -0.199665,-0.895664 -0.09799,-0.257271 -0.646477,-0.760142 -1.681851,-1.541968 C 56.605306,20.853096 54.211734,17.652864 50.57834,10.570681 49.178817,7.8427417 48.815495,7.2474904 47.912151,6.2025217 c -0.738192,-0.853926 -2.570563,-2.176329 -3.048557,-2.200111 -0.112708,-0.0056 -0.480296,0.02102 -0.816861,0.05918 -0.562238,0.06374 -0.685631,0.04176 -1.519332,-0.270611 -0.766087,-0.287038 -1.025179,-0.339984 -1.663731,-0.339984 h -0.756338 l -0.383293,-0.447184 c -0.461359,-0.538262 -0.474918,-0.735214 -0.102077,-1.482769 0.154948,-0.310675 0.281883,-0.60952602 0.282078,-0.66411302 1.89e-4,-0.05459 0.122644,-0.292079 0.272109,-0.527761 0.40622,-0.640543 0.900312,-0.844429 2.248793,-0.927962 0.990906,-0.06138 1.098861,-0.08644 1.256673,-0.291674 0.161745,-0.21035098 0.173177,-0.21263798 0.181108,-0.03624 0.0079,0.175656 0.01532,0.174077 0.110624,-0.02354 0.121757,-0.25245998 0.261101,-0.27738898 0.263116,-0.04707 8.47e-4,0.09304 0.03155,0.123771 0.07061,0.07061 0.03804,-0.05178 0.164487,-0.14745898 0.280991,-0.21262198 0.191159,-0.10692 0.211824,-0.09843 0.211824,0.08702 v 0.20549598 l 0.249307,-0.22823398 c 0.246891,-0.226022 0.248814,-0.226223 0.19824,-0.02076 -0.04913,0.19957598 -0.04238,0.20177798 0.177278,0.05785 0.261822,-0.171552 0.40105,-0.103929 0.22436,0.10897098 -0.139987,0.168674 -0.06519,0.183993 0.201497,0.04127 0.168885,-0.09038 0.183789,-0.07948 0.128683,0.09414 -0.07266,0.228929 0.01786,0.24614 0.274326,0.05216 0.249487,-0.188702 0.465243,-0.17968 0.390036,0.01631 -0.05179,0.134962 -0.03908,0.137942 0.100397,0.02354 0.143069,-0.117356 0.154014,-0.10894 0.105112,0.08083 -0.06147,0.238544 -0.03901,0.251063 0.210697,0.117426 0.103933,-0.05562 0.198106,-0.05925 0.229265,-0.0088 0.02908,0.04706 0.148157,0.0617 0.26461,0.03255 l 0.21173,-0.05301 -0.188288,0.217848 -0.188288,0.217848 0.211824,-0.05304 c 0.235839,-0.05905 0.27222,0.01829 0.09414,0.200138 -0.09541,0.09744 -0.06862,0.09811 0.141614,0.0035 0.297252,-0.133712 0.43317,-0.06116 0.265011,0.141461 -0.09945,0.119824 -0.07457,0.12321 0.189587,0.02581 0.226685,-0.08358 0.313432,-0.08471 0.340921,-0.0044 0.02028,0.05923 0.11957,0.08606 0.220646,0.05963 0.208888,-0.05463 0.240453,0.06444 0.06609,0.249305 -0.0965,0.102311 -0.07067,0.116447 0.143463,0.07853 0.143628,-0.02544 0.283814,-0.0096 0.311524,0.03527 0.02771,0.04484 0.164385,0.08173 0.303722,0.08199 l 0.253339,4.71e-4 -0.282432,0.239869 c -0.195791,0.16628502 -0.21935,0.20946202 -0.0768,0.14074902 0.3132,-0.15097002 0.625627,-0.12750802 0.560544,0.04209 -0.03915,0.102023 0.01031,0.141216 0.178216,0.141216 0.127823,0 0.232406,0.04237 0.232406,0.09414 0,0.05178 -0.03427,0.09414 -0.07615,0.09414 -0.04188,0 -0.158386,0.06469 -0.258896,0.143762 -0.168752,0.132753 -0.148502,0.139144 0.264439,0.08345 0.477884,-0.06445 0.597034,0.04832 0.23536,0.222745 -0.187459,0.09041 -0.163093,0.103237 0.211824,0.111525 0.393471,0.0087 0.410631,0.01921 0.240902,0.147588 -0.175264,0.13256 -0.172373,0.138219 0.07061,0.138219 0.139344,0 0.253353,0.04237 0.253353,0.09414 0,0.05178 -0.04236,0.09414 -0.09414,0.09414 -0.05178,0 -0.09414,0.03649 -0.09414,0.08109 0,0.0446 0.116504,0.06047 0.258897,0.03527 0.212255,-0.03756 0.237695,-0.02334 0.141216,0.07896 -0.182862,0.193882 -0.140674,0.253661 0.141216,0.200099 0.232424,-0.04416 0.245685,-0.0332 0.129689,0.107199 -0.115935,0.140326 -0.09659,0.1567 0.188288,0.159386 0.299562,0.0028 0.307173,0.0108 0.134749,0.141216 -0.174707,0.132142 -0.171156,0.138222 0.08068,0.138222 0.191364,0 0.249105,0.03732 0.211076,0.136422 -0.03685,0.09603 -0.0071,0.119066 0.100416,0.0778 0.115339,-0.04426 0.137614,-0.01914 0.09092,0.102552 -0.04276,0.111424 -0.0021,0.183292 0.131855,0.23283 0.106536,0.03941 0.179969,0.09298 0.163184,0.119045 -0.03006,0.04668 1.575678,2.050977 3.870996,4.8318281 2.429409,2.9433072 4.873087,5.0995042 7.213637,6.3650032 1.510591,0.816753 2.409665,1.086957 4.701052,1.412836 2.651634,0.377112 7.25858,1.484881 11.000259,2.64508 2.602886,0.807089 6.654573,2.547115 9.101135,3.908548 1.447387,0.805422 2.426827,1.230704 4.109797,1.784512 1.7025,0.560234 2.58641,0.76278 3.84374,0.880777 2.03451,0.190934 3.464781,0.120491 6.684231,-0.32921 1.54607,-0.21596 4.23588,-0.151659 5.13085,0.122655 0.8828,0.270579 1.43875,0.499345 1.60045,0.65856 0.16204,0.159545 -0.057,0.146142 -1.97702,-0.120968 -1.87307,-0.260579 -3.45609,-0.0745 -6.30766,0.741451 -4.183561,1.197089 -6.807911,1.51447 -13.650888,1.650888 -3.084334,0.06149 -3.581305,0.09179 -3.933261,0.239801 -0.221573,0.09318 -0.446468,0.250903 -0.499768,0.350495 -0.0533,0.09959 -0.120106,0.613465 -0.148459,1.141944 -0.04354,0.811589 -0.0149,1.121756 0.184378,1.996454 0.366821,1.610115 0.374561,1.679785 0.397457,3.577474 0.01528,1.266563 0.06591,1.967376 0.173416,2.400674 0.08351,0.336565 0.152781,0.866126 0.153937,1.176801 0.0012,0.310676 0.04449,0.825999 0.09629,1.145161 0.165444,1.019356 -0.110348,1.329691 -1.258884,1.416555 -0.764562,0.05782 -1.505294,-0.07707 -1.778724,-0.32392 -0.150217,-0.135614 -0.164752,-0.135481 -0.164752,0.0015 0,0.208405 -0.191943,0.307096 -0.291516,0.149889 -0.128638,-0.203094 -0.09922,-0.723658 0.0581,-1.027862 0.07873,-0.152259 0.306517,-0.360174 0.506181,-0.462035 0.199663,-0.101861 0.385447,-0.243634 0.412852,-0.31505 0.02741,-0.07142 0.0186,-0.740467 -0.01958,-1.486779 l -0.06941,-1.356943 -0.996852,-2.494817 c -0.548267,-1.37215 -1.092441,-2.847317 -1.209273,-3.278149 -0.191715,-0.70697 -0.231453,-0.77773 -0.407656,-0.725877 -0.107379,0.0316 -0.873071,0.231226 -1.701539,0.443615 -0.828468,0.212389 -1.525742,0.403133 -1.549497,0.423875 -0.02376,0.02074 -0.03417,0.533715 -0.02315,1.139939 0.01102,0.606226 -0.01871,1.634475 -0.06607,2.284999 -0.05318,0.730385 -0.05212,1.468555 0.0028,1.929954 0.04888,0.41095 0.126188,1.0861 0.171796,1.500334 0.04561,0.414234 0.171286,0.977137 0.279284,1.250895 0.385734,0.977774 0.250414,1.161188 -1.065834,1.444629 -1.036007,0.223095 -2.126991,0.187223 -2.126991,-0.06994 0,-0.190265 -0.256595,-0.26941 -0.423733,-0.130697 -0.111701,0.0927 -0.149973,0.08643 -0.195432,-0.03203 -0.03109,-0.08102 -0.02909,-0.191704 0.0044,-0.245962 0.03353,-0.05426 0.01861,-0.09865 -0.03317,-0.09865 -0.05178,0 -0.120326,0.04236 -0.152328,0.09414 -0.08854,0.143255 -0.23536,0.112345 -0.23536,-0.04955 0,-0.262493 0.814791,-0.978065 1.244521,-1.092972 l 0.402998,-0.10776 -0.0123,-1.389439 c -0.01399,-1.580281 -0.06616,-1.797589 -0.948445,-3.950364 -0.286483,-0.69902 -0.580153,-1.469225 -0.6526,-1.711567 l -0.131719,-0.440623 -0.53963,-0.05877 c -0.296797,-0.03232 -0.823117,-0.09882 -1.1696,-0.147778 -0.973328,-0.137528 -0.940003,-0.151558 -0.738927,0.311099 0.254106,0.584674 0.282796,1.268067 0.117229,2.792346 -0.222427,2.04776 0.02338,3.391948 0.775057,4.238291 0.476502,0.536517 0.678756,1.034892 0.531584,1.309885 -0.05379,0.100509 -0.217606,0.283554 -0.364035,0.406766 -0.146429,0.123211 -0.291616,0.290164 -0.322638,0.371006 -0.04573,0.119179 -0.149748,0.135009 -0.549859,0.08368 -0.559026,-0.07172 -0.722525,-0.228097 -0.809925,-0.774669 -0.05385,-0.336789 -0.245246,-0.684958 -0.943372,-1.716135 -0.276527,-0.408445 -0.306319,-0.42737 -0.399303,-0.253629 -0.166067,0.310299 -0.384532,1.252641 -0.384532,1.658665 0,0.209202 -0.0606,0.670003 -0.134666,1.024 -0.102272,0.48881 -0.112163,0.783196 -0.04112,1.223838 0.116777,0.724288 0.04118,1.152623 -0.235395,1.333846 -0.333578,0.218568 -1.504323,0.255326 -2.248391,0.07059 z M 40.726194,1.6995207 c -0.03128,-0.03128 -0.112484,-0.03463 -0.180443,-0.0074 -0.0751,0.03005 -0.05279,0.05236 0.05688,0.05688 0.09924,0.0041 0.154847,-0.01816 0.123564,-0.04945 z"
       id="path2339"
       inkscape:connector-curvature="0" />
  </g>
</svg>
