<?xml version="1.0" encoding="UTF-8" standalone="no"?>
<!-- Created with Inkscape (http://www.inkscape.org/) -->

<svg
   xmlns:dc="http://purl.org/dc/elements/1.1/"
   xmlns:cc="http://creativecommons.org/ns#"
   xmlns:rdf="http://www.w3.org/1999/02/22-rdf-syntax-ns#"
   xmlns:svg="http://www.w3.org/2000/svg"
   xmlns="http://www.w3.org/2000/svg"
   xmlns:sodipodi="http://sodipodi.sourceforge.net/DTD/sodipodi-0.dtd"
   xmlns:inkscape="http://www.inkscape.org/namespaces/inkscape"
   width="112.99445mm"
   height="40.520775mm"
   viewBox="0 0 112.99444 40.520775"
   version="1.1"
   id="svg8"
   inkscape:version="0.92.4 (5da689c313, 2019-01-14)"
   sodipodi:docname="carcharodontosaurus.svg">
  <defs
     id="defs2" />
  <sodipodi:namedview
     id="base"
     pagecolor="#ffffff"
     bordercolor="#666666"
     borderopacity="1.0"
     inkscape:pageopacity="0.0"
     inkscape:pageshadow="2"
     inkscape:zoom="1.4"
     inkscape:cx="225.44528"
     inkscape:cy="142.00926"
     inkscape:document-units="mm"
     inkscape:current-layer="layer1"
     showgrid="false"
     inkscape:window-width="1366"
     inkscape:window-height="745"
     inkscape:window-x="-8"
     inkscape:window-y="-8"
     inkscape:window-maximized="1" />
  <metadata
     id="metadata5">
    <rdf:RDF>
      <cc:Work
         rdf:about="">
        <dc:format>image/svg+xml</dc:format>
        <dc:type
           rdf:resource="http://purl.org/dc/dcmitype/StillImage" />
        <dc:title></dc:title>
      </cc:Work>
    </rdf:RDF>
  </metadata>
  <g
     inkscape:label="Camada 1"
     inkscape:groupmode="layer"
     id="layer1"
     transform="translate(-38.54511,-60.077502)">
    <path
       style="fill:#d5d5d5;fill-opacity:1;stroke-width:1"
       d="m 91.437436,100.58145 c -0.06971,-0.025 -0.126744,-0.1101 -0.126744,-0.18911 0,-0.10671 -0.149902,-0.14489 -0.583024,-0.14849 -2.369827,-0.0197 -2.845274,-0.0116 -3.086796,0.0527 -0.38843,0.10336 -0.501838,0.004 -0.375368,-0.330248 0.133473,-0.35231 0.436483,-0.67515 0.9768,-1.0407 0.538627,-0.364406 0.954532,-0.47448 2.105131,-0.557149 1.23206,-0.08852 1.6298,-0.198306 2.25605,-0.622724 0.37677,-0.255341 0.53232,-0.427234 0.53232,-0.58823 0,-0.125107 0.0845,-0.336283 0.18776,-0.469281 0.18467,-0.237854 0.6609,-1.404171 0.59872,-1.466344 -0.0175,-0.0175 -0.12177,0.102835 -0.2317,0.267411 -0.10994,0.164577 -0.27416,0.323082 -0.36494,0.352234 -0.0908,0.02915 -0.29609,0.165716 -0.45627,0.303474 -0.16018,0.137756 -0.34295,0.250522 -0.40616,0.25059 -0.15431,2.03e-4 -0.24771,-0.389973 -0.16872,-0.704718 0.0595,-0.237064 0.0319,-0.226758 -0.39843,0.149036 -0.2543,0.222042 -0.714096,0.517783 -1.021771,0.657201 -0.332659,0.15074 -0.628423,0.368817 -0.729668,0.53801 -0.205292,0.343074 -0.46665,0.323188 -0.596263,-0.04537 -0.06733,-0.191438 -0.0311,-0.528402 0.129423,-1.203809 0.261241,-1.099199 0.504596,-1.619327 1.022306,-2.184998 0.54179,-0.591983 0.855773,-1.180726 1.206623,-2.262496 0.1696,-0.522914 0.39005,-1.041255 0.48989,-1.151867 0.17662,-0.19568 0.16936,-0.211927 -0.26878,-0.601154 -0.40861,-0.362993 -1.150831,-0.759976 -3.199925,-1.711511 -1.058771,-0.491659 -2.958482,-1.783039 -3.660824,-2.488543 -0.373314,-0.374994 -0.84304,-0.724334 -1.183574,-0.880236 -0.310535,-0.142196 -0.816623,-0.448788 -1.124638,-0.681341 -0.515439,-0.389161 -0.651284,-0.437801 -1.706197,-0.610915 -0.630391,-0.10345 -2.007466,-0.3304 -3.060166,-0.504334 -1.052699,-0.173935 -2.683206,-0.508897 -3.623349,-0.744363 l -1.709351,-0.42812 0.06433,1.631256 0.06434,1.631256 -0.31936,0.3267 c -0.175648,0.179685 -0.319359,0.369703 -0.319359,0.422262 0,0.05256 -0.111837,0.168839 -0.248525,0.258401 -0.303159,0.198638 -0.644889,0.112123 -0.76009,-0.19243 -0.09734,-0.257323 -0.01802,-0.454495 0.103645,-0.257641 0.04697,0.076 0.06544,-0.14713 0.04214,-0.508934 -0.04506,-0.6996 -0.151126,-0.976489 -0.151126,-0.394521 0,0.722849 -0.567579,0.756228 -0.925607,0.05443 -0.200124,-0.392275 -0.207519,-0.502053 -0.127575,-1.893791 0.04667,-0.812557 0.086,-1.545632 0.08739,-1.629054 0.0016,-0.094 -0.228799,-0.236292 -0.60584,-0.374205 -0.895724,-0.327637 -0.899682,-0.326145 -0.833607,0.314053 0.05692,0.551527 0.326013,1.117371 0.484726,1.019282 0.26908,-0.166301 0.39022,1.164631 0.129715,1.425136 -0.274597,0.274596 -0.731241,0.183832 -1.134463,-0.225489 -0.203551,-0.206631 -0.447471,-0.363879 -0.542045,-0.349441 -0.297286,0.04539 -0.757359,-0.26598 -0.929725,-0.629214 -0.12385,-0.260995 -0.165766,-0.647029 -0.165766,-1.52667 v -1.177346 l -0.980452,-0.480354 c -1.24245,-0.608718 -1.83618,-1.136599 -2.247955,-1.998643 -0.174408,-0.365121 -0.345283,-0.776122 -0.379722,-0.913337 -0.07943,-0.316458 -0.85473,-0.762331 -1.325575,-0.762331 -0.189953,0 -0.515009,-0.07265 -0.722346,-0.161442 -0.207337,-0.08879 -0.586556,-0.225321 -0.842711,-0.303395 -0.551573,-0.168114 -1.982867,-0.843406 -2.626825,-1.239348 -0.565115,-0.347466 -1.758825,-0.63093 -2.649693,-0.629209 -0.569796,0.0011 -0.863969,0.07852 -1.926513,0.507014 -0.689716,0.278143 -1.322471,0.506871 -1.406123,0.508285 -0.195307,0.0033 -1.10619,0.291903 -2.356025,0.746476 -1.188979,0.432438 -2.974608,1.323178 -4.082583,2.036549 -0.446139,0.287248 -1.005942,0.646715 -1.244007,0.798816 -0.238064,0.152102 -0.678453,0.498974 -0.978642,0.770826 -0.300188,0.271852 -0.638738,0.523775 -0.752333,0.559829 -0.287148,0.09114 -1.124984,-0.35213 -1.523519,-0.806036 -0.298702,-0.340202 -0.318034,-0.405614 -0.256647,-0.868373 l 0.06639,-0.500456 h -0.335934 c -1.007757,0 -1.677431,-0.857715 -1.656183,-2.121229 0.01282,-0.762474 0.264042,-1.366872 1.204498,-2.897843 0.308315,-0.501907 0.638029,-1.117884 0.732697,-1.368838 0.122218,-0.323982 0.418659,-0.691474 1.022398,-1.267442 0.467651,-0.44614 1.149408,-1.176187 1.515018,-1.622327 0.726791,-0.886878 0.891498,-1.045563 1.496498,-1.441782 0.22307,-0.14609 0.617827,-0.466518 0.877237,-0.712065 0.898431,-0.850412 1.190391,-1.012935 1.961835,-1.092077 0.622371,-0.06385 0.776428,-0.124436 1.251129,-0.49205 2.925382,-2.265451 4.491108,-3.050886 7.012596,-3.517816 0.921581,-0.170657 2.384684,-0.146033 2.927866,0.04928 0.244024,0.08774 0.553313,0.159533 0.68731,0.159533 0.331422,0 1.35694,0.53016 2.130082,1.101184 0.350329,0.258744 0.83216,0.598094 1.070738,0.75411 0.238576,0.156017 0.792671,0.532708 1.231323,0.837091 0.438651,0.304383 1.046922,0.625919 1.351711,0.714524 1.160111,0.337253 2.798758,0.236387 4.433556,-0.272905 2.091415,-0.651543 2.96475,-0.81992 4.672075,-0.900768 0.89228,-0.04225 1.850466,-0.06131 2.129304,-0.04234 2.455784,0.16702 3.920731,0.299721 6.185119,0.560271 1.449954,0.166838 3.046932,0.343506 3.548839,0.392596 2.266018,0.221629 3.013175,0.306104 4.055816,0.458559 0.613442,0.0897 1.434749,0.205681 1.825119,0.25774 1.38776,0.185067 3.557095,0.583704 4.765585,0.875722 0.55767,0.134758 2.2459,0.649743 3.75163,1.144413 4.24822,1.395658 7.54046,2.447198 8.26372,2.63943 0.36249,0.09634 1.00801,0.269036 1.4345,0.383761 2.21147,0.594883 8.08887,1.5327 12.30458,1.963358 1.7638,0.180181 7.39424,0.171756 10.24093,-0.01533 4.20864,-0.276588 8.32174,-0.157597 10.54513,0.305066 3.02173,0.62879 4.6761,1.32946 6.44379,2.72912 0.73638,0.583058 1.92133,1.906097 1.92133,2.145232 0,0.188807 -0.23771,0.07751 -0.69422,-0.32504 -0.91473,-0.806618 -2.64456,-1.697368 -4.10707,-2.114877 -2.34852,-0.670438 -5.44605,-0.750033 -8.22802,-0.211428 -0.55768,0.107969 -1.42461,0.270195 -1.92652,0.360503 -1.6366,0.294473 -4.3398,0.864132 -5.27256,1.111115 -0.5019,0.132898 -1.41446,0.339458 -2.0279,0.459021 -0.61345,0.119564 -1.41194,0.28101 -1.77442,0.358772 -3.53013,0.757287 -7.38024,1.318997 -11.76187,1.71599 -0.97593,0.08842 -2.20789,0.202984 -2.73768,0.254579 -2.71082,0.264001 -6.96825,0.513602 -8.72673,0.511622 -1.63494,-0.0018 -2.19861,0.123543 -3.39002,0.75409 -0.55767,0.295145 -1.21164,0.566456 -1.45326,0.602914 -0.53306,0.08043 -1.22071,0.419591 -2.29837,1.133578 -0.55408,0.367104 -1.02762,0.59141 -1.49417,0.707758 -0.44834,0.11181 -0.65975,0.209764 -0.61532,0.285104 0.55742,0.945284 2.21569,2.716904 2.85019,3.045017 0.15852,0.08197 0.41157,0.33543 0.56232,0.563233 0.23858,0.360522 0.27557,0.522314 0.28546,1.248727 0.0123,0.903205 -0.1256,1.354337 -0.61166,2.000989 -0.47685,0.634403 -0.51027,0.731958 -0.35497,1.036113 0.27379,0.536229 0.19071,1.531177 -0.31561,3.779768 -0.45128,2.004141 -0.52737,2.975258 -0.24672,3.14871 0.0509,0.03147 0.0926,0.258976 0.0926,0.505576 0,0.393692 0.0309,0.456122 0.25348,0.511986 0.13942,0.03499 0.25349,0.09942 0.25349,0.143176 0,0.193775 -0.75021,0.28191 -0.86186,0.101252 -0.13618,-0.220343 -0.24416,-0.08962 -0.14657,0.177442 0.056,0.15336 0.12322,0.339262 0.14929,0.413108 0.0375,0.10631 0.0806,0.10103 0.20702,-0.0254 0.1953,-0.195289 0.31256,-0.201975 0.41894,-0.02389 0.0446,0.07466 0.17235,0.187337 0.28388,0.250407 0.16994,0.0961 0.17498,0.11517 0.0311,0.11775 -0.0944,0.002 -0.23132,0.0857 -0.30419,0.18673 -0.25039,0.34706 -0.37374,0.34639 -0.47439,-0.003 -0.0934,-0.32379 -0.0964,-0.32532 -0.10524,-0.0543 -0.0122,0.37247 -0.31817,0.65869 -0.7893,0.73837 -0.21224,0.0359 -0.52967,0.129701 -0.7054,0.208451 -0.17573,0.0787 -0.54075,0.14429 -0.81116,0.14566 -0.27041,0.001 -0.696975,0.05 -0.947925,0.1082 -0.25096,0.0581 -0.80428,0.1193 -1.22961,0.13591 -0.42533,0.0166 -0.81317,0.053 -0.86186,0.0809 -0.0487,0.0279 -0.14557,0.0303 -0.215282,0.005 z M 71.332204,83.797299 c -0.002,-0.125476 -0.07318,-0.342209 -0.158232,-0.481628 l -0.15464,-0.253488 0.05684,0.342209 c 0.03126,0.188216 0.05684,0.404948 0.05684,0.481628 0,0.07668 0.04563,0.139419 0.101395,0.139419 0.05577,0 0.09978,-0.102663 0.0978,-0.22814 z M 69.459983,82.91009 c 0.03447,-0.05577 -0.0085,-0.101396 -0.09541,-0.101396 -0.08694,0 -0.158077,0.04563 -0.158077,0.101396 0,0.05577 0.04293,0.101395 0.09541,0.101395 0.05248,0 0.123611,-0.04563 0.158077,-0.101395 z m -1.634078,-0.785814 c -0.114122,-0.479871 -0.208192,-0.594962 -0.285977,-0.349883 -0.07303,0.230104 0.08707,0.62872 0.25253,0.62872 0.05731,0 0.07154,-0.118658 0.03345,-0.278837 z"
       id="path924"
       inkscape:connector-curvature="0" />
  </g>
</svg>
