<?xml version="1.0" encoding="UTF-8" standalone="no"?>
<!-- Created with Inkscape (http://www.inkscape.org/) -->

<svg
   xmlns:dc="http://purl.org/dc/elements/1.1/"
   xmlns:cc="http://creativecommons.org/ns#"
   xmlns:rdf="http://www.w3.org/1999/02/22-rdf-syntax-ns#"
   xmlns:svg="http://www.w3.org/2000/svg"
   xmlns="http://www.w3.org/2000/svg"
   xmlns:sodipodi="http://sodipodi.sourceforge.net/DTD/sodipodi-0.dtd"
   xmlns:inkscape="http://www.inkscape.org/namespaces/inkscape"
   width="92.261612mm"
   height="27.963276mm"
   viewBox="0 0 92.261613 27.963276"
   version="1.1"
   id="svg852"
   inkscape:version="0.92.4 (5da689c313, 2019-01-14)"
   sodipodi:docname="carnotaurus.svg">
  <defs
     id="defs846">
    <filter
       style="color-interpolation-filters:sRGB"
       inkscape:label="Brilliance"
       id="filter1987">
      <feColorMatrix
         values="1 -0 -0 0 -10 -0 1 -0 0 -10 -0 -0 1 0 -10 0 0 0 1 0 "
         id="feColorMatrix1985" />
    </filter>
    <filter
       style="color-interpolation-filters:sRGB"
       inkscape:label="Lightness-Contrast"
       id="filter2289">
      <feColorMatrix
         values="11 0 0 -4.59375 -5 0 11 0 -4.59375 -5 0 0 11 -4.59375 -5 0 0 0 1 0"
         id="feColorMatrix2287"
         result="fbSourceGraphic" />
      <feColorMatrix
         result="fbSourceGraphicAlpha"
         in="fbSourceGraphic"
         values="0 0 0 -1 0 0 0 0 -1 0 0 0 0 -1 0 0 0 0 1 0"
         id="feColorMatrix2291" />
      <feColorMatrix
         id="feColorMatrix2293"
         values="11 0 0 -4.5936 -5 0 11 0 -4.5936 -5 0 0 11 -4.5936 -5 0 0 0 1 0"
         in="fbSourceGraphic" />
    </filter>
    <filter
       style="color-interpolation-filters:sRGB"
       inkscape:label="Lightness-Contrast"
       id="filter2308">
      <feColorMatrix
         values="11 0 0 -4.5936 -5 0 11 0 -4.5936 -5 0 0 11 -4.5936 -5 0 0 0 1 0"
         id="feColorMatrix2306"
         result="fbSourceGraphic" />
      <feColorMatrix
         result="fbSourceGraphicAlpha"
         in="fbSourceGraphic"
         values="0 0 0 -1 0 0 0 0 -1 0 0 0 0 -1 0 0 0 0 1 0"
         id="feColorMatrix2310" />
      <feColorMatrix
         id="feColorMatrix2312"
         values="11 0 0 -4.5936 -5 0 11 0 -4.5936 -5 0 0 11 -4.5936 -5 0 0 0 1 0"
         in="fbSourceGraphic" />
    </filter>
    <filter
       style="color-interpolation-filters:sRGB"
       inkscape:label="Lightness-Contrast"
       id="filter2337">
      <feColorMatrix
         values="11 0 0 -6 -5 0 11 0 -6 -5 0 0 11 -6 -5 0 0 0 1 0"
         id="feColorMatrix2335" />
    </filter>
    <filter
       style="color-interpolation-filters:sRGB"
       inkscape:label="Lightness-Contrast"
       id="filter2407">
      <feColorMatrix
         values="11 0 0 -4.78125 -5 0 11 0 -4.78125 -5 0 0 11 -4.78125 -5 0 0 0 1 0"
         id="feColorMatrix2405"
         result="fbSourceGraphic" />
      <feColorMatrix
         result="fbSourceGraphicAlpha"
         in="fbSourceGraphic"
         values="0 0 0 -1 0 0 0 0 -1 0 0 0 0 -1 0 0 0 0 1 0"
         id="feColorMatrix2409" />
      <feColorMatrix
         id="feColorMatrix2411"
         values="11 0 0 -4.7814 -5 0 11 0 -4.7814 -5 0 0 11 -4.7814 -5 0 0 0 1 0"
         in="fbSourceGraphic"
         result="fbSourceGraphic" />
      <feColorMatrix
         result="fbSourceGraphicAlpha"
         in="fbSourceGraphic"
         values="0 0 0 -1 0 0 0 0 -1 0 0 0 0 -1 0 0 0 0 1 0"
         id="feColorMatrix2413" />
      <feColorMatrix
         id="feColorMatrix2415"
         values="11 0 0 -4.7814 -5 0 11 0 -4.7814 -5 0 0 11 -4.7814 -5 0 0 0 1 0"
         in="fbSourceGraphic"
         result="fbSourceGraphic" />
      <feColorMatrix
         result="fbSourceGraphicAlpha"
         in="fbSourceGraphic"
         values="0 0 0 -1 0 0 0 0 -1 0 0 0 0 -1 0 0 0 0 1 0"
         id="feColorMatrix2417" />
      <feColorMatrix
         id="feColorMatrix2419"
         values="11 0 0 -4.7814 -5 0 11 0 -4.7814 -5 0 0 11 -4.7814 -5 0 0 0 1 0"
         in="fbSourceGraphic"
         result="fbSourceGraphic" />
      <feColorMatrix
         result="fbSourceGraphicAlpha"
         in="fbSourceGraphic"
         values="0 0 0 -1 0 0 0 0 -1 0 0 0 0 -1 0 0 0 0 1 0"
         id="feColorMatrix2421" />
      <feColorMatrix
         id="feColorMatrix2423"
         values="11 0 0 -4.7814 -5 0 11 0 -4.7814 -5 0 0 11 -4.7814 -5 0 0 0 1 0"
         in="fbSourceGraphic"
         result="fbSourceGraphic" />
      <feColorMatrix
         result="fbSourceGraphicAlpha"
         in="fbSourceGraphic"
         values="0 0 0 -1 0 0 0 0 -1 0 0 0 0 -1 0 0 0 0 1 0"
         id="feColorMatrix2425" />
      <feColorMatrix
         id="feColorMatrix2427"
         values="11 0 0 -4.7814 -5 0 11 0 -4.7814 -5 0 0 11 -4.7814 -5 0 0 0 1 0"
         in="fbSourceGraphic"
         result="fbSourceGraphic" />
      <feColorMatrix
         result="fbSourceGraphicAlpha"
         in="fbSourceGraphic"
         values="0 0 0 -1 0 0 0 0 -1 0 0 0 0 -1 0 0 0 0 1 0"
         id="feColorMatrix2429" />
      <feColorMatrix
         id="feColorMatrix2431"
         values="11 0 0 -4.7814 -5 0 11 0 -4.7814 -5 0 0 11 -4.7814 -5 0 0 0 1 0"
         in="fbSourceGraphic"
         result="fbSourceGraphic" />
      <feColorMatrix
         result="fbSourceGraphicAlpha"
         in="fbSourceGraphic"
         values="0 0 0 -1 0 0 0 0 -1 0 0 0 0 -1 0 0 0 0 1 0"
         id="feColorMatrix2433" />
      <feColorMatrix
         id="feColorMatrix2435"
         values="11 0 0 -4.7814 -5 0 11 0 -4.7814 -5 0 0 11 -4.7814 -5 0 0 0 1 0"
         in="fbSourceGraphic" />
    </filter>
    <filter
       style="color-interpolation-filters:sRGB"
       inkscape:label="Lightness-Contrast"
       id="filter3035">
      <feColorMatrix
         values="11 0 0 -4.5625 -5 0 11 0 -4.5625 -5 0 0 11 -4.5625 -5 0 0 0 1 0"
         id="feColorMatrix3033"
         result="fbSourceGraphic" />
      <feColorMatrix
         result="fbSourceGraphicAlpha"
         in="fbSourceGraphic"
         values="0 0 0 -1 0 0 0 0 -1 0 0 0 0 -1 0 0 0 0 1 0"
         id="feColorMatrix3037" />
      <feColorMatrix
         id="feColorMatrix3039"
         values="11 0 0 -4.5624 -5 0 11 0 -4.5624 -5 0 0 11 -4.5624 -5 0 0 0 1 0"
         in="fbSourceGraphic" />
    </filter>
    <filter
       style="color-interpolation-filters:sRGB"
       inkscape:label="Lightness-Contrast"
       id="filter3251">
      <feColorMatrix
         values="11 0 0 -6 -5 0 11 0 -6 -5 0 0 11 -6 -5 0 0 0 1 0"
         id="feColorMatrix3249" />
    </filter>
  </defs>
  <sodipodi:namedview
     id="base"
     pagecolor="#ffffff"
     bordercolor="#666666"
     borderopacity="1.0"
     inkscape:pageopacity="0.0"
     inkscape:pageshadow="2"
     inkscape:zoom="1.4"
     inkscape:cx="143.83857"
     inkscape:cy="74.589269"
     inkscape:document-units="mm"
     inkscape:current-layer="layer1"
     showgrid="false"
     inkscape:window-width="1366"
     inkscape:window-height="745"
     inkscape:window-x="-8"
     inkscape:window-y="-8"
     inkscape:window-maximized="1" />
  <metadata
     id="metadata849">
    <rdf:RDF>
      <cc:Work
         rdf:about="">
        <dc:format>image/svg+xml</dc:format>
        <dc:type
           rdf:resource="http://purl.org/dc/dcmitype/StillImage" />
        <dc:title></dc:title>
      </cc:Work>
    </rdf:RDF>
  </metadata>
  <g
     inkscape:label="Camada 1"
     inkscape:groupmode="layer"
     id="layer1"
     transform="translate(-44.120303,-6.2336601)">
    <path
       style="fill:#d5d5d5;stroke-width:0.99999994;fill-opacity:1"
       d="m 82.78094,33.480512 c 0.0422,-0.292619 0.561381,-0.603499 1.007858,-0.603499 0.409659,0 1.609801,-0.275969 2.111188,-0.485462 0.376077,-0.157135 1.056635,-0.908713 1.330961,-1.469855 0.174559,-0.357064 0.196901,-0.546078 0.199979,-1.691813 0.0033,-1.225867 -0.0082,-1.311897 -0.23139,-1.73461 -0.374512,-0.709254 -1.157289,-1.411298 -2.121834,-1.902991 -0.788445,-0.401925 -1.830858,-0.774581 -2.442456,-0.873165 -0.735323,-0.118526 -2.573681,-1.016659 -2.881211,-1.40762 -0.266968,-0.339396 -0.950455,-1.715363 -1.125304,-2.265416 -0.08554,-0.269087 -0.180623,-0.514083 -0.211302,-0.544434 -0.03068,-0.03035 -0.235914,-0.07808 -0.456076,-0.106056 l -0.400295,-0.05087 -0.01773,0.684258 c -0.0097,0.376343 0.03951,0.907182 0.109455,1.179642 0.146665,0.57127 0.866418,2.146966 1.27497,2.791185 0.356925,0.562811 0.370841,1.064681 0.04966,1.790927 -0.36325,0.821371 -0.680232,1.154324 -1.446395,1.519268 -0.37488,0.178565 -0.956088,0.500585 -1.291575,0.7156 -0.528022,0.338413 -0.604376,0.420229 -0.5683,0.60895 0.02539,0.132835 1.78e-4,0.218014 -0.06444,0.218014 -0.103145,0 -0.501674,0.577754 -0.763038,1.106189 -0.07103,0.143617 -0.296925,0.379835 -0.501982,0.524929 -0.205058,0.145093 -0.420729,0.37944 -0.479271,0.520771 -0.139252,0.336187 -0.407903,0.516742 -0.76887,0.516742 -0.23785,0 -0.291547,0.03477 -0.291547,0.1888 0,0.156128 -0.02266,0.169998 -0.130919,0.08015 -0.105411,-0.08748 -0.192608,-0.07053 -0.447521,0.08702 -0.207922,0.128504 -0.390175,0.177205 -0.530938,0.141875 -0.159545,-0.04004 -0.250444,-0.0025 -0.355577,0.146716 -0.120234,0.170693 -0.154255,0.180669 -0.228762,0.06708 -0.199831,-0.304649 0.09553,-1.126652 0.500076,-1.391718 0.436512,-0.286014 1.028966,-1.181162 1.359838,-2.054602 l 0.323052,-0.852797 0.934021,-0.570018 c 1.71107,-1.044239 2.603461,-1.853842 2.71833,-2.46615 0.04252,-0.226637 -0.0017,-0.432682 -0.173116,-0.80716 -0.18352,-0.40086 -0.538446,-0.809324 -1.750079,-2.014063 -1.478995,-1.470579 -1.988224,-2.109857 -2.518121,-3.161216 -0.255282,-0.5065 -0.36777,-0.592564 -0.90049,-0.688958 -0.195328,-0.03534 -0.395475,-0.08952 -0.444772,-0.1204 -0.0493,-0.03088 -0.129661,-0.06533 -0.178586,-0.07655 -2.550031,-0.585191 -5.379277,-1.812557 -6.817056,-2.957333 -0.512817,-0.408312 -0.653092,-0.578541 -1.037036,-1.25849 -0.379083,-0.671339 -0.481034,-0.747641 -1.400406,-1.048077 -0.438888,-0.143422 -1.017998,-0.363653 -1.28691,-0.489404 -3.994388,-1.86787 -4.284608,-1.9896 -5.219387,-2.189234 l -0.727507,-0.155368 -1.140535,0.285251 c -1.248951,0.312368 -2.250828,0.489513 -2.765603,0.488997 -0.43947,-4.4e-4 -0.910131,-0.288904 -0.910131,-0.557812 0,-0.192588 0.03544,-0.205355 0.587832,-0.211785 0.323308,-0.0038 0.613521,-0.04222 0.644919,-0.08547 0.0314,-0.04324 0.196147,-0.0855 0.366109,-0.09391 0.169962,-0.0084 0.323491,-0.05869 0.341176,-0.111748 0.01769,-0.05306 0.06876,-0.07384 0.113494,-0.0462 0.0896,0.05537 1.059873,-0.6680356 1.059873,-0.7902096 0,-0.09552 -0.923823,0.0233 -0.962007,0.123723 -0.01539,0.04048 -0.08544,0.05156 -0.15567,0.02461 -0.07023,-0.02695 -0.127684,2.17e-4 -0.127684,0.06037 0,0.08623 -0.02804,0.0861 -0.132542,-6.23e-4 -0.10951,-0.09089 -0.145549,-0.07484 -0.207391,0.09234 -0.06311,0.170611 -0.08374,0.179177 -0.13153,0.05463 -0.07483,-0.1950136 -0.239806,-0.1895736 -0.241534,0.008 -0.0012,0.133269 -0.01397,0.13647 -0.08895,0.02224 -0.07786,-0.118606 -0.09732,-0.118606 -0.175184,0 -0.04818,0.07339 -0.08821,0.09213 -0.08895,0.04164 -0.002,-0.132938 -0.445854,-0.151195 -0.447496,-0.0184 -0.0011,0.08656 -0.01621,0.08683 -0.07058,0.0012 -0.03807,-0.05992 -0.15364,-0.12183 -0.256825,-0.137577 -0.103186,-0.01575 -0.251559,-0.0817 -0.329717,-0.1465706 -0.07816,-0.06487 -0.142108,-0.08683 -0.142108,-0.04879 0,0.03804 -0.08006,-0.0033 -0.177909,-0.09185 -0.148774,-0.134639 -0.177908,-0.2739765 -0.177908,-0.8508655 0,-0.665838 0.01188,-0.704852 0.3413,-1.120382 0.339904,-0.428765 0.827658,-0.892662 1.294421,-1.231111 0.231175,-0.167625 0.240355,-0.199896 0.158818,-0.558284 -0.171192,-0.75245 0.06482,-0.90633 0.824205,-0.537391 l 0.399648,0.194164 0.225413,-0.243224 c 0.123976,-0.133773 0.225412,-0.294534 0.225412,-0.357247 0,-0.181652 0.10682,-0.239586 0.239193,-0.129725 0.09729,0.08074 0.14363,0.0444 0.227834,-0.178681 0.110902,-0.293811 0.244608,-0.373949 0.244608,-0.146608 0,0.172401 0.125341,0.170523 0.270223,-0.0041 0.06275,-0.07561 0.176916,-0.113375 0.253693,-0.08391 0.09067,0.03479 0.225134,-0.04953 0.38365,-0.240577 0.221753,-0.267265 0.244274,-0.276334 0.246448,-0.09925 0.0033,0.265598 0.158868,0.341323 0.348581,0.169634 0.172372,-0.155994 0.408711,-0.19516 0.320969,-0.05319 -0.07766,0.12566 0.164794,0.110965 0.29355,-0.01779 0.08302,-0.08302 0.106745,-0.07314 0.106745,0.04448 0,0.164173 0.221675,0.207351 0.312237,0.06082 0.03073,-0.04972 0.09379,-0.06697 0.140133,-0.03833 0.04634,0.02864 0.05733,0.09564 0.02442,0.148895 -0.0393,0.06359 0.0079,0.07912 0.137422,0.04524 0.126387,-0.03305 0.214705,-0.0061 0.245813,0.07494 0.0267,0.06959 0.121724,0.126527 0.211154,0.126527 0.08943,0 0.255273,0.03523 0.368539,0.0783 0.113266,0.04306 0.245967,0.08595 0.294892,0.09529 0.04892,0.0094 0.152247,0.07428 0.229605,0.144282 0.07736,0.07001 0.167837,0.1001 0.201066,0.06687 0.03323,-0.03323 0.116774,0.01666 0.185656,0.110859 0.06888,0.0942 0.155565,0.14095 0.192629,0.103886 0.03706,-0.03706 0.158388,0.0181 0.26961,0.122587 0.111221,0.104487 0.257167,0.168891 0.324324,0.143121 0.06716,-0.02577 0.170956,0.03137 0.230665,0.12698 0.07366,0.117945 0.164698,0.15602 0.283156,0.118423 0.114498,-0.03634 0.193027,-0.0074 0.228149,0.08415 0.02946,0.07676 0.149347,0.139565 0.266425,0.139565 0.117078,0 0.212869,0.03862 0.212869,0.08582 0,0.121286 0.296176,0.264961 0.619066,0.300309 0.150938,0.01652 0.327602,0.102756 0.392585,0.191626 0.07647,0.104579 0.184453,0.144244 0.306092,0.112435 0.108705,-0.02843 0.23283,0.0049 0.294417,0.07915 0.05856,0.07056 0.163359,0.106468 0.232884,0.07979 0.06952,-0.02668 0.210493,0.01039 0.313265,0.08237 0.145511,0.10192 0.214932,0.10758 0.313738,0.02558 0.100107,-0.08308 0.150623,-0.07283 0.239385,0.04856 0.07046,0.09636 0.169949,0.131813 0.266215,0.09487 0.09076,-0.03483 0.185352,-0.0081 0.230974,0.06517 0.06352,0.102075 0.109743,0.104022 0.259904,0.01095 0.154131,-0.09554 0.191268,-0.09073 0.237902,0.0308 0.0402,0.104749 0.124517,0.130153 0.309321,0.09319 0.139734,-0.02795 0.254062,-0.01282 0.254062,0.03362 0,0.04733 0.254085,0.07281 0.578203,0.05799 0.318012,-0.01455 0.578203,0.0027 0.578203,0.03841 0,0.03567 0.61045,0.06304 1.356555,0.06082 1.003355,-0.003 1.392717,-0.03519 1.495448,-0.123675 0.11099,-0.0956 0.194894,-0.0985 0.417635,-0.01442 0.205265,0.07748 0.332789,0.07946 0.483786,0.0075 0.112775,-0.05374 0.363925,-0.098 0.558113,-0.09836 0.194186,-3.56e-4 0.366959,-0.04233 0.383939,-0.09327 0.02121,-0.06363 0.09686,-0.06255 0.241703,0.0034 0.122926,0.05601 0.2781,0.06512 0.372172,0.02185 0.170976,-0.07864 0.560299,-0.10912 1.584613,-0.124059 0.146775,-0.0021 0.326907,-0.0079 0.400295,-0.01276 0.07339,-0.0049 0.228591,0.01402 0.344897,0.04198 0.116306,0.02797 0.28899,0.0094 0.383742,-0.04135 0.122801,-0.06572 0.20873,-0.06195 0.299207,0.01314 0.06981,0.05794 0.257393,0.08588 0.416847,0.06209 0.159454,-0.02379 0.381307,-0.0089 0.493006,0.03318 0.131908,0.04964 0.265365,0.03784 0.38077,-0.03368 0.126959,-0.07868 0.195952,-0.08228 0.241683,-0.01261 0.101261,0.154256 0.555457,0.233796 0.691294,0.121062 0.06985,-0.05797 0.169694,-0.06899 0.236116,-0.02607 0.0633,0.04091 0.275207,0.0816 0.470907,0.09044 1.969492,0.08891 2.498469,0.117195 3.113403,0.166501 0.391399,0.03138 0.983916,0.06861 1.316705,0.08272 0.332788,0.01411 0.629673,0.05027 0.659744,0.08034 0.09601,0.09601 0.364578,0.05865 0.406283,-0.05652 0.03221,-0.08895 0.07793,-0.08895 0.228593,0 0.238986,0.141106 0.78741,0.144737 0.833816,0.0055 0.02498,-0.07494 0.09756,-0.06201 0.249592,0.04448 0.246555,0.172694 0.713847,0.198183 0.864856,0.04717 0.07232,-0.07232 0.137202,-0.07528 0.217938,-0.01 0.172265,0.139377 1.048984,0.240742 1.048984,0.121283 0,-0.141401 0.186561,-0.119172 0.301534,0.03593 0.109481,0.147693 0.459075,0.19353 0.699202,0.09167 0.0901,-0.03822 0.155671,-0.02753 0.155671,0.02537 0,0.09161 0.288561,0.17773 0.825081,0.246256 0.297352,0.03798 0.847681,0.121125 2.065935,0.312132 0.3914,0.06137 0.828886,0.105718 0.972193,0.09856 0.143306,-0.0072 0.313492,0.03091 0.378191,0.08461 0.06846,0.05682 0.320556,0.0808 0.603073,0.05737 0.355197,-0.02946 0.497834,-0.008 0.531638,0.08014 0.03072,0.08004 0.121772,0.101424 0.271693,0.0638 0.124022,-0.03113 0.275011,-0.016 0.335532,0.03361 0.171535,0.140623 0.446744,0.154553 0.666002,0.03371 0.17952,-0.09894 0.200148,-0.09073 0.200148,0.07968 0,0.17023 0.03933,0.186011 0.378056,0.151693 0.207931,-0.02107 0.448561,-0.06959 0.534735,-0.107816 0.118676,-0.05265 0.144124,-0.03679 0.104917,0.06538 -0.0655,0.17068 0.461312,0.309522 0.610053,0.160781 0.131134,-0.131134 0.245527,-0.124188 0.218042,0.01324 -0.02495,0.124752 0.322472,0.136887 0.592795,0.0207 0.115209,-0.04952 0.150912,-0.04187 0.110418,0.02365 -0.07834,0.126753 0.380472,0.2274874 0.686401,0.150704 0.179849,-0.04514 0.233803,-0.02566 0.233803,0.08439 0,0.18047 0.166517,0.187312 0.234695,0.0096 0.0688,-0.1792814 0.299031,-0.1705274 0.299031,0.01137 0,0.118604 0.06304,0.134721 0.348447,0.08908 0.213819,-0.03419 0.360528,-0.01948 0.379713,0.03808 0.0172,0.05159 0.210653,0.107285 0.429904,0.123768 0.219251,0.01648 0.47018,0.05913 0.557621,0.09477 0.100508,0.04097 0.220597,0.009 0.326503,-0.0868 0.15858,-0.143521 0.1728,-0.141725 0.26668,0.03369 0.11806,0.22061 0.579332,0.249101 0.839882,0.05188 0.2004,-0.1516891 0.33497,-0.09682 0.25752,0.104996 -0.0471,0.122825 0.002,0.137303 0.33982,0.09927 0.27788,-0.03132 0.43092,-0.0061 0.51613,0.08514 0.0833,0.08915 0.22152,0.113713 0.44242,0.07861 0.1767,-0.02808 0.37799,-0.01583 0.44729,0.02724 0.0721,0.04483 0.2134,0.04507 0.33043,6.23e-4 0.12852,-0.04887 0.22547,-0.04367 0.2611,0.01398 0.0312,0.05044 0.20271,0.08359 0.3812,0.07366 0.17849,-0.0099 0.40049,0.01387 0.49332,0.05288 0.0933,0.0392 0.27971,0.02905 0.41681,-0.0227 0.1865,-0.07039 0.25852,-0.06626 0.29034,0.01667 0.0388,0.101192 0.60232,0.159488 1.57031,0.162459 0.17124,5.33e-4 0.33956,0.04445 0.37405,0.09762 0.0446,0.06879 0.14719,0.06478 0.35562,-0.0139 0.18832,-0.07108 0.30357,-0.07859 0.32276,-0.02101 0.042,0.12592 0.40084,0.111591 0.54207,-0.02165 0.0943,-0.08895 0.12602,-0.08895 0.15864,0 0.0513,0.13992 0.57827,0.145968 0.71602,0.0082 0.078,-0.078 0.13597,-0.07559 0.23902,0.0099 0.0883,0.07325 0.22239,0.08908 0.38183,0.04508 0.13518,-0.03731 0.46594,-0.05845 0.73503,-0.04698 0.26908,0.01147 0.58932,0.01922 0.71163,0.01721 0.92006,-0.01507 1.10957,-0.02675 1.18446,-0.07304 0.0945,-0.05838 4.43754,-0.04511 4.99787,0.01527 0.1957,0.02109 0.79614,0.06121 1.33431,0.08915 2.6939,0.13987 6.79701,0.783873 8.22828,1.291469 0.12232,0.04338 0.82283,0.26532 1.55671,0.493207 1.76472,0.547947 2.96759,1.108163 2.37949,1.108163 -0.17016,0 -1.10326,-0.189704 -1.66786,-0.339082 -0.37842,-0.100122 -0.48057,-0.117998 -1.86804,-0.326919 -3.14066,-0.472911 -4.19979,-0.57936 -5.76445,-0.57936 -1.62544,0 -2.73224,0.09207 -3.8313,0.318705 -0.33624,0.06934 -0.79658,0.127046 -1.02297,0.128242 -0.22639,0.0012 -0.58313,0.04174 -0.79275,0.09009 -0.20962,0.04835 -0.89012,0.165687 -1.51222,0.26074 -0.62211,0.09505 -1.51138,0.253328 -1.97617,0.351726 -0.46478,0.0984 -0.98517,0.180929 -1.1564,0.183403 -0.17124,0.0025 -0.59155,0.06387 -0.93403,0.13643 -0.34247,0.07256 -0.82282,0.1538 -1.06745,0.180529 -0.24462,0.02673 -0.68495,0.08561 -0.9785,0.130851 -0.29355,0.04524 -0.75388,0.10525 -1.02297,0.133356 -0.26909,0.02811 -0.76946,0.107111 -1.11193,0.175568 -0.34248,0.06846 -1.18309,0.187911 -1.86804,0.265456 -0.68495,0.07755 -1.54558,0.178583 -1.91252,0.224527 -0.61523,0.07703 -2.317442,0.220176 -5.337265,0.44882 -2.09384,0.158533 -3.393442,0.266839 -4.487009,0.373937 -0.982351,0.09621 -1.096118,0.127117 -1.512224,0.410872 -1.927978,1.314749 -2.451462,1.680881 -2.762772,1.932328 -0.523895,0.423152 -1.564736,0.951814 -2.624154,1.332855 -0.513711,0.184767 -0.969964,0.366873 -1.013895,0.404681 -0.04393,0.03781 0.129947,0.29832 0.386395,0.578916 0.338247,0.370095 0.632605,0.855262 1.072065,1.766996 0.967116,2.006446 1.503517,2.628219 2.997599,3.474687 0.459446,0.260299 0.950199,1.506519 0.943817,2.396731 -0.0036,0.501658 -0.302336,1.852758 -0.487713,2.205763 -0.129188,0.24601 -0.412891,1.383394 -0.358606,1.437679 0.02649,0.02649 -0.0032,0.04816 -0.06599,0.04816 -0.0757,0 -0.09526,0.06741 -0.05805,0.200148 0.112491,0.401275 0.13873,1.342927 0.04071,1.461032 -0.127874,0.154078 -5.321465,0.174194 -5.474456,0.0212 -0.06964,-0.06964 -0.113435,-0.06964 -0.156472,0 -0.104429,0.168969 -0.240633,0.104206 -0.211125,-0.100386 z M 50.563408,10.727374 c 0,-0.06523 0.02669,-0.09192 0.0593,-0.0593 0.03262,0.03262 0.03262,0.08599 0,0.118607 -0.03262,0.03262 -0.0593,0.0059 -0.0593,-0.0593 z"
       id="path3279"
       inkscape:connector-curvature="0" />
  </g>
</svg>
