<?xml version="1.0" encoding="UTF-8" standalone="no"?>
<!-- Created with Inkscape (http://www.inkscape.org/) -->

<svg
   xmlns:dc="http://purl.org/dc/elements/1.1/"
   xmlns:cc="http://creativecommons.org/ns#"
   xmlns:rdf="http://www.w3.org/1999/02/22-rdf-syntax-ns#"
   xmlns:svg="http://www.w3.org/2000/svg"
   xmlns="http://www.w3.org/2000/svg"
   xmlns:sodipodi="http://sodipodi.sourceforge.net/DTD/sodipodi-0.dtd"
   xmlns:inkscape="http://www.inkscape.org/namespaces/inkscape"
   width="69.525558mm"
   height="31.048632mm"
   viewBox="0 0 69.525544 31.048631"
   version="1.1"
   id="svg8"
   inkscape:version="0.92.4 (5da689c313, 2019-01-14)"
   sodipodi:docname="centrosaurus.svg">
  <defs
     id="defs2" />
  <sodipodi:namedview
     id="base"
     pagecolor="#ffffff"
     bordercolor="#666666"
     borderopacity="1.0"
     inkscape:pageopacity="0.0"
     inkscape:pageshadow="2"
     inkscape:zoom="0.7"
     inkscape:cx="139.24748"
     inkscape:cy="-57.342567"
     inkscape:document-units="mm"
     inkscape:current-layer="layer1"
     showgrid="false"
     inkscape:window-width="1366"
     inkscape:window-height="745"
     inkscape:window-x="-8"
     inkscape:window-y="-8"
     inkscape:window-maximized="1" />
  <metadata
     id="metadata5">
    <rdf:RDF>
      <cc:Work
         rdf:about="">
        <dc:format>image/svg+xml</dc:format>
        <dc:type
           rdf:resource="http://purl.org/dc/dcmitype/StillImage" />
        <dc:title></dc:title>
      </cc:Work>
    </rdf:RDF>
  </metadata>
  <g
     inkscape:label="Camada 1"
     inkscape:groupmode="layer"
     id="layer1"
     transform="translate(-64.1677,-29.840158)">
    <path
       style="fill:#d5d5d5;fill-opacity:1;stroke-width:1"
       d="m 91.184096,60.727814 c -0.237345,-0.382712 0.714104,-1.016327 1.526135,-1.016327 0.57404,0 0.754214,-0.373732 0.549381,-1.13958 -0.09797,-0.366308 -0.178133,-0.788377 -0.178133,-0.937929 0,-0.149553 -0.337741,-0.957722 -0.750536,-1.795931 -0.412795,-0.83821 -0.750537,-1.588483 -0.750537,-1.667278 0,-0.260511 -2.088124,-1.812247 -2.441018,-1.813977 -0.06289,-3.01e-4 -0.07165,0.266521 -0.01945,0.592958 0.0522,0.326435 0.04803,0.906117 -0.0093,1.288183 -0.142567,0.950708 -0.133221,0.947069 -4.834953,1.882572 -0.787404,0.15667 -0.951219,0.321653 -0.951219,0.958001 0,0.459989 -0.171016,0.577336 -1.552245,1.065103 -0.92056,0.325086 -1.202876,0.373731 -1.295857,0.223283 -0.06699,-0.1084 -0.387297,-0.188648 -0.733873,-0.183866 -0.718799,0.0099 -0.798443,-0.07199 -0.642648,-0.660955 0.12317,-0.465633 0.864821,-0.942409 1.486531,-0.955627 0.464633,-0.0099 1.132361,-0.686056 1.544394,-1.563936 0.26346,-0.561336 0.468069,-0.779359 0.881008,-0.938777 0.295818,-0.114203 0.740496,-0.317671 0.988173,-0.452152 0.247677,-0.134481 0.77544,-0.410098 1.172808,-0.612481 l 0.722484,-0.36797 -0.362984,-0.47519 c -0.199641,-0.261355 -0.735716,-0.760528 -1.191277,-1.109272 -0.833367,-0.637968 -2.525468,-2.890969 -2.832305,-3.771165 -0.113944,-0.326857 -0.301215,-0.47427 -0.780708,-0.614548 -0.346945,-0.1015 -0.833453,-0.299975 -1.08113,-0.441056 -0.247677,-0.14108 -1.092031,-0.489251 -1.876341,-0.773712 -1.314949,-0.476918 -1.560474,-0.517194 -3.152254,-0.517107 -1.698889,9.3e-5 -1.7512,0.01051 -3.30236,0.657632 -2.056924,0.85812 -3.056844,0.900289 -4.184798,0.176482 -0.505195,-0.324182 -0.813669,-0.653913 -0.965553,-1.032091 -0.262627,-0.653919 -0.211766,-0.775366 0.177272,-0.423292 0.63826,0.577621 1.689286,0.441352 2.721466,-0.352847 0.546444,-0.420455 0.216575,-0.724874 -0.42562,-0.392782 -0.579034,0.29943 -1.157881,0.301457 -1.992526,0.007 -0.712957,-0.251546 -1.034322,-0.0776 -1.034322,0.559862 0,0.862658 -0.96948,-0.334009 -1.27746,-1.576818 -0.430547,-1.737406 -0.03811,-2.83141 1.309304,-3.649917 0.47784,-0.290272 0.8688,-0.589018 0.8688,-0.663879 0,-0.07486 -0.21114,-0.863662 -0.469199,-1.752892 -0.517412,-1.782913 -0.772753,-3.542601 -0.605046,-4.169681 0.0997,-0.372805 0.204775,-0.240881 1.27326,1.598657 1.287514,2.216625 2.448264,3.58112 3.046392,3.58112 0.81136,0 1.257812,-0.397821 1.257812,-1.120801 0,-0.80677 0.114594,-0.892832 0.804822,-0.604437 0.713428,0.298089 1.240339,0.282736 1.72383,-0.05023 0.219142,-0.150916 0.938827,-0.462723 1.599299,-0.692904 1.574738,-0.548813 2.551689,-1.051162 2.837315,-1.45895 0.295523,-0.421919 0.07394,-0.726006 -0.529031,-0.726006 -0.237569,0 -0.431943,-0.06626 -0.431943,-0.147248 0,-0.219905 0.651841,-0.34168 1.460043,-0.272761 0.612133,0.0522 0.82585,-0.01003 1.46705,-0.427204 1.115556,-0.725789 1.262528,-0.892565 1.368038,-1.552392 0.05299,-0.331398 0.144797,-0.602541 0.204008,-0.602541 0.221413,0 0.574848,0.542981 0.682555,1.048606 0.0613,0.287777 0.214462,0.59855 0.340356,0.690606 0.125893,0.09205 0.238981,0.304232 0.251304,0.471502 0.01232,0.167271 0.136873,0.418596 0.276779,0.558502 0.350448,0.350448 0.319385,0.644734 -0.130282,1.234278 -0.242532,0.317974 -0.351488,0.608814 -0.294887,0.787146 0.06171,0.194435 -0.03222,0.378797 -0.300541,0.589855 -0.334684,0.263262 -0.365828,0.352763 -0.218525,0.628001 0.13703,0.256043 0.12381,0.373996 -0.06534,0.583004 -0.130417,0.144112 -0.237124,0.482558 -0.237124,0.752103 0,0.363841 -0.07733,0.510305 -0.300215,0.56859 -0.165118,0.04318 -0.300214,0.190696 -0.300214,0.327815 0,0.137119 -0.101848,0.394716 -0.226329,0.572436 -0.207453,0.296182 -0.201668,0.330956 0.06938,0.416984 0.369391,0.117241 0.695575,-0.05527 2.108339,-1.115072 1.798958,-1.349505 2.016596,-1.441801 6.229453,-2.641773 1.382448,-0.39377 5.70876,-0.225111 7.366329,0.287172 0.978063,0.302278 1.617176,0.381612 3.591497,0.445821 2.69987,0.0878 4.28209,0.387522 6.05658,1.147289 0.86964,0.372344 1.43276,0.498667 2.66129,0.596998 2.42038,0.193726 3.49337,0.793835 6.64708,3.717648 1.70951,1.584888 2.39681,2.07869 4.44922,3.196628 3.89607,2.122168 4.45201,2.30786 6.90493,2.306343 1.6293,-0.0011 1.93576,-0.04684 3.20966,-0.480005 1.40496,-0.47773 3.1907,-0.659455 3.38534,-0.344511 0.10338,0.167269 -0.26221,0.314891 -0.79062,0.319239 -0.53319,0.0044 -1.54592,0.475764 -2.45347,1.141964 -0.41706,0.306154 -1.34063,0.744318 -2.12001,1.005791 -1.30983,0.439432 -1.49705,0.462625 -3.63261,0.450022 -2.25106,-0.01329 -2.25224,-0.01348 -4.80344,-0.771064 -4.44929,-1.32124 -4.93483,-1.42075 -6.45461,-1.322851 -3.22905,0.208007 -4.26615,0.541973 -6.21351,2.00088 -0.36275,0.271758 -0.78493,0.494108 -0.93817,0.494108 -0.29958,0 -0.38188,0.368795 -0.1186,0.531507 0.088,0.0544 0.48587,0.784527 0.88414,1.622511 0.54606,1.148977 0.98295,1.806999 1.7768,2.676136 0.57898,0.633888 1.27514,1.569882 1.54702,2.079985 0.27189,0.510104 0.58241,0.961259 0.69005,1.002564 0.29743,0.114135 0.23577,0.581921 -0.17956,1.362103 -0.20639,0.387717 -0.37526,0.777209 -0.37526,0.865539 0,0.162258 -0.79777,0.817487 -0.99533,0.817487 -0.0588,0 -0.21669,0.09941 -0.35095,0.22092 -0.18813,0.170247 -0.41691,0.193604 -0.99746,0.101832 -0.44926,-0.07102 -0.88764,-0.05917 -1.08605,0.02936 -0.47183,0.210539 -0.68369,-0.04872 -0.38652,-0.472991 0.24603,-0.351263 1.11128,-0.77977 1.57452,-0.77977 0.35244,0 0.74071,-0.556551 0.74071,-1.061751 0,-0.802413 -0.30803,-1.319027 -1.06373,-1.784011 -0.40565,-0.249603 -0.73755,-0.510737 -0.73755,-0.5803 0,-0.271319 -1.08607,-1.192484 -1.80045,-1.527082 l -0.7521,-0.352266 -0.35813,0.336449 c -0.22571,0.212037 -0.3301,0.443647 -0.28233,0.626347 0.0417,0.159442 -0.0906,0.644485 -0.29407,1.077871 -0.20344,0.433385 -0.41526,0.973731 -0.47072,1.200768 -0.0555,0.227037 -0.20368,0.412795 -0.3294,0.412795 -0.27142,0 -0.73019,0.419048 -0.86276,0.788063 -0.0538,0.149776 -0.24735,0.262688 -0.45026,0.262688 -0.23939,0 -0.41526,0.130319 -0.53728,0.398104 -0.14136,0.31026 -0.2212,0.358219 -0.36183,0.217348 -0.25372,-0.254147 -0.18513,-1.526916 0.11339,-2.104188 0.18523,-0.358208 0.23799,-0.781463 0.20331,-1.631225 -0.0447,-1.096307 -0.0301,-1.155679 0.32855,-1.330692 0.20646,-0.100752 0.56639,-0.382562 0.79985,-0.626244 l 0.42448,-0.443058 -0.40146,-0.372253 c -0.2208,-0.204739 -1.08735,-0.647233 -1.92566,-0.98332 -1.499808,-0.601291 -1.540871,-0.608652 -2.566753,-0.460148 -0.573406,0.08301 -1.607146,0.129445 -2.297197,0.103196 -1.059574,-0.0403 -1.244056,-0.01271 -1.186569,0.177437 0.70432,2.329771 1.191747,4.339805 1.25582,5.178702 0.04685,0.613383 0.173669,1.157575 0.304679,1.307391 0.383743,0.438826 0.108566,0.968486 -0.882026,1.697718 -0.502455,0.369885 -1.058105,0.68536 -1.234782,0.701052 -0.839143,0.07454 -2.383172,0.03476 -2.443772,-0.06296 z"
       id="path1132"
       inkscape:connector-curvature="0" />
  </g>
</svg>
