<?xml version="1.0" encoding="UTF-8" standalone="no"?>
<!-- Created with Inkscape (http://www.inkscape.org/) -->

<svg
   xmlns:dc="http://purl.org/dc/elements/1.1/"
   xmlns:cc="http://creativecommons.org/ns#"
   xmlns:rdf="http://www.w3.org/1999/02/22-rdf-syntax-ns#"
   xmlns:svg="http://www.w3.org/2000/svg"
   xmlns="http://www.w3.org/2000/svg"
   xmlns:sodipodi="http://sodipodi.sourceforge.net/DTD/sodipodi-0.dtd"
   xmlns:inkscape="http://www.inkscape.org/namespaces/inkscape"
   width="92.261612mm"
   height="27.963276mm"
   viewBox="0 0 92.261613 27.963276"
   version="1.1"
   id="svg852"
   inkscape:version="0.92.4 (5da689c313, 2019-01-14)"
   sodipodi:docname="ceratosaurus.svg">
  <defs
     id="defs846">
    <filter
       style="color-interpolation-filters:sRGB"
       inkscape:label="Brilliance"
       id="filter1987">
      <feColorMatrix
         values="1 -0 -0 0 -10 -0 1 -0 0 -10 -0 -0 1 0 -10 0 0 0 1 0 "
         id="feColorMatrix1985" />
    </filter>
    <filter
       style="color-interpolation-filters:sRGB"
       inkscape:label="Lightness-Contrast"
       id="filter2289">
      <feColorMatrix
         values="11 0 0 -4.59375 -5 0 11 0 -4.59375 -5 0 0 11 -4.59375 -5 0 0 0 1 0"
         id="feColorMatrix2287"
         result="fbSourceGraphic" />
      <feColorMatrix
         result="fbSourceGraphicAlpha"
         in="fbSourceGraphic"
         values="0 0 0 -1 0 0 0 0 -1 0 0 0 0 -1 0 0 0 0 1 0"
         id="feColorMatrix2291" />
      <feColorMatrix
         id="feColorMatrix2293"
         values="11 0 0 -4.5936 -5 0 11 0 -4.5936 -5 0 0 11 -4.5936 -5 0 0 0 1 0"
         in="fbSourceGraphic" />
    </filter>
    <filter
       style="color-interpolation-filters:sRGB"
       inkscape:label="Lightness-Contrast"
       id="filter2308">
      <feColorMatrix
         values="11 0 0 -4.5936 -5 0 11 0 -4.5936 -5 0 0 11 -4.5936 -5 0 0 0 1 0"
         id="feColorMatrix2306"
         result="fbSourceGraphic" />
      <feColorMatrix
         result="fbSourceGraphicAlpha"
         in="fbSourceGraphic"
         values="0 0 0 -1 0 0 0 0 -1 0 0 0 0 -1 0 0 0 0 1 0"
         id="feColorMatrix2310" />
      <feColorMatrix
         id="feColorMatrix2312"
         values="11 0 0 -4.5936 -5 0 11 0 -4.5936 -5 0 0 11 -4.5936 -5 0 0 0 1 0"
         in="fbSourceGraphic" />
    </filter>
    <filter
       style="color-interpolation-filters:sRGB"
       inkscape:label="Lightness-Contrast"
       id="filter2337">
      <feColorMatrix
         values="11 0 0 -6 -5 0 11 0 -6 -5 0 0 11 -6 -5 0 0 0 1 0"
         id="feColorMatrix2335" />
    </filter>
    <filter
       style="color-interpolation-filters:sRGB"
       inkscape:label="Lightness-Contrast"
       id="filter2407">
      <feColorMatrix
         values="11 0 0 -4.78125 -5 0 11 0 -4.78125 -5 0 0 11 -4.78125 -5 0 0 0 1 0"
         id="feColorMatrix2405"
         result="fbSourceGraphic" />
      <feColorMatrix
         result="fbSourceGraphicAlpha"
         in="fbSourceGraphic"
         values="0 0 0 -1 0 0 0 0 -1 0 0 0 0 -1 0 0 0 0 1 0"
         id="feColorMatrix2409" />
      <feColorMatrix
         id="feColorMatrix2411"
         values="11 0 0 -4.7814 -5 0 11 0 -4.7814 -5 0 0 11 -4.7814 -5 0 0 0 1 0"
         in="fbSourceGraphic"
         result="fbSourceGraphic" />
      <feColorMatrix
         result="fbSourceGraphicAlpha"
         in="fbSourceGraphic"
         values="0 0 0 -1 0 0 0 0 -1 0 0 0 0 -1 0 0 0 0 1 0"
         id="feColorMatrix2413" />
      <feColorMatrix
         id="feColorMatrix2415"
         values="11 0 0 -4.7814 -5 0 11 0 -4.7814 -5 0 0 11 -4.7814 -5 0 0 0 1 0"
         in="fbSourceGraphic"
         result="fbSourceGraphic" />
      <feColorMatrix
         result="fbSourceGraphicAlpha"
         in="fbSourceGraphic"
         values="0 0 0 -1 0 0 0 0 -1 0 0 0 0 -1 0 0 0 0 1 0"
         id="feColorMatrix2417" />
      <feColorMatrix
         id="feColorMatrix2419"
         values="11 0 0 -4.7814 -5 0 11 0 -4.7814 -5 0 0 11 -4.7814 -5 0 0 0 1 0"
         in="fbSourceGraphic"
         result="fbSourceGraphic" />
      <feColorMatrix
         result="fbSourceGraphicAlpha"
         in="fbSourceGraphic"
         values="0 0 0 -1 0 0 0 0 -1 0 0 0 0 -1 0 0 0 0 1 0"
         id="feColorMatrix2421" />
      <feColorMatrix
         id="feColorMatrix2423"
         values="11 0 0 -4.7814 -5 0 11 0 -4.7814 -5 0 0 11 -4.7814 -5 0 0 0 1 0"
         in="fbSourceGraphic"
         result="fbSourceGraphic" />
      <feColorMatrix
         result="fbSourceGraphicAlpha"
         in="fbSourceGraphic"
         values="0 0 0 -1 0 0 0 0 -1 0 0 0 0 -1 0 0 0 0 1 0"
         id="feColorMatrix2425" />
      <feColorMatrix
         id="feColorMatrix2427"
         values="11 0 0 -4.7814 -5 0 11 0 -4.7814 -5 0 0 11 -4.7814 -5 0 0 0 1 0"
         in="fbSourceGraphic"
         result="fbSourceGraphic" />
      <feColorMatrix
         result="fbSourceGraphicAlpha"
         in="fbSourceGraphic"
         values="0 0 0 -1 0 0 0 0 -1 0 0 0 0 -1 0 0 0 0 1 0"
         id="feColorMatrix2429" />
      <feColorMatrix
         id="feColorMatrix2431"
         values="11 0 0 -4.7814 -5 0 11 0 -4.7814 -5 0 0 11 -4.7814 -5 0 0 0 1 0"
         in="fbSourceGraphic"
         result="fbSourceGraphic" />
      <feColorMatrix
         result="fbSourceGraphicAlpha"
         in="fbSourceGraphic"
         values="0 0 0 -1 0 0 0 0 -1 0 0 0 0 -1 0 0 0 0 1 0"
         id="feColorMatrix2433" />
      <feColorMatrix
         id="feColorMatrix2435"
         values="11 0 0 -4.7814 -5 0 11 0 -4.7814 -5 0 0 11 -4.7814 -5 0 0 0 1 0"
         in="fbSourceGraphic" />
    </filter>
    <filter
       style="color-interpolation-filters:sRGB"
       inkscape:label="Lightness-Contrast"
       id="filter3035">
      <feColorMatrix
         values="11 0 0 -4.5625 -5 0 11 0 -4.5625 -5 0 0 11 -4.5625 -5 0 0 0 1 0"
         id="feColorMatrix3033"
         result="fbSourceGraphic" />
      <feColorMatrix
         result="fbSourceGraphicAlpha"
         in="fbSourceGraphic"
         values="0 0 0 -1 0 0 0 0 -1 0 0 0 0 -1 0 0 0 0 1 0"
         id="feColorMatrix3037" />
      <feColorMatrix
         id="feColorMatrix3039"
         values="11 0 0 -4.5624 -5 0 11 0 -4.5624 -5 0 0 11 -4.5624 -5 0 0 0 1 0"
         in="fbSourceGraphic" />
    </filter>
    <filter
       style="color-interpolation-filters:sRGB"
       inkscape:label="Lightness-Contrast"
       id="filter3251">
      <feColorMatrix
         values="11 0 0 -6 -5 0 11 0 -6 -5 0 0 11 -6 -5 0 0 0 1 0"
         id="feColorMatrix3249" />
    </filter>
  </defs>
  <sodipodi:namedview
     id="base"
     pagecolor="#ffffff"
     bordercolor="#666666"
     borderopacity="1.0"
     inkscape:pageopacity="0.0"
     inkscape:pageshadow="2"
     inkscape:zoom="0.98994949"
     inkscape:cx="265.91417"
     inkscape:cy="88.527312"
     inkscape:document-units="mm"
     inkscape:current-layer="layer1"
     showgrid="false"
     inkscape:window-width="1366"
     inkscape:window-height="745"
     inkscape:window-x="-8"
     inkscape:window-y="-8"
     inkscape:window-maximized="1" />
  <metadata
     id="metadata849">
    <rdf:RDF>
      <cc:Work
         rdf:about="">
        <dc:format>image/svg+xml</dc:format>
        <dc:type
           rdf:resource="http://purl.org/dc/dcmitype/StillImage" />
        <dc:title></dc:title>
      </cc:Work>
    </rdf:RDF>
  </metadata>
  <g
     inkscape:label="Camada 1"
     inkscape:groupmode="layer"
     id="layer1"
     transform="translate(-44.120303,-6.2336601)">
    <path
       style="fill:#d5d5d5;fill-opacity:1;stroke-width:0.99999994"
       d="m 92.577685,34.02617 c -0.201886,-0.344635 -1.833087,-0.554339 -2.115467,-0.27196 -0.141983,0.141983 -0.200004,0.08904 -0.200004,-0.182481 0,-0.484595 0.493946,-0.934083 1.215718,-1.106298 1.114272,-0.265865 1.320987,-0.852935 0.654618,-1.859118 -0.204381,-0.308606 -0.372157,-0.740193 -0.372835,-0.959086 -0.0034,-1.092091 -1.326855,-2.826198 -2.566297,-3.362541 -0.330666,-0.143088 -1.190812,-0.343783 -1.911435,-0.445985 -2.319358,-0.328944 -3.941648,-1.14461 -5.031033,-2.529538 -0.344168,-0.437539 -0.489237,-0.490619 -1.052225,-0.385001 l -0.653019,0.122507 0.09803,0.880801 c 0.181862,1.633957 0.262348,1.938352 0.639217,2.417463 0.670563,0.852483 0.505421,1.44177 -0.64148,2.289034 -1.102632,0.814563 -1.975348,1.832361 -1.975348,2.303734 0,0.316001 -0.844313,1.071364 -1.197524,1.071364 -0.116552,0 -0.516004,0.206637 -0.887671,0.45919 -0.971443,0.660113 -2.94912,0.740116 -3.879775,0.156951 -0.240583,-0.150755 0.518547,-0.638039 1.151717,-0.739288 0.829498,-0.13264 1.867142,-0.932764 2.303183,-1.775972 0.151978,-0.293895 0.631629,-0.754267 1.06589,-1.023049 1.247405,-0.772075 2.005281,-1.577777 2.005281,-2.131826 0,-0.568822 -0.463415,-1.036931 -1.77159,-1.789536 -0.511468,-0.294251 -1.423914,-1.021364 -2.027658,-1.615808 -1.172447,-1.154384 -1.256647,-1.190532 -3.120997,-1.339877 -0.668645,-0.05356 -1.468214,-0.145553 -1.776819,-0.204426 -0.518693,-0.09895 -0.60656,-0.03107 -1.162545,0.898029 -0.330793,0.552787 -0.688338,1.233618 -0.794543,1.512956 -0.106204,0.279339 -0.267653,0.461811 -0.358776,0.405493 -0.09112,-0.05632 -0.267301,0.142948 -0.391508,0.442809 -0.239154,0.577368 -0.87857,1.256904 -1.035259,1.100216 -0.05125,-0.05125 0.04221,-0.364586 0.207695,-0.696302 0.449923,-0.901891 0.189551,-0.900349 -0.41961,0.0025 -0.293843,0.435504 -0.618426,0.819127 -0.721295,0.852492 -0.241427,0.07831 -0.321935,-1.01306 -0.08551,-1.159178 0.09847,-0.06086 0.179027,-0.195477 0.179027,-0.299163 0,-0.103684 -0.378743,0.121836 -0.841651,0.501153 -1.081902,0.886538 -1.151213,0.424675 -0.101816,-0.67847 l 0.739836,-0.777729 -0.56783,0.113565 c -0.806998,0.161401 -0.613867,-0.261576 0.315495,-0.690969 0.48251,-0.222933 0.940909,-0.657676 1.329168,-1.260569 l 0.592652,-0.920279 -0.52056,-0.37067 c -0.286303,-0.203881 -1.124919,-0.677716 -1.863584,-1.052976 -1.334992,-0.678214 -2.261278,-1.6382 -2.261278,-2.343552 0,-0.525416 -0.61157,-1.049067 -1.589786,-1.361238 -0.514342,-0.164137 -1.350076,-0.593441 -1.857187,-0.954006 -1.051545,-0.74767 -2.017873,-1.069619 -2.713741,-0.904132 -0.736739,0.175207 -1.967939,1.20557 -4.219652,3.531331 -1.169199,1.207648 -2.259227,2.170864 -2.524954,2.231205 -0.295859,0.06718 -0.68817,-0.03008 -1.068207,-0.264825 -0.558573,-0.345028 -0.586754,-0.410786 -0.402529,-0.939253 0.111108,-0.318726 0.333785,-0.570707 0.507106,-0.573845 0.169957,-0.0031 0.499545,-0.234531 0.732418,-0.514343 0.232873,-0.279811 0.590575,-0.710997 0.794893,-0.958191 0.666267,-0.806083 0.4711,-0.989401 -0.381921,-0.358735 -0.303175,0.224146 -0.601946,0.35682 -0.663936,0.29483 -0.108015,-0.108015 1.746011,-2.443755 2.281179,-2.873876 0.387534,-0.311466 0.317719,-0.550805 -0.316286,-1.084284 -0.423345,-0.356222 -0.657265,-0.438177 -0.888409,-0.311258 -0.455142,0.249913 -0.995877,0.939799 -0.881576,1.124741 0.13213,0.213791 -0.390951,0.400026 -0.743538,0.264726 -0.194909,-0.07479 -0.249641,-0.0224 -0.176285,0.168768 0.06284,0.163747 -0.03054,0.329784 -0.228103,0.405595 -0.194487,0.07463 -0.365031,0.03673 -0.407457,-0.09055 -0.05411,-0.162341 -0.10997,-0.159027 -0.216182,0.01283 -0.07877,0.127451 -0.447206,0.242181 -0.81875,0.254956 -0.371544,0.01277 -0.675652,0.07301 -0.675795,0.133851 -3.18e-4,0.135413 -1.523626,-0.08322 -1.809097,-0.259648 -0.112954,-0.06981 -0.262123,-0.505375 -0.331487,-0.967924 -0.111305,-0.742235 -0.05893,-0.93865 0.446003,-1.672543 0.38074,-0.553387 0.572118,-1.059001 0.572118,-1.511518 0,-1.0742279 0.295068,-1.4658839 0.999173,-1.3262409 0.324837,0.06442 0.73268,0.304297 0.906317,0.533051 0.353891,0.4662259 0.407821,0.3905879 0.617474,-0.866011 l 0.120671,-0.723268 0.764471,0.122244 c 0.420459,0.06723 0.856664,0.179695 0.969345,0.249914 0.455241,0.28369 1.784231,-0.15763 2.435295,-0.808695 0.166105,-0.166105 0.418084,-0.319045 0.559953,-0.339867 0.141869,-0.02082 0.394716,-0.151369 0.561882,-0.290105 0.167166,-0.138735 0.358198,-0.197986 0.424516,-0.131669 0.06632,0.06632 0.271561,-0.01606 0.456098,-0.183065 0.184536,-0.167003 0.454647,-0.257929 0.600246,-0.202057 0.145599,0.05587 0.35558,0.01073 0.466624,-0.100313 0.144508,-0.144508 0.27453,-0.141619 0.457418,0.01017 0.190453,0.158062 0.309522,0.158062 0.467584,0 0.156024,-0.156024 0.278392,-0.157016 0.463062,-0.0038 0.138049,0.11457 0.604524,0.264841 1.036612,0.333935 0.432087,0.06909 0.785613,0.199033 0.785613,0.288754 0,0.08972 0.126248,0.163129 0.280551,0.163129 0.154302,0 0.28055,0.08417 0.28055,0.187034 0,0.102868 0.170972,0.187034 0.379937,0.187034 0.208966,0 0.428198,0.125764 0.487183,0.279476 0.05898,0.153712 0.195359,0.225018 0.303054,0.158459 0.107695,-0.06656 0.288247,-0.0019 0.401227,0.143631 0.305373,0.393421 1.123447,0.706877 1.6842,0.645322 0.271793,-0.02983 0.541698,0.02266 0.599789,0.116649 0.06066,0.09815 0.214135,0.08083 0.360543,-0.04067 0.140207,-0.116362 0.427293,-0.15686 0.637966,-0.08999 0.232424,0.07377 0.383043,0.03812 0.383043,-0.09067 0,-0.1244 0.149071,-0.164927 0.360185,-0.09792 0.231135,0.07336 0.422345,0.0033 0.533675,-0.195688 0.137475,-0.245656 0.251726,-0.268136 0.550391,-0.108296 0.207295,0.110942 0.437064,0.14155 0.510596,0.06802 0.07353,-0.07353 0.189806,-0.140963 0.258383,-0.149848 0.06858,-0.0089 0.271979,-0.08101 0.451999,-0.160285 0.18002,-0.07927 0.446591,-0.09836 0.59238,-0.04241 0.145789,0.05594 0.31501,-0.02842 0.376043,-0.187468 0.08371,-0.218139 0.267727,-0.259777 0.749028,-0.169485 0.388145,0.07282 0.687809,0.0392 0.765078,-0.08582 0.06986,-0.113038 0.255608,-0.15618 0.41277,-0.09587 0.157163,0.06031 0.563935,0.0091 0.903937,-0.113886 0.484958,-0.175364 0.678407,-0.173561 0.897614,0.0084 0.224066,0.185958 0.387397,0.176072 0.824381,-0.0499 0.483792,-0.250179 0.576361,-0.250399 0.824799,-0.002 0.230054,0.230053 0.368296,0.239545 0.776959,0.05335 0.416247,-0.189656 0.553146,-0.17579 0.84158,0.08524 0.322783,0.292113 0.366034,0.28791 0.686993,-0.06674 l 0.342522,-0.378484 0.411577,0.386655 c 0.290546,0.272953 0.548343,0.352329 0.876666,0.269925 0.293893,-0.07376 0.565822,-0.016 0.738749,0.156928 0.189359,0.189358 0.369725,0.219898 0.585511,0.09914 0.196,-0.109687 0.441091,-0.105353 0.659742,0.01167 0.238199,0.12748 0.413403,0.120678 0.555653,-0.02157 0.146803,-0.146801 0.278682,-0.149658 0.449479,-0.0097 0.132946,0.108913 0.746709,0.179639 1.36392,0.15717 0.695721,-0.02533 1.275551,0.05664 1.525709,0.215688 0.28577,0.181686 0.440705,0.196352 0.530994,0.05026 0.09054,-0.146498 0.197096,-0.148508 0.36768,-0.0069 0.132105,0.109638 0.37818,0.146391 0.546832,0.08167 0.16865,-0.06472 0.431814,-0.01378 0.584805,0.113191 0.220917,0.183343 0.336635,0.182337 0.562229,-0.0049 0.232111,-0.192635 0.349373,-0.176638 0.641213,0.08747 0.214363,0.193994 0.501514,0.277404 0.71822,0.208624 0.218863,-0.06947 0.458076,0.0023 0.607385,0.182199 0.162429,0.195715 0.401862,0.257759 0.703018,0.182173 0.295017,-0.07404 0.577167,-0.0056 0.796986,0.193332 0.187159,0.169376 0.423941,0.256256 0.526183,0.193067 0.102242,-0.06319 0.237965,-0.03064 0.301605,0.07233 0.06364,0.102973 0.300911,0.187373 0.527267,0.187556 0.722234,5.8e-4 1.814276,0.228093 1.920597,0.4001229 0.05655,0.0915 0.3033,0.166369 0.548329,0.166369 0.245029,0 0.490548,0.07288 0.545599,0.16195 0.05505,0.08907 0.312513,0.121344 0.572138,0.07171 0.280569,-0.05363 0.472049,-0.0041 0.472049,0.122163 0,0.133167 0.174427,0.168623 0.467584,0.09504 0.306651,-0.07696 0.467581,-0.03912 0.467581,0.109964 0,0.125026 0.12355,0.179909 0.27456,0.121961 0.15101,-0.05795 0.32786,-0.01913 0.39299,0.08626 0.0651,0.105389 0.23346,0.147472 0.37407,0.09352 0.1406,-0.05395 0.30623,-0.01624 0.36807,0.08382 0.0618,0.100054 0.18099,0.139541 0.26479,0.08775 0.0838,-0.05179 0.55526,0.02709 1.04769,0.175287 0.49243,0.1482 0.95793,0.23076 1.03446,0.183467 0.0765,-0.04729 0.16735,-0.0089 0.20186,0.08534 0.0345,0.09423 0.31523,0.215332 0.62383,0.269115 0.308611,0.05378 1.401551,0.316164 2.428761,0.58307 2.23528,0.580803 2.68367,0.666203 4.0239,0.766396 1.67174,0.124974 2.83932,0.247744 3.83419,0.403159 1.0713,0.167354 5.54143,0.130542 9.91278,-0.08163 5.35217,-0.259782 9.36704,0.327782 13.04952,1.909757 1.91014,0.820588 3.37953,1.711993 3.22751,1.957966 -0.0601,0.09726 -0.67593,-0.06706 -1.38985,-0.370856 -0.70506,-0.300027 -2.11272,-0.774113 -3.12816,-1.053526 -1.71993,-0.473269 -2.10213,-0.508297 -5.58691,-0.512039 -2.92217,-0.0031 -4.02714,0.06659 -5.0499,0.318684 -6.35241,1.565742 -13.15395,2.368109 -20.86304,2.46118 -4.717361,0.05695 -5.726091,0.160212 -8.22069,0.841498 -1.086486,0.296724 -4.455218,1.60038 -4.664557,1.805124 -0.04523,0.04424 0.100787,0.208619 0.324479,0.365297 0.223691,0.15668 0.632638,0.680776 0.90877,1.164658 0.723566,1.26794 0.948078,1.487656 2.366799,2.316234 1.341439,0.783442 1.804988,1.348785 2.283712,2.785209 0.228523,0.685688 0.41217,0.904962 0.927154,1.107026 0.378034,0.148329 0.5895,0.335149 0.514097,0.454185 -0.07045,0.111216 -0.147371,0.653467 -0.170935,1.205005 -0.0578,1.352799 -0.354182,2.171436 -0.975397,2.694154 -0.285055,0.239857 -0.605159,0.591346 -0.711342,0.781086 -0.165985,0.296598 -0.216145,0.305577 -0.357645,0.06402 z"
       id="path3266"
       inkscape:connector-curvature="0" />
  </g>
</svg>
