<?xml version="1.0" encoding="UTF-8" standalone="no"?>
<!-- Created with Inkscape (http://www.inkscape.org/) -->

<svg
   xmlns:dc="http://purl.org/dc/elements/1.1/"
   xmlns:cc="http://creativecommons.org/ns#"
   xmlns:rdf="http://www.w3.org/1999/02/22-rdf-syntax-ns#"
   xmlns:svg="http://www.w3.org/2000/svg"
   xmlns="http://www.w3.org/2000/svg"
   xmlns:sodipodi="http://sodipodi.sourceforge.net/DTD/sodipodi-0.dtd"
   xmlns:inkscape="http://www.inkscape.org/namespaces/inkscape"
   width="79.654007mm"
   height="38.539459mm"
   viewBox="0 0 79.653992 38.539459"
   version="1.1"
   id="svg8"
   inkscape:version="0.92.4 (5da689c313, 2019-01-14)"
   sodipodi:docname="citipati.svg">
  <defs
     id="defs2" />
  <sodipodi:namedview
     id="base"
     pagecolor="#ffffff"
     bordercolor="#666666"
     borderopacity="1.0"
     inkscape:pageopacity="0.0"
     inkscape:pageshadow="2"
     inkscape:zoom="1.979899"
     inkscape:cx="163.08899"
     inkscape:cy="24.997675"
     inkscape:document-units="mm"
     inkscape:current-layer="layer1"
     showgrid="false"
     inkscape:window-width="1366"
     inkscape:window-height="745"
     inkscape:window-x="-8"
     inkscape:window-y="-8"
     inkscape:window-maximized="1" />
  <metadata
     id="metadata5">
    <rdf:RDF>
      <cc:Work
         rdf:about="">
        <dc:format>image/svg+xml</dc:format>
        <dc:type
           rdf:resource="http://purl.org/dc/dcmitype/StillImage" />
        <dc:title></dc:title>
      </cc:Work>
    </rdf:RDF>
  </metadata>
  <g
     inkscape:label="Camada 1"
     inkscape:groupmode="layer"
     id="layer1"
     transform="translate(-54.193083,-60.142193)">
    <path
       style="fill:#d5d5d5;fill-opacity:1;stroke-width:1"
       d="m 95.089227,98.637833 c -0.888263,-0.02802 -0.913049,-0.03445 -0.998418,-0.258985 -0.08233,-0.216534 -0.113834,-0.227141 -0.528775,-0.177997 -0.414733,0.04912 -0.435771,0.04205 -0.350309,-0.117633 0.136156,-0.25441 0.743473,-0.411974 1.087458,-0.282134 0.243186,0.09179 0.299456,0.08108 0.483766,-0.09207 0.159353,-0.149704 0.306677,-0.193236 0.624326,-0.184479 0.9864,0.0272 1.21399,0.01233 1.337286,-0.08734 0.10663,-0.0862 0.11625,-0.0812 0.0524,0.02721 -0.0675,0.114547 -0.0577,0.116099 0.0715,0.01129 0.0824,-0.06683 0.1498,-0.191436 0.1498,-0.276901 0,-0.08546 0.0624,-0.207168 0.13864,-0.270452 0.26005,-0.215821 0.42504,-0.627123 0.29025,-0.723543 -0.0933,-0.0667 -0.0886,-0.07555 0.0215,-0.04084 0.39525,0.124626 1.41227,-3.303793 1.04702,-3.529533 -0.0529,-0.03272 -0.0751,-0.140554 -0.0491,-0.239638 0.0567,-0.216749 -0.23064,-0.808981 -0.5247,-1.081499 -0.11681,-0.108263 -0.19205,-0.217187 -0.16718,-0.242053 0.0532,-0.05315 -0.80984,-1.54294 -0.94059,-1.623744 -0.049,-0.03031 -0.13721,-0.01522 -0.195945,0.03353 -0.05874,0.04875 -0.146633,0.101978 -0.195328,0.118292 -0.04869,0.01632 -0.07759,0.06251 -0.06421,0.102646 0.01338,0.04014 -0.01047,0.05148 -0.05299,0.0252 -0.164471,-0.101649 -0.455175,0.293627 -0.404028,0.549364 0.04073,0.203652 0.0093,0.265021 -0.179519,0.351076 -0.268098,0.122153 -0.287673,0.250508 -0.07418,0.486412 0.149123,0.16478 0.146812,0.169814 -0.06419,0.139775 -0.120384,-0.01714 -0.264537,-0.123098 -0.32034,-0.235468 -0.09312,-0.187508 -0.113139,-0.192629 -0.243495,-0.06227 -0.220559,0.220559 -0.392196,0.667433 -0.439075,1.143177 -0.02766,0.280747 -0.09521,0.463272 -0.191359,0.517079 -0.1192,0.06671 -0.13636,0.155634 -0.08672,0.449429 0.05899,0.34913 0.05411,0.360147 -0.104239,0.235475 -0.09137,-0.07193 -0.191644,-0.165936 -0.222843,-0.208891 -0.0312,-0.04295 -0.08464,0.0098 -0.118753,0.117342 -0.03412,0.107493 -0.0392,0.218276 -0.01129,0.246184 0.06974,0.06974 -0.305771,0.38559 -0.393771,0.331202 -0.111895,-0.06916 -0.190895,0.291111 -0.127313,0.580596 0.07151,0.325602 -0.06046,0.343613 -0.262163,0.03578 -0.08893,-0.135724 -0.13966,-0.361185 -0.125474,-0.557649 0.01451,-0.200917 -0.03493,-0.413678 -0.126503,-0.544414 -0.222059,-0.317032 -0.156581,-1.144539 0.104793,-1.324371 0.185054,-0.127323 0.369619,-0.818835 0.257015,-0.962959 -0.100192,-0.128235 -0.09618,-0.131828 0.03378,-0.03021 0.125388,0.09805 0.155556,0.08993 0.201295,-0.05419 0.02959,-0.09324 0.208345,-0.331976 0.397228,-0.530533 0.188883,-0.198558 0.39234,-0.512823 0.452128,-0.698367 0.05979,-0.185544 0.143007,-0.38086 0.184933,-0.434035 0.04193,-0.05317 0.04791,-0.125003 0.01329,-0.159617 -0.03461,-0.03462 0.01211,-0.03414 0.103829,0.0011 0.09516,0.03652 0.145167,0.02902 0.116466,-0.01745 -0.02766,-0.0448 0.04102,-0.08692 0.15263,-0.0936 0.172858,-0.01035 0.700542,-0.313274 0.842513,-0.483656 0.02435,-0.02922 0.100957,-0.07136 0.170243,-0.09364 0.07922,-0.02547 -0.117959,-0.227668 -0.531215,-0.544738 -0.714689,-0.548347 -0.775518,-0.593187 -0.98363,-0.725076 -0.410943,-0.260433 -1.556906,-1.059217 -1.709885,-1.191863 -0.257585,-0.223345 -1.150775,-0.711659 -1.301721,-0.711659 -0.07106,0 -0.182505,-0.0996 -0.247657,-0.22134 -0.06515,-0.121736 -0.160542,-0.221339 -0.21198,-0.221339 -0.142932,0 -1.204594,-1.154095 -1.204594,-1.309472 0,-0.07514 -0.02521,-0.111404 -0.05602,-0.08059 -0.08782,0.08782 -0.348612,-0.29315 -0.647687,-0.946139 -0.249193,-0.544078 -0.296018,-0.596116 -0.51566,-0.573077 -0.132869,0.01394 -0.301318,-0.0123 -0.374331,-0.0583 -0.182837,-0.1152 -0.619698,-0.130312 -0.619698,-0.02144 0,0.05665 -0.04156,0.05453 -0.11429,-0.0058 -0.121104,-0.100509 -0.682532,-0.225187 -0.682532,-0.151573 0,0.02387 0.07762,0.171023 0.172483,0.327017 0.169973,0.279499 0.165593,0.484179 -0.0081,0.376853 -0.04893,-0.03024 -0.0382,0.0263 0.02384,0.125632 0.06204,0.09933 0.150815,0.15711 0.197287,0.128389 0.04647,-0.02872 0.06195,-0.01574 0.0344,0.02884 -0.08023,0.129823 0.134454,0.354399 0.402637,0.421179 0.396808,0.09881 0.186593,0.262313 -0.258769,0.201269 -0.2298,-0.0315 -0.386737,-0.01777 -0.386737,0.03383 0,0.04776 0.0567,0.08684 0.125994,0.08684 0.0693,0 0.239004,0.11301 0.377128,0.251135 0.138125,0.138124 0.310514,0.274423 0.383089,0.302886 0.207345,0.08132 -0.620791,0.06654 -1.063282,-0.01898 -0.219127,-0.04235 -0.409506,-0.06604 -0.423067,-0.05265 -0.01356,0.01339 0.317758,0.190898 0.736261,0.394455 0.590504,0.287217 0.785717,0.429086 0.87165,0.63346 0.0609,0.144846 0.129581,0.252732 0.152617,0.239747 0.02304,-0.01298 -0.02297,0.03732 -0.102242,0.111783 -0.110264,0.103581 -0.123424,0.181785 -0.05601,0.332857 0.137767,0.308748 0.01506,0.332657 -0.670768,0.130688 -0.541939,-0.159596 -0.610065,-0.165495 -0.453164,-0.03924 0.24973,0.20095 0.32056,0.431201 0.152487,0.495696 -0.07436,0.02854 -0.172436,0.02887 -0.217944,7.09e-4 -0.04551,-0.02813 -0.07179,0.0016 -0.05841,0.06611 0.01839,0.08865 -0.110654,0.113497 -0.529022,0.101866 -0.405554,-0.01127 -0.553349,0.01566 -0.553349,0.100833 0,0.06392 0.05375,0.110683 0.119448,0.10392 0.114492,-0.01175 1.031519,0.778945 1.031519,0.88945 0,0.07635 -1.396949,-0.07479 -1.761904,-0.190625 -0.102237,-0.03245 -0.185886,-0.03984 -0.185886,-0.01642 0,0.05692 1.233725,0.766174 1.332735,0.766174 0.157787,0 0.686685,0.540343 0.741096,0.757131 0.03092,0.123204 0.09118,0.202401 0.133905,0.175995 0.04273,-0.02641 0.05683,0.03173 0.03135,0.129183 -0.04221,0.16143 -0.133496,0.216088 -0.313426,0.187678 -0.102484,-0.01618 -0.07402,0.104806 0.06922,0.294179 0.456591,0.603668 -0.140735,0.629209 -1.455808,0.06225 -0.893634,-0.385267 -1.052497,-0.406806 -0.339859,-0.04608 0.671879,0.340095 0.881062,0.61363 0.694516,0.908168 -0.06544,0.103317 -0.140821,0.100716 -0.485592,-0.01676 l -0.40813,-0.139063 v 0.215965 c 0,0.118781 -0.0498,0.215744 -0.110669,0.215472 -0.272292,-0.0012 -0.849761,-0.21647 -1.184473,-0.441517 -0.228701,-0.153769 -0.40891,-0.218941 -0.481447,-0.174111 -0.06744,0.04168 -0.191268,0.01888 -0.296068,-0.05453 -0.235915,-0.165241 -0.317811,-0.159264 -0.317811,0.02319 0,0.120036 -0.04781,0.103755 -0.243474,-0.0829 -0.233429,-0.22269 -0.701833,-0.464889 -0.84109,-0.434905 -0.03652,0.0079 -0.0664,-0.0279 -0.0664,-0.07946 0,-0.05157 -0.03946,-0.06938 -0.08768,-0.03957 -0.04823,0.0298 0.13106,0.267752 0.398412,0.528771 0.552348,0.539264 0.582957,0.634546 0.245114,0.762993 -0.188211,0.07156 -0.343309,0.05392 -0.708287,-0.08052 -0.257019,-0.09468 -0.467306,-0.136894 -0.467306,-0.09381 0,0.04308 0.03779,0.07833 0.08397,0.07833 0.04619,0 0.190642,0.09886 0.321014,0.21968 0.130372,0.120825 0.278024,0.194352 0.328117,0.163393 0.05164,-0.03191 0.06439,-0.01311 0.02945,0.04343 -0.0339,0.05484 0.0097,0.208625 0.09699,0.341736 0.201281,0.307119 0.217674,0.633492 0.02974,0.592193 -0.0752,-0.01653 -0.30493,-0.0433 -0.510502,-0.05949 -0.205572,-0.0162 -0.444619,-0.09079 -0.531215,-0.165757 -0.0866,-0.07497 -0.246399,-0.157939 -0.355117,-0.184374 -0.167757,-0.04079 -0.184878,-0.02416 -0.11313,0.109901 0.08547,0.159699 0.338155,0.309066 0.472318,0.279195 0.04014,-0.0089 0.04972,0.02139 0.02129,0.06739 -0.02843,0.046 0.05366,0.166512 0.182431,0.267802 0.128767,0.101288 0.198869,0.18477 0.155781,0.185516 -0.04309,7.08e-4 -0.02914,0.03261 0.03099,0.0708 0.06014,0.0382 0.134734,0.196431 0.165774,0.351633 0.04835,0.24177 0.02636,0.293434 -0.153605,0.36073 -0.138955,0.05196 -0.232056,0.04486 -0.275088,-0.02098 -0.04451,-0.06811 -0.06547,-0.06117 -0.0664,0.02199 -9.56e-4,0.08537 -0.03427,0.09517 -0.112025,0.03297 -0.192463,-0.153979 -0.541315,-0.233994 -0.462221,-0.106019 0.04521,0.07315 0.03326,0.08959 -0.03463,0.04764 -0.05701,-0.03524 -0.08353,-0.09664 -0.05892,-0.136451 0.0246,-0.03981 -0.01459,-0.12162 -0.08709,-0.181795 -0.07251,-0.06018 -0.131829,-0.07973 -0.131829,-0.04346 0,0.03627 -0.06896,0.01127 -0.153241,-0.05556 -0.08428,-0.06683 -0.02396,0.0443 0.134059,0.246959 0.382266,0.490265 0.593119,0.99653 0.4674,1.122249 -0.131681,0.131681 -0.842018,-0.06533 -1.094784,-0.303632 -0.385323,-0.363281 -0.501939,-0.380512 -0.410194,-0.06061 0.179938,0.627405 -0.373247,0.619467 -0.964554,-0.01384 -0.197525,-0.211556 -0.275019,-0.257355 -0.234749,-0.138736 0.12912,0.380337 0.15569,0.841091 0.0485,0.841091 -0.158827,0 -0.483054,-0.186431 -0.564628,-0.324663 -0.03951,-0.06696 -0.110223,-0.09802 -0.157132,-0.06903 -0.04691,0.02899 -0.07958,0.01987 -0.07261,-0.02027 0.03277,-0.188623 -0.0177,-0.298957 -0.110506,-0.2416 -0.06573,0.04062 -0.07808,0.02412 -0.0346,-0.04624 0.04064,-0.06576 -0.02153,-0.203666 -0.155863,-0.345689 -0.122915,-0.129954 -0.283382,-0.375724 -0.356594,-0.546155 -0.105734,-0.246147 -0.134595,-0.269981 -0.140332,-0.115895 -0.02016,0.541468 -0.519183,0.119826 -0.813494,-0.68735 -0.13305,-0.364906 -0.223014,-0.49798 -0.313242,-0.463357 -0.133433,0.0512 -0.496478,-0.21926 -0.432742,-0.322386 0.02047,-0.03312 -0.01675,-0.256879 -0.08271,-0.497249 -0.06596,-0.240369 -0.123483,-0.365726 -0.127837,-0.278571 -0.01306,0.261359 -0.34107,0.830335 -0.59287,1.0284 -0.165922,0.130515 -0.36333,0.185441 -0.666489,0.185441 -0.498515,0 -0.554242,-0.09624 -0.142998,-0.246951 0.586705,-0.215016 0.804739,-0.475817 0.812198,-0.971511 0.0054,-0.357691 -0.03641,-0.495186 -0.205166,-0.674912 -0.253902,-0.270416 -0.332139,-0.854299 -0.206496,-1.541067 0.07238,-0.395646 0.05995,-0.51901 -0.07994,-0.793409 -0.09111,-0.178706 -0.166864,-0.426059 -0.168345,-0.549673 -0.0023,-0.196018 -0.01428,-0.204855 -0.09333,-0.06911 -0.04985,0.0856 -0.0624,0.20132 -0.0279,0.257153 0.03621,0.0586 0.02387,0.07749 -0.0292,0.04469 -0.05057,-0.03125 -0.138899,0.05655 -0.196293,0.195108 -0.23098,0.557634 -1.027682,0.797893 -1.612883,0.48639 -0.162454,-0.08647 -0.323819,-0.149512 -0.358587,-0.140085 -0.03477,0.0094 -0.04096,-0.04086 -0.01375,-0.111758 0.03748,-0.09768 0.143363,-0.116029 0.437147,-0.07576 0.508265,0.06967 0.861762,-0.08433 1.066567,-0.464627 0.135156,-0.25097 0.144782,-0.335218 0.05477,-0.479354 -0.137167,-0.219639 -0.140106,-0.573861 -0.0068,-0.822896 0.05631,-0.105216 0.132551,-0.311763 0.169424,-0.458992 0.03687,-0.14723 0.150164,-0.486255 0.251761,-0.753388 0.121795,-0.320245 0.18472,-0.691575 0.18472,-1.090063 0,-0.658572 0.217567,-1.46585 0.415529,-1.541816 0.06849,-0.02628 0.257424,-0.251928 0.419842,-0.501431 0.162418,-0.249504 0.528957,-0.724313 0.814532,-1.05513 1.118479,-1.295678 1.360317,-1.609008 1.360317,-1.762456 0,-0.191673 -0.26578,-0.473496 -0.523761,-0.555376 -0.102903,-0.03266 -0.169471,-0.0879 -0.147929,-0.122757 0.02154,-0.03486 -0.0699,-0.111655 -0.203212,-0.170663 -0.133308,-0.05901 -0.369481,-0.231554 -0.524829,-0.383436 -0.155348,-0.15188 -0.282451,-0.245324 -0.282451,-0.207652 0,0.03767 -0.08211,-0.0058 -0.182476,-0.09664 -0.157075,-0.142151 -0.195212,-0.147142 -0.27396,-0.03586 -0.07299,0.103146 -0.08047,0.09553 -0.03703,-0.03767 0.03871,-0.11868 -0.04208,-0.263026 -0.27939,-0.499218 -0.183612,-0.182746 -0.393603,-0.443391 -0.466645,-0.579211 -0.07304,-0.13582 -0.265526,-0.301059 -0.427742,-0.367198 -0.208125,-0.08486 -0.275886,-0.08942 -0.230208,-0.01552 0.04788,0.07747 -0.04747,0.09209 -0.366178,0.05617 -0.237,-0.02671 -0.445495,-0.09233 -0.463323,-0.145813 -0.01783,-0.05348 -0.08292,-0.09724 -0.144653,-0.09724 -0.06173,0 -0.297459,-0.09848 -0.523838,-0.218849 -0.226379,-0.120366 -0.411598,-0.199025 -0.411598,-0.174797 0,0.104276 -0.531736,-0.243106 -0.700469,-0.457616 -0.10169,-0.129276 -0.18489,-0.208142 -0.18489,-0.175257 0,0.03288 -0.109155,-0.04143 -0.242568,-0.165132 -0.133413,-0.123708 -0.26725,-0.224923 -0.297416,-0.224923 -0.03017,0 -0.228316,-0.13727 -0.440333,-0.305046 -0.312307,-0.247137 -0.410338,-0.284954 -0.516402,-0.199206 -0.104232,0.08427 -0.116515,0.08191 -0.06026,-0.01158 0.04499,-0.07477 -0.02426,-0.235563 -0.19067,-0.442679 -0.362666,-0.45139 -0.537617,-0.814309 -0.653873,-1.356391 -0.05479,-0.255471 -0.144648,-0.509525 -0.199687,-0.564564 -0.05504,-0.05504 -0.153159,-0.355983 -0.218045,-0.668764 -0.176506,-0.850853 -0.937771,-3.407172 -1.128504,-3.789507 -0.06677,-0.133842 -0.263757,-0.360337 -0.437751,-0.503324 -0.173994,-0.142986 -0.420413,-0.369538 -0.547598,-0.503449 -0.127184,-0.13391 -0.281575,-0.243473 -0.34309,-0.243473 -0.06151,0 -0.164492,-0.05248 -0.228838,-0.116631 -0.317048,-0.316063 -1.439618,-0.478668 -2.286123,-0.331145 -1.213355,0.211455 -3.961033,1.326704 -3.761136,1.5266 0.02731,0.02731 -0.121255,0.01834 -0.330138,-0.01992 -0.253701,-0.04647 -0.422171,-0.03539 -0.507452,0.03338 -0.09894,0.07979 -0.112707,0.07805 -0.06118,-0.0077 0.04002,-0.06661 0.01914,-0.11067 -0.05245,-0.11067 -0.06542,0 -0.193227,0.125758 -0.284023,0.279463 -0.155523,0.26328 -0.17201,0.269991 -0.284696,0.115882 -0.06579,-0.08997 -0.119614,-0.218081 -0.119614,-0.28469 0,-0.06661 -0.03939,-0.09677 -0.08752,-0.06702 -0.04814,0.02975 -0.06612,-0.0017 -0.03996,-0.06985 0.100415,-0.261679 -0.734336,-2.08505 -0.889931,-1.943903 -0.04037,0.03662 -0.04772,0.0216 -0.01633,-0.03339 0.03139,-0.05499 -0.04733,-0.204393 -0.17495,-0.33201 -0.127617,-0.127617 -0.200503,-0.23203 -0.161968,-0.23203 0.03853,0 0.0019,-0.07532 -0.08141,-0.167371 -0.150815,-0.166648 -0.196128,-1.204828 -0.04861,-1.113655 0.06429,0.03973 0.702198,-0.432307 0.801626,-0.593184 0.03015,-0.04879 0.07029,-0.07851 0.08919,-0.06606 0.0189,0.01245 0.202903,-0.08375 0.408888,-0.213778 0.205985,-0.130033 0.417502,-0.236423 0.470038,-0.236423 0.05254,0 0.07118,-0.03938 0.04143,-0.08752 -0.03213,-0.05199 0.0076,-0.06385 0.09783,-0.02922 0.111235,0.04268 0.132515,0.02689 0.07946,-0.05896 -0.04619,-0.07474 -0.0381,-0.09602 0.02231,-0.05868 0.05213,0.03222 0.198206,0.01926 0.324607,-0.0288 0.126402,-0.04806 0.635205,-0.09232 1.130672,-0.09836 0.915598,-0.01116 1.123894,-0.06563 2.034463,-0.532031 0.179086,-0.09173 0.523524,-0.182239 0.76542,-0.201133 0.241895,-0.0189 0.4919,-0.06655 0.555567,-0.105896 0.156954,-0.097 1.681462,-0.123413 1.62256,-0.02811 -0.02574,0.04164 0.01616,0.05156 0.09311,0.02203 0.228501,-0.08769 1.561063,0.151394 2.038418,0.365718 0.243473,0.109316 0.521245,0.225872 0.617269,0.259015 0.136151,0.04699 0.148195,0.07657 0.0547,0.134353 -0.09272,0.05731 -0.07897,0.08708 0.0607,0.131412 0.09933,0.03152 0.202942,0.115562 0.230259,0.18675 0.02732,0.07119 0.121262,0.129434 0.208767,0.129434 0.197587,0 0.774964,0.302996 0.779223,0.408921 0.0069,0.172231 0.23223,0.476438 0.352865,0.476438 0.07064,0 0.238491,0.169325 0.373006,0.376277 0.134517,0.206953 0.294446,0.428925 0.3554,0.493272 0.06096,0.06435 0.111712,0.163949 0.112795,0.221339 0.0011,0.05739 0.07988,0.203949 0.175103,0.325686 0.09522,0.121737 0.175287,0.301022 0.177919,0.398411 0.0026,0.09739 0.06328,0.254409 0.134772,0.348932 0.07149,0.09452 0.129988,0.254982 0.129988,0.356577 0,0.101595 0.06354,0.275431 0.141194,0.386302 0.07799,0.111351 0.119954,0.288596 0.09374,0.395976 -0.04507,0.184638 0.133023,0.549478 0.223875,0.458627 0.02359,-0.02359 0.04289,0.01607 0.04289,0.08814 0,0.148299 0.156202,0.694977 0.367319,1.285543 0.07833,0.219126 0.131869,0.44978 0.118966,0.512564 -0.01958,0.0953 0.427387,0.75568 0.611871,0.90401 0.03028,0.02435 0.08069,0.143871 0.112014,0.265608 0.114648,0.445533 0.589928,0.833973 1.829561,1.495278 0.398976,0.212841 0.528351,0.259282 0.888763,0.319042 0.217253,0.03602 0.467276,0.103476 0.555604,0.149894 0.106623,0.05603 0.20068,0.05113 0.279859,-0.01458 0.08361,-0.06939 0.136682,-0.07079 0.17753,-0.0047 0.03205,0.05185 0.104616,0.06564 0.161264,0.03062 0.05665,-0.03501 0.163458,-0.06924 0.237356,-0.07607 0.660596,-0.06106 1.155625,-0.17614 1.401693,-0.325857 0.419601,-0.255299 1.148564,-0.599733 1.269283,-0.599733 0.05651,0 0.22603,-0.09387 0.376711,-0.2086 0.15068,-0.114731 0.373567,-0.238402 0.495304,-0.274827 0.121737,-0.03642 0.30951,-0.121793 0.417273,-0.189708 0.205703,-0.129638 1.032057,-0.282625 1.928928,-0.357111 0.292168,-0.02426 0.690579,-0.08381 0.885358,-0.132325 0.194779,-0.04851 0.524667,-0.124532 0.733085,-0.168929 0.475967,-0.101389 3.914253,-0.02612 4.2263,0.09252 0.342024,0.130037 0.949747,0.106989 1.326185,-0.0503 0.182062,-0.07607 0.384084,-0.117949 0.448938,-0.09306 0.11423,0.04384 1.097459,-0.09333 1.366524,-0.190633 0.07304,-0.02641 0.312089,-0.05658 0.531215,-0.06704 0.219127,-0.01046 0.398412,-0.02936 0.398412,-0.04201 0,-0.01265 0.0996,-0.03217 0.22134,-0.04339 0.121736,-0.01122 0.297597,-0.05269 0.3908,-0.09217 0.128321,-0.05434 0.151994,-0.0435 0.09751,0.04465 -0.05599,0.09059 -0.01502,0.102637 0.184682,0.0543 0.141148,-0.03417 0.435917,-0.07945 0.655044,-0.100623 0.219126,-0.02117 0.577696,-0.05962 0.796822,-0.08543 0.219127,-0.02581 0.99248,-0.0676 1.718562,-0.09287 0.726082,-0.02527 1.349004,-0.06377 1.38427,-0.08557 0.08871,-0.05482 0.623664,0.13901 0.580531,0.210349 -0.01921,0.03178 0.189998,0.06769 0.464918,0.0798 0.27492,0.01211 0.67919,0.06351 0.89838,0.114218 0.33049,0.07646 2.07617,0.131882 2.921569,0.09276 0.42821,-0.01982 1.55283,0.08334 1.85925,0.170547 0.17043,0.0485 0.64475,0.127508 1.05404,0.175567 0.73759,0.08661 0.87797,0.118279 1.73484,0.391372 0.24347,0.0776 0.529,0.14089 0.63451,0.140649 0.1055,-2.65e-4 0.206,0.0421 0.22333,0.09408 0.0173,0.05198 0.21613,0.101662 0.44177,0.110395 0.22565,0.0087 0.39343,0.04313 0.37284,0.07644 -0.0581,0.09398 0.0921,0.156783 0.46497,0.194443 0.18787,0.01897 0.45374,0.07905 0.59082,0.133497 0.13708,0.05445 0.32301,0.099 0.41317,0.099 0.0902,0 0.17721,0.03501 0.19344,0.07779 0.0162,0.04278 0.24662,0.103741 0.51197,0.135461 0.26535,0.03172 0.68369,0.116026 0.92963,0.187349 0.77427,0.224536 2.79927,0.135482 3.79006,-0.166679 0.23167,-0.07065 0.49342,-0.109575 0.58167,-0.0865 0.0883,0.02308 0.21235,-0.02057 0.27578,-0.097 0.0634,-0.07643 0.19607,-0.138959 0.29476,-0.138959 0.35205,0 2.15383,-0.660109 2.64543,-0.969189 0.46669,-0.293422 1.64002,-1.162482 2.08631,-1.54529 0.1079,-0.09255 0.17147,-0.208272 0.14126,-0.257153 -0.0326,-0.05282 -0.01,-0.06104 0.0561,-0.02027 0.0716,0.04423 0.28878,-0.102563 0.6113,-0.4131 0.93493,-0.900215 1.43535,-1.2984 1.76498,-1.404405 0.18092,-0.05818 0.51829,-0.240102 0.7497,-0.404267 0.23141,-0.164165 0.45438,-0.298482 0.49548,-0.298482 0.18557,0 0.62934,-0.288671 0.57613,-0.374771 -0.0349,-0.05643 -0.0174,-0.0696 0.043,-0.03231 0.056,0.03463 0.47055,-0.09212 0.92117,-0.281663 1.202,-0.505588 1.32444,-0.550233 1.61613,-0.589283 0.38449,-0.05147 1.91686,-0.401947 2.01052,-0.459835 0.0437,-0.02703 0.24671,-0.06634 0.45107,-0.08736 0.20436,-0.02102 0.78113,-0.09704 1.28173,-0.168931 1.05484,-0.151488 1.84471,-0.168812 1.92297,-0.04218 0.0301,0.0487 0.13205,0.08854 0.22657,0.08854 0.0945,0 0.17185,0.0555 0.17185,0.123331 0,0.06783 0.0591,0.146007 0.13131,0.173721 0.16209,0.0622 0.0836,0.298595 -0.11672,0.351657 -0.0811,0.02147 0.0187,0.04366 0.22164,0.04931 0.20297,0.0056 0.43206,0.03445 0.50908,0.06401 0.21421,0.0822 0.16803,0.300404 -0.0636,0.300404 -0.112,0 -0.24938,0.04575 -0.30529,0.10166 -0.0559,0.05591 -0.45233,0.129727 -0.88093,0.16403 -0.4286,0.0343 -0.67967,0.07332 -0.55793,0.08671 0.12173,0.01339 0.30747,0.03357 0.41275,0.04485 0.31697,0.03396 0.4726,0.120894 0.4726,0.263992 0,0.07457 -0.0598,0.135583 -0.1328,0.135583 -0.073,0 -0.1328,0.03611 -0.1328,0.08025 0,0.04414 -0.0896,0.06461 -0.19921,0.04551 -0.10956,-0.01911 -0.068,0.0108 0.0924,0.06646 0.41449,0.143867 0.34258,0.36918 -0.13838,0.43357 -0.20759,0.02779 -0.42636,0.119558 -0.48889,0.205078 -0.0623,0.08516 -0.28103,0.177291 -0.48635,0.204831 -0.28951,0.03883 -0.37317,0.08763 -0.37317,0.217681 0,0.115424 -0.0827,0.18417 -0.26561,0.220749 -0.17493,0.03499 -0.2656,0.106557 -0.2656,0.209654 0,0.161041 -0.1673,0.264013 -0.42893,0.264013 -0.0819,0 -0.18816,0.08964 -0.23623,0.199206 -0.0669,0.152536 -0.17333,0.205475 -0.45418,0.225966 -0.293,0.02138 -0.35955,0.05699 -0.33086,0.177072 0.0621,0.259979 -0.31011,0.548722 -0.70741,0.548722 -0.13834,0 -0.22846,0.06216 -0.2589,0.178556 -0.0266,0.101617 -0.21224,0.25341 -0.43087,0.352277 -0.2113,0.09555 -0.47801,0.274164 -0.59268,0.396928 -0.11468,0.122763 -0.27761,0.223206 -0.36207,0.223206 -0.0845,0 -0.19895,0.0996 -0.25442,0.22134 -0.0583,0.127956 -0.17504,0.221339 -0.2767,0.221339 -0.0967,0 -0.21705,0.07698 -0.26741,0.171076 -0.0805,0.150451 -0.29376,0.268681 -0.58032,0.321754 -0.0496,0.0092 -0.2745,0.141101 -0.49979,0.293149 -0.22529,0.152049 -0.45364,0.276452 -0.50745,0.276452 -0.0538,0 -0.0978,0.04219 -0.0978,0.09376 0,0.05157 -0.0369,0.07094 -0.0821,0.04304 -0.0451,-0.0279 -0.31406,0.08917 -0.59761,0.260156 -0.28356,0.17098 -0.57754,0.310977 -0.65329,0.311101 -0.0758,8.9e-5 -0.27274,0.09983 -0.43775,0.221568 -0.165,0.121737 -0.37406,0.221339 -0.46458,0.221339 -0.0905,0 -0.31114,0.0996 -0.49029,0.22134 -0.17916,0.121737 -0.36027,0.22134 -0.40247,0.22134 -0.0422,0 -0.20228,0.05708 -0.35573,0.12684 -0.4331,0.196905 -1.39078,0.431418 -1.79874,0.440465 -0.20283,0.0045 -0.34878,0.0281 -0.32432,0.05245 0.0718,0.07152 -0.8919,0.240767 -0.98907,0.173691 -0.0829,-0.05723 -0.72612,-0.134666 -1.93157,-0.232541 -0.49919,-0.04053 -1.99372,0.373332 -2.93791,0.813561 -1.27946,0.596551 -3.09696,0.917888 -5.40068,0.954856 -1.97395,0.03167 -2.25073,0.09808 -3.01336,0.723003 -0.20426,0.167377 -0.55748,0.403271 -0.78494,0.524209 -0.22745,0.120936 -0.78064,0.566304 -1.22931,0.989703 -0.44867,0.4234 -0.96451,0.868906 -1.14632,0.990013 -0.18181,0.121107 -0.30513,0.26133 -0.27406,0.311606 0.0311,0.05028 0.0146,0.0655 -0.0367,0.03383 -0.0512,-0.03167 -0.40601,0.09587 -0.788369,0.283415 -0.77885,0.382022 -1.51528,0.628922 -2.53725,0.850646 l -0.69109,0.149937 0.22627,0.226275 c 0.12445,0.124452 0.22628,0.280604 0.22628,0.347006 0,0.218539 0.0114,0.252222 0.13127,0.386339 0.0653,0.07304 0.13035,0.292168 0.14464,0.486947 0.0143,0.194779 0.0552,0.413906 0.0909,0.486948 0.14471,0.296026 0.32674,0.975239 0.24838,0.926813 -0.1068,-0.06601 -0.10511,0.01172 0.009,0.423359 0.0507,0.182605 0.12964,0.332009 0.17539,0.332009 0.0457,0 0.14145,0.139444 0.21266,0.309876 0.0712,0.170432 0.17135,0.309876 0.22253,0.309876 0.0512,0 0.0931,0.0498 0.0932,0.110669 6e-5,0.06087 0.0997,0.22643 0.22134,0.367915 0.20163,0.234454 0.25494,0.349369 0.23519,0.507028 -0.004,0.03079 0.0609,0.05071 0.14394,0.04427 0.0879,-0.0068 0.20996,0.105941 0.29215,0.269811 0.0777,0.154842 0.20343,0.376504 0.27949,0.492585 0.10946,0.16706 0.12825,0.371945 0.0901,0.982883 -0.0533,0.854307 -0.0329,0.82281 -0.94285,1.453723 -0.25105,0.174057 -0.39207,0.329183 -0.35451,0.389958 0.0369,0.05977 0.0232,0.0767 -0.0337,0.04153 -0.14434,-0.0892 -0.22755,0.109724 -0.10678,0.255246 0.0579,0.06981 0.22691,0.376831 0.3755,0.682276 0.36644,0.753253 0.67705,1.234966 0.76232,1.182263 0.0388,-0.024 0.0706,0.0052 0.0706,0.06487 0,0.133424 0.471649,0.857595 0.558549,0.857595 0.15754,0 0.3681,0.579713 0.28795,0.7928 -0.0485,0.128812 -0.05,0.358452 -0.004,0.563866 0.0698,0.310665 0.0356,0.4369 -0.33,1.219088 -0.233039,0.498533 -0.379959,0.920964 -0.342759,0.985513 0.0358,0.06213 0.031,0.08191 -0.0107,0.04393 -0.094,-0.08558 -1.01497,1.821087 -1.01497,2.101354 0,0.112017 0.0632,0.256081 0.14035,0.320142 0.0879,0.07294 0.1267,0.209411 0.10385,0.365121 -0.0251,0.170656 0.019,0.297203 0.14027,0.403448 0.16923,0.148194 0.17416,0.147654 0.11547,-0.01266 -0.0528,-0.14424 -0.042,-0.151433 0.078,-0.05187 0.12316,0.102206 0.12406,0.130802 0.008,0.247015 -0.1483,0.148295 -0.67107,-8.86e-4 -0.67775,-0.19336 -0.002,-0.05496 -0.0634,0.03833 -0.13672,0.207313 -0.22707,0.523507 -0.33834,0.597282 -0.811,0.537718 -0.23161,-0.02919 -0.58048,-0.02437 -0.77526,0.0107 -0.19478,0.03507 -0.473667,0.05766 -0.619751,0.0502 -0.146085,-0.0075 -0.675503,-0.0265 -1.176484,-0.0423 z m -1.888185,-5.910098 c 0.0062,-0.145875 -0.0076,-0.153674 -0.07836,-0.04427 -0.0472,0.07304 -0.08246,0.252327 -0.07836,0.398412 0.0073,0.260281 0.0089,0.261169 0.07836,0.04427 0.03899,-0.121737 0.07425,-0.301022 0.07836,-0.398412 z m 0.736667,-0.216664 c 0.02106,-0.143512 0.0057,-0.240764 -0.03422,-0.216114 -0.07098,0.04387 -0.105759,0.477046 -0.0383,0.477046 0.01882,0 0.05145,-0.117419 0.07252,-0.260932 z m 3.882462,-6.180053 c 0.1977,-0.39441 0.20007,-0.404085 0.0813,-0.330654 -0.0738,0.04561 -0.0919,0.03505 -0.0517,-0.03011 0.0662,-0.1072 -0.0503,-0.374391 -0.30836,-0.707075 -0.15815,-0.203868 -0.15859,-0.203082 -0.11944,0.214544 0.0216,0.230538 0.1,0.486229 0.17417,0.568201 0.12042,0.133066 0.12051,0.160963 8e-4,0.260301 -0.0737,0.06119 -0.11223,0.146589 -0.0855,0.189766 0.0851,0.137724 0.18333,0.08525 0.30875,-0.164969 z M 72.006882,76.304329 c -0.0301,-0.04869 0.005,-0.08854 0.07809,-0.08854 0.07304,0 0.157427,0.03984 0.187522,0.08854 0.03009,0.04869 -0.005,0.08854 -0.07809,0.08854 -0.07304,0 -0.157427,-0.03984 -0.187522,-0.08854 z M 54.197247,62.86803 c -0.01198,-0.202494 -0.0014,-0.21305 0.07558,-0.07549 0.04943,0.08833 0.05567,0.193726 0.01393,0.235417 -0.04172,0.04167 -0.08181,-0.02998 -0.0895,-0.159932 z m 10.726766,-2.50016 c -0.0301,-0.0487 -0.01253,-0.08854 0.03904,-0.08854 0.05157,0 0.09376,0.03984 0.09376,0.08854 0,0.04869 -0.01757,0.08854 -0.03904,0.08854 -0.02147,0 -0.06367,-0.03984 -0.09376,-0.08854 z"
       id="path991"
       inkscape:connector-curvature="0" />
  </g>
</svg>
