<?xml version="1.0" encoding="UTF-8" standalone="no"?>
<!-- Created with Inkscape (http://www.inkscape.org/) -->

<svg
   xmlns:dc="http://purl.org/dc/elements/1.1/"
   xmlns:cc="http://creativecommons.org/ns#"
   xmlns:rdf="http://www.w3.org/1999/02/22-rdf-syntax-ns#"
   xmlns:svg="http://www.w3.org/2000/svg"
   xmlns="http://www.w3.org/2000/svg"
   xmlns:sodipodi="http://sodipodi.sourceforge.net/DTD/sodipodi-0.dtd"
   xmlns:inkscape="http://www.inkscape.org/namespaces/inkscape"
   width="84.147545mm"
   height="28.20484mm"
   viewBox="0 0 84.147546 28.20484"
   version="1.1"
   id="svg852"
   inkscape:version="0.92.4 (5da689c313, 2019-01-14)"
   sodipodi:docname="coelophysis.svg">
  <defs
     id="defs846">
    <filter
       style="color-interpolation-filters:sRGB"
       inkscape:label="Brilliance"
       id="filter1987">
      <feColorMatrix
         values="1 -0 -0 0 -10 -0 1 -0 0 -10 -0 -0 1 0 -10 0 0 0 1 0 "
         id="feColorMatrix1985" />
    </filter>
    <filter
       style="color-interpolation-filters:sRGB"
       inkscape:label="Lightness-Contrast"
       id="filter2289">
      <feColorMatrix
         values="11 0 0 -4.59375 -5 0 11 0 -4.59375 -5 0 0 11 -4.59375 -5 0 0 0 1 0"
         id="feColorMatrix2287"
         result="fbSourceGraphic" />
      <feColorMatrix
         result="fbSourceGraphicAlpha"
         in="fbSourceGraphic"
         values="0 0 0 -1 0 0 0 0 -1 0 0 0 0 -1 0 0 0 0 1 0"
         id="feColorMatrix2291" />
      <feColorMatrix
         id="feColorMatrix2293"
         values="11 0 0 -4.5936 -5 0 11 0 -4.5936 -5 0 0 11 -4.5936 -5 0 0 0 1 0"
         in="fbSourceGraphic" />
    </filter>
    <filter
       style="color-interpolation-filters:sRGB"
       inkscape:label="Lightness-Contrast"
       id="filter2308">
      <feColorMatrix
         values="11 0 0 -4.5936 -5 0 11 0 -4.5936 -5 0 0 11 -4.5936 -5 0 0 0 1 0"
         id="feColorMatrix2306"
         result="fbSourceGraphic" />
      <feColorMatrix
         result="fbSourceGraphicAlpha"
         in="fbSourceGraphic"
         values="0 0 0 -1 0 0 0 0 -1 0 0 0 0 -1 0 0 0 0 1 0"
         id="feColorMatrix2310" />
      <feColorMatrix
         id="feColorMatrix2312"
         values="11 0 0 -4.5936 -5 0 11 0 -4.5936 -5 0 0 11 -4.5936 -5 0 0 0 1 0"
         in="fbSourceGraphic" />
    </filter>
    <filter
       style="color-interpolation-filters:sRGB"
       inkscape:label="Lightness-Contrast"
       id="filter2337">
      <feColorMatrix
         values="11 0 0 -6 -5 0 11 0 -6 -5 0 0 11 -6 -5 0 0 0 1 0"
         id="feColorMatrix2335" />
    </filter>
    <filter
       style="color-interpolation-filters:sRGB"
       inkscape:label="Lightness-Contrast"
       id="filter2407">
      <feColorMatrix
         values="11 0 0 -4.78125 -5 0 11 0 -4.78125 -5 0 0 11 -4.78125 -5 0 0 0 1 0"
         id="feColorMatrix2405"
         result="fbSourceGraphic" />
      <feColorMatrix
         result="fbSourceGraphicAlpha"
         in="fbSourceGraphic"
         values="0 0 0 -1 0 0 0 0 -1 0 0 0 0 -1 0 0 0 0 1 0"
         id="feColorMatrix2409" />
      <feColorMatrix
         id="feColorMatrix2411"
         values="11 0 0 -4.7814 -5 0 11 0 -4.7814 -5 0 0 11 -4.7814 -5 0 0 0 1 0"
         in="fbSourceGraphic"
         result="fbSourceGraphic" />
      <feColorMatrix
         result="fbSourceGraphicAlpha"
         in="fbSourceGraphic"
         values="0 0 0 -1 0 0 0 0 -1 0 0 0 0 -1 0 0 0 0 1 0"
         id="feColorMatrix2413" />
      <feColorMatrix
         id="feColorMatrix2415"
         values="11 0 0 -4.7814 -5 0 11 0 -4.7814 -5 0 0 11 -4.7814 -5 0 0 0 1 0"
         in="fbSourceGraphic"
         result="fbSourceGraphic" />
      <feColorMatrix
         result="fbSourceGraphicAlpha"
         in="fbSourceGraphic"
         values="0 0 0 -1 0 0 0 0 -1 0 0 0 0 -1 0 0 0 0 1 0"
         id="feColorMatrix2417" />
      <feColorMatrix
         id="feColorMatrix2419"
         values="11 0 0 -4.7814 -5 0 11 0 -4.7814 -5 0 0 11 -4.7814 -5 0 0 0 1 0"
         in="fbSourceGraphic"
         result="fbSourceGraphic" />
      <feColorMatrix
         result="fbSourceGraphicAlpha"
         in="fbSourceGraphic"
         values="0 0 0 -1 0 0 0 0 -1 0 0 0 0 -1 0 0 0 0 1 0"
         id="feColorMatrix2421" />
      <feColorMatrix
         id="feColorMatrix2423"
         values="11 0 0 -4.7814 -5 0 11 0 -4.7814 -5 0 0 11 -4.7814 -5 0 0 0 1 0"
         in="fbSourceGraphic"
         result="fbSourceGraphic" />
      <feColorMatrix
         result="fbSourceGraphicAlpha"
         in="fbSourceGraphic"
         values="0 0 0 -1 0 0 0 0 -1 0 0 0 0 -1 0 0 0 0 1 0"
         id="feColorMatrix2425" />
      <feColorMatrix
         id="feColorMatrix2427"
         values="11 0 0 -4.7814 -5 0 11 0 -4.7814 -5 0 0 11 -4.7814 -5 0 0 0 1 0"
         in="fbSourceGraphic"
         result="fbSourceGraphic" />
      <feColorMatrix
         result="fbSourceGraphicAlpha"
         in="fbSourceGraphic"
         values="0 0 0 -1 0 0 0 0 -1 0 0 0 0 -1 0 0 0 0 1 0"
         id="feColorMatrix2429" />
      <feColorMatrix
         id="feColorMatrix2431"
         values="11 0 0 -4.7814 -5 0 11 0 -4.7814 -5 0 0 11 -4.7814 -5 0 0 0 1 0"
         in="fbSourceGraphic"
         result="fbSourceGraphic" />
      <feColorMatrix
         result="fbSourceGraphicAlpha"
         in="fbSourceGraphic"
         values="0 0 0 -1 0 0 0 0 -1 0 0 0 0 -1 0 0 0 0 1 0"
         id="feColorMatrix2433" />
      <feColorMatrix
         id="feColorMatrix2435"
         values="11 0 0 -4.7814 -5 0 11 0 -4.7814 -5 0 0 11 -4.7814 -5 0 0 0 1 0"
         in="fbSourceGraphic" />
    </filter>
    <filter
       style="color-interpolation-filters:sRGB"
       inkscape:label="Lightness-Contrast"
       id="filter3035">
      <feColorMatrix
         values="11 0 0 -4.5625 -5 0 11 0 -4.5625 -5 0 0 11 -4.5625 -5 0 0 0 1 0"
         id="feColorMatrix3033"
         result="fbSourceGraphic" />
      <feColorMatrix
         result="fbSourceGraphicAlpha"
         in="fbSourceGraphic"
         values="0 0 0 -1 0 0 0 0 -1 0 0 0 0 -1 0 0 0 0 1 0"
         id="feColorMatrix3037" />
      <feColorMatrix
         id="feColorMatrix3039"
         values="11 0 0 -4.5624 -5 0 11 0 -4.5624 -5 0 0 11 -4.5624 -5 0 0 0 1 0"
         in="fbSourceGraphic" />
    </filter>
  </defs>
  <sodipodi:namedview
     id="base"
     pagecolor="#ffffff"
     bordercolor="#666666"
     borderopacity="1.0"
     inkscape:pageopacity="0.0"
     inkscape:pageshadow="2"
     inkscape:zoom="1.979899"
     inkscape:cx="166.75296"
     inkscape:cy="44.025308"
     inkscape:document-units="mm"
     inkscape:current-layer="layer1"
     showgrid="false"
     inkscape:window-width="1366"
     inkscape:window-height="745"
     inkscape:window-x="-8"
     inkscape:window-y="-8"
     inkscape:window-maximized="1" />
  <metadata
     id="metadata849">
    <rdf:RDF>
      <cc:Work
         rdf:about="">
        <dc:format>image/svg+xml</dc:format>
        <dc:type
           rdf:resource="http://purl.org/dc/dcmitype/StillImage" />
        <dc:title></dc:title>
      </cc:Work>
    </rdf:RDF>
  </metadata>
  <g
     inkscape:label="Camada 1"
     inkscape:groupmode="layer"
     id="layer1"
     transform="translate(-45.625004,-6.0869897)">
    <path
       style="fill:#d5d5d5;fill-opacity:1;stroke-width:1"
       d="m 70.479659,34.276374 c -0.04979,-0.01931 -0.09053,-0.07402 -0.09053,-0.121576 0,-0.126821 0.379969,-0.521379 0.622753,-0.646664 0.282836,-0.145955 1.018224,-0.319262 1.767235,-0.416482 0.435525,-0.05653 0.801006,-0.163128 1.249411,-0.364412 0.348595,-0.15648 0.666354,-0.284509 0.706133,-0.284509 0.03978,0 0.07233,-0.06285 0.07233,-0.139667 0,-0.129668 0.612808,-0.659591 1.006266,-0.870164 0.243465,-0.130298 0.895344,-0.963363 1.217017,-1.555279 0.268511,-0.494091 0.470997,-1.022398 0.342677,-0.894078 -0.127753,0.127753 -0.454498,-0.897179 -0.33707,-1.057321 0.03324,-0.04532 0.05604,-0.18018 0.05067,-0.299679 -0.0054,-0.1195 0.01692,-0.291763 0.04952,-0.38281 0.04332,-0.120969 0.02967,-0.1769 -0.0507,-0.207742 -0.06791,-0.02606 -0.09387,-0.09297 -0.06786,-0.174915 0.05229,-0.164763 -0.09067,-0.719222 -0.185443,-0.719222 -0.0383,0 -0.06963,-0.124931 -0.06963,-0.277624 0,-0.152695 -0.02403,-0.301652 -0.05339,-0.331019 -0.09822,-0.09822 -0.397589,-1.017758 -0.414896,-1.274378 -0.0094,-0.139416 -0.04255,-0.312643 -0.07366,-0.384949 -0.03111,-0.07231 -0.03434,-0.376699 -0.0072,-0.676426 0.03174,-0.350219 0.024,-0.529273 -0.02165,-0.501062 -0.118759,0.0734 -0.15315,-0.06914 -0.07903,-0.327574 0.06895,-0.240431 -0.03447,-0.781352 -0.130944,-0.684875 -0.02314,0.02314 -0.135505,-0.04743 -0.249693,-0.15683 -0.162356,-0.155546 -0.220792,-0.177586 -0.268063,-0.101101 -0.04886,0.07905 -0.08756,0.07187 -0.201852,-0.03748 -0.198548,-0.189963 -0.395601,-0.296524 -0.873129,-0.472168 -0.228156,-0.08392 -0.467149,-0.198044 -0.531097,-0.253611 -0.06395,-0.05557 -0.170282,-0.0803 -0.2363,-0.05497 -0.06602,0.02533 -0.160355,0.01359 -0.209639,-0.0261 -0.151009,-0.121614 -0.56036,-0.184582 -0.56036,-0.0862 0,0.05695 -0.05582,0.06882 -0.162954,0.03465 -0.4468,-0.142515 -0.849985,-0.0641 -0.721168,0.140262 0.04677,0.0742 0.07627,0.326744 0.09769,0.836333 0.0107,0.254497 -0.213481,0.869086 -0.317012,0.869086 -0.03044,0 -0.05534,0.06326 -0.05534,0.140574 0,0.07731 -0.0338,0.161465 -0.07512,0.186999 -0.04131,0.02553 -0.151276,0.204294 -0.244359,0.397245 -0.120603,0.249997 -0.146887,0.373175 -0.09146,0.428604 0.05543,0.05543 0.05429,0.07778 -0.004,0.07778 -0.148351,0 -0.309354,0.224235 -0.309354,0.430848 0,0.111777 -0.04889,0.243803 -0.108636,0.293391 -0.05975,0.04959 -0.108636,0.144833 -0.108636,0.211655 0,0.06682 -0.03562,0.15712 -0.07917,0.200661 -0.152624,0.152624 0.146407,1.233126 0.423179,1.529091 0.267317,0.285855 -0.17251,0.345193 -0.60349,0.08142 -0.206101,-0.126141 -0.298487,-0.306776 -0.4234,-0.827832 -0.0191,-0.07967 -0.01649,0.148469 0.0058,0.506967 0.02229,0.358499 0.07119,0.709523 0.108666,0.780054 0.07157,0.134691 0.02773,0.270092 -0.08747,0.270092 -0.03737,0 -0.203742,-0.122216 -0.369723,-0.271589 l -0.301781,-0.271589 0.04354,0.271589 c 0.05289,0.32995 -0.07773,0.365068 -0.34898,0.09382 -0.140817,-0.140816 -0.179515,-0.257488 -0.18617,-0.561285 -0.0046,-0.210935 -0.02461,-0.319695 -0.04443,-0.241688 -0.01981,0.07801 -0.0827,0.213065 -0.139752,0.300132 -0.06156,0.09396 -0.08528,0.231804 -0.05834,0.339132 0.0592,0.235883 -0.05602,0.300786 -0.251949,0.141923 -0.189242,-0.153439 -0.291214,-0.871071 -0.159925,-1.125481 0.11728,-0.22725 0.300681,-0.774555 0.300681,-0.897273 0,-0.05709 -0.03312,-0.08333 -0.07361,-0.05832 -0.04048,0.02502 -0.05606,0.07389 -0.03461,0.108593 0.02145,0.03471 -0.02231,0.122079 -0.09725,0.194162 -0.07494,0.07208 -0.158287,0.222799 -0.185226,0.334926 -0.07354,0.306115 -0.346427,0.243888 -0.417615,-0.09523 -0.08897,-0.423836 0.04565,-0.751019 0.447439,-1.087412 0.198473,-0.166171 0.360361,-0.339833 0.359751,-0.385915 -6.52e-4,-0.04691 -0.03201,-0.03597 -0.07131,0.02485 -0.05987,0.09264 -0.07037,0.08982 -0.07132,-0.01922 -5.8e-4,-0.07032 0.110877,-0.298457 0.247749,-0.506967 0.136872,-0.208512 0.270862,-0.501327 0.297755,-0.650701 0.02689,-0.149375 0.07684,-0.27159 0.110989,-0.27159 0.03415,0 0.04598,-0.04199 0.02629,-0.0933 -0.01969,-0.05131 0.06035,-0.18542 0.177869,-0.298011 0.117519,-0.11259 0.198352,-0.244633 0.179628,-0.293428 -0.01872,-0.04879 0.012,-0.126933 0.06828,-0.173641 0.135606,-0.112543 0.08603,-0.525958 -0.0778,-0.648778 -0.06962,-0.05219 -0.312687,-0.194556 -0.540156,-0.31637 -0.227471,-0.121812 -0.40672,-0.246472 -0.398332,-0.277021 0.02517,-0.09167 -0.407309,-0.637479 -0.578946,-0.730668 -0.08781,-0.04767 -0.273081,-0.257517 -0.411716,-0.466316 -0.223215,-0.336186 -0.300262,-0.394376 -0.673222,-0.50845 -0.543776,-0.166321 -0.97995,-0.383172 -0.93077,-0.462748 0.02128,-0.03443 -0.06508,-0.09877 -0.191905,-0.142976 -0.126824,-0.04421 -0.294501,-0.13701 -0.372615,-0.20622 -0.1055,-0.09348 -0.150258,-0.10229 -0.174036,-0.03428 -0.02184,0.06248 -0.119754,0.02207 -0.308217,-0.127196 -0.151914,-0.120318 -0.3222,-0.201111 -0.378415,-0.179539 -0.05622,0.02157 -0.162935,-0.02788 -0.237155,-0.109893 -0.09791,-0.108194 -0.149812,-0.125058 -0.18912,-0.06146 -0.03775,0.06108 -0.121713,0.01536 -0.276923,-0.150795 -0.12251,-0.131148 -0.222746,-0.19938 -0.222746,-0.151625 0,0.127961 -0.708569,-0.487433 -0.764637,-0.664088 -0.03802,-0.11979 -0.06143,-0.130215 -0.113839,-0.0507 -0.06707,0.101757 -0.09962,0.07335 -0.462377,-0.403492 -0.103343,-0.135842 -0.107625,-0.13606 -0.107625,-0.0055 0,0.122867 -0.01814,0.119047 -0.187918,-0.03959 -0.103354,-0.09657 -0.335826,-0.395566 -0.516604,-0.664439 -0.180777,-0.268874 -0.354412,-0.488862 -0.385856,-0.488862 -0.03144,0 -0.09355,-0.110235 -0.138018,-0.244968 -0.05203,-0.157663 -0.124358,-0.241551 -0.202933,-0.235378 -0.07856,0.0062 -0.153565,-0.08079 -0.210377,-0.243893 -0.06953,-0.199614 -0.08916,-0.217945 -0.09238,-0.08625 -0.0024,0.09663 -0.03589,0.147574 -0.07941,0.120673 -0.04932,-0.03048 -0.05818,0.02177 -0.02565,0.151376 0.03267,0.130175 0.02376,0.181913 -0.02603,0.15114 -0.04164,-0.02573 -0.114825,-0.209846 -0.162633,-0.409134 -0.04781,-0.199288 -0.117961,-0.362343 -0.155893,-0.362343 -0.03793,0 -0.103051,-0.09777 -0.144708,-0.217271 -0.04166,-0.1195 -0.106808,-0.217272 -0.144777,-0.217272 -0.03797,0 -0.113986,-0.107585 -0.168927,-0.239077 -0.127222,-0.304486 -1.10222,-1.273287 -1.341194,-1.332669 -0.09958,-0.02475 -0.222391,-0.103114 -0.272908,-0.174153 -0.05052,-0.07104 -0.371454,-0.214446 -0.713195,-0.318684 -0.574204,-0.175142 -0.660324,-0.183475 -1.135056,-0.109818 -0.344223,0.05341 -0.686367,0.171747 -1.037031,0.358683 -0.834964,0.445112 -1.632235,0.666882 -2.744356,0.763378 -0.758798,0.06584 -0.887864,0.08638 -1.557309,0.247856 -0.338474,0.08164 -0.971693,0.217937 -1.407153,0.302875 -0.43546,0.08494 -1.027522,0.248843 -1.315695,0.364233 -0.288172,0.11539 -0.638614,0.2098 -0.77876,0.2098 -0.356229,0 -0.626761,-0.116925 -0.624236,-0.269797 0.0027,-0.164335 0.413246,-0.619689 0.506647,-0.561964 0.03884,0.02401 0.07062,0.0053 0.07062,-0.0415 0,-0.04947 0.06065,-0.06928 0.144775,-0.04729 0.07963,0.02082 0.163846,0.007 0.187155,-0.03071 0.02331,-0.03771 0.104818,-0.04875 0.181132,-0.02453 0.07756,0.02462 0.138753,0.0099 0.138753,-0.03327 0,-0.04252 0.0454,-0.0773 0.100887,-0.0773 0.05549,0 0.119436,-0.04834 0.142106,-0.107414 0.02345,-0.06112 0.08922,-0.089 0.152596,-0.06468 0.06257,0.02401 0.111378,0.0042 0.111378,-0.04528 0,-0.05773 0.06232,-0.07238 0.181059,-0.04258 0.10441,0.02621 0.18106,0.0142 0.18106,-0.02836 0,-0.04059 0.0617,-0.0738 0.137099,-0.0738 0.0754,0 0.154888,-0.04636 0.17663,-0.103014 0.02419,-0.06305 0.09745,-0.08787 0.188808,-0.06398 0.108116,0.02827 0.149278,0.0046 0.149278,-0.08579 0,-0.07871 0.03841,-0.110093 0.103957,-0.08494 0.05718,0.02194 0.11688,0.0011 0.132675,-0.04626 0.01579,-0.04739 0.07493,-0.08976 0.131421,-0.09416 0.224804,-0.01753 0.42861,-0.12366 0.42861,-0.223206 0,-0.06991 0.0456,-0.0906 0.136271,-0.06182 0.086,0.0273 0.151954,0.0024 0.178787,-0.06754 0.02338,-0.06094 0.126038,-0.110794 0.228121,-0.110794 0.102083,0 0.204365,-0.04889 0.227293,-0.108636 0.02293,-0.05975 0.103106,-0.108636 0.178173,-0.108636 0.07507,0 0.177192,-0.06518 0.226944,-0.144848 0.04975,-0.07967 0.143872,-0.144848 0.209153,-0.144848 0.06528,0 0.249427,-0.126872 0.409213,-0.281939 0.243233,-0.2360502 0.294942,-0.3375622 0.317699,-0.6236845 l 0.02718,-0.3417455 -0.363284,0.052611 c -0.199806,0.028936 -0.444761,0.051745 -0.544344,0.050688 -0.09958,-0.00106 -0.221798,0.031781 -0.27159,0.072974 -0.04979,0.041194 -0.09053,0.050621 -0.09053,0.02095 0,-0.029671 -0.04074,-0.022975 -0.09053,0.014881 -0.04979,0.037856 -0.457176,0.064449 -0.905299,0.059096 -0.45054,-0.00538 -0.814769,0.019841 -0.814769,0.056423 0,0.036386 -0.04491,0.048921 -0.09981,0.027855 -0.0549,-0.021066 -0.13773,-3.838e-4 -0.184076,0.045964 C 48.8209,9.499149 48.78601,9.495569 48.739395,9.42014 48.705675,9.365578 48.640425,9.344213 48.59439,9.372663 48.54836,9.401112 48.465869,9.387185 48.411079,9.341714 48.333999,9.277746 48.293764,9.288625 48.233245,9.389797 48.161285,9.5100969 48.147625,9.5110732 48.06245,9.402004 47.97184,9.2859681 47.792353,9.2797057 47.449669,9.380623 47.337322,9.413708 47.274239,9.393546 47.244063,9.314908 47.208423,9.222036 47.175033,9.217263 47.059913,9.288585 46.953813,9.354321 46.906457,9.355104 46.866991,9.291775 46.838221,9.245612 46.689874,9.213712 46.537327,9.220887 46.384779,9.228067 46.244105,9.208266 46.224718,9.176897 46.205328,9.145528 46.160088,9.138021 46.124176,9.160215 46.088266,9.182409 45.960154,9.149513 45.839485,9.087113 45.548193,8.9364801 45.553695,8.7067613 45.855465,8.4200006 46.357127,7.9432873 47.262768,7.63681 49.02401,7.3477354 c 1.157447,-0.1899732 1.830316,-0.3376126 2.202141,-0.483189 0.195434,-0.076516 0.402159,-0.1211509 0.459389,-0.099189 0.05723,0.02196 0.321011,0.0045 0.586178,-0.03874 0.265167,-0.04327 0.576558,-0.09136 0.691982,-0.106862 0.225179,-0.03025 0.685429,-0.167947 0.804074,-0.240561 0.03983,-0.02438 0.202787,-0.08058 0.36212,-0.124895 0.159332,-0.04431 0.352075,-0.107103 0.428317,-0.139532 0.108744,-0.04625 0.125261,-0.0368 0.07663,0.04388 -0.05292,0.08778 -0.04405,0.08828 0.06054,0.0034 0.08879,-0.07202 0.14838,-0.07795 0.216366,-0.02153 0.05161,0.04283 0.263697,0.09452 0.471316,0.114863 0.381222,0.03736 0.931027,0.164491 1.06435,0.24611 0.03981,0.02437 0.161288,0.03499 0.269952,0.02359 0.263947,-0.02769 0.420782,0.06827 0.232252,0.1421 -0.105061,0.04114 -0.07442,0.05611 0.122681,0.05993 0.144497,0.0028 0.303293,0.05398 0.352881,0.1137259 0.04959,0.05975 0.130004,0.1086358 0.178703,0.1086358 0.0487,0 0.149821,0.067711 0.224715,0.1504683 0.130157,0.1438218 0.534535,0.3553315 0.882106,0.4613857 0.08962,0.027347 0.162954,0.092246 0.162954,0.1442209 0,0.054429 0.124284,0.1143729 0.293104,0.1413682 0.163689,0.026175 0.273723,0.078228 0.24921,0.1178922 -0.02414,0.039063 0.0069,0.071023 0.06902,0.071023 0.0621,0 0.11291,0.046297 0.11291,0.1028814 0,0.056585 0.09777,0.1243557 0.217272,0.1506022 0.207317,0.045535 0.308109,0.1810597 0.134655,0.1810597 -0.04544,0 0.06048,0.1137513 0.235378,0.2527807 0.174896,0.1390293 0.362218,0.253097 0.416272,0.2534836 0.05857,4.2e-4 0.08101,0.0457 0.05554,0.1120803 -0.02588,0.067431 0.0068,0.129798 0.08278,0.1580629 0.258833,0.096269 0.52142,0.334252 0.455907,0.4131899 -0.08589,0.1034886 0.0392,0.2614823 0.363931,0.4596669 0.236965,0.144621 0.25878,0.185688 0.248471,0.467739 -0.01331,0.364153 0.04875,0.463823 0.373182,0.599382 0.225312,0.09414 0.33125,0.252995 0.16872,0.252995 -0.143469,0 -0.06851,0.149921 0.108635,0.217271 0.09958,0.03786 0.18106,0.119555 0.18106,0.18154 0,0.06199 0.0537,0.133309 0.119334,0.158495 0.06563,0.02519 0.207673,0.13823 0.315642,0.25121 0.10797,0.11298 0.233519,0.205418 0.278998,0.205418 0.04548,0 0.08269,0.03259 0.08269,0.07242 0,0.03983 -0.03259,0.07242 -0.07242,0.07242 -0.03983,0 -0.07242,0.04689 -0.07242,0.104198 0,0.06797 0.113309,0.12119 0.325908,0.153071 0.295159,0.04426 0.457302,0.169886 0.235377,0.182365 -0.162279,0.0091 0.193584,0.129433 0.398332,0.134666 0.211686,0.0054 0.284987,0.149939 0.07605,0.149939 -0.09008,0 -0.101587,0.02153 -0.04287,0.08025 0.04424,0.04424 0.229457,0.06838 0.412817,0.0538 0.363245,-0.02889 0.452222,0.05408 0.133404,0.124396 -0.325356,0.07176 -0.362814,0.107217 -0.07768,0.07353 0.378887,-0.04476 0.547674,0.01755 0.598741,0.221013 0.02446,0.09745 0.07535,0.158092 0.113099,0.134764 0.03775,-0.02333 0.191597,-0.01163 0.34189,0.02599 0.150294,0.03762 0.362885,0.08859 0.472426,0.113257 0.289986,0.06531 0.243979,0.160297 -0.108636,0.224294 -0.190734,0.03462 -0.256296,0.06834 -0.172379,0.08866 0.07448,0.01804 0.284335,-0.0089 0.46634,-0.05985 0.235304,-0.06588 0.338572,-0.06969 0.35741,-0.01318 0.0176,0.05279 0.0986,0.05879 0.241265,0.01788 0.147306,-0.04225 0.240945,-0.03358 0.298083,0.02759 0.08165,0.08741 0.393116,0.04868 1.101436,-0.136966 0.144252,-0.03781 0.194781,-0.03046 0.161444,0.02348 -0.06674,0.107983 0.483872,0.05181 0.887279,-0.09052 0.172615,-0.0609 0.340728,-0.09412 0.373584,-0.07381 0.03286,0.02031 0.17797,-0.01946 0.322476,-0.08837 0.215624,-0.102824 0.273505,-0.107869 0.322784,-0.02813 0.03799,0.06147 0.09627,0.07424 0.158674,0.03475 0.05425,-0.03432 0.310467,-0.08776 0.569382,-0.118737 0.258916,-0.03098 0.535937,-0.06772 0.615603,-0.08164 0.07967,-0.01392 0.258916,-0.04573 0.398332,-0.07069 0.139416,-0.02496 0.497914,-0.06009 0.796663,-0.07807 0.298748,-0.01799 0.650554,-0.05535 0.781789,-0.08304 0.183398,-0.03869 0.233674,-0.02714 0.217272,0.04989 -0.01174,0.05513 0.01556,0.09336 0.06066,0.08497 0.0451,-0.0084 0.208053,-0.01526 0.362119,-0.01525 0.154065,7e-6 0.41863,-0.0016 0.58792,-0.0035 0.169291,-0.0019 0.307802,0.02505 0.307802,0.06 0,0.03495 0.361623,0.0597 0.803605,0.055 0.441983,-0.0047 0.816551,0.01243 0.832372,0.03805 0.01582,0.02562 0.322106,0.06981 0.68063,0.09818 0.358523,0.02838 0.635383,0.07826 0.615242,0.110845 -0.02014,0.03259 0.208199,0.04074 0.507423,0.01811 0.38413,-0.02905 0.544042,-0.01679 0.544042,0.04173 0,0.04616 -0.110397,0.08288 -0.24921,0.08288 -0.137065,0 -0.270459,0.03438 -0.29643,0.07641 -0.06347,0.102687 0.892123,0.0759 1.523247,-0.0427 0.406762,-0.07644 0.474361,-0.07484 0.441634,0.01045 -0.03025,0.07883 0.05917,0.10251 0.411734,0.109038 0.247707,0.0046 0.510973,0.0019 0.585035,-0.0059 0.07406,-0.0078 0.115782,0.01631 0.09271,0.05364 -0.05194,0.08404 0.949572,0.175659 1.254205,0.114732 0.121213,-0.02424 0.220388,-0.0147 0.220388,0.02121 0,0.03591 0.138511,0.06549 0.307802,0.06574 0.409902,5.79e-4 1.628247,0.15624 1.733839,0.2215 0.04607,0.02847 0.184034,0.06137 0.306586,0.0731 0.122552,0.01173 0.255412,0.02459 0.295245,0.02857 0.03983,0.004 0.259821,-0.01559 0.488861,-0.0435 0.29309,-0.03571 0.416438,-0.02629 0.416438,0.03182 0,0.04541 -0.08962,0.08536 -0.199166,0.08878 l -0.199166,0.0062 0.21605,0.06445 c 0.118828,0.03545 0.526212,0.07858 0.905299,0.09584 0.803682,0.0366 0.818902,0.03974 0.580613,0.119786 -0.114088,0.03832 -0.0069,0.0458 0.289695,0.02021 0.324079,-0.02796 0.44819,-0.01722 0.398332,0.03446 -0.03983,0.04129 -0.153901,0.09201 -0.253484,0.112707 -0.09958,0.02069 0.04708,0.02098 0.325907,6.51e-4 0.278832,-0.02034 0.580297,-0.05434 0.669921,-0.07556 0.09418,-0.02229 0.162954,-0.0047 0.162954,0.0417 0,0.04415 -0.05432,0.08028 -0.120707,0.08028 -0.06639,0 -0.104497,0.01621 -0.08469,0.03602 0.01981,0.01981 0.227944,5.07e-4 0.462517,-0.04282 0.257408,-0.04758 0.435388,-0.05217 0.448924,-0.01156 0.0133,0.03989 0.220572,0.02984 0.509171,-0.02469 0.29037,-0.05487 0.496482,-0.06474 0.510883,-0.02446 0.01328,0.03713 0.0743,0.06751 0.135611,0.06751 0.09557,0 0.09729,0.01743 0.01207,0.122196 -0.08837,0.108637 -0.08333,0.115989 0.04545,0.06626 0.07967,-0.03076 0.258915,-0.07216 0.398331,-0.09198 0.195961,-0.02787 0.228832,-0.01802 0.144848,0.0434 -0.08182,0.05984 -0.02992,0.06753 0.210257,0.03118 0.232116,-0.03514 0.304857,-0.02556 0.267315,0.03518 -0.06149,0.09949 0.09486,0.109441 0.332482,0.02117 0.09222,-0.03426 0.298032,-0.08388 0.457364,-0.110273 0.268922,-0.04454 0.279614,-0.04008 0.149112,0.06229 -0.116391,0.0913 -0.120546,0.110272 -0.02414,0.110272 0.06404,0 0.127306,0.02754 0.140584,0.06121 0.01328,0.03366 0.219685,0.02111 0.458684,-0.02791 0.4404,-0.09032 0.585875,-0.07679 0.401248,0.03732 -0.09476,0.05856 0.150069,0.05264 1.083442,-0.02623 0.179249,-0.01515 0.50223,-0.09809 0.717736,-0.184329 0.470858,-0.188415 0.852881,-0.17869 0.441046,0.01123 -0.378855,0.174709 -0.05131,0.16348 0.470755,-0.01614 0.491833,-0.169216 0.554104,-0.175986 0.375892,-0.04086 -0.222483,0.168683 -0.01942,0.1877 0.380722,0.03566 l 0.38079,-0.144691 0.12668,0.146056 c 0.0697,0.08033 0.14214,0.130583 0.16105,0.111671 0.0496,-0.04962 0.781573,-0.198344 1.037273,-0.210761 0.1195,-0.0058 0.235573,0.0151 0.257923,0.04645 0.0224,0.03135 0.19704,0.0037 0.38818,-0.06141 0.27488,-0.09366 0.35931,-0.09935 0.4039,-0.02719 0.0348,0.0563 0.0941,0.06771 0.15501,0.02979 0.10052,-0.06261 0.57887,-0.142754 1.29362,-0.21674 0.5114,-0.05294 0.70969,-0.05162 0.97837,0.0065 0.13596,0.02941 0.34026,9.05e-4 0.54318,-0.07579 0.17889,-0.06761 0.5208,-0.13143 0.7598,-0.141814 0.72355,-0.03144 1.26334,-0.101408 1.41709,-0.183691 0.0801,-0.04289 0.20147,-0.06977 0.26961,-0.05972 0.0681,0.01005 0.25426,-0.0099 0.41359,-0.04424 0.15934,-0.03438 0.33012,-0.05571 0.37953,-0.04739 0.0494,0.0083 0.25412,-0.03368 0.45493,-0.09331 0.2008,-0.05963 0.34585,-0.07728 0.32233,-0.03922 -0.06,0.09701 0.003,0.08694 0.31212,-0.05009 0.1481,-0.0656 0.38333,-0.125833 0.52275,-0.133841 0.13942,-0.008 0.49791,-0.08113 0.79666,-0.162496 0.29875,-0.08136 0.78761,-0.169519 1.08636,-0.195897 0.29875,-0.02638 0.72243,-0.09357 0.94151,-0.149322 0.40136,-0.102132 0.93856,-0.190973 1.33984,-0.221582 0.1195,-0.0091 0.48631,-0.04558 0.81513,-0.08104 0.32881,-0.03546 0.64567,-0.03771 0.70411,-0.005 0.0998,0.05582 0.34735,0.02858 1.59499,-0.175475 0.27883,-0.0456 0.80028,-0.07201 1.15878,-0.05868 0.77597,0.02885 1.16381,0.03866 2.31757,0.05861 0.62352,0.01078 0.83839,0.03617 0.76045,0.08985 -0.0815,0.05614 -0.0363,0.07015 0.18106,0.05611 0.45998,-0.02971 1.57101,0.08958 1.82845,0.196313 0.12933,0.05361 0.52042,0.119743 0.86909,0.146952 0.34868,0.02721 0.66687,0.0753 0.7071,0.10687 0.0402,0.03157 0.28465,0.08044 0.54318,0.108612 0.25852,0.02817 0.50263,0.0745 0.54246,0.102962 0.0398,0.02846 0.23538,0.09251 0.43454,0.142334 0.19917,0.04982 0.4436,0.117323 0.54318,0.150001 0.0996,0.03268 0.44179,0.114335 0.76045,0.18146 0.61028,0.128553 0.86799,0.205187 1.24215,0.369372 0.12553,0.05508 0.27841,0.100144 0.33974,0.100144 0.0613,0 0.13167,0.03259 0.15629,0.07242 0.0246,0.03983 0.10792,0.07242 0.18512,0.07242 0.17237,0 0.72017,0.48228 0.72017,0.634032 0,0.09268 -0.0774,0.102276 -0.48679,0.06034 -0.26774,-0.02743 -0.73216,-0.113365 -1.03204,-0.190965 -0.29989,-0.0776 -0.93634,-0.22409 -1.41433,-0.325535 -0.79621,-0.168976 -1.18341,-0.244867 -3.00559,-0.589091 -0.8648,-0.163366 -1.96241,-0.20608 -4.96104,-0.193058 -2.24521,0.0098 -2.74805,0.03255 -3.6212,0.16418 -0.55766,0.08407 -1.128,0.169448 -1.26741,0.189724 -0.13942,0.02028 -0.53051,0.09909 -0.86909,0.175143 -0.33858,0.07605 -1.0218,0.22476 -1.51826,0.33046 -0.49647,0.1057 -1.14828,0.267383 -1.44848,0.359295 -0.3002,0.09191 -0.88802,0.239428 -1.30627,0.32781 -0.41825,0.08838 -1.20043,0.288705 -1.73817,0.445159 -0.53775,0.156455 -1.434,0.378913 -1.99166,0.494351 -0.55766,0.115438 -1.4865,0.311212 -2.06408,0.435052 -1.47611,0.316495 -2.40543,0.490662 -3.078023,0.576858 -0.31866,0.04084 -0.791233,0.1081 -1.050143,0.149468 -0.25892,0.04137 -0.851584,0.121957 -1.317044,0.179086 -0.46546,0.05713 -1.052094,0.137751 -1.30363,0.17916 -0.806695,0.132802 -3.130346,0.437631 -3.333531,0.437311 -0.108079,-1.45e-4 -0.482873,0.06576 -0.832875,0.146515 -1.333044,0.307565 -1.878208,0.425064 -2.193479,0.472761 -0.179249,0.02712 -0.374794,0.05856 -0.434544,0.06987 -0.05975,0.01131 -0.320475,0.05963 -0.579391,0.107372 -0.258915,0.04775 -0.69474,0.132424 -0.9685,0.188173 -0.27376,0.05573 -0.574333,0.101345 -0.667941,0.101345 -0.206973,0 -0.865479,0.299891 -1.405362,0.640018 l -0.398331,0.250948 0.309156,0.131513 c 0.170035,0.07233 0.328327,0.181478 0.351762,0.242544 0.02343,0.06107 0.07171,0.111031 0.107281,0.111031 0.08695,0 0.375572,0.292635 0.331795,0.336413 -0.01905,0.01905 0.0428,0.118212 0.137455,0.220348 0.09466,0.102135 0.154352,0.214422 0.132657,0.249525 -0.02169,0.0351 0.01338,0.08409 0.07794,0.10887 0.06456,0.02477 0.102472,0.08392 0.08424,0.131428 -0.01823,0.04751 0.02467,0.122492 0.09535,0.166627 0.07067,0.04414 0.151029,0.170033 0.178572,0.279774 0.02754,0.109741 0.161424,0.314164 0.297512,0.454273 0.140233,0.144377 0.215691,0.274362 0.174169,0.300024 -0.0445,0.02751 -0.01556,0.118635 0.07374,0.232158 0.08085,0.102783 0.147,0.233721 0.147,0.290972 0,0.05725 0.06435,0.16233 0.142999,0.233506 0.07865,0.07118 0.161683,0.188281 0.184519,0.260232 0.02361,0.07439 0.125939,0.14056 0.237227,0.153402 0.112609,0.013 0.195706,0.06731 0.195706,0.127927 0,0.05794 0.06518,0.177664 0.144847,0.266056 0.07967,0.08839 0.234473,0.258896 0.344014,0.378898 0.109541,0.120003 0.199166,0.246241 0.199166,0.280531 0,0.03429 0.12911,0.188417 0.286912,0.342507 0.243825,0.238089 0.331908,0.417038 0.586525,1.191586 0.164786,0.501282 0.345288,0.983606 0.401114,1.071829 0.05583,0.08822 0.101502,0.207209 0.101502,0.264413 0,0.0572 0.13912,0.294634 0.309155,0.527622 0.528725,0.724473 0.640819,1.326281 0.416148,2.23421 -0.04928,0.199166 -0.134868,0.413572 -0.190184,0.476458 -0.05532,0.06289 -0.100743,0.176954 -0.100946,0.253484 -7.46e-4,0.279151 -0.330709,0.68126 -0.825945,1.006532 -0.274335,0.180184 -0.548426,0.327607 -0.609092,0.327607 -0.06067,0 -0.163488,0.04813 -0.228496,0.106965 -0.194555,0.17607 -0.460453,0.169304 -0.541951,-0.01379 -0.0499,-0.112115 -0.115524,-0.149548 -0.218275,-0.124514 -0.0808,0.01969 -0.554303,0.04294 -1.052217,0.05167 -0.874681,0.01534 -0.906044,0.01065 -0.927327,-0.13857 -0.01501,-0.105236 0.06129,-0.223123 0.239452,-0.369982 0.308694,-0.254451 0.687943,-0.380869 1.142599,-0.380869 0.485121,0 1.180293,-0.379323 1.46091,-0.797152 0.204473,-0.304454 0.216521,-0.36114 0.199845,-0.940305 -0.0286,-0.993201 -0.224801,-1.73363 -0.726517,-2.741713 -0.377816,-0.759135 -0.772429,-1.272066 -0.931637,-1.210972 -0.119233,0.04575 -0.60273,-0.183393 -0.742627,-0.351959 -0.052,-0.06266 -0.151017,-0.113929 -0.220029,-0.113929 -0.06901,0 -0.203532,-0.08962 -0.298934,-0.199165 -0.303461,-0.348437 -1.427588,-0.821689 -1.958107,-0.824354 -0.0654,-3.62e-4 -0.193292,-0.07978 -0.284215,-0.176565 -0.09092,-0.09678 -0.20896,-0.175969 -0.262307,-0.175969 -0.05335,0 -0.153585,-0.03081 -0.222753,-0.06847 -0.06917,-0.03766 -0.244699,-0.08741 -0.390071,-0.110552 -0.145372,-0.02315 -0.303871,-0.08975 -0.35222,-0.148007 -0.04835,-0.05826 -0.119301,-0.08652 -0.157672,-0.06281 -0.03837,0.02371 -0.133719,-0.02553 -0.211886,-0.109434 -0.07817,-0.0839 -0.185991,-0.15255 -0.239608,-0.15255 -0.05362,0 -0.151842,-0.08296 -0.218279,-0.184355 -0.152955,-0.233438 -1.125208,-1.191699 -1.2091,-1.191699 -0.03455,0 -0.06282,-0.07881 -0.06282,-0.175136 0,-0.291643 -0.06985,-0.412225 -0.179857,-0.310498 -0.06424,0.05941 -0.07292,0.127801 -0.02715,0.214045 0.03699,0.06971 0.04047,0.126742 0.0077,0.126742 -0.07183,0 -0.0029,0.793984 0.08043,0.926576 0.03239,0.05154 0.02627,0.133014 -0.0136,0.18106 -0.07228,0.08709 -0.08482,0.1274 -0.08482,0.272692 0,0.04218 -0.03096,0.05757 -0.06879,0.03418 -0.09361,-0.05785 -0.242411,0.23558 -0.189448,0.373597 0.02783,0.07251 0.0095,0.09835 -0.05271,0.07446 -0.06726,-0.02581 -0.09751,0.04046 -0.102739,0.225074 -0.0041,0.143909 -0.04303,0.273524 -0.08656,0.288034 -0.04353,0.01451 -0.07914,0.121437 -0.07914,0.237617 0,0.11618 -0.03259,0.211236 -0.07242,0.211236 -0.03983,0 -0.07242,0.06326 -0.07242,0.140574 0,0.07731 -0.02915,0.158588 -0.06477,0.180606 -0.0615,0.03801 -0.104186,0.254956 -0.191455,0.973011 -0.02115,0.174058 -0.106477,0.451079 -0.189608,0.615603 -0.08313,0.164524 -0.187927,0.372209 -0.23288,0.461523 -0.04495,0.08931 -0.103937,0.162643 -0.131075,0.162953 -0.02714,2.9e-4 -0.07218,0.262336 -0.100084,0.58228 -0.04343,0.497845 -0.0833,0.624039 -0.276567,0.875284 -0.124203,0.161463 -0.291005,0.381038 -0.370671,0.487944 -0.07967,0.106906 -0.340392,0.425385 -0.579391,0.707732 -0.686007,0.810429 -0.978694,1.24556 -1.318037,1.959493 -0.385246,0.810507 -0.349647,0.794759 -1.942718,0.85942 -0.638255,0.02591 -1.453024,0.05891 -1.810597,0.07333 -0.357574,0.01443 -0.992338,0.04055 -1.410586,0.05806 -0.418248,0.0175 -0.801189,0.01602 -0.85098,-0.0033 z M 129.7043,16.00251 c 0,-0.05311 0.0217,-0.07484 0.0483,-0.04828 0.0266,0.02656 0.0266,0.07001 0,0.09657 -0.0266,0.02656 -0.0483,0.0048 -0.0483,-0.04828 z"
       id="path3205"
       inkscape:connector-curvature="0" />
  </g>
</svg>
