<?xml version="1.0" encoding="UTF-8" standalone="no"?>
<!-- Created with Inkscape (http://www.inkscape.org/) -->

<svg
   xmlns:dc="http://purl.org/dc/elements/1.1/"
   xmlns:cc="http://creativecommons.org/ns#"
   xmlns:rdf="http://www.w3.org/1999/02/22-rdf-syntax-ns#"
   xmlns:svg="http://www.w3.org/2000/svg"
   xmlns="http://www.w3.org/2000/svg"
   xmlns:sodipodi="http://sodipodi.sourceforge.net/DTD/sodipodi-0.dtd"
   xmlns:inkscape="http://www.inkscape.org/namespaces/inkscape"
   width="95.114761mm"
   height="40.451893mm"
   viewBox="0 0 95.11475 40.451893"
   version="1.1"
   id="svg8"
   inkscape:version="0.92.4 (5da689c313, 2019-01-14)"
   sodipodi:docname="compsognathus.svg">
  <defs
     id="defs2" />
  <sodipodi:namedview
     id="base"
     pagecolor="#ffffff"
     bordercolor="#666666"
     borderopacity="1.0"
     inkscape:pageopacity="0.0"
     inkscape:pageshadow="2"
     inkscape:zoom="1.4"
     inkscape:cx="184.28044"
     inkscape:cy="56.340532"
     inkscape:document-units="mm"
     inkscape:current-layer="layer1"
     showgrid="false"
     inkscape:window-width="1366"
     inkscape:window-height="745"
     inkscape:window-x="-8"
     inkscape:window-y="-8"
     inkscape:window-maximized="1" />
  <metadata
     id="metadata5">
    <rdf:RDF>
      <cc:Work
         rdf:about="">
        <dc:format>image/svg+xml</dc:format>
        <dc:type
           rdf:resource="http://purl.org/dc/dcmitype/StillImage" />
        <dc:title></dc:title>
      </cc:Work>
    </rdf:RDF>
  </metadata>
  <g
     inkscape:label="Camada 1"
     inkscape:groupmode="layer"
     id="layer1"
     transform="translate(-48.302713,-60.347423)">
    <path
       style="fill:#d5d5d5;fill-opacity:1;stroke-width:1"
       d="m 78.496344,100.28211 c -0.0217,-0.759085 -0.08187,-0.793889 -1.112552,-0.643519 -0.599287,0.08744 -1.481873,0.04598 -1.961302,-0.09212 l -0.87169,-0.251088 0.87169,-0.49619 c 0.75932,-0.432224 0.77834,-0.470689 0.14756,-0.298379 -0.63041,0.172208 -0.675715,0.13947 -0.350037,-0.252947 0.215337,-0.259461 1.107511,-0.535877 2.102287,-0.651332 2.150335,-0.249575 2.853254,-0.98026 3.60122,-3.743462 l 0.525533,-1.941478 -0.688775,-1.307114 C 80.381453,89.88557 78.908959,88.157639 77.48807,86.76464 c -1.420887,-1.393001 -2.816051,-3.046542 -3.100361,-3.674539 -0.284314,-0.627996 -0.720043,-1.171622 -0.968291,-1.208058 -0.248251,-0.03644 -0.959798,-0.152145 -1.581219,-0.257134 -1.066227,-0.180138 -1.139173,-0.144831 -1.295266,0.626932 -0.09098,0.449799 -0.435893,1.106546 -0.766483,1.459436 -0.716628,0.764967 -0.736234,1.014529 -0.166293,2.116673 0.239128,0.462425 0.31968,0.911908 0.179003,0.99885 -0.140678,0.08694 -0.419304,-0.236713 -0.619172,-0.719236 -0.199868,-0.482523 -0.412888,-0.827821 -0.47338,-0.767328 -0.06049,0.06049 0.0925,0.620387 0.33998,1.244212 l 0.449968,1.134225 -0.714713,-0.789673 -0.714714,-0.789671 0.06267,1.734002 c 0.03447,0.953702 -0.03067,1.734004 -0.14475,1.734004 -0.284465,0 -0.965506,-2.066455 -0.877306,-2.661971 0.03933,-0.265509 -0.06298,-0.565858 -0.227348,-0.667442 -0.177132,-0.109479 -0.376609,0.3016 -0.489777,1.009317 -0.105009,0.656705 -0.299266,1.085675 -0.431676,0.953265 -0.306564,-0.306562 -0.434091,-1.894261 -0.18458,-2.29798 0.104252,-0.168685 0.256942,-0.689221 0.339309,-1.156744 0.08236,-0.467525 0.396069,-1.596672 0.69712,-2.509217 0.301051,-0.912545 0.435476,-1.590021 0.298723,-1.505503 -0.136754,0.08452 -0.248643,0.0152 -0.248643,-0.154041 0,-0.169242 -0.314512,-0.307713 -0.698917,-0.307713 -0.384405,0 -1.236343,-0.449005 -1.893196,-0.997791 -1.004576,-0.839299 -3.863181,-2.198405 -4.623902,-2.198405 -0.121382,0 -0.692546,-0.490326 -1.269254,-1.089613 -0.953383,-0.990709 -1.761788,-2.736776 -2.080287,-4.49319 -0.06697,-0.369318 -0.332186,-1.38006 -0.589371,-2.246094 -0.257184,-0.866034 -0.467608,-1.870344 -0.467608,-2.231801 0,-1.398703 -1.938062,-1.791616 -4.897392,-0.992873 -2.42952,0.655744 -2.724853,-0.190151 -0.623312,-1.785291 0.719144,-0.545855 1.307535,-1.180151 1.307535,-1.409547 0,-0.229395 0.261508,-0.464615 0.581127,-0.52271 0.31962,-0.05809 0.842634,-0.327315 1.162254,-0.598268 0.959426,-0.813338 4.503731,-1.785555 4.503731,-1.235393 0,0.161739 0.246539,0.372318 0.547863,0.467956 0.301324,0.09563 0.877471,0.660149 1.280327,1.254473 0.594045,0.876386 0.820993,1.787373 1.20094,4.820677 0.551082,4.399545 1.044798,5.41266 2.637727,5.41266 0.538049,0 1.311778,-0.126799 1.719399,-0.281776 0.407621,-0.154978 1.560226,-0.36585 2.561345,-0.468605 1.001119,-0.102758 2.735491,-0.288607 3.854161,-0.413004 2.848971,-0.316808 8.989193,-0.0918 10.896126,0.399286 0.878954,0.226354 2.644127,0.719695 3.922606,1.096312 2.118351,0.624029 2.839893,0.68255 8.135774,0.659849 6.526853,-0.02798 7.497553,-0.195543 14.818753,-2.558088 4.2142,-1.359923 7.17426,-2.050504 10.16972,-2.372601 0.95885,-0.103109 2.33177,-0.295709 3.05091,-0.428009 1.90441,-0.350353 6.89249,-0.263087 9.35004,0.163579 1.16997,0.203121 2.84636,0.449992 3.72531,0.548598 3.96144,0.444425 4.52789,0.542915 4.9116,0.854001 0.22432,0.181868 0.45313,0.297981 0.50848,0.258028 0.0554,-0.03995 0.32944,-0.07064 0.60912,-0.06819 0.43379,0.0038 0.44446,0.0452 0.0726,0.281868 -0.34218,0.217797 -0.2329,0.318316 0.50848,0.467716 0.51938,0.104669 0.96068,0.304707 0.98065,0.444541 0.0409,0.28613 0.14668,0.727741 0.25234,1.053292 0.0389,0.119857 0.0483,0.336694 0.021,0.481859 -0.0273,0.145164 0.12061,0.371981 0.3288,0.504036 0.90884,0.576454 -5.24447,0.274158 -6.74025,-0.331131 -2.24887,-0.910034 -4.02005,-1.115207 -8.65199,-1.002248 -5.13872,0.125318 -6.35237,0.239444 -9.65351,0.907779 -1.19857,0.242657 -2.50612,0.487092 -2.90564,0.543189 -0.39952,0.0561 -1.44555,0.248076 -2.3245,0.42662 -0.87896,0.178543 -1.9222,0.389272 -2.31833,0.468285 -0.39611,0.07901 -0.80299,0.277602 -0.90417,0.441308 -0.10114,0.163707 -0.30009,0.304178 -0.44203,0.312158 -0.62563,0.03517 -1.56561,0.645537 -1.56561,1.016616 0,0.223494 -0.13075,0.325543 -0.29057,0.226775 -0.15981,-0.09877 -0.29056,-0.06784 -0.29056,0.06875 0,0.136579 -0.49032,0.280772 -1.08961,0.320428 -0.59929,0.03966 -1.1332,0.197136 -1.18647,0.349951 -0.0533,0.152816 -0.33691,0.277847 -0.6303,0.277847 -0.5518,0 -3.34127,0.632431 -5.37469,1.218555 -2.062166,0.594412 -3.33551,0.783402 -6.450474,0.957383 -2.175472,0.121507 -3.053272,0.289129 -5.026779,0.959896 -0.239714,0.08147 -0.566599,0.182446 -0.726408,0.224379 -0.951442,0.249651 -4.167458,1.068069 -4.702135,1.196608 -0.917375,0.220542 -0.976519,0.664963 -0.324283,2.436716 0.319518,0.867946 0.682298,2.075328 0.806174,2.683072 0.123878,0.607745 0.519573,1.418301 0.879323,1.801237 0.366551,0.390177 0.579642,0.890251 0.484738,1.13757 -0.09315,0.242728 -0.04431,0.518606 0.108524,0.61306 0.405903,0.250861 0.336162,1.616962 -0.127955,2.506498 -0.722905,1.385528 -1.140999,2.97989 -1.166868,4.449743 -0.02473,1.405118 -0.05351,1.451334 -1.085858,1.74338 -0.583255,0.165002 -1.312694,0.52882 -1.620978,0.808487 -0.308288,0.279671 -0.702771,0.508491 -0.876633,0.508491 -0.173862,0 -0.382062,0.16344 -0.462667,0.3632 -0.08061,0.19976 -0.156878,0.002 -0.169495,-0.43928 z"
       id="path937"
       inkscape:connector-curvature="0" />
  </g>
</svg>
