<?xml version="1.0" encoding="UTF-8" standalone="no"?>
<!-- Created with Inkscape (http://www.inkscape.org/) -->

<svg
   xmlns:dc="http://purl.org/dc/elements/1.1/"
   xmlns:cc="http://creativecommons.org/ns#"
   xmlns:rdf="http://www.w3.org/1999/02/22-rdf-syntax-ns#"
   xmlns:svg="http://www.w3.org/2000/svg"
   xmlns="http://www.w3.org/2000/svg"
   xmlns:sodipodi="http://sodipodi.sourceforge.net/DTD/sodipodi-0.dtd"
   xmlns:inkscape="http://www.inkscape.org/namespaces/inkscape"
   width="103.27887mm"
   height="45.602966mm"
   viewBox="0 0 103.27887 45.602967"
   version="1.1"
   id="svg852"
   inkscape:version="0.92.4 (5da689c313, 2019-01-14)"
   sodipodi:docname="dicraeosaurus.svg">
  <defs
     id="defs846">
    <filter
       style="color-interpolation-filters:sRGB"
       inkscape:label="Brilliance"
       id="filter1987">
      <feColorMatrix
         values="1 -0 -0 0 -10 -0 1 -0 0 -10 -0 -0 1 0 -10 0 0 0 1 0 "
         id="feColorMatrix1985" />
    </filter>
    <filter
       style="color-interpolation-filters:sRGB"
       inkscape:label="Lightness-Contrast"
       id="filter2289">
      <feColorMatrix
         values="11 0 0 -4.59375 -5 0 11 0 -4.59375 -5 0 0 11 -4.59375 -5 0 0 0 1 0"
         id="feColorMatrix2287"
         result="fbSourceGraphic" />
      <feColorMatrix
         result="fbSourceGraphicAlpha"
         in="fbSourceGraphic"
         values="0 0 0 -1 0 0 0 0 -1 0 0 0 0 -1 0 0 0 0 1 0"
         id="feColorMatrix2291" />
      <feColorMatrix
         id="feColorMatrix2293"
         values="11 0 0 -4.5936 -5 0 11 0 -4.5936 -5 0 0 11 -4.5936 -5 0 0 0 1 0"
         in="fbSourceGraphic" />
    </filter>
    <filter
       style="color-interpolation-filters:sRGB"
       inkscape:label="Lightness-Contrast"
       id="filter2308">
      <feColorMatrix
         values="11 0 0 -4.5936 -5 0 11 0 -4.5936 -5 0 0 11 -4.5936 -5 0 0 0 1 0"
         id="feColorMatrix2306"
         result="fbSourceGraphic" />
      <feColorMatrix
         result="fbSourceGraphicAlpha"
         in="fbSourceGraphic"
         values="0 0 0 -1 0 0 0 0 -1 0 0 0 0 -1 0 0 0 0 1 0"
         id="feColorMatrix2310" />
      <feColorMatrix
         id="feColorMatrix2312"
         values="11 0 0 -4.5936 -5 0 11 0 -4.5936 -5 0 0 11 -4.5936 -5 0 0 0 1 0"
         in="fbSourceGraphic" />
    </filter>
  </defs>
  <sodipodi:namedview
     id="base"
     pagecolor="#ffffff"
     bordercolor="#666666"
     borderopacity="1.0"
     inkscape:pageopacity="0.0"
     inkscape:pageshadow="2"
     inkscape:zoom="0.98994949"
     inkscape:cx="137.26547"
     inkscape:cy="-25.884851"
     inkscape:document-units="mm"
     inkscape:current-layer="layer1"
     showgrid="false"
     inkscape:window-width="1366"
     inkscape:window-height="745"
     inkscape:window-x="-8"
     inkscape:window-y="-8"
     inkscape:window-maximized="1" />
  <metadata
     id="metadata849">
    <rdf:RDF>
      <cc:Work
         rdf:about="">
        <dc:format>image/svg+xml</dc:format>
        <dc:type
           rdf:resource="http://purl.org/dc/dcmitype/StillImage" />
        <dc:title></dc:title>
      </cc:Work>
    </rdf:RDF>
  </metadata>
  <g
     inkscape:label="Camada 1"
     inkscape:groupmode="layer"
     id="layer1"
     transform="translate(-20.868258,2.5948213)">
    <path
       style="fill:#d5d5d5;fill-opacity:1;stroke-width:1"
       d="m 71.86898,42.828757 -0.54894,-0.166513 -0.03449,-3.89083 c -0.01896,-2.139958 -0.152247,-4.78022 -0.296168,-5.86725 -0.143921,-1.08703 -0.195809,-2.415648 -0.115305,-2.952486 0.199708,-1.331744 -0.235091,-1.942364 -1.734003,-2.435192 -0.647967,-0.213047 -1.288187,-0.427754 -1.422711,-0.477128 -0.134523,-0.04937 -0.819685,0.873937 -1.522578,2.051803 -0.702896,1.177867 -1.423536,2.197424 -1.601422,2.265687 -0.964348,0.370055 -4.68641,7.034848 -4.451479,7.970893 0.119414,0.475782 0.954051,1.011406 1.576022,1.011406 0.286668,0 1.23108,1.005827 1.23108,1.311138 0,0.158725 -0.577846,0.216306 -3.787575,0.377418 -3.246161,0.162939 -3.284119,0.129276 -2.832204,-2.511715 0.21491,-1.255924 0.607178,-2.533152 1.043395,-3.397292 0.384456,-0.761605 1.000447,-2.203952 1.368869,-3.205213 0.368423,-1.001261 1.005216,-2.422031 1.415096,-3.157266 0.762521,-1.367791 1.232828,-3.246143 1.232828,-4.923765 0,-0.824218 -0.105202,-1.02574 -0.835494,-1.600422 -0.459521,-0.361606 -1.286661,-0.88301 -1.838087,-1.158672 -0.551426,-0.275662 -1.153441,-0.633182 -1.337811,-0.79449 -0.184371,-0.161307 -1.172295,-0.65157 -2.195392,-1.089472 -2.255149,-0.965246 -4.600858,-1.407024 -13.128,-2.47246 C 30.877019,16.320335 27.441385,15.604595 24.882265,14.139452 22.237081,12.625035 20.694422,10.23828 20.883909,7.9533163 c 0.205906,-2.4829552 2.329259,-4.5858299 4.634927,-4.5902255 2.570207,-0.00488 7.613662,2.0390926 9.134739,3.702091 0.428887,0.4689034 0.528134,0.6330402 0.22055,0.364749 -1.43214,-1.2491918 -5.591439,-2.5185109 -8.227557,-2.5108548 -2.734177,0.00792 -4.504701,1.1315997 -3.814655,2.420961 0.576837,1.0778308 3.245859,2.2722963 5.807992,2.5992472 2.356379,0.3006948 6.494697,0.1964148 8.464453,-0.2132921 0.306348,-0.06372 0.917404,-0.1543141 1.357901,-0.2013211 0.4405,-0.047004 0.891666,-0.1413487 1.002594,-0.2096501 0.110928,-0.068301 0.702984,-0.1884779 1.31568,-0.2670593 1.218498,-0.1562795 1.974289,-0.287205 2.060886,-0.357007 0.153903,-0.1240516 2.561485,-0.5381512 2.784982,-0.4790107 0.0919,0.024319 0.167098,-0.044664 0.167098,-0.1532944 0,-0.1698242 0.763934,-0.3962316 1.726689,-0.5117379 0.153174,-0.018374 0.278498,-0.1228787 0.278498,-0.2322269 0,-0.1093474 0.09819,-0.1381312 0.218193,-0.063964 0.120008,0.07417 0.41547,0.02927 0.656585,-0.099769 0.241117,-0.1290401 0.694356,-0.2558041 1.007199,-0.2816953 0.312844,-0.025894 0.568806,-0.108758 0.568806,-0.1841471 0,-0.1332513 0.371858,-0.2057707 1.169692,-0.2281126 0.214444,-0.00598 0.389898,-0.088237 0.389898,-0.1827374 0,-0.1724153 0.192234,-0.2185929 1.225391,-0.2943576 0.306348,-0.022467 0.556996,-0.1269711 0.556996,-0.2322345 0,-0.1052625 0.10026,-0.1294241 0.222799,-0.053691 0.122539,0.075736 0.222799,0.025608 0.222799,-0.1113987 0,-0.1370036 0.07963,-0.1998812 0.17696,-0.1397302 0.09733,0.060149 0.590467,-0.07577 1.095865,-0.3020407 0.505401,-0.2262743 0.977194,-0.3531216 1.048434,-0.2818831 0.07124,0.071239 0.129524,0.018315 0.129524,-0.1176149 0,-0.1359266 0.192587,-0.21005 0.427971,-0.1647187 0.239139,0.046053 0.48573,-0.068099 0.558875,-0.2587076 0.072,-0.1876198 0.277235,-0.2849736 0.456086,-0.2163421 0.178852,0.068629 0.385455,0.027266 0.459115,-0.091917 0.07366,-0.1191862 0.227261,-0.1590204 0.341333,-0.08852 0.114071,0.070498 0.207403,0.038719 0.207403,-0.070633 0,-0.1093482 0.125325,-0.2153854 0.278498,-0.2356381 0.153174,-0.020252 0.579277,-0.071694 0.946894,-0.114314 0.367618,-0.042617 1.019303,-0.2281311 1.448191,-0.4122487 0.428887,-0.1841167 1.105637,-0.3151399 1.503889,-0.2911627 0.398253,0.023974 0.724095,-0.024589 0.724095,-0.1079243 0,-0.1730107 -0.05385,-0.166083 2.3875,-0.3071445 1.006777,-0.05817 1.927247,-0.1655583 2.045491,-0.2386368 0.118243,-0.073075 0.27813,-0.030702 0.355303,0.094166 0.09503,0.1537659 0.279755,0.1524093 0.572392,-0.00421 0.323231,-0.1729888 0.432935,-0.1591089 0.435486,0.055097 0.0024,0.2013161 0.06754,0.1871044 0.219388,-0.047863 0.118787,-0.1838086 0.217504,-0.2339389 0.219372,-0.1113995 0.002,0.1305651 0.741273,0.2184901 1.785801,0.2123902 0.98032,-0.00573 1.782526,0.044403 1.782677,0.1113995 1.54e-4,0.066995 0.661168,0.1419137 1.468924,0.1664879 0.807756,0.024572 1.944129,0.2026104 2.525272,0.3956346 0.581141,0.1930251 1.248562,0.389218 1.483156,0.4359842 2.082317,0.415116 5.737529,1.584822 7.778883,2.4893231 0.490154,0.2171832 0.94132,0.402713 1.002597,0.4122882 0.37943,0.059299 4.010365,1.9998512 4.010365,2.143343 0,0.096623 0.225591,0.2460773 0.501303,0.3321203 0.275715,0.086043 0.551426,0.2249001 0.612696,0.308571 0.0613,0.083668 0.763086,0.5391347 1.559586,1.0121414 0.796509,0.473007 1.945088,1.166693 2.552408,1.541523 0.607312,0.374831 1.405934,0.715966 1.774703,0.758077 0.368777,0.04211 0.842814,0.168789 1.053425,0.281506 0.210615,0.112716 0.684385,0.204939 1.052825,0.204939 0.36844,0 0.73847,0.110963 0.82229,0.246585 0.0838,0.135622 0.21506,0.160687 0.29165,0.0557 0.19986,-0.273963 1.58744,-1.022812 1.58744,-0.856706 0,0.07654 0.29119,-0.06818 0.64709,-0.321602 0.3559,-0.253423 0.7414,-0.460768 0.85666,-0.460768 0.11527,0 0.3889,-0.198155 0.60808,-0.440344 0.21918,-0.242188 0.50085,-0.377086 0.62595,-0.299773 0.12573,0.07771 0.16014,0.03166 0.077,-0.10296 -0.0828,-0.133941 -0.009,-0.324886 0.16322,-0.424321 0.17255,-0.09944 0.66404,-0.6021089 1.09218,-1.1170501 0.42815,-0.514942 0.8405,-0.8742049 0.91635,-0.7983619 0.0759,0.075845 0.13789,-0.014559 0.13789,-0.2009001 0,-0.186339 0.25065,-0.6092517 0.55699,-0.9398067 0.30636,-0.3305549 0.557,-0.6595411 0.557,-0.7310802 0,-0.2258272 1.21689,-1.286729 1.40905,-1.2284348 0.10102,0.030643 0.12112,-0.045489 0.0446,-0.1691885 -0.31509,-0.5098365 2.8014,-3.1253072 3.72635,-3.1272835 0.26549,-5.566e-4 0.38991,-0.175792 0.38991,-0.5491495 0,-0.301575 0.21535,-0.74895163 0.47855,-0.99417083 0.52262,-0.4868842 5.15357,-2.80875757 6.05157,-3.03414257 0.85851,-0.2154722 0.99143,0.5636862 0.27581,1.61681147 -0.68831,1.012944 -0.38862,1.2108935 0.64253,0.4243972 0.6371,-0.48593847 0.78987,-0.52428307 1.01381,-0.2544526 0.35465,0.427321 0.0855,1.1897971 -0.63535,1.80012833 -1.1811,0.9999811 -3.37096,3.1577202 -3.37096,3.3215228 0,0.092711 -0.38043,0.6336473 -0.8454,1.2020795 -0.87966,1.0753922 -1.99381,2.7982367 -3.58071,5.53696 -2.67498,4.616577 -7.32248,8.845896 -11.10393,10.104819 -0.76029,0.253112 -2.90615,0.779396 -4.768578,1.169516 l -3.386228,0.709308 -0.284031,0.822792 c -0.156222,0.452538 -0.48906,1.104224 -0.739635,1.448191 -0.409046,0.561486 -0.45845,0.97831 -0.483502,4.078775 -0.01777,2.194883 0.06804,3.696956 0.235284,4.121772 0.240925,0.611889 0.87781,3.535846 1.351005,6.202525 0.105217,0.592987 0.401627,1.434616 0.658678,1.870283 0.257051,0.435669 0.415218,0.928027 0.351473,1.094128 -0.123962,0.323046 -1.228383,0.391769 -2.613871,0.162647 -0.800247,-0.13234 -0.815337,-0.154156 -0.961706,-1.39004 -0.165804,-1.399977 -0.301631,-1.891034 -1.364145,-4.931763 -0.40678,-1.164122 -0.951728,-2.839128 -1.211011,-3.722232 -0.259282,-0.883107 -0.667797,-2.012116 -0.907822,-2.50891 l -0.436413,-0.90326 -0.671477,0.347236 c -0.369317,0.190978 -1.343974,0.780381 -2.165913,1.309781 -0.821939,0.5294 -1.720019,1.03268 -1.99573,1.118395 -0.592718,0.18427 -0.595436,0.207196 -0.175244,1.478622 0.179328,0.542622 0.427083,1.838788 0.550581,2.880371 0.320358,2.702043 0.546025,3.62482 1.109356,4.536318 0.272865,0.441495 0.433019,0.904807 0.355902,1.029581 -0.211116,0.341592 -3.228102,0.293716 -3.253862,-0.05164 -0.01143,-0.153175 -0.05155,-0.694874 -0.08916,-1.203774 -0.03761,-0.508901 -0.177889,-1.260846 -0.311726,-1.670989 -0.65754,-2.015021 -1.348855,-4.478604 -1.687799,-6.014675 -0.344003,-1.558999 -0.346089,-1.762103 -0.02449,-2.38402 0.193356,-0.373909 0.351557,-0.709879 0.351557,-0.746598 0,-0.03672 -0.72688,-0.06743 -1.615289,-0.06826 -0.888409,-9.26e-4 -2.261082,-0.05094 -3.050384,-0.111399 L 75.786079,29.7562 75.597203,30.535995 c -0.323608,1.336054 -0.487443,8.990022 -0.203778,9.520054 0.143308,0.267775 0.729173,0.627543 1.366811,0.839333 1.030142,0.342158 1.784629,0.999229 1.784629,1.554209 0,0.125907 -0.426102,0.235692 -0.946893,0.243966 -0.520792,0.0083 -1.899358,0.07954 -3.06348,0.15837 -1.164122,0.07883 -2.363609,0.06839 -2.665525,-0.02319 z"
       id="path2314"
       inkscape:connector-curvature="0" />
  </g>
</svg>
