<?xml version="1.0" encoding="UTF-8" standalone="no"?>
<!-- Created with Inkscape (http://www.inkscape.org/) -->

<svg
   xmlns:dc="http://purl.org/dc/elements/1.1/"
   xmlns:cc="http://creativecommons.org/ns#"
   xmlns:rdf="http://www.w3.org/1999/02/22-rdf-syntax-ns#"
   xmlns:svg="http://www.w3.org/2000/svg"
   xmlns="http://www.w3.org/2000/svg"
   xmlns:sodipodi="http://sodipodi.sourceforge.net/DTD/sodipodi-0.dtd"
   xmlns:inkscape="http://www.inkscape.org/namespaces/inkscape"
   width="93.273552mm"
   height="25.887011mm"
   viewBox="0 0 93.273553 25.887011"
   version="1.1"
   id="svg852"
   inkscape:version="0.92.4 (5da689c313, 2019-01-14)"
   sodipodi:docname="dilophosaurus.svg">
  <defs
     id="defs846">
    <filter
       style="color-interpolation-filters:sRGB"
       inkscape:label="Brilliance"
       id="filter1987">
      <feColorMatrix
         values="1 -0 -0 0 -10 -0 1 -0 0 -10 -0 -0 1 0 -10 0 0 0 1 0 "
         id="feColorMatrix1985" />
    </filter>
    <filter
       style="color-interpolation-filters:sRGB"
       inkscape:label="Lightness-Contrast"
       id="filter2289">
      <feColorMatrix
         values="11 0 0 -4.59375 -5 0 11 0 -4.59375 -5 0 0 11 -4.59375 -5 0 0 0 1 0"
         id="feColorMatrix2287"
         result="fbSourceGraphic" />
      <feColorMatrix
         result="fbSourceGraphicAlpha"
         in="fbSourceGraphic"
         values="0 0 0 -1 0 0 0 0 -1 0 0 0 0 -1 0 0 0 0 1 0"
         id="feColorMatrix2291" />
      <feColorMatrix
         id="feColorMatrix2293"
         values="11 0 0 -4.5936 -5 0 11 0 -4.5936 -5 0 0 11 -4.5936 -5 0 0 0 1 0"
         in="fbSourceGraphic" />
    </filter>
    <filter
       style="color-interpolation-filters:sRGB"
       inkscape:label="Lightness-Contrast"
       id="filter2308">
      <feColorMatrix
         values="11 0 0 -4.5936 -5 0 11 0 -4.5936 -5 0 0 11 -4.5936 -5 0 0 0 1 0"
         id="feColorMatrix2306"
         result="fbSourceGraphic" />
      <feColorMatrix
         result="fbSourceGraphicAlpha"
         in="fbSourceGraphic"
         values="0 0 0 -1 0 0 0 0 -1 0 0 0 0 -1 0 0 0 0 1 0"
         id="feColorMatrix2310" />
      <feColorMatrix
         id="feColorMatrix2312"
         values="11 0 0 -4.5936 -5 0 11 0 -4.5936 -5 0 0 11 -4.5936 -5 0 0 0 1 0"
         in="fbSourceGraphic" />
    </filter>
    <filter
       style="color-interpolation-filters:sRGB"
       inkscape:label="Lightness-Contrast"
       id="filter2337">
      <feColorMatrix
         values="11 0 0 -6 -5 0 11 0 -6 -5 0 0 11 -6 -5 0 0 0 1 0"
         id="feColorMatrix2335" />
    </filter>
    <filter
       style="color-interpolation-filters:sRGB"
       inkscape:label="Lightness-Contrast"
       id="filter2407">
      <feColorMatrix
         values="11 0 0 -4.78125 -5 0 11 0 -4.78125 -5 0 0 11 -4.78125 -5 0 0 0 1 0"
         id="feColorMatrix2405"
         result="fbSourceGraphic" />
      <feColorMatrix
         result="fbSourceGraphicAlpha"
         in="fbSourceGraphic"
         values="0 0 0 -1 0 0 0 0 -1 0 0 0 0 -1 0 0 0 0 1 0"
         id="feColorMatrix2409" />
      <feColorMatrix
         id="feColorMatrix2411"
         values="11 0 0 -4.7814 -5 0 11 0 -4.7814 -5 0 0 11 -4.7814 -5 0 0 0 1 0"
         in="fbSourceGraphic"
         result="fbSourceGraphic" />
      <feColorMatrix
         result="fbSourceGraphicAlpha"
         in="fbSourceGraphic"
         values="0 0 0 -1 0 0 0 0 -1 0 0 0 0 -1 0 0 0 0 1 0"
         id="feColorMatrix2413" />
      <feColorMatrix
         id="feColorMatrix2415"
         values="11 0 0 -4.7814 -5 0 11 0 -4.7814 -5 0 0 11 -4.7814 -5 0 0 0 1 0"
         in="fbSourceGraphic"
         result="fbSourceGraphic" />
      <feColorMatrix
         result="fbSourceGraphicAlpha"
         in="fbSourceGraphic"
         values="0 0 0 -1 0 0 0 0 -1 0 0 0 0 -1 0 0 0 0 1 0"
         id="feColorMatrix2417" />
      <feColorMatrix
         id="feColorMatrix2419"
         values="11 0 0 -4.7814 -5 0 11 0 -4.7814 -5 0 0 11 -4.7814 -5 0 0 0 1 0"
         in="fbSourceGraphic"
         result="fbSourceGraphic" />
      <feColorMatrix
         result="fbSourceGraphicAlpha"
         in="fbSourceGraphic"
         values="0 0 0 -1 0 0 0 0 -1 0 0 0 0 -1 0 0 0 0 1 0"
         id="feColorMatrix2421" />
      <feColorMatrix
         id="feColorMatrix2423"
         values="11 0 0 -4.7814 -5 0 11 0 -4.7814 -5 0 0 11 -4.7814 -5 0 0 0 1 0"
         in="fbSourceGraphic"
         result="fbSourceGraphic" />
      <feColorMatrix
         result="fbSourceGraphicAlpha"
         in="fbSourceGraphic"
         values="0 0 0 -1 0 0 0 0 -1 0 0 0 0 -1 0 0 0 0 1 0"
         id="feColorMatrix2425" />
      <feColorMatrix
         id="feColorMatrix2427"
         values="11 0 0 -4.7814 -5 0 11 0 -4.7814 -5 0 0 11 -4.7814 -5 0 0 0 1 0"
         in="fbSourceGraphic"
         result="fbSourceGraphic" />
      <feColorMatrix
         result="fbSourceGraphicAlpha"
         in="fbSourceGraphic"
         values="0 0 0 -1 0 0 0 0 -1 0 0 0 0 -1 0 0 0 0 1 0"
         id="feColorMatrix2429" />
      <feColorMatrix
         id="feColorMatrix2431"
         values="11 0 0 -4.7814 -5 0 11 0 -4.7814 -5 0 0 11 -4.7814 -5 0 0 0 1 0"
         in="fbSourceGraphic"
         result="fbSourceGraphic" />
      <feColorMatrix
         result="fbSourceGraphicAlpha"
         in="fbSourceGraphic"
         values="0 0 0 -1 0 0 0 0 -1 0 0 0 0 -1 0 0 0 0 1 0"
         id="feColorMatrix2433" />
      <feColorMatrix
         id="feColorMatrix2435"
         values="11 0 0 -4.7814 -5 0 11 0 -4.7814 -5 0 0 11 -4.7814 -5 0 0 0 1 0"
         in="fbSourceGraphic" />
    </filter>
    <filter
       style="color-interpolation-filters:sRGB"
       inkscape:label="Lightness-Contrast"
       id="filter3035">
      <feColorMatrix
         values="11 0 0 -4.5625 -5 0 11 0 -4.5625 -5 0 0 11 -4.5625 -5 0 0 0 1 0"
         id="feColorMatrix3033"
         result="fbSourceGraphic" />
      <feColorMatrix
         result="fbSourceGraphicAlpha"
         in="fbSourceGraphic"
         values="0 0 0 -1 0 0 0 0 -1 0 0 0 0 -1 0 0 0 0 1 0"
         id="feColorMatrix3037" />
      <feColorMatrix
         id="feColorMatrix3039"
         values="11 0 0 -4.5624 -5 0 11 0 -4.5624 -5 0 0 11 -4.5624 -5 0 0 0 1 0"
         in="fbSourceGraphic" />
    </filter>
    <filter
       style="color-interpolation-filters:sRGB"
       inkscape:label="Lightness-Contrast"
       id="filter3251">
      <feColorMatrix
         values="11 0 0 -6 -5 0 11 0 -6 -5 0 0 11 -6 -5 0 0 0 1 0"
         id="feColorMatrix3249" />
    </filter>
  </defs>
  <sodipodi:namedview
     id="base"
     pagecolor="#ffffff"
     bordercolor="#666666"
     borderopacity="1.0"
     inkscape:pageopacity="0.0"
     inkscape:pageshadow="2"
     inkscape:zoom="0.98994949"
     inkscape:cx="267.08561"
     inkscape:cy="85.578659"
     inkscape:document-units="mm"
     inkscape:current-layer="layer1"
     showgrid="false"
     inkscape:window-width="1366"
     inkscape:window-height="745"
     inkscape:window-x="-8"
     inkscape:window-y="-8"
     inkscape:window-maximized="1" />
  <metadata
     id="metadata849">
    <rdf:RDF>
      <cc:Work
         rdf:about="">
        <dc:format>image/svg+xml</dc:format>
        <dc:type
           rdf:resource="http://purl.org/dc/dcmitype/StillImage" />
        <dc:title></dc:title>
      </cc:Work>
    </rdf:RDF>
  </metadata>
  <g
     inkscape:label="Camada 1"
     inkscape:groupmode="layer"
     id="layer1"
     transform="translate(-43.81036,-7.5297621)">
    <path
       style="fill:#d5d5d5;fill-opacity:1;stroke-width:0.99999994"
       d="m 67.879735,33.273149 c -2.396013,-0.08955 -2.550435,-0.114173 -1.493431,-0.238105 0.648396,-0.07602 1.809479,-0.140082 2.580184,-0.142354 1.673819,-0.0049 2.916258,-0.525965 4.486402,-1.88143 1.352556,-1.167626 2.01035,-2.416184 2.046884,-3.885188 0.02497,-1.004059 -0.04575,-1.257141 -0.59134,-2.116031 -0.68033,-1.071013 -1.868331,-3.944253 -1.868331,-4.518649 0,-0.329827 -0.0873,-0.351633 -0.967569,-0.241681 -0.532163,0.06647 -1.898994,0.173559 -3.0374,0.237974 -2.153216,0.121836 -2.123543,0.109482 -2.3602,0.982605 -0.01373,0.05068 -0.07264,0.216551 -0.130896,0.368597 -0.298892,0.780098 -0.27636,1.117556 0.09184,1.375455 0.322691,0.226021 0.34388,0.311685 0.138357,0.559326 -0.173707,0.209305 -0.186142,0.348978 -0.04375,0.491373 0.10942,0.109421 0.155086,0.313243 0.101481,0.452938 -0.05789,0.150852 0.0228,0.253989 0.1987,0.253989 0.162892,0 0.296166,0.0926 0.296166,0.205785 0,0.115579 -0.18652,0.170128 -0.425509,0.124442 -0.566386,-0.108272 -1.004318,0.679051 -0.526459,0.946474 0.167118,0.09353 0.247117,0.22678 0.177773,0.296122 -0.06934,0.06934 -0.358922,-0.03534 -0.643509,-0.232635 -0.284583,-0.197291 -0.657731,-0.409219 -0.829212,-0.470948 -0.573573,-0.206472 -0.880386,-0.969121 -1.058235,-2.630465 -0.160367,-1.498042 -0.568471,-2.973119 -0.973009,-3.516892 -0.08588,-0.115443 -0.547584,-0.307513 -1.025999,-0.426822 -1.337913,-0.333651 -2.385517,-1.02909 -2.813269,-1.867552 -0.312381,-0.612318 -0.601752,-0.842386 -1.704454,-1.35515 -0.740885,-0.344516 -1.963751,-1.155795 -2.765504,-1.834702 -1.155672,-0.978599 -1.559895,-1.217084 -2.062911,-1.217084 -0.437072,0 -0.711839,0.123121 -0.911764,0.408555 -0.15739,0.224705 -0.473097,0.417568 -0.701572,0.428585 -0.94348,0.0455 -2.380897,0.700382 -3.24756,1.479586 -1.01201,0.909884 -1.646823,1.037001 -2.236067,0.447758 -0.37428,-0.374281 -0.521751,-1.037903 -0.184299,-0.829345 0.101365,0.06265 0.184299,0.03097 0.184299,-0.0704 0,-0.283377 -0.429563,-0.483903 -0.511303,-0.238683 -0.115025,0.345076 -0.495935,0.253443 -0.948358,-0.228139 -0.415245,-0.442008 -0.412628,-0.980734 0.0073,-1.508351 0.08868,-0.111419 0.245525,-0.647 0.348537,-1.19018 0.362085,-1.9092686 1.632171,-3.0638294 3.644999,-3.3134544 0.677173,-0.08398 1.259959,-0.123956 1.295081,-0.08883 0.03512,0.03512 -0.03786,0.257564 -0.16219,0.494315 L 49.02759,9.2144144 49.46908,8.8458176 c 0.242819,-0.202729 0.482957,-0.414685 0.533639,-0.471014 0.05068,-0.05633 0.502529,-0.292551 1.004104,-0.524939 0.986753,-0.45718 0.768836,-0.475115 3.384675,0.278562 0.13313,0.03836 0.190437,0.153262 0.127348,0.255342 -0.06309,0.10208 0.0087,0.1856 0.159453,0.1856 0.150788,0 0.383753,0.108309 0.517699,0.240686 0.133945,0.132377 0.400543,0.300198 0.592439,0.372936 0.191896,0.07274 0.303243,0.1779088 0.247438,0.2337128 -0.0558,0.0558 0.427197,0.6301226 1.073336,1.2762626 1.458043,1.458042 1.9564,1.591714 3.765513,1.010007 0.703038,-0.226057 1.323616,-0.399907 1.379065,-0.386333 0.05545,0.01357 0.328017,-0.08676 0.605707,-0.222958 0.277691,-0.136201 0.650026,-0.214735 0.827413,-0.17452 0.180752,0.04098 0.323764,-0.03409 0.325345,-0.170768 0.0022,-0.194831 0.03518,-0.1928 0.163694,0.0101 0.09662,0.152544 0.256889,0.194643 0.401278,0.105407 0.132223,-0.08172 1.130452,-0.166517 2.218286,-0.188439 1.087833,-0.02192 2.076342,-0.100715 2.196689,-0.175092 0.120345,-0.07438 0.283199,-0.03105 0.361898,0.09629 0.08902,0.144043 0.237919,0.171742 0.394068,0.07331 0.279132,-0.175963 3.107537,-0.228144 3.107581,-0.05733 3.9e-5,0.139601 1.752297,0.06185 1.995651,-0.08855 0.101768,-0.0629 0.416827,-0.02623 0.700128,0.08148 0.283302,0.107711 0.711882,0.146447 0.952403,0.08608 0.254057,-0.06376 0.392197,-0.03677 0.329657,0.06442 -0.06383,0.103286 0.211181,0.142079 0.67568,0.09531 1.995428,-0.200913 2.996043,-0.21769 3.098477,-0.05195 0.07217,0.116765 0.2842,0.114386 0.602849,-0.0068 0.270342,-0.102784 0.49153,-0.113762 0.49153,-0.0244 0,0.08937 0.145136,0.131869 0.322523,0.09445 0.415272,-0.0876 4.546423,-0.278391 5.390742,-0.248966 1.851413,0.06452 8.147687,0.01038 8.997679,-0.07737 0.83887,-0.0866 0.94887,-0.06291 0.7607,0.163817 -0.27777,0.334697 -0.16599,0.334221 0.48218,-0.0021 0.30583,-0.158666 0.624306,-0.205863 0.784436,-0.116249 0.14827,0.08298 0.43664,0.107177 0.64082,0.05378 0.26663,-0.06972 0.33065,-0.0314 0.22719,0.135994 -0.1087,0.175893 -0.0367,0.197792 0.29371,0.08926 0.552397,-0.181482 1.305487,-0.131747 1.445927,0.09549 0.0666,0.107687 0.21053,0.108419 0.37892,0.0019 0.34515,-0.218269 0.78582,-0.228734 0.65406,-0.01553 -0.0974,0.157581 0.52451,0.355627 1.64342,0.523347 0.30333,0.04547 0.5936,0.137965 0.64505,0.205552 0.101,0.132681 0.46936,0.178159 2.55197,0.315071 0.74395,0.04891 1.49036,0.161615 1.65869,0.250461 0.16833,0.08884 0.72073,0.0967 1.22755,0.01744 0.50682,-0.07925 1.03892,-0.07979 1.18244,-0.0012 0.14352,0.07859 0.59163,0.09853 0.99578,0.04433 0.57402,-0.07699 0.70232,-0.04595 0.58626,0.141838 -0.11698,0.189283 0.024,0.217592 0.66291,0.133136 0.78364,-0.103583 0.79567,-0.09786 0.35074,0.166764 l -0.46075,0.274028 0.46075,-0.08836 c 0.25341,-0.0486 1.13244,0.01094 1.9534,0.132316 0.82096,0.121374 1.9119,0.218607 2.42431,0.216073 0.51241,-0.0025 0.89335,0.05742 0.84652,0.133229 -0.0468,0.07581 0.18918,0.106228 0.52447,0.0676 0.33528,-0.03863 0.71222,0.01229 0.83763,0.113155 0.12542,0.100868 0.34338,0.139132 0.48437,0.08503 0.14098,-0.0541 0.33233,-0.02237 0.42521,0.07051 0.0929,0.09288 0.59999,0.190067 1.12693,0.215972 0.52693,0.0259 0.95865,0.09615 0.95937,0.156106 0.002,0.196728 3.97805,0.286112 4.67031,0.105002 0.37306,-0.0976 0.48494,-0.07623 0.3916,0.0748 -0.15026,0.243117 0.41825,0.107168 1.27404,-0.304666 0.29106,-0.140069 0.6057,-0.207396 0.69919,-0.149614 0.0935,0.05778 0.31149,-0.0032 0.48444,-0.135605 0.17295,-0.132365 0.11735,-0.01932 -0.12355,0.251215 l -0.438,0.491879 0.46405,0.116469 c 0.32708,0.08209 0.68564,-0.02342 1.21481,-0.357464 0.50243,-0.317177 0.71589,-0.383081 0.64535,-0.199252 -0.058,0.151083 -0.0136,0.27469 0.0986,0.27469 0.11221,0 0.20402,-0.08783 0.20402,-0.195176 0,-0.107347 0.0882,-0.14069 0.19591,-0.07409 0.10775,0.06659 0.35133,-0.01957 0.54128,-0.191477 0.18996,-0.171906 0.42651,-0.26241 0.52568,-0.20112 0.0992,0.06129 0.43613,-0.103828 0.74881,-0.366927 0.58581,-0.492931 0.80173,-0.33656 0.26979,0.195384 -0.27542,0.275416 -0.26464,0.291644 0.13822,0.208082 0.24032,-0.04985 0.76868,-0.137711 1.17413,-0.195254 l 0.7372,-0.104623 -0.50682,0.28419 c -0.27875,0.156304 -0.50682,0.361873 -0.50682,0.456818 0,0.09495 -0.13801,0.119671 -0.30668,0.05494 -0.17456,-0.06698 -0.25979,-0.0418 -0.19783,0.05844 0.0599,0.09687 -0.0302,0.185765 -0.20015,0.197546 -0.56541,0.03919 -1.81445,0.591631 -1.41478,0.625743 0.20273,0.0173 -0.17048,0.09979 -0.82935,0.183302 -1.92884,0.244487 -4.77379,0.78727 -4.70499,0.89766 0.0349,0.05593 -0.40582,0.08453 -0.97927,0.06354 -10.60437,-0.388075 -12.49194,-0.499992 -21.03907,-1.247438 -5.34532,-0.467447 -9.572733,-0.681634 -11.026693,-0.558681 -2.967411,0.250937 -5.707211,0.693941 -7.126734,1.152338 -1.220661,0.39418 -1.617114,0.62575 -2.303736,1.34563 -0.45614,0.478233 -1.17619,1.043949 -1.60011,1.257146 -0.423921,0.213196 -0.823665,0.473221 -0.888317,0.577832 -0.06465,0.104611 0.120325,0.499735 0.411064,0.878053 0.290737,0.378319 0.676082,0.922672 0.856319,1.209675 0.349123,0.555926 1.954472,1.408522 2.657737,1.411515 0.434582,0.0018 0.790174,0.316758 1.83881,1.62843 0.331744,0.414956 0.707555,0.714408 0.835138,0.665451 0.127581,-0.04896 0.515167,0.203173 0.8613,0.560291 0.402721,0.415503 0.80213,0.649307 1.109216,0.649307 0.263936,0 0.579404,0.09952 0.701041,0.221158 0.172012,0.172012 0.221159,0.151535 0.221159,-0.09215 0,-0.172319 0.08293,-0.313308 0.184299,-0.313308 0.284345,0 0.217929,0.664152 -0.09215,0.921494 -0.152046,0.126188 -0.276448,0.318799 -0.276448,0.428023 0,0.129387 0.07707,0.121523 0.221159,-0.02257 0.300998,-0.300999 0.516036,-0.277958 0.516036,0.05529 0,0.152047 0.08554,0.276449 0.190083,0.276449 0.104547,0 0.237821,-0.124402 0.296166,-0.276449 0.170305,-0.443804 0.472898,-0.318702 0.334333,0.138225 -0.157478,0.519291 -0.774264,1.204477 -1.208221,1.34221 -0.53243,0.168987 -1.926161,-0.584665 -2.781343,-1.503992 -2.127218,-2.28678 -4.062695,-3.232141 -7.101057,-3.468432 -1.605075,-0.124825 -3.098335,-0.654687 -4.187029,-1.485706 -0.856094,-0.65347 -1.079939,-0.653878 -0.916245,-0.0017 0.05559,0.221502 -0.07032,0.911517 -0.279804,1.533366 -0.400738,1.189574 -0.508999,2.884319 -0.196585,3.077401 0.392028,0.242287 0.150067,1.019595 -0.659849,2.119789 -0.642436,0.872687 -0.817752,1.251862 -0.733684,1.586814 0.06232,0.2483 0.02861,0.440122 -0.07735,0.440122 -0.103296,0 -0.187809,0.159312 -0.187809,0.354023 0,0.398388 -1.88735,1.834849 -2.488031,1.89364 -0.202731,0.01984 0.50221,0.08937 1.566536,0.154501 1.76267,0.107874 1.66886,0.11771 -1.052577,0.110366 -1.643243,-0.0044 -3.046218,0.05044 -3.117723,0.121945 -0.0715,0.0715 -0.178384,0.112754 -0.237515,0.09166 -0.05913,-0.02109 -1.310057,-0.08329 -2.77984,-0.138224 z M 65.17885,25.240468 c -0.06003,-0.156418 -0.148661,-0.244871 -0.19697,-0.196561 -0.04831,0.04831 -0.03317,0.17629 0.03364,0.284398 0.181728,0.294041 0.287945,0.236918 0.163326,-0.08784 z m 62.53658,-10.527804 c -0.0676,-0.06758 -0.17816,-0.06758 -0.24574,0 -0.0676,0.06758 -0.0123,0.122866 0.12287,0.122866 0.13515,0 0.19044,-0.05529 0.12287,-0.122866 z m -79.775566,-1.63285 c -0.05674,-0.05674 -0.159796,0.04554 -0.229006,0.227302 -0.100016,0.262662 -0.07885,0.283832 0.10317,0.10317 0.125953,-0.125017 0.182579,-0.273729 0.125836,-0.330472 z m 60.424176,-0.763035 c -0.0676,-0.06758 -0.17815,-0.06758 -0.24573,0 -0.0676,0.06758 -0.0123,0.122866 0.12287,0.122866 0.13515,0 0.19044,-0.05529 0.12286,-0.122866 z m 22.4646,1.879566 c 0.19676,-0.148822 0.44068,-0.270587 0.54205,-0.270587 0.10136,0 0.0233,0.121765 -0.17345,0.270587 -0.19676,0.148823 -0.44069,0.270587 -0.54205,0.270587 -0.10136,0 -0.0233,-0.121764 0.17345,-0.270587 z m 3.49083,-1.019505 c 0.18347,-0.202728 0.37504,-0.368597 0.42572,-0.368597 0.0507,0 -0.058,0.165869 -0.24142,0.368597 -0.18347,0.202729 -0.37505,0.368598 -0.42573,0.368598 -0.0507,0 0.058,-0.165869 0.24143,-0.368598 z"
       id="path3253"
       inkscape:connector-curvature="0" />
  </g>
</svg>
