<?xml version="1.0" encoding="UTF-8" standalone="no"?>
<!-- Created with Inkscape (http://www.inkscape.org/) -->

<svg
   xmlns:dc="http://purl.org/dc/elements/1.1/"
   xmlns:cc="http://creativecommons.org/ns#"
   xmlns:rdf="http://www.w3.org/1999/02/22-rdf-syntax-ns#"
   xmlns:svg="http://www.w3.org/2000/svg"
   xmlns="http://www.w3.org/2000/svg"
   xmlns:sodipodi="http://sodipodi.sourceforge.net/DTD/sodipodi-0.dtd"
   xmlns:inkscape="http://www.inkscape.org/namespaces/inkscape"
   width="130.99745mm"
   height="49.271645mm"
   viewBox="0 0 130.99745 49.271645"
   version="1.1"
   id="svg852"
   inkscape:version="0.92.4 (5da689c313, 2019-01-14)"
   sodipodi:docname="diplodocus.svg">
  <defs
     id="defs846">
    <filter
       style="color-interpolation-filters:sRGB"
       inkscape:label="Brilliance"
       id="filter1987">
      <feColorMatrix
         values="1 -0 -0 0 -10 -0 1 -0 0 -10 -0 -0 1 0 -10 0 0 0 1 0 "
         id="feColorMatrix1985" />
    </filter>
  </defs>
  <sodipodi:namedview
     id="base"
     pagecolor="#ffffff"
     bordercolor="#666666"
     borderopacity="1.0"
     inkscape:pageopacity="0.0"
     inkscape:pageshadow="2"
     inkscape:zoom="1.4"
     inkscape:cx="203.61425"
     inkscape:cy="36.440972"
     inkscape:document-units="mm"
     inkscape:current-layer="layer1"
     showgrid="false"
     inkscape:window-width="1366"
     inkscape:window-height="745"
     inkscape:window-x="-8"
     inkscape:window-y="-8"
     inkscape:window-maximized="1" />
  <metadata
     id="metadata849">
    <rdf:RDF>
      <cc:Work
         rdf:about="">
        <dc:format>image/svg+xml</dc:format>
        <dc:type
           rdf:resource="http://purl.org/dc/dcmitype/StillImage" />
        <dc:title></dc:title>
      </cc:Work>
    </rdf:RDF>
  </metadata>
  <g
     inkscape:label="Camada 1"
     inkscape:groupmode="layer"
     id="layer1"
     transform="translate(-10.34632,5.6886928)">
    <path
       style="fill:#d5d5d5;fill-opacity:1;stroke-width:1"
       d="m 54.039655,43.522171 c -0.348435,-0.150916 -0.315295,-0.380397 0.125774,-0.870937 0.338929,-0.376942 1.076698,-1.763505 1.076698,-2.023547 0,-0.05665 0.122489,-0.373351 0.272198,-0.703776 0.14971,-0.330424 0.32458,-0.978291 0.3886,-1.439705 0.06402,-0.461414 0.218839,-1.191286 0.344041,-1.621939 0.238959,-0.821946 0.323876,-2.042655 0.175077,-2.516803 -0.04827,-0.153804 -0.376929,-0.858509 -0.730359,-1.56601 -0.35343,-0.707501 -0.679175,-1.403133 -0.723879,-1.545848 -0.0447,-0.142716 -0.353847,-0.666702 -0.686984,-1.164414 -0.333138,-0.497711 -0.65714,-1.095944 -0.720004,-1.329406 -0.129245,-0.479977 -0.607714,-1.105795 -0.845435,-1.105795 -0.08681,0 -0.157844,-0.04155 -0.157844,-0.09233 0,-0.05078 -0.385961,-0.336831 -0.85769,-0.63566 -0.47173,-0.29883 -1.138682,-0.775785 -1.482117,-1.059902 C 49.874296,25.561978 49.190616,25.034545 48.698441,24.67402 44.841388,21.848681 42.586837,19.651399 38.734618,14.963285 37.653528,13.647608 29.502544,5.423119 27.501372,3.6287372 25.784569,2.0893392 24.72316,1.3092502 23.082986,0.38141616 19.801466,-1.4749128 19.807196,-1.4721678 19.025613,-1.5622498 c -0.413884,-0.0477 -0.82802,-0.113048 -0.920303,-0.145214 -0.527271,-0.183783 -0.783005,-0.188954 -0.783005,-0.01583 0,0.126552 -0.06417,0.157088 -0.223716,0.106451 -0.133333,-0.04232 -0.223716,-0.0201 -0.223716,0.05499 0,0.0693 -0.05076,0.09462 -0.112804,0.05628 -0.06204,-0.03834 -0.157673,0.04677 -0.212512,0.18915 -0.08797,0.228385 -0.109022,0.235817 -0.178808,0.06311 -0.10647,-0.263485 -0.239415,-0.246893 -0.314235,0.03922 -0.03379,0.129233 -0.112076,0.203679 -0.173958,0.165434 -0.06188,-0.03824 -0.164411,0.01961 -0.227843,0.12856796 -0.06343,0.108957 -0.116862,0.135184 -0.118733,0.05828 -0.004,-0.16466196 -0.338975,-0.19229596 -0.338975,-0.02796 0,0.189713 -0.204295,0.123404 -0.258467,-0.08389 -0.0385,-0.14730696 -0.05437,-0.13346596 -0.06413,0.05593 -0.01626,0.315412 -0.236691,0.335072 -0.236691,0.02111 0,-0.21134396 -0.0443,-0.22412396 -0.531325,-0.15326196 -0.58857,0.08564 -1.031392,0.27808796 -1.25228,0.54424296 -0.07996,0.09634 -0.311958,0.175162 -0.515562,0.175162 -0.284605,0 -0.426081,-0.07849 -0.611946,-0.339516 -0.202189,-0.283948 -0.217968,-0.36817896 -0.09641,-0.51464496 0.07994,-0.09632 0.156788,-0.2531 0.170774,-0.348398 0.02778,-0.189254 0.241728,-0.359039 0.455836,-0.361738 0.152793,-0.0019 0.418818,-0.435086 0.324892,-0.529012 -0.03339,-0.03339 -0.286269,-0.0039 -0.561956,0.06551 -0.569974,0.143521 -1.186662,0.162 -1.355252,0.04061 -0.226864,-0.16335 -0.394242,-0.702735 -0.282726,-0.911104 0.05914,-0.110506 0.540251,-0.41728 1.069133,-0.681721 0.528882,-0.264441 1.143447,-0.625313 1.3657,-0.801937 0.222252,-0.176624 0.534166,-0.348197 0.693143,-0.381273 0.158976,-0.03308 0.377135,-0.07756 0.484799,-0.09886 0.107663,-0.0213 0.197352,0.01949 0.199308,0.09063 0.002,0.07114 0.07043,0.04126 0.152154,-0.0664 0.188949,-0.248909 0.290755,-0.248909 0.295278,0 0.0032,0.175125 0.02221,0.172179 0.180623,-0.02796 0.124961,-0.157884 0.192712,-0.181903 0.230237,-0.08162 0.0355,0.09487 0.127147,0.04805 0.275766,-0.140888 0.248952,-0.316492 0.438244,-0.286744 0.348919,0.05483 -0.07972,0.304834 0.05811,0.280934 0.323177,-0.05604 0.281794,-0.358244 0.468552,-0.358244 0.400069,0 -0.06456,0.337749 0.03548,0.355975 0.307022,0.05593 0.275684,-0.304627 0.428561,-0.281146 0.364126,0.05593 -0.05385,0.281673 0.163032,0.400766 0.30665,0.168388 0.03782,-0.06119 0.173446,-0.167283 0.301395,-0.235759 0.213723,-0.114381 0.226684,-0.10079 0.159426,0.167185 -0.08737,0.348127 0.04397,0.375805 0.322556,0.06797 0.275683,-0.304626 0.428561,-0.281145 0.364125,0.05593 -0.05326,0.278587 0.06403,0.379971 0.194793,0.168389 0.03782,-0.06119 0.174071,-0.167618 0.302785,-0.236503 0.219149,-0.117285 0.229597,-0.103102 0.164354,0.223114 -0.07852,0.392596 0.07377,0.457108 0.43468,0.184131 0.336298,-0.254361 0.531993,-0.222439 0.37979,0.06195 -0.184066,0.343933 -0.05771,0.379146 0.330533,0.09211 0.389699,-0.288117 0.537354,-0.236003 0.345742,0.122027 -0.166082,0.310327 -0.05934,0.42128 0.195066,0.202758 0.430074,-0.369414 0.50498,-0.36526 0.419645,0.02327 -0.076,0.346017 -0.06602,0.361463 0.18379,0.284608 0.7286,-0.224157 0.800168,-0.221378 0.66781,0.02593 -0.189528,0.354138 -0.154542,0.373615 0.239522,0.13335 0.434864,-0.265142 0.579069,-0.281328 0.487364,-0.0547 -0.03734,0.09228 -0.0983,0.242912 -0.13547,0.334732 -0.05972,0.14755 -0.02074,0.147376 0.335573,-0.0015 0.350096,-0.14628 0.403147,-0.147038 0.403147,-0.0058 0,0.08948 -0.05034,0.193796 -0.111858,0.231818 -0.34063,0.210521 0.0898,0.436879 0.519845,0.273378 0.362361,-0.13777 0.430164,-0.08207 0.268288,0.220402 -0.145118,0.271155 -0.04061,0.29532 0.267932,0.06195 0.119422,-0.09033 0.311037,-0.16423 0.42581,-0.16423 0.193303,0 0.195849,0.01832 0.03455,0.248606 -0.258309,0.368788 -0.21303,0.434462 0.154223,0.223689 0.383489,-0.220093 0.52512,-0.141825 0.346686,0.191584 -0.167215,0.312444 -0.05411,0.48945 0.21926,0.343145 0.115265,-0.06169 0.29455,-0.11216 0.39841,-0.11216 0.156504,0 0.16461,0.02919 0.04734,0.17049 -0.20796,0.250576 -0.05212,0.327702 0.243615,0.120563 0.424977,-0.297665 0.575979,-0.234503 0.373847,0.156378 -0.199858,0.386481 -0.191254,0.392574 0.238894,0.169175 0.344958,-0.179156 0.494346,-0.05466 0.265412,0.221189 -0.209285,0.25217196 -0.03255,0.38350296 0.420571,0.31252196 l 0.417418,-0.06539 -0.223716,0.257291 -0.223716,0.25729 0.279645,-0.0718 c 0.153804,-0.03949 0.392901,-0.103236 0.531325,-0.141653 0.286903,-0.07962 0.334011,0.08424 0.08389,0.291816 -0.274491,0.227808 -0.191305,0.325018 0.163517,0.191087 0.410634,-0.154996 0.550839,-0.0386 0.294585,0.244555 -0.242029,0.26744 -0.07759,0.392122 0.383562,0.290836 0.322127,-0.07075 0.46453,0.0738 0.220986,0.224315 -0.215221,0.133015 -0.118903,0.291287 0.104504,0.171722 0.118999,-0.06369 0.328146,-0.115793 0.464769,-0.115793 0.241574,0 0.24282,0.0062 0.04533,0.224402 -0.259203,0.28641604 -0.171559,0.37354904 0.224336,0.22303004 0.386271,-0.14685904 0.484887,-0.06487 0.2432,0.202185 -0.255515,0.282343 -0.04389,0.493968 0.345806,0.345807 0.323289,-0.122915 0.464033,-0.04621 0.270435,0.147392 -0.220763,0.220762 -0.148981,0.312118 0.154562,0.196711 0.157809,-0.06 0.367929,-0.10909 0.46693,-0.10909 0.147225,0 0.135714,0.04714 -0.06321,0.25889 -0.301301,0.32072 -0.313385,0.457683 -0.02685,0.304335 0.118999,-0.06369 0.328145,-0.115793 0.464769,-0.115793 0.233565,0 0.237346,0.01222 0.06328,0.204559 -0.312283,0.345068 -0.235347,0.500907 0.206379,0.418039 0.405263,-0.07603 0.49349,0.01358 0.25168,0.255619 -0.111918,0.112024 -0.03937,0.124537 0.363538,0.0627 l 0.503361,-0.07726 -0.279645,0.313156 c -0.224057,0.250909 -0.238668,0.298385 -0.0735,0.238839 0.722177,-0.260354 0.901864,-0.20877 0.565905,0.162462 -0.248128,0.2741768 -0.09619,0.4643468 0.301251,0.3770548 0.343078,-0.07535 0.418071,0.03215 0.185103,0.265338 -0.111919,0.112024 -0.03937,0.124348 0.363538,0.06175 l 0.50336,-0.0782 -0.213709,0.240951 c -0.268294,0.302496 -0.188135,0.392361 0.213709,0.23958 0.392726,-0.149316 0.483988,-0.06388 0.230715,0.215982 -0.245425,0.271193 -0.124057,0.49293 0.232498,0.424771 0.283025,-0.0541 0.459858,0.07705 0.265688,0.197054 -0.252019,0.155756 -0.09176,0.261491 0.227601,0.150162 0.417643,-0.145591 0.540396,-0.05197 0.291892,0.222625 -0.249004,0.275146 -0.234848,0.389568 0.03062,0.247494 0.118999,-0.06369 0.300965,-0.115793 0.404368,-0.115793 0.175388,0 0.175569,0.01898 0.0027,0.282804 -0.238325,0.36373 -0.130561,0.532563 0.282077,0.441933 0.315083,-0.0692 0.453386,0.07753 0.213067,0.226055 -0.249019,0.153901 -0.08988,0.251916 0.219446,0.135156 0.423245,-0.159756 0.548092,-0.03645 0.273908,0.270525 -0.212964,0.238435 -0.212735,0.238968 0.06593,0.153123 0.153805,-0.04738 0.342565,-0.109791 0.419468,-0.138691 0.185516,-0.06972 0.176396,0.0353 -0.03048,0.351039 -0.149902,0.22878 -0.150545,0.276323 -0.0054,0.396809 0.09385,0.07789 0.26843,0.104041 0.405065,0.06067 0.204112,-0.06478 0.229243,-0.04192 0.167561,0.152419 -0.06661,0.209857 -0.03766,0.223162 0.352495,0.162006 l 0.425062,-0.06663 -0.213709,0.241226 c -0.268796,0.303408 -0.183114,0.400308 0.199726,0.225873 0.374242,-0.170516 0.500091,-0.05224 0.244697,0.229964 -0.264038,0.291759 -0.124986,0.486571 0.283295,0.396898 0.344349,-0.07563 0.416014,0.02975 0.185102,0.272184 -0.114339,0.120047 -0.08886,0.13152 0.139823,0.06295 0.153804,-0.04612 0.342564,-0.107498 0.419467,-0.136398 0.187627,-0.07051 0.176067,0.0358 -0.0397,0.365098 l -0.179519,0.273979 0.353015,-0.123061 c 0.428348,-0.149323 0.554415,-0.05859 0.303624,0.218535 -0.308744,0.341159 -0.23467,0.48659 0.205759,0.403965 0.399015,-0.07485 0.570062,0.113669 0.223715,0.246574 -0.09228,0.03541 -0.167786,0.111108 -0.167786,0.168212 0,0.05974 0.09187,0.05466 0.216362,-0.01197 0.265555,-0.14212 0.678501,-0.151799 0.678501,-0.0159 0,0.05494 -0.0755,0.128864 -0.167787,0.164277 -0.336862,0.129265 -0.161383,0.280069 0.25168,0.216289 l 0.419467,-0.06477 -0.268098,0.292239 c -0.344238,0.375233 -0.186508,0.620559 0.349868,0.544172 0.361535,-0.05149 0.363353,-0.04949 0.161142,0.177381 -0.203403,0.228202 -0.201877,0.229117 0.279644,0.167573 l 0.484165,-0.06188 -0.266891,0.290502 -0.26689,0.2905 0.434677,-0.06819 c 0.433712,-0.06804 0.434219,-0.06767 0.227969,0.165302 -0.272015,0.30726 -0.141719,0.504188 0.273286,0.413038 0.34364,-0.07548 0.41716,0.0311 0.185103,0.268316 -0.113178,0.115696 -0.05989,0.128244 0.279645,0.06585 0.457284,-0.08403 0.516928,-0.0097 0.238818,0.2976 -0.171097,0.189063 -0.157794,0.196029 0.251681,0.131805 0.431314,-0.06765 0.431843,-0.06726 0.225619,0.165684 -0.275752,0.311481 -0.149484,0.480429 0.294939,0.394634 l 0.359202,-0.06934 -0.217421,0.24558 -0.217419,0.245581 0.497064,-0.07727 c 0.48866,-0.07596 0.493755,-0.07353 0.301314,0.143842 -0.270389,0.305414 -0.249407,0.34041 0.167416,0.279232 0.327193,-0.04802 0.347997,-0.03502 0.210019,0.131231 -0.239777,0.288915 0.01709,0.527685 0.437854,0.407009 0.344987,-0.09894 0.594851,0.06189 0.282415,0.181784 -0.330956,0.127 -0.174509,0.255121 0.166407,0.136278 0.432067,-0.150619 0.538401,-0.04977 0.265485,0.251804 l -0.212151,0.234424 0.417909,-0.0784 c 0.400094,-0.07506 0.602599,0.07663 0.278088,0.208305 -0.108461,0.04401 -0.105555,0.08074 0.01296,0.163752 0.10133,0.07098 0.252005,0.05548 0.447432,-0.04603 0.3266,-0.169638 0.461407,-0.03263 0.235603,0.239444 -0.174569,0.210342 -0.0057,0.205867 0.27618,-0.0073 0.119422,-0.09033 0.288804,-0.16423 0.376403,-0.16423 0.132008,0 0.128349,0.04719 -0.02138,0.275709 -0.251122,0.383261 -0.228961,0.412758 0.1477,0.196585 0.341909,-0.196229 0.593679,-0.119145 0.363302,0.111231 -0.0728,0.0728 -0.132366,0.203669 -0.132366,0.290823 0,0.156528 0.144994,0.14695 0.600163,-0.03965 0.175833,-0.07208 0.196645,-0.04768 0.132284,0.155097 -0.08742,0.275449 -0.03483,0.295858 0.270705,0.105048 0.285409,-0.17824 0.390768,-0.05802 0.223335,0.254826 -0.119923,0.224079 -0.112095,0.241305 0.07483,0.164678 0.11482,-0.04707 0.309436,-0.111886 0.432479,-0.144038 0.182787,-0.04776 0.198135,-0.03111 0.08389,0.09099 -0.0769,0.0822 -0.139822,0.189716 -0.139822,0.238933 0,0.129069 0.421338,0.110343 0.50336,-0.02237 0.140759,-0.227753 0.281908,-0.103893 0.209657,0.183976 l -0.07425,0.295835 0.239906,-0.239906 c 0.326412,-0.326412 0.484337,-0.305463 0.394535,0.05233 l -0.07335,0.292241 0.313309,-0.205289 0.31331,-0.205288 -0.07472,0.297696 c -0.104004,0.414386 0.108138,0.500214 0.453066,0.183303 l 0.286684,-0.2634 -0.05574,0.307609 c -0.06652,0.367134 -0.0386,0.375665 0.274582,0.08389 0.296182,-0.275934 0.471953,-0.289329 0.36697,-0.02796 -0.219428,0.546293 -0.219527,0.54179 0.0078,0.352587 0.441779,-0.367747 0.532543,-0.380111 0.452618,-0.06166 -0.08844,0.352371 0.04162,0.381755 0.321391,0.07261 0.290152,-0.320615 0.393844,-0.276904 0.33168,0.139822 -0.02983,0.199946 -0.022,0.288034 0.01739,0.195751 0.09933,-0.232693 0.393874,-0.559289 0.504403,-0.559289 0.05045,0 0.05916,0.163592 0.01935,0.363538 l -0.07238,0.363538 0.295353,-0.335574 0.295354,-0.335573 0.0035,0.307609 c 0.0019,0.169185 0.04579,0.307609 0.09744,0.307609 0.05165,0 0.160987,-0.138424 0.242976,-0.307609 l 0.149073,-0.307609 0.06463,0.32368 0.06463,0.323679 0.220676,-0.435536 0.220676,-0.435538 0.03928,0.379517 0.03928,0.379518 0.239617,-0.379518 c 0.222923,-0.353077 0.24237,-0.361984 0.279146,-0.127837 0.05911,0.376348 0.213029,0.303699 0.296233,-0.139823 0.08839,-0.471182 0.202042,-0.497277 0.36539,-0.08389 l 0.121552,0.307609 0.0119,-0.298461 c 0.026,-0.652242 0.342694,-0.855893 0.351852,-0.226262 0.0042,0.290188 0.0107,0.286934 0.180463,-0.0905 l 0.176086,-0.391502 0.108502,0.307609 c 0.141308,0.400612 0.277639,0.390294 0.369505,-0.02796 0.08171,-0.372041 0.236949,-0.441666 0.31175,-0.139822 0.036,0.145262 0.0842,0.102019 0.186885,-0.167653 0.157754,-0.414299 0.334825,-0.382886 0.351718,0.0624 0.0111,0.292372 0.01476,0.290578 0.128039,-0.06253 0.139632,-0.43527 0.258637,-0.463481 0.353906,-0.08389 0.08128,0.323843 0.268957,0.367801 0.358181,0.08389 0.03383,-0.107663 0.114925,-0.321591 0.180199,-0.475396 l 0.11868,-0.279645 0.113465,0.391503 0.113463,0.391503 0.100911,-0.475396 c 0.120473,-0.567549 0.263542,-0.610229 0.374967,-0.111858 l 0.08128,0.363538 0.123359,-0.35551 c 0.181534,-0.523013 0.280652,-0.564137 0.363334,-0.150728 l 0.07369,0.368435 0.173557,-0.322604 c 0.154172,-0.286577 0.178472,-0.297621 0.217591,-0.09889 0.08056,0.409267 0.217077,0.41316 0.293019,0.0084 0.08957,-0.477434 0.233358,-0.515704 0.346607,-0.09225 l 0.08227,0.307609 0.164907,-0.390525 0.164907,-0.390526 0.131561,0.321861 0.13156,0.321861 0.134353,-0.294874 c 0.174584,-0.383169 0.362866,-0.377467 0.362866,0.011 0,0.303317 0.0017,0.302619 0.209029,-0.08389 0.225309,-0.420114 0.420676,-0.434063 0.367231,-0.02622 -0.0442,0.33733 0.139666,0.320089 0.29825,-0.02796 0.168733,-0.37033 0.355189,-0.355802 0.358903,0.02796 l 0.003,0.307609 0.190719,-0.307609 c 0.104895,-0.169185 0.229396,-0.307609 0.276668,-0.307609 0.04727,0 0.08917,0.138424 0.0931,0.307609 l 0.0072,0.307609 0.180927,-0.363538 c 0.2382,-0.478619 0.362922,-0.459715 0.368999,0.05593 l 0.0049,0.419467 0.246737,-0.447432 0.246736,-0.447431 0.03472,0.419467 c 0.03789,0.457774 0.291389,0.578011 0.412714,0.195751 0.101512,-0.319835 0.258563,-0.276108 0.301315,0.08389 0.03646,0.30699 0.03695,0.306765 0.24389,-0.111858 0.254973,-0.51578 0.404149,-0.536126 0.410066,-0.05593 l 0.0045,0.363538 0.16688,-0.307609 c 0.231928,-0.42751 0.382775,-0.383929 0.387173,0.111858 l 0.0037,0.419467 0.20996,-0.251681 c 0.115477,-0.138424 0.239643,-0.25168 0.275923,-0.25168 0.03628,0 0.06756,0.113256 0.06951,0.25168 0.0034,0.243417 0.01107,0.241581 0.233046,-0.05593 0.286705,-0.384293 0.434552,-0.391685 0.434552,-0.02173 v 0.285883 l 0.27611,-0.313848 0.27611,-0.313846 0.0035,0.363538 c 0.0042,0.42986 0.06398,0.449225 0.345422,0.111858 l 0.209959,-0.25168 0.0041,0.335573 0.0041,0.335574 0.251262,-0.391503 0.251262,-0.391502 0.03572,0.436307 0.03572,0.436306 0.243166,-0.380377 0.243167,-0.380378 0.03581,0.363538 c 0.0412,0.41823 0.133142,0.457041 0.331249,0.139822 0.199355,-0.319218 0.398616,-0.281277 0.332736,0.06336 l -0.05488,0.287071 0.299638,-0.287071 c 0.391253,-0.374845 0.464592,-0.362077 0.37898,0.06598 l -0.07061,0.353051 0.268222,-0.268222 0.268221,-0.268221 0.05687,0.319016 0.05687,0.319018 0.213088,-0.236061 c 0.291477,-0.322899 0.419207,-0.296075 0.340711,0.07155 -0.05597,0.262104 -0.04387,0.282788 0.08176,0.139822 0.08109,-0.09228 0.242077,-0.242303 0.357742,-0.333379 0.199615,-0.157179 0.206056,-0.145813 0.126776,0.223716 l -0.08352,0.389308 0.271935,-0.25168 c 0.351531,-0.325347 0.446207,-0.31798 0.35938,0.02796 -0.08455,0.33686 0.06886,0.361688 0.34557,0.05593 0.281607,-0.311174 0.407601,-0.279151 0.330083,0.08389 -0.05596,0.262104 -0.04387,0.282788 0.08176,0.139822 0.08109,-0.09228 0.24388,-0.243291 0.361748,-0.335574 0.202169,-0.158284 0.209967,-0.150364 0.137692,0.139823 -0.08377,0.33633 0.04387,0.404129 0.263221,0.139822 0.20643,-0.248733 0.36006,-0.203363 0.28408,0.08389 l -0.06657,0.25168 0.184533,-0.25168 c 0.243513,-0.332121 0.491702,-0.332121 0.409848,0 l -0.06203,0.25168 0.275462,-0.25168 c 0.362343,-0.331061 0.449103,-0.317517 0.358283,0.05593 -0.07277,0.299231 -0.06878,0.302276 0.146498,0.111857 0.121721,-0.107663 0.278685,-0.195751 0.348814,-0.195751 0.0734,0 0.09794,0.08306 0.05783,0.195751 -0.04589,0.128923 0.05504,0.08119 0.295618,-0.139822 l 0.365293,-0.335574 -0.0815,0.391503 -0.0815,0.391503 0.244938,-0.30761 c 0.134716,-0.169185 0.297078,-0.307609 0.360804,-0.307609 0.07053,0 0.08568,0.120355 0.03871,0.307609 l -0.07716,0.30761 0.267994,-0.251681 c 0.340325,-0.319609 0.457317,-0.319609 0.359077,0 l -0.07736,0.251681 0.293538,-0.271179 0.293539,-0.271179 v 0.305381 0.305381 l 0.27611,-0.313847 0.27611,-0.313847 0.0035,0.324946 c 0.0033,0.307664 0.01441,0.315101 0.208093,0.139823 0.273901,-0.247877 0.385163,-0.233507 0.298802,0.03859 -0.04958,0.15622 -0.0201,0.223715 0.09772,0.223715 0.0928,0 0.199832,-0.05034 0.237855,-0.111857 0.109402,-0.177018 0.310536,-0.129988 0.239193,0.05593 -0.03541,0.09228 -0.02179,0.167786 0.03027,0.167786 0.05206,0 0.157313,-0.0755 0.233901,-0.167786 0.199133,-0.239941 0.363139,-0.20714 0.279645,0.05593 -0.08636,0.272099 0.0249,0.28647 0.298801,0.03859 0.192611,-0.174311 0.204559,-0.169905 0.204559,0.07543 v 0.26055 l 0.25889,-0.243215 c 0.331578,-0.3115 0.447461,-0.308697 0.349973,0.0085 l -0.07736,0.25168 0.272783,-0.25168 c 0.359039,-0.331263 0.446426,-0.317519 0.355605,0.05593 -0.07277,0.299231 -0.06878,0.302277 0.146498,0.111858 0.276423,-0.2445 0.371481,-0.24722 0.371481,-0.01063 0,0.172259 0.01421,0.172259 0.204558,0 0.277665,-0.251284 0.393254,-0.232657 0.318971,0.0514 l -0.06185,0.236522 0.251767,-0.236522 c 0.336932,-0.316532 0.424338,-0.297961 0.334588,0.07109 -0.07277,0.299231 -0.06878,0.302277 0.146498,0.111858 0.276422,-0.2445 0.37148,-0.24722 0.37148,-0.01063 0,0.172259 0.01421,0.172259 0.204559,0 0.29143,-0.263741 0.369763,-0.230117 0.285361,0.122486 l -0.07363,0.307609 0.247406,-0.307609 c 0.316742,-0.393818 0.480112,-0.393818 0.384338,0 -0.07277,0.299231 -0.06878,0.302277 0.146498,0.111858 0.299392,-0.264817 0.402243,-0.246155 0.308223,0.05593 -0.07559,0.242879 -0.07066,0.244834 0.141092,0.05593 0.30237,-0.269747 0.472166,-0.246142 0.402295,0.05593 l -0.05822,0.251681 0.186889,-0.251681 c 0.235869,-0.317644 0.397917,-0.321971 0.397917,-0.01063 0,0.226558 0.01232,0.229906 0.204829,0.05569 0.223051,-0.201859 0.374805,-0.144337 0.278857,0.105701 -0.09127,0.23785 0.114494,0.18752 0.273361,-0.06686 0.208156,-0.333311 0.400474,-0.282243 0.309039,0.08206 l -0.07675,0.305777 0.240524,-0.305777 c 0.308645,-0.392378 0.473132,-0.39158 0.377457,0.0018 -0.07277,0.299231 -0.06878,0.302276 0.146498,0.111857 0.294713,-0.260678 0.402839,-0.247057 0.311954,0.0393 -0.0683,0.215188 -0.04412,0.228355 0.286101,0.155826 0.251828,-0.05531 0.337604,-0.04185 0.284178,0.0446 -0.114718,0.185617 0.05893,0.149086 0.291409,-0.06131 0.192161,-0.173903 0.204559,-0.170513 0.204559,0.05593 0,0.269554 0.112202,0.307823 0.313202,0.106823 0.1044,-0.1044 0.134229,-0.09197 0.134229,0.05593 0,0.217475 0.143529,0.240945 0.454786,0.07437 0.174243,-0.09325 0.216362,-0.07899 0.216362,0.07326 0,0.17304 0.01896,0.171904 0.223716,-0.0134 0.217139,-0.196508 0.223715,-0.195374 0.223715,0.03859 0,0.250293 0.159314,0.323894 0.279645,0.129195 0.03802,-0.06152 0.119468,-0.111858 0.180989,-0.111858 0.06152,0 0.08075,0.05034 0.04273,0.111858 -0.03802,0.06152 0.0064,0.111858 0.09865,0.111858 0.09228,0 0.198896,-0.05034 0.236918,-0.111858 0.109403,-0.177017 0.310537,-0.129988 0.239194,0.05593 -0.03541,0.09228 -0.01405,0.167787 0.04747,0.167787 0.06152,0 0.140832,-0.0755 0.176244,-0.167787 0.09656,-0.251628 0.264167,-0.201948 0.264167,0.0783 0,0.191401 0.02983,0.216258 0.134229,0.111858 0.18761,-0.187611 0.313202,-0.167202 0.313202,0.05089 0,0.172259 0.01421,0.172259 0.204564,0 0.28178,-0.25501 0.38413,-0.231718 0.29244,0.06656 l -0.0774,0.251681 0.29354,-0.271179 0.293542,-0.271179 v 0.265586 c 0,0.206566 0.0298,0.235757 0.13423,0.131356 0.18269,-0.182687 0.3132,-0.168703 0.3132,0.03356 0,0.188076 0.2847,0.228748 0.3915,0.05593 0.10941,-0.177018 0.31054,-0.129988 0.2392,0.05593 -0.0844,0.219865 0.0289,0.212936 0.28332,-0.01734 0.19249,-0.174195 0.20456,-0.170086 0.20456,0.06963 0,0.216071 0.026,0.233166 0.17128,0.112596 0.14128,-0.11725 0.19692,-0.107102 0.31759,0.05792 0.13288,0.181726 0.15276,0.183248 0.21671,0.0166 0.0915,-0.238373 0.30114,-0.237228 0.30114,0.0016 0,0.172259 0.0142,0.172259 0.20456,0 0.27385,-0.247832 0.39348,-0.23351 0.32232,0.03859 -0.0677,0.258753 0.0887,0.306103 0.18472,0.05593 0.0965,-0.251376 0.29512,-0.202058 0.29512,0.07327 0,0.226442 0.0124,0.229832 0.20456,0.05593 0.11251,-0.101819 0.23835,-0.185124 0.27965,-0.185124 0.0413,0 0.0751,0.08331 0.0751,0.185124 0,0.16648 0.0225,0.164734 0.22372,-0.01734 0.2177,-0.197014 0.22371,-0.195374 0.22371,0.06096 0,0.204885 0.0298,0.233595 0.13423,0.129195 0.18661,-0.186612 0.3132,-0.167512 0.3132,0.04725 0,0.152536 0.0281,0.158143 0.17632,0.03516 0.14607,-0.121231 0.19323,-0.118943 0.27498,0.01333 0.0786,0.127155 0.12695,0.131384 0.23757,0.02077 0.19148,-0.19148 0.35542,-0.174402 0.2774,0.0289 -0.0715,0.186311 0.0993,0.232186 0.20824,0.05593 0.10449,-0.169058 0.27965,-0.134025 0.27965,0.05593 0,0.204003 0.13086,0.2159 0.31786,0.0289 0.11061,-0.110611 0.15786,-0.10818 0.2321,0.01194 0.065,0.105222 0.11636,0.113395 0.16973,0.02703 0.11396,-0.184389 0.28703,-0.149608 0.28703,0.05768 0,0.152536 0.0281,0.158143 0.17631,0.03516 0.1457,-0.120917 0.19278,-0.119688 0.27112,0.0071 0.0783,0.126763 0.12542,0.127991 0.27112,0.0071 0.14926,-0.123878 0.17631,-0.115824 0.17631,0.05249 0,0.185529 0.0137,0.186444 0.20456,0.0137 0.26151,-0.236665 0.36718,-0.235868 0.27587,0.0021 -0.0563,0.146795 -0.0273,0.170123 0.13439,0.108069 0.12404,-0.0476 0.24187,-0.0219 0.29565,0.06447 0.0725,0.116362 0.13537,0.115125 0.33155,-0.0065 0.18573,-0.11517 0.26142,-0.118901 0.325,-0.01602 0.0594,0.09611 0.10456,0.09903 0.1594,0.01031 0.10439,-0.168914 0.28702,-0.156368 0.28702,0.01972 0,0.183411 0.48891,0.16601 0.7198,-0.02562 0.15038,-0.124805 0.17507,-0.108307 0.17507,0.117012 v 0.262301 l 0.17413,-0.248604 c 0.21672,-0.309423 0.42452,-0.325132 0.32923,-0.02489 -0.0738,0.232578 0.0996,0.312633 0.22785,0.105164 0.0467,-0.07555 0.12371,-0.04956 0.21233,0.07162 0.12779,0.174769 0.14476,0.175312 0.20946,0.0067 0.0934,-0.243338 0.30025,-0.235002 0.30455,0.01227 0.003,0.18643 0.009,0.18643 0.11742,0 0.15603,-0.26789 0.32661,-0.246131 0.32661,0.04166 0,0.200025 0.0268,0.21513 0.17049,0.09592 0.0938,-0.07782 0.20294,-0.109042 0.2426,-0.06938 0.0397,0.03966 0.16429,-0.0113 0.27694,-0.113254 0.19137,-0.173177 0.20484,-0.172052 0.20484,0.0171 0,0.195375 0.008,0.195375 0.22371,0 0.2177,-0.197014 0.22372,-0.195374 0.22372,0.06096 0,0.204885 0.0298,0.233595 0.13423,0.129195 0.18661,-0.186612 0.3132,-0.167512 0.3132,0.04725 0,0.152536 0.0281,0.158143 0.17631,0.03516 0.14391,-0.119435 0.19273,-0.119757 0.26566,-0.0018 0.0629,0.101813 0.11198,0.107956 0.16587,0.02077 0.11396,-0.184389 0.28702,-0.149608 0.28702,0.05768 0,0.152536 0.0281,0.158143 0.17631,0.03516 0.1457,-0.120916 0.19278,-0.119688 0.27112,0.0071 0.0784,0.126763 0.12543,0.127991 0.27112,0.0071 0.14927,-0.123879 0.17631,-0.115825 0.17631,0.05249 0,0.189309 0.0107,0.189134 0.22372,-0.0036 0.19395,-0.175523 0.22372,-0.178826 0.22372,-0.02482 0,0.139497 0.0961,0.168843 0.44743,0.136682 0.26527,-0.02428 0.44743,0.0071 0.44743,0.07711 0,0.0709 0.0704,0.05961 0.17631,-0.02826 0.11699,-0.09709 0.20167,-0.107395 0.25168,-0.03062 0.0414,0.06364 0.15087,0.122278 0.24316,0.130302 0.0923,0.008 0.99833,0.08682 2.01344,0.175104 3.13171,0.272354 5.36241,0.403998 6.87926,0.40598 2.07871,0.0027 4.18281,0.250887 5.20139,0.613489 1.45763,0.5189 2.87279,1.366908 3.86802,2.317851 1.10006,1.051095 1.8737,2.170513 2.7267,3.945372 0.81123,1.687986 1.85455,4.283883 1.75981,4.378628 -0.15925,0.159251 -0.47509,-0.303511 -1.07891,-1.58082 -1.10954,-2.347081 -2.97928,-5.007351 -4.34539,-6.182627 -0.90342,-0.777213 -2.19309,-1.464182 -3.52335,-1.876777 -0.94248,-0.292321 -1.05497,-0.302509 -2.62866,-0.238068 -0.90422,0.03703 -2.09706,0.123088 -2.65076,0.191248 -0.70832,0.08719 -3.41057,0.100427 -9.11642,0.04465 -4.46033,-0.0436 -8.1852,-0.0776 -8.27748,-0.07556 -0.56087,0.01243 -5.87124,-0.222845 -8.27748,-0.366738 -5.459513,-0.32648 -11.515901,-0.213191 -15.044893,0.281423 -0.430653,0.06036 -1.387038,0.162113 -2.1253,0.226119 -1.679211,0.145583 -3.072228,0.413864 -3.327772,0.640896 -0.155547,0.138193 -0.196236,0.359881 -0.198111,1.079402 -0.0018,0.691725 -0.07042,1.090341 -0.290648,1.688496 -0.158558,0.430653 -0.326065,0.999394 -0.372239,1.263869 -0.04617,0.264475 -0.139167,0.53608 -0.206654,0.603567 -0.17637,0.17637 -0.03325,0.740765 0.262952,1.036971 0.52629,0.526289 0.741832,1.155653 0.841749,2.45783 0.137055,1.78618 0.202463,2.154277 0.503922,2.83593 0.1485,0.335783 0.269999,0.795019 0.269999,1.020525 0,0.225507 0.0755,0.699892 0.167786,1.054189 0.398994,1.531841 0.226892,1.683543 -1.839091,1.621079 -0.796869,-0.02409 -1.481287,-0.07624 -1.520927,-0.115879 -0.129978,-0.129977 0.06949,-0.53348 0.522427,-1.056806 0.433987,-0.501433 0.44347,-0.530306 0.37559,-1.143533 -0.0383,-0.346011 -0.11273,-0.729784 -0.165398,-0.852827 -0.05267,-0.123044 -0.19945,-0.576068 -0.326178,-1.006721 -0.139838,-0.475197 -0.537789,-1.28808 -1.012314,-2.067818 -0.430042,-0.706648 -0.812451,-1.423937 -0.849799,-1.593975 -0.03735,-0.170032 -0.113607,-0.309154 -0.169467,-0.309154 -0.12557,0 -0.746899,-1.234957 -1.167762,-2.321051 -0.17284,-0.446034 -0.352453,-0.81097 -0.399142,-0.81097 -0.157954,0 -1.492928,1.465027 -1.628259,1.786885 -0.113497,0.269931 -0.100605,0.387771 0.08303,0.758927 0.273099,0.55198 0.420625,1.885237 0.423801,3.830087 0.0014,0.830545 0.02179,1.610535 0.0454,1.73331 0.02361,0.122775 -0.02693,0.475127 -0.112323,0.783005 -0.08539,0.307878 -0.217384,0.911208 -0.293316,1.340734 l -0.138056,0.780958 -0.500281,0.191716 c -0.761229,0.291714 -3.464516,0.237784 -3.464516,-0.06912 0,-0.0711 0.178829,-0.303025 0.397398,-0.515391 0.840595,-0.816736 0.934233,-0.942767 1.151778,-1.550225 0.207225,-0.578646 0.212651,-0.684408 0.07226,-1.408624 -0.08348,-0.430653 -0.322169,-1.185694 -0.53041,-1.677868 -0.208243,-0.492175 -0.443671,-1.19688 -0.523175,-1.566011 -0.0795,-0.369131 -0.191456,-0.822155 -0.24878,-1.006721 -0.05733,-0.184565 -0.133039,-0.612421 -0.168255,-0.950792 -0.03522,-0.33837 -0.102779,-0.657093 -0.150141,-0.708273 -0.06911,-0.07468 -1.23179,0.09994 -2.828136,0.424758 -0.228922,0.04658 -1.983927,-0.102791 -3.965255,-0.337489 -0.752186,-0.0891 -1.663348,-0.162001 -2.024804,-0.162001 h -0.657054 l -0.186596,0.699112 c -0.102628,0.384511 -0.210763,1.252808 -0.240299,1.929549 -0.02954,0.67674 -0.160236,1.708629 -0.290445,2.293086 -0.13021,0.584458 -0.261356,1.465338 -0.291437,1.957513 -0.03008,0.492175 -0.112315,0.964469 -0.182743,1.049543 -0.07043,0.08507 -0.178386,0.461122 -0.239908,0.835664 -0.127679,0.777307 -0.343511,0.962678 -1.124171,0.96552 -0.249164,8.95e-4 -0.500844,0.04906 -0.55929,0.106999 -0.151822,0.150516 -2.84804,0.255416 -3.154392,0.122726 z m 47.155095,-1.982355 c 0.0807,-0.03231 0.17722,-0.02834 0.21439,0.0088 0.0372,0.03717 -0.0289,0.06361 -0.14681,0.05875 -0.13031,-0.0054 -0.15681,-0.03187 -0.0676,-0.06758 z"
       id="path1991"
       inkscape:connector-curvature="0" />
  </g>
</svg>
