<?xml version="1.0" encoding="UTF-8" standalone="no"?>
<!-- Created with Inkscape (http://www.inkscape.org/) -->

<svg
   xmlns:dc="http://purl.org/dc/elements/1.1/"
   xmlns:cc="http://creativecommons.org/ns#"
   xmlns:rdf="http://www.w3.org/1999/02/22-rdf-syntax-ns#"
   xmlns:svg="http://www.w3.org/2000/svg"
   xmlns="http://www.w3.org/2000/svg"
   xmlns:sodipodi="http://sodipodi.sourceforge.net/DTD/sodipodi-0.dtd"
   xmlns:inkscape="http://www.inkscape.org/namespaces/inkscape"
   width="97.562859mm"
   height="37.493298mm"
   viewBox="0 0 97.56284 37.493297"
   version="1.1"
   id="svg8"
   inkscape:version="0.92.4 (5da689c313, 2019-01-14)"
   sodipodi:docname="dromeosaurus.svg">
  <defs
     id="defs2" />
  <sodipodi:namedview
     id="base"
     pagecolor="#ffffff"
     bordercolor="#666666"
     borderopacity="1.0"
     inkscape:pageopacity="0.0"
     inkscape:pageshadow="2"
     inkscape:zoom="1.4"
     inkscape:cx="187.11717"
     inkscape:cy="169.16385"
     inkscape:document-units="mm"
     inkscape:current-layer="layer1"
     showgrid="false"
     inkscape:window-width="1366"
     inkscape:window-height="745"
     inkscape:window-x="-8"
     inkscape:window-y="-8"
     inkscape:window-maximized="1" />
  <metadata
     id="metadata5">
    <rdf:RDF>
      <cc:Work
         rdf:about="">
        <dc:format>image/svg+xml</dc:format>
        <dc:type
           rdf:resource="http://purl.org/dc/dcmitype/StillImage" />
        <dc:title></dc:title>
      </cc:Work>
    </rdf:RDF>
  </metadata>
  <g
     inkscape:label="Camada 1"
     inkscape:groupmode="layer"
     id="layer1"
     transform="translate(-50.450477,-61.259828)">
    <path
       style="fill:#d5d5d5;fill-opacity:1;stroke-width:1"
       d="m 89.567928,98.66908 c -0.186103,-0.30112 0.619737,-1.397762 1.02711,-1.397762 0.36897,0 0.520712,-0.51934 0.344297,-1.17836 l -0.06273,-0.234326 -0.131333,0.284012 c -0.511589,1.106325 -0.961663,1.443575 -2.01612,1.510718 -0.525459,0.03346 -0.662762,0.0096 -0.767075,-0.133007 -0.177003,-0.242064 -0.566604,-0.126042 -0.832989,0.248062 -0.26153,0.367284 -0.39732,0.379703 -0.39732,0.03633 0,-0.665403 0.622335,-1.19655 1.520769,-1.297939 0.870287,-0.09821 1.359862,-0.503268 1.223734,-1.012475 -0.02364,-0.08843 -0.06788,-0.273906 -0.09831,-0.412176 -0.04927,-0.223879 -0.09673,-0.247451 -0.433538,-0.215331 -0.287308,0.0274 -0.423239,-0.01369 -0.565546,-0.170933 -0.103033,-0.11385 -0.274113,-0.207 -0.380179,-0.207 -0.306772,0 -0.749096,-0.373879 -0.819031,-0.692296 -0.0992,-0.451638 -0.420461,-0.798287 -0.73983,-0.798287 -0.397809,0 -0.742216,0.3132 -1.209694,1.100081 -0.225005,0.37874 -0.432052,0.688618 -0.460105,0.688618 -0.136214,0 0.07204,-1.015525 0.322764,-1.573951 0.77038,-1.7158 2.511435,-1.857741 3.358987,-0.273843 l 0.217733,0.406897 0.03194,-0.391043 c 0.03619,-0.443136 -0.234542,-1.034318 -1.015874,-2.218275 -0.462061,-0.700167 -0.505465,-0.735652 -1.485032,-1.214105 -0.72487,-0.35405 -1.330908,-0.563047 -2.151839,-0.742078 -1.03208,-0.225079 -2.099951,-0.566084 -3.092433,-0.987513 l -0.359698,-0.152734 -0.06228,0.45438 c -0.03425,0.249909 -0.03393,0.759372 6.95e-4,1.132142 0.05144,0.553443 0.03315,0.707608 -0.09973,0.840479 -0.08948,0.0895 -0.162702,0.248959 -0.162702,0.354365 0,0.105406 -0.04472,0.191647 -0.09937,0.191647 -0.05465,0 -0.09937,0.09166 -0.09937,0.203679 0,0.112023 -0.06992,0.33889 -0.155379,0.504149 -0.150538,0.291108 -0.162979,0.295488 -0.399343,0.140617 -0.236326,-0.154846 -0.25433,-0.148537 -0.574998,0.201491 -0.182069,0.198738 -0.478194,0.604157 -0.658058,0.90093 l -0.327024,0.539587 0.181544,0.337107 c 0.152899,0.283916 0.160646,0.362288 0.04909,0.4967 -0.148608,0.179062 0.149314,0.591247 0.510115,0.705761 0.264489,0.08394 0.122074,0.242983 -0.217586,0.242983 -0.201001,0 -0.416531,-0.122204 -0.713102,-0.404324 l -0.425033,-0.404326 -0.175383,0.21659 c -0.108062,0.133449 -0.175384,0.384016 -0.175384,0.652755 0,0.589977 -0.244146,0.828506 -0.869507,0.849506 -0.25961,0.0087 -0.717964,0.0272 -1.018565,0.04107 -0.300601,0.01387 -1.262027,0.0531 -2.136503,0.08717 -0.874475,0.03408 -1.866099,0.08858 -2.203609,0.12112 -0.583251,0.05623 -0.626818,0.04497 -0.879362,-0.227239 -0.302489,-0.32605 -0.489442,-0.328988 -1.116124,-0.01754 -0.514615,0.255752 -0.589242,0.202923 -0.368994,-0.261215 0.13183,-0.27781 0.314291,-0.427345 0.828312,-0.678832 0.658789,-0.322316 0.660178,-0.322517 2.033449,-0.294493 1.48093,0.03022 1.53818,0.0015 0.856144,-0.429018 -0.212468,-0.134125 -0.458792,-0.384038 -0.547388,-0.555362 -0.153205,-0.296268 -0.150602,-0.325677 0.05325,-0.601401 0.280086,-0.378837 0.229187,-0.588294 -0.196239,-0.807555 -0.479701,-0.247235 -0.977569,-0.166248 -1.912623,0.311123 -0.851897,0.434918 -1.008644,0.355018 -0.393606,-0.200633 1.332522,-1.203853 2.458212,-1.468543 3.460485,-0.813683 0.584711,0.382036 0.767995,0.690145 0.817476,1.37422 0.05049,0.69794 0.240444,1.048346 0.56832,1.048346 0.466794,0 2.475184,-2.03936 3.016614,-3.063133 0.270855,-0.51215 0.255046,-1.559184 -0.04077,-2.700454 -0.598891,-2.310516 -1.562371,-3.604414 -2.353341,-3.160401 -0.126928,0.07125 -0.243209,0.134526 -0.258402,0.14061 -0.01519,0.0061 0.01574,0.125116 0.06874,0.264517 0.109701,0.288536 0.772379,0.774537 1.326703,0.972991 0.498898,0.178611 0.412498,0.345378 -0.168214,0.324679 -1.274769,-0.04544 -2.238115,-1.01784 -2.490954,-2.514377 -0.09814,-0.58087 -0.462497,-1.024442 -1.192957,-1.452307 -0.327928,-0.192082 -0.752744,-0.442712 -0.944036,-0.556954 -0.191291,-0.114242 -0.934957,-0.557613 -1.65259,-0.985269 -3.271917,-1.949822 -4.636603,-3.062392 -5.966103,-4.863915 -0.773633,-1.048304 -1.171009,-1.996813 -1.672227,-3.991497 -0.458162,-1.823334 -0.860685,-2.652784 -1.65945,-3.419514 -0.70505,-0.676773 -0.785135,-0.701455 -3.06111,-0.943439 -1.379732,-0.146693 -2.162035,-0.154685 -4.149454,-0.04239 l -1.51609,0.08566 -0.396825,-0.417149 c -0.482676,-0.507399 -0.532925,-1.014501 -0.168764,-1.70314 0.191848,-0.36279 0.36936,-0.507985 1.117937,-0.91441 1.429625,-0.776187 2.978115,-1.498741 4.41759,-2.061329 0.737839,-0.288369 1.712507,-0.677654 2.165929,-0.865078 2.776071,-1.1475 5.066837,-1.006151 6.818478,0.420726 0.851545,0.693664 1.41883,1.679202 2.101533,3.650968 0.274725,0.793453 0.806872,1.703823 1.261136,2.157484 0.667877,0.666994 2.130222,1.144176 3.304046,1.078155 0.273274,-0.01537 0.765166,0.0056 1.093094,0.04666 0.327929,0.04103 0.976332,0.122097 1.440897,0.180141 1.711634,0.213855 3.640962,0.745119 5.564844,1.532345 1.011112,0.413734 2.129049,0.865372 2.484305,1.003643 0.355255,0.13827 1.227246,0.534115 1.937758,0.879656 1.502463,0.730689 1.840433,0.869714 3.974888,1.635081 4.448928,1.595282 5.388117,1.862859 8.049148,2.293209 0.655857,0.106067 1.863229,0.348763 2.683046,0.539323 2.432357,0.565379 6.644387,1.252274 13.117137,2.139134 0.76517,0.10484 2.08433,0.303021 2.93148,0.440405 0.84715,0.137383 2.36754,0.34478 3.37866,0.460882 3.5973,0.413063 4.03383,0.46966 4.81955,0.624857 0.43724,0.08636 1.95763,0.362629 3.37865,0.61392 1.42103,0.251292 3.03085,0.540941 3.5774,0.643665 0.54655,0.102724 1.53033,0.28319 2.18619,0.401036 0.65586,0.117846 2.19861,0.456976 3.42834,0.753624 1.22973,0.296647 2.83575,0.671509 3.56892,0.833025 2.06383,0.454656 2.65688,0.638364 5.01625,1.553872 2.91679,1.131806 3.76815,1.570217 3.44138,1.772172 -0.11123,0.06874 -1.44132,-0.107619 -1.63193,-0.216385 -0.0603,-0.0344 -0.009,0.04815 0.11395,0.183434 l 0.22355,0.245975 -0.2658,0.21388 c -0.28361,0.2282 -0.9606,0.229709 -1.86002,0.0041 -0.24856,-0.06234 -0.40844,-0.06271 -0.44718,-0.0011 -0.19521,0.310764 -1.02419,0.33315 -1.92177,0.0519 -0.37889,-0.118722 -0.57384,-0.125858 -1.00322,-0.03672 -0.38889,0.08073 -0.66468,0.08112 -1.02031,0.0014 -0.26805,-0.06007 -0.8451,-0.100181 -1.28234,-0.08913 -0.90013,0.02276 -1.3244,-0.03901 -2.20759,-0.3214 -0.43739,-0.139852 -0.9449,-0.204039 -1.73901,-0.219942 -0.93687,-0.01876 -1.19816,-0.05988 -1.58801,-0.249881 -0.32113,-0.156518 -0.53801,-0.204035 -0.6956,-0.152403 -0.34743,0.11383 -1.51789,0.05092 -1.96095,-0.105405 -0.29608,-0.104464 -0.48415,-0.113543 -0.76213,-0.03679 -0.40429,0.11163 -1.03594,0.0511 -1.72922,-0.165697 -0.28603,-0.08945 -0.57251,-0.112854 -0.79498,-0.06495 -0.42125,0.0907 -1.49177,-0.09503 -1.83176,-0.317802 -0.14992,-0.09823 -0.26821,-0.122267 -0.30542,-0.06206 -0.0923,0.149365 -0.81698,0.117334 -1.14145,-0.05045 -0.20556,-0.106299 -0.35713,-0.122285 -0.53137,-0.05604 -0.36276,0.137922 -0.85693,0.09796 -1.34075,-0.108427 -0.51744,-0.220729 -0.7984,-0.231532 -1.0702,-0.04116 -0.26167,0.183283 -0.72914,0.08339 -1.41561,-0.302489 -0.43158,-0.242601 -0.53992,-0.267857 -0.70551,-0.164446 -0.16093,0.100502 -0.27724,0.08719 -0.65573,-0.07505 -0.25305,-0.108472 -0.6462,-0.223657 -0.87366,-0.255968 -0.52631,-0.07476 -0.96828,-0.271542 -1.21014,-0.538801 -0.1603,-0.177129 -0.26065,-0.200055 -0.64457,-0.147253 -0.46864,0.06445 -1.45484,-0.213501 -1.79072,-0.504699 -0.10048,-0.08712 -0.20064,-0.100012 -0.29811,-0.03838 -0.38127,0.241097 -1.51771,-0.02763 -2.01321,-0.476051 -0.14257,-0.129025 -0.23733,-0.142113 -0.4494,-0.06207 -0.26813,0.10121 -0.77405,-0.04482 -1.12576,-0.324938 -0.0747,-0.0595 -0.33705,-0.134696 -0.583,-0.16711 -0.24594,-0.03241 -0.69312,-0.132142 -0.99372,-0.22162 -0.56761,-0.168961 -0.64201,-0.188882 -2.93022,-0.784653 -0.76447,-0.199044 -2.21779,-0.494067 -3.2296,-0.655607 -1.0118,-0.161537 -2.15266,-0.363198 -2.535247,-0.448132 -0.38259,-0.08493 -1.075707,-0.238514 -1.540272,-0.34129 -0.964499,-0.213376 -2.725906,-0.430188 -3.676772,-0.452575 -0.355256,-0.0084 -1.263869,-0.04483 -2.019142,-0.08103 -1.411781,-0.06767 -1.830598,0.01351 -2.081632,0.403494 -0.04191,0.06511 -0.287113,0.150005 -0.544896,0.188662 -0.257784,0.03866 -0.613335,0.130719 -0.790116,0.204583 -0.17678,0.07386 -0.501725,0.134297 -0.722099,0.134297 -0.481262,0 -0.528223,0.146697 -0.07772,0.242785 l 0.32296,0.06888 -0.239411,0.167125 c -0.332542,0.232136 -1.008722,0.502723 -1.272897,0.509376 -0.13631,0.0034 -0.201935,0.05385 -0.171917,0.132076 0.02876,0.07493 -0.08234,0.175927 -0.272443,0.247685 l -0.320996,0.121163 0.368697,0.37758 c 0.493237,0.50512 0.485457,0.661703 -0.02879,0.579471 -0.307895,-0.04923 -0.397489,-0.03156 -0.397489,0.07839 0,0.07807 0.0559,0.164632 0.124216,0.192354 0.09907,0.0402 0.09886,0.06834 -0.0011,0.139018 -0.095,0.0672 -0.06572,0.144565 0.121153,0.320126 0.238753,0.224296 0.257065,0.511534 0.02012,0.315629 -0.06345,-0.05246 -0.237598,-0.07192 -0.38699,-0.04324 l -0.271622,0.05214 0.197092,0.250563 c 0.23661,0.3008 0.249439,0.422505 0.04454,0.422505 -0.119851,0 -0.130579,0.04106 -0.05004,0.191545 0.129976,0.242863 0.04157,0.478697 -0.209303,0.55832 -0.161785,0.05135 -0.173538,0.08744 -0.06935,0.212977 0.207229,0.249694 1.182969,0.874118 1.891348,1.210365 0.669897,0.317979 1.466981,1.071208 1.777774,1.679959 0.07603,0.148929 0.223533,0.391023 0.327777,0.537988 0.234724,0.330919 0.304771,0.913825 0.100389,0.835396 -0.0759,-0.02913 -0.138008,-0.03385 -0.138008,-0.01049 0,0.09188 0.8283,1.143757 0.900648,1.143757 0.04238,0 0.322632,0.22444 0.622777,0.498757 0.505231,0.461751 0.564838,0.490045 0.803406,0.381345 0.141728,-0.06458 0.283479,-0.09162 0.315004,-0.06009 0.115952,0.115951 -0.18167,0.490583 -0.469432,0.590897 -0.205487,0.07163 -0.278615,0.149982 -0.238225,0.255236 0.03205,0.08353 0.08324,0.491839 0.113746,0.90735 0.03051,0.415511 0.100479,0.889628 0.155493,1.053592 0.05501,0.163964 0.157122,0.697176 0.226906,1.184915 0.141125,0.986353 -0.0022,1.565869 -0.468115,1.892178 -0.255143,0.178709 -1.076308,0.203676 -1.242214,0.03777 -0.08673,-0.08673 -0.181872,-0.03822 -0.389807,0.198745 -0.289647,0.330087 -0.38127,0.372633 -0.475196,0.220656 z"
       id="path1017"
       inkscape:connector-curvature="0" />
  </g>
</svg>
