<?xml version="1.0" encoding="UTF-8" standalone="no"?>
<!-- Created with Inkscape (http://www.inkscape.org/) -->

<svg
   xmlns:dc="http://purl.org/dc/elements/1.1/"
   xmlns:cc="http://creativecommons.org/ns#"
   xmlns:rdf="http://www.w3.org/1999/02/22-rdf-syntax-ns#"
   xmlns:svg="http://www.w3.org/2000/svg"
   xmlns="http://www.w3.org/2000/svg"
   xmlns:sodipodi="http://sodipodi.sourceforge.net/DTD/sodipodi-0.dtd"
   xmlns:inkscape="http://www.inkscape.org/namespaces/inkscape"
   width="57.043091mm"
   height="34.028328mm"
   viewBox="0 0 57.043079 34.028327"
   version="1.1"
   id="svg8"
   inkscape:version="0.92.4 (5da689c313, 2019-01-14)"
   sodipodi:docname="edmontosaurus.svg">
  <defs
     id="defs2" />
  <sodipodi:namedview
     id="base"
     pagecolor="#ffffff"
     bordercolor="#666666"
     borderopacity="1.0"
     inkscape:pageopacity="0.0"
     inkscape:pageshadow="2"
     inkscape:zoom="1.4"
     inkscape:cx="95.94853"
     inkscape:cy="-18.390625"
     inkscape:document-units="mm"
     inkscape:current-layer="layer1"
     showgrid="false"
     inkscape:window-width="1366"
     inkscape:window-height="745"
     inkscape:window-x="-8"
     inkscape:window-y="-8"
     inkscape:window-maximized="1" />
  <metadata
     id="metadata5">
    <rdf:RDF>
      <cc:Work
         rdf:about="">
        <dc:format>image/svg+xml</dc:format>
        <dc:type
           rdf:resource="http://purl.org/dc/dcmitype/StillImage" />
        <dc:title></dc:title>
      </cc:Work>
    </rdf:RDF>
  </metadata>
  <g
     inkscape:label="Camada 1"
     inkscape:groupmode="layer"
     id="layer1"
     transform="translate(-69.798529,-39.006656)">
    <path
       style="fill:#d5d5d5;fill-opacity:1;stroke-width:1"
       d="m 101.15892,72.978197 c -0.0536,-0.03392 -0.15198,-0.04739 -0.21874,-0.02994 -0.24892,0.06509 -0.47062,-0.220403 -0.47398,-0.610375 -0.002,-0.197521 0.0155,-0.347609 0.0383,-0.333529 0.0228,0.01408 0.0447,-0.02838 0.0487,-0.09435 0.0492,-0.808491 0.0129,-1.010874 -0.15634,-0.870447 -0.0739,0.06136 -0.10647,0.06382 -0.10647,0.0081 0,-0.04417 -0.0341,-0.0803 -0.0758,-0.0803 -0.0417,0 -0.0516,0.04024 -0.022,0.08943 0.0336,0.05589 0.006,0.05091 -0.0728,-0.01329 -0.127291,-0.103352 -0.198621,-0.06121 -0.278041,0.164257 -0.0589,0.1673 -1.65736,0.01215 -1.771113,-0.171915 -0.04844,-0.07838 -0.07853,-0.07864 -0.171515,-0.0015 -0.09109,0.0756 -0.133728,0.07619 -0.221812,0.0031 -0.119446,-0.09913 -0.121463,-0.09819 -0.233474,0.10875 -0.07485,0.138294 -0.07968,0.137096 -0.143948,-0.03577 -0.03657,-0.09837 -0.09501,-0.168523 -0.129845,-0.155891 -0.09968,0.03614 -0.182868,0.221349 -0.134542,0.299544 0.06986,0.113027 -0.131284,0.08224 -0.318241,-0.04871 -0.09398,-0.06583 -0.148909,-0.08415 -0.122066,-0.04072 0.112267,0.181653 -0.101021,0.141936 -0.393618,-0.0733 -0.406445,-0.29898 -0.606036,-0.410193 -0.73616,-0.410193 -0.145479,0 -0.212367,-0.419651 -0.152222,-0.955041 0.06764,-0.602085 0.0647,-0.651834 -0.05431,-0.920236 -0.111522,-0.251516 -0.209984,-0.498801 -0.221858,-0.557189 -0.004,-0.01967 -0.03136,-0.07364 -0.0608,-0.119924 -0.02944,-0.04628 -0.136196,-0.336035 -0.237239,-0.643888 -0.101044,-0.307855 -0.290753,-0.81729 -0.421576,-1.13208 -0.440914,-1.060942 -0.486257,-2.045975 -0.112641,-2.447005 0.274329,-0.294457 0.310219,-0.473762 0.368599,-1.841495 0.05668,-1.32792 0.248452,-2.413999 0.478233,-2.708432 0.03684,-0.04721 0.08472,-0.158272 0.106394,-0.246806 0.03792,-0.154913 0.02013,-0.161379 -0.472583,-0.171761 -0.968879,-0.02042 -1.216479,0.0645 -1.300256,0.445932 -0.02537,0.115496 -0.0757,0.191715 -0.111843,0.169375 -0.03615,-0.02234 -0.06572,0.0028 -0.06572,0.05579 0,0.05302 -0.06439,0.222704 -0.143086,0.377065 -0.0787,0.15436 -0.143086,0.354934 -0.143086,0.445719 0,0.167008 -0.733243,1.889045 -1.028735,2.416005 -0.08826,0.157394 -0.221976,0.431047 -0.29715,0.608116 -0.07517,0.177069 -0.229362,0.481766 -0.342641,0.677105 -0.234034,0.403568 -0.228495,0.822165 0.01802,1.361873 0.07189,0.157395 0.166342,0.431047 0.209894,0.608116 0.07633,0.310342 0.10615,0.503518 0.190304,1.232834 0.02148,0.186199 0.134415,0.572532 0.250955,0.858517 0.116539,0.285985 0.212001,0.577347 0.212135,0.647471 5.01e-4,0.249847 0.200838,0.600568 0.545118,0.954217 0.37099,0.381085 0.550095,0.472976 1.16107,0.59569 0.210317,0.04224 0.45089,0.124779 0.534606,0.183417 0.08372,0.05864 0.205778,0.106613 0.271247,0.106613 0.138991,0 0.85073,0.646485 0.85073,0.772734 0,0.04724 -0.09455,0.08578 -0.210407,0.08578 -0.115724,0 -0.23141,0.03398 -0.257078,0.07552 -0.02885,0.04668 -0.180701,0.0585 -0.39771,0.03095 -0.290001,-0.03682 -0.351038,-0.02507 -0.351038,0.06757 0,0.130887 -0.2917,0.1525 -0.506526,0.03753 -0.07667,-0.04104 -0.135132,-0.04908 -0.12991,-0.01789 0.02442,0.145903 -0.02496,0.158642 -0.250164,0.06454 -0.317287,-0.132571 -1.189499,-0.168394 -1.770235,-0.07271 -0.15424,0.02541 -0.328987,0.0062 -0.429258,-0.04727 -0.154106,-0.08213 -0.160401,-0.07957 -0.07093,0.0289 0.08599,0.104234 0.07995,0.119027 -0.04855,0.119027 -0.08071,0 -0.189279,-0.04204 -0.241275,-0.09343 -0.122609,-0.121174 -0.34494,-0.204974 -0.34494,-0.130012 0,0.03203 -0.152923,0.01985 -0.339829,-0.02707 -0.493555,-0.123896 -0.554459,-0.281054 -0.554459,-1.430751 0,-0.750852 -0.02413,-0.974177 -0.125201,-1.159022 -0.09439,-0.172612 -0.1252,-0.396249 -0.1252,-0.908684 0,-0.373847 -0.04499,-0.850313 -0.09998,-1.058813 -0.115905,-0.439502 -0.389074,-1.148044 -0.463093,-1.201163 -0.02793,-0.02005 -0.08827,-0.162207 -0.134081,-0.315914 -0.08627,-0.289444 -0.04445,-0.595197 0.167264,-1.222937 0.170736,-0.506239 0.304649,-1.544055 0.353384,-2.738704 0.04559,-1.11762 0.150639,-1.779571 0.313555,-1.975873 0.04198,-0.05059 0.06186,-0.106447 0.04417,-0.124135 -0.01769,-0.01769 0.063,-0.143503 0.179311,-0.27959 0.116308,-0.136087 0.211544,-0.271577 0.211636,-0.301088 7.2e-5,-0.02951 0.06456,-0.118046 0.143255,-0.196744 0.177998,-0.177997 0.188039,-0.488271 0.01789,-0.552701 -0.06886,-0.02607 -0.168039,-0.08975 -0.220398,-0.141498 -0.05236,-0.05175 -0.129769,-0.07272 -0.172026,-0.04661 -0.04226,0.02612 -0.05663,0.01481 -0.03195,-0.02513 0.02468,-0.03993 -0.08302,-0.130285 -0.239347,-0.200777 -0.156322,-0.07049 -0.284222,-0.151044 -0.284222,-0.179006 0,-0.02796 -0.09658,-0.172374 -0.21463,-0.320916 -0.118046,-0.148542 -0.214629,-0.331049 -0.214629,-0.40557 0,-0.07452 -0.04966,-0.154552 -0.110362,-0.177844 -0.0607,-0.02329 -0.171027,-0.161262 -0.245172,-0.306599 -0.07415,-0.145337 -0.183541,-0.304692 -0.243101,-0.354122 -0.05956,-0.04943 -0.09121,-0.13438 -0.07034,-0.188776 0.02087,-0.0544 -0.04201,-0.178869 -0.139752,-0.276606 -0.09774,-0.09774 -0.160432,-0.194974 -0.139324,-0.216082 0.02111,-0.02111 -0.0053,-0.09101 -0.05868,-0.155334 -0.05339,-0.06433 -0.108362,-0.201929 -0.122168,-0.305787 -0.0323,-0.24298 -0.694805,-1.268174 -0.802815,-1.242319 -0.04517,0.01081 -0.06508,-0.0079 -0.04425,-0.04162 0.04902,-0.07932 -1.028782,-1.058762 -1.130507,-1.027335 -0.04246,0.01312 -0.05413,7.87e-4 -0.02594,-0.0274 0.04542,-0.04542 -0.454558,-0.461474 -0.55455,-0.461474 -0.02173,0 -0.166669,-0.117653 -0.322087,-0.261451 -0.155418,-0.143798 -0.344426,-0.296722 -0.420018,-0.33983 -0.07559,-0.04311 -0.322299,-0.188253 -0.548239,-0.322545 -0.225941,-0.134293 -0.526495,-0.267231 -0.667898,-0.29542 -0.141404,-0.02819 -0.64343,-0.171722 -1.115615,-0.318965 -0.472184,-0.147242 -0.961796,-0.292309 -1.088026,-0.322371 -0.126231,-0.03006 -0.466669,-0.170273 -0.756529,-0.311581 -0.292835,-0.142757 -0.596182,-0.243605 -0.682665,-0.226949 -0.08561,0.01649 -0.155646,1.43e-4 -0.155646,-0.03626 0,-0.08691 -0.684769,-0.433169 -0.742489,-0.37545 -0.02447,0.02447 -0.04448,0.0069 -0.04448,-0.03898 0,-0.04591 -0.03284,-0.08347 -0.07298,-0.08347 -0.04014,0 -0.341518,-0.128777 -0.669735,-0.286172 -0.328218,-0.157395 -0.614653,-0.286172 -0.636523,-0.286172 -0.02187,0 -0.195357,-0.06966 -0.385525,-0.154794 -0.190168,-0.08514 -0.369907,-0.149524 -0.399418,-0.143086 -0.02951,0.0064 -0.05366,-0.01832 -0.05366,-0.05502 0,-0.0367 -0.07244,-0.0872 -0.160972,-0.112226 -0.169583,-0.04794 -0.211709,-0.06587 -1.234118,-0.525127 -0.354138,-0.159077 -0.708277,-0.299147 -0.786974,-0.311265 -0.0787,-0.01212 -0.159183,-0.03977 -0.178858,-0.06145 -0.108234,-0.119259 -0.817899,-0.429056 -0.905688,-0.395369 -0.05761,0.02211 -0.084,0.0084 -0.05964,-0.03106 0.02404,-0.0389 -0.01869,-0.07072 -0.09495,-0.07072 -0.117845,0 -0.513931,-0.153744 -1.121785,-0.43543 -0.0787,-0.03647 -0.287961,-0.09564 -0.46503,-0.1315 -0.47659,-0.09651 -1.273334,-0.38957 -1.397976,-0.514212 -0.142408,-0.142408 0.05203,-0.337412 0.373791,-0.374875 0.119145,-0.01387 0.245405,-0.04271 0.280576,-0.06409 0.03517,-0.02138 0.498574,-0.09141 1.029781,-0.155632 0.985114,-0.119095 1.754071,-0.285804 1.912867,-0.414706 0.04869,-0.03952 0.137499,-0.05306 0.197365,-0.03009 0.05987,0.02297 0.189498,0.01111 0.288072,-0.02637 0.155016,-0.05894 0.466739,-0.114172 1.822739,-0.322972 0.13772,-0.02121 0.395275,-0.06996 0.572344,-0.108337 0.17707,-0.03838 0.443544,-0.08431 0.592166,-0.102076 0.148622,-0.01776 0.296458,-0.04851 0.328523,-0.06833 0.05252,-0.03246 0.54392,-0.130327 1.11829,-0.222721 0.118046,-0.01899 0.311212,-0.06627 0.429258,-0.105059 0.232602,-0.07644 1.493615,-0.261382 2.468237,-0.361998 0.803263,-0.08292 0.926785,-0.105086 1.180461,-0.211799 0.118046,-0.04966 0.262921,-0.09757 0.321944,-0.10648 0.05902,-0.0089 0.252189,-0.06678 0.429259,-0.128613 0.177069,-0.06183 0.450721,-0.130011 0.608116,-0.151513 0.814789,-0.111308 1.579547,-0.294244 2.003207,-0.479182 0.0787,-0.03435 0.384544,-0.09702 0.679659,-0.139264 0.295115,-0.04224 0.745837,-0.107913 1.001603,-0.145936 0.255767,-0.03802 0.819169,-0.06155 1.252005,-0.0523 0.603927,0.01292 0.845215,-0.01024 1.037374,-0.09957 0.256485,-0.119229 0.663475,-0.240243 1.527983,-0.454332 0.408241,-0.101098 0.642459,-0.111628 1.39509,-0.06272 1.061698,0.06899 1.249352,0.07021 1.584142,0.01032 0.475039,-0.08497 1.700287,-0.05468 2.420659,0.05985 0.397335,0.06317 0.956919,0.126577 1.24352,0.140904 1.11438,0.05571 2.291791,0.336807 3.871211,0.92423 0.26861,0.0999 0.51007,0.175625 0.53657,0.168269 0.0265,-0.0074 0.11976,0.02633 0.20725,0.07487 0.0875,0.04853 0.28585,0.09562 0.44081,0.104628 0.15495,0.009 0.27654,0.045 0.27019,0.07996 -0.006,0.03496 0.21677,0.181493 0.49582,0.32562 0.27906,0.144128 0.601,0.335221 0.71544,0.424652 0.11443,0.08943 0.16284,0.139142 0.10757,0.110469 -0.0612,-0.03176 -0.0826,-0.02326 -0.0548,0.02176 0.0251,0.04064 0.15887,0.127615 0.29723,0.193269 0.13835,0.06565 0.25155,0.16329 0.25155,0.216969 0,0.120339 0.40269,0.468033 0.54206,0.468033 0.056,0 0.0938,0.03418 0.0839,0.07596 -0.0165,0.07004 0.21713,0.219122 0.66178,0.422304 0.0984,0.04495 0.32099,0.207405 0.49471,0.361007 0.17372,0.153602 0.35079,0.259399 0.39349,0.235105 0.0427,-0.02429 0.053,-0.0171 0.023,0.016 -0.0549,0.0604 0.28266,0.463575 0.3881,0.463575 0.031,0 0.20115,0.144875 0.37822,0.321944 0.17707,0.177069 0.35568,0.321944 0.39691,0.321944 0.0412,0 0.10978,0.07244 0.15235,0.160972 0.0426,0.08854 0.21526,0.26236 0.38377,0.386279 0.27094,0.19925 0.32594,0.215122 0.47553,0.137237 0.093,-0.04844 0.16149,-0.124522 0.15213,-0.169075 -0.009,-0.04455 0.0228,-0.06779 0.0715,-0.05164 0.0847,0.02809 0.62515,-0.729246 0.62515,-0.876064 0,-0.03889 0.0786,-0.248348 0.17457,-0.465458 0.096,-0.217111 0.15236,-0.419445 0.1252,-0.449631 -0.0272,-0.03019 -0.0133,-0.03431 0.0307,-0.0092 0.0502,0.02864 0.12717,-0.103881 0.20608,-0.354762 0.0693,-0.220259 0.24562,-0.630048 0.39186,-0.910642 0.14624,-0.280594 0.27158,-0.566511 0.27854,-0.635371 0.007,-0.06886 0.0188,-0.187225 0.0263,-0.263034 0.008,-0.07581 0.0352,-0.124509 0.0615,-0.108224 0.0263,0.01628 0.0901,-0.07461 0.14158,-0.201996 0.0515,-0.127383 0.11515,-0.247703 0.14141,-0.267377 0.0262,-0.01967 0.0983,-0.132355 0.16013,-0.250401 0.0618,-0.118046 0.31302,-0.423893 0.55821,-0.67966 0.24519,-0.255766 0.43964,-0.491948 0.4321,-0.524848 -0.008,-0.0329 0.0516,-0.0769 0.13144,-0.09777 0.0798,-0.02087 0.14518,-0.05835 0.14523,-0.08327 6e-5,-0.02492 0.19318,-0.174091 0.42916,-0.331486 0.23599,-0.157394 0.42911,-0.312218 0.42916,-0.344052 6e-5,-0.03183 0.0314,-0.03857 0.0695,-0.01496 0.0925,0.05715 0.51441,-0.16449 0.633,-0.332496 0.0519,-0.0735 0.12096,-0.117171 0.15351,-0.09706 0.0966,0.05972 0.97997,-0.301926 1.29515,-0.530239 0.4593,-0.332711 0.92001,-0.40345 1.94179,-0.298145 0.47546,0.049 1.02074,0.15069 1.21174,0.225975 0.191,0.07529 0.34728,0.115102 0.34728,0.08848 0,-0.02662 0.0402,6.7e-5 0.0894,0.05931 0.0885,0.10659 0.89122,0.383034 1.30566,0.44965 0.11804,0.01897 0.58486,0.151679 1.03737,0.2949 0.45251,0.143221 0.89519,0.277515 0.98372,0.298431 0.0885,0.02092 0.16097,0.06647 0.16097,0.101232 0,0.03476 0.0403,0.0634 0.0894,0.06364 0.0492,2.43e-4 0.17206,0.04356 0.27306,0.09627 0.19808,0.103372 0.50329,0.192331 0.57795,0.168453 0.0254,-0.0081 0.11391,0.04657 0.19674,0.121529 0.0828,0.07496 0.1506,0.114069 0.1506,0.08691 0,-0.02716 0.0724,-0.0092 0.16097,0.03988 0.0885,0.04909 0.18751,0.08162 0.21995,0.07229 0.0324,-0.0093 0.0395,0.01452 0.0157,0.053 -0.0238,0.03849 0.0827,0.10388 0.23655,0.145317 0.32016,0.08621 0.76219,0.47175 1.04913,0.915055 0.16823,0.259907 0.35248,0.457276 0.20674,0.221461 -0.0319,-0.05159 -0.0196,-0.06316 0.0327,-0.03083 0.0461,0.02847 0.0657,0.08107 0.0435,0.116891 -0.0221,0.03582 -0.003,0.13385 0.0415,0.217852 0.045,0.084 0.0968,0.326127 0.11511,0.538052 l 0.0334,0.38532 -0.77357,-4.29e-4 c -0.42547,-2.15e-4 -0.89695,-0.03466 -1.04774,-0.07653 -0.63541,-0.176439 -1.28495,-0.200165 -1.5252,-0.05571 -0.45443,0.273234 -0.38782,0.381426 0.38639,0.62766 0.28528,0.09073 0.51869,0.187618 0.51869,0.215305 0,0.05906 0.95058,0.501312 1.55606,0.723946 0.22885,0.08415 0.30241,0.231119 0.1598,0.319257 -0.04,0.02472 -0.0511,0.07988 -0.0247,0.122591 0.0272,0.04408 0.015,0.05725 -0.0284,0.03046 -0.042,-0.02596 -0.13551,0.03059 -0.2078,0.125653 -0.14792,0.194527 -0.89631,0.507304 -1.38344,0.578186 -0.17707,0.02577 -0.55737,0.09355 -0.84512,0.150626 -0.40938,0.08121 -0.58827,0.08625 -0.82247,0.02319 -0.16461,-0.04433 -0.35261,-0.09086 -0.41777,-0.103409 -0.0652,-0.01255 -0.21017,-0.0693 -0.32222,-0.126121 -0.11206,-0.05682 -0.38081,-0.143222 -0.59723,-0.192013 -0.21642,-0.04879 -0.6511,-0.150874 -0.96595,-0.226851 -0.54368,-0.131195 -0.59943,-0.132299 -1.10892,-0.02197 -0.82618,0.178908 -2.3422,0.152331 -2.68001,-0.04698 -0.41897,-0.247198 -1.03033,0.01038 -1.54954,0.652862 -0.21953,0.271656 -0.62368,1.304928 -0.67813,1.733749 -0.0187,0.147524 -0.13158,0.582149 -0.25076,0.965832 -0.11918,0.383684 -0.24423,0.842482 -0.27788,1.019551 -0.0337,0.177069 -0.10725,0.434624 -0.16354,0.572345 -0.0563,0.13772 -0.12831,0.314789 -0.16004,0.393487 -0.0317,0.0787 -0.0526,0.167232 -0.0463,0.196743 0.006,0.02951 -0.0208,0.05366 -0.0602,0.05366 -0.0393,0 -0.0716,0.03622 -0.0716,0.08048 0,0.126405 -0.37118,0.921121 -0.43022,0.921121 -0.0291,0 -0.11913,0.152923 -0.20001,0.33983 -0.0809,0.186906 -0.26029,0.498433 -0.39871,0.692282 -0.13842,0.193849 -0.23529,0.378967 -0.21526,0.411373 0.02,0.03241 0.002,0.05892 -0.0394,0.05892 -0.0417,0 -0.0758,0.04114 -0.0758,0.09141 0,0.05028 -0.0671,0.148844 -0.14905,0.219035 -0.0834,0.07146 -0.13104,0.174544 -0.10813,0.234245 0.0225,0.05864 0.0135,0.08969 -0.02,0.069 -0.0335,-0.0207 -0.2716,0.259334 -0.52915,0.622287 -0.25755,0.362952 -0.56693,0.756497 -0.68752,0.874543 -0.12058,0.118046 -0.22013,0.234539 -0.22122,0.258873 -0.001,0.02433 -0.13882,0.187293 -0.30605,0.36213 -0.16723,0.174837 -0.53478,0.55857 -0.81678,0.85274 -0.50111,0.522741 -0.84105,1.155464 -0.75653,1.408103 0.0169,0.05042 0.004,0.08261 -0.0297,0.07154 -0.0332,-0.01107 -0.0629,-0.004 -0.0661,0.01565 -0.013,0.08173 -0.40323,0.659327 -0.53331,0.789408 -0.0774,0.07739 -0.14066,0.172877 -0.14066,0.212225 0,0.03935 -0.0269,0.07154 -0.0599,0.07154 -0.0329,0 -0.20022,0.133484 -0.37173,0.296631 -0.1715,0.163147 -0.44955,0.383979 -0.6179,0.490738 -0.16834,0.10676 -0.29352,0.206685 -0.27818,0.222057 0.0153,0.01537 -0.0454,0.03231 -0.13496,0.03764 -0.0896,0.0053 -0.25038,0.06704 -0.35734,0.137125 -0.18698,0.12251 -0.1926,0.144224 -0.14578,0.562649 0.0465,0.415374 0.18376,1.103589 0.42217,2.116483 0.0602,0.255766 0.14501,0.626002 0.18846,0.822745 0.1321,0.59822 0.28926,1.037375 0.37122,1.037375 0.0427,0 0.0565,0.02118 0.0306,0.04708 -0.0259,0.02589 -0.0171,0.08324 0.0196,0.127453 0.0604,0.07279 0.17725,0.553282 0.36202,1.488805 0.0369,0.186881 0.11179,0.428339 0.1664,0.536573 0.0546,0.108233 0.11668,0.373857 0.13794,0.590275 0.0213,0.216418 0.12209,0.582179 0.22409,0.812802 0.13015,0.294305 0.17516,0.496931 0.15096,0.679659 -0.019,0.14319 -0.0499,0.61076 -0.0687,1.039046 -0.0361,0.820324 -0.12396,1.045648 -0.40783,1.045648 -0.0726,0 -0.132,0.03361 -0.132,0.07469 0,0.07463 -0.70554,0.03075 -0.78478,-0.04881 -0.0209,-0.02096 -0.038,-0.461936 -0.038,-0.979943 0,-0.724713 -0.0271,-0.999555 -0.11764,-1.192231 -0.14438,-0.307299 -0.34739,-0.95276 -0.34739,-1.104475 0,-0.06147 -0.0341,-0.111758 -0.0758,-0.111758 -0.0417,0 -0.0551,-0.03337 -0.0299,-0.07416 0.0252,-0.04078 -0.003,-0.242 -0.0631,-0.447144 -0.11068,-0.37882 -0.19068,-0.695142 -0.23647,-0.93493 -0.0139,-0.07298 -0.0894,-0.214143 -0.16772,-0.313706 -0.0783,-0.09956 -0.14239,-0.226874 -0.14239,-0.282913 0,-0.05604 -0.0241,-0.08697 -0.0537,-0.06873 -0.0295,0.01824 -0.0598,-0.0362 -0.0673,-0.120978 -0.0307,-0.34565 -0.11317,-0.671226 -0.24281,-0.958221 -0.0754,-0.166803 -0.137,-0.335824 -0.137,-0.375601 0,-0.03978 -0.0318,-0.07232 -0.0707,-0.07232 -0.0389,0 -0.091,-0.12679 -0.11576,-0.281756 -0.0248,-0.154966 -0.0882,-0.298302 -0.14087,-0.318526 -0.1276,-0.04896 -0.44159,-0.552796 -0.50277,-0.806749 -0.0269,-0.111479 -0.12239,-0.336481 -0.2123,-0.500004 -0.0899,-0.163524 -0.1489,-0.31189 -0.13109,-0.329704 0.0178,-0.01781 -0.0279,-0.173771 -0.10158,-0.346572 -0.0737,-0.172801 -0.17265,-0.587837 -0.21993,-0.922301 -0.0473,-0.334464 -0.10147,-0.710237 -0.12042,-0.835052 -0.019,-0.125278 7.5e-4,-0.248701 0.0442,-0.275523 0.0432,-0.02672 0.0607,-0.09529 0.0388,-0.152381 -0.0219,-0.05709 -0.0102,-0.0855 0.026,-0.06314 0.0362,0.02236 0.0836,0.01178 0.10544,-0.02352 0.0222,-0.03595 -0.28242,-0.07035 -0.6926,-0.07821 -0.40275,-0.0077 -0.81809,-0.02453 -0.92299,-0.03735 -0.18698,-0.02285 -0.48894,0.176796 -0.48894,0.323275 0,0.03782 -0.0241,0.06071 -0.0537,0.05087 -0.0295,-0.0098 -0.0676,0.01431 -0.0846,0.05366 -0.017,0.03935 -0.11362,0.134773 -0.21463,0.212055 -0.10101,0.07728 -0.2094,0.181914 -0.24086,0.232515 -0.0315,0.0506 -0.11196,0.09307 -0.17886,0.09438 -0.0669,0.0013 -0.18603,0.05765 -0.26473,0.1252 -0.13561,0.116405 -0.14067,0.180749 -0.0969,1.231739 0.0474,1.138038 0.10044,1.594179 0.20882,1.797056 0.034,0.06369 0.0457,0.131939 0.026,0.15167 -0.0197,0.01973 0.0252,0.192986 0.0998,0.385009 0.0746,0.192021 0.12239,0.386423 0.10616,0.432003 -0.0162,0.04558 0.004,0.10382 0.0458,0.129423 0.0414,0.0256 0.0753,0.104776 0.0753,0.17594 0,0.07116 0.0966,0.42247 0.21463,0.78068 0.11804,0.35821 0.21463,0.738472 0.21463,0.845027 0,0.201696 0.11113,0.608227 0.22908,0.838002 0.0376,0.07332 0.0813,0.202098 0.097,0.286173 0.0157,0.08408 0.0575,0.217254 0.0928,0.295951 0.0838,0.186767 0.23663,0.977049 0.27668,1.430862 0.0174,0.196744 0.0806,0.550882 0.1405,0.786974 0.1216,0.479118 0.16174,0.82888 0.09,0.784567 -0.026,-0.01606 -0.066,0.194413 -0.0889,0.467715 -0.0363,0.433438 -0.0699,0.52456 -0.26307,0.713348 -0.23076,0.225569 -0.3293,0.256084 -0.49268,0.152566 z m -1.08312,-3.110856 c 0,-0.09345 0.0211,-0.275528 0.0469,-0.404611 0.0284,-0.142191 0.0201,-0.218097 -0.0212,-0.192581 -0.0381,0.02356 -0.0707,-0.07399 -0.074,-0.221391 -0.009,-0.395443 -0.275121,-1.278422 -0.475221,-1.575384 -0.0971,-0.144139 -0.21708,-0.390848 -0.26656,-0.548243 -0.0836,-0.265938 -0.48489,-1.099615 -0.56821,-1.180461 -0.0203,-0.01967 -0.0477,-0.112492 -0.0609,-0.206262 -0.0256,-0.181943 -0.24472,-0.6443 -0.44471,-0.938428 -0.0669,-0.09837 -0.143763,-0.291538 -0.170825,-0.429258 -0.07243,-0.36861 -0.404913,-1.457742 -0.464708,-1.522265 -0.02836,-0.0306 -0.226127,0.284706 -0.439492,0.700673 -0.213364,0.415967 -0.427704,0.827334 -0.47631,0.914148 -0.120811,0.215781 -0.112858,0.717008 0.01628,1.026084 0.08449,0.202204 0.282677,1.158142 0.420717,2.029256 0.0188,0.118619 0.150538,0.434139 0.303327,0.726469 0.05459,0.104443 0.09925,0.24127 0.09925,0.304059 0,0.06279 0.03409,0.114162 0.07577,0.114162 0.04167,0 0.05587,0.03219 0.03155,0.07154 -0.02432,0.03935 -0.0082,0.07154 0.03577,0.07154 0.04399,0 0.06168,0.02962 0.03931,0.06582 -0.02237,0.0362 0.04446,0.13278 0.148512,0.214629 0.104053,0.08185 0.1607,0.148968 0.125882,0.149156 -0.03482,2.15e-4 0.05921,0.112869 0.208967,0.250401 0.24589,0.225838 0.34708,0.279702 0.48996,0.260819 0.0257,-0.0034 0.086,0.04108 0.13396,0.09884 0.0479,0.05777 0.20395,0.105872 0.34669,0.106903 0.14274,0.001 0.3883,0.06282 0.5457,0.137296 0.375401,0.177641 0.393481,0.176588 0.393481,-0.02291 z"
       id="path1106"
       inkscape:connector-curvature="0" />
  </g>
</svg>
