<?xml version="1.0" encoding="UTF-8" standalone="no"?>
<!-- Created with Inkscape (http://www.inkscape.org/) -->

<svg
   xmlns:dc="http://purl.org/dc/elements/1.1/"
   xmlns:cc="http://creativecommons.org/ns#"
   xmlns:rdf="http://www.w3.org/1999/02/22-rdf-syntax-ns#"
   xmlns:svg="http://www.w3.org/2000/svg"
   xmlns="http://www.w3.org/2000/svg"
   xmlns:sodipodi="http://sodipodi.sourceforge.net/DTD/sodipodi-0.dtd"
   xmlns:inkscape="http://www.inkscape.org/namespaces/inkscape"
   width="122.18961mm"
   height="40.616497mm"
   viewBox="0 0 122.18959 40.616497"
   version="1.1"
   id="svg8"
   inkscape:version="0.92.4 (5da689c313, 2019-01-14)"
   sodipodi:docname="gorgosaurus.svg">
  <defs
     id="defs2" />
  <sodipodi:namedview
     id="base"
     pagecolor="#ffffff"
     bordercolor="#666666"
     borderopacity="1.0"
     inkscape:pageopacity="0.0"
     inkscape:pageshadow="2"
     inkscape:zoom="1.4"
     inkscape:cx="184.14004"
     inkscape:cy="170.69869"
     inkscape:document-units="mm"
     inkscape:current-layer="layer1"
     showgrid="false"
     inkscape:window-width="1366"
     inkscape:window-height="745"
     inkscape:window-x="-8"
     inkscape:window-y="-8"
     inkscape:window-maximized="1" />
  <metadata
     id="metadata5">
    <rdf:RDF>
      <cc:Work
         rdf:about="">
        <dc:format>image/svg+xml</dc:format>
        <dc:type
           rdf:resource="http://purl.org/dc/dcmitype/StillImage" />
        <dc:title></dc:title>
      </cc:Work>
    </rdf:RDF>
  </metadata>
  <g
     inkscape:label="Camada 1"
     inkscape:groupmode="layer"
     id="layer1"
     transform="translate(-40.070783,-58.712299)">
    <path
       style="fill:#d5d5d5;fill-opacity:1;stroke-width:0.99999994"
       d="m 81.136261,99.229807 c -0.256219,-0.0616 -0.727896,-0.1202 -1.048171,-0.1303 -0.647181,-0.0204 -0.69292,-0.10193 -0.339964,-0.60585 0.328024,-0.46832 0.955779,-0.77179 2.316326,-1.11976 2.209855,-0.56518 3.399671,-1.42278 4.734719,-3.412687 1.53958,-2.294766 1.880562,-3.993083 1.123287,-5.594716 -0.831849,-1.759353 -3.84871,-6.209431 -4.213565,-6.215296 -0.13385,-0.0022 -0.732509,-0.04348 -1.330355,-0.09183 -0.597846,-0.04835 -1.401443,-0.113083 -1.785773,-0.143843 -0.384329,-0.03076 -0.803598,-0.06588 -0.931708,-0.07803 -0.128109,-0.01216 -0.466648,-0.126783 -0.75231,-0.254722 -0.28566,-0.127937 -0.651992,-0.197935 -0.81407,-0.155551 -0.162079,0.04239 -0.627137,-0.02727 -1.033464,-0.15478 -0.406326,-0.127515 -1.367677,-0.397378 -2.136336,-0.599697 -2.083561,-0.548417 -4.312675,-1.150285 -4.614745,-1.245999 -0.201657,-0.0639 -0.35085,0.09768 -0.611216,0.66196 -0.189443,0.410567 -0.692378,1.060938 -1.117636,1.445268 -0.425258,0.384329 -0.831204,0.768659 -0.902103,0.854065 -0.895344,1.078559 -1.450706,1.630488 -1.640627,1.630488 -0.158593,0 -0.196419,-0.08522 -0.120622,-0.271748 0.381199,-0.938072 0.443071,-1.652514 0.0852,-0.983829 -0.09533,0.178129 -0.288198,0.32387 -0.42859,0.32387 -0.212467,0 -1.232426,-0.295833 -1.418712,-0.411489 -0.02993,-0.01858 0.166948,-0.309231 0.437496,-0.645891 0.438794,-0.546019 1.402688,-2.988598 1.402688,-3.554513 0,-0.34942 -0.565649,-1.32568 -1.11679,-1.927482 -0.282534,-0.308504 -0.818667,-0.987011 -1.191406,-1.507794 -0.372737,-0.520782 -0.861884,-1.066423 -1.086992,-1.212537 -0.225107,-0.146112 -0.723737,-0.527048 -1.108066,-0.846524 -0.992929,-0.82538 -1.854873,-1.229979 -2.95011,-1.38479 -1.107898,-0.1566 -1.311596,-0.09874 -3.804771,1.080671 -1.999899,0.946065 -3.066327,1.165875 -4.813823,0.992214 -0.683252,-0.0679 -1.347094,-0.111465 -1.475204,-0.09681 -0.128109,0.01466 -0.784301,0.341287 -1.458202,0.72585 -0.673902,0.384562 -1.419991,0.74197 -1.657976,0.79424 -0.562547,0.123557 -1.314719,-0.266016 -1.607768,-0.832711 -0.206532,-0.399388 -0.199933,-0.459215 0.07679,-0.696151 0.166507,-0.142569 0.371819,-0.259214 0.456249,-0.259214 0.08443,0 0.153509,-0.06988 0.153509,-0.155284 0,-0.08541 0.09899,-0.155285 0.219987,-0.155285 0.120993,0 0.244314,-0.07298 0.274048,-0.162184 0.02973,-0.0892 0.220521,-0.174723 0.423971,-0.19005 0.20345,-0.01533 0.561484,-0.204384 0.795631,-0.420132 0.721927,-0.665197 0.902285,-0.78048 1.221053,-0.78048 0.169377,0 0.351145,-0.06988 0.40393,-0.155285 0.141799,-0.229436 -0.326463,-0.18616 -1.619829,0.149705 -1.689352,0.438697 -1.827233,0.224368 -0.427413,-0.664394 0.840677,-0.533755 2.129598,-1.087263 3.056592,-1.312606 0.650294,-0.158081 0.777792,-0.584677 0.337318,-1.12864 l -0.29853,-0.368669 -0.87346,0.296898 c -0.495608,0.168462 -0.873459,0.389584 -0.873459,0.511156 0,0.117842 -0.209634,0.293386 -0.465854,0.390099 -0.25622,0.09671 -0.465854,0.237973 -0.465854,0.313914 0,0.07594 -0.175179,0.09411 -0.389287,0.04037 -0.270899,-0.06799 -0.377155,-0.03769 -0.349391,0.09963 0.02194,0.108534 -0.04745,0.179865 -0.154208,0.158513 -0.106759,-0.02135 -0.194106,0.04503 -0.194106,0.147521 0,0.144932 -0.04141,0.144932 -0.186342,0 -0.259189,-0.259189 -0.677001,-0.232523 -0.97153,0.06201 -0.185411,0.185411 -0.30067,0.204924 -0.454811,0.077 -0.193309,-0.160433 -1.136007,-0.280491 -2.448347,-0.311812 -0.491434,-0.01173 -0.58988,-0.0788 -0.737602,-0.502561 -0.2338,-0.670677 -0.213864,-1.746376 0.04379,-2.363038 0.139713,-0.334381 0.477413,-0.667144 0.970529,-0.956339 1.055098,-0.618779 3.283342,-1.698242 3.968712,-1.922625 0.82159,-0.26898 1.355645,-0.728682 1.262102,-1.086388 -0.09773,-0.373706 0.253394,-0.494859 1.301956,-0.449235 0.674359,0.02934 0.929848,-0.05243 1.77591,-0.568389 0.543528,-0.331464 1.407501,-0.928516 1.91994,-1.326784 0.888742,-0.690728 1.571896,-1.05901 2.950408,-1.590538 0.756351,-0.291634 2.804687,-0.367371 3.108838,-0.114949 0.118897,0.09868 0.289115,0.134332 0.378264,0.07924 0.08915,-0.0551 0.162086,-0.02617 0.162086,0.06427 0,0.09045 0.108524,0.164449 0.241165,0.164449 0.132641,0 0.498253,0.174696 0.812471,0.388212 0.314217,0.213516 0.616495,0.388211 0.671729,0.388211 0.05523,0 0.493888,0.236932 0.974789,0.526515 0.868371,0.522905 1.803904,0.854486 4.235099,1.501041 1.430588,0.380453 2.606577,0.361697 4.866378,-0.07761 0.725955,-0.141128 2.053639,-0.318036 2.950408,-0.393128 0.896768,-0.07509 1.944939,-0.241829 2.329269,-0.370526 0.384329,-0.128697 1.013232,-0.277069 1.397561,-0.329715 0.38433,-0.05265 0.803598,-0.124089 0.931708,-0.158762 0.12811,-0.03467 1.455793,-0.09975 2.950408,-0.144614 6.125627,-0.183873 7.731906,-0.263945 8.647907,-0.431093 0.639702,-0.116731 1.02934,-0.123857 1.164634,-0.0213 0.488388,0.370204 4.793334,1.455509 5.763914,1.453118 0.2399,-5.9e-4 0.39852,0.05989 0.35247,0.134393 -0.046,0.07451 0.14199,0.177693 0.41787,0.229303 0.27587,0.05161 0.97156,0.225858 1.54597,0.38722 0.574409,0.161361 1.208369,0.262034 1.408809,0.223718 0.20044,-0.03832 0.621409,0.07467 0.935499,0.251083 0.31409,0.176412 0.57107,0.259424 0.57107,0.18447 0,-0.177337 0.83976,0.01585 1.9719,0.453633 0.49547,0.191593 1.18037,0.451508 1.522,0.577589 0.34163,0.12608 0.72596,0.281274 0.85407,0.344876 0.12811,0.0636 0.61725,0.202228 1.08699,0.308059 0.46973,0.105832 1.6926,0.390533 2.71748,0.632671 1.02488,0.242137 2.91159,0.594619 4.19268,0.783293 1.2811,0.188674 2.99353,0.46929 3.8054,0.623591 0.81187,0.154302 2.20943,0.324911 3.10569,0.379132 0.89626,0.05422 1.97896,0.164322 2.40599,0.244669 0.42703,0.08035 2.06917,0.219243 3.64919,0.308658 5.553,0.31425 7.53925,0.454387 8.38537,0.591616 1.25854,0.20412 2.92027,0.576615 3.81331,0.854799 0.4319,0.134535 1.03658,0.276786 1.34374,0.316112 0.74727,0.09567 2.68138,0.66884 3.5025,1.037953 0.36432,0.163769 0.84039,0.312493 1.05794,0.330498 0.21755,0.01801 0.46958,0.121948 0.56007,0.230985 0.0905,0.109038 0.2608,0.198251 0.37845,0.198251 0.11765,0 0.21391,0.05685 0.21391,0.126331 0,0.06948 0.6111,0.436342 1.35801,0.815245 0.7469,0.378902 1.42821,0.765225 1.51402,0.858495 0.0858,0.09327 0.51863,0.320489 0.96182,0.50493 0.44319,0.184439 1.25054,0.632212 1.79412,0.99505 0.54358,0.362838 1.15926,0.759787 1.36819,0.882109 2.11698,1.239456 5.01365,3.017437 6.40607,3.932057 0.35807,0.235194 0.8527,0.549645 1.0992,0.698781 0.59335,0.358991 1.2531,0.991605 1.38057,1.323779 0.0564,0.14701 0.20958,0.267292 0.34037,0.267292 0.28159,0 0.2926,0.07331 0.0727,0.484163 -0.0908,0.169653 -0.28296,0.292862 -0.42704,0.273796 -0.14407,-0.01906 -0.54827,0.04699 -0.89823,0.146794 -0.6379,0.181921 -2.01927,0.110161 -2.31283,-0.120148 -0.0861,-0.06757 -0.48476,-0.15792 -0.88587,-0.200788 -0.40111,-0.04287 -1.01254,-0.22558 -1.35874,-0.406029 -0.3462,-0.180448 -0.62945,-0.292851 -0.62945,-0.249783 0,0.04307 -0.27673,-0.06287 -0.61495,-0.235419 -0.33822,-0.172548 -0.71172,-0.313725 -0.83,-0.313725 -0.11827,0 -0.34152,-0.139756 -0.49611,-0.310569 -0.15458,-0.170813 -0.37207,-0.310569 -0.4833,-0.310569 -0.11123,0 -0.39738,-0.244572 -0.63589,-0.543492 -0.23851,-0.29892 -0.49721,-0.543493 -0.5749,-0.543496 -0.0777,-3e-6 -0.54417,-0.384334 -1.03664,-0.85407 -0.49247,-0.469736 -1.02909,-0.854065 -1.19249,-0.854065 -0.30822,0 -0.88802,-0.390324 -2.24248,-1.509657 -0.43632,-0.360576 -1.14918,-0.772209 -1.58413,-0.914738 -0.43495,-0.14253 -0.96552,-0.379656 -1.17903,-0.526946 -0.67371,-0.464748 -5.14773,-1.738026 -7.91371,-2.252194 -1.39918,-0.260094 -6.36705,-0.383787 -7.30418,-0.181865 -0.29893,0.06441 -0.92783,0.151311 -1.39757,0.193115 -0.46973,0.04181 -1.30827,0.121337 -1.86341,0.176738 -0.55514,0.0554 -1.0731,0.08473 -1.15102,0.06518 -0.0779,-0.01955 -0.32248,0.03469 -0.54349,0.120539 -0.46021,0.17876 -1.60079,0.322156 -3.26004,0.409861 -0.63254,0.03344 -1.85541,0.231736 -2.71748,0.440667 -2.27337,0.550973 -3.09905,0.689143 -4.75074,0.794992 -0.81136,0.052 -2.10411,0.1557 -2.87277,0.230454 -0.76865,0.07476 -2.16622,0.183087 -3.10569,0.240738 -3.12551,0.191798 -7.01317,0.987384 -9.083998,1.858985 -0.47006,0.197844 -1.13406,0.409368 -1.47557,0.470053 -0.3415,0.06068 -0.8428,0.212349 -1.11399,0.337033 l -0.49307,0.226697 0.57703,0.762379 c 0.31736,0.419309 0.88592,1.374649 1.26347,2.122978 0.95987,1.902538 1.842359,3.109175 3.048288,4.167918 1.4618,1.283387 1.61567,1.698558 1.71176,4.618494 0.10071,3.060408 0.60725,4.873347 1.53068,5.478398 0.64224,0.420815 0.47077,0.57759 -0.51032,0.466591 l -0.89654,-0.101432 -0.49735,1.008562 c -0.27354,0.55471 -0.7517,1.29011 -1.06259,1.63422 l -0.56524,0.62566 h -1.835238 c -1.00938,0 -2.02958,-0.0739 -2.26712,-0.16421 -0.23754,-0.0903 -0.94081,-0.17766 -1.56284,-0.1941 -0.7378,-0.0195 -1.13099,-0.0926 -1.13106,-0.21021 -1.6e-4,-0.3494 0.91445,-0.94273 2.49138,-1.61608 1.37239,-0.585999 1.67671,-0.78515 2.18777,-1.431692 0.750459,-0.949405 0.979659,-1.73036 0.966699,-3.293874 -0.0128,-1.542919 -0.269559,-2.24817 -1.292419,-3.549735 -0.85244,-1.084712 -1.3311,-1.412454 -3.91869,-2.683173 -1.99287,-0.978657 -1.957303,-1.011125 -1.571388,1.434494 0.430268,2.726658 0.389168,3.16982 -0.447282,4.822783 -0.395745,0.782063 -1.029792,1.884416 -1.408995,2.449674 -0.783861,1.168464 -0.820013,1.711769 -0.131402,1.974733 0.399112,0.15241 0.400911,0.15959 0.09615,0.38357 -0.212165,0.15593 -0.493904,0.19733 -0.889188,0.13066 -0.542999,-0.0916 -0.592733,-0.0657 -0.807904,0.42011 -0.126106,0.28473 -0.354875,0.93696 -0.508373,1.4494 l -0.279089,0.93171 -3.183334,0.0138 c -1.750834,0.008 -3.392969,-0.0365 -3.649189,-0.0981 z"
       id="path950"
       inkscape:connector-curvature="0" />
  </g>
</svg>
