<?xml version="1.0" encoding="UTF-8" standalone="no"?>
<!-- Created with Inkscape (http://www.inkscape.org/) -->

<svg
   xmlns:dc="http://purl.org/dc/elements/1.1/"
   xmlns:cc="http://creativecommons.org/ns#"
   xmlns:rdf="http://www.w3.org/1999/02/22-rdf-syntax-ns#"
   xmlns:svg="http://www.w3.org/2000/svg"
   xmlns="http://www.w3.org/2000/svg"
   xmlns:sodipodi="http://sodipodi.sourceforge.net/DTD/sodipodi-0.dtd"
   xmlns:inkscape="http://www.inkscape.org/namespaces/inkscape"
   width="149.65591mm"
   height="41.346329mm"
   viewBox="0 0 149.65591 41.346329"
   version="1.1"
   id="svg8"
   inkscape:version="0.92.4 (5da689c313, 2019-01-14)"
   sodipodi:docname="herrerasauridae.svg">
  <defs
     id="defs2" />
  <sodipodi:namedview
     id="base"
     pagecolor="#ffffff"
     bordercolor="#666666"
     borderopacity="1.0"
     inkscape:pageopacity="0.0"
     inkscape:pageshadow="2"
     inkscape:zoom="0.98994949"
     inkscape:cx="238.39319"
     inkscape:cy="-96.514539"
     inkscape:document-units="mm"
     inkscape:current-layer="layer1"
     showgrid="false"
     inkscape:window-width="1366"
     inkscape:window-height="745"
     inkscape:window-x="-8"
     inkscape:window-y="-8"
     inkscape:window-maximized="1" />
  <metadata
     id="metadata5">
    <rdf:RDF>
      <cc:Work
         rdf:about="">
        <dc:format>image/svg+xml</dc:format>
        <dc:type
           rdf:resource="http://purl.org/dc/dcmitype/StillImage" />
        <dc:title></dc:title>
      </cc:Work>
    </rdf:RDF>
  </metadata>
  <g
     inkscape:label="Camada 1"
     inkscape:groupmode="layer"
     id="layer1"
     transform="translate(-14.164446,-88.811091)">
    <path
       style="fill:#d5d5d5;fill-opacity:1;stroke-width:1"
       d="m 78.144532,130.06019 c -0.352129,-0.13026 -0.857097,-0.18013 -1.122148,-0.11081 -0.948952,0.24816 0.05033,-0.54383 1.277508,-1.01249 0.777801,-0.29705 1.328561,-0.71853 1.583746,-1.212 0.525079,-1.0154 0.500047,-1.29033 -0.267634,-2.9394 -0.584324,-1.25519 -0.659167,-1.7688 -0.661458,-4.53931 -0.0033,-3.98419 -0.314833,-5.25765 -1.531581,-6.2606 -1.207653,-0.99545 -3.776522,-2.21063 -5.595927,-2.64711 -1.376891,-0.33032 -1.45634,-0.31995 -1.918229,0.25046 -0.265017,0.32728 -0.481848,0.85677 -0.481848,1.17664 0,0.31986 -0.174808,0.81269 -0.388462,1.09516 -0.213651,0.28248 -0.392244,0.72195 -0.396875,0.97662 -0.0046,0.25466 -0.144115,0.46302 -0.309975,0.46302 -0.368321,0 -0.878874,0.63359 -1.464283,1.81717 -0.533377,1.07838 -1.77409,1.88466 -2.902202,1.886 -0.526642,5.3e-4 -0.892765,0.16042 -0.998416,0.43574 -0.09175,0.23911 -0.233201,0.36837 -0.314327,0.28724 -0.194551,-0.19455 0.30989,-1.12255 1.362892,-2.50725 0.476859,-0.62707 1.060675,-1.88509 1.320808,-2.84611 0.410403,-1.51615 0.635622,-1.86703 1.881648,-2.93154 0.778492,-0.66509 1.415442,-1.33387 1.415442,-1.48617 0,-0.1523 -0.546796,-0.75822 -1.215102,-1.34649 -0.668306,-0.58826 -1.506622,-1.53137 -1.862923,-2.09579 l -0.647819,-1.02621 -1.537404,0.17394 c -1.37927,0.15604 -1.6466,0.10167 -2.599055,-0.52863 -0.807985,-0.5347 -2.369947,-0.98434 -6.537119,-1.88182 -6.615872,-1.42486 -6.767245,-1.43443 -6.767245,-0.42794 0,0.58043 -0.541584,1.33243 -2.38125,3.30643 -1.920647,2.06089 -2.38125,2.71137 -2.38125,3.36288 0,0.44425 -0.17312,1.14252 -0.384707,1.55168 -0.21159,0.40917 -0.584959,1.54115 -0.829709,2.5155 -0.244751,0.97436 -0.64484,2.01835 -0.88909,2.31998 -0.432404,0.534 -0.441132,0.52308 -0.331629,-0.4149 0.09242,-0.79161 0.03857,-0.93498 -0.30207,-0.80426 -0.351946,0.13505 -0.37634,0.0356 -0.161581,-0.65853 0.92787,-2.99906 0.864016,-2.66967 0.517536,-2.66967 -0.145521,0 -0.267232,0.14882 -0.270468,0.33073 -0.0032,0.1819 -0.252441,0.62838 -0.553794,0.99218 -0.441584,0.5331 -0.510857,0.55877 -0.356968,0.13229 0.105019,-0.29104 0.245671,-0.82682 0.312558,-1.19062 0.183234,-0.99661 1.621229,-3.6899 2.656475,-4.97544 0.504473,-0.62644 0.855779,-1.20042 0.780679,-1.27552 -0.312827,-0.31283 -3.995422,1.03214 -4.527542,1.65356 -1.502495,1.75465 -5.753755,5.96861 -5.887011,5.83536 -0.08347,-0.0835 0.09994,-0.47174 0.407574,-0.86283 0.601887,-0.76518 0.788519,-1.5039 0.24183,-0.95721 -0.174625,0.17462 -0.420857,0.3175 -0.547183,0.3175 -0.321879,0 0.801629,-1.54228 1.916252,-2.63051 l 0.932806,-0.91072 -0.748767,-0.14762 c -0.735109,-0.14492 -0.715804,-0.17259 1.058334,-1.51688 0.993905,-0.7531 2.164287,-1.45061 2.60085,-1.55003 1.281366,-0.2918 4.366009,-1.76351 4.361273,-2.08081 -0.0024,-0.16036 -0.270286,-0.76003 -0.595313,-1.33261 -0.422473,-0.74423 -1.01891,-1.258747 -2.091968,-1.804637 -1.19208,-0.60643 -1.609423,-0.99423 -2.027774,-1.88424 -0.289721,-0.61635 -0.68583,-1.24721 -0.880242,-1.40189 -0.856065,-0.68114 -5.582631,-1.93797 -7.288138,-1.93797 -1.720378,0 -1.750788,0.0127 -2.694344,1.12285 -0.52488,0.61757 -1.548305,1.65937 -2.274278,2.31511 -0.725973,0.65573 -2.050818,1.93639 -2.944101,2.845887 -1.548404,1.57653 -2.262437,1.95971 -2.608463,1.39983 -0.21077,-0.34103 0.362207,-1.29473 1.235977,-2.057227 0.392405,-0.34243 0.787381,-0.8555 0.877726,-1.14015 0.09034,-0.28465 0.312909,-0.51755 0.494587,-0.51755 0.42364,0 1.4861,-1.87945 1.4861,-2.62885 0,-0.71646 -0.71596,-2.13365 -1.077909,-2.13365 -0.148814,0 -0.763432,0.23813 -1.365819,0.52917 -0.602387,0.29104 -1.302506,0.52916 -1.55582,0.52916 -0.253314,0 -0.617904,0.14883 -0.810199,0.33073 -0.37194,0.35184 -1.275997,0.51857 -1.275187,0.23519 2.66e-4,-0.093 -0.684343,-0.16904 -1.521354,-0.16904 -1.460187,0 -1.525204,-0.0292 -1.604938,-0.72118 -0.06643,-0.57652 0.0928,-0.8282 0.79375,-1.25465 1.569432,-0.95483 6.658264,-3.14977 8.285184,-3.5736 2.419906,-0.63043 6.312242,-0.56632 8.229334,0.13553 4.001157,1.46482 4.632968,1.59479 7.763342,1.59699 2.343102,0.002 4.386226,-0.22822 8.745866,-0.98398 6.642219,-1.15147 9.651193,-1.24549 22.061646,-0.68936 8.184023,0.36673 9.818129,0.62095 19.213354,2.98902 2.837656,0.71523 8.850313,2.1982 13.361459,3.29549 4.51114,1.09729 9.09505,2.27608 10.18645,2.61953 5.78244,1.819677 13.05905,3.527697 19.84375,4.657897 8.97542,1.49511 10.16709,1.58338 21.81807,1.61603 11.23841,0.0315 11.73508,0.12685 4.6874,0.89993 -3.27285,0.35901 -5.77071,0.42124 -12.96458,0.32299 -7.95706,-0.10868 -9.61169,-0.21023 -15.46098,-0.94884 -8.11054,-1.02416 -13.74776,-1.89314 -21.09866,-3.25239 -14.097916,-2.606817 -22.451854,-3.354407 -27.998164,-2.505517 -3.541104,0.54198 -4.719256,1.091777 -6.945868,3.241387 l -1.833044,1.76966 0.01072,1.74253 c 0.01008,1.63844 0.07771,1.82888 1.132242,3.18813 0.616833,0.79508 1.772867,1.95762 2.568964,2.58342 4.260818,3.34937 4.321286,3.44455 4.584118,7.21576 0.129526,1.85847 0.197831,2.03893 1.076616,2.84428 0.637688,0.58439 0.800713,0.8599 0.50883,0.8599 -0.371961,0 -0.407347,0.25691 -0.264205,1.91823 0.15502,1.79918 0.112128,2.02402 -0.69111,3.62282 -0.763627,1.51996 -0.97291,1.73748 -1.93217,2.00823 -0.681236,0.19227 -1.310592,0.21677 -1.716021,0.0668 z"
       id="path826"
       inkscape:connector-curvature="0" />
  </g>
</svg>
