<?xml version="1.0" encoding="UTF-8" standalone="no"?>
<!-- Created with Inkscape (http://www.inkscape.org/) -->

<svg
   xmlns:dc="http://purl.org/dc/elements/1.1/"
   xmlns:cc="http://creativecommons.org/ns#"
   xmlns:rdf="http://www.w3.org/1999/02/22-rdf-syntax-ns#"
   xmlns:svg="http://www.w3.org/2000/svg"
   xmlns="http://www.w3.org/2000/svg"
   xmlns:sodipodi="http://sodipodi.sourceforge.net/DTD/sodipodi-0.dtd"
   xmlns:inkscape="http://www.inkscape.org/namespaces/inkscape"
   width="83.222954mm"
   height="38.542782mm"
   viewBox="0 0 83.222937 38.542782"
   version="1.1"
   id="svg8"
   inkscape:version="0.92.4 (5da689c313, 2019-01-14)"
   sodipodi:docname="heterodontosaurus.svg">
  <defs
     id="defs2" />
  <sodipodi:namedview
     id="base"
     pagecolor="#ffffff"
     bordercolor="#666666"
     borderopacity="1.0"
     inkscape:pageopacity="0.0"
     inkscape:pageshadow="2"
     inkscape:zoom="1.4"
     inkscape:cx="116.09606"
     inkscape:cy="93.742078"
     inkscape:document-units="mm"
     inkscape:current-layer="layer1"
     showgrid="false"
     inkscape:window-width="1366"
     inkscape:window-height="745"
     inkscape:window-x="-8"
     inkscape:window-y="-8"
     inkscape:window-maximized="1" />
  <metadata
     id="metadata5">
    <rdf:RDF>
      <cc:Work
         rdf:about="">
        <dc:format>image/svg+xml</dc:format>
        <dc:type
           rdf:resource="http://purl.org/dc/dcmitype/StillImage" />
        <dc:title></dc:title>
      </cc:Work>
    </rdf:RDF>
  </metadata>
  <g
     inkscape:label="Camada 1"
     inkscape:groupmode="layer"
     id="layer1"
     transform="translate(-64.693371,-20.452988)">
    <path
       style="fill:#d5d5d5;fill-opacity:1;stroke-width:1"
       d="m 78.815575,58.886029 c 0,-0.05264 0.03135,-0.220233 0.06968,-0.372424 0.05199,-0.206458 0.05193,-0.315657 -2.46e-4,-0.430112 -0.05657,-0.124152 -0.04055,-0.269148 0.08399,-0.760457 0.08466,-0.33388 0.153909,-0.707347 0.153909,-0.829926 0,-0.122579 0.03121,-0.346816 0.06936,-0.498305 0.03815,-0.151488 0.05427,-0.290522 0.03582,-0.308963 -0.01844,-0.01844 -0.208692,0.04847 -0.42278,0.148686 -0.363789,0.170298 -1.223088,0.459174 -1.259011,0.42325 -0.0089,-0.0089 0.105356,-0.111826 0.25382,-0.228807 0.148464,-0.116981 0.278637,-0.267463 0.289274,-0.334405 0.01144,-0.07198 0.167827,-0.211413 0.38272,-0.341231 0.342257,-0.206759 0.369399,-0.240771 0.46693,-0.585139 0.05695,-0.20109 0.217106,-0.669872 0.355897,-1.041737 0.138792,-0.371865 0.324736,-1.019178 0.413211,-1.438472 0.08848,-0.419295 0.198078,-0.861845 0.243563,-0.983445 0.04548,-0.1216 0.09931,-0.304069 0.119608,-0.405487 l 0.03691,-0.184396 -0.122151,0.142984 c -0.08384,0.09814 -0.160173,0.130917 -0.24338,0.104508 -0.08792,-0.02791 -0.149996,0.0054 -0.225938,0.121331 -0.06396,0.09761 -0.140087,0.146231 -0.195607,0.124926 -0.04999,-0.01918 -0.128732,-0.0035 -0.174976,0.0349 -0.04624,0.03838 -0.144491,0.05398 -0.218326,0.03467 -0.239064,-0.06252 -0.408414,0.195036 -0.372693,0.5668 0.02363,0.245946 0.0095,0.3201 -0.06641,0.34924 -0.07639,0.02931 -0.08385,0.07003 -0.03594,0.196029 0.07727,0.20324 0.031,0.32223 -0.125302,0.32223 -0.09637,0 -0.144506,-0.07348 -0.221419,-0.338059 -0.110506,-0.380123 -0.160517,-0.413687 -0.251864,-0.169029 -0.05477,0.146683 -0.03602,0.207646 0.141798,0.461131 0.112699,0.160657 0.204908,0.316472 0.204908,0.346257 0,0.02979 0.05772,0.06925 0.128276,0.0877 0.232255,0.06074 0.118379,0.25295 -0.172969,0.291958 -0.142016,0.01901 -0.309787,0.08125 -0.372826,0.138297 -0.222001,0.200908 -0.472693,0.108435 -0.75225,-0.277483 -0.21281,-0.293776 -0.233716,-0.477412 -0.05954,-0.522961 0.13412,-0.03507 0.154022,-0.120449 0.06146,-0.263671 -0.05812,-0.08993 -0.0687,-0.08042 -0.08451,0.07599 -0.01583,0.15656 -0.201833,0.104032 -0.460483,-0.130043 l -0.267167,-0.241783 0.04485,-0.326088 c 0.04105,-0.298478 0.08064,-0.361664 0.467548,-0.746278 0.232484,-0.231105 0.424588,-0.453438 0.426896,-0.494073 0.0023,-0.04064 0.167193,-0.212179 0.366411,-0.381208 0.199217,-0.16903 0.363284,-0.341607 0.364594,-0.383504 0.0013,-0.0419 0.534824,-0.428746 1.185588,-0.859663 0.650764,-0.430917 1.207646,-0.801615 1.237517,-0.823772 0.02987,-0.02216 -0.01537,-0.133178 -0.100544,-0.246712 -0.08517,-0.113535 -0.216805,-0.330894 -0.292525,-0.48302 -0.07572,-0.152127 -0.173866,-0.318083 -0.218104,-0.368792 -0.529348,-0.606787 -0.76773,-0.818529 -1.363927,-1.211504 -0.380317,-0.250681 -0.691485,-0.481705 -0.691485,-0.513387 0,-0.03168 -0.0598,-0.0576 -0.132896,-0.0576 -0.07309,0 -0.252826,-0.07028 -0.399407,-0.156185 -0.14658,-0.0859 -0.716027,-0.304416 -1.265438,-0.485588 -0.549411,-0.181173 -1.344672,-0.488014 -1.767245,-0.68187 -1.171864,-0.537593 -1.457811,-0.631 -2.065383,-0.674671 -0.62355,-0.04482 -1.965731,-0.273697 -2.907548,-0.495811 -0.70715,-0.166772 -0.812753,-0.161328 -1.578878,0.08138 l -0.497478,0.157604 -0.578164,-0.138894 c -0.911938,-0.219077 -0.988567,-0.374392 -0.450292,-0.912668 0.290631,-0.290631 0.336886,-0.367035 0.302942,-0.500407 -0.02203,-0.08657 -0.05572,-0.253952 -0.07486,-0.371955 l -0.0348,-0.214549 0.254568,0.229988 c 0.242551,0.219129 0.263688,0.226266 0.447732,0.151168 0.125637,-0.05127 0.246198,-0.176953 0.344875,-0.359538 0.150446,-0.278377 0.150863,-0.283639 0.05002,-0.630525 -0.05593,-0.192392 -0.150734,-0.398848 -0.210676,-0.45879 -0.05994,-0.05994 -0.09888,-0.139296 -0.08653,-0.176342 0.01235,-0.03705 -0.0067,-0.08535 -0.04226,-0.107351 -0.03559,-0.022 -0.06471,-0.01332 -0.06471,0.01928 0,0.0326 -0.09681,0.175149 -0.215129,0.316769 -0.11832,0.141621 -0.216002,0.28945 -0.21707,0.328508 -0.0026,0.09504 -0.282512,0.409076 -0.364628,0.409076 -0.04184,0 -0.05072,0.09016 -0.02483,0.252072 0.05427,0.339388 -0.137869,0.316444 -0.315449,-0.03767 -0.06761,-0.134825 -0.128604,-0.255419 -0.135539,-0.267988 -0.0069,-0.01257 -0.09896,0.06349 -0.20449,0.16903 -0.243447,0.243446 -0.453931,0.252283 -0.544317,0.02285 -0.03663,-0.09297 -0.09967,-0.214658 -0.140105,-0.270426 -0.103391,-0.142604 0.02154,-0.656913 0.273809,-1.127246 0.143396,-0.267343 0.30653,-0.45245 0.595864,-0.676119 0.219125,-0.169394 0.523378,-0.446202 0.676118,-0.615128 0.558175,-0.617329 1.315524,-1.383157 1.367841,-1.383157 0.02954,0 0.238797,-0.111631 0.465015,-0.24807 0.490558,-0.29587 1.080815,-0.489514 1.492112,-0.489514 0.164508,0 0.507913,-0.04588 0.763121,-0.101959 0.429895,-0.09446 0.498952,-0.09461 0.939093,-0.0021 0.261292,0.05494 0.622017,0.11355 0.801611,0.130252 0.195636,0.01819 0.507866,0.117583 0.77888,0.247936 0.24879,0.119663 0.475251,0.217683 0.503247,0.217823 0.07182,3.69e-4 0.622494,0.353243 1.012446,0.6488 0.181074,0.137241 0.730287,0.501725 1.220473,0.809964 l 0.891246,0.560434 0.596865,0.06592 c 1.036637,0.114484 1.12503,0.10239 1.946482,-0.26632 0.468856,-0.210446 0.972032,-0.498913 1.372638,-0.786921 1.27287,-0.915107 2.818997,-1.795997 3.840862,-2.188292 1.363184,-0.523327 3.589101,-1.063408 5.243062,-1.27214 0.422574,-0.05333 1.252355,-0.16499 1.843958,-0.248136 1.579465,-0.221982 2.320277,-0.272784 3.986398,-0.273369 l 1.49705,-5.53e-4 0.13126,-0.16903 c 0.24821,-0.319641 0.6113,-0.693955 0.6427,-0.662557 0.0173,0.01729 -0.11122,0.19546 -0.28558,0.395928 -0.17436,0.200468 -0.31702,0.380501 -0.31702,0.400073 0,0.05332 0.18406,0.04294 0.1865,-0.01051 0.003,-0.0735 0.85402,-0.974726 0.85575,-0.906613 8.5e-4,0.03381 -0.17706,0.268911 -0.39537,0.522455 -0.41692,0.484203 -0.45603,0.553188 -0.31363,0.553188 0.0481,0 0.28317,-0.265582 0.52246,-0.590183 0.23928,-0.3246 0.43506,-0.549027 0.43506,-0.498726 0,0.102491 -0.4415,0.786311 -0.58405,0.904625 -0.12688,0.105293 -0.11526,0.184284 0.0271,0.184284 0.0794,0 0.19516,-0.123138 0.34679,-0.368792 0.24275,-0.393277 0.30463,-0.452899 0.23925,-0.230495 -0.0262,0.08898 0.1405,-0.04246 0.46732,-0.368573 0.27938,-0.278779 0.51932,-0.495508 0.53321,-0.481621 0.0598,0.05975 -0.16078,0.348082 -0.64994,0.84975 -0.28819,0.295557 -0.50547,0.5559 -0.48283,0.578538 0.0945,0.09446 0.36349,-0.124863 0.69746,-0.568584 0.31394,-0.417106 0.35983,-0.456352 0.38901,-0.332723 0.0294,0.124622 0.0597,0.100115 0.27291,-0.221031 0.1319,-0.198656 0.25063,-0.328759 0.26384,-0.289117 0.0356,0.106882 -0.14104,0.424962 -0.513,0.923616 -0.32354,0.433746 -0.40841,0.587701 -0.25412,0.460982 0.0423,-0.03471 0.14309,-0.07267 0.22408,-0.08436 0.11138,-0.01608 0.25361,-0.18828 0.58392,-0.706967 0.431444,-0.677467 0.557794,-0.817966 0.405944,-0.451372 -0.11621,0.280541 -0.0411,0.281088 0.15289,0.0011 0.0941,-0.135835 0.21681,-0.246974 0.2726,-0.246974 0.0558,0 0.20645,-0.140629 0.33477,-0.312509 0.32967,-0.441591 0.33726,-0.339826 0.0153,0.204808 -0.50038,0.846357 -0.61029,1.132565 -0.21341,0.555726 0.29289,-0.425714 0.61037,-0.759736 0.68076,-0.716235 0.0339,0.02095 0.0858,-1.9e-5 0.1153,-0.04661 0.16581,-0.261785 0.0226,0.170718 -0.2099,0.634034 -0.14598,0.290879 -0.23588,0.515181 -0.19976,0.49845 0.0361,-0.01673 0.35596,-0.357497 0.71078,-0.757257 0.35481,-0.399759 0.65396,-0.717982 0.66478,-0.707161 0.0305,0.03053 -0.34536,0.68419 -0.72274,1.256827 -0.64328,0.976108 -0.64522,0.980475 -0.25054,0.563382 0.205,-0.216649 0.55632,-0.680195 0.78069,-1.030103 0.4152,-0.647469 0.53105,-0.763488 0.3646,-0.365126 -0.12508,0.299361 -0.0447,0.279853 0.1631,-0.03957 0.21691,-0.333469 0.53701,-0.705583 0.53701,-0.624255 0,0.03436 -0.08,0.188682 -0.17786,0.342934 -0.31061,0.489783 -0.32918,0.583175 -0.0559,0.280931 0.38789,-0.428951 0.40404,-0.356582 0.0413,0.184896 -0.17553,0.261996 -0.26142,0.425534 -0.19086,0.363417 0.0706,-0.06212 0.2894,-0.344661 0.48631,-0.627876 0.34631,-0.498109 0.50171,-0.608634 0.29575,-0.210352 -0.15904,0.307538 -0.0615,0.281564 0.16265,-0.04332 0.27802,-0.402939 0.31972,-0.197427 0.0492,0.242489 -0.10882,0.176959 -0.24027,0.390894 -0.29212,0.475408 -0.0519,0.08452 0.19062,-0.144863 0.53883,-0.50973 0.3482,-0.364867 0.64395,-0.652542 0.65721,-0.639279 0.026,0.02595 -0.50671,1.018359 -0.59858,1.115203 -0.0305,0.03212 -0.0554,0.08391 -0.0554,0.115091 0,0.141026 0.20186,-0.139921 0.55681,-0.774958 0.53666,-0.960136 1.18535,-1.978138 1.21116,-1.900699 0.0206,0.06174 -0.2616,0.555852 -0.81467,1.426532 -0.38813,0.611035 -0.37233,0.575538 -0.21987,0.493945 0.24113,-0.12905 1.07172,-1.601215 1.48626,-2.634277 0.21965,-0.54741 0.31839,-0.583372 0.14852,-0.0541 -0.12752,0.397301 -0.69269,1.558064 -0.97823,2.009098 -0.13049,0.206124 -0.18868,0.35242 -0.14974,0.376485 0.10814,0.06683 -0.005,0.285321 -0.39986,0.77275 -0.20867,0.257529 -0.43257,0.54015 -0.49757,0.628045 -0.1918,0.259386 0.38225,-0.298125 0.64744,-0.628786 0.13095,-0.16328 0.37266,-0.410314 0.53714,-0.548965 0.27552,-0.232269 0.34927,-0.362174 0.93782,-1.651998 0.35133,-0.769949 0.64728,-1.361921 0.65767,-1.315493 0.0223,0.09956 -0.38276,1.069699 -0.76397,1.829845 -0.148,0.295127 -0.26909,0.567551 -0.26909,0.605389 0,0.03784 -0.101,0.232425 -0.22444,0.432417 -0.22695,0.367691 -0.23779,0.580974 -0.0152,0.299374 0.14564,-0.184255 1.11896,-2.148166 1.44415,-2.913897 0.12809,-0.301621 0.24281,-0.518625 0.25494,-0.482231 0.0297,0.0891 -0.33348,1.012587 -0.69538,1.768216 -0.16191,0.338059 -0.29938,0.660923 -0.30547,0.717476 -0.006,0.05655 -0.0903,0.236337 -0.18703,0.399524 -0.0968,0.163186 -0.16919,0.319248 -0.16095,0.346805 0.0199,0.06661 -0.19596,0.372285 -0.52552,0.744061 -0.14745,0.166343 -0.29767,0.359959 -0.33382,0.430257 -0.10731,0.208675 0.35502,-0.251774 0.76655,-0.763431 0.20393,-0.253544 0.39502,-0.453731 0.42464,-0.444859 0.17381,0.05206 0.88325,-1.107228 1.49564,-2.44401 0.63622,-1.3888 0.59034,-1.303913 0.54808,-1.014177 -0.0451,0.309363 -0.54282,1.446997 -1.02871,2.351426 -0.3857,0.717938 -0.58797,0.984471 -1.40474,1.85108 -0.55028,0.58386 -0.61062,0.662261 -0.43899,0.570408 0.16121,-0.08628 0.74109,-0.714492 1.3207,-1.430798 0.55541,-0.686396 1.26083,-1.811534 2.51874,-4.017416 0.93712,-1.643318 1.23822,-1.987663 0.48902,-0.559246 -0.52658,1.003959 -1.32803,2.372464 -2.08408,3.558637 -0.31915,0.500714 -0.56259,0.928075 -0.54098,0.94969 0.0216,0.02162 0.32559,-0.263594 0.67549,-0.633796 0.3499,-0.370203 0.65332,-0.656845 0.67428,-0.636981 0.021,0.01986 -0.28702,0.418056 -0.68439,0.884873 -0.92157,1.082652 -1.3527,1.629822 -1.28419,1.629822 0.0205,0 0.29351,-0.299598 0.60678,-0.665773 0.31327,-0.366174 0.75332,-0.870958 0.97789,-1.121741 0.33818,-0.377666 0.44696,-0.556246 0.63343,-1.03989 0.30275,-0.785231 0.78216,-1.853783 0.81636,-1.819583 0.0152,0.0152 -0.15693,0.479223 -0.3825,1.03117 -0.22557,0.551948 -0.42636,1.045031 -0.4462,1.09574 -0.0256,0.06557 0.003,0.05828 0.0977,-0.02523 0.23971,-0.210497 0.21385,-0.05059 -0.0408,0.252156 -0.22579,0.268451 -0.53836,0.863945 -0.48269,0.91961 0.0125,0.01252 0.2414,-0.2429 0.50863,-0.567594 0.51985,-0.631633 0.69678,-0.933221 1.94018,-3.307161 0.88356,-1.686935 1.06838,-2.009747 1.00694,-1.758744 -0.0969,0.395948 -2.12807,4.261816 -2.75445,5.242552 -0.16827,0.263445 -0.29325,0.491672 -0.27775,0.507171 0.0155,0.0155 0.24246,-0.250793 0.50437,-0.59176 0.2619,-0.340968 0.49091,-0.605224 0.50889,-0.587236 0.0425,0.04244 -0.17615,0.399633 -0.54717,0.894098 -0.16257,0.216666 -0.28004,0.40948 -0.26105,0.428477 0.019,0.019 0.0538,0.007 0.0773,-0.02661 0.0235,-0.03363 0.19771,-0.267935 0.38711,-0.520675 0.23012,-0.307085 0.4511,-0.714406 0.66615,-1.227843 0.60642,-1.447842 1.84966,-3.82931 1.94783,-3.731137 0.0159,0.01591 -0.19627,0.445621 -0.47149,0.95492 -0.58294,1.0787 -1.48083,3.043635 -1.40423,3.072995 0.062,0.02375 -0.0741,0.303192 -0.32887,0.67562 -0.0999,0.146051 -0.16719,0.280034 -0.14948,0.297739 0.0459,0.04591 0.3872,-0.502096 0.86761,-1.393068 0.73386,-1.361044 2.02316,-3.438414 2.73021,-4.399035 0.47747,-0.648712 0.20706,-0.155185 -0.77633,1.416858 -1.16064,1.855412 -1.93626,3.170658 -1.89444,3.212474 0.0447,0.04466 -0.18397,0.473302 -0.51645,0.968277 -0.15896,0.236641 -0.32262,0.499405 -0.36369,0.58392 l -0.0747,0.153663 0.142,-0.159259 c 0.0781,-0.08759 0.29414,-0.370921 0.48007,-0.62962 0.18593,-0.258698 0.38215,-0.47054 0.43603,-0.47076 0.0953,-3.69e-4 0.51448,-0.560327 1.26579,-1.690695 0.37685,-0.566982 1.0185,-1.638085 2.20263,-3.676834 0.36952,-0.636216 0.68228,-1.125489 0.69502,-1.087273 0.0768,0.230322 -2.6587,4.786657 -3.75691,6.257676 -0.2347,0.314374 -0.4163,0.582016 -0.40355,0.594759 0.0127,0.01274 0.20943,-0.155043 0.43709,-0.372856 0.3877,-0.37093 0.58162,-0.64233 2.27981,-3.190639 0.13517,-0.202836 0.29491,-0.424111 0.35497,-0.491723 0.0601,-0.06761 0.32187,-0.399524 0.58179,-0.737583 0.25991,-0.338059 0.72309,-0.905077 1.02928,-1.260039 0.30619,-0.354962 0.56517,-0.65691 0.57551,-0.670996 0.0104,-0.01409 0.0332,-0.01121 0.0508,0.0064 0.031,0.03101 -0.56459,0.824458 -1.26648,1.687169 -0.66557,0.818072 -1.44739,1.967784 -1.89247,2.782983 -0.24758,0.453463 -0.54842,0.972494 -0.66854,1.153401 -0.33532,0.505032 -0.20048,0.44907 0.21639,-0.08981 0.61788,-0.798717 0.80829,-0.858571 0.24461,-0.07689 -0.17748,0.24612 -0.36048,0.520136 -0.40667,0.608927 -0.0462,0.08879 -0.29447,0.375796 -0.55174,0.637792 -0.56392,0.574265 -0.53194,0.619716 0.0649,0.0922 0.48599,-0.429573 1.01632,-1.1994 2.57076,-3.731728 1.1135,-1.813998 1.64796,-2.590973 2.36927,-3.444346 0.91941,-1.087747 1.02186,-1.061041 0.14523,0.03786 -0.95465,1.196697 -1.93657,2.703461 -3.17288,4.868799 -0.35655,0.624489 -0.65287,1.166731 -0.65848,1.204982 -0.006,0.03825 -0.0747,0.16015 -0.15358,0.270886 -0.29255,0.410854 -0.0642,0.248725 0.36753,-0.260967 0.24548,-0.289787 0.45783,-0.51538 0.47189,-0.501317 0.0339,0.0339 -0.57762,0.863778 -1.08984,1.478999 -0.53065,0.637364 -0.5892,0.750396 -0.19105,0.368792 0.42116,-0.40365 1.10586,-1.334 2.01302,-2.735206 2.43812,-3.765939 3.58451,-5.497913 3.58451,-5.415496 0,0.04077 -0.0397,0.150826 -0.0881,0.244579 -0.2354,0.455198 -2.77867,4.467783 -3.42207,5.399077 -0.73105,1.058178 -0.83847,1.240483 -0.60796,1.031879 0.29931,-0.270875 0.0767,0.04928 -0.40033,0.575642 -0.47856,0.528092 -0.63961,0.735974 -0.44482,0.574159 0.30086,-0.24992 0.64126,-0.62225 0.99948,-1.093238 0.22936,-0.301557 0.62912,-0.81105 0.88835,-1.132206 0.25923,-0.321156 0.77185,-1.02647 1.13916,-1.567365 1.05774,-1.557622 1.65931,-2.382693 2.41568,-3.313166 0.81202,-0.998934 0.84596,-1.036333 0.78644,-0.866474 -0.0251,0.07148 0.0942,-0.01214 0.28484,-0.199762 0.51979,-0.511491 0.47047,-0.375662 -0.0893,0.245861 -1.29038,1.432806 -2.76003,3.456823 -3.09889,4.267826 -0.13931,0.333418 -0.0224,0.2075 0.56549,-0.6089 0.66957,-0.929871 1.39136,-1.838829 1.42973,-1.80046 0.0157,0.01574 0.001,0.06386 -0.0317,0.106938 -0.4871,0.632588 -1.88691,2.633172 -2.52773,3.612571 -0.45345,0.693022 -0.88125,1.322164 -0.95068,1.398094 -0.0694,0.07593 -0.11293,0.151357 -0.0967,0.167616 0.10565,0.10565 0.68161,-0.607178 1.5879,-1.965234 0.86062,-1.289637 2.25518,-3.145131 2.31721,-3.083103 0.015,0.01499 -0.23022,0.369212 -0.54489,0.787173 -1.22491,1.626969 -1.71411,2.326663 -1.62671,2.326663 0.0183,0 0.16521,-0.172871 0.32654,-0.384158 0.16133,-0.211287 0.50178,-0.607099 0.75654,-0.879581 0.25477,-0.272482 0.79262,-0.946634 1.19522,-1.498116 1.05565,-1.446019 3.24386,-4.008465 3.34051,-3.911813 0.0173,0.01726 -0.15375,0.246645 -0.38002,0.509752 -1.33838,1.556253 -3.17004,3.860773 -3.17004,3.98841 0,0.02704 0.11025,-0.05849 0.245,-0.19007 0.13476,-0.131582 0.28122,-0.244554 0.32548,-0.25105 0.19409,-0.02849 0.78116,-0.473781 1.05958,-0.803697 1.32579,-1.570996 3.22395,-3.670425 3.27363,-3.620744 0.0405,0.04052 -0.23612,0.374708 -1.22972,1.485504 -0.45011,0.503213 -1.04675,1.191527 -1.32583,1.529586 -0.27909,0.338059 -0.61244,0.73912 -0.74077,0.891247 -0.92822,1.100329 -3.24694,4.281581 -3.17394,4.35459 0.12995,0.12995 1.88521,-2.015253 2.63262,-3.217482 0.62235,-1.001072 1.43987,-2.155205 1.49064,-2.104431 0.0154,0.01542 -0.1485,0.287773 -0.36426,0.605239 -0.21577,0.317467 -0.56633,0.867636 -0.77904,1.222598 -0.2127,0.354962 -0.46058,0.756023 -0.55083,0.891246 -0.0902,0.135224 -0.23015,0.356499 -0.31088,0.491723 -0.19588,0.328077 -10e-4,0.177201 0.25848,-0.200547 0.10183,-0.147995 0.20058,-0.25364 0.21945,-0.234766 0.0428,0.0428 -0.38251,0.685323 -1.05722,1.597178 -0.29333,0.396422 -0.49311,0.720806 -0.46273,0.751322 0.0304,0.03052 -0.12966,0.252678 -0.3708,0.514692 -0.51334,0.557762 -0.5486,0.66433 -0.0902,0.272732 0.31256,-0.267022 1.16318,-1.371881 2.18477,-2.837758 0.21749,-0.312072 0.42309,-0.568844 0.4569,-0.570605 0.0338,-0.0018 0.20311,-0.188979 0.37623,-0.416041 0.4886,-0.640836 2.24486,-2.667999 2.28054,-2.632318 0.0175,0.01753 -0.35409,0.496425 -0.82582,1.06421 -1.12916,1.35909 -1.88609,2.317679 -2.65949,3.368019 -0.34849,0.473283 -0.7561,1.022167 -0.90579,1.219742 -0.1497,0.197575 -0.26057,0.370834 -0.24639,0.385019 0.0761,0.07608 0.41936,-0.33958 1.18321,-1.432676 1.11014,-1.588647 1.3245,-1.878334 1.36208,-1.840744 0.0172,0.01715 -0.0571,0.159545 -0.16505,0.316423 -0.3094,0.449693 -0.17221,0.388832 0.17292,-0.07671 0.31197,-0.420827 0.56466,-0.69028 0.56466,-0.602109 0,0.0259 -0.1886,0.286033 -0.41911,0.57808 -0.23052,0.292047 -0.4856,0.627803 -0.56685,0.746123 -0.0812,0.118321 -0.46658,0.643849 -0.85629,1.167841 -0.3897,0.523991 -0.719,0.980371 -0.73178,1.014177 -0.0819,0.216738 0.51871,-0.493943 0.96095,-1.137108 0.29057,-0.422574 0.68071,-0.975761 0.86699,-1.229306 0.18627,-0.253544 0.46492,-0.635977 0.61922,-0.849851 0.94073,-1.303961 2.78315,-3.334284 3.96115,-4.365122 0.92993,-0.813758 1.32847,-1.136781 1.36163,-1.103621 0.0153,0.01534 -0.3453,0.353117 -0.80143,0.750606 -1.9287,1.680731 -4.07786,4.193026 -5.99883,7.012423 -0.57111,0.838212 -0.56604,0.829781 -0.499,0.829781 0.0945,0 1.15818,-1.314013 1.93182,-2.386485 1.45516,-2.017243 2.63321,-3.378137 2.62967,-3.037827 0,0.02535 -0.17434,0.241481 -0.38682,0.480282 -0.51037,0.573566 -1.72398,2.115655 -1.69099,2.148654 0.0143,0.01427 0.21731,-0.16688 0.45118,-0.402563 0.52823,-0.532299 0.67384,-0.569155 0.17524,-0.04436 -0.9957,1.048037 -2.54486,2.95397 -2.46551,3.033319 0.0141,0.01412 0.17525,-0.147018 0.35806,-0.35809 0.18281,-0.211072 0.60898,-0.674833 0.94704,-1.030581 0.33806,-0.355747 0.93573,-1.047654 1.32815,-1.537572 0.96288,-1.20209 1.61225,-1.925566 2.8408,-3.164975 1.21631,-1.227046 1.28583,-1.227046 0.12892,0 -1.5356,1.628706 -2.11589,2.313491 -4.23801,5.001151 -0.78057,0.98859 -0.78468,0.994235 -0.74967,1.029243 0.0355,0.03554 0.9457,-1.035561 1.85122,-2.178579 0.33032,-0.416945 0.61603,-0.742624 0.63493,-0.723732 0.0667,0.06676 -1.52818,2.073735 -2.21454,2.786663 -0.26701,0.277355 -0.28081,0.367672 -0.0383,0.250787 0.18218,-0.08781 0.52317,-0.49151 1.61173,-1.908137 1.80876,-2.353885 3.4096,-4.134552 4.98293,-5.54267 0.77497,-0.693601 0.57854,-0.448621 -0.54781,0.683183 -0.59563,0.598513 -1.25351,1.313877 -1.46195,1.589699 -0.20846,0.275821 -0.72579,0.940909 -1.14963,1.477971 -1.33176,1.687501 -1.38002,1.819339 -0.16058,0.438657 0.88847,-1.005944 1.63806,-1.770933 1.63806,-1.671712 0,0.03362 -0.22392,0.281758 -0.49759,0.551412 -0.27367,0.269654 -0.5645,0.594097 -0.64629,0.720985 -0.0818,0.126887 -0.34978,0.4588 -0.59555,0.737583 -0.24576,0.278784 -0.66612,0.769644 -0.93414,1.0908 -0.26802,0.321156 -0.64766,0.76111 -0.84367,0.977675 -0.19601,0.216565 -0.34333,0.406797 -0.32739,0.42274 0.0558,0.05578 0.65072,-0.531413 1.24027,-1.224138 0.32708,-0.384302 0.91582,-1.044474 1.30832,-1.467048 0.39251,-0.422574 0.93422,-1.017251 1.20381,-1.321504 0.68617,-0.774409 2.86614,-2.981067 2.94501,-2.981067 0.0359,0 -0.32345,0.394146 -0.7985,0.87588 -1.28528,1.303351 -2.25332,2.369834 -2.21191,2.436835 0.0202,0.03261 -0.0757,0.15112 -0.21313,0.263348 -0.33142,0.270765 -2.44649,2.908439 -2.38305,2.971881 0.0161,0.0161 0.60463,-0.606987 1.30785,-1.384642 0.70321,-0.777656 1.2877,-1.413919 1.29886,-1.413919 0.0112,0 0.004,0.04149 -0.0151,0.0922 -0.0716,0.186636 0.0647,0.07064 1.12683,-0.959114 1.05116,-1.019072 2.45515,-2.249081 2.50748,-2.196751 0.0141,0.01414 -0.27036,0.291474 -0.63221,0.616295 -0.74437,0.668186 -2.89707,2.826313 -3.42219,3.430817 -0.72109,0.83009 -0.43776,0.595587 0.76538,-0.633487 0.68481,-0.699565 1.27607,-1.271938 1.31391,-1.271938 0.0378,0 -0.34541,0.414891 -0.85165,0.92198 -0.50624,0.507089 -0.89444,0.921979 -0.86267,0.921979 0.0318,0 0.14857,-0.088 0.25954,-0.195561 0.11097,-0.107558 0.21526,-0.182065 0.23176,-0.16557 0.0165,0.01649 -0.2343,0.311942 -0.55731,0.65655 -0.90669,0.967304 -0.59834,0.74144 0.52916,-0.387617 0.55703,-0.557797 1.03812,-1.014177 1.0691,-1.014177 0.031,0 0.0105,0.05058 -0.0454,0.112404 -0.1847,0.204096 -0.10587,0.208538 0.14697,0.0083 0.13679,-0.108334 0.26547,-0.180194 0.28598,-0.159689 0.0205,0.0205 -0.043,0.09975 -0.14113,0.176089 -0.65191,0.507194 -2.34714,2.170914 -2.28022,2.237837 0.0183,0.01824 0.31532,-0.225145 0.66016,-0.540859 1.74856,-1.600861 4.86211,-4.23121 5.00848,-4.23121 0.0231,0 0.1509,-0.08631 0.2841,-0.191806 0.13319,-0.105493 0.25445,-0.179533 0.26944,-0.164534 0.015,0.015 -0.21446,0.224608 -0.50992,0.465795 -1.03845,0.847709 -1.1517,0.950219 -1.1354,1.027679 0.009,0.04297 -0.1569,0.22614 -0.36879,0.407038 -0.61082,0.521501 -2.32499,2.10254 -2.62872,2.424566 -0.34582,0.366652 -0.16526,0.235584 0.8378,-0.60815 0.43507,-0.365963 0.99252,-0.794684 1.23878,-0.952712 0.24627,-0.158028 0.74096,-0.50255 1.09933,-0.765603 0.35837,-0.263054 0.66341,-0.466444 0.67788,-0.451979 0.0145,0.01447 -0.20364,0.216932 -0.48468,0.449925 -1.69814,1.407838 -2.73623,2.288198 -3.27691,2.778995 -0.33806,0.306872 -0.88433,0.769884 -1.21394,1.028916 -0.54868,0.4312 -0.83233,0.740964 -0.43026,0.469875 0.093,-0.06268 0.24971,-0.154458 0.34832,-0.203948 0.0986,-0.04949 0.52733,-0.423948 0.95271,-0.832128 0.86324,-0.828325 3.1735,-2.744929 3.32122,-2.755295 0.0524,-0.0037 0.30266,-0.160406 0.5562,-0.348293 0.52196,-0.386797 3.03103,-2.090559 3.2423,-2.201661 0.31337,-0.164797 0.0884,0.01814 -0.79682,0.647787 -0.51431,0.365847 -1.19048,0.879896 -1.50261,1.142333 -0.55448,0.466204 -0.73607,0.585068 -0.56623,0.370655 0.0737,-0.093 0.061,-0.09172 -0.10005,0.01007 -0.52932,0.334624 -2.41063,1.780687 -2.91585,2.241268 -0.93081,0.848577 -2.03756,1.926911 -2.008,1.956468 0.0373,0.03725 1.11368,-0.822628 1.78913,-1.429196 0.30425,-0.27323 0.74933,-0.661231 0.98907,-0.862225 0.23974,-0.200993 0.66846,-0.573731 0.95271,-0.828306 0.60113,-0.538365 1.07198,-0.920106 1.13487,-0.920106 0.0868,0 -0.56653,0.653578 -1.11832,1.118679 -0.74956,0.631796 -2.27558,2.116154 -2.22701,2.166211 0.0213,0.02191 0.38829,-0.265566 0.81563,-0.638835 0.86662,-0.756985 1.92798,-1.574581 1.97847,-1.524085 0.0181,0.01811 -0.16498,0.1878 -0.40688,0.377076 -0.69071,0.540439 -2.39735,2.022757 -2.36551,2.054588 0.031,0.031 0.30341,-0.182195 1.16894,-0.914809 0.96083,-0.813273 2.43667,-1.974413 2.46875,-1.94233 0.0437,0.04373 -0.10965,0.18707 -0.80924,0.756277 -0.63098,0.513389 -1.81431,1.612193 -1.74194,1.617514 0.0223,0.0016 0.43716,-0.332207 0.92198,-0.741878 2.40517,-2.032373 2.63822,-2.215966 4.45238,-3.507451 0.94699,-0.674147 2.46397,-1.626852 2.51275,-1.578071 0.0128,0.01278 -0.39657,0.303267 -0.90966,0.645538 -1.13899,0.7598 -3.3618,2.411025 -3.3434,2.48366 0.007,0.02904 -0.14456,0.157735 -0.3376,0.285983 -0.4953,0.329067 -2.2899,1.883211 -2.20663,1.910966 0.038,0.01265 0.0517,0.05106 0.0305,0.08536 -0.0621,0.100417 0.15411,-0.0319 0.58728,-0.359474 0.83568,-0.631965 1.03889,-0.780457 1.68242,-1.22945 0.36552,-0.255016 0.67737,-0.450864 0.69302,-0.435216 0.0156,0.01565 -0.40705,0.357366 -0.93933,0.759376 -0.53228,0.40201 -1.27285,0.961054 -1.64573,1.242321 -0.62839,0.474007 -0.88135,0.748644 -0.68956,0.748644 0.0421,0 0.43396,-0.305848 0.87071,-0.679661 1.18281,-1.012366 3.37437,-2.636856 3.45225,-2.558975 0.0151,0.01509 -0.18816,0.187213 -0.45166,0.382502 -1.13959,0.844578 -1.30888,0.977751 -1.30888,1.02962 0,0.06151 0.45252,-0.251309 1.62883,-1.125962 1.02276,-0.760477 1.74608,-1.240066 2.53578,-1.68131 0.67756,-0.378574 1.55297,-0.794334 1.59148,-0.75583 0.013,0.01299 -0.46581,0.297458 -1.06399,0.63216 -1.32518,0.741488 -2.41758,1.446091 -2.30333,1.485663 0.0467,0.01619 -0.13,0.151869 -0.39953,0.306714 -0.45601,0.261976 -1.31312,0.900108 -1.31312,0.977632 0,0.01959 0.0403,0.0022 0.0895,-0.03867 0.0492,-0.04086 0.11653,-0.05758 0.14956,-0.03717 0.0708,0.04373 0.82998,-0.354221 1.05171,-0.551267 0.2019,-0.179431 0.68045,-0.474859 0.71433,-0.440986 0.0146,0.01463 -0.0779,0.105434 -0.20557,0.201789 -0.51927,0.391837 -1.18813,0.965571 -1.15928,0.994418 0.0169,0.01693 0.21862,-0.1072 0.44821,-0.275841 0.58873,-0.432438 0.93731,-0.653826 0.97312,-0.618021 0.0169,0.0169 -0.0874,0.108454 -0.23174,0.203447 -0.77584,0.510511 -3.20582,2.362101 -3.16005,2.407875 0.0464,0.04638 0.52645,-0.281138 1.14451,-0.780817 0.57146,-0.462003 1.73643,-1.314727 2.50601,-1.834319 0.37426,-0.252691 0.5136,-0.389858 0.25597,-0.251973 -0.0705,0.03773 -0.14223,0.05458 -0.15938,0.03743 -0.0172,-0.01715 0.0522,-0.0743 0.15411,-0.126997 0.10191,-0.0527 0.19437,-0.07105 0.20547,-0.04079 0.0111,0.03027 0.32444,-0.136613 0.6963,-0.370848 0.78287,-0.493122 2.01597,-1.124332 2.12526,-1.0879 0.0412,0.01374 -0.12969,0.129713 -0.37978,0.257723 -0.58261,0.298219 -2.64118,1.551692 -2.86528,1.744687 -0.18859,0.162414 -0.11814,0.128531 0.83081,-0.399611 0.21292,-0.118501 0.40099,-0.201601 0.41792,-0.184667 0.0169,0.01693 -0.18094,0.146993 -0.43972,0.289021 -0.49754,0.273065 -2.0933,1.327554 -2.1515,1.421725 -0.0189,0.03053 0.0157,0.05617 0.0769,0.05698 0.0611,8.11e-4 -0.0963,0.114721 -0.3498,0.253133 -0.59207,0.323216 -1.29077,0.79354 -1.29077,0.868869 0,0.03218 0.0737,0.0102 0.16383,-0.04885 0.0901,-0.05904 0.60821,-0.355129 1.15133,-0.657973 0.54312,-0.302844 1.25077,-0.735959 1.57256,-0.962477 0.86444,-0.608518 2.00563,-1.281032 2.06798,-1.218685 0.0149,0.01488 -0.1744,0.145687 -0.4206,0.290685 -0.38296,0.225526 -1.16713,0.754283 -2.7671,1.865805 -0.19389,0.134705 -0.34347,0.253987 -0.33239,0.265069 0.0579,0.05785 0.93626,-0.412719 1.39179,-0.745579 2.25592,-1.648421 4.28016,-2.748126 6.44444,-3.501073 0.87997,-0.306138 0.98204,-0.274309 0.16308,0.05086 -1.70896,0.678542 -2.48457,1.053002 -3.93378,1.899194 -1.22653,0.716166 -3.47279,2.265844 -3.47279,2.395848 0,0.03129 0.0761,0.0067 0.16903,-0.05461 0.32576,-0.214881 0.69817,-0.408168 0.72832,-0.378012 0.0168,0.01674 -0.25236,0.206612 -0.598,0.421935 -0.80942,0.504241 -0.76299,0.470803 -0.71728,0.516504 0.0547,0.05469 0.45264,-0.184335 1.73944,-1.044773 1.06138,-0.709716 2.40843,-1.486582 2.47033,-1.424685 0.0162,0.01625 -0.0351,0.06299 -0.11403,0.10386 -0.71787,0.371629 -1.90759,1.136843 -1.79292,1.153179 0.0792,0.01129 0.44012,-0.158599 0.89125,-0.419522 0.91752,-0.530685 2.35429,-1.246531 2.8172,-1.403625 0.18594,-0.0631 0.55149,-0.214287 0.81234,-0.335977 0.8515,-0.397237 0.56443,-0.124682 -0.3354,0.318428 -1.76407,0.868701 -4.77269,2.637712 -4.93632,2.902467 -0.0573,0.09265 0.11296,-0.001 0.73209,-0.402798 1.12854,-0.732386 3.14709,-1.793316 3.3092,-1.739282 0.0365,0.01218 -0.22948,0.157498 -0.59113,0.322939 -0.64794,0.296412 -0.8923,0.458975 -0.56731,0.377407 0.0896,-0.02248 0.16283,-0.01771 0.16283,0.01059 0,0.0283 0.325,-0.10745 0.72222,-0.301668 0.39722,-0.194218 0.80519,-0.369446 0.90661,-0.389396 0.10142,-0.01995 -0.13228,0.117228 -0.51933,0.30484 -0.76293,0.36981 -0.77977,0.379994 -0.72273,0.437036 0.0212,0.02115 0.61352,-0.218255 1.31638,-0.53202 1.33171,-0.594494 3.17936,-1.31075 3.28788,-1.274575 0.0345,0.01152 -0.38181,0.197052 -0.92523,0.412301 -0.54344,0.215249 -0.97596,0.410953 -0.96116,0.434899 0.0148,0.02395 -0.38807,0.231612 -0.89527,0.46148 -0.5072,0.229868 -0.91193,0.448026 -0.89938,0.484797 0.0125,0.03677 -0.29782,0.233974 -0.68969,0.43823 -0.90914,0.473869 -2.54463,1.443435 -2.50376,1.484299 0.0172,0.01716 0.16446,-0.03537 0.32731,-0.116753 0.16286,-0.08138 0.48973,-0.244823 0.72637,-0.363213 0.23664,-0.11839 0.81695,-0.419842 1.28957,-0.669893 0.47262,-0.250051 0.91517,-0.458102 0.98344,-0.462335 0.0683,-0.0042 0.33668,-0.109151 0.59647,-0.233152 0.69316,-0.330867 0.72867,-0.268909 0.0501,0.08745 -0.32115,0.168666 -0.50094,0.287466 -0.39952,0.264 0.10142,-0.02347 0.26737,-0.04807 0.36879,-0.05468 0.10142,-0.0066 0.3603,-0.08695 0.5753,-0.17854 0.57449,-0.244746 2.11401,-0.779003 2.18072,-0.756768 0.0316,0.01054 -0.22982,0.124495 -0.58096,0.25324 -0.35113,0.128745 -0.74907,0.297456 -0.88429,0.374913 -0.13522,0.07746 -0.52245,0.250755 -0.86051,0.385107 -0.93384,0.371125 -2.56983,1.11995 -2.67374,1.223828 -0.0753,0.07527 -0.0471,0.07316 0.15366,-0.01151 0.13522,-0.05702 0.31501,-0.125149 0.39952,-0.151394 0.0845,-0.02624 0.52225,-0.218831 0.97274,-0.427971 1.5124,-0.702138 3.16489,-1.266999 3.22029,-1.100782 0.0101,0.03017 0.21467,-0.01194 0.4547,-0.09358 1.32697,-0.451332 3.99805,-0.9809 3.76325,-0.746102 -0.0166,0.01664 -0.34624,0.08537 -0.73246,0.152731 -1.32835,0.231686 -2.94422,0.680479 -4.25599,1.182062 -0.55401,0.211834 -0.60678,0.293881 -0.0703,0.109308 0.55014,-0.189279 0.54684,-0.108647 -0.005,0.119246 -1.98918,0.821633 -3.77759,1.641821 -3.77759,1.732447 0,0.0666 0.327,-0.0562 1.16784,-0.438557 1.15715,-0.526182 3.97097,-1.596718 4.19686,-1.596718 0.1619,0 -0.0883,0.123709 -0.72404,0.358044 -1.83306,0.675636 -2.64336,0.995229 -2.66153,1.049753 -0.011,0.03296 -0.20493,0.121507 -0.43099,0.196765 -0.22605,0.07526 -0.37724,0.148117 -0.33597,0.161905 0.0736,0.0246 0.8579,-0.23462 2.07625,-0.686253 1.23307,-0.457087 2.28707,-0.820512 2.4933,-0.859701 l 0.21117,-0.04013 -0.16141,0.09217 c -0.0888,0.0507 -0.6418,0.26193 -1.22896,0.469412 -0.58716,0.207482 -1.16452,0.426211 -1.28303,0.486066 -0.1185,0.05986 -0.51972,0.21168 -0.89158,0.337387 -0.37187,0.125707 -0.70378,0.256742 -0.73759,0.291188 -0.0415,0.04229 -0.0215,0.05153 0.0615,0.02847 0.0676,-0.01879 0.28888,-0.08041 0.49172,-0.136934 0.20284,-0.05652 0.62342,-0.210298 0.93463,-0.341718 1.22818,-0.518641 3.38525,-1.1729 3.81249,-1.156362 0.0598,0.0023 -0.39742,0.151111 -1.01595,0.330662 -0.61852,0.17955 -1.14175,0.343614 -1.16272,0.364586 -0.0656,0.06558 0.18344,0.04044 0.53555,-0.05407 0.31388,-0.08425 0.79276,-0.126887 0.73095,-0.06508 -0.0149,0.01492 -0.35835,0.101021 -0.76319,0.191347 -1.32594,0.295834 -3.05856,0.829406 -2.97254,0.915417 0.0134,0.01343 0.30085,-0.05602 0.63871,-0.154328 0.33787,-0.09831 0.68345,-0.175473 0.76797,-0.171474 0.0845,0.004 0.73451,-0.146677 1.44443,-0.334836 1.65557,-0.438789 2.47272,-0.563025 1.09101,-0.165871 -0.49086,0.141093 -0.59353,0.226494 -0.18439,0.153377 0.40777,-0.07287 0.58749,-0.09072 1.21394,-0.120571 0.57109,-0.02721 0.56277,-0.02467 -0.37881,0.115725 -0.5295,0.07895 -1.09454,0.188457 -1.25562,0.243346 -0.34506,0.117572 -0.41605,0.123848 -0.35913,0.03175 0.0273,-0.04417 0.002,-0.05593 -0.0732,-0.03351 -0.0634,0.019 -0.25356,0.06799 -0.42259,0.108876 -0.16903,0.04089 -0.36264,0.108534 -0.43026,0.150329 -0.0676,0.0418 -0.42095,0.137811 -0.7852,0.213369 -0.65553,0.135978 -0.89709,0.243641 -0.54666,0.243641 0.21066,0 1.26931,-0.266699 1.58919,-0.400353 0.27075,-0.113128 0.30497,-0.113465 0.3472,-0.0034 0.026,0.06765 -0.10381,0.118864 -0.56198,0.221789 -0.32765,0.0736 -0.62201,0.158488 -0.65412,0.188631 -0.0946,0.08882 0.0521,0.06703 0.91098,-0.135253 0.44383,-0.104532 0.9591,-0.197725 1.14503,-0.207095 0.18593,-0.0094 0.63253,-0.0662 0.99245,-0.126286 0.35991,-0.06009 0.7027,-0.09071 0.76174,-0.06805 0.16394,0.06291 0.0918,0.09135 -0.40564,0.160047 -0.696,0.09611 -0.79191,0.123066 -0.75744,0.212896 0.0322,0.08392 -0.0826,0.115696 -0.70005,0.193773 -0.17825,0.02254 -0.33892,0.06499 -0.35706,0.09434 -0.048,0.07772 0.10693,0.06666 0.89626,-0.06397 0.7504,-0.124192 1.40836,-0.152033 2.13591,-0.09038 0.62898,0.0533 0.55485,0.119402 -0.10742,0.09579 -0.52502,-0.01872 -0.55333,-0.01322 -0.55333,0.107564 0,0.120619 0.0336,0.127293 0.64176,0.127293 0.36153,0 0.65834,0.02684 0.67975,0.06147 0.0209,0.03381 0.009,0.06146 -0.0271,0.06146 -0.0358,0 -0.0651,0.03089 -0.0651,0.06863 0,0.03775 0.0537,0.05459 0.11935,0.03742 0.0752,-0.01967 0.18855,0.03056 0.3065,0.135874 0.27838,0.248535 0.16465,0.353364 -0.51892,0.478298 -0.48789,0.08917 -1.28721,0.101447 -6.85251,0.105249 l -6.30019,0.0043 -1.13711,0.166281 c -0.62541,0.09145 -1.59349,0.209503 -2.15128,0.26233 -0.5578,0.05283 -1.12482,0.136717 -1.26004,0.186426 -0.13523,0.04971 -0.75756,0.175094 -1.38297,0.278635 -4.28641,0.709644 -8.89785,1.818165 -11.139,2.677651 -0.83147,0.318868 -2.21642,0.787043 -3.0772,1.040232 -0.41283,0.121428 -0.94421,0.299715 -1.18086,0.396194 -0.51185,0.208684 -2.67428,0.905107 -2.98106,0.960068 -0.26552,0.04757 -2.42312,0.715252 -3.62645,1.122228 -1.07989,0.365226 -4.44813,1.70378 -5.59335,2.222818 -0.45638,0.206843 -1.051054,0.458676 -1.321504,0.55963 -1.05251,0.392887 -1.66329,0.779404 -1.4449,0.914376 0.0854,0.0528 -0.12877,0.121115 -0.38369,0.122382 -0.20156,10e-4 -0.22577,0.138521 -0.0465,0.264094 0.13869,0.09714 0.10286,0.16655 -0.0867,0.167943 -0.26447,0.0019 -0.32314,0.100709 -0.16183,0.272415 0.0811,0.0863 0.11655,0.156901 0.0789,0.156901 -0.0377,0 -0.0857,-0.02766 -0.10654,-0.06147 -0.0209,-0.03381 -0.0674,-0.06146 -0.10323,-0.06146 -0.0359,0 0.0384,0.12649 0.16509,0.281089 0.29833,0.364072 0.21197,0.489876 -0.12839,0.187012 -0.25161,-0.223903 -0.37062,-0.249219 -0.17967,-0.03822 0.1767,0.195249 -0.008,0.150694 -0.33038,-0.07964 -0.48347,-0.345574 -0.48494,-0.319221 -0.007,0.131152 0.30408,0.286741 0.42438,0.435704 0.35343,0.437646 -0.11715,0.0032 -0.14442,0.09584 -0.0461,0.156607 0.0338,0.02089 0.0615,0.07882 0.0615,0.12872 0,0.124107 -0.14562,0.04159 -0.61299,-0.347364 -0.43726,-0.363883 -0.46628,-0.345625 -0.10923,0.0687 0.27429,0.318288 0.62347,0.914566 0.56803,0.970006 -0.0179,0.01786 -0.13685,-0.06946 -0.26442,-0.194035 -0.2907,-0.283858 -0.37579,-0.292789 -0.16574,-0.0174 0.10903,0.142951 0.13533,0.217162 0.0831,0.23457 -0.054,0.01802 -0.0368,0.08099 0.0588,0.215273 0.0743,0.104396 0.13516,0.253522 0.13516,0.331393 0,0.08046 0.0995,0.243974 0.23049,0.378771 0.21018,0.216281 0.22124,0.244032 0.12547,0.314835 -0.0982,0.07261 -0.0963,0.09529 0.0296,0.349324 0.0975,0.196889 0.1365,0.393297 0.14155,0.713477 0.007,0.464131 0.0527,0.575447 0.4085,1.002634 0.0986,0.118321 0.52057,0.699665 0.93781,1.291875 0.45084,0.639897 0.88191,1.180706 1.0625,1.332985 0.48241,0.40677 0.596184,0.784634 0.548034,1.820124 -0.0446,0.958999 -0.208184,1.790661 -0.513484,2.610552 -0.1955,0.525001 -0.22305,0.668469 -0.22875,1.191152 -0.009,0.808176 0.0831,0.721079 -1.82901,1.733008 -0.40928,0.216598 -0.72993,0.346474 -0.85541,0.346474 -0.11446,0 -0.37156,0.09391 -0.59827,0.218523 -0.666513,0.366361 -0.755033,0.187189 -0.19658,-0.397884 0.20284,-0.212504 0.36879,-0.40782 0.36879,-0.434037 0,-0.02622 0.0422,-0.08266 0.0937,-0.125419 0.14885,-0.123529 0.0868,-0.12701 -0.55972,-0.03143 -0.33528,0.04957 -0.934595,0.102963 -1.331808,0.118661 -0.581698,0.02299 -0.755093,0.05155 -0.891246,0.146793 -0.205169,0.143524 -0.666205,0.226647 -0.725445,0.130795 -0.07333,-0.11865 0.779265,-0.820961 1.355452,-1.116531 0.101418,-0.05203 0.398756,-0.130565 0.660752,-0.174533 0.430042,-0.07217 0.476356,-0.09345 0.476356,-0.218834 0,-0.112866 0.04319,-0.145906 0.230499,-0.176323 0.12677,-0.02059 0.28964,-0.06133 0.36194,-0.09054 0.0723,-0.02921 0.43082,-0.139619 0.79673,-0.245348 0.78891,-0.227957 1.10791,-0.392743 1.15969,-0.599069 0.0207,-0.08258 0.10829,-0.220745 0.19458,-0.30704 0.18533,-0.185323 0.31124,-0.514786 0.36577,-0.957023 0.0217,-0.175959 0.12198,-0.661026 0.22285,-1.077928 0.18165,-0.750798 0.18227,-0.75927 0.0649,-0.891247 -0.1291,-0.145131 -0.38576,-0.575366 -0.3841,-0.643845 5.5e-4,-0.02342 0.0593,0.04847 0.1306,0.159753 0.0713,0.111287 0.14131,0.190593 0.15566,0.176236 0.0144,-0.01436 -0.0375,-0.122721 -0.11523,-0.240809 -0.0777,-0.118088 -0.17513,-0.266542 -0.21644,-0.329899 -0.0719,-0.110282 -0.0737,-0.109952 -0.0423,0.0077 0.0181,0.06761 -0.0185,0.02612 -0.0812,-0.0922 -0.3881,-0.731894 -0.6656,-1.116891 -0.7873,-1.092285 -0.0453,0.0092 -0.326,-0.211411 -0.62384,-0.490144 -0.78734,-0.73682 -1.13689,-0.994895 -1.893771,-1.398164 -0.371865,-0.19813 -0.855904,-0.4701 -1.075642,-0.604374 -0.219739,-0.134276 -0.570119,-0.320829 -0.778622,-0.414563 -0.519643,-0.23361 -1.796946,-1.146402 -1.937461,-1.384556 -0.07932,-0.134445 -0.174876,-0.20383 -0.312549,-0.226954 -0.109063,-0.01832 -0.239785,-0.0492 -0.290494,-0.06862 -0.05071,-0.01942 -0.132622,-0.0096 -0.182029,0.0218 -0.07394,0.04701 -0.06025,0.08039 0.07742,0.188672 0.169672,0.133465 0.1761,0.268219 0.0097,0.204384 -0.06444,-0.02473 -0.07985,-0.006 -0.05292,0.06415 0.04839,0.126109 -0.129125,0.129642 -0.343938,0.0068 -0.08452,-0.04831 -0.202067,-0.08882 -0.261228,-0.09002 -0.180557,-0.0037 -0.120062,0.11388 0.107565,0.208988 0.292992,0.122421 0.283666,0.244705 -0.01537,0.201496 -0.243813,-0.03523 -0.447529,0.01386 -0.465538,0.112192 -0.0059,0.03249 -0.05231,0.05168 -0.103016,0.04265 -0.05071,-0.009 -0.182091,-0.03339 -0.29196,-0.05414 -0.288362,-0.05446 -0.250084,0.06781 0.06008,0.19191 0.220661,0.08829 0.243646,0.113034 0.152422,0.164085 -0.05908,0.03306 -0.164912,0.04187 -0.235179,0.01957 -0.108449,-0.03442 -0.121568,-0.02104 -0.0868,0.08851 0.0374,0.117849 0.02689,0.123711 -0.121,0.06748 -0.08908,-0.03387 -0.215419,-0.09019 -0.280755,-0.125155 -0.174882,-0.09359 -0.144483,0.0073 0.05024,0.166725 0.198875,0.162832 0.06359,0.200489 -0.159328,0.04435 -0.162503,-0.113822 -0.248138,-0.07144 -0.133866,0.06625 0.09662,0.116424 0.019,0.117053 -0.183162,0.0015 -0.08451,-0.04831 -0.176041,-0.08882 -0.20339,-0.09002 -0.106686,-0.0047 0.03905,0.128484 0.269025,0.24581 0.403858,0.206034 0.240983,0.321376 -0.219299,0.155299 -0.08929,-0.03222 -0.07485,-0.0031 0.05276,0.106493 0.158376,0.135981 0.14381,0.299564 -0.01778,0.199696 -0.194082,-0.119951 -0.05721,0.479898 0.261453,1.14582 0.221211,0.462275 0.288302,0.664226 0.159589,0.480385 -0.04938,-0.07053 -0.0548,-0.05608 -0.02306,0.06146 0.02282,0.08451 0.09305,0.208982 0.156052,0.276594 0.34826,0.373717 0.512314,0.626273 0.73997,1.139158 0.138837,0.312786 0.266095,0.670578 0.282796,0.795095 0.03971,0.296027 -0.172086,1.061307 -0.469163,1.695253 -0.356799,0.76139 -0.532064,1.504892 -0.444336,1.88495 0.03852,0.166866 0.07003,0.403967 0.07003,0.52689 0,0.168358 0.04036,0.255675 0.163578,0.353929 0.181217,0.144497 0.152845,0.274253 -0.05964,0.272768 -0.168525,-0.0012 -0.231949,-0.04653 -0.371495,-0.265619 -0.129788,-0.203774 -0.170466,-0.183969 -0.193724,0.09432 -0.0093,0.111636 -0.02,0.235686 -0.0237,0.275665 -0.0037,0.03998 -0.06897,0.09132 -0.145036,0.11409 -0.07606,0.02277 -0.304253,0.121669 -0.507088,0.219774 -0.213147,0.103092 -0.652681,0.232056 -1.04145,0.305574 -0.369961,0.06996 -0.80729,0.178359 -0.971842,0.240884 -0.173399,0.06589 -0.381587,0.100816 -0.495182,0.08308 -0.145585,-0.02273 -0.24896,0.0089 -0.401897,0.123122 -0.251216,0.187557 -0.404529,0.153748 -0.347073,-0.07654 0.02205,-0.08838 0.08387,-0.209272 0.13737,-0.268639 0.131738,-0.14618 0.07967,-0.178311 -0.171984,-0.106137 -0.369134,0.105867 -0.924414,0.07595 -1.068016,-0.05754 -0.118458,-0.110118 -0.143234,-0.111789 -0.372753,-0.02513 -0.554476,0.209348 -0.807397,0.136061 -0.658469,-0.190802 0.08607,-0.188915 0.839712,-0.608897 1.028036,-0.572896 0.07885,0.01507 0.318374,-0.0098 0.532281,-0.05529 0.213908,-0.04548 0.561067,-0.108197 0.771465,-0.139365 0.417375,-0.06183 1.080159,-0.30611 1.430377,-0.527193 0.122092,-0.07707 0.414128,-0.236978 0.648968,-0.355344 0.520681,-0.262436 0.616571,-0.36532 0.671513,-0.720493 0.02353,-0.152126 0.122871,-0.525528 0.22075,-0.829781 0.225345,-0.700469 0.358382,-1.282547 0.373029,-1.632108 0.02505,-0.597754 -0.343754,-1.526419 -1.029981,-2.593563 -0.352821,-0.548669 -0.527816,-0.897976 -0.484763,-0.967637 0.01929,-0.03121 -0.04882,-0.100117 -0.151338,-0.153134 -0.102524,-0.05302 -0.186406,-0.06989 -0.186406,-0.03749 0,0.0324 0.05532,0.07646 0.12293,0.09792 0.145897,0.04631 0.16051,0.143101 0.02921,0.193486 -0.05168,0.01983 -0.209684,-0.04306 -0.35226,-0.140227 -0.411712,-0.280573 -0.456066,-0.297386 -0.276237,-0.104708 0.226892,0.243104 0.213437,0.28872 -0.0738,0.250194 -0.142658,-0.01913 -0.251628,-0.0062 -0.264165,0.03145 -0.01432,0.04295 -0.0659,0.04017 -0.1567,-0.0084 -0.145623,-0.07793 -0.182043,-0.01646 -0.0616,0.103986 0.147056,0.147057 -0.08773,0.0777 -0.309446,-0.09142 -0.155672,-0.118737 -0.205369,-0.136019 -0.17676,-0.06146 0.05082,0.132443 -0.03882,0.131927 -0.250467,-0.0014 -0.163766,-0.103197 -0.165042,-0.102912 -0.06865,0.01537 0.19316,0.237024 0.208031,0.296273 0.06497,0.258863 -0.07295,-0.01908 -0.117126,-0.0096 -0.09818,0.02105 0.05359,0.08671 -0.05414,0.06571 -0.204994,-0.03995 -0.161684,-0.113248 -0.169085,-0.08395 -0.04124,0.163273 0.128468,0.24843 0.0114,0.585137 -0.126098,0.362667 -0.02089,-0.03381 -0.06518,-0.06147 -0.09842,-0.06147 -0.03324,0 0.01325,0.125717 0.103293,0.27937 0.09005,0.153654 0.146532,0.296561 0.125522,0.317571 -0.02101,0.02101 -0.04765,0.02668 -0.0592,0.01259 -0.01155,-0.01409 -0.136891,-0.184652 -0.278532,-0.379036 -0.333503,-0.45769 -0.449048,-0.462333 -0.128809,-0.0052 0.134172,0.191537 0.243949,0.371323 0.243949,0.399525 0,0.100584 -0.156218,0.04905 -0.235335,-0.07764 -0.115753,-0.185349 -0.158992,-0.09954 -0.05434,0.107838 0.08602,0.170453 0.19368,0.697197 0.142503,0.697197 -0.01413,0 -0.125876,-0.139447 -0.248322,-0.309882 -0.273104,-0.380142 -0.396245,-0.347633 -0.196609,0.0519 0.07934,0.158791 0.162892,0.366045 0.185665,0.460567 0.0488,0.202558 -0.01167,0.344924 -0.09297,0.218864 -0.07573,-0.117432 -0.174224,0.04163 -0.176712,0.285398 -0.0013,0.131382 -0.01755,0.15965 -0.05638,0.09832 -0.04014,-0.0634 -0.09656,0.0059 -0.214187,0.263049 -0.08783,0.192017 -0.159691,0.369539 -0.159691,0.394496 0,0.02496 -0.06915,0.147137 -0.153664,0.271511 -0.08451,0.124375 -0.153663,0.269093 -0.153663,0.321595 0,0.0525 -0.02766,0.09546 -0.06146,0.09546 -0.03381,0 -0.06146,0.06915 -0.06146,0.153663 0,0.08452 -0.02091,0.153664 -0.04646,0.153664 -0.02555,0 -0.08336,0.08989 -0.128458,0.199762 -0.08958,0.218229 -0.155682,0.365766 -0.433747,0.968078 -0.101446,0.219739 -0.192352,0.441014 -0.202014,0.491723 -0.02003,0.105109 0.1771,0.660326 0.2837,0.799048 0.12546,0.163268 0.284246,0.559867 0.247777,0.618875 -0.07064,0.114296 -0.195044,0.05249 -0.340519,-0.169179 -0.287181,-0.437596 -0.319868,-0.37085 -0.29452,0.601413 0.0209,0.80162 0.01319,0.883992 -0.08457,0.903418 -0.08484,0.01686 -0.108025,-0.02178 -0.109743,-0.182893 -0.0012,-0.112352 -0.04171,-0.273422 -0.09002,-0.357937 -0.04831,-0.08451 -0.08882,-0.228094 -0.09002,-0.319065 -0.0044,-0.33241 -0.112275,-0.221339 -0.176459,0.181649 -0.03627,0.227706 -0.09749,0.603667 -0.136055,0.835469 -0.03856,0.231802 -0.05818,0.536056 -0.04359,0.676118 0.03461,0.332283 -0.1057,1.507191 -0.190063,1.591554 -0.09327,0.09327 -0.255057,-0.05519 -0.255057,-0.234044 0,-0.07817 -0.03209,-0.22 -0.07132,-0.315166 -0.03923,-0.09517 -0.06453,-0.212575 -0.05623,-0.260906 0.02502,-0.145704 -0.477066,0.444576 -0.519136,0.61033 -0.07602,0.299511 -0.459681,0.52743 -0.459681,0.273079 z m -1.306869,-5.663001 c -0.05715,-0.05715 -0.121164,-0.08665 -0.142257,-0.06555 -0.06049,0.06049 0.03237,0.16946 0.14442,0.16946 0.09383,0 0.09366,-0.0081 -0.0022,-0.103906 z m 0.630751,-1.828623 c 0,-0.01491 -0.02766,-0.0442 -0.06147,-0.06509 -0.03381,-0.02089 -0.06146,-0.0087 -0.06146,0.0271 0,0.0358 0.02766,0.06509 0.06146,0.06509 0.03381,0 0.06147,-0.0122 0.06147,-0.0271 z m 0.491722,-0.902129 c 0,-0.03381 -0.02766,-0.04437 -0.06146,-0.02348 -0.03381,0.02089 -0.06147,0.06565 -0.06147,0.09945 0,0.03381 0.02766,0.04437 0.06147,0.02348 0.03381,-0.02089 0.06146,-0.06565 0.06146,-0.09945 z m 9.158328,-1.931965 c 0,-0.06717 -0.266875,-0.457403 -0.294153,-0.430124 -0.06905,0.06905 0.125206,0.515598 0.210122,0.483013 0.04622,-0.01774 0.08403,-0.04154 0.08403,-0.05289 z m -1.62883,-1.625768 c -0.02089,-0.03381 -0.06565,-0.06146 -0.09945,-0.06146 -0.03381,0 -0.04437,0.02766 -0.02348,0.06146 0.02089,0.03381 0.06565,0.06147 0.09945,0.06147 0.03381,0 0.04437,-0.02766 0.02348,-0.06147 z M 85.884083,46.78088 c 0,-0.05071 -0.04149,-0.0922 -0.0922,-0.0922 -0.09598,0 -0.121945,0.07269 -0.05122,0.143419 0.07072,0.07072 0.143419,0.04476 0.143419,-0.05122 z m 1.782493,-0.0922 c 0,-0.03381 -0.02929,-0.06146 -0.06509,-0.06146 -0.0358,0 -0.048,0.02766 -0.02711,0.06146 0.02089,0.03381 0.05018,0.06147 0.06509,0.06147 0.01491,0 0.0271,-0.02766 0.0271,-0.06147 z m 3.024092,-2.470905 c -0.03944,-0.03944 -0.09211,-0.0513 -0.117052,-0.02637 -0.02494,0.02494 -0.0055,0.06999 0.04329,0.100125 0.114792,0.07095 0.166627,0.01911 0.07376,-0.07376 z m 4.543766,-1.233403 c -0.0607,-0.06025 -0.06776,-0.05319 -0.03441,0.03441 0.02308,0.06062 0.05745,0.09473 0.07637,0.07581 0.01892,-0.01893 3.9e-5,-0.06852 -0.04197,-0.110215 z m -20.875093,0.01639 c -0.02089,-0.03381 -0.06565,-0.06146 -0.09945,-0.06146 -0.03381,0 -0.04437,0.02766 -0.02348,0.06146 0.02089,0.03381 0.06565,0.06147 0.09945,0.06147 0.03381,0 0.04437,-0.02766 0.02348,-0.06147 z m 0.275361,-0.09368 c -0.04276,-0.05153 -0.09041,-0.08102 -0.105879,-0.06555 -0.04263,0.04263 0.04398,0.159238 0.118266,0.159238 0.04076,0 0.03609,-0.03527 -0.01239,-0.09368 z m -4.379449,-0.61957 c -0.02043,-0.02043 -0.07344,-0.02261 -0.117809,-0.0049 -0.04903,0.01962 -0.03447,0.03419 0.03714,0.03713 0.06479,0.0027 0.101097,-0.01186 0.08067,-0.03228 z m -2.872222,-0.761914 c 0,-0.03381 -0.0122,-0.06146 -0.02711,-0.06146 -0.01491,0 -0.0442,0.02766 -0.06509,0.06146 -0.02089,0.03381 -0.0087,0.06147 0.02711,0.06147 0.0358,0 0.06509,-0.02766 0.06509,-0.06147 z m -0.838149,-1.657687 c -0.03383,-0.03383 -0.142972,0.124672 -0.144354,0.209633 -4.92e-4,0.03182 0.03829,0.0042 0.08623,-0.06137 0.04794,-0.06557 0.0741,-0.132288 0.05812,-0.148265 z m 0.860377,-0.524332 c -0.03855,-0.100454 -0.145158,-0.126787 -0.145158,-0.03585 0,0.04665 0.04308,0.07841 0.1671,0.1232 0.0074,0.0027 -0.0025,-0.03664 -0.02194,-0.08735 z m 8.161213,-1.139153 c -0.07981,-0.06649 -0.176617,-0.119965 -0.215129,-0.11884 -0.03851,0.0011 -0.0047,0.05644 0.07508,0.12293 0.07981,0.06649 0.176616,0.119966 0.215128,0.118841 0.03851,-0.0011 0.0047,-0.05644 -0.07508,-0.122931 z m 25.677578,-4.94805 c 0.10492,-0.119496 0.19076,-0.232238 0.19076,-0.250536 0,-0.05318 -0.34673,0.241953 -0.42322,0.360239 -0.12248,0.189429 0.0351,0.115055 0.23246,-0.109703 z m -1.14779,-0.09111 c 0.13512,-0.221963 0.1192,-0.211974 -0.137544,0.08631 -0.084,0.0976 -0.11675,0.166279 -0.0728,0.152612 0.044,-0.01367 0.138634,-0.121183 0.210304,-0.238926 z m 2.81994,-0.137247 c 0.32973,-0.428623 0.33885,-0.457616 0.0628,-0.199762 -0.2822,0.263626 -0.42016,0.46099 -0.32224,0.46099 0.0322,0 0.14889,-0.117553 0.25941,-0.261228 z m 4.19245,-1.002833 c 0.26401,-0.292371 0.46783,-0.543776 0.45293,-0.558676 -0.0305,-0.0305 -0.98145,0.933945 -1.13003,1.146065 -0.20774,0.296589 0.19201,-0.0502 0.6771,-0.587389 z m -1.53221,0.185226 c 0.021,-0.0547 0.0107,-0.07937 -0.0242,-0.05784 -0.0334,0.02065 -0.0608,0.06358 -0.0608,0.09539 0,0.08841 0.044,0.06893 0.0849,-0.03755 z m 2.58966,-0.287768 c 0.3753,-0.343889 0.78018,-0.976859 0.68545,-1.071587 -0.0142,-0.01417 -0.22008,0.217458 -0.45759,0.514729 -0.2375,0.29727 -0.50367,0.607546 -0.59149,0.689502 -0.16108,0.150327 -0.20391,0.250514 -0.10709,0.250514 0.0289,0 0.24074,-0.172421 0.47072,-0.383158 z m 1.40971,-0.122716 c 0.0524,-0.07487 0.0953,-0.162458 0.0953,-0.194635 0,-0.07445 -0.29884,0.202829 -0.37909,0.351736 -0.0872,0.161871 0.15379,0.02842 0.28374,-0.157101 z m 2.51653,-0.629644 c 0.0559,-0.08539 0.0767,-0.155253 0.046,-0.155253 -0.0579,0 -0.50029,0.465799 -0.50029,0.526818 0,0.06994 0.35555,-0.220869 0.45429,-0.371565 z m -3.01027,0.174112 c 0.0324,-0.08436 0.0234,-0.08816 -0.0549,-0.02321 -0.10666,0.08852 -0.11776,0.124099 -0.0387,0.124099 0.0302,0 0.0723,-0.0454 0.0936,-0.100892 z m 3.3861,-0.145346 c 0.0614,-0.06782 0.0935,-0.141408 0.0714,-0.163531 -0.0448,-0.04482 -0.28684,0.153371 -0.28684,0.234899 0,0.08973 0.0995,0.05677 0.21547,-0.07137 z m 1.93581,-0.635705 c 0,-0.03381 -0.0691,0.0035 -0.15366,0.08289 -0.0845,0.0794 -0.15366,0.172019 -0.15366,0.205825 0,0.03381 0.0692,-0.0035 0.15366,-0.08289 0.0845,-0.0794 0.15366,-0.172019 0.15366,-0.205825 z m -2.88886,0.144359 c 0.0362,-0.06761 0.0427,-0.12293 0.0144,-0.12293 -0.0654,0 -0.19885,0.132047 -0.19885,0.196689 0,0.0954 0.11943,0.04763 0.1844,-0.07376 z m 3.50352,-0.203449 c 0,-0.03381 -0.0553,-0.0114 -0.12293,0.04979 -0.0676,0.06119 -0.12293,0.13891 -0.12293,0.172716 0,0.03381 0.0553,0.0114 0.12293,-0.04978 0.0676,-0.06119 0.12293,-0.138911 0.12293,-0.172717 z m -2.18551,0.06684 c 0.0526,-0.07513 0.0957,-0.161498 0.0957,-0.191922 0,-0.07524 -0.17686,0.07666 -0.25138,0.21591 -0.0874,0.16333 0.038,0.144003 0.15569,-0.02399 z m -0.64477,-0.475569 c 0.24676,-0.365251 0.4255,-0.686989 0.32578,-0.586397 -0.0709,0.07156 -0.64719,0.878349 -0.72437,1.014177 -0.129,0.227027 0.18094,-0.105617 0.39859,-0.42778 z m 4.24398,0.162866 c 0,-0.03381 -0.0553,-0.0114 -0.12293,0.04979 -0.0676,0.06119 -0.12293,0.13891 -0.12293,0.172716 0,0.03381 0.0553,0.0114 0.12293,-0.04979 0.0676,-0.06119 0.12293,-0.13891 0.12293,-0.172716 z m -0.49172,0.01905 c 0,-0.03381 -0.0277,-0.06147 -0.0615,-0.06147 -0.0338,0 -0.0615,0.02766 -0.0615,0.06147 0,0.03381 0.0277,0.06146 0.0615,0.06146 0.0338,0 0.0615,-0.02766 0.0615,-0.06146 z m 1.50306,-0.223643 c 0.27744,-0.331913 0.21714,-0.334861 -0.14339,-0.007 -0.27126,0.246668 -0.29835,0.292119 -0.17412,0.292119 0.0435,0 0.18643,-0.128298 0.31751,-0.285108 z m -2.52911,-0.129782 c 0.5282,-0.721539 1.40349,-2.166652 1.31233,-2.166652 -0.0377,0 -1.57026,2.246448 -1.61875,2.372824 -0.0723,0.18834 0.10487,0.06915 0.30642,-0.206172 z m 2.33145,-0.168342 c 0.0647,-0.123483 0.0646,-0.123484 -0.0729,-0.0014 -0.0757,0.06723 -0.16669,0.177872 -0.20228,0.245861 -0.0647,0.123483 -0.0646,0.123485 0.0729,0.0014 0.0757,-0.06723 0.16669,-0.177871 0.20228,-0.245861 z m 2.13665,-0.302877 c 0,-0.03381 -0.12446,0.06069 -0.27659,0.209991 -0.15213,0.149301 -0.27659,0.299116 -0.27659,0.332922 0,0.03381 0.12446,-0.06069 0.27659,-0.209991 0.15213,-0.149301 0.27659,-0.299116 0.27659,-0.332922 z m 0.2471,0.423634 c 0.11877,-0.143114 0.034,-0.170084 -0.0931,-0.02962 -0.0614,0.06782 -0.083,0.123308 -0.0481,0.123308 0.0349,0 0.0984,-0.04216 0.14122,-0.09368 z m -1.08584,-1.330781 c 0.29933,-0.437777 0.53251,-0.807676 0.51819,-0.821999 -0.0262,-0.02617 -1.64634,1.971592 -1.64634,2.03003 0,0.01717 0.13139,-0.06852 0.29196,-0.190424 0.19084,-0.144878 0.48046,-0.497339 0.83619,-1.017607 z m 1.89252,0.794445 c 0.45442,-0.543785 0.46266,-0.585531 0.0337,-0.170805 -0.22626,0.218762 -0.41138,0.419292 -0.41138,0.445624 0,0.117146 0.12787,0.0241 0.37766,-0.274819 z m 3.67905,0.185661 c 0,-0.03598 -0.0391,-0.03 -0.0922,0.0141 -0.0507,0.04208 -0.0922,0.08609 -0.0922,0.0978 0,0.0117 0.0415,0.0054 0.0922,-0.0141 0.0507,-0.01946 0.0922,-0.06347 0.0922,-0.0978 z m -3.16546,-0.04736 c 0.0612,-0.06761 0.0836,-0.12293 0.0498,-0.12293 -0.0338,0 -0.11152,0.05532 -0.17271,0.12293 -0.0612,0.06761 -0.0836,0.122931 -0.0498,0.122931 0.0338,0 0.11153,-0.05532 0.17272,-0.122931 z m -4.5085,-0.169029 c 0.0853,-0.09297 0.34569,-0.473283 0.57859,-0.845148 0.2329,-0.371865 0.51745,-0.808673 0.63232,-0.970685 0.11488,-0.162011 0.19654,-0.306892 0.18147,-0.321958 -0.0498,-0.04985 -0.69046,0.767751 -0.94059,1.200459 -0.13523,0.233926 -0.34267,0.557809 -0.46099,0.719742 -0.25335,0.346736 -0.27409,0.386619 -0.20102,0.386619 0.0303,0 0.1249,-0.07606 0.21022,-0.169029 z m 5.89507,0 c 0.22225,-0.157595 0.35684,-0.326074 0.25569,-0.320072 -0.0652,0.0039 -0.60633,0.48874 -0.54571,0.488935 0.0284,6.2e-5 0.15891,-0.0759 0.29002,-0.168863 z m -5.15879,-0.03073 c 0.0668,-0.125403 0.0642,-0.130432 -0.0286,-0.05394 -0.0562,0.0464 -0.10226,0.10863 -0.10226,0.138297 0,0.09389 0.0546,0.05867 0.13083,-0.08436 z m 4.90393,-0.691484 c -3e-5,-0.03381 -0.16478,0.115182 -0.36612,0.331085 -0.20133,0.215903 -0.36561,0.423348 -0.36506,0.46099 6.1e-4,0.03764 0.16531,-0.111347 0.36612,-0.331086 0.20081,-0.219738 0.36508,-0.427184 0.36506,-0.460989 z m -4.99547,0.322692 c 0.2003,-0.245093 0.59147,-0.805195 0.86927,-1.244672 0.2778,-0.439477 0.6596,-1.015652 0.84845,-1.28039 0.3122,-0.437659 0.30536,-0.569297 -0.0112,-0.215787 -0.3268,0.364925 -2.20518,3.186473 -2.12133,3.186473 0.0279,0 0.21454,-0.200531 0.41483,-0.445624 z m 6.17566,-0.03493 c 0.1483,-0.162883 0.49091,-0.569379 0.76136,-0.903324 0.27045,-0.333944 0.6032,-0.733119 0.73946,-0.887054 0.42234,-0.477157 0.43642,-0.546782 0.0229,-0.113045 -0.9973,1.045917 -1.43338,1.538613 -1.44675,1.634541 -0.008,0.05723 -0.11309,0.189955 -0.23359,0.294955 -0.12049,0.105 -0.21908,0.208723 -0.21908,0.230495 0,0.102481 0.12911,0.01432 0.37575,-0.256568 z m 1.71701,-0.295116 c 0.628,-0.541886 2.08331,-2.058294 1.86159,-1.939746 -0.0732,0.03914 -0.34148,0.299633 -0.59617,0.578872 -0.25468,0.279239 -0.80991,0.811962 -1.23384,1.183827 -0.42392,0.371865 -0.77107,0.698495 -0.77144,0.725845 -0.001,0.07721 0.10863,-0.0041 0.73986,-0.548798 z m -7.56317,0.330355 c 0,-0.03429 -0.0408,-0.02763 -0.0922,0.01505 -0.0507,0.04208 -0.0922,0.104177 -0.0922,0.137983 0,0.03429 0.0408,0.02763 0.0922,-0.01505 0.0507,-0.04208 0.0922,-0.104177 0.0922,-0.137983 z m 17.54332,0.16214 c 0.14113,-0.05416 0.11945,-0.14139 -0.0257,-0.103432 -0.0676,0.01768 -0.12293,0.05658 -0.12293,0.08644 0,0.06426 0.0196,0.0665 0.14864,0.01699 z M 124.0694,28.4677 c 0.26458,-0.257729 0.31586,-0.437469 0.0615,-0.215448 -0.39302,0.343006 -0.75295,0.702795 -0.75295,0.752642 0,0.06373 0.36838,-0.222457 0.69148,-0.537194 z m 19.22327,0.385457 c 0.0617,-0.03877 0.0108,-0.04502 -0.15366,-0.0189 -0.13523,0.02148 -0.27352,0.06747 -0.30733,0.102205 -0.0746,0.07661 0.31998,0.0053 0.46099,-0.08331 z m -17.24101,0.01058 c 0.0209,-0.03381 0.009,-0.06146 -0.0271,-0.06146 -0.0358,0 -0.0651,0.02766 -0.0651,0.06146 0,0.03381 0.0122,0.06147 0.0271,0.06147 0.0149,0 0.0442,-0.02766 0.0651,-0.06147 z m 1.90562,-0.246191 c 0.071,-0.114929 -0.0731,-0.06138 -0.19043,0.07074 -0.11628,0.130959 -0.11616,0.131384 0.0178,0.06114 0.0742,-0.03891 0.15187,-0.09825 0.17265,-0.131874 z m 13.29176,0.02064 c 0.11713,-0.04894 0.19793,-0.104006 0.17957,-0.122373 -0.0418,-0.04182 -0.66498,0.157253 -0.74821,0.239022 -0.0794,0.07797 0.27859,0.0045 0.56864,-0.116649 z m -13.32095,-0.367547 c 0.27067,-0.258591 0.47947,-0.482813 0.46401,-0.49827 -0.0155,-0.01546 -0.13349,0.0749 -0.2623,0.200794 -0.1288,0.125896 -0.35865,0.327989 -0.51078,0.449098 -0.15213,0.121108 -0.30287,0.242325 -0.33498,0.26937 -0.0335,0.02818 -0.0135,0.04917 0.0468,0.04917 0.0578,0 0.32661,-0.211575 0.59728,-0.470166 z m 0.92024,0.316503 c 0.11455,-0.08452 0.18216,-0.153526 0.15024,-0.153358 -0.0623,3.07e-4 -0.44979,0.301114 -0.39268,0.304811 0.0188,0.0012 0.12788,-0.06694 0.24244,-0.151453 z m 6.73045,0.0922 c 0.0209,-0.03381 0.0103,-0.06147 -0.0235,-0.06147 -0.0338,0 -0.0786,0.02766 -0.0995,0.06147 -0.0209,0.0338 -0.0103,0.06146 0.0235,0.06146 0.0338,0 0.0786,-0.02766 0.0994,-0.06146 z m 1.66318,-0.03575 c 0.10917,-0.08896 0.10975,-0.09418 0.007,-0.06147 -0.0619,0.01966 -0.13799,0.03575 -0.16903,0.03575 -0.031,0 -0.0564,0.02766 -0.0564,0.06147 0,0.089 0.0821,0.07558 0.21875,-0.03575 z m -6.97828,-0.211016 c 0.46976,-0.258218 0.63162,-0.369756 0.59285,-0.408526 -0.0313,-0.03128 -1.07551,0.526769 -1.11981,0.598443 -0.0672,0.108683 0.0806,0.05541 0.52696,-0.189917 z m 0.56009,0.125881 c 0.0798,-0.06649 0.1136,-0.121806 0.0751,-0.122931 -0.0385,-0.0011 -0.13532,0.05235 -0.21513,0.118841 -0.0798,0.06649 -0.1136,0.121806 -0.0751,0.122931 0.0385,0.0011 0.13533,-0.05235 0.21513,-0.118841 z m 3.04855,-0.300704 c 0.24466,-0.156894 0.44519,-0.307878 0.44562,-0.335521 0.001,-0.0808 -0.72718,0.338758 -0.97292,0.56035 -0.28552,0.257466 -0.10427,0.180187 0.5273,-0.224829 z m -0.0146,0.360124 c 0.0209,-0.03381 0.0103,-0.06146 -0.0235,-0.06146 -0.0338,0 -0.0786,0.02766 -0.0994,0.06146 -0.0209,0.03381 -0.0103,0.06147 0.0235,0.06147 0.0338,0 0.0786,-0.02766 0.0995,-0.06147 z m 1.0981,-0.238315 c 0.30955,-0.164879 0.92242,-0.535132 1.36195,-0.822784 0.43954,-0.287652 1.08612,-0.683925 1.43685,-0.880609 0.35074,-0.196682 0.6077,-0.367607 0.57102,-0.379832 -0.11335,-0.03778 -1.70005,0.790542 -2.77037,1.446257 -0.098,0.06005 -0.12276,0.104301 -0.0749,0.133897 0.0425,0.02624 -0.17859,0.179614 -0.54396,0.37743 -0.53297,0.288554 -0.71976,0.425422 -0.58058,0.425422 0.0204,0 0.29042,-0.134901 0.59996,-0.299781 z m -13.7216,-0.02477 0.13627,-0.197904 -0.19487,0.18053 c -0.10719,0.09929 -0.19488,0.204646 -0.19488,0.234122 0,0.08712 0.1076,-0.0049 0.25348,-0.216748 z m 2.28544,-0.593723 c 0.0611,-0.103456 0.0989,-0.188101 0.084,-0.188101 -0.0577,0 -0.71737,0.812915 -0.71477,0.880797 0.003,0.08786 0.47705,-0.43236 0.63074,-0.692696 z m 5.00302,0.353029 c 0.11148,-0.108049 0.20269,-0.220248 0.20269,-0.249331 0,-0.06412 -0.48905,0.334284 -0.49062,0.399686 -0.002,0.09042 0.0882,0.04324 0.28793,-0.150355 z m 4.21454,-0.09901 c 0.31479,-0.207531 0.23932,-0.249864 -0.0956,-0.05361 -0.30933,0.181276 -0.56157,0.431736 -0.28984,0.287796 0.0845,-0.04477 0.25794,-0.150155 0.3854,-0.234187 z m -7.61067,-0.557906 c -0.0397,-0.0397 -0.63243,0.540015 -0.71541,0.699703 -0.0351,0.06761 0.11831,-0.05531 0.34099,-0.273152 0.22269,-0.217846 0.39117,-0.409794 0.37442,-0.426551 z m 1.93925,-0.375885 c 1.03552,-0.934 1.02326,-0.922034 0.94454,-0.922034 -0.0359,0 -0.40066,0.302035 -0.81061,0.671187 -0.40995,0.369153 -0.89821,0.803149 -1.08503,0.964436 -0.18682,0.161286 -0.33967,0.317956 -0.33967,0.348154 0,0.07652 0.32708,-0.192521 1.29077,-1.061743 z m -4.12033,0.426187 c 0.14073,-0.200627 0.24088,-0.364776 0.22257,-0.364776 -0.0529,0 -0.71213,0.816524 -0.71213,0.882 0,0.09938 0.22031,-0.133385 0.48956,-0.517224 z m 14.9484,-0.363719 c 0.42817,-0.254125 0.93987,-0.550859 1.13711,-0.659407 0.19724,-0.108549 0.31712,-0.198412 0.26642,-0.199696 -0.25791,-0.0065 -2.80578,1.469388 -2.88003,1.668327 -0.0245,0.06553 0.32959,-0.128515 1.4765,-0.809224 z m 0.48679,0.412878 c 0.0816,-0.05969 -0.0245,-0.02471 -0.23574,0.07772 -0.21128,0.10243 -0.38416,0.215066 -0.38416,0.250301 0,0.06186 0.31372,-0.104147 0.6199,-0.328017 z m -7.19448,0.171347 c 0.0639,0.03949 0.81867,-0.583943 0.76815,-0.634469 -0.0164,-0.01639 -0.0726,0.0057 -0.12497,0.04919 -0.0523,0.04344 -0.1126,0.06155 -0.13391,0.04024 -0.0213,-0.02131 0.0969,-0.09866 0.26271,-0.171889 0.16581,-0.07323 0.49532,-0.301754 0.73227,-0.507834 0.23694,-0.20608 0.51084,-0.437312 0.60867,-0.513849 0.39699,-0.310604 0.0801,-0.170768 -0.49104,0.216689 -0.86912,0.589593 -1.32269,0.955442 -1.29004,1.040529 0.016,0.04164 -0.14378,0.169769 -0.36803,0.295182 -0.38942,0.217776 -0.5743,0.433738 -0.21007,0.245387 0.10241,-0.05296 0.21323,-0.07959 0.24626,-0.05917 z m 2.42959,-0.162674 c 0.22044,-0.173237 0.38761,-0.328171 0.37148,-0.344298 -0.0568,-0.05681 -0.76366,0.425198 -0.79407,0.541485 -0.0429,0.163906 -0.0282,0.157046 0.42259,-0.197187 z m 1.5166,0.108364 c 0.0926,-0.06749 0.15534,-0.135642 0.13954,-0.151442 -0.03,-0.03001 -0.52295,0.277527 -0.52295,0.326264 0,0.04802 0.2077,-0.04669 0.38341,-0.174822 z m -2.18923,-0.106182 c 0.18712,-0.138231 0.32603,-0.265509 0.3087,-0.282841 -0.0507,-0.05071 -0.71197,0.372913 -0.71388,0.457338 -0.003,0.115184 0.035,0.099 0.40518,-0.174497 z m -2.27604,0.02129 c -0.0426,-0.04263 -0.15924,0.04398 -0.15924,0.118265 0,0.04076 0.0353,0.0361 0.0937,-0.01239 0.0515,-0.04276 0.081,-0.09041 0.0656,-0.105879 z m 4.73461,-0.389547 c 0.35675,-0.239356 0.63454,-0.449293 0.61731,-0.466527 -0.0582,-0.05825 -1.31103,0.714977 -1.31103,0.809186 0,0.127757 -0.0281,0.141656 0.69372,-0.342659 z m -16.37943,-0.472775 c 0.31293,-0.43028 0.7297,-0.982858 0.92615,-1.227951 0.19645,-0.245092 0.3338,-0.445623 0.30523,-0.445623 -0.15816,0 -0.77787,0.542812 -1.00384,0.879273 -0.14064,0.209421 -0.41266,0.602041 -0.60447,0.872488 -0.44941,0.633644 -0.49234,0.707159 -0.34128,0.584402 0.10476,-0.08514 0.10955,-0.08128 0.0667,0.0538 -0.0798,0.251292 0.0576,0.100247 0.65153,-0.716385 z m 21.55251,0.482592 c 2.01716,-0.763351 2.34922,-0.896074 2.29069,-0.915583 -0.14248,-0.04749 -2.63272,0.872733 -2.79156,1.031571 -0.098,0.09803 -0.0121,0.07813 0.50087,-0.115988 z m -2.99559,-1.155027 c 0.26581,-0.159298 0.47245,-0.300483 0.45919,-0.313744 -0.0318,-0.03176 -0.94033,0.470488 -0.98663,0.545406 -0.066,0.106835 0.0412,0.05975 0.52744,-0.231662 z"
       id="path1171"
       inkscape:connector-curvature="0" />
  </g>
</svg>
