<?xml version="1.0" encoding="UTF-8" standalone="no"?>
<!-- Created with Inkscape (http://www.inkscape.org/) -->

<svg
   xmlns:dc="http://purl.org/dc/elements/1.1/"
   xmlns:cc="http://creativecommons.org/ns#"
   xmlns:rdf="http://www.w3.org/1999/02/22-rdf-syntax-ns#"
   xmlns:svg="http://www.w3.org/2000/svg"
   xmlns="http://www.w3.org/2000/svg"
   xmlns:sodipodi="http://sodipodi.sourceforge.net/DTD/sodipodi-0.dtd"
   xmlns:inkscape="http://www.inkscape.org/namespaces/inkscape"
   width="74.844154mm"
   height="35.131226mm"
   viewBox="0 0 74.844139 35.131225"
   version="1.1"
   id="svg8"
   inkscape:version="0.92.4 (5da689c313, 2019-01-14)"
   sodipodi:docname="iguanodon.svg">
  <defs
     id="defs2" />
  <sodipodi:namedview
     id="base"
     pagecolor="#ffffff"
     bordercolor="#666666"
     borderopacity="1.0"
     inkscape:pageopacity="0.0"
     inkscape:pageshadow="2"
     inkscape:zoom="1.4"
     inkscape:cx="151.20591"
     inkscape:cy="74.841358"
     inkscape:document-units="mm"
     inkscape:current-layer="layer1"
     showgrid="false"
     inkscape:window-width="1366"
     inkscape:window-height="745"
     inkscape:window-x="-8"
     inkscape:window-y="-8"
     inkscape:window-maximized="1" />
  <metadata
     id="metadata5">
    <rdf:RDF>
      <cc:Work
         rdf:about="">
        <dc:format>image/svg+xml</dc:format>
        <dc:type
           rdf:resource="http://purl.org/dc/dcmitype/StillImage" />
        <dc:title></dc:title>
      </cc:Work>
    </rdf:RDF>
  </metadata>
  <g
     inkscape:label="Camada 1"
     inkscape:groupmode="layer"
     id="layer1"
     transform="translate(-64.899678,-60.389399)">
    <path
       style="fill:#d5d5d5;fill-opacity:1;stroke-width:1"
       d="m 93.252891,95.481003 c -0.04556,-0.04625 -0.465179,-0.108981 -0.93249,-0.139404 -0.831499,-0.05413 -0.849094,-0.06085 -0.823309,-0.314339 0.01449,-0.142464 0.154364,-0.362284 0.31083,-0.488488 1.00337,-0.809317 0.944225,-0.730328 0.916367,-1.22381 -0.0323,-0.572079 -0.01109,-0.55283 -0.73962,-0.671402 -0.734139,-0.119484 -0.869314,-0.229676 -0.582748,-0.475043 0.117493,-0.1006 0.185495,-0.22842 0.151116,-0.284045 -0.03438,-0.05562 -0.01058,-0.06905 0.05287,-0.02983 0.06346,0.03922 0.261827,-0.08179 0.440819,-0.268918 0.295197,-0.308607 0.31958,-0.383557 0.262365,-0.806471 -0.06502,-0.480597 -0.390219,-1.576325 -0.630383,-2.124003 -0.254174,-0.579625 -0.546998,-1.654494 -0.677432,-2.486638 -0.07146,-0.455884 -0.167897,-0.903662 -0.214311,-0.995062 -0.164424,-0.323788 -0.794949,-1.014414 -0.863526,-0.945835 -0.03828,0.03828 -0.04275,-4.15e-4 -0.0099,-0.08591 0.135084,-0.352024 -0.859162,-1.002513 -1.621375,-1.060791 -0.09565,-0.0073 -0.165591,-0.06145 -0.155414,-0.120299 0.01028,-0.05945 -0.194872,-0.112521 -0.461612,-0.119423 -0.725769,-0.01878 -1.229045,-0.134803 -1.780095,-0.410371 -0.433059,-0.216566 -0.491434,-0.225672 -0.44269,-0.06906 0.03088,0.09922 0.106596,0.833145 0.168254,1.630941 0.06166,0.797796 0.137503,1.673953 0.168542,1.947015 0.05725,0.50367 -0.106345,1.109477 -0.299608,1.109477 -0.05617,0 -0.07436,0.07236 -0.04042,0.160797 0.03538,0.0922 0.01801,0.133793 -0.04072,0.09749 -0.05633,-0.03482 -0.102424,-0.02094 -0.102424,0.03083 0,0.05177 -0.135339,0.295649 -0.300755,0.541946 -0.165414,0.246297 -0.277578,0.521403 -0.249251,0.611348 0.03875,0.123028 0.02765,0.13038 -0.04478,0.02968 -0.07218,-0.100348 -0.164491,-0.03543 -0.368754,0.25932 -0.149859,0.216248 -0.505145,0.622351 -0.789523,0.902453 -0.284377,0.280102 -0.488629,0.555264 -0.453892,0.611472 0.03474,0.05621 0.01254,0.07091 -0.04933,0.03267 -0.06187,-0.03824 -0.285393,0.0478 -0.496713,0.191211 -0.211319,0.143404 -0.446006,0.260736 -0.521528,0.260736 -0.07552,0 -0.192629,0.103363 -0.260239,0.229694 -0.111985,0.209247 -0.07081,0.27631 0.462599,0.753383 0.853116,0.763019 0.806072,0.900064 -0.280301,0.816558 -0.543085,-0.04174 -0.889888,-0.02762 -0.930374,0.03788 -0.0355,0.05744 -0.107415,0.487617 -0.159812,0.955949 -0.07933,0.70908 -0.141752,0.900033 -0.373173,1.141584 -0.198078,0.206749 -0.238284,0.303613 -0.139971,0.337216 0.07586,0.02593 -0.07188,0.04273 -0.32831,0.03734 -0.473818,-0.01 -0.69281,-0.166401 -0.558754,-0.399158 0.04076,-0.07078 -0.0506,-0.01506 -0.203032,0.123824 -0.496225,0.452118 -2.035682,0.399168 -2.035682,-0.07002 0,-0.101895 0.162272,-0.426224 0.360604,-0.720732 0.416108,-0.617883 0.551579,-1.126947 0.581935,-2.186745 0.0264,-0.921563 0.200083,-1.280214 1.007061,-2.079505 0.323864,-0.320777 0.656721,-0.723106 0.739682,-0.894062 0.08296,-0.170956 0.331797,-0.623431 0.552969,-1.0055 0.238829,-0.412568 0.370687,-0.749171 0.324698,-0.828879 -0.04259,-0.07381 -0.03874,-0.0991 0.0086,-0.0562 0.097,0.088 0.634399,-0.746387 0.584095,-0.906892 -0.01786,-0.05698 3.11e-4,-0.07087 0.04029,-0.03085 0.05851,0.05851 0.773386,-0.67969 0.773386,-0.798613 0,-0.02712 -0.243477,-0.715139 -0.494777,-1.398151 -0.03145,-0.08548 -0.06422,-0.178727 -0.07282,-0.20722 -0.231511,-0.766865 -0.352551,-1.051369 -0.586292,-1.378078 -0.154951,-0.216581 -0.33171,-0.62684 -0.3928,-0.911686 -0.158992,-0.74136 -0.130266,-2.508648 0.05457,-3.356976 0.353756,-1.62362 0.335506,-1.696158 -0.562748,-2.23682 -0.322951,-0.194386 -0.706655,-0.469989 -0.852674,-0.612453 -0.481023,-0.469307 -0.872873,-0.774347 -0.959628,-0.747029 -0.04698,0.01479 -0.05831,-0.01695 -0.0252,-0.07053 0.03312,-0.05358 -0.173229,-0.47778 -0.458543,-0.942661 -0.285315,-0.464882 -0.518755,-0.867373 -0.518755,-0.894426 0,-0.02705 -0.20981,-0.495169 -0.466244,-1.040256 -0.256435,-0.545088 -0.466245,-1.026692 -0.466245,-1.07023 0,-0.04354 -0.07263,-0.139439 -0.161402,-0.213112 -0.08877,-0.07367 -0.229119,-0.296026 -0.311887,-0.494119 -0.230746,-0.552246 -1.094634,-1.262281 -1.5358,-1.262281 -0.07579,0 -0.309567,-0.116562 -0.519499,-0.259025 -0.209932,-0.142464 -0.516832,-0.259025 -0.682001,-0.259025 -0.165168,0 -0.471183,-0.10082 -0.680033,-0.224044 -0.367806,-0.217011 -0.420846,-0.220241 -1.689584,-0.102899 -1.280856,0.118462 -2.291795,0.339953 -3.01942,0.661538 -0.930471,0.411233 -1.596871,0.319695 -2.221751,-0.305184 -0.15864,-0.158639 -0.331462,-0.288436 -0.384051,-0.288436 -0.340352,0 -0.394865,-1.246042 -0.0928,-2.121137 0.107643,-0.311844 0.168854,-0.610451 0.136024,-0.663571 -0.03283,-0.05312 -0.01359,-0.06809 0.04276,-0.03326 0.134576,0.08317 0.9943,-0.794618 0.890288,-0.908997 -0.04402,-0.04841 -0.0311,-0.06025 0.02872,-0.02632 0.05982,0.03394 0.299737,-0.08681 0.533158,-0.268316 0.233421,-0.181511 0.510852,-0.390533 0.616513,-0.464493 0.178613,-0.125026 0.178993,-0.130569 0.0054,-0.0789 -0.115227,0.0343 -0.160795,0.01367 -0.119032,-0.05391 0.03722,-0.06022 0.140815,-0.08142 0.23022,-0.04711 0.0894,0.03431 0.189593,0.02539 0.222642,-0.01981 0.03305,-0.0452 0.339835,-0.189905 0.681748,-0.32156 0.341913,-0.131654 0.774771,-0.306059 0.961907,-0.387566 0.187136,-0.08151 0.399107,-0.148194 0.471046,-0.148194 0.212057,0 1.222925,-0.676908 1.137876,-0.761957 -0.04283,-0.04283 3.73e-4,-0.04785 0.09601,-0.01115 0.09564,0.0367 0.327339,0.01876 0.514892,-0.03986 0.187552,-0.05862 0.514706,-0.127529 0.727007,-0.153131 0.212302,-0.0256 0.561985,-0.152674 0.777075,-0.282385 0.414712,-0.250094 2.560262,-0.557051 2.776793,-0.397266 0.05847,0.04314 0.231091,0.06475 0.383608,0.048 0.16046,-0.01761 0.268467,0.0179 0.256332,0.08428 -0.01154,0.0631 0.0653,0.09995 0.170741,0.08189 0.130337,-0.02232 0.16636,0.0082 0.112517,0.09531 -0.05511,0.08917 -0.02713,0.108167 0.09197,0.06246 0.103274,-0.03963 0.161387,-0.01766 0.146509,0.05539 -0.01356,0.06659 0.03071,0.123193 0.09839,0.125783 0.06768,0.0026 0.270071,0.167895 0.449768,0.367344 0.179696,0.199449 0.372569,0.349824 0.428607,0.334165 0.05604,-0.01566 0.07022,0.02276 0.03152,0.08538 -0.0387,0.06262 0.02323,0.215301 0.137611,0.339299 0.353306,0.383002 1.165786,1.918836 1.20379,2.275528 0.0048,0.04482 0.05531,0.114754 0.112292,0.155414 0.05699,0.04066 0.10621,0.120553 0.109388,0.177539 0.01509,0.27058 0.183638,0.673464 0.281747,0.673464 0.06031,0 0.07945,0.0302 0.04254,0.0671 -0.102263,0.102264 0.361811,0.866235 0.481326,0.79237 0.06213,-0.0384 0.07823,0.0039 0.03971,0.104262 -0.04387,0.114322 0.09265,0.328936 0.422734,0.664559 0.268142,0.272639 0.394281,0.432301 0.28031,0.354803 -0.113971,-0.0775 0.0026,0.05395 0.259025,0.292113 0.546514,0.507568 0.841698,0.653218 1.372942,0.677442 0.213757,0.0097 0.419681,0.04875 0.457611,0.08668 0.156751,0.156751 0.530512,0.04945 0.867218,-0.248964 0.197297,-0.17486 0.288785,-0.287963 0.203307,-0.251342 -0.08548,0.03662 -0.06217,-0.0067 0.05181,-0.09621 0.443601,-0.348504 0.670295,-0.602756 0.615898,-0.69077 -0.03124,-0.05055 0.01555,-0.06415 0.10399,-0.03021 0.08906,0.03417 0.160796,0.0074 0.160796,-0.05995 0,-0.130401 0.626946,-0.759449 1.009307,-1.012693 0.127728,-0.0846 0.208016,-0.192996 0.178416,-0.240889 -0.0742,-0.12006 0.270173,-0.304695 0.568308,-0.304695 0.158352,0 0.63058,-0.47993 0.550763,-0.559747 -0.04008,-0.04008 0.01496,-0.03916 0.122292,0.002 0.134895,0.05176 0.17225,0.03782 0.120973,-0.04514 -0.04847,-0.07842 -0.01844,-0.09864 0.08661,-0.05833 0.08867,0.03402 0.160796,0.0075 0.160796,-0.05911 0,-0.06645 0.04034,-0.09588 0.08965,-0.06541 0.0493,0.03047 0.294083,-0.07782 0.543952,-0.240657 0.249869,-0.162833 0.626666,-0.356668 0.837328,-0.430743 0.210661,-0.07408 0.359439,-0.172838 0.330617,-0.219473 -0.02882,-0.04663 0.0378,-0.08479 0.148039,-0.08479 0.110244,0 0.464007,-0.116561 0.786143,-0.259024 0.322136,-0.142464 0.665965,-0.259739 0.764064,-0.260612 0.154232,-0.0014 0.157337,-0.01631 0.02295,-0.110397 -0.124873,-0.08743 -0.113543,-0.09717 0.05765,-0.0496 0.117187,0.03257 0.443558,0.01125 0.725269,-0.04736 0.717528,-0.149294 0.937577,-0.182327 1.703715,-0.255757 0.370406,-0.0355 0.83665,-0.104344 1.0361,-0.152982 0.396182,-0.09661 1.560336,-0.218458 2.538443,-0.265677 0.341913,-0.01651 1.017968,-0.06562 1.502344,-0.10914 0.484376,-0.04352 1.043869,-0.09272 1.243319,-0.109334 0.93139,-0.07758 1.78233,-0.175142 2.59025,-0.29698 1.22032,-0.18403 3.34776,-0.117535 4.49275,0.140425 0.50502,0.113778 0.9782,0.183848 1.05152,0.155712 0.0733,-0.02814 0.16409,-0.0014 0.20171,0.05952 0.0376,0.06087 0.17056,0.111352 0.29541,0.112181 0.12486,8.29e-4 0.43451,0.07376 0.68813,0.162065 0.25362,0.08831 0.54502,0.138617 0.64756,0.111802 0.10255,-0.02681 0.18644,-0.01193 0.18644,0.03308 0,0.0829 0.57857,0.15405 2.17581,0.267585 0.48438,0.03443 1.34693,0.150998 1.91678,0.259039 0.56986,0.108042 1.12935,0.210474 1.24332,0.227627 0.11397,0.01715 0.2655,0.06756 0.33674,0.112013 0.0712,0.04445 0.12951,0.05312 0.12951,0.01926 0,-0.03386 0.0963,-0.01004 0.21394,0.05293 0.2336,0.12502 0.51155,0.190838 0.95167,0.225354 0.15671,0.01229 0.28493,0.04938 0.28493,0.08243 0,0.09329 0.93515,0.320864 1.04345,0.25393 0.0529,-0.03272 0.0963,-0.01769 0.0963,0.03341 0,0.05109 0.26809,0.175296 0.59575,0.276007 0.32767,0.100711 0.82039,0.268794 1.09493,0.373517 0.27454,0.104723 0.5736,0.161846 0.66456,0.12694 0.1098,-0.04213 0.14021,-0.02272 0.0905,0.05775 -0.0478,0.07731 0.001,0.121217 0.13491,0.121217 0.1154,0 0.36293,0.06743 0.55006,0.149848 0.18714,0.08242 0.68993,0.248511 1.11732,0.369096 0.4274,0.120586 0.96358,0.283501 1.19152,0.362031 0.47101,0.162275 1.13242,0.289722 1.47575,0.284366 0.12784,-0.002 0.21325,0.02743 0.18978,0.06539 -0.0382,0.06179 1.31937,0.49915 3.28827,1.059369 0.38818,0.110452 0.75673,0.169341 0.81898,0.130864 0.064,-0.03956 0.0839,-0.02248 0.0457,0.03932 -0.0682,0.110361 1.01042,0.394983 1.90593,0.502922 0.245,0.02953 0.53051,0.09921 0.63445,0.154841 0.13,0.06957 0.189,0.06535 0.189,-0.01351 0,-0.06337 0.0728,-0.04183 0.16281,0.04816 0.0896,0.08955 0.25274,0.168644 0.36264,0.175767 0.22142,0.01435 0.28378,0.02873 0.51065,0.117708 0.0855,0.03353 0.38853,0.08523 0.67346,0.1149 0.28493,0.02967 0.86606,0.103091 1.2914,0.16316 0.42534,0.06007 0.86246,0.08094 0.97137,0.04637 0.10891,-0.03457 0.17332,-0.02289 0.14313,0.02596 -0.0609,0.09861 -0.0533,0.09933 1.47947,0.140646 1.19052,0.03209 1.40711,0.108367 1.23275,0.434159 -0.0604,0.112867 -0.13169,0.183345 -0.15842,0.156617 -0.0267,-0.02673 -0.22111,-0.0092 -0.43195,0.03891 -1.4004,0.31968 -6.21723,0.313858 -9.55283,-0.01155 -3.12861,-0.305212 -7.78726,-0.181192 -8.7931,0.234085 -0.15002,0.06194 -0.34371,0.104206 -0.43042,0.09392 -0.39006,-0.04626 -3.75051,1.317671 -4.54373,1.844201 -0.30634,0.203347 -0.64616,0.421536 -0.75515,0.484866 -0.10899,0.06333 -0.26977,0.203204 -0.35728,0.31083 -0.0875,0.107626 -0.12278,0.125747 -0.0784,0.04027 0.0444,-0.08548 -0.0658,-0.03885 -0.24487,0.10361 -0.17911,0.142464 -0.44608,0.343518 -0.59328,0.446787 -0.14719,0.10327 -0.24479,0.224709 -0.21688,0.269866 0.0806,0.130439 -0.4348,0.558861 -0.59731,0.496498 -0.15836,-0.06077 -0.7961,0.461623 -0.7961,0.652102 0,0.06356 -0.0383,0.09192 -0.085,0.06302 -0.11863,-0.07332 -0.76624,0.334714 -0.70037,0.441282 0.0849,0.137442 -0.48196,0.701288 -0.77689,0.772701 -0.26876,0.06507 -0.56387,0.520186 -0.4533,0.69908 0.0326,0.05272 0.0173,0.09585 -0.0339,0.09585 -0.13397,0 -0.34378,0.497237 -0.22662,0.537099 0.0862,0.02931 -0.13479,0.542699 -0.58274,1.354086 -0.0866,0.156877 -0.17964,0.469089 -0.20672,0.693805 -0.0271,0.224715 -0.16516,0.67066 -0.30682,0.990989 -0.14167,0.320329 -0.22598,0.637547 -0.18737,0.704929 0.0386,0.06738 0.0366,0.09249 -0.004,0.0558 -0.0411,-0.0367 -0.18413,0.04272 -0.31789,0.176483 -0.15962,0.15962 -0.42202,0.266922 -0.76352,0.312224 -0.50902,0.06752 -0.5181,0.07487 -0.418,0.338171 0.16304,0.42883 0.31182,0.57157 0.42771,0.410356 0.0684,-0.0951 0.0782,-0.07785 0.0337,0.05895 -0.0463,0.142181 0.0833,0.334161 0.48947,0.725269 0.98754,0.950851 1.16014,1.363407 1.15454,2.759517 -0.003,0.655333 -0.0175,1.378012 -0.0332,1.605954 -0.0156,0.227942 0.0215,0.670874 0.0825,0.984294 0.0675,0.347156 0.0873,1.197463 0.0505,2.175809 -0.0575,1.532412 -0.0753,1.636794 -0.38823,2.279418 -0.26417,0.542535 -0.38001,0.679518 -0.59582,0.704605 -0.36374,0.04228 -0.51581,-0.17612 -0.61545,-0.883968 -0.0463,-0.328741 -0.10767,-0.690961 -0.13643,-0.804932 -0.0287,-0.11397 -0.0558,-0.245518 -0.0602,-0.292328 -0.0206,-0.220565 -0.30338,0.252924 -0.47277,0.791472 -0.10391,0.330373 -0.32158,0.767593 -0.48371,0.971601 -0.16212,0.204007 -0.29477,0.407559 -0.29477,0.452336 0,0.194426 -0.55584,0.718836 -0.76038,0.717386 -0.40769,-0.0029 -0.51842,-0.162712 -0.56571,-0.816558 -0.0258,-0.356672 -0.10715,-0.678652 -0.18853,-0.746189 -0.18698,-0.155185 -0.18111,-0.59045 0.0184,-1.360224 0.1039,-0.400951 0.15767,-1.03452 0.15076,-1.776325 -0.0126,-1.348387 0.006,-1.723395 0.075,-1.53308 0.0322,0.08861 0.12228,0.01949 0.2515,-0.193002 0.11073,-0.182078 0.17591,-0.35647 0.14484,-0.38754 -0.0311,-0.03107 -0.0119,-0.110175 0.0425,-0.175791 0.27016,-0.325517 0.20879,-0.946298 -0.16517,-1.670926 -0.38283,-0.741832 -0.78752,-1.221941 -0.92541,-1.097881 -0.0438,0.03937 -0.0471,0.01496 -0.007,-0.05423 0.0822,-0.143193 -0.38264,-0.45701 -1.33414,-0.900649 -0.34192,-0.159417 -0.8781,-0.410849 -1.19152,-0.558738 -0.31342,-0.14789 -0.59316,-0.278414 -0.62166,-0.290057 -0.25026,-0.10226 0.0269,1.561066 0.38842,2.330686 0.28229,0.60101 1.2021,1.696119 1.32903,1.582314 0.0424,-0.03804 0.0495,-0.0204 0.0157,0.03921 -0.0338,0.05961 0.0296,0.384257 0.14078,0.72144 0.25392,0.76968 0.28694,0.94903 0.36007,1.956005 0.0327,0.449479 0.1231,0.915724 0.201,1.036099 0.61957,0.957412 0.67915,2.335476 0.13133,3.037694 -0.0536,0.06873 -0.0627,0.185296 -0.0202,0.259025 0.0453,0.07851 0.0382,0.09799 -0.017,0.04702 -0.0545,-0.05028 -0.14141,0.08097 -0.20584,0.31083 -0.094,0.335242 -0.19996,0.443273 -0.67346,0.686373 -0.7263,0.372887 -1.49944,0.371024 -1.48622,-0.0036 0.01,-0.28066 -0.0405,-0.287648 -0.37371,-0.05181 -0.21207,0.150102 -0.45681,0.177934 -1.421566,0.161664 -1.308051,-0.02206 -1.377582,-0.04188 -1.294182,-0.368987 0.0808,-0.316895 0.393424,-0.573626 0.873761,-0.717538 0.448568,-0.134394 0.832621,-0.473977 1.066687,-0.943184 0.19003,-0.380915 0.19331,-0.419817 0.027,-0.319891 -0.0944,0.05673 -0.0925,0.03211 0.007,-0.09087 0.10446,-0.128896 0.10928,-0.219924 0.0204,-0.385949 -0.068,-0.127051 -0.10907,-0.656822 -0.0989,-1.275844 0.0168,-1.02739 0.007,-1.078921 -0.348656,-1.749171 -0.201306,-0.379827 -0.389982,-0.666618 -0.419286,-0.637313 -0.0293,0.0293 -0.02969,-0.03692 -8.29e-4,-0.147167 0.03273,-0.125156 -0.05747,-0.331589 -0.240142,-0.549588 -0.160909,-0.192028 -0.223176,-0.306635 -0.138372,-0.254682 0.255697,0.15665 -0.479839,-0.783402 -1.175553,-1.502417 -0.870586,-0.899742 -1.032902,-1.034567 -1.309688,-1.087871 -0.129485,-0.02494 -0.264089,-0.07754 -0.299118,-0.116902 -0.03503,-0.03936 0.02956,-0.03845 0.143532,0.002 0.113971,0.04048 -0.100529,-0.2435 -0.476669,-0.631054 -0.376139,-0.387555 -0.792199,-0.891143 -0.92458,-1.119084 -0.132379,-0.227942 -0.250886,-0.428847 -0.263348,-0.446457 -0.01246,-0.01761 -0.231423,-0.05497 -0.48658,-0.08303 -0.605262,-0.06656 -0.657272,0.112182 -0.274665,0.943927 0.157282,0.341913 0.292823,0.551723 0.301203,0.466245 0.02002,-0.204172 0.283849,0.489555 0.53144,1.397378 0.167059,0.612546 0.37167,2.506062 0.532562,4.92845 0.04198,0.632118 0.442975,1.590302 0.619793,1.481021 0.06645,-0.04107 0.07969,-0.01872 0.03335,0.05626 -0.04451,0.07202 0.101425,0.398055 0.346626,0.774404 0.465406,0.714331 0.492698,0.811794 0.277369,0.990502 -0.116099,0.09635 -0.220061,0.05637 -0.505825,-0.194534 -0.536381,-0.470949 -0.545256,-0.443918 -0.24257,0.738827 l 0.137991,0.539197 -0.306718,0.258086 c -0.189804,0.159709 -0.509667,0.287701 -0.839148,0.335779 -0.292836,0.04273 -0.74224,0.108612 -0.998674,0.146402 -0.256435,0.03779 -0.50352,0.03087 -0.549077,-0.01538 z M 86.703954,65.70684 c 0.0363,-0.05873 -0.0053,-0.0761 -0.09749,-0.04072 -0.179496,0.06888 -0.212337,0.143144 -0.0633,0.143144 0.05362,0 0.125982,-0.04609 0.160797,-0.102424 z m 20.156036,27.403636 c 0,-0.05698 0.0452,-0.173546 0.10043,-0.259024 0.0553,-0.08548 0.10044,-0.108791 0.10044,-0.05181 0,0.05698 -0.0452,0.173546 -0.10044,0.259024 -0.0552,0.08548 -0.10043,0.108791 -0.10043,0.05181 z M 83.699999,89.639544 c 0.03522,-0.05698 0.0846,-0.10361 0.109725,-0.10361 0.02513,0 0.04569,0.04662 0.04569,0.10361 0,0.05699 -0.04938,0.10361 -0.109725,0.10361 -0.06035,0 -0.08091,-0.04662 -0.04569,-0.10361 z M 112.59732,74.216343 c 0.21117,-0.237399 0.26887,-0.268134 0.26887,-0.143209 0,0.04328 -0.1049,0.143132 -0.23312,0.221897 -0.2323,0.142701 -0.23242,0.142421 -0.0357,-0.07869 z"
       id="path1093"
       inkscape:connector-curvature="0" />
  </g>
</svg>
