<?xml version="1.0" encoding="UTF-8" standalone="no"?>
<!-- Created with Inkscape (http://www.inkscape.org/) -->

<svg
   xmlns:dc="http://purl.org/dc/elements/1.1/"
   xmlns:cc="http://creativecommons.org/ns#"
   xmlns:rdf="http://www.w3.org/1999/02/22-rdf-syntax-ns#"
   xmlns:svg="http://www.w3.org/2000/svg"
   xmlns="http://www.w3.org/2000/svg"
   xmlns:sodipodi="http://sodipodi.sourceforge.net/DTD/sodipodi-0.dtd"
   xmlns:inkscape="http://www.inkscape.org/namespaces/inkscape"
   width="135.01317mm"
   height="43.451199mm"
   viewBox="0 0 135.01317 43.451199"
   version="1.1"
   id="svg852"
   inkscape:version="0.92.4 (5da689c313, 2019-01-14)"
   sodipodi:docname="massospondylus.svg">
  <defs
     id="defs846" />
  <sodipodi:namedview
     id="base"
     pagecolor="#ffffff"
     bordercolor="#666666"
     borderopacity="1.0"
     inkscape:pageopacity="0.0"
     inkscape:pageshadow="2"
     inkscape:zoom="0.98994949"
     inkscape:cx="149.9242"
     inkscape:cy="-70.066747"
     inkscape:document-units="mm"
     inkscape:current-layer="layer1"
     showgrid="false"
     inkscape:window-width="1366"
     inkscape:window-height="745"
     inkscape:window-x="-8"
     inkscape:window-y="-8"
     inkscape:window-maximized="1" />
  <metadata
     id="metadata849">
    <rdf:RDF>
      <cc:Work
         rdf:about="">
        <dc:format>image/svg+xml</dc:format>
        <dc:type
           rdf:resource="http://purl.org/dc/dcmitype/StillImage" />
        <dc:title></dc:title>
      </cc:Work>
    </rdf:RDF>
  </metadata>
  <g
     inkscape:label="Camada 1"
     inkscape:groupmode="layer"
     id="layer1"
     transform="translate(-11.242799,-8.2447289)">
    <path
       style="fill:#d5d5d5;fill-opacity:1;stroke-width:1"
       d="m 60.990445,51.120639 c 0,-0.44977 -0.15875,-0.576569 -0.727604,-0.58117 l -0.727604,-0.0059 0.661458,-0.544174 0.661459,-0.544176 -0.79375,0.157223 -0.79375,0.157223 0.624623,-0.533206 c 0.343545,-0.293265 0.959487,-0.533207 1.368763,-0.533207 0.409276,0 1.097884,-0.297657 1.530237,-0.661459 0.432355,-0.363802 0.904173,-0.661458 1.048485,-0.661458 0.735312,0 1.187275,-2.473888 1.425961,-7.805208 0.0065,-0.145521 -0.0763,-1.518208 -0.184031,-3.050415 -0.178032,-2.532044 -0.145322,-2.88493 0.359064,-3.873606 l 0.554939,-1.087776 -1.308801,0.497305 c -0.719841,0.273519 -1.995527,0.573297 -2.834854,0.666176 -1.037619,0.114819 -1.737762,0.359418 -2.187511,0.76422 -0.363802,0.327443 -1.642814,1.155605 -2.842247,1.84036 -1.199433,0.684752 -2.252794,1.361516 -2.340803,1.50392 -0.275928,0.446461 -1.399532,0.748612 -2.193411,0.589836 -0.593778,-0.118756 -0.732452,-0.265822 -0.627843,-0.665843 0.132699,-0.507441 0.123851,-0.507492 -0.759363,-0.0043 -1.050488,0.598514 -2.46911,0.979813 -2.234787,0.60067 0.08711,-0.140951 -0.11127,-0.303061 -0.440851,-0.360246 -0.56202,-0.09752 -0.549939,-0.124494 0.194514,-0.434398 0.696005,-0.289732 0.737131,-0.362106 0.333973,-0.587732 -0.570767,-0.319423 -1.072243,-1.219226 -0.865725,-1.553379 0.0848,-0.137205 0.387961,-0.01569 0.673693,0.270049 0.285734,0.285735 0.747638,0.519518 1.026451,0.519518 0.636233,0 2.138899,-1.861442 2.138899,-2.649583 0,-0.666996 -0.980273,-2.336553 -2.451428,-4.175161 -0.54792,-0.684777 -1.262295,-1.94046 -1.5875,-2.790407 -0.815549,-2.131505 -1.642282,-2.563008 -7.954282,-4.151643 -6.981183,-1.757064 -8.61787,-2.392331 -13.11309,-5.08975 -4.233277,-2.540235 -7.806835,-3.719557 -12.32278,-4.06668 -3.019113,-0.232029 -3.608582,-0.791702 -2.611565,-2.4795179 0.794476,-1.344941 3.170055,-1.900447 5.681757,-1.328627 3.29,0.749012 12.215386,4.0077069 13.721389,5.0097399 0.954483,0.635071 2.593228,1.348748 3.096997,1.348748 0.238266,0 0.62118,0.165703 0.850919,0.368231 0.583016,0.513956 3.934405,0.894313 6.767709,0.768085 5.471927,-0.243784 6.120648,-0.324032 11.509374,-1.423728 1.448816,-0.295664 2.138281,-0.379881 5.159375,-0.630203 1.772475,-0.146862 1.583737,-0.148495 3.571875,0.03088 0.800364,0.07221 2.110052,0.187946 2.910416,0.25719 0.800365,0.06925 1.693333,0.231839 1.984375,0.361315 0.291042,0.12948 0.945885,0.295723 1.455208,0.36943 0.509323,0.07371 1.461823,0.253172 2.116667,0.398812 0.654844,0.145642 1.700056,0.375012 2.322692,0.509714 0.622639,0.134702 1.346388,0.43887 1.608333,0.675926 0.261949,0.237059 0.839267,0.431014 1.282933,0.431014 0.443664,0 0.954884,0.178594 1.136042,0.396875 0.183779,0.221441 0.760529,0.396875 1.304745,0.396875 0.53645,0 1.206481,0.174808 1.488956,0.388461 0.282474,0.213652 0.811246,0.394894 1.175048,0.402757 0.363803,0.0079 0.959115,0.247129 1.322917,0.531699 0.363802,0.28457 0.842179,0.520046 1.063061,0.523282 0.22088,0.0032 0.839642,0.303541 1.375024,0.667343 0.566296,0.384807 1.349454,0.661458 1.872496,0.661458 0.563052,0 1.07805,0.197771 1.37796,0.529167 0.26339,0.291041 0.743514,0.529166 1.066943,0.529166 0.323432,0 0.736275,0.178594 0.917432,0.396875 0.181158,0.218282 0.476007,0.396875 0.65522,0.396875 0.179213,0 0.635547,0.287023 1.014074,0.637831 0.378526,0.350806 1.035804,0.714169 1.460616,0.807474 0.424812,0.09331 1.047475,0.462463 1.383694,0.820351 0.336219,0.357889 1.082892,0.77769 1.659273,0.932895 0.576382,0.155204 1.369531,0.51993 1.762554,0.810506 0.393025,0.290576 1.209117,0.594648 1.813536,0.675719 0.604426,0.08107 1.098946,0.231675 1.098946,0.334674 0,0.258294 1.24162,0.801383 1.83214,0.801383 0.26638,0 0.63254,0.178594 0.8137,0.396875 0.18116,0.218282 0.65741,0.396875 1.05833,0.396875 0.40093,0 0.86756,0.167 1.03695,0.37111 0.1694,0.20411 0.80906,0.436277 1.42146,0.515927 0.61241,0.07965 2.06597,0.299077 3.23014,0.487614 3.44333,0.557649 12.08331,0.39847 15.47812,-0.285163 5.49936,-1.107437 13.14332,-2.430454 15.47812,-2.678956 3.17601,-0.338034 5.68401,-0.337077 5.15938,0.0019 -0.21828,0.141065 -0.83025,0.258305 -1.35994,0.260533 -2.68525,0.0113 -9.73542,1.969346 -12.92756,3.590387 -2.93897,1.492472 -4.22214,1.834647 -14.41979,3.845203 -2.32833,0.459052 -4.76912,0.928709 -5.42396,1.043681 -0.65484,0.114972 -3.03609,0.104558 -5.29167,-0.02315 -4.98095,-0.281999 -11.787039,-1.517428 -18.891101,-3.42908 -2.908408,-0.782629 -5.098648,-1.247417 -5.235125,-1.11094 -0.129058,0.129058 -0.30199,0.649605 -0.384291,1.156769 -0.130527,0.804349 -0.01005,1.083405 0.943345,2.184963 0.635018,0.733706 1.228116,1.768084 1.415486,2.468642 0.213032,0.796496 0.794189,1.734426 1.712095,2.763139 0.764276,0.856541 1.398177,1.761204 1.408674,2.010365 0.172103,4.08605 0.09778,5.063474 -0.440339,5.790527 -0.407574,0.550686 -0.97401,0.852565 -2.14803,1.144784 -0.876967,0.218281 -1.788731,0.560281 -2.026142,0.759999 -0.377626,0.317675 -0.431654,0.292839 -0.431654,-0.198437 0,-0.616215 -0.518488,-0.727496 -1.340311,-0.287671 -0.62735,0.335748 -0.661548,0.06557 -0.07389,-0.583787 0.308139,-0.340492 0.337738,-0.483854 0.09989,-0.483854 -0.647531,0 0.25083,-0.74802 1.446995,-1.204839 1.637816,-0.625488 1.913451,-1.410901 1.330275,-3.7906 -0.514247,-2.098432 -0.936284,-2.640298 -2.934957,-3.768278 -1.775028,-1.001765 -3.326661,-2.726121 -3.952943,-4.392969 -0.760741,-2.024716 -1.278062,-2.588848 -2.665095,-2.906247 -1.232339,-0.281998 -1.253855,-0.27519 -2.363748,0.747874 -1.01419,0.934844 -1.137526,1.186574 -1.304502,2.662441 -0.101425,0.89649 -0.652462,2.876063 -1.224523,4.399055 -0.572061,1.523116 -1.040111,3.241074 -1.040111,3.817813 0,1.436798 -0.58502,2.549832 -2.341967,4.455726 -1.370066,1.486212 -1.604632,1.632704 -2.817408,1.759534 -0.80921,0.08463 -1.554086,0.348996 -1.918229,0.680813 l -0.595309,0.542413 z M 55.846647,31.877952 c -0.919618,-0.685067 -1.206201,-0.478578 -1.206201,0.869085 v 1.251683 l 0.859896,-0.869085 c 0.833924,-0.842836 0.844383,-0.880642 0.346305,-1.251683 z"
       id="path1972"
       inkscape:connector-curvature="0" />
  </g>
</svg>
