<?xml version="1.0" encoding="UTF-8" standalone="no"?>
<!-- Created with Inkscape (http://www.inkscape.org/) -->

<svg
   xmlns:dc="http://purl.org/dc/elements/1.1/"
   xmlns:cc="http://creativecommons.org/ns#"
   xmlns:rdf="http://www.w3.org/1999/02/22-rdf-syntax-ns#"
   xmlns:svg="http://www.w3.org/2000/svg"
   xmlns="http://www.w3.org/2000/svg"
   xmlns:sodipodi="http://sodipodi.sourceforge.net/DTD/sodipodi-0.dtd"
   xmlns:inkscape="http://www.inkscape.org/namespaces/inkscape"
   width="132.84013mm"
   height="48.708302mm"
   viewBox="0 0 132.84013 48.708302"
   version="1.1"
   id="svg8"
   inkscape:version="0.92.4 (5da689c313, 2019-01-14)"
   sodipodi:docname="megalosaurus.svg">
  <defs
     id="defs2" />
  <sodipodi:namedview
     id="base"
     pagecolor="#ffffff"
     bordercolor="#666666"
     borderopacity="1.0"
     inkscape:pageopacity="0.0"
     inkscape:pageshadow="2"
     inkscape:zoom="0.35"
     inkscape:cx="288.90862"
     inkscape:cy="-166.69302"
     inkscape:document-units="mm"
     inkscape:current-layer="layer1"
     showgrid="false"
     inkscape:window-width="1366"
     inkscape:window-height="745"
     inkscape:window-x="-8"
     inkscape:window-y="-8"
     inkscape:window-maximized="1" />
  <metadata
     id="metadata5">
    <rdf:RDF>
      <cc:Work
         rdf:about="">
        <dc:format>image/svg+xml</dc:format>
        <dc:type
           rdf:resource="http://purl.org/dc/dcmitype/StillImage" />
        <dc:title></dc:title>
      </cc:Work>
    </rdf:RDF>
  </metadata>
  <g
     inkscape:label="Camada 1"
     inkscape:groupmode="layer"
     id="layer1"
     transform="translate(-33.550666,-59.800599)">
    <path
       style="fill:#d5d5d5;fill-opacity:1;stroke-width:1"
       d="m 87.861077,108.3441 c 0,-0.0906 0.07003,-0.12152 0.155617,-0.0686 0.08559,0.0529 0.155617,0.12706 0.155617,0.1648 0,0.0377 -0.07003,0.0686 -0.155617,0.0686 -0.08559,0 -0.155617,-0.0742 -0.155617,-0.1648 z m 2.178641,-0.15561 c 0,-0.0907 0.07003,-0.12153 0.155617,-0.0686 0.08559,0.0529 0.155617,0.12706 0.155617,0.1648 0,0.0377 -0.07003,0.0686 -0.155617,0.0686 -0.08559,0 -0.155617,-0.0742 -0.155617,-0.1648 z m -7.432237,-0.20093 c -0.403551,-0.13233 -0.607022,-0.36485 -0.99515,-1.13724 -0.268334,-0.534 -0.582777,-1.00733 -0.698763,-1.05183 -0.115987,-0.0445 -0.210884,-0.23266 -0.210884,-0.4181 0,-0.32203 -0.648478,-1.07315 -0.926498,-1.07315 -0.200905,0 -0.474057,-0.90583 -0.474057,-1.57207 0,-0.60046 0.268274,-1.38466 0.47369,-1.38466 0.06187,0 0.145963,-0.17507 0.186867,-0.38904 0.0409,-0.21397 0.0019,-0.38904 -0.08679,-0.38904 -0.08864,0 -0.01934,-0.15757 0.154008,-0.35014 0.173345,-0.19258 0.368867,-0.490204 0.434494,-0.661384 0.221871,-0.57872 0.571406,-2.4828 0.685603,-3.73481 0.100792,-1.10504 0.3742,-2.22439 0.808794,-3.31123 0.07797,-0.19498 0.259958,-0.39987 0.404429,-0.4553 0.47122,-0.18083 2.291888,-1.62516 2.97668,-2.36139 0.69807,-0.75051 1.400591,-1.89064 1.737667,-2.82007 0.108643,-0.29956 0.293452,-0.76341 0.41069,-1.03077 0.117237,-0.26736 0.23799,-0.64881 0.268338,-0.84768 0.03035,-0.19886 0.136736,-0.38875 0.236417,-0.42198 0.09968,-0.0332 0.141655,-0.12446 0.09328,-0.20274 -0.04838,-0.0783 -0.0138,-0.14232 0.07684,-0.14232 0.09064,0 0.147294,-0.0765 0.125897,-0.1701 -0.0214,-0.0936 0.09501,-0.25112 0.258675,-0.35014 0.163669,-0.099 0.42389,-0.30021 0.57827,-0.44708 0.688756,-0.65524 2.326196,-1.43771 3.248007,-1.55209 1.046112,-0.12981 -0.194118,-0.88953 -1.620055,-0.99239 -0.561985,-0.0405 -1.19511,-0.13961 -1.406947,-0.22015 -0.211837,-0.0805 -1.035484,-0.19699 -1.830326,-0.25877 -0.904345,-0.0703 -1.299579,-0.1491 -1.056126,-0.2106 0.333354,-0.0842 0.24425,-0.14635 -0.622469,-0.43404 -0.556332,-0.18467 -1.326637,-0.38228 -1.71179,-0.43913 -0.385152,-0.0568 -0.770305,-0.15757 -0.855894,-0.22382 -0.08559,-0.0662 -0.435729,-0.17085 -0.778087,-0.23247 -0.342357,-0.0616 -0.692496,-0.16379 -0.778086,-0.22706 -0.08559,-0.0633 -0.432152,-0.16497 -0.770138,-0.22599 -0.337987,-0.061 -0.756228,-0.21022 -0.929426,-0.33153 -0.173196,-0.12131 -0.460384,-0.22057 -0.638197,-0.22057 -0.177811,0 -0.389819,-0.0584 -0.471129,-0.12974 -0.08131,-0.0714 -0.778087,-0.33194 -1.548392,-0.57908 -0.770305,-0.24714 -1.435569,-0.49444 -1.478363,-0.54956 -0.04279,-0.0551 -0.252878,-0.15024 -0.466852,-0.21138 -0.444726,-0.12706 -1.349805,-0.49789 -1.748582,-0.71641 -0.148621,-0.0815 -0.358704,-0.14851 -0.466852,-0.14904 -0.108148,-4.7e-4 -0.406716,-0.11187 -0.663485,-0.24743 -0.256768,-0.13556 -0.852004,-0.38921 -1.322746,-0.56366 -0.470742,-0.17445 -1.136006,-0.44155 -1.478364,-0.59356 -0.342358,-0.15201 -1.007621,-0.39375 -1.478363,-0.53722 -0.470742,-0.14346 -1.276062,-0.42459 -1.789598,-0.62472 -1.286055,-0.5012 -2.695317,-0.95657 -3.345771,-1.08111 -0.299563,-0.0573 -0.684715,-0.16459 -0.855894,-0.23831 -0.277726,-0.11959 -1.816444,-0.49661 -3.812622,-0.93417 -2.316254,-0.50773 -6.288516,-0.7547 -7.827618,-0.48668 -0.5415,0.0943 -1.355495,0.20838 -1.808879,0.25351 -0.453385,0.0451 -0.939127,0.14118 -1.079427,0.21344 -0.140299,0.0723 -0.535202,0.17985 -0.877559,0.23908 -0.342358,0.0592 -0.832553,0.16941 -1.089321,0.24484 -1.510535,0.44377 -3.177756,0.99006 -3.602714,1.18048 -0.269704,0.12086 -0.567322,0.21974 -0.661374,0.21974 -0.09405,0 -0.171003,0.0605 -0.171003,0.13447 0,0.074 -0.297618,0.24883 -0.661373,0.3886 -0.363755,0.13977 -0.888963,0.46795 -1.167129,0.72931 -0.278166,0.26135 -0.505756,0.39999 -0.505756,0.30809 0,-0.30975 -0.844414,0.35244 -2.100833,1.64748 -1.316635,1.3571 -1.308375,1.34767 -2.027717,2.31633 -0.254187,0.34229 -0.581866,0.75511 -0.728176,0.91737 -0.253983,0.28168 -0.258831,0.269 -0.107181,-0.28023 0.08736,-0.31639 0.396128,-0.96918 0.686152,-1.45063 0.290023,-0.48145 0.485745,-0.94263 0.434939,-1.02483 -0.05081,-0.0822 0.07526,-0.28588 0.280143,-0.4526 l 0.37252,-0.30313 -0.350139,0.0765 c -0.192576,0.0421 -0.350139,0.0281 -0.350139,-0.031 0,-0.15962 0.86552,-0.64145 1.152236,-0.64145 0.136575,0 0.248319,-0.0687 0.248319,-0.15264 0,-0.0891 -0.307615,-0.12072 -0.739181,-0.0759 l -0.739182,0.0767 0.54466,-0.22346 c 0.299563,-0.12291 0.728662,-0.22879 0.953553,-0.2353 0.224891,-0.007 0.505002,-0.12834 0.622469,-0.27073 0.195288,-0.23672 0.155964,-0.24973 -0.45925,-0.15195 -0.914352,0.14533 -0.709858,-0.12778 0.344539,-0.46015 0.45553,-0.14359 0.995859,-0.39381 1.200731,-0.55605 l 0.372494,-0.29497 -0.622469,0.0934 c -0.342358,0.0514 -0.815045,0.12927 -1.050416,0.1731 -0.235371,0.0438 -0.427948,0.0186 -0.427948,-0.0561 0,-0.12458 0.802402,-0.42643 2.178641,-0.81959 0.459449,-0.13125 0.386411,-0.14359 -0.466851,-0.0789 -0.952018,0.0722 -0.98751,0.0633 -0.603439,-0.15173 0.224441,-0.12566 0.959732,-0.33386 1.633981,-0.46267 0.83523,-0.15957 0.991243,-0.21709 0.489553,-0.1805 -0.404996,0.0296 -0.698481,-0.008 -0.652189,-0.0825 0.04629,-0.0749 0.342636,-0.13657 0.658546,-0.13705 0.315909,-4.8e-4 0.854491,-0.0843 1.196849,-0.18637 0.500155,-0.14905 0.553667,-0.19687 0.27233,-0.24338 -0.569089,-0.0941 -0.399421,-0.34738 0.233426,-0.34849 0.647908,-10e-4 1.429291,-0.43642 1.325085,-0.73816 -0.04132,-0.11966 0.07421,-0.19452 0.300206,-0.19452 0.202062,0 0.509198,-0.0993 0.682524,-0.22073 0.677822,-0.47477 3.790381,-1.96231 5.045099,-2.411135 1.419369,-0.507725 3.733217,-1.0957 4.746325,-1.206096 0.342358,-0.03731 0.867566,-0.13401 1.167129,-0.214898 0.299563,-0.08089 0.789758,-0.152382 1.089321,-0.158875 0.381433,-0.0083 0.460818,-0.0449 0.264893,-0.122226 -0.474113,-0.187126 1.728718,-0.258004 7.204734,-0.231819 2.867247,0.01371 6.263593,0.108267 7.547435,0.210124 1.597795,0.126766 5.181913,0.163123 11.360057,0.115238 9.312852,-0.07218 11.690338,-0.206169 11.951905,-0.673564 0.122852,-0.219523 0.153724,-0.21893 0.318283,0.0061 0.15374,0.210252 0.267157,0.221005 0.725372,0.06877 0.298726,-0.09925 0.622391,-0.278597 0.719255,-0.398554 0.142349,-0.176284 0.191137,-0.178963 0.25445,-0.01397 0.0598,0.155837 0.31266,0.177293 1.068821,0.09069 1.806847,-0.206928 4.084727,-0.581932 5.503387,-0.906014 2.45101,-0.559913 2.70144,-0.588216 4.46503,-0.504625 1.57132,0.07448 1.75078,0.0549 1.95718,-0.213512 0.15915,-0.206971 0.24909,-0.237227 0.30016,-0.100986 0.0864,0.230418 0.66945,0.264302 0.66945,0.0389 0,-0.204309 0.42549,-0.201882 0.49373,0.0028 0.0547,0.164252 2.1603,-0.01396 4.48602,-0.379699 0.97502,-0.153329 1.15924,-0.228628 1.11923,-0.457473 -0.045,-0.257148 -0.0239,-0.258227 0.34329,-0.01761 0.53108,0.347974 0.8086,0.160382 0.48756,-0.329574 -0.3137,-0.478772 -0.17072,-0.47639 0.40342,0.0067 0.32356,0.272257 0.60155,0.36804 0.97177,0.33482 0.61261,-0.05497 0.91635,-0.214401 0.79194,-0.415691 -0.21816,-0.352986 0.68339,0.0797 0.96653,0.463875 0.25736,0.34919 0.42475,0.108902 0.20725,-0.297505 -0.28713,-0.536498 -0.0754,-0.5301 0.48174,0.01456 0.59041,0.577141 0.73042,0.425066 0.38025,-0.413012 -0.13399,-0.320671 -0.21837,-0.60828 -0.18752,-0.639132 0.11594,-0.115935 0.897,0.61578 1.12223,1.051325 0.38158,0.737897 0.67871,0.590787 0.52022,-0.257565 -0.073,-0.390871 -0.17316,-0.776024 -0.22252,-0.855894 -0.0494,-0.07987 -0.0312,-0.14522 0.0404,-0.14522 0.19201,0 0.85628,0.809106 1.19657,1.457458 0.18433,0.351207 0.41019,0.565566 0.59593,0.565566 0.25555,0 0.28358,-0.07362 0.19252,-0.505756 -0.0586,-0.278166 -0.16922,-0.572283 -0.24579,-0.653593 -0.0766,-0.08131 -0.13922,-0.249726 -0.13922,-0.374257 0,-0.342044 0.53484,0.189598 1.015,1.008944 0.21743,0.371005 0.53318,0.748334 0.70167,0.838509 0.27787,0.148712 0.30635,0.11281 0.30635,-0.386181 0,-0.568212 0.20636,-0.736662 0.3724,-0.303982 0.052,0.135384 0.0944,0.411363 0.0944,0.613285 0,0.376814 0.30728,0.722566 0.31619,0.355779 0.003,-0.123383 0.0985,-0.08098 0.24209,0.107529 0.13043,0.171179 0.33167,0.292178 0.4472,0.268887 0.11552,-0.02329 0.54216,0.134239 0.94807,0.350068 0.53569,0.284826 0.79227,0.347403 0.93586,0.22824 0.14357,-0.119156 0.23553,-0.09678 0.33535,0.08158 0.24891,0.444773 1.52447,0.456208 3.15555,0.02829 0.8131,-0.21332 1.7726,-0.533434 2.13222,-0.711364 0.35962,-0.17793 0.86362,-0.323509 1.11999,-0.323509 0.25637,0 0.7954,-0.175069 1.19782,-0.389043 0.40243,-0.213973 0.84772,-0.389043 0.98952,-0.389043 0.1418,0 0.49511,-0.175069 0.78514,-0.389043 0.3731,-0.275261 0.72632,-0.389043 1.20775,-0.389043 0.48602,0 0.82615,-0.11115 1.19048,-0.389043 0.56723,-0.432645 0.86848,-0.483662 1.15632,-0.195822 0.15389,0.153883 0.21926,0.151085 0.32113,-0.01374 0.1603,-0.259361 1.51594,-0.296715 1.76404,-0.04861 0.21128,0.211273 0.48676,0.243524 0.36248,0.04244 -0.2222,-0.359522 1.49276,-0.439992 1.78828,-0.08391 0.13782,0.166062 0.40723,0.230707 0.83605,0.200611 0.65861,-0.04622 1.34573,0.117944 1.50098,0.35862 0.0496,0.07691 0.45648,0.197731 0.90416,0.2685 0.44768,0.07077 0.89379,0.20849 0.99134,0.306048 0.2495,0.249502 0.39216,0.220968 0.47471,-0.09495 0.0565,-0.216306 0.0749,-0.204219 0.0892,0.05875 0.01,0.182096 0.1231,0.418261 0.25148,0.52481 0.19312,0.160271 0.23555,0.143405 0.24571,-0.09766 0.009,-0.204642 0.0594,-0.162273 0.17051,0.142324 0.12005,0.32909 0.2297,0.41102 0.45456,0.339652 0.16504,-0.05238 0.29635,-0.02046 0.29635,0.07205 0,0.09136 0.14006,0.166103 0.31123,0.166103 0.17118,0 0.31124,-0.07003 0.31124,-0.155617 0,-0.228222 0.25485,-0.189771 0.52362,0.079 0.12909,0.129085 0.27479,0.169628 0.32392,0.09013 0.0502,-0.08118 0.48065,0.01419 0.98253,0.217674 1.01942,0.413324 2.45964,0.858128 2.77851,0.858128 0.11855,0 0.21555,0.07003 0.21555,0.155617 0,0.08559 0.0875,0.156049 0.19452,0.156576 0.10699,5.29e-4 0.39439,0.105197 0.63867,0.2326 0.24428,0.127403 0.50688,0.192866 0.58356,0.145475 0.0767,-0.04739 0.14023,-0.02951 0.14121,0.03973 0.002,0.122726 0.43654,0.337311 1.86562,0.920737 0.38515,0.15724 0.73529,0.324774 0.77809,0.3723 0.0428,0.04752 0.23493,0.154499 0.42697,0.237721 0.45879,0.198815 2.21852,1.931912 2.21852,2.184942 0,0.10828 0.0525,0.22022 0.11671,0.24875 0.20705,0.092 0.65603,1.12447 0.74585,1.71508 0.0909,0.5977 -0.2545,1.32122 -1.0075,2.11051 -0.32862,0.34446 -0.73933,0.49223 -0.55954,0.20132 0.0516,-0.0834 -0.0976,-0.13472 -0.33955,-0.11671 -0.24278,0.0181 -0.43215,-0.0473 -0.43293,-0.14945 -0.003,-0.35616 -0.17574,-0.34372 -0.62995,0.0453 -0.26513,0.22707 -0.34514,0.35838 -0.18844,0.30923 0.19976,-0.0626 0.27233,0.001 0.27233,0.24001 0,0.2716 0.0386,0.29337 0.23342,0.13167 0.17081,-0.14176 0.23343,-0.14504 0.23343,-0.0122 0,0.0998 0.12255,0.16092 0.27233,0.13577 0.20749,-0.0348 0.26212,0.0469 0.22944,0.34332 -0.0236,0.21397 -0.046,0.50483 -0.0497,0.64637 -0.008,0.31851 -1.06927,1.31848 -1.65365,1.55876 -0.6093,0.25053 -1.13267,0.32081 -1.13267,0.15212 0,-0.0788 -0.31512,-0.19053 -0.70028,-0.24829 -0.38515,-0.0578 -0.70028,-0.16128 -0.70028,-0.23005 0,-0.13042 -1.37985,-0.48709 -3.11234,-0.80448 -0.55633,-0.10192 -1.13318,-0.2473 -1.28188,-0.32306 -0.1487,-0.0758 -1.12283,-0.1736 -2.16474,-0.21741 -1.04191,-0.0438 -1.94498,-0.11093 -2.00683,-0.14915 -0.0618,-0.0382 -0.36988,-0.11041 -0.68452,-0.16042 -0.31464,-0.05 -0.90054,-0.25399 -1.302,-0.45329 -1.15169,-0.57176 -2.07323,-0.82386 -2.83077,-0.77439 -1.57097,0.10258 -2.55055,0.23745 -2.71481,0.37377 -0.0956,0.0793 -0.35803,0.17763 -0.58324,0.21847 -0.54472,0.0988 -0.86772,0.27553 -2.63988,1.44464 -0.82656,0.54529 -1.73693,1.03586 -2.02302,1.09014 -0.2861,0.0543 -0.59308,0.1553 -0.68217,0.22447 -0.0891,0.0692 -0.40421,0.168 -0.70027,0.21962 -2.12558,0.37061 -3.36903,1.28716 -5.63286,4.15198 -0.44667,0.56524 -1.93864,1.01779 -3.76602,1.1423 -0.76502,0.0521 -1.50031,0.15076 -1.63398,0.21917 -0.13366,0.0684 -0.34031,0.0897 -0.45921,0.0474 -0.13091,-0.0466 -0.17381,-0.008 -0.10876,0.0968 0.0591,0.0956 0.13075,0.54236 0.15926,0.9928 0.0726,1.14764 0.11178,1.2502 0.59363,1.55511 0.31233,0.19764 0.42795,0.39755 0.42795,0.73994 0,0.41916 0.0505,0.46914 0.47428,0.46914 0.30871,0 0.6029,-0.13878 0.84271,-0.39754 0.35086,-0.37859 0.37307,-0.38293 0.46571,-0.091 0.15418,0.48579 -0.0713,1.13628 -0.6368,1.83732 -0.36241,0.44926 -0.4634,0.67589 -0.32875,0.73774 0.1069,0.0491 0.048,0.0538 -0.13085,0.0103 -0.23112,-0.0561 -0.3744,0.0231 -0.49522,0.27376 -0.15053,0.31229 -0.17123,0.31853 -0.18055,0.0545 -0.006,-0.16405 -0.0539,-0.25492 -0.10687,-0.20193 -0.053,0.053 -0.2008,-0.008 -0.32849,-0.13583 -0.2058,-0.20579 -0.25614,-0.20053 -0.44338,0.0463 -0.49535,0.65308 0.0658,1.44772 0.6264,0.88709 0.12077,-0.12077 0.29744,-0.21957 0.39261,-0.21957 0.29896,0 1.12221,-0.68473 1.26293,-1.05042 0.21023,-0.54633 0.49721,-0.43577 0.37018,0.1426 -0.12356,0.56255 -0.20086,0.67481 -1.16144,1.68673 -0.84911,0.89448 -1.41066,1.19655 -2.38672,1.28384 -0.67876,0.0607 -0.77354,0.0258 -1.11456,-0.4099 -0.42706,-0.54568 -0.62662,-0.48785 -0.39736,0.11516 0.10031,0.26383 0.10186,0.41063 0.004,0.41063 -0.0835,0 -0.15177,0.10208 -0.15177,0.22685 0,0.23761 0.61477,0.23565 1.38802,-0.004 0.36307,-0.11273 0.36783,-0.10452 0.13354,0.22998 -0.37537,0.53591 -1.28144,0.94816 -2.08397,0.94816 -0.76328,0 -0.77614,-0.01 -2.33716,-1.7734 -0.46813,-0.52888 -0.48789,-0.60711 -0.49727,-1.96805 -0.008,-1.13954 -0.0726,-1.52374 -0.33035,-1.96061 -0.30144,-0.51091 -0.34677,-0.86843 -0.32362,-2.55266 0.007,-0.52495 -0.0197,-0.5535 -0.55651,-0.58965 -0.31088,-0.0209 -0.73064,0.0711 -0.93512,0.20511 -0.33308,0.21825 -0.37102,0.35568 -0.37102,1.34422 0,0.60562 -0.0965,1.32179 -0.21447,1.59149 -0.27574,0.63047 -0.60384,1.59581 -1.03935,3.05805 -0.1912,0.64193 -0.3909,1.20215 -0.4438,1.24494 -0.0529,0.0428 -0.36947,0.48047 -0.70351,0.97261 -0.33403,0.49214 -0.66099,0.8948 -0.72659,0.8948 -0.0656,0 -0.16327,0.13863 -0.21704,0.30807 -0.0538,0.16944 -0.14604,0.29556 -0.20501,0.28027 -0.17343,-0.045 -1.75031,1.62373 -2.01642,2.13382 -0.43001,0.82429 -0.17041,2.96302 0.3743,3.08372 0.0739,0.0164 0.11683,0.0823 0.0954,0.14648 -0.0214,0.0642 0.0353,0.11671 0.1259,0.11671 0.0906,0 0.12161,0.0699 0.0688,0.15528 -0.13444,0.21752 2.34999,2.645834 2.70697,2.645834 0.18405,0 0.69224,0.78311 0.75302,1.16037 0.027,0.16747 0.10123,0.34254 0.165,0.38905 0.0638,0.0465 0.20145,0.2791 0.30596,0.51688 0.1045,0.23777 0.29565,0.47285 0.42478,0.5224 0.12912,0.0495 0.23477,0.18764 0.23477,0.30687 0,0.20081 0.19889,0.288 0.52324,0.22937 0.0738,-0.0133 0.22043,0.0937 0.32581,0.23779 0.13243,0.18111 0.32635,0.2363 0.6278,0.17867 0.97497,-0.18638 2.9021,0.89385 3.43578,1.92588 l 0.23929,0.46273 -0.50275,-0.25999 c -0.42171,-0.21807 -0.52966,-0.22567 -0.66965,-0.0472 -0.1117,0.14242 -0.51363,0.21281 -1.21517,0.21281 -0.92744,0 -1.03835,0.0314 -0.96212,0.27233 0.0914,0.28882 -0.16124,0.37985 -0.32387,0.11671 -0.12358,-0.19997 -1.3685,-0.20323 -1.56763,-0.004 -0.24557,0.24558 -1.66553,0.22621 -2.24981,-0.0307 -0.29691,-0.13054 -0.81995,-0.31594 -1.16231,-0.41199 -0.88859,-0.24932 -1.05229,-0.39241 -1.07192,-0.93699 -0.01,-0.27311 -0.10192,-0.48308 -0.21192,-0.48329 -0.10699,-1.5e-4 -0.19452,-0.18114 -0.19452,-0.40211 0,-0.44624 -0.81794,-1.54355 -1.78719,-2.39763 -0.34104,-0.30051 -0.92203,-0.844 -1.29109,-1.20775 -0.36907,-0.36376 -0.71021,-0.66138 -0.7581,-0.66138 -0.0479,0 -0.22478,-0.17507 -0.39309,-0.38904 -0.16831,-0.213974 -0.40437,-0.389044 -0.52457,-0.389044 -0.35449,0 -0.65337,-0.62088 -0.9145,-1.89975 -0.36557,-1.79036 -0.33296,-2.02174 0.44089,-3.12889 0.97574,-1.39597 1.2012,-2.02005 1.29789,-3.59256 0.0712,-1.15774 0.0495,-1.36465 -0.13228,-1.26101 -0.16608,0.0947 -0.17575,0.0787 -0.041,-0.0675 0.1157,-0.12557 0.14991,-0.62916 0.0993,-1.46229 -0.095,-1.56447 0.22127,-2.58147 1.26885,-4.08005 0.39149,-0.56003 0.7118,-1.07528 0.7118,-1.145 0,-0.17693 -0.80207,-0.0713 -0.92111,0.1213 -0.19336,0.31287 -1.18818,1.48985 -1.56615,1.85294 -0.3257,0.31289 -0.49687,0.3586 -1.08932,0.29092 -1.36303,-0.15571 -2.89199,-0.40971 -3.81523,-0.63381 -0.87005,-0.21118 -1.63812,-0.29817 -2.30024,-0.26051 -0.15247,0.009 -0.31991,0.12704 -0.3721,0.26303 -0.0522,0.13599 -0.31737,0.46862 -0.589289,0.73918 -0.271924,0.27056 -0.68204,0.74341 -0.91137,1.05078 -0.22933,0.30737 -0.679738,0.69252 -1.000904,0.85589 -0.321167,0.16338 -0.618953,0.3387 -0.661748,0.38961 -0.04279,0.0509 -0.603017,0.48874 -1.244938,0.97294 -0.641921,0.4842 -1.249813,0.94848 -1.350871,1.03172 -0.34198,0.2817 -1.834873,1.0316 -2.617368,1.31474 -0.427947,0.15486 -1.128225,0.43994 -1.556172,0.63353 -0.427948,0.19359 -1.110718,0.49959 -1.517268,0.68 -0.40655,0.18041 -0.739182,0.39895 -0.739182,0.48566 0,0.0867 -0.102578,0.15764 -0.227951,0.15764 -0.125373,0 -0.306115,0.14605 -0.401651,0.32456 -0.09553,0.17851 -0.211377,0.28688 -0.257427,0.24084 -0.195788,-0.19579 -0.874854,0.83588 -1.146094,1.7412 -0.10713,0.35757 -0.265398,0.65012 -0.351703,0.65012 -0.08631,0 -0.110845,0.0461 -0.05453,0.1024 0.05632,0.0563 0.04138,0.17886 -0.0332,0.27233 -0.184417,0.23112 -0.911952,3.23569 -1.039712,4.293794 -0.05684,0.47074 -0.139183,0.99595 -0.182983,1.16713 -0.175732,0.68678 -0.219028,1.63398 -0.07469,1.63398 0.08351,0 0.192162,0.20164 0.241452,0.44809 0.117068,0.58534 0.497525,0.95247 0.987055,0.95247 0.21619,0 0.928971,0.27977 1.583961,0.62171 0.926883,0.48388 1.269544,0.75987 1.545677,1.24493 0.390592,0.68613 0.396543,0.68123 -0.559862,0.46065 -0.457169,-0.10543 -0.867509,-0.1023 -1.283842,0.01 -0.645815,0.1739 -0.727666,0.28601 -0.427767,0.58591 0.101282,0.10128 0.132488,0.2358 0.06935,0.29894 -0.06314,0.0631 -0.163514,0.0377 -0.223051,-0.0565 -0.05954,-0.0942 -0.545504,-0.22156 -1.079923,-0.28299 -0.814343,-0.0936 -0.987114,-0.0714 -1.067064,0.1369 -0.108943,0.2839 -0.782484,0.3003 -1.58088,0.0385 z M 116.80588,88.373116 c 0,-0.0336 0.10868,-0.10286 0.24151,-0.15383 0.13849,-0.0531 0.20095,-0.0271 0.14643,0.0612 -0.0914,0.14787 -0.38794,0.21871 -0.38794,0.0927 z m 12.10697,-3.99728 c -0.13553,-0.35319 0.0849,-1.39576 0.2678,-1.26674 0.1076,0.0759 0.10407,0.33482 -0.0109,0.80289 -0.0978,0.39796 -0.20668,0.59463 -0.25686,0.46385 z m -95.362184,-4.88955 c 0,-0.12838 0.06783,-0.23342 0.150733,-0.23342 0.0829,0 0.110425,0.10504 0.06116,0.23342 -0.04927,0.12839 -0.117096,0.23343 -0.150734,0.23343 -0.03364,0 -0.06116,-0.10504 -0.06116,-0.23343 z M 130.77253,63.588079 c 0.10698,-0.04317 0.28205,-0.04317 0.38904,0 0.10699,0.04317 0.0194,0.07849 -0.19452,0.07849 -0.21398,0 -0.30151,-0.03532 -0.19452,-0.07849 z"
       id="path874"
       inkscape:connector-curvature="0" />
  </g>
</svg>
