<?xml version="1.0" encoding="UTF-8" standalone="no"?>
<!-- Created with Inkscape (http://www.inkscape.org/) -->

<svg
   xmlns:dc="http://purl.org/dc/elements/1.1/"
   xmlns:cc="http://creativecommons.org/ns#"
   xmlns:rdf="http://www.w3.org/1999/02/22-rdf-syntax-ns#"
   xmlns:svg="http://www.w3.org/2000/svg"
   xmlns="http://www.w3.org/2000/svg"
   xmlns:sodipodi="http://sodipodi.sourceforge.net/DTD/sodipodi-0.dtd"
   xmlns:inkscape="http://www.inkscape.org/namespaces/inkscape"
   width="122.19109mm"
   height="32.77021mm"
   viewBox="0 0 122.19107 32.77021"
   version="1.1"
   id="svg8"
   inkscape:version="0.92.4 (5da689c313, 2019-01-14)"
   sodipodi:docname="nodosaurus.svg">
  <defs
     id="defs2" />
  <sodipodi:namedview
     id="base"
     pagecolor="#ffffff"
     bordercolor="#666666"
     borderopacity="1.0"
     inkscape:pageopacity="0.0"
     inkscape:pageshadow="2"
     inkscape:zoom="0.49497475"
     inkscape:cx="225.41666"
     inkscape:cy="314.4768"
     inkscape:document-units="mm"
     inkscape:current-layer="layer1"
     showgrid="false"
     inkscape:window-width="1366"
     inkscape:window-height="745"
     inkscape:window-x="-8"
     inkscape:window-y="-8"
     inkscape:window-maximized="1" />
  <metadata
     id="metadata5">
    <rdf:RDF>
      <cc:Work
         rdf:about="">
        <dc:format>image/svg+xml</dc:format>
        <dc:type
           rdf:resource="http://purl.org/dc/dcmitype/StillImage" />
        <dc:title></dc:title>
      </cc:Work>
    </rdf:RDF>
  </metadata>
  <g
     inkscape:label="Camada 1"
     inkscape:groupmode="layer"
     id="layer1"
     transform="translate(-40.1871,-62.586344)">
    <path
       style="fill:#d5d5d5;fill-opacity:1;stroke-width:1"
       d="m 86.751766,95.232031 c -0.06017,-0.07251 -0.08453,-0.156709 -0.05412,-0.187118 0.03041,-0.03041 -0.06944,-0.08009 -0.221876,-0.110393 -0.859166,-0.170817 -0.999632,-0.172488 -1.303201,-0.01551 -0.378096,0.195522 -0.826807,0.163864 -0.869477,-0.06134 -0.09191,-0.485109 0.96097,-1.168174 2.091978,-1.357184 1.233206,-0.20609 1.706138,-0.383043 2.114116,-0.791022 0.209208,-0.209207 0.526394,-0.454254 0.704859,-0.544547 0.82781,-0.418829 0.962996,-0.591696 0.962996,-1.231418 0,-0.351207 0.06433,-0.713674 0.159226,-0.897186 0.374033,-0.723299 -0.383174,-2.764958 -1.446194,-3.89938 -0.274857,-0.29332 -0.564499,-0.632142 -0.643646,-0.752937 l -0.143907,-0.219628 -5.028627,-0.04497 c -5.298352,-0.04739 -6.036361,-0.09962 -8.034299,-0.568683 -0.965045,-0.226566 -1.069604,-0.209626 -0.881024,0.142738 0.09537,0.17821 0.09828,0.282671 0.01233,0.443276 -0.06413,0.119826 -0.08529,0.354941 -0.04923,0.547117 0.04145,0.220933 0.01068,0.44232 -0.08935,0.642819 -0.120058,0.240663 -0.129034,0.357471 -0.04213,0.548209 0.09055,0.198727 0.07382,0.310984 -0.09286,0.623255 -0.153229,0.287068 -0.175536,0.409051 -0.09057,0.495294 0.08499,0.08628 0.07159,0.144823 -0.05448,0.237992 -0.105505,0.07797 -0.147177,0.200138 -0.112934,0.331082 0.02985,0.114134 -0.01522,0.306719 -0.100142,0.427966 -0.113678,0.162298 -0.126169,0.254477 -0.04735,0.349443 0.07856,0.09466 0.06825,0.188217 -0.03871,0.351463 -0.237737,0.362832 -0.368638,1.19203 -0.368638,2.335144 0,1.273798 -0.02976,1.31122 -1.12968,1.420641 -0.406633,0.04045 -0.817368,0.147814 -1.005112,0.262725 -0.174615,0.106876 -0.563109,0.21967 -0.863319,0.250654 -0.442837,0.04571 -0.54049,0.08793 -0.517499,0.223777 0.04246,0.250846 -0.213385,0.664273 -0.450439,0.72789 -0.496971,0.133371 -1.060553,0.06513 -1.11282,-0.134736 -0.04581,-0.175168 -0.07514,-0.180993 -0.310061,-0.06157 -0.378992,0.192663 -1.565767,0.470852 -2.076778,0.486812 -0.387342,0.0121 -0.445898,-0.01327 -0.473152,-0.205027 -0.02933,-0.206321 -0.06443,-0.215351 -0.613956,-0.157914 -0.626868,0.06552 -0.679007,0.02005 -0.41588,-0.3627 0.203179,-0.295551 0.438464,-0.476132 0.956403,-0.734047 0.578772,-0.288207 0.785143,-0.711292 0.760892,-1.559926 -0.01087,-0.380341 -0.06172,-0.733492 -0.113013,-0.784782 -0.05129,-0.05129 -0.06786,-0.278518 -0.03682,-0.504954 0.03226,-0.235373 0.0081,-0.502082 -0.05651,-0.622723 -0.128708,-0.240493 -0.232769,-0.88661 -0.222754,-1.38308 0.0038,-0.189162 -0.07951,-0.457945 -0.190122,-0.613286 -0.108301,-0.152096 -0.167588,-0.323986 -0.131748,-0.381978 0.03584,-0.05799 -0.01661,-0.165234 -0.116553,-0.238316 -0.161386,-0.118008 -0.167753,-0.169487 -0.05691,-0.460071 0.114047,-0.298969 0.106083,-0.342565 -0.09232,-0.505368 -0.194366,-0.159491 -0.206477,-0.218111 -0.115488,-0.558997 0.08114,-0.303985 0.07264,-0.409826 -0.04209,-0.524564 -0.126165,-0.126164 -0.116245,-0.192661 0.08113,-0.543843 0.190003,-0.338064 0.20643,-0.434729 0.105942,-0.623408 -0.239554,-0.449794 -0.385584,-0.684381 -0.492706,-0.791503 -0.06028,-0.06029 -0.10961,-0.187624 -0.10961,-0.282974 0,-0.09535 -0.08841,-0.220678 -0.196466,-0.278508 -0.108056,-0.05783 -0.196466,-0.153278 -0.196466,-0.212107 0,-0.168542 -0.708941,-1.541287 -1.158792,-2.243805 -0.224846,-0.351136 -0.409739,-0.695153 -0.410873,-0.764484 -0.0042,-0.256255 -0.48894,-1.076451 -0.729261,-1.233916 -0.354571,-0.232323 -0.553528,-0.209142 -1.953462,0.227611 -0.687983,0.214637 -1.544436,0.44137 -1.903228,0.503851 -1.397694,0.243397 -4.087575,-0.06874 -6.901831,-0.8009 -1.459889,-0.379807 -1.983682,-0.438507 -3.838629,-0.43019 -1.571783,0.0071 -3.352555,0.324748 -3.876222,0.691538 -0.300483,0.210467 -0.689161,0.171103 -1.581999,-0.160217 -0.111516,-0.04138 -0.272511,-0.0362 -0.357767,0.01151 -0.187761,0.105076 -0.34597,-0.11135 -0.705055,-0.964497 -0.299688,-0.712027 -0.317605,-1.053919 -0.09924,-1.893636 0.263528,-1.013388 1.833357,-2.882919 3.519039,-4.190873 0.158527,-0.123005 0.300633,-0.350453 0.337556,-0.540282 0.131822,-0.67771 1.883218,-1.229042 2.709012,-0.852785 0.200397,0.09131 0.321676,0.08152 0.618578,-0.04991 0.254901,-0.112838 0.456761,-0.139252 0.651597,-0.08527 0.155257,0.04302 0.619408,0.04614 1.031446,0.0069 0.412039,-0.03921 0.933698,-0.08797 1.159243,-0.108364 0.525143,-0.04748 0.706725,-0.203917 0.781819,-0.673534 0.09982,-0.624213 0.255288,-0.76274 0.624497,-0.55643 0.28752,0.160662 0.306955,0.160662 0.36829,0 0.03561,-0.09329 0.144341,-0.255307 0.241618,-0.360044 0.09728,-0.104737 0.176868,-0.226301 0.176868,-0.270141 0,-0.04384 0.05726,-0.07971 0.127236,-0.07971 0.112419,0 0.258368,0.260533 0.935498,1.669961 0.138301,0.287871 0.223643,0.348689 0.524478,0.373763 0.352134,0.02935 0.363094,0.01955 0.549609,-0.491165 0.10467,-0.286612 0.248249,-0.742137 0.319064,-1.012278 0.14538,-0.554583 0.362771,-1.032046 0.469069,-1.03023 0.03913,6.88e-4 0.177989,0.166018 0.308567,0.367441 l 0.237415,0.366227 0.172462,-0.490234 c 0.09485,-0.269628 0.175888,-0.589694 0.180076,-0.711257 0.0042,-0.121563 0.06975,-0.221024 0.145705,-0.221024 0.152004,0 0.746005,0.837859 0.746005,1.052266 0,0.07397 0.08308,0.254258 0.18461,0.400648 0.101536,0.14639 0.343802,0.559139 0.538369,0.91722 0.345924,0.636636 0.360868,0.649603 0.674653,0.585428 0.398497,-0.0815 0.4413,-0.245009 0.457173,-1.74641 0.0064,-0.604628 0.04521,-1.120085 0.08627,-1.145459 0.127879,-0.07903 0.710874,0.214046 0.779016,0.391623 0.106733,0.278138 0.211988,-0.112789 0.219994,-0.81707 0.0059,-0.522618 0.03498,-0.616248 0.20818,-0.671219 0.557582,-0.17697 1.353401,0.893611 1.825969,2.456397 0.112725,0.37278 0.325064,0.414118 0.637904,0.124189 0.512645,-0.475104 0.621058,-2.25126 0.208386,-3.41404 -0.284328,-0.801149 -0.283679,-0.795371 -0.102866,-0.914509 0.226311,-0.149119 0.524215,0.137082 1.013451,0.973637 0.47953,0.81996 0.530465,0.736808 0.618243,-1.0093 0.05537,-1.101499 0.09656,-1.355989 0.233397,-1.44203 0.393081,-0.247171 1.138043,1.019503 1.216387,2.068248 0.02744,0.367273 0.0691,0.888793 0.09259,1.158934 0.02349,0.270141 0.04378,0.548928 0.04509,0.619526 0.0018,0.09852 0.05313,0.09282 0.220708,-0.02456 0.120077,-0.0841 0.345021,-0.152919 0.499872,-0.152919 0.19304,0 0.439286,-0.137983 0.783306,-0.438924 0.540905,-0.473171 1.043428,-0.62227 1.689069,-0.501147 0.300713,0.05642 0.411802,0.01252 0.898754,-0.355133 0.588623,-0.444414 0.535705,-0.433893 1.88558,-0.374931 0.457512,0.01998 0.58662,-0.02077 1.031447,-0.325564 0.670184,-0.459212 0.911726,-0.506591 1.636288,-0.320967 0.749742,0.192075 1.072708,0.196936 1.141685,0.01718 0.126445,-0.32951 1.604036,-0.558734 2.073573,-0.321681 0.484011,0.244361 1.092662,0.267087 1.617083,0.06038 0.731387,-0.288286 1.429745,-0.338232 2.08121,-0.148845 0.429699,0.124917 0.7792,0.148911 1.514108,0.10395 0.525501,-0.03215 1.397505,-0.0097 1.937786,0.04997 0.540282,0.05964 1.711711,0.128826 2.603175,0.153754 0.891464,0.02493 1.750502,0.08983 1.908974,0.144235 0.158471,0.0544 0.844088,0.163879 1.523594,0.243285 1.2191,0.142463 2.710607,0.41962 3.357409,0.623885 0.182553,0.05765 0.729759,0.175689 1.216012,0.262306 2.160819,0.384911 3.732969,0.913488 5.992212,2.014661 2.74545,1.338158 3.15217,1.483534 3.83681,1.371421 0.89691,-0.146874 1.02551,-0.131309 1.02706,0.124307 0.004,0.617683 0.0304,0.636088 1.68679,1.166081 1.42682,0.45653 1.60317,0.491998 1.97753,0.39772 0.22606,-0.05693 0.69835,-0.126602 1.04953,-0.154827 0.35118,-0.02822 0.87179,-0.113025 1.1569,-0.188445 0.62036,-0.164102 0.68973,-0.09415 0.40214,0.405551 -0.35114,0.610119 -0.29194,0.646237 1.45181,0.885708 2.84058,0.390098 3.23604,0.37343 4.72386,-0.199097 0.64691,-0.248938 0.81657,-0.195749 0.75354,0.236234 -0.0849,0.581929 -0.0113,0.603143 2.51384,0.724686 1.46787,0.07065 1.81816,0.0055 3.06002,-0.56874 0.83315,-0.385276 1.00361,-0.335644 0.9134,0.265947 l -0.0664,0.442775 h 1.88068 c 2.0199,0 2.23252,-0.03769 3.57563,-0.633837 0.60584,-0.268904 0.80038,-0.254318 0.70293,0.05271 -0.0328,0.103509 -0.0296,0.282956 0.007,0.39877 0.0653,0.205784 0.0959,0.209035 1.34598,0.143042 0.80469,-0.04248 1.38171,-0.120568 1.55566,-0.210526 0.24503,-0.126707 1.00715,-0.363335 1.63579,-0.50789 0.4352,-0.100073 0.89599,0.05344 0.83704,0.278861 -0.0513,0.196038 -0.0264,0.201408 0.67296,0.145337 0.39939,-0.03202 1.0967,-0.08282 1.54956,-0.112877 0.45287,-0.03006 1.00543,-0.12342 1.22792,-0.207465 0.56474,-0.213335 0.9887,-0.266209 1.20525,-0.150311 0.23729,0.126989 1.83798,-0.02834 2.24449,-0.217801 1.02172,-0.476192 1.53863,-0.556354 1.83838,-0.285089 0.16615,0.150371 0.26634,0.15455 1.03918,0.04334 0.47041,-0.06769 0.96581,-0.181108 1.10088,-0.252039 1.58251,-0.831037 1.7822,-0.888035 1.95832,-0.55895 0.0967,0.180673 0.1158,0.180675 0.89125,9.8e-5 0.43584,-0.101485 0.97596,-0.278142 1.20025,-0.39257 0.32612,-0.166373 0.61565,-0.212943 1.44524,-0.232467 0.69097,-0.01626 1.16446,-0.07804 1.4178,-0.184992 0.25087,-0.105903 0.66279,-0.160577 1.20982,-0.160577 0.45619,0 0.92092,-0.04896 1.03274,-0.108806 0.11182,-0.05984 0.53991,-0.115342 0.95132,-0.12333 0.4114,-0.008 0.79221,-0.04294 0.84624,-0.07766 0.054,-0.03473 0.40766,-0.09559 0.78586,-0.135244 0.3782,-0.03966 0.79009,-0.110509 0.91531,-0.157444 0.37004,-0.138702 1.00023,0.0032 1.00023,0.225193 0,0.102847 -0.0663,0.212439 -0.14734,0.243537 -0.0811,0.0311 -0.14735,0.113393 -0.14735,0.182874 0,0.140932 -0.21314,0.245582 -0.50017,0.245582 -0.10416,0 -0.26509,0.08841 -0.3576,0.196466 -0.0936,0.109283 -0.28979,0.196466 -0.44216,0.196466 -0.15067,0 -0.46133,0.08455 -0.69036,0.187882 -0.22903,0.103334 -0.59324,0.24301 -0.80935,0.310391 -0.38095,0.118773 -0.91158,0.388823 -1.62085,0.824892 -0.43173,0.265433 -1.11102,0.576601 -1.61687,0.740646 -0.21393,0.06938 -0.83279,0.322418 -1.37526,0.562316 -0.54247,0.239898 -1.29574,0.560622 -1.67394,0.712719 -1.00258,0.403205 -2.54618,1.021475 -4.22402,1.691883 -4.26598,1.704542 -8.06224,2.736113 -13.65438,3.71035 -1.24265,0.216488 -2.56879,0.455838 -2.94699,0.531889 -0.3782,0.07605 -1.20181,0.186876 -1.83026,0.246277 -0.62844,0.0594 -1.49044,0.196189 -1.91554,0.303972 -3.42593,0.868625 -13.69915,0.96111 -20.17394,0.181618 -2.33993,-0.281702 -3.61085,-0.236939 -4.00542,0.141077 -0.15315,0.146732 -0.36492,0.266787 -0.4706,0.266787 -0.10568,0 -0.479,0.191546 -0.82961,0.425658 -0.3506,0.234112 -0.85513,0.479812 -1.12117,0.546002 -0.61884,0.153964 -1.67103,0.872272 -1.52878,1.04367 0.26286,0.31672 1.3316,0.679518 2.11072,0.716507 0.43223,0.02052 0.82786,0.07733 0.87919,0.126232 0.0513,0.04891 0.19238,0.08892 0.31346,0.08892 0.12107,0 0.24876,0.04632 0.28375,0.102934 0.035,0.05661 0.15916,0.08977 0.27594,0.07367 0.15475,-0.02133 0.22058,0.02874 0.24278,0.184632 0.0168,0.11764 0.0932,0.265947 0.16984,0.329572 0.10264,0.08518 0.11312,0.164763 0.0398,0.301834 -0.0856,0.159958 -0.0646,0.18615 0.14942,0.18615 0.30299,0 0.34455,0.288116 0.0526,0.364469 -0.22732,0.05945 -0.24549,0.135933 -0.0737,0.310129 0.0984,0.09977 0.0863,0.151445 -0.061,0.260208 -0.12891,0.09517 -0.16612,0.206222 -0.12458,0.371735 0.0326,0.129811 0.0318,0.263467 -0.002,0.297013 -0.11805,0.118055 -0.0866,0.852423 0.0366,0.852346 0.13814,-8.6e-5 0.32271,0.30758 0.32271,0.537944 0,0.151778 0.45925,0.807204 1.06451,1.519242 0.28459,0.3348 0.29006,0.336486 0.54646,0.168484 0.33696,-0.220784 0.45927,0.0052 0.20929,0.386711 -0.1978,0.301879 -0.20168,0.296809 0.40345,0.52613 0.51966,0.196929 0.60948,0.345497 0.39013,0.645285 -0.12034,0.164464 -0.24996,0.192766 -0.83782,0.182932 -0.3825,-0.0064 -0.69546,0.02134 -0.69546,0.06165 0,0.154085 0.32069,0.32779 0.80762,0.437456 0.84235,0.189714 0.63025,0.557697 -0.32864,0.570163 -0.56817,0.0074 -0.5976,0.09163 -0.13638,0.390403 0.35678,0.231115 0.40048,0.326076 0.25545,0.555105 -0.12971,0.204847 -0.92069,0.08326 -1.36314,-0.209538 -0.23198,-0.153518 -0.46628,-0.440037 -0.63225,-0.773169 -0.43702,-0.877178 -0.95801,-1.461044 -1.79523,-2.011892 -1.24334,-0.818047 -1.32615,-0.924678 -1.32615,-1.707637 0,-0.855589 -0.1263,-1.196714 -0.71598,-1.933817 -0.37405,-0.467567 -0.6216,-0.668807 -1.087513,-0.884097 l -0.60321,-0.278723 -2.38547,0.0015 -2.385469,0.0015 -0.290899,0.833441 c -0.498926,1.429445 -0.476247,2.548433 0.06927,3.418047 0.07833,0.124858 0.125183,0.278693 0.104129,0.341856 -0.02105,0.06316 0.05352,0.190203 0.165719,0.282311 0.169621,0.139248 0.184492,0.199532 0.08825,0.357727 -0.08328,0.136877 -0.08582,0.220187 -0.0091,0.296934 0.07674,0.07675 0.07501,0.144831 -0.0062,0.242669 -0.06207,0.07479 -0.09307,0.15579 -0.06887,0.179987 0.110964,0.110964 -0.225712,0.918944 -0.371974,0.892693 -0.112464,-0.02019 -0.148523,0.04557 -0.13468,0.245582 0.01559,0.225274 -0.01796,0.269379 -0.191458,0.251638 -0.137876,-0.0141 -0.22783,0.04528 -0.261051,0.172312 -0.0322,0.123139 -0.104502,0.173174 -0.198252,0.137198 -0.09377,-0.03598 -0.17112,0.01759 -0.212176,0.146945 -0.03554,0.111964 -0.122229,0.20357 -0.192652,0.20357 -0.143766,0 -0.299359,1.038403 -0.195966,1.30784 0.108315,0.282266 -0.20404,0.352092 -3.002675,0.671234 -0.459239,0.05237 -1.068931,0.11459 -1.354872,0.138267 -0.28594,0.02368 -0.648435,0.109523 -0.805544,0.190768 -0.352828,0.182455 -0.533692,0.186708 -0.675461,0.01589 z"
       id="path1043"
       inkscape:connector-curvature="0" />
  </g>
</svg>
