<?xml version="1.0" encoding="UTF-8" standalone="no"?>
<!-- Created with Inkscape (http://www.inkscape.org/) -->

<svg
   xmlns:dc="http://purl.org/dc/elements/1.1/"
   xmlns:cc="http://creativecommons.org/ns#"
   xmlns:rdf="http://www.w3.org/1999/02/22-rdf-syntax-ns#"
   xmlns:svg="http://www.w3.org/2000/svg"
   xmlns="http://www.w3.org/2000/svg"
   xmlns:sodipodi="http://sodipodi.sourceforge.net/DTD/sodipodi-0.dtd"
   xmlns:inkscape="http://www.inkscape.org/namespaces/inkscape"
   width="85.842323mm"
   height="30.828783mm"
   viewBox="0 0 85.842306 30.828783"
   version="1.1"
   id="svg8"
   inkscape:version="0.92.4 (5da689c313, 2019-01-14)"
   sodipodi:docname="pachycephalosaurus.svg">
  <defs
     id="defs2" />
  <sodipodi:namedview
     id="base"
     pagecolor="#ffffff"
     bordercolor="#666666"
     borderopacity="1.0"
     inkscape:pageopacity="0.0"
     inkscape:pageshadow="2"
     inkscape:zoom="0.7"
     inkscape:cx="139.46435"
     inkscape:cy="-72.20642"
     inkscape:document-units="mm"
     inkscape:current-layer="layer1"
     showgrid="false"
     inkscape:window-width="1366"
     inkscape:window-height="745"
     inkscape:window-x="-8"
     inkscape:window-y="-8"
     inkscape:window-maximized="1" />
  <metadata
     id="metadata5">
    <rdf:RDF>
      <cc:Work
         rdf:about="">
        <dc:format>image/svg+xml</dc:format>
        <dc:type
           rdf:resource="http://purl.org/dc/dcmitype/StillImage" />
        <dc:title></dc:title>
      </cc:Work>
    </rdf:RDF>
  </metadata>
  <g
     inkscape:label="Camada 1"
     inkscape:groupmode="layer"
     id="layer1"
     transform="translate(-64.110322,-26.127279)">
    <path
       style="fill:#d5d5d5;fill-opacity:1;stroke-width:1"
       d="m 86.18046,56.882711 c 0,-0.05988 -0.274432,-0.10887 -0.609848,-0.10887 -0.460774,0 -0.609848,-0.04472 -0.609848,-0.182954 0,-0.348444 0.462982,-0.642422 1.617474,-1.027041 1.056491,-0.351972 1.553736,-0.648184 1.553736,-0.925573 0,-0.05712 0.219078,-0.440118 0.486842,-0.851095 0.864234,-1.326477 1.136132,-2.16066 0.968658,-2.971836 -0.258515,-1.252134 -0.865512,-2.704892 -1.59322,-3.813129 -0.75601,-1.15134 -1.391866,-2.351621 -1.746618,-3.297029 C 86.03795,43.146378 86.0257,43.137256 85.376041,43.056087 84.468171,42.942655 82.702495,42.458453 81.89582,42.101704 l -0.670143,-0.296369 0.03059,0.958878 c 0.01682,0.527385 -0.01924,0.95888 -0.08014,0.95888 -0.0609,0 -0.08476,0.06861 -0.05301,0.152462 0.08852,0.233801 -0.385084,1.371983 -0.571518,1.373494 -0.101686,8.54e-4 -0.149624,0.108598 -0.125303,0.281703 0.02166,0.154204 -0.02338,0.356 -0.100092,0.448437 -0.08938,0.10769 -0.109506,0.367982 -0.05604,0.724545 0.0767,0.511452 0.06259,0.556478 -0.174339,0.556478 -0.193661,0 -0.257788,0.07585 -0.257788,0.304924 0,0.188508 -0.06923,0.304924 -0.181317,0.304924 -0.09972,0 -0.255882,0.17838 -0.347016,0.396401 -0.09113,0.218021 -0.256529,0.47173 -0.367546,0.563797 -0.178062,0.147671 -0.202284,0.133298 -0.205557,-0.121969 -0.0033,-0.2553 -0.01834,-0.264236 -0.12803,-0.07592 -0.262011,0.449846 -0.392422,0.228115 -0.312963,-0.532114 l 0.07793,-0.745562 -0.30449,0.19951 c -0.293615,0.192384 -0.304491,0.189693 -0.304491,-0.07533 0,-0.15116 0.19784,-0.595365 0.439646,-0.987122 0.541261,-0.876912 0.608431,-1.335663 0.417576,-2.851944 -0.118428,-0.940868 -0.280604,-1.502906 -0.777854,-2.695742 l -0.628232,-1.507041 -0.823569,0.03906 c -0.452963,0.02148 -0.823446,0.0068 -0.823295,-0.03266 1.22e-4,-0.03944 -0.182565,-0.07859 -0.406038,-0.08699 -0.223471,-0.0084 -0.657523,-0.122957 -0.964561,-0.254568 -0.307038,-0.131613 -0.590731,-0.206813 -0.630429,-0.167115 -0.0397,0.0397 -0.07218,0.0081 -0.07218,-0.07012 0,-0.07826 -0.05598,-0.142298 -0.124393,-0.142298 -0.06842,0 -0.34489,-0.139193 -0.614385,-0.309318 -0.269496,-0.170125 -0.551318,-0.271417 -0.62627,-0.225094 -0.07738,0.04782 -0.102445,0.02948 -0.058,-0.04244 0.04305,-0.06966 -0.08568,-0.194574 -0.286079,-0.277581 -0.200397,-0.08301 -0.364358,-0.19915 -0.364358,-0.258095 0,-0.05894 -0.07198,-0.107172 -0.159956,-0.107172 -0.08798,0 -0.266401,-0.09605 -0.396501,-0.213447 -0.31847,-0.287372 -1.13091,-0.891512 -1.203099,-0.894638 -0.03188,-0.0014 -0.224156,-0.157755 -0.427275,-0.347497 -0.420928,-0.393205 -0.928822,-0.472494 -3.301802,-0.515458 -1.026697,-0.01859 -1.459861,-0.07348 -1.616097,-0.204793 -0.287907,-0.241979 -0.273678,-1.033808 0.03063,-1.704337 0.131293,-0.289305 0.233361,-0.563736 0.226816,-0.609849 -0.04521,-0.318603 0.03763,-0.528912 0.185941,-0.472002 0.293968,0.112806 0.684836,-0.265425 0.684836,-0.662696 0,-0.219704 0.05015,-0.335193 0.125377,-0.288704 0.135913,0.084 0.59577,-0.399613 0.602382,-0.633504 0.0022,-0.07894 0.08786,-0.161264 0.190294,-0.182954 0.102429,-0.02169 0.35518,-0.423639 0.561669,-0.893222 0.206488,-0.469583 0.520609,-1.177539 0.698044,-1.573234 0.769305,-1.715609 2.340503,-2.557859 3.760312,-2.015737 0.188847,0.07211 0.727561,0.154091 1.197144,0.182186 0.761339,0.04555 0.889826,0.09068 1.186611,0.416782 0.203967,0.224115 0.433393,0.354272 0.592589,0.336185 0.154334,-0.01753 0.316276,0.06949 0.398994,0.214425 0.07658,0.134167 0.207837,0.287832 0.291691,0.341477 0.08385,0.05365 0.152462,0.178318 0.152462,0.277047 0,0.09873 0.137216,0.242028 0.304924,0.318441 0.167708,0.07641 0.308837,0.171288 0.313618,0.210833 0.0048,0.03954 0.03313,0.271504 0.06298,0.515468 0.04061,0.331794 0.0042,0.462782 -0.1444,0.519813 -0.153433,0.05888 -0.166956,0.114486 -0.05936,0.244125 0.187815,0.226304 0.03581,1.1709 -0.188428,1.1709 -0.09205,0 -0.167366,0.05489 -0.167366,0.121969 0,0.06708 0.103901,0.12197 0.23089,0.12197 0.12699,0 0.262127,0.0814 0.300308,0.180898 0.04173,0.108759 0.149126,0.15031 0.269297,0.104196 0.109935,-0.04219 0.243337,-0.0064 0.29645,0.07955 0.06682,0.108111 0.203939,0.126212 0.445077,0.05875 0.191679,-0.05363 0.397189,-0.08599 0.456688,-0.07193 0.0595,0.01407 0.233819,-0.09245 0.387373,-0.23671 0.153555,-0.144257 0.333492,-0.228725 0.399862,-0.187707 0.06637,0.04102 0.284179,-0.063 0.484022,-0.23116 0.199843,-0.168157 0.475682,-0.30574 0.612978,-0.30574 0.137293,0 0.283547,-0.05489 0.325007,-0.12197 0.04146,-0.06708 0.206119,-0.121969 0.365909,-0.121969 0.15979,0 0.324449,-0.05489 0.365909,-0.12197 0.04146,-0.06708 0.202638,-0.121969 0.358172,-0.121969 0.155536,0 0.351119,-0.08233 0.43463,-0.182955 0.08351,-0.100625 0.329818,-0.182954 0.54735,-0.182954 0.21753,0 0.539869,-0.113554 0.716309,-0.252341 0.190126,-0.149554 0.41259,-0.223207 0.546147,-0.180817 0.132706,0.04212 0.354129,-0.02978 0.538602,-0.174884 0.178799,-0.140643 0.398382,-0.213738 0.511586,-0.170298 0.10998,0.0422 0.298589,-0.01462 0.423386,-0.127564 0.154358,-0.139692 0.326887,-0.178111 0.549235,-0.122305 0.223112,0.056 0.395059,0.01722 0.551522,-0.124377 0.188666,-0.170739 0.268792,-0.179854 0.470999,-0.05357 0.201822,0.12604 0.29947,0.115598 0.56871,-0.06081 0.228548,-0.149751 0.369777,-0.175863 0.475698,-0.08796 0.155746,0.129258 0.644474,0.05832 0.884803,-0.128427 0.07535,-0.05855 0.229992,-0.07077 0.343644,-0.02716 0.113654,0.04361 0.343542,0.006 0.510865,-0.08352 0.220158,-0.117825 0.361124,-0.127309 0.510143,-0.03432 0.11722,0.07315 0.310997,0.08684 0.449859,0.03179 0.134167,-0.05319 0.477705,-0.06617 0.763413,-0.02886 0.32748,0.04277 0.58669,0.01206 0.70133,-0.08307 0.12173,-0.101028 0.23225,-0.111358 0.33431,-0.03125 0.0838,0.06582 0.59155,0.112279 1.12822,0.103246 0.53666,-0.009 1.03064,0.01927 1.09772,0.06289 0.14373,0.09347 0.824,0.236836 1.34167,0.282757 0.20125,0.01785 0.53057,0.100096 0.73182,0.182763 0.20125,0.08267 0.64034,0.181245 0.97575,0.219061 0.33542,0.03782 0.67776,0.122242 0.76076,0.18761 0.083,0.06537 0.23681,0.08589 0.34181,0.0456 0.10499,-0.04029 0.32484,0.01451 0.48854,0.12177 0.16679,0.109284 0.41869,0.165455 0.57297,0.127767 0.15142,-0.03699 0.37813,0.0091 0.50379,0.102468 0.1411,0.104817 0.36739,0.141944 0.5917,0.09708 0.234601,-0.04692 0.397941,-0.01649 0.461231,0.08593 0.0539,0.08722 0.26431,0.153849 0.46756,0.14807 0.20325,-0.0058 0.43475,0.06805 0.51443,0.164062 0.0797,0.09601 0.29825,0.174571 0.48569,0.174571 0.18745,0 0.36139,0.06175 0.38655,0.137215 0.0252,0.07547 0.19539,0.137216 0.3783,0.137216 0.18291,0 0.36224,0.04803 0.39852,0.106724 0.0363,0.0587 0.16792,0.106723 0.29253,0.106723 0.12462,0 0.24531,0.05618 0.26819,0.124846 0.0229,0.06866 0.26073,0.159481 0.52854,0.201814 0.26781,0.04233 0.52136,0.129454 0.56346,0.1936 0.0421,0.06415 0.2342,0.125279 0.42689,0.135849 0.1927,0.01057 0.41441,0.0598 0.4927,0.109394 0.0783,0.0496 0.40761,0.124778 0.73182,0.167066 0.32421,0.04229 0.65545,0.128726 0.73608,0.192085 0.0806,0.06336 0.2544,0.08098 0.38614,0.03917 0.13174,-0.04181 0.27483,-0.0189 0.31797,0.05091 0.0431,0.06981 0.20145,0.126932 0.35178,0.126932 0.15033,0 0.32548,0.0491 0.3892,0.109119 0.0637,0.06001 0.36286,0.164233 0.66474,0.231595 0.75198,0.167803 2.32026,0.634183 2.64472,0.786495 0.14647,0.06876 0.36601,0.134453 0.48787,0.14599 0.12187,0.01154 0.35879,0.08283 0.5265,0.158435 0.16771,0.0756 0.63424,0.229249 1.03674,0.341436 0.4025,0.112188 0.81415,0.234963 0.91477,0.272833 0.52856,0.198922 1.28684,0.360068 1.43208,0.304336 0.0909,-0.03488 0.23122,0.01577 0.31185,0.112544 0.23316,0.27984 2.77255,0.811805 3.48073,0.729162 0.15669,-0.01829 0.36281,0.03142 0.45805,0.110462 0.10762,0.08932 0.35478,0.114666 0.65301,0.06698 0.27603,-0.04414 0.51195,-0.02481 0.5554,0.0455 0.0416,0.06723 0.31426,0.122234 0.60603,0.122234 0.44867,0 0.64037,-0.0879 1.24299,-0.569972 0.58308,-0.466441 0.64604,-0.496247 0.3466,-0.164091 -0.37548,0.416495 -0.33148,0.40859 0.45738,-0.08218 0.50427,-0.313713 0.64325,-0.164952 0.14866,0.159117 -0.56451,0.36988 -0.23131,0.29699 0.68486,-0.14982 0.83279,-0.406149 1.94129,-0.812925 1.94129,-0.712379 0,0.02332 -0.5763,0.351536 -1.28068,0.729358 -0.70437,0.377822 -1.28068,0.713366 -1.28068,0.745654 0,0.03229 0.0532,0.02584 0.11817,-0.01433 0.1116,-0.06897 0.27441,-0.09636 1.37283,-0.23089 0.24984,-0.0306 0.75518,-0.193406 1.12298,-0.361787 0.48356,-0.221384 0.76157,-0.281319 1.00406,-0.216466 0.30459,0.08146 0.26491,0.109451 -0.4326,0.305159 -0.42237,0.118511 -0.74682,0.236599 -0.721,0.262418 0.0258,0.02582 0.53806,-0.08818 1.13831,-0.253321 1.58553,-0.436222 1.785,-0.353991 0.38319,0.157961 -0.41456,0.151401 -0.58909,0.23956 -0.38784,0.195911 0.20125,-0.04365 0.73522,-0.09495 1.18661,-0.114004 0.45138,-0.01905 0.86704,-0.06329 0.92368,-0.09829 0.0566,-0.03501 0.4283,-0.116852 0.8259,-0.181874 0.3976,-0.06502 0.83268,-0.158192 0.96684,-0.207045 0.16178,-0.05891 0.20286,-0.04801 0.12197,0.03235 -0.0671,0.06664 -0.60328,0.247468 -1.19156,0.401829 -1.37456,0.360679 -1.30679,0.449331 0.0938,0.122749 0.58932,-0.137412 1.0919,-0.229428 1.11685,-0.204482 0.0781,0.07812 -1.42094,0.433461 -2.9464,0.69843 -1.65805,0.287999 -2.32386,0.496822 -1.28068,0.40167 0.36896,-0.03365 1.54901,-0.248553 2.62235,-0.477555 2.59493,-0.553644 3.69305,-0.731517 4.20795,-0.681604 l 0.42689,0.04138 -0.36591,0.166469 c -0.35319,0.160683 -0.34259,0.164662 0.30493,0.114463 0.62297,-0.0483 0.60686,-0.03963 -0.22568,0.121476 -1.20639,0.23345 -1.34225,0.313287 -0.38417,0.225758 1.30079,-0.118839 0.78973,0.02988 -1.09773,0.319447 -0.97271,0.149228 -1.93322,0.315877 -2.13447,0.370331 l -0.3659,0.09901 0.4591,0.01245 c 0.44133,0.01197 5.24418,-0.828876 6.24922,-1.094066 0.26834,-0.0708 0.59766,-0.157757 0.73182,-0.193231 l 0.24394,-0.0645 -0.24394,0.17375 c -0.13416,0.09556 -0.46348,0.262473 -0.73182,0.370917 -0.67898,0.274398 -0.28205,0.256621 0.86477,-0.03873 0.53063,-0.136657 1.0697,-0.221804 1.19794,-0.189216 0.12825,0.03259 0.34069,0.0017 0.47211,-0.06863 0.14793,-0.07917 0.21037,-0.08165 0.16394,-0.0065 -0.13278,0.214827 0.20928,0.237383 1.02132,0.06735 1.5713,-0.329023 1.09394,-0.09137 -1.0173,0.506464 -1.18451,0.335416 -2.09691,0.628785 -2.02754,0.651931 0.0694,0.02314 0.91287,-0.182679 1.87445,-0.457386 1.80751,-0.51638 2.59119,-0.657702 1.41433,-0.255046 -0.60698,0.207672 -0.62439,0.22285 -0.18296,0.159449 0.5777,-0.08297 0.94663,-0.253657 0.85805,-0.396981 -0.035,-0.05656 0.0841,-0.139908 0.26465,-0.185214 0.25747,-0.06462 0.29015,-0.106459 0.15162,-0.194099 -0.1461,-0.09243 -0.13974,-0.112044 0.0369,-0.113589 0.11739,-9.76e-4 0.21344,0.06069 0.21344,0.137148 0,0.07646 -0.0961,0.211929 -0.21344,0.301045 -0.19605,0.14882 -0.18859,0.163345 0.0915,0.178161 0.22535,0.01192 0.17816,0.04581 -0.18085,0.12984 -0.72244,0.16911 -0.86976,0.396752 -0.18506,0.285958 0.30188,-0.04885 0.68608,-0.142872 0.85379,-0.208942 0.29114,-0.114695 0.2939,-0.124942 0.061,-0.226659 l -0.24394,-0.106533 0.24394,0.01204 c 0.43034,0.02124 0.50347,-0.0085 1.11068,-0.452028 l 0.59689,-0.43598 -0.59923,0.565262 c -0.56196,0.5301 -0.57713,0.559813 -0.24394,0.477671 0.19541,-0.04818 0.47879,-0.167553 0.62972,-0.265281 0.15094,-0.09773 0.27444,-0.143425 0.27444,-0.101548 0,0.04188 -0.27719,0.246691 -0.61596,0.455142 -0.33878,0.208451 -0.5952,0.399755 -0.56984,0.425121 0.0254,0.02537 0.52119,-0.114463 1.10184,-0.310733 0.58064,-0.19627 1.08306,-0.312607 1.11648,-0.258526 0.0334,0.05408 -0.18679,0.167643 -0.48937,0.252359 -0.30258,0.08472 -0.52655,0.177635 -0.4977,0.206484 0.0289,0.02885 0.34226,-0.03361 0.69647,-0.138801 0.93405,-0.277382 1.01772,-0.223471 0.17285,0.11137 -0.84074,0.333201 -0.59879,0.387265 0.536,0.119771 0.42897,-0.101116 0.80143,-0.162361 0.82769,-0.136098 0.0625,0.06255 -1.45392,0.442706 -1.81565,0.455153 -0.15392,0.0053 -0.20641,0.03893 -0.11664,0.07473 0.0898,0.03581 0.49304,2.44e-4 0.89614,-0.07908 0.4031,-0.07931 0.75855,-0.118553 0.78989,-0.08722 0.0313,0.03134 -0.34448,0.129582 -0.83515,0.218323 -1.10922,0.200609 -0.77667,0.296629 0.39678,0.114562 0.5706,-0.08853 0.92882,-0.09287 1.06594,-0.0129 0.16933,0.09875 0.17357,0.12333 0.0236,0.136482 -0.10063,0.0088 -0.81415,0.08918 -1.58561,0.178571 l -1.40265,0.16253 2.19545,-0.03194 c 1.27129,-0.0185 1.99009,0.0076 1.70758,0.06205 -0.26833,0.05169 -1.0093,0.10505 -1.64659,0.118566 l -1.15871,0.02457 1.46363,0.146653 c 1.23935,0.124179 1.35149,0.151319 0.73182,0.177103 l -0.73182,0.03045 0.81829,0.145921 c 0.45005,0.08026 0.8617,0.191585 0.91477,0.247396 0.0531,0.05581 -0.0133,0.07034 -0.14745,0.03229 -0.13417,-0.03805 -0.51837,-0.09967 -0.85379,-0.136915 -0.60274,-0.06694 -0.60559,-0.06566 -0.24394,0.10952 0.20125,0.09749 0.452,0.179723 0.55722,0.182749 0.26101,0.0075 1.4901,0.377243 1.43551,0.431834 -0.0241,0.02411 -0.48174,-0.05797 -1.01697,-0.182394 -0.53523,-0.124421 -0.99304,-0.206333 -1.01734,-0.182026 -0.0243,0.02431 0.33186,0.237165 0.79149,0.47302 0.45964,0.235854 0.78081,0.429581 0.71373,0.430503 -0.0671,9.76e-4 -0.25919,-0.07676 -0.4269,-0.172633 -0.39909,-0.228141 -0.61531,-0.225453 -0.3121,0.0039 0.15476,0.117053 0.17908,0.179076 0.0702,0.179076 -0.10836,0 -0.0632,0.113284 0.12915,0.324239 l 0.29569,0.324239 -0.39667,-0.286386 c -0.23915,-0.172665 -0.34406,-0.318893 -0.2642,-0.36825 0.0849,-0.05246 0.0608,-0.109365 -0.0671,-0.158425 -0.11661,-0.04475 -0.16855,-0.02646 -0.125,0.04401 0.041,0.06631 0.0132,0.120572 -0.0618,0.120572 -0.075,0 -0.10386,0.05261 -0.0641,0.116913 0.0397,0.0643 -0.16285,0.01353 -0.45019,-0.112834 -1.06231,-0.467155 -2.17645,-0.846573 -2.09396,-0.713092 0.0844,0.136544 -0.0576,0.118152 -0.62394,-0.08083 -0.13417,-0.04714 0.21331,0.165598 0.77216,0.472747 1.11723,0.614039 1.76964,1.048147 1.69197,1.125824 -0.0277,0.02766 -0.56315,-0.252757 -1.18997,-0.623154 -1.36295,-0.805395 -1.61988,-0.863568 -0.68491,-0.155079 0.88287,0.66901 0.86894,0.749573 -0.0536,0.310163 -0.91134,-0.434067 -1.07103,-0.382891 -0.23133,0.07413 0.33576,0.182739 0.61046,0.359511 0.61046,0.392824 0,0.03331 -0.0549,0.02665 -0.12197,-0.01481 -0.19295,-0.119252 -0.14177,0.13665 0.061,0.304924 0.10062,0.08351 0.18295,0.211663 0.18295,0.284781 0,0.07312 -0.26071,-0.121657 -0.57935,-0.432835 -0.53138,-0.518921 -1.93382,-1.282456 -2.0825,-1.133778 -0.0346,0.03465 -0.19087,-0.0208 -0.34716,-0.123203 -0.15629,-0.102405 -0.28417,-0.148978 -0.28417,-0.103493 0,0.04549 -0.096,2.44e-4 -0.21344,-0.100606 -0.40486,-0.347683 -0.57858,-0.380861 -0.28029,-0.05353 0.16449,0.180503 0.3663,0.302389 0.44847,0.270857 0.0822,-0.03153 0.21709,0.02424 0.29983,0.123926 0.0827,0.09969 0.22128,0.154066 0.30788,0.120835 0.0866,-0.03323 0.28363,0.0497 0.43784,0.18429 l 0.28039,0.244712 -0.28994,-0.14145 c -0.21436,-0.104578 -0.31208,-0.105622 -0.37489,-0.004 -0.0574,0.09291 -0.15732,0.05747 -0.30831,-0.109378 -0.12286,-0.135751 -0.28348,-0.244848 -0.35693,-0.242435 -0.0735,0.0024 0.0279,0.136362 0.22525,0.297666 0.19734,0.161303 0.39695,0.269706 0.44356,0.240896 0.0466,-0.02881 0.15916,0.03726 0.25009,0.146822 0.21907,0.263969 -0.0501,0.186568 -1.63955,-0.471487 -0.81211,-0.336222 -1.23686,-0.455623 -1.32111,-0.371373 -0.1149,0.114902 0.1504,0.239485 1.84721,0.867416 0.357,0.13211 -0.64267,0.10996 -1.28068,-0.02838 -0.32005,-0.0694 -0.30477,-0.0486 0.12197,0.165947 0.81608,0.41029 -0.0385,0.12877 -1.33819,-0.440838 -1.45452,-0.637458 -1.82197,-0.706386 -0.57181,-0.107263 0.48864,0.234171 0.98082,0.518159 1.09375,0.631085 0.22479,0.224788 0.21969,0.22444 -0.98726,-0.06762 -0.41704,-0.100919 -0.455,-0.09018 -0.39125,0.110662 0.062,0.195233 -0.0347,0.178182 -0.79079,-0.139493 -0.84558,-0.355274 -1.34201,-0.376606 -0.89428,-0.03842 0.23377,0.176571 -0.96231,-0.123815 -2.2309,-0.560274 -0.91417,-0.314521 -0.72475,-0.09569 0.22311,0.257752 0.63827,0.238002 1.73736,0.844189 1.53061,0.844189 -0.0336,0 -0.42429,-0.164659 -0.86813,-0.365909 -0.90893,-0.412127 -1.23298,-0.480602 -0.53792,-0.113665 0.25156,0.132804 0.45738,0.268331 0.45738,0.30117 0,0.03284 -0.20582,-0.02713 -0.45738,-0.133275 -0.49761,-0.209951 -0.50487,-0.211826 -0.73902,-0.190643 -0.0878,0.0079 -0.12516,0.07026 -0.083,0.138481 0.0422,0.06822 -0.1169,0.03173 -0.35348,-0.08108 -0.23659,-0.112818 -0.40221,-0.250336 -0.36806,-0.305596 0.0342,-0.05526 -0.0175,-0.06992 -0.11484,-0.03257 -0.0973,0.03735 -0.45511,-0.07306 -0.79509,-0.245337 -0.33997,-0.17228 -0.68857,-0.311048 -0.77465,-0.308375 -0.0861,0.0027 0.0578,0.111827 0.31982,0.242565 0.67241,0.335549 0.67218,0.363766 -0.003,0.316484 -0.32986,-0.02311 -0.81838,-0.152404 -1.0856,-0.287316 -0.26722,-0.134911 -0.62307,-0.281128 -0.79078,-0.324925 -0.16771,-0.0438 0.21649,0.193361 0.85378,0.527017 1.35739,0.710669 1.38988,0.793882 0.0762,0.195227 -0.98515,-0.448943 -1.23736,-0.481842 -0.47262,-0.06165 0.54481,0.299347 1.32238,0.85137 1.19923,0.85137 -0.0479,0 -0.20693,-0.0645 -0.35346,-0.143325 -0.24256,-0.130494 -0.82,-0.283311 -1.50534,-0.398382 -0.14474,-0.0243 -0.43222,-0.169173 -0.63884,-0.321933 -0.20662,-0.152758 -0.4074,-0.246017 -0.44617,-0.207241 -0.0388,0.03878 0.15042,0.194669 0.42043,0.346426 0.27002,0.151757 0.46552,0.317052 0.43445,0.367325 -0.0311,0.05027 0.17408,0.260964 0.45588,0.468205 0.28181,0.207243 0.44991,0.376804 0.37357,0.376804 -0.0763,0 -0.17272,-0.05489 -0.21418,-0.12197 -0.0415,-0.06708 -0.13027,-0.12197 -0.19735,-0.12197 -0.0671,0 -0.0916,0.04914 -0.0545,0.10919 0.0371,0.06005 -0.0279,0.145788 -0.14446,0.190521 -0.18811,0.07218 -0.17774,0.107623 0.0922,0.314993 0.62869,0.483017 0.0742,0.211103 -1.16408,-0.57082 -0.70541,-0.445448 -1.31064,-0.781827 -1.34495,-0.747509 -0.0343,0.03432 0.21412,0.239837 0.55209,0.45671 0.73095,0.469054 0.78184,0.565721 0.1571,0.298461 -0.65181,-0.278841 -0.86466,-0.3405 -0.60985,-0.176664 0.21887,0.140732 0.29046,0.369058 0.1157,0.369058 -0.0914,0 -1.3225,-0.717546 -3.01248,-1.755891 l -0.73182,-0.449636 -1.40265,0.0787 c -0.77146,0.04328 -3.43344,0.01844 -5.91553,-0.05522 -4.55007,-0.135014 -6.76008,-0.04825 -9.08673,0.356758 -0.36896,0.06423 -1.10993,0.173109 -1.64659,0.241963 -1.13362,0.145443 -3.27299,0.64138 -3.90384,0.904966 -0.50365,0.21044 -0.95408,1.073286 -1.21367,2.324945 -0.14878,0.717335 -0.14443,0.745093 0.2195,1.402651 0.88947,1.607078 1.97235,3.273447 2.4571,3.781058 0.67127,0.702925 0.91629,1.1989 0.91629,1.854784 0,0.288879 0.0572,0.716973 0.12714,0.951322 0.22601,0.75742 0.19265,2.731541 -0.0525,3.105656 -0.19555,0.298446 -0.19741,0.350332 -0.0221,0.61788 0.10526,0.16064 0.19138,0.371454 0.19138,0.468476 0,0.173106 0.57075,0.723222 0.87977,0.84797 0.12197,0.04924 0.11617,0.09362 -0.026,0.199043 -0.23669,0.175531 -0.87815,0.07864 -1.49285,-0.225484 l -0.48655,-0.240726 -0.26049,0.273198 c -0.14326,0.150259 -0.31537,0.367383 -0.38245,0.482496 -0.0671,0.115114 -0.25919,0.236705 -0.4269,0.270203 -0.64257,0.128349 -2.78845,0.180958 -2.857,0.07004 -0.092,-0.148834 0.61788,-0.746837 0.88654,-0.746837 0.35973,0 1.09749,-0.594137 1.40281,-1.12972 0.26599,-0.46659 0.2931,-0.647383 0.27869,-1.858535 -0.0327,-2.749527 -0.88507,-3.657283 -7.157911,-7.623101 -0.47748,-0.301874 -1.07944,-0.785869 -1.33768,-1.075543 -0.39801,-0.44645 -0.52978,-0.52077 -0.86501,-0.487879 -0.39094,0.03836 -0.3981,0.05068 -0.62518,1.075544 -0.19827,0.894892 -0.21863,1.328784 -0.14879,3.17121 0.14115,3.723236 0.17333,3.499024 -0.73662,5.13157 -0.43608,0.782367 -0.79287,1.467313 -0.79287,1.522098 0,0.05479 -0.10392,0.322762 -0.23093,0.595504 -0.12701,0.272741 -0.26506,0.645996 -0.30678,0.829453 -0.0895,0.3935 -0.15873,0.414294 -1.96267,0.589412 -2.0715,0.201091 -2.500377,0.218359 -2.500377,0.100671 z m 44.30546,-15.705733 c -0.0168,-0.07547 0.0381,-0.137489 0.12197,-0.137822 0.20296,-8.54e-4 -0.46268,-0.551697 -1.03674,-0.858015 -0.63628,-0.339526 -0.5744,-0.195998 0.0811,0.188171 0.54877,0.321602 0.92367,0.67045 0.72051,0.67045 -0.0619,0 -0.18643,-0.06861 -0.27677,-0.152462 -0.1314,-0.12197 -0.14704,-0.12197 -0.0782,0 0.14364,0.254414 -0.009,0.177947 -0.87099,-0.435467 -0.75143,-0.534925 -1.73063,-1.063525 -1.43573,-0.77505 0.0671,0.06562 0.67045,0.481596 1.34081,0.924385 1.14391,0.755572 1.50628,0.901079 1.43399,0.57581 z m -0.33455,-0.01385 c -0.0427,-0.06914 0.006,-0.08959 0.11477,-0.04794 0.21131,0.08108 0.24997,0.168508 0.0745,0.168508 -0.0631,0 -0.1483,-0.05426 -0.18929,-0.120573 z m -2.62321,-0.906221 c 0,-0.07919 -0.75723,-0.528137 -1.12958,-0.669704 -0.56186,-0.213618 -0.37279,-0.03498 0.36727,0.34701 0.77511,0.40008 0.76231,0.394664 0.76231,0.322694 z m 0.24394,-0.246083 c 0,-0.02925 -0.21731,-0.175317 -0.48292,-0.324596 -0.2656,-0.149278 -0.45681,-0.313657 -0.4249,-0.365285 0.0319,-0.05163 -0.006,-0.133586 -0.0848,-0.182128 -0.0892,-0.05512 -0.11013,-0.03539 -0.0558,0.05256 0.12123,0.196157 -0.001,0.175805 -0.38904,-0.06451 -0.18212,-0.112931 -0.27624,-0.14402 -0.20916,-0.06909 0.22098,0.246837 1.64659,1.071988 1.64659,0.953051 z m 7.01325,-0.06879 c -0.0415,-0.06708 -0.14075,-0.121129 -0.22064,-0.120102 -0.0873,0.0011 -0.0722,0.04906 0.0377,0.120102 0.23432,0.151429 0.27654,0.151429 0.18295,0 z m 6.28144,-0.317057 c -1.13544,-0.469582 -1.73185,-0.675081 -1.79012,-0.616808 -0.0207,0.02074 0.30493,0.186729 0.72374,0.368854 0.68424,0.297556 0.69658,0.360013 0.0296,0.149945 -0.13417,-0.04226 -0.0244,0.03199 0.24394,0.164991 0.26833,0.133004 0.57597,0.215064 0.68364,0.182357 0.10768,-0.03271 0.32722,-0.0069 0.48788,0.05738 0.16066,0.06427 0.37444,0.118018 0.47507,0.119447 0.10062,0.0014 -0.28358,-0.190345 -0.85379,-0.426164 z m -2.86629,0.195088 c -0.0415,-0.06708 -0.14075,-0.12113 -0.22064,-0.120103 -0.0873,0.0011 -0.0722,0.04906 0.0377,0.120103 0.23432,0.151429 0.27654,0.151429 0.18295,0 z m -9.57461,-0.365909 c -0.23479,-0.128543 -0.48178,-0.233715 -0.54887,-0.233715 -0.0671,0 0.0701,0.105172 0.30493,0.233715 0.23479,0.128542 0.48178,0.233714 0.54886,0.233714 0.0671,0 -0.0701,-0.105172 -0.30492,-0.233714 z m 1.95151,0.186086 c 0,-0.09307 -0.70472,-0.43088 -0.87822,-0.42098 -0.0872,0.005 0.061,0.110678 0.32936,0.234894 0.5814,0.269143 0.54886,0.25811 0.54886,0.186086 z m 6.09848,-0.115044 c 0,-0.08277 -2.32749,-0.833441 -2.39008,-0.770856 -0.0602,0.06024 1.05352,0.488543 1.78023,0.684608 0.51589,0.139186 0.60985,0.152474 0.60985,0.08625 z m 0.60985,-0.07104 c -0.10062,-0.06503 -0.23784,-0.118234 -0.30492,-0.118234 -0.0671,0 -0.0396,0.0532 0.061,0.118234 0.10063,0.06503 0.23784,0.118234 0.30493,0.118234 0.0671,0 0.0396,-0.05321 -0.061,-0.118234 z m 5.13911,-0.163214 c -0.14153,-0.17053 -1.09953,-0.501873 -1.18987,-0.411537 -0.0286,0.0286 0.23746,0.166062 0.59123,0.305468 0.78542,0.309486 0.76436,0.305757 0.59864,0.106069 z m 1.87902,0.04914 c -0.0798,-0.129138 -1.41492,-0.651006 -1.48534,-0.580589 -0.0335,0.03352 1.16288,0.571653 1.51815,0.682864 0.0207,0.0065 0.006,-0.03954 -0.0328,-0.102275 z m 3.65421,-0.08487 c -0.33975,-0.266277 -1.18779,-0.626362 -1.70263,-0.722946 -0.66939,-0.125579 -0.51095,0.0214 0.33047,0.30657 0.41927,0.142094 0.89953,0.336726 1.06724,0.432515 0.40856,0.233357 0.60968,0.222713 0.30492,-0.01614 z m -22.01551,-0.105978 c -0.0835,-0.100625 -0.24117,-0.181009 -0.35035,-0.178632 -0.1366,0.003 -0.10341,0.05869 0.10641,0.178632 0.39142,0.223757 0.42964,0.223757 0.24394,0 z m 19.02726,0.115745 c 0,-0.07685 -0.79692,-0.425319 -0.94135,-0.411624 -0.0525,0.005 0.12415,0.110678 0.39248,0.234894 0.58632,0.271417 0.54887,0.259356 0.54887,0.17673 z m -16.40492,-0.2987 c -0.0415,-0.06708 -0.14075,-0.121129 -0.22064,-0.120102 -0.0873,0.0011 -0.0722,0.04906 0.0377,0.120102 0.23432,0.151429 0.27654,0.151429 0.18295,0 z m 2.4394,0 c -0.33531,-0.144085 -0.52789,-0.144085 -0.30493,0 0.10063,0.06503 0.26529,0.115218 0.36591,0.111529 0.12064,-0.0044 0.0999,-0.04241 -0.061,-0.111529 z m 2.3784,0 c -0.10062,-0.06503 -0.23784,-0.118233 -0.30492,-0.118233 -0.0671,0 -0.0396,0.0532 0.061,0.118233 0.10063,0.06503 0.23784,0.118234 0.30493,0.118234 0.0671,0 0.0396,-0.0532 -0.061,-0.118234 z m 4.025,0 c -0.10062,-0.06503 -0.26528,-0.118233 -0.36591,-0.118233 -0.16262,0 -0.16262,0.01314 0,0.118233 0.10063,0.06503 0.26529,0.118234 0.36591,0.118234 0.16263,0 0.16263,-0.01314 0,-0.118234 z m 1.40265,0 c -0.3353,-0.144085 -0.52788,-0.144085 -0.30492,0 0.10062,0.06503 0.26528,0.115218 0.36591,0.111529 0.12063,-0.0044 0.0999,-0.04241 -0.061,-0.111529 z m 1.40265,-0.243939 c -0.10062,-0.06503 -0.32017,-0.113604 -0.48788,-0.107944 l -0.30492,0.01029 0.30492,0.09765 c 0.47011,0.150555 0.72085,0.150555 0.48788,0 z m 1.64659,0 c -0.0415,-0.06708 -0.16819,-0.121129 -0.28163,-0.120102 -0.17774,0.0016 -0.18096,0.01821 -0.0233,0.120102 0.23886,0.154365 0.40032,0.154365 0.30492,0 z m -0.85379,-0.121969 c -0.0415,-0.06708 -0.16819,-0.12113 -0.28163,-0.120103 -0.17774,0.0016 -0.18096,0.01821 -0.0233,0.120103 0.23886,0.154364 0.40033,0.154364 0.30492,0 z m 6.00447,-0.805508 c -0.0405,-0.04053 -0.14573,-0.04486 -0.23378,-0.0096 -0.0973,0.03894 -0.0684,0.06784 0.0737,0.07369 0.12858,0.0053 0.20062,-0.02353 0.16009,-0.06406 z m -1.82701,-0.742205 c -0.11739,-0.03068 -0.30949,-0.03068 -0.42689,0 -0.1174,0.03068 -0.0214,0.05578 0.21345,0.05578 0.23479,0 0.33084,-0.0251 0.21344,-0.05578 z m -8.47689,-0.24064 c -0.0838,-0.03384 -0.22106,-0.03384 -0.30492,0 -0.0838,0.03384 -0.0152,0.06152 0.15246,0.06152 0.16771,0 0.23632,-0.02768 0.15246,-0.06152 z m 0.91224,0.0071 c -0.0405,-0.04053 -0.14573,-0.04486 -0.23378,-0.0096 -0.0973,0.03894 -0.0684,0.06784 0.0737,0.07369 0.12858,0.0053 0.20062,-0.02353 0.16009,-0.06406 z m 0.48787,-0.121969 c -0.0405,-0.04053 -0.14572,-0.04486 -0.23377,-0.0096 -0.0973,0.03894 -0.0684,0.06784 0.0737,0.07369 0.12858,0.0053 0.20061,-0.02353 0.16008,-0.06406 z m -4.93722,-0.129056 c -0.0839,-0.03384 -0.22107,-0.03384 -0.30493,0 -0.0839,0.03384 -0.0152,0.06152 0.15246,0.06152 0.16771,0 0.23632,-0.02768 0.15247,-0.06152 z m 3.03427,-0.126677 c 0.49459,-0.1141 0.81692,-0.223719 0.71629,-0.243599 -0.10062,-0.01988 -0.5946,0.06744 -1.09772,0.194047 -1.14784,0.288836 -0.83304,0.329731 0.38143,0.04955 z m -5.53719,0.01179 c -0.0405,-0.04053 -0.14573,-0.04486 -0.23378,-0.0096 -0.0973,0.03894 -0.0684,0.06784 0.0737,0.07369 0.12858,0.0053 0.20062,-0.02353 0.16009,-0.06406 z m 10.94931,-0.09895 c 0.36126,-0.159585 0.35793,-0.161452 -0.26236,-0.146961 -0.34555,0.0081 -0.56992,0.05086 -0.4986,0.09508 0.0713,0.04422 -0.003,0.105355 -0.16453,0.135851 -0.21533,0.04058 -0.17976,0.05843 0.13269,0.06656 0.23479,0.0061 0.59155,-0.06163 0.7928,-0.15053 z m 1.73553,0.09895 c -0.0405,-0.04053 -0.14573,-0.04486 -0.23378,-0.0096 -0.0973,0.03894 -0.0684,0.06784 0.0737,0.07369 0.12858,0.0053 0.20062,-0.02353 0.16009,-0.06406 z m -6.85825,-0.471758 c 0.65501,-0.215873 0.39718,-0.224307 -0.36591,-0.01196 -0.33542,0.09333 -0.50008,0.170385 -0.36591,0.171228 0.13417,8.54e-4 0.46348,-0.07082 0.73182,-0.159259 z m 0.91477,0.131604 c 0,-0.02636 -0.0852,-0.08062 -0.18929,-0.120573 -0.10854,-0.04165 -0.1575,-0.0212 -0.11477,0.04794 0.0716,0.115897 0.30406,0.171423 0.30406,0.07264 z m -11.49818,-0.147725 c -0.0405,-0.04053 -0.14573,-0.04486 -0.23377,-0.0096 -0.0973,0.03894 -0.0684,0.06784 0.0737,0.07369 0.12857,0.0053 0.20061,-0.02353 0.16008,-0.06406 z m 6.40595,-0.0071 c -0.0839,-0.03384 -0.22107,-0.03384 -0.30493,0 -0.0838,0.03384 -0.0152,0.06152 0.15247,0.06152 0.16771,0 0.23631,-0.02768 0.15246,-0.06152 z m 8.0195,-0.173452 c 0.30901,-0.176097 -0.11414,-0.120946 -0.60985,0.07948 l -0.42689,0.172607 0.42689,-0.07391 c 0.23479,-0.04065 0.50923,-0.120833 0.60985,-0.178177 z m -13.93757,0.05857 c -0.0405,-0.04053 -0.14573,-0.04486 -0.23377,-0.0096 -0.0973,0.03894 -0.0684,0.06784 0.0737,0.07369 0.12857,0.0053 0.20061,-0.02353 0.16008,-0.06406 z m 0.48788,-0.12197 c -0.0405,-0.04053 -0.14573,-0.04486 -0.23378,-0.0096 -0.0973,0.03893 -0.0684,0.06784 0.0737,0.07369 0.12857,0.0053 0.20061,-0.02353 0.16008,-0.06406 z m 12.77886,-0.04828 c 0.15376,-0.06607 0.1763,-0.104824 0.061,-0.104824 -0.10062,0 -0.29272,0.04717 -0.42689,0.104824 -0.15376,0.06607 -0.17631,0.104824 -0.061,0.104824 0.10063,0 0.29273,-0.04717 0.4269,-0.104824 z m -8.65224,5.006895 c -0.19706,-0.129905 -0.41661,-0.203821 -0.48787,-0.164258 -0.0713,0.03956 -0.0652,0.0022 0.0135,-0.08292 0.1146,-0.124048 0.21774,-0.101689 0.51837,0.112381 0.20642,0.146983 0.37531,0.290948 0.37531,0.31992 0,0.08292 -0.0384,0.06599 -0.41929,-0.185118 z m 2.33934,-0.138421 c -0.11792,-0.06867 -0.27734,-0.08597 -0.35426,-0.03843 -0.0842,0.05201 -0.10662,0.03267 -0.0564,-0.04859 0.0475,-0.07684 -0.0626,-0.214254 -0.25558,-0.318886 -0.18647,-0.101123 -0.29593,-0.186059 -0.24324,-0.188745 0.0527,-0.0027 0.382,0.159261 0.73182,0.359881 0.34981,0.200619 0.58113,0.36361 0.51405,0.3622 -0.0671,-0.0014 -0.21846,-0.05875 -0.33639,-0.127427 z m 0.15343,-0.477568 c -0.10062,-0.06503 -0.12807,-0.118234 -0.061,-0.118234 0.0671,0 0.2043,0.0532 0.30492,0.118234 0.10063,0.06503 0.12807,0.118234 0.061,0.118234 -0.0671,0 -0.2043,-0.05321 -0.30493,-0.118234 z m 13.23371,-0.630822 c -0.60375,-0.329248 -0.96051,-0.563483 -0.79281,-0.52052 0.32444,0.08311 1.81189,0.854513 2.0064,1.040531 0.23796,0.227563 -0.13871,0.06617 -1.21359,-0.520011 z M 135.55529,35.58978 c 0.088,-0.03523 0.19324,-0.0309 0.23377,0.0096 0.0405,0.04053 -0.0315,0.06936 -0.16008,0.06406 -0.14209,-0.0059 -0.17099,-0.03475 -0.0737,-0.07369 z m 0.48025,-0.363368 c 0.0839,-0.03384 0.22107,-0.03384 0.30493,0 0.0838,0.03384 0.0152,0.06152 -0.15247,0.06152 -0.1677,0 -0.23631,-0.02768 -0.15246,-0.06152 z m -9.60511,-0.285131 c 0.2348,-0.128542 0.48178,-0.233714 0.54887,-0.233714 0.0671,0 -0.0701,0.105172 -0.30493,0.233714 -0.23479,0.128543 -0.48178,0.233715 -0.54886,0.233715 -0.0671,0 0.0701,-0.105172 0.30492,-0.233715 z m 2.6935,0.19676 c 0.0947,-0.08794 1.9735,-0.571178 2.02407,-0.52061 0.0276,0.02762 -0.38135,0.166679 -0.90883,0.309008 -0.93946,0.253494 -1.21711,0.306174 -1.11524,0.211602 z m 3.38212,-0.158109 c 0.088,-0.03523 0.19324,-0.0309 0.23377,0.0096 0.0405,0.04053 -0.0315,0.06936 -0.16008,0.06406 -0.14209,-0.0059 -0.17099,-0.03475 -0.0737,-0.07369 z m -2.8053,-0.365909 c 0.088,-0.03523 0.19324,-0.0309 0.23377,0.0096 0.0405,0.04053 -0.0315,0.06936 -0.16008,0.06406 -0.14209,-0.0059 -0.17099,-0.03475 -0.0737,-0.07369 z"
       id="path1158"
       inkscape:connector-curvature="0" />
  </g>
</svg>
