<?xml version="1.0" encoding="UTF-8" standalone="no"?>
<!-- Created with Inkscape (http://www.inkscape.org/) -->

<svg
   xmlns:dc="http://purl.org/dc/elements/1.1/"
   xmlns:cc="http://creativecommons.org/ns#"
   xmlns:rdf="http://www.w3.org/1999/02/22-rdf-syntax-ns#"
   xmlns:svg="http://www.w3.org/2000/svg"
   xmlns="http://www.w3.org/2000/svg"
   xmlns:sodipodi="http://sodipodi.sourceforge.net/DTD/sodipodi-0.dtd"
   xmlns:inkscape="http://www.inkscape.org/namespaces/inkscape"
   width="71.611694mm"
   height="30.874718mm"
   viewBox="0 0 71.611679 30.874717"
   version="1.1"
   id="svg8"
   inkscape:version="0.92.4 (5da689c313, 2019-01-14)"
   sodipodi:docname="parasaurolophus.svg">
  <defs
     id="defs2" />
  <sodipodi:namedview
     id="base"
     pagecolor="#ffffff"
     bordercolor="#666666"
     borderopacity="1.0"
     inkscape:pageopacity="0.0"
     inkscape:pageshadow="2"
     inkscape:zoom="1.979899"
     inkscape:cx="144.61366"
     inkscape:cy="-9.8596047"
     inkscape:document-units="mm"
     inkscape:current-layer="layer1"
     showgrid="false"
     inkscape:window-width="1366"
     inkscape:window-height="745"
     inkscape:window-x="-8"
     inkscape:window-y="-8"
     inkscape:window-maximized="1" />
  <metadata
     id="metadata5">
    <rdf:RDF>
      <cc:Work
         rdf:about="">
        <dc:format>image/svg+xml</dc:format>
        <dc:type
           rdf:resource="http://purl.org/dc/dcmitype/StillImage" />
        <dc:title></dc:title>
      </cc:Work>
    </rdf:RDF>
  </metadata>
  <g
     inkscape:label="Camada 1"
     inkscape:groupmode="layer"
     id="layer1"
     transform="translate(-63.808465,-31.62285)">
    <path
       style="fill:#d5d5d5;fill-opacity:1;stroke-width:1"
       d="m 90.433065,62.454095 c -0.06927,-0.03569 -0.08499,-0.06836 -0.08189,-0.170139 0.0044,-0.145099 -0.07114,-0.192495 -0.198356,-0.124413 -0.0424,0.02269 -0.20508,0.04662 -0.361511,0.05317 -0.254611,0.01067 -0.292181,0.0042 -0.35848,-0.06215 l -0.07406,-0.07406 -0.288244,0.0702 c -0.284142,0.0692 -0.289115,0.06926 -0.349573,0.0044 -0.215129,-0.230915 0.266389,-0.777778 0.736567,-0.836523 0.113055,-0.01413 0.205366,-0.04764 0.241649,-0.08773 0.04792,-0.05295 0.107292,-0.06488 0.322937,-0.06488 0.225293,0 0.282839,-0.01263 0.390551,-0.08573 0.06948,-0.04715 0.147028,-0.08573 0.172331,-0.08573 0.0253,0 0.138188,-0.06156 0.250857,-0.136794 0.210908,-0.140839 0.322425,-0.280783 0.437497,-0.549019 0.03641,-0.08487 0.137521,-0.239178 0.224694,-0.342907 0.306748,-0.365008 0.440981,-0.593659 0.544467,-0.92744 0.162218,-0.523217 0.279889,-1.139658 0.256855,-1.34558 -0.01166,-0.104241 0.0026,-0.305718 0.03414,-0.483299 0.07721,-0.434355 0.06788,-0.672464 -0.04814,-1.228477 -0.200571,-0.961172 -0.395823,-1.421805 -0.938782,-2.214759 -0.206526,-0.301616 -0.410725,-0.603647 -0.642317,-0.950052 -0.179655,-0.26872 -0.52861,-0.951135 -0.652702,-1.276423 -0.0574,-0.150455 -0.09659,-0.209352 -0.132849,-0.199652 -0.02829,0.0076 -0.136305,0.0236 -0.240034,0.03562 -0.10373,0.01203 -0.464692,0.05983 -0.802139,0.106241 -0.337447,0.04641 -1.085841,0.137983 -1.663098,0.203501 -1.113943,0.126432 -1.813368,0.228944 -2.053029,0.300907 l -0.146204,0.0439 0.111914,0.106214 c 0.06155,0.05842 0.159143,0.129974 0.216869,0.159014 0.109135,0.0549 0.323677,0.256256 0.323677,0.303779 0,0.015 0.04511,0.100794 0.100242,0.190662 0.05513,0.08987 0.133183,0.247251 0.173444,0.349741 0.156514,0.398427 0.445862,1.713576 0.445612,2.025404 -1.37e-4,0.191216 0.136536,1.008356 0.24459,1.462183 0.05452,0.228975 0.09912,0.434639 0.09912,0.457031 0,0.02239 0.05659,0.158361 0.125748,0.302153 0.09759,0.202894 0.132374,0.327076 0.155338,0.554544 0.08105,0.802834 0.130886,0.9974 0.33418,1.30468 0.05151,0.07786 0.207711,0.495319 0.207711,0.555128 0,0.02889 0.03693,0.106946 0.08206,0.17345 0.104038,0.15331 0.150554,0.394857 0.08117,0.421483 -0.07666,0.02942 -0.214642,-0.03814 -0.330591,-0.161863 -0.124049,-0.132362 -0.12821,-0.116542 -0.04223,0.160539 0.03512,0.11316 0.07492,0.31376 0.08846,0.445779 0.01354,0.132019 0.05457,0.367098 0.09118,0.522396 0.06114,0.259362 0.06221,0.290784 0.01309,0.38577 -0.05309,0.10267 -0.06879,0.108361 -0.326039,0.118164 -0.162636,0.0062 -0.32602,0.06129 -0.411488,0.138751 -0.113207,0.102601 -0.244467,0.131046 -0.329588,0.07142 -0.05799,-0.04062 -0.09956,-0.04022 -0.285488,0.0027 -0.385756,0.08912 -0.506034,0.02515 -0.394527,-0.209835 0.03966,-0.08358 0.120859,-0.167919 0.222492,-0.231098 0.262738,-0.163327 0.324948,-0.273737 0.319915,-0.567784 -0.0023,-0.13725 -0.02829,-0.314704 -0.05764,-0.394343 -0.02935,-0.07964 -0.05991,-0.245099 -0.06791,-0.367688 -0.0366,-0.561045 -0.270882,-1.393528 -0.453775,-1.612437 -0.05975,-0.07152 -0.132304,-0.221236 -0.167477,-0.345601 -0.09012,-0.318669 -0.504002,-1.615694 -0.779424,-2.442579 -0.130869,-0.392902 -0.33769,-0.927879 -0.459601,-1.188836 -0.121912,-0.260958 -0.221753,-0.495001 -0.22187,-0.520096 -1.02e-4,-0.0251 -0.01997,-0.08421 -0.04413,-0.131355 -0.02415,-0.04715 -0.07302,-0.186027 -0.108592,-0.308616 -0.03557,-0.12259 -0.08811,-0.250515 -0.116748,-0.28428 -0.0967,-0.114008 -0.464965,-0.259099 -0.84477,-0.332826 -0.207459,-0.04027 -0.405821,-0.08148 -0.440804,-0.09156 -0.0566,-0.01632 -0.06115,-0.0038 -0.04133,0.113702 0.02462,0.145926 -0.04426,0.490764 -0.155102,0.776525 -0.252038,0.649791 -0.644299,1.463983 -0.917365,1.904118 -0.09739,0.156978 -0.177076,0.291763 -0.177076,0.299521 0,0.0078 -0.120378,0.21203 -0.267508,0.453937 -0.494391,0.812869 -0.622107,1.132021 -0.695646,1.738374 -0.01832,0.151043 -0.06288,0.374923 -0.09903,0.497512 -0.05455,0.184978 -0.0687,0.371946 -0.08323,1.099207 -0.01868,0.935406 -0.02058,0.94976 -0.148587,1.122799 -0.0672,0.09084 -0.09322,0.105213 -0.132092,0.07296 -0.0521,-0.04324 -0.05627,-0.01492 -0.06265,0.425575 -0.0035,0.244445 -0.0698,0.313093 -0.337023,0.349181 -0.09913,0.01339 -0.206463,0.03812 -0.238518,0.05496 -0.03205,0.01684 -0.147785,0.03662 -0.25718,0.04395 -0.109394,0.0073 -0.260622,0.03739 -0.336061,0.06679 -0.177675,0.06926 -0.375209,0.07071 -0.442659,0.0033 -0.04177,-0.04177 -0.09607,-0.04837 -0.252431,-0.03068 -0.268986,0.03043 -0.315468,-0.0196 -0.219586,-0.236356 0.07302,-0.165074 0.272426,-0.310843 0.482769,-0.352911 0.06162,-0.01233 0.120533,-0.04454 0.130914,-0.0716 0.01038,-0.02705 0.05422,-0.06263 0.09742,-0.07905 0.104375,-0.03968 0.257078,-0.306129 0.279578,-0.487825 0.0099,-0.08015 0.04714,-0.234289 0.08271,-0.342535 0.09078,-0.276332 0.120813,-0.998006 0.06561,-1.576899 -0.04925,-0.516535 -0.0266,-0.630262 0.219206,-1.100627 0.06724,-0.128675 0.122263,-0.255455 0.122263,-0.281735 0,-0.04838 0.04392,-0.158406 0.195847,-0.490633 0.09004,-0.196886 0.276794,-0.696174 0.405998,-1.08541 0.101648,-0.30622 0.202373,-0.754239 0.323795,-1.440208 0.03672,-0.207459 0.107389,-0.519136 0.15704,-0.692616 l 0.09027,-0.315417 -0.14253,-0.169033 c -0.181738,-0.215529 -0.606362,-0.521805 -0.893362,-0.644369 -0.429855,-0.18357 -0.776792,-0.467073 -1.03446,-0.845318 -0.218771,-0.321146 -0.280668,-0.347239 -1.108605,-0.467341 -0.396057,-0.05745 -0.943851,-0.1293 -1.217319,-0.159659 -1.173419,-0.130269 -1.887853,-0.35245 -3.087933,-0.960314 -0.755356,-0.382602 -1.072582,-0.633453 -2.055663,-1.625544 -1.288707,-1.300517 -1.412165,-1.397486 -1.992108,-1.564679 -0.586159,-0.168984 -0.904092,-0.14191 -1.892408,0.161156 -0.374798,0.114931 -0.422202,0.158154 -0.624708,0.569607 -0.05658,0.114959 -0.133734,0.224066 -0.171454,0.242461 -0.750089,0.365794 -0.763278,0.369408 -1.170285,0.320616 -0.167318,-0.02006 -0.491866,-0.04638 -0.721218,-0.05849 -0.509747,-0.02692 -0.516775,-0.03635 -0.313761,-0.420715 0.198734,-0.376264 0.220238,-0.471822 0.333235,-1.480823 0.164133,-1.465611 0.313906,-2.091579 0.836692,-3.496913 0.143826,-0.386628 0.315782,-0.880414 0.382125,-1.097302 0.199919,-0.653581 0.552979,-1.39264 1.09292,-2.287809 0.435062,-0.721288 0.697859,-1.095231 1.404511,-1.998526 0.541936,-0.692743 1.206384,-1.303699 1.762155,-1.620292 0.14766,-0.08411 0.368773,-0.210753 0.491362,-0.281419 0.780221,-0.449756 1.773711,-0.82951 2.375313,-0.907944 0.557549,-0.07269 1.115603,0.01843 1.275316,0.208237 0.315204,0.374599 0.312095,0.808319 -0.0083,1.164729 -0.213543,0.237511 -0.366114,0.306949 -0.745944,0.339492 -0.363177,0.03112 -0.686509,0.147329 -1.394817,0.501328 -1.344871,0.672141 -1.92476,1.295574 -2.546076,2.737255 -0.269183,0.624605 -0.327071,0.830746 -0.327071,1.164723 0,0.363578 0.01318,0.377911 0.394343,0.42877 0.169739,0.02265 0.361149,0.04827 0.425356,0.05694 0.06421,0.0087 0.341962,0.06144 0.617233,0.117274 0.867971,0.176051 1.365129,0.223133 2.335043,0.221137 0.890353,-0.0018 1.038561,-0.01671 1.731679,-0.173786 0.97742,-0.22151 2.261888,-0.784633 3.27476,-1.435686 0.313192,-0.201313 1.195933,-0.743813 1.663098,-1.022079 0.188599,-0.112338 0.481784,-0.315366 0.651523,-0.451172 0.287834,-0.230293 0.685975,-0.486507 1.217319,-0.783376 0.122589,-0.06849 0.353114,-0.243001 0.512278,-0.387797 0.31535,-0.286885 0.50905,-0.392543 0.875193,-0.477398 0.318128,-0.07373 0.572214,-0.198032 0.777543,-0.380393 0.237741,-0.211148 0.683771,-0.422753 0.893906,-0.424087 0.03217,-2.06e-4 0.117037,-0.04011 0.188599,-0.08867 0.217335,-0.147488 1.070901,-0.550802 1.398868,-0.660971 0.754124,-0.253322 1.109125,-0.329234 2.194604,-0.469287 1.21692,-0.157013 2.803159,-0.605433 4.268233,-1.206604 0.160835,-0.066 0.385012,-0.158191 0.498171,-0.204877 0.113159,-0.04669 0.329191,-0.128694 0.48007,-0.182237 0.150879,-0.05354 0.428633,-0.154436 0.617232,-0.224204 0.390398,-0.14442 0.846405,-0.287047 1.320191,-0.412922 0.839895,-0.223142 2.122178,-0.539727 2.571801,-0.634957 0.273468,-0.05792 0.751823,-0.159672 1.063011,-0.226115 0.50478,-0.107776 0.647154,-0.123679 1.320191,-0.147466 0.73896,-0.02612 2.45634,-0.01563 2.89757,0.01769 0.12258,0.0093 0.65495,0.04006 1.18302,0.06844 0.52808,0.02839 1.1376,0.0662 1.35449,0.08402 0.21688,0.01783 0.55636,0.04184 0.75439,0.05337 0.53444,0.03111 1.65047,0.145988 2.33177,0.240017 0.33004,0.04555 0.72353,0.09956 0.87441,0.120011 0.44186,0.0599 1.10168,0.163275 2.09173,0.327704 1.00188,0.166395 1.47485,0.243964 1.6631,0.272756 0.41661,0.06372 1.50601,0.27624 2.28033,0.444843 0.20746,0.04517 0.75525,0.161059 1.21732,0.257524 0.46207,0.09647 1.47278,0.337856 2.24604,0.536424 1.78457,0.458269 3.7552,0.965386 4.44064,1.14274 0.29233,0.07564 0.98671,0.254312 1.54308,0.397052 0.95428,0.244827 1.22444,0.317889 2.2889,0.619027 1.39652,0.395074 2.68829,0.815064 4.02059,1.307202 0.2546,0.09405 0.57865,0.206003 0.7201,0.248785 1.54589,0.46756 3.11639,1.123 3.28291,1.370099 0.0904,0.134089 0.10085,0.269646 0.0232,0.299457 -0.0561,0.02153 -0.76359,-0.07988 -0.89246,-0.127915 -0.41119,-0.153274 -3.71534,-0.587029 -5.60123,-0.735308 -0.38585,-0.03034 -0.77162,-0.06913 -0.85727,-0.0862 -0.30044,-0.05989 -2.01809,-0.157804 -3.32857,-0.189735 -1.24961,-0.03045 -2.95022,0.06584 -4.31967,0.244572 -2.34723,0.306349 -3.29396,0.468788 -4.68068,0.803105 -0.0754,0.01819 -0.82383,0.196139 -1.6631,0.395447 -1.58445,0.376275 -2.66051,0.63267 -3.39477,0.808874 -0.23575,0.05657 -0.65238,0.170408 -0.92585,0.252965 -0.27347,0.08256 -0.86756,0.259046 -1.32019,0.392198 -1.02841,0.302527 -1.14032,0.350976 -1.16946,0.506289 -0.0248,0.132285 -0.16448,0.252915 -0.36857,0.31835 -0.12217,0.03917 -0.13058,0.05002 -0.11174,0.144214 0.029,0.144896 -0.0247,0.220717 -0.22888,0.323443 -0.0983,0.04947 -0.22068,0.138177 -0.27187,0.197126 -0.14878,0.171329 -0.35674,0.625143 -0.47338,1.033028 -0.48415,1.693043 -1.33173,2.870075 -2.73887,3.803456 -1.09888,0.728901 -2.35111,1.359248 -3.747776,1.886541 l -0.709324,0.267797 0.08693,0.137699 c 0.105156,0.166579 0.171649,0.372758 0.323358,1.002678 0.146246,0.607228 0.618669,1.600426 1.029692,2.164777 0.41566,0.570717 1.66861,1.936972 1.82198,1.986745 0.13935,0.04522 0.27184,0.209988 0.4418,0.549419 l 0.18066,0.360803 0.0282,0.538144 c 0.0388,0.739424 0.13906,1.174072 0.37192,1.611511 0.0974,0.182903 0.19599,0.355697 0.21916,0.383987 0.0232,0.02829 0.0505,0.07458 0.0607,0.102872 0.0327,0.09076 0.53498,0.757302 0.62254,0.826182 0.0465,0.03657 0.11714,0.11924 0.15698,0.1837 0.0832,0.134651 0.0536,0.252459 -0.12103,0.481402 -0.0632,0.08281 -0.0851,0.144163 -0.0713,0.199139 0.0231,0.09199 -0.1091,0.303666 -0.38593,0.618016 -0.27039,0.307041 -0.45679,0.597466 -0.43253,0.673921 0.019,0.05986 -0.17872,0.334637 -0.26877,0.373518 -0.016,0.0069 -0.10522,0.08019 -0.19832,0.162881 -0.0931,0.08269 -0.18365,0.150344 -0.20122,0.150344 -0.0366,0 -0.10268,-0.10742 -0.15826,-0.25718 -0.0271,-0.07289 -0.057,-0.09947 -0.10287,-0.0912 -0.0356,0.0064 -0.12616,0.01996 -0.20129,0.03008 -0.0751,0.01013 -0.18557,0.05576 -0.24542,0.101409 -0.12685,0.09675 -0.33369,0.140292 -0.40101,0.08442 -0.0347,-0.0288 -0.0878,-0.02435 -0.21125,0.01771 -0.13259,0.04517 -0.1861,0.04852 -0.27311,0.01705 -0.084,-0.03036 -0.15006,-0.02852 -0.29483,0.0082 -0.32103,0.08141 -0.490971,0.09558 -0.55806,0.04652 -0.0899,-0.06574 -0.08047,-0.236998 0.02275,-0.413124 0.136316,-0.23261 0.26999,-0.331958 0.63297,-0.470434 0.062,-0.02367 0.13148,-0.06938 0.1543,-0.101574 0.0255,-0.0359 0.11305,-0.06794 0.2265,-0.08284 0.20401,-0.0268 0.44208,-0.133138 0.47186,-0.21077 0.0105,-0.02744 0.0379,-0.04989 0.0609,-0.04989 0.1412,0 0.27501,-0.338019 0.25792,-0.651523 -0.006,-0.103729 -0.008,-0.32676 -0.004,-0.495623 0.0109,-0.544445 -0.13608,-1.131882 -0.42949,-1.716126 -0.25647,-0.51071 -0.40695,-0.757376 -0.58274,-0.955275 -0.0814,-0.09162 -0.14797,-0.184332 -0.14797,-0.206017 0,-0.02169 -0.0367,-0.108743 -0.0815,-0.193463 -0.0448,-0.08472 -0.093,-0.208043 -0.10695,-0.274052 -0.0595,-0.280826 -0.526067,-0.909467 -1.007607,-1.357612 -0.318468,-0.296382 -1.150219,-0.87683 -1.547185,-1.079724 -1.328704,-0.679115 -2.873649,-1.836304 -3.48386,-2.609469 l -0.09952,-0.126091 0.01195,0.345596 c 0.0081,0.234841 -0.0055,0.418111 -0.04237,0.57187 -0.274514,1.143458 -0.280366,1.957929 -0.02319,3.226709 0.0172,0.08487 0.05068,0.254609 0.07438,0.377198 0.05611,0.290157 0.167397,0.571557 0.305279,0.771961 0.09048,0.131514 0.112366,0.199229 0.120107,0.371667 0.0052,0.115969 0.02815,0.325485 0.051,0.465589 0.06019,0.369143 0.0058,0.520658 -0.317894,0.885492 -0.07114,0.08019 -0.147811,0.188204 -0.170371,0.240035 -0.02256,0.05183 -0.09025,0.160196 -0.150421,0.240813 -0.249414,0.334159 -0.559592,1.035437 -0.634103,1.433633 -0.03853,0.205898 -0.09194,0.45287 -0.118705,0.548827 -0.0289,0.103643 -0.04866,0.332412 -0.04866,0.563543 0,0.636479 -0.07908,0.734201 -0.678238,0.838085 -0.175003,0.03034 -0.357319,0.07005 -0.405148,0.08823 -0.04783,0.01818 -0.152609,0.03306 -0.232844,0.03306 -0.116935,0 -0.182724,0.02749 -0.331542,0.13852 -0.22139,0.165179 -0.2936,0.18747 -0.428152,0.13217 -0.05584,-0.02295 -0.116965,-0.03744 -0.135825,-0.03219 -0.08038,0.02236 -0.412945,0.102026 -0.428633,0.102681 -0.0094,3.95e-4 -0.05572,-0.01916 -0.102872,-0.04346 z"
       id="path1119"
       inkscape:connector-curvature="0" />
  </g>
</svg>
