<?xml version="1.0" encoding="UTF-8" standalone="no"?>
<!-- Created with Inkscape (http://www.inkscape.org/) -->

<svg
   xmlns:dc="http://purl.org/dc/elements/1.1/"
   xmlns:cc="http://creativecommons.org/ns#"
   xmlns:rdf="http://www.w3.org/1999/02/22-rdf-syntax-ns#"
   xmlns:svg="http://www.w3.org/2000/svg"
   xmlns="http://www.w3.org/2000/svg"
   xmlns:sodipodi="http://sodipodi.sourceforge.net/DTD/sodipodi-0.dtd"
   xmlns:inkscape="http://www.inkscape.org/namespaces/inkscape"
   width="57.184216mm"
   height="34.72506mm"
   viewBox="0 0 57.184204 34.725059"
   version="1.1"
   id="svg8"
   inkscape:version="0.92.4 (5da689c313, 2019-01-14)"
   sodipodi:docname="pentaceratops.svg">
  <defs
     id="defs2" />
  <sodipodi:namedview
     id="base"
     pagecolor="#ffffff"
     bordercolor="#666666"
     borderopacity="1.0"
     inkscape:pageopacity="0.0"
     inkscape:pageshadow="2"
     inkscape:zoom="0.7"
     inkscape:cx="116.48876"
     inkscape:cy="-63.92404"
     inkscape:document-units="mm"
     inkscape:current-layer="layer1"
     showgrid="false"
     inkscape:window-width="1366"
     inkscape:window-height="745"
     inkscape:window-x="-8"
     inkscape:window-y="-8"
     inkscape:window-maximized="1" />
  <metadata
     id="metadata5">
    <rdf:RDF>
      <cc:Work
         rdf:about="">
        <dc:format>image/svg+xml</dc:format>
        <dc:type
           rdf:resource="http://purl.org/dc/dcmitype/StillImage" />
        <dc:title></dc:title>
      </cc:Work>
    </rdf:RDF>
  </metadata>
  <g
     inkscape:label="Camada 1"
     inkscape:groupmode="layer"
     id="layer1"
     transform="translate(-70.189278,-24.422382)">
    <path
       style="fill:#d5d5d5;fill-opacity:1;stroke-width:1"
       d="m 101.40571,59.138784 c -0.66467,-0.0344 -0.82037,-0.08942 -0.87814,-0.310341 -0.081,-0.309586 -0.19097,-0.3363 -0.42425,-0.103018 -0.206152,0.206149 -0.177652,0.489752 -0.260572,-2.593187 -0.0634,-2.357485 0.0388,-3.971705 0.291632,-4.606727 0.0719,-0.180525 -0.314252,-0.204705 -3.029581,-0.189721 l -3.111963,0.01717 -0.342245,0.465579 c -0.188233,0.256069 -0.777954,0.869023 -1.310492,1.36212 -0.86492,0.800864 -1.006458,1.006939 -1.326275,1.931012 -0.658508,1.902675 -0.464623,3.029826 0.559066,3.250135 0.523663,0.112696 1.192581,0.441161 1.192581,0.585602 0,0.218132 -3.588132,0.181652 -3.672164,-0.03733 -0.132024,-0.344051 0.184576,-3.962542 0.41594,-4.753871 0.266839,-0.91266 0.253088,-0.929562 -0.460196,-0.565672 -1.158186,0.590863 -2.410457,2.384538 -2.587779,3.706576 -0.09408,0.701397 0.07731,0.934135 0.837572,1.137364 0.562584,0.150388 0.914957,0.351711 0.914957,0.522749 0,0.04822 -0.543098,0.07998 -1.206883,0.07056 -1.165829,-0.01653 -1.224703,-0.03299 -1.730766,-0.483873 l -0.523883,-0.466758 0.470462,-1.66724 c 0.258754,-0.916981 0.629395,-1.941106 0.823648,-2.275835 0.194253,-0.334727 0.577442,-1.167209 0.851531,-1.84996 0.588563,-1.466097 0.812574,-1.89609 1.342096,-2.576187 l 0.394941,-0.507248 -0.62859,-0.971698 c -1.462523,-2.260831 -3.049061,-2.597124 -6.980965,-1.47973 -2.080816,0.59134 -3.643638,0.897832 -6.121779,1.200566 -0.682751,0.08341 -2.011338,0.333116 -2.952416,0.554909 -0.941078,0.221795 -1.732827,0.381487 -1.759442,0.354872 -0.08492,-0.08492 2.029276,-1.016599 3.953246,-1.742109 1.024126,-0.386188 2.276649,-0.859579 2.783384,-1.051978 1.008504,-0.382915 2.309686,-1.250436 3.699298,-2.466387 1.615469,-1.413582 4.189835,-3.285649 5.064205,-3.682668 1.255076,-0.569882 2.903577,-1.016145 6.314971,-1.709509 1.668946,-0.339212 3.686164,-0.827889 4.482706,-1.085948 2.465647,-0.798803 2.823523,-0.777403 5.893975,0.352438 2.00551,0.737969 4.76418,1.500491 5.42852,1.500491 0.59009,0 0.8391,-0.564763 0.4415,-1.001352 -0.41876,-0.459832 -0.58655,-0.850658 -0.50275,-1.171098 0.045,-0.172034 -0.0688,-0.531084 -0.28551,-0.900862 -0.19817,-0.338153 -0.32369,-0.710241 -0.27894,-0.826863 0.0447,-0.116621 -0.082,-0.470755 -0.28157,-0.786964 -0.2814,-0.445764 -0.32745,-0.617683 -0.20498,-0.765249 0.12305,-0.148262 0.0735,-0.301057 -0.22423,-0.691389 -0.32533,-0.426534 -0.35708,-0.541258 -0.21343,-0.771278 0.14611,-0.233955 0.10328,-0.346708 -0.31921,-0.840288 -0.57932,-0.676801 -0.60079,-0.796279 -0.14314,-0.796279 0.53256,0 0.41418,-0.179156 -0.4133,-0.62552 -0.91483,-0.493475 -0.9334,-0.572803 -0.16124,-0.688596 0.99666,-0.149458 1.03284,-0.23414 0.42048,-0.984072 -0.68935,-0.844215 -1.2942,-1.662969 -1.2942,-1.751897 0,-0.125577 0.7486,0.144087 1.61674,0.582391 1.07083,0.540637 1.00392,0.555488 1.00392,-0.222827 0,-0.772206 0.17387,-1.443764 0.50409,-1.947024 l 0.23779,-0.362383 0.17375,0.940096 c 0.24774,1.340392 0.57151,1.945125 1.07195,2.002196 0.75543,0.08615 1.00222,0.367682 1.08135,1.233592 0.0871,0.953391 0.66683,2.513508 1.84465,4.964373 0.4837,1.006499 0.87946,1.918342 0.87946,2.026318 0,0.107975 0.0626,0.235031 0.13919,0.282346 0.12919,0.07984 1.24514,2.317967 1.42666,2.861253 0.11872,0.355354 0.34263,0.309421 2.12489,-0.435894 4.1396,-1.731131 6.4747,-1.841226 9.9613,-0.469652 1.26369,0.497118 1.27264,0.574827 0.04,0.34744 -1.51944,-0.280292 -4.16288,-0.27051 -5.26276,0.01948 -1.67589,0.441851 -3.79272,1.857678 -3.64157,2.435642 0.0398,0.152265 0.002,0.361749 -0.0842,0.465522 -0.52322,0.630449 1.1678,1.465005 2.96848,1.465005 1.07948,0 1.16302,0.129871 0.46684,0.725775 -0.30398,0.260199 -0.5527,0.521292 -0.5527,0.58021 0,0.05892 0.37158,0.504333 0.82572,0.989813 0.45414,0.485481 0.86751,1.049222 0.91859,1.252755 0.15289,0.609143 -0.34875,1.835314 -0.90265,2.206375 -0.60988,0.408571 -0.65698,0.399496 -0.75938,-0.146343 -0.0938,-0.499886 -0.95653,-1.608632 -1.25173,-1.608632 -0.10035,0 -0.51143,-0.152418 -0.91351,-0.338707 -0.83283,-0.385853 -0.87288,-0.370541 -1.5303,0.584987 l -0.41761,0.606969 0.5327,0.55025 c 0.59089,0.610369 1.01029,0.860431 2.04284,1.218017 l 0.69672,0.241283 -0.55172,0.110351 c -0.85636,0.171287 -2.2897,0.140883 -2.87386,-0.06096 -0.57939,-0.200191 -1.47091,-0.912549 -1.47091,-1.175305 0,-0.301769 -0.88458,-1.026833 -1.71658,-1.407038 -1.07736,-0.492328 -2.33557,-0.572855 -4.14179,-0.265081 -1.85028,0.31528 -2.12563,0.489746 -2.40115,1.521422 -0.081,0.303444 -0.25102,0.699249 -0.37774,0.879567 -0.33304,0.473906 -0.17326,3.597565 0.21167,4.138151 0.14174,0.199059 0.50861,0.889417 0.81527,1.534126 0.30666,0.644711 0.76469,1.420474 1.01784,1.723919 0.25316,0.303445 0.63679,0.813561 0.85252,1.133593 0.21573,0.320031 0.60238,0.705865 0.85922,0.857407 0.597,0.352237 0.61566,0.584073 0.0336,0.417133 -0.23838,-0.06837 -0.47953,-0.09581 -0.53587,-0.06099 -0.0564,0.03483 -0.30245,-0.0064 -0.5469,-0.09162 -0.3553,-0.123861 -0.46933,-0.116614 -0.56857,0.03614 -0.0996,0.153249 -0.1749,0.125568 -0.38061,-0.13985 -0.24575,-0.317073 -0.26261,-0.319958 -0.40307,-0.06896 -0.13616,0.243299 -0.15712,0.234303 -0.29423,-0.126333 -0.0812,-0.213556 -0.14763,-0.445076 -0.14763,-0.514486 0,-0.06941 -0.38301,-0.546399 -0.85113,-1.059973 -1.45461,-1.595863 -2.41954,-3.21874 -2.61877,-4.404419 -0.0935,-0.556632 -0.2045,-1.011515 -0.24661,-1.010852 -0.22485,0.0035 -1.11152,1.655325 -1.11586,2.078766 -0.003,0.259446 -0.0936,0.875164 -0.20205,1.368262 -0.10846,0.493098 -0.19939,1.382266 -0.20205,1.975931 -0.005,1.205817 0.17132,1.495965 1.0977,1.802083 0.25461,0.08414 0.49157,0.24045 0.52658,0.347364 0.043,0.131254 -0.007,0.167244 -0.15414,0.110809 -0.1198,-0.04597 -0.39206,-0.04034 -0.60502,0.0125 -0.21297,0.05285 -0.75078,0.07727 -1.19514,0.05428 z"
       id="path1145"
       inkscape:connector-curvature="0" />
  </g>
</svg>
