<?xml version="1.0" encoding="UTF-8" standalone="no"?>
<!-- Created with Inkscape (http://www.inkscape.org/) -->

<svg
   xmlns:dc="http://purl.org/dc/elements/1.1/"
   xmlns:cc="http://creativecommons.org/ns#"
   xmlns:rdf="http://www.w3.org/1999/02/22-rdf-syntax-ns#"
   xmlns:svg="http://www.w3.org/2000/svg"
   xmlns="http://www.w3.org/2000/svg"
   xmlns:sodipodi="http://sodipodi.sourceforge.net/DTD/sodipodi-0.dtd"
   xmlns:inkscape="http://www.inkscape.org/namespaces/inkscape"
   width="135.48677mm"
   height="42.196404mm"
   viewBox="0 0 135.48677 42.196404"
   version="1.1"
   id="svg852"
   inkscape:version="0.92.4 (5da689c313, 2019-01-14)"
   sodipodi:docname="plateosaurus.svg">
  <defs
     id="defs846" />
  <sodipodi:namedview
     id="base"
     pagecolor="#ffffff"
     bordercolor="#666666"
     borderopacity="1.0"
     inkscape:pageopacity="0.0"
     inkscape:pageshadow="2"
     inkscape:zoom="0.98994949"
     inkscape:cx="157.55142"
     inkscape:cy="-82.71486"
     inkscape:document-units="mm"
     inkscape:current-layer="layer1"
     showgrid="false"
     inkscape:window-width="1366"
     inkscape:window-height="745"
     inkscape:window-x="-8"
     inkscape:window-y="-8"
     inkscape:window-maximized="1" />
  <metadata
     id="metadata849">
    <rdf:RDF>
      <cc:Work
         rdf:about="">
        <dc:format>image/svg+xml</dc:format>
        <dc:type
           rdf:resource="http://purl.org/dc/dcmitype/StillImage" />
        <dc:title></dc:title>
      </cc:Work>
    </rdf:RDF>
  </metadata>
  <g
     inkscape:label="Camada 1"
     inkscape:groupmode="layer"
     id="layer1"
     transform="translate(-9.2247636,-6.1530447)">
    <path
       style="fill:#d5d5d5;fill-opacity:1;stroke-width:1"
       d="m 79.560739,48.2525 c -0.117657,-0.118234 -2.039276,-0.274505 -4.270264,-0.347265 -4.043986,-0.13189 -4.05943,-0.134761 -5.072228,-0.943039 -0.55874,-0.44591 -1.233917,-1.249288 -1.500392,-1.785286 -0.455271,-0.915747 -0.458761,-1.052037 -0.05785,-2.259066 0.459579,-1.383659 0.334825,-2.083461 -0.614619,-3.447687 -1.071218,-1.539198 -0.842031,-2.833976 0.831712,-4.698722 0.504233,-0.561774 1.161302,-1.504363 1.460151,-2.094637 0.355214,-0.701607 1.061178,-1.41704 2.038781,-2.066134 1.264812,-0.839788 1.44439,-1.054383 1.164516,-1.391611 -0.586851,-0.707112 -1.663851,-1.105624 -3.922387,-1.451366 -1.468712,-0.224835 -2.486093,-0.539541 -3.03276,-0.93812 -0.452445,-0.32988 -1.358407,-0.888569 -2.013251,-1.241528 -1.403382,-0.75642 -7.391442,-2.958187 -9.065712,-3.333401 C 53.725721,21.855573 45.012233,21.239445 38.510691,21.052877 29.429981,20.7923 26.670181,20.194011 19.592983,16.951764 13.619439,14.215134 11.506166,13.032171 10.349758,11.777615 9.4602869,10.812653 8.9598129,9.8052362 9.3699009,9.8052362 c 0.05262,0 1.0944131,0.4587158 2.3151041,1.0193708 3.752637,1.723554 7.12678,2.402218 12.935062,2.601717 4.951728,0.170077 8.113286,-0.199898 15.081249,-1.764858 6.191787,-1.390634 9.287115,-1.9618248 14.349367,-2.6479338 2.221544,-0.301096 5.586986,-0.854692 7.478757,-1.230212 6.041292,-1.199213 8.086431,-1.4415 13.493749,-1.598607 11.80357,-0.342943 22.239032,2.103215 30.523511,7.1549618 3.3492,2.04229 4.01027,2.289773 6.85172,2.56508 4.63313,0.448905 7.64395,-0.402328 15.9719,-4.515651 6.05584,-2.9910878 7.42223,-3.3894788 10.02802,-2.9237988 2.27364,0.406323 5.84106,2.3028638 6.19665,3.2943178 0.18702,0.521436 0.15325,0.797492 -0.13251,1.083255 -0.50371,0.503708 -1.44772,0.534352 -4.46234,0.144849 -4.55943,-0.589098 -5.90453,-0.155819 -12.91493,4.160149 -5.60191,3.448825 -6.8137,4.0747 -11.07921,5.72231 -3.83213,1.480212 -5.41876,2.402787 -8.34661,4.853313 -2.68579,2.247934 -5.10085,5.925878 -3.86277,5.882703 5.44175,-0.189759 7.40978,-0.839806 7.7313,-2.553673 0.26579,-1.416807 0.71584,-0.542923 0.49807,0.967136 l -0.17018,1.180052 0.76598,-0.479001 c 0.42129,-0.263451 1.03328,-0.794475 1.35998,-1.180055 0.68784,-0.811805 0.74749,-0.648256 0.22215,0.609068 -0.20596,0.492935 -0.62268,1.029081 -0.92604,1.191435 -1.49541,0.800317 0.11675,0.894461 2.03541,0.118861 0.79015,-0.319405 0.84516,-0.311174 0.61917,0.09265 -0.13641,0.243764 -0.61416,0.566481 -1.06166,0.717153 -0.97532,0.328385 -1.0812,0.746382 -0.24188,0.954874 l 0.61093,0.151757 -0.58532,0.19363 c -0.32623,0.107921 -0.83488,0.06006 -1.14912,-0.108109 -0.31009,-0.165957 -0.88014,-0.232767 -1.26676,-0.148471 -1.37673,0.300175 -6.91281,2.143514 -6.91671,2.303044 -0.002,0.0893 0.29943,0.465749 0.67024,0.836563 0.79853,0.798531 2.9364,1.374854 4.30719,1.161126 0.8954,-0.139605 0.93139,-0.12128 0.45814,0.233286 -0.28247,0.211635 -0.73598,0.384791 -1.0078,0.384791 -0.75241,0 -0.30505,0.466207 1.15947,1.208336 0.82034,0.415698 1.53973,0.609013 1.8995,0.510435 0.56465,-0.154713 0.56628,-0.148432 0.0655,0.251904 -0.6338,0.506667 -0.80156,0.507815 -2.42092,0.01656 -0.71435,-0.216704 -1.34934,-0.395298 -1.41109,-0.396875 -0.0618,-0.0016 0.16736,0.294793 0.50914,0.658596 0.34472,0.366937 0.91896,0.661458 1.28966,0.661458 0.47826,0 0.58706,0.08119 0.38268,0.28558 -0.43457,0.434563 -2.65599,0.0058 -3.47702,-0.671142 -0.38987,-0.321442 -2.31134,-1.407985 -4.26993,-2.414542 -3.925489,-2.017382 -5.396449,-3.25664 -5.845649,-4.924851 -0.25389,-0.942861 -0.17945,-2.98805 0.16968,-4.661947 0.12325,-0.590905 0.0823,-0.606737 -1.13839,-0.440325 -2.18918,0.298439 -10.353297,5.553744 -11.117586,7.156473 -0.401614,0.84219 -0.384154,0.965118 0.455467,3.20711 1.13098,3.019981 1.55103,3.584138 3.524334,4.733417 2.410341,1.403815 3.814117,2.854232 2.150158,2.221595 -0.373274,-0.14192 -1.749303,-0.258035 -3.057837,-0.258035 -4.471397,0 -5.715196,-0.69618 -5.96932,-3.341145 -0.09331,-0.971174 -0.4983,-2.297605 -1.080246,-3.538021 -0.512035,-1.091407 -0.989439,-2.494058 -1.060897,-3.117004 -0.121327,-1.057698 -0.0532,-1.208796 1.029885,-2.284039 0.637892,-0.633275 1.374897,-1.522576 1.637787,-1.976226 l 0.477977,-0.824814 h -0.907925 c -0.794044,0 -0.927539,0.09806 -1.064276,0.781743 -0.205827,1.029134 -0.750766,1.353725 -5.10269,3.039393 -4.232336,1.63935 -4.509844,1.914795 -4.77348,4.738012 -0.211995,2.270199 0.179165,2.880461 2.516039,3.925361 3.344648,1.495512 5.022783,2.35444 5.334997,2.730638 0.341167,0.411077 0.254839,1.093073 -0.09399,0.742534 z"
       id="path1408"
       inkscape:connector-curvature="0" />
  </g>
</svg>
