<?xml version="1.0" encoding="UTF-8" standalone="no"?>
<!-- Created with Inkscape (http://www.inkscape.org/) -->

<svg
   xmlns:dc="http://purl.org/dc/elements/1.1/"
   xmlns:cc="http://creativecommons.org/ns#"
   xmlns:rdf="http://www.w3.org/1999/02/22-rdf-syntax-ns#"
   xmlns:svg="http://www.w3.org/2000/svg"
   xmlns="http://www.w3.org/2000/svg"
   xmlns:sodipodi="http://sodipodi.sourceforge.net/DTD/sodipodi-0.dtd"
   xmlns:inkscape="http://www.inkscape.org/namespaces/inkscape"
   width="148.82085mm"
   height="44.363354mm"
   viewBox="0 0 148.82084 44.363354"
   version="1.1"
   id="svg8"
   inkscape:version="0.92.4 (5da689c313, 2019-01-14)"
   sodipodi:docname="spinosaurus.svg">
  <defs
     id="defs2" />
  <sodipodi:namedview
     id="base"
     pagecolor="#ffffff"
     bordercolor="#666666"
     borderopacity="1.0"
     inkscape:pageopacity="0.0"
     inkscape:pageshadow="2"
     inkscape:zoom="0.35"
     inkscape:cx="324.43472"
     inkscape:cy="-186.34713"
     inkscape:document-units="mm"
     inkscape:current-layer="layer1"
     showgrid="false"
     inkscape:window-width="1366"
     inkscape:window-height="745"
     inkscape:window-x="-8"
     inkscape:window-y="-8"
     inkscape:window-maximized="1" />
  <metadata
     id="metadata5">
    <rdf:RDF>
      <cc:Work
         rdf:about="">
        <dc:format>image/svg+xml</dc:format>
        <dc:type
           rdf:resource="http://purl.org/dc/dcmitype/StillImage" />
        <dc:title></dc:title>
      </cc:Work>
    </rdf:RDF>
  </metadata>
  <g
     inkscape:label="Camada 1"
     inkscape:groupmode="layer"
     id="layer1"
     transform="translate(-24.151051,-58.945397)">
    <path
       style="fill:#d5d5d5;fill-opacity:1;stroke-width:1"
       d="m 77.830575,102.92839 c 0,-0.23885 0.573476,-0.55065 1.521354,-0.82716 0.836745,-0.24409 1.843669,-0.56016 2.23761,-0.70238 0.393941,-0.14221 0.77011,-0.21647 0.835933,-0.16502 0.183467,0.1434 1.071827,-1.10881 1.606264,-2.264154 0.549846,-1.18865 0.474099,-2.72932 -0.263716,-5.363839 l -0.458202,-1.63611 -1.218269,0.08629 c -0.670047,0.04746 -2.316345,0.173737 -3.658441,0.280612 l -2.440176,0.194318 1.964468,1.920346 c 1.884852,1.842523 2.521895,2.921953 2.113968,3.581993 -0.13997,0.22648 -0.251002,0.21296 -0.419992,-0.0511 -0.139382,-0.21781 -0.181924,0.16127 -0.108182,0.96394 0.08049,0.8761 0.05667,1.054824 -0.07053,0.52917 -0.10564,-0.43657 -0.291044,-0.75606 -0.412009,-0.70999 -0.120962,0.0461 -0.383897,-0.13252 -0.584298,-0.39687 -0.350835,-0.4628 -0.364678,-0.46287 -0.372782,-0.002 -0.0049,0.2814 -0.129122,0.40403 -0.301342,0.29759 -0.20102,-0.12423 -0.232214,0.0161 -0.09942,0.44741 0.106428,0.34565 0.106939,0.54675 0.0011,0.44689 -0.105804,-0.0998 -0.488246,0.13827 -0.849871,0.529174 -0.529725,0.5726 -0.622678,0.60789 -0.478329,0.18155 0.422957,-1.249194 0.397714,-1.700534 -0.110318,-1.972414 -0.282247,-0.15106 -0.708758,-0.1996 -0.947801,-0.10787 -0.360278,0.13825 -0.30698,0.25306 0.311563,0.67112 l 0.746185,0.50434 -0.79375,-0.18232 c -1.42807,-0.32803 -2.892893,-1.64521 -4.507185,-4.052909 -1.784471,-2.661518 -1.791443,-2.665045 -5.267375,-2.665045 -1.207899,0 -2.79291,-0.185618 -3.579391,-0.419179 -1.406626,-0.417724 -3.246996,-1.424379 -3.575349,-1.955665 -0.09505,-0.153792 -0.28365,-0.211122 -0.419116,-0.127397 -0.135464,0.08372 -0.246301,0.01911 -0.246301,-0.143592 0,-0.162698 -0.119062,-0.222229 -0.264583,-0.132292 -0.145521,0.08994 -0.264583,0.05115 -0.264583,-0.08619 0,-0.137343 -0.68461,-0.331259 -1.521355,-0.430925 -1.462936,-0.174254 -4.605239,-1.239612 -5.291666,-1.794073 -0.181901,-0.146931 -0.334349,-0.163272 -0.338775,-0.03631 -0.0044,0.126957 -0.130805,0.01998 -0.280845,-0.237752 -0.15004,-0.257723 -0.384543,-0.399524 -0.521121,-0.315117 -0.136577,0.08441 -0.248322,0.02738 -0.248322,-0.126724 0,-0.15411 -0.238125,-0.280199 -0.529166,-0.280199 -0.291042,0 -0.529167,-0.12609 -0.529167,-0.280199 0,-0.15411 -0.119062,-0.206614 -0.264583,-0.116676 -0.145521,0.08994 -0.264584,0.03041 -0.264584,-0.132292 0,-0.162698 -0.119062,-0.222229 -0.264583,-0.132292 -0.145521,0.08994 -0.264583,0.06451 -0.264583,-0.05651 0,-0.263107 -1.864114,-1.294895 -2.168495,-1.200262 -0.117015,0.03638 -0.212755,-0.05292 -0.212755,-0.198437 0,-0.145521 -0.178594,-0.264583 -0.396875,-0.264583 -0.218281,0 -0.396875,-0.119063 -0.396875,-0.264584 0,-0.145521 -0.149954,-0.264583 -0.33323,-0.264583 -0.183277,0 -0.484828,-0.242745 -0.670112,-0.539433 -0.185285,-0.296688 -0.444733,-0.472778 -0.57655,-0.39131 -0.131818,0.08147 -0.336283,-0.01424 -0.454368,-0.212667 -0.310627,-0.521994 -1.548903,-1.270649 -1.757173,-1.062379 -0.09753,0.09752 -0.177317,0.03139 -0.177317,-0.146979 0,-0.178363 -0.119063,-0.250711 -0.264583,-0.160774 -0.145521,0.08994 -0.264584,0.03041 -0.264584,-0.132292 0,-0.162697 -0.108893,-0.228512 -0.241985,-0.146259 -0.133092,0.08226 -0.285068,0.02032 -0.337724,-0.13766 -0.05266,-0.15797 -0.806966,-0.460808 -1.676244,-0.672975 -0.869278,-0.212167 -1.81863,-0.46047 -2.109672,-0.551784 -1.135762,-0.356345 -4.609062,-0.359533 -6.832098,-0.0063 -2.085276,0.33137 -2.423842,0.326118 -3.175,-0.04925 -1.473713,-0.736446 -1.150972,-2.702216 0.495947,-3.020742 0.554692,-0.107281 2.825612,-1.068503 3.690318,-1.562016 0.291042,-0.166106 1.194231,-0.626544 2.007087,-1.023196 0.812856,-0.396651 1.844631,-1.087895 2.292833,-1.536096 1.108872,-1.108873 1.991312,-1.425584 2.514449,-0.902447 0.308507,0.308507 0.968284,0.397166 2.774794,0.372869 3.88888,-0.0523 5.330307,0.534505 8.470344,3.448296 1.417895,1.315733 2.823621,2.650167 3.123833,2.965408 0.300213,0.315241 0.716931,0.619333 0.926042,0.675761 3.624453,0.978045 4.244906,1.002173 5.804159,0.225714 1.893702,-0.943003 2.644032,-1.537738 3.050008,-2.417528 0.208415,-0.451659 0.493033,-0.999792 0.632481,-1.218074 0.833298,-1.304362 1.544741,-3.577585 2.050209,-6.55089 0.08063,-0.474291 0.25251,-0.927802 0.381953,-1.007802 0.129442,-0.08 0.235349,-0.436084 0.235349,-0.791298 0,-0.831438 1.606047,-2.436528 3.24303,-3.241099 0.683596,-0.335985 1.311187,-0.721373 1.394653,-0.85642 0.46528,-0.752843 4.931105,-1.437819 8.723775,-1.338068 2.715416,0.07142 6.766266,-0.360982 8.768051,-0.935929 0.747845,-0.214794 1.998001,-0.444772 2.778125,-0.511062 0.780124,-0.06629 2.073251,-0.261297 2.873615,-0.433347 0.80036,-0.17205 1.99099,-0.339588 2.64583,-0.372306 0.65485,-0.03272 2.50031,-0.13557 4.10104,-0.22856 1.60073,-0.09299 3.064426,-0.06242 3.252666,0.06795 0.18824,0.13036 0.4736,1.060224 0.63412,2.066365 0.16053,1.00614 0.4566,2.0213 0.65795,2.255909 0.69897,0.814448 0.90709,2.243421 0.97832,6.717187 0.0783,4.915314 0.13991,5.153499 1.83946,7.106939 l 0.88876,1.021522 3.1504,-0.41224 c 2.06572,-0.270306 3.56034,-0.336888 4.34103,-0.193383 0.65485,0.120372 2.32172,0.412174 3.70417,0.648449 3.84031,0.656349 6.62327,1.222728 7.9375,1.615415 0.65484,0.195665 1.6603,0.434932 2.23434,0.531704 0.57405,0.09677 1.61767,0.466792 2.31917,0.822267 0.70149,0.355473 2.01776,0.835121 2.92503,1.065882 0.90727,0.230762 1.76865,0.492371 1.91417,0.581356 0.14552,0.08899 0.38364,0.189463 0.52916,0.223284 0.14552,0.03382 1.09802,0.255882 2.11667,0.493464 4.33469,1.011008 6.73453,1.490769 8.59896,1.719051 1.0914,0.133636 2.9964,0.421947 4.23333,0.640694 1.23693,0.218747 2.96333,0.402273 3.83646,0.407834 2.57292,0.0164 7.74189,0.713349 10.51878,1.418291 3.58792,0.910834 6.03481,2.787473 6.86198,5.262796 0.15791,0.472548 0.57883,1.251955 0.93537,1.732018 0.71171,0.958277 0.63849,1.819617 -0.12826,1.508817 -0.94906,-0.3847 -3.72836,-0.44872 -6.50292,-0.14979 -5.87084,0.63253 -20.36327,0.22331 -27.77459,-0.784262 -2.45582,-0.33387 -10.44671,-1.810782 -14.9989,-2.772164 -2.68164,-0.566336 -5.31461,-1.027711 -7.40834,-1.298157 -0.3638,-0.04699 -0.88287,-0.178464 -1.15349,-0.292159 -0.27061,-0.113694 -0.86593,-0.218733 -1.32291,-0.233423 -0.45699,-0.01468 -0.89042,-0.08866 -0.96318,-0.16438 -0.0728,-0.07572 -1.3496,-0.340855 -2.83743,-0.589188 -1.86156,-0.310713 -3.14044,-0.691954 -4.10104,-1.222536 -1.80583,-0.997442 -4.26592,-1.143148 -5.16462,-0.305888 -0.316126,0.294521 -0.693206,0.535496 -0.837956,0.535496 -0.14475,0 -0.64306,0.472715 -1.10737,1.050481 -0.4643,0.577765 -0.94616,0.987456 -1.0708,0.910426 -0.12464,-0.07703 -0.22661,-0.0069 -0.22661,0.15576 0,0.162697 -0.11906,0.222229 -0.26458,0.132291 -0.14553,-0.08994 -0.26459,-0.04117 -0.26459,0.108374 0,0.149542 -0.17859,0.203361 -0.39687,0.119599 -0.21828,-0.08376 -0.39688,-0.03164 -0.39688,0.115824 0,0.147466 -0.23812,0.205851 -0.52916,0.129741 -0.29586,-0.07737 -0.52917,-0.0081 -0.52917,0.157062 0,0.162494 -0.20836,0.293619 -0.46302,0.291391 -0.3957,-0.0035 -0.40532,-0.04134 -0.0662,-0.260532 0.29243,-0.188984 0.11836,-0.256479 -0.66146,-0.256479 -0.77982,0 -0.95389,0.06749 -0.66146,0.256479 0.26459,0.170987 0.28663,0.257831 0.0661,0.260532 -0.1819,0.0021 -0.33073,0.130141 -0.33073,0.28425 0,0.154109 0.13182,0.198729 0.29293,0.09916 0.19712,-0.121827 0.23456,0.0029 0.11447,0.381259 -0.10988,0.346173 -0.0639,0.562301 0.11956,0.562301 0.16391,0 0.22762,0.113908 0.14158,0.253129 -0.14862,0.24047 0.77156,2.169583 1.58811,3.329423 0.34036,0.48344 0.30855,0.67417 -0.30446,1.8257 -0.37648,0.70723 -0.76178,1.826064 -0.85623,2.486294 -0.20775,1.45237 -0.47318,1.55303 -4.425534,1.67823 -1.954149,0.0619 -2.668055,-10e-4 -2.667881,-0.23482 1.99e-4,-0.2695 0.470485,-0.61853 0.970376,-0.72019 0.07276,-0.0148 0.278659,-0.11988 0.457551,-0.23353 0.178896,-0.11364 0.55802,-0.082 0.842503,0.0702 0.665353,0.35609 1.387842,0.37902 0.83041,0.0264 -0.301061,-0.19047 -0.232778,-0.28008 0.31895,-0.41855 0.834091,-0.20935 1.994425,-1.640294 2.211925,-2.727784 0.26093,-1.30469 -0.578692,-2.62997 -2.393863,-3.778519 -1.054357,-0.667142 -1.640525,-0.904417 -1.706478,-0.690766 -0.05526,0.17899 -0.389556,0.946779 -0.742892,1.706205 -0.353337,0.75942 -0.708898,1.79035 -0.790135,2.29096 -0.08155,0.50253 -0.60797,1.46718 -1.175338,2.153774 -0.5652,0.68397 -1.027633,1.40093 -1.027633,1.59324 0,0.19232 -0.267891,0.40127 -0.595313,0.46433 -0.430503,0.0829 -0.357256,0.12464 0.264583,0.1507 0.472943,0.0198 0.859896,0.17047 0.859896,0.33479 0,0.2103 -0.48959,0.24264 -1.653646,0.10921 -2.583931,-0.29617 -4.445354,-0.33546 -4.592764,-0.0969 -0.220057,0.35607 -0.632756,0.24831 -0.632756,-0.1652 z"
       id="path887"
       inkscape:connector-curvature="0" />
  </g>
</svg>
