<?xml version="1.0" encoding="UTF-8" standalone="no"?>
<!-- Created with Inkscape (http://www.inkscape.org/) -->

<svg
   xmlns:dc="http://purl.org/dc/elements/1.1/"
   xmlns:cc="http://creativecommons.org/ns#"
   xmlns:rdf="http://www.w3.org/1999/02/22-rdf-syntax-ns#"
   xmlns:svg="http://www.w3.org/2000/svg"
   xmlns="http://www.w3.org/2000/svg"
   xmlns:sodipodi="http://sodipodi.sourceforge.net/DTD/sodipodi-0.dtd"
   xmlns:inkscape="http://www.inkscape.org/namespaces/inkscape"
   width="79.298668mm"
   height="42.251663mm"
   viewBox="0 0 79.298653 42.251663"
   version="1.1"
   id="svg8"
   inkscape:version="0.92.4 (5da689c313, 2019-01-14)"
   sodipodi:docname="struthiomimus.svg">
  <defs
     id="defs2" />
  <sodipodi:namedview
     id="base"
     pagecolor="#ffffff"
     bordercolor="#666666"
     borderopacity="1.0"
     inkscape:pageopacity="0.0"
     inkscape:pageshadow="2"
     inkscape:zoom="1.4"
     inkscape:cx="160.95679"
     inkscape:cy="28.963655"
     inkscape:document-units="mm"
     inkscape:current-layer="layer1"
     showgrid="false"
     inkscape:window-width="1366"
     inkscape:window-height="745"
     inkscape:window-x="-8"
     inkscape:window-y="-8"
     inkscape:window-maximized="1" />
  <metadata
     id="metadata5">
    <rdf:RDF>
      <cc:Work
         rdf:about="">
        <dc:format>image/svg+xml</dc:format>
        <dc:type
           rdf:resource="http://purl.org/dc/dcmitype/StillImage" />
        <dc:title></dc:title>
      </cc:Work>
    </rdf:RDF>
  </metadata>
  <g
     inkscape:label="Camada 1"
     inkscape:groupmode="layer"
     id="layer1"
     transform="translate(-52.987301,-57.803151)">
    <path
       style="fill:#d5d5d5;fill-opacity:1;stroke-width:1"
       d="m 98.163982,100.02387 c -0.207701,-0.0205 -0.437741,-0.06526 -0.511201,-0.09954 -0.124426,-0.05806 -0.102964,-0.06091 0.313737,-0.04177 0.246015,0.0113 0.52139,0.03347 0.61194,0.04926 0.15871,0.02768 0.16353,0.02503 0.1339,-0.07351 -0.0169,-0.05622 -0.066,-0.183692 -0.109,-0.283269 -0.0706,-0.16332 -0.0928,-0.181051 -0.22647,-0.181051 -0.194878,0 -0.393594,-0.168329 -0.519477,-0.440037 l -0.09693,-0.209217 -0.09031,0.177033 c -0.04968,0.09737 -0.108749,0.165637 -0.13128,0.151711 -0.02254,-0.01393 -0.04097,-0.158067 -0.04097,-0.320314 v -0.294998 l -0.1491,0.0711 c -0.138898,0.06623 -0.159222,0.06627 -0.297029,5.54e-4 -0.155857,-0.07432 -0.391158,-0.361673 -0.43314,-0.528958 -0.0138,-0.05499 4e-6,-0.128932 0.03106,-0.166352 0.0472,-0.05687 0.04221,-0.07835 -0.03202,-0.137897 -0.127707,-0.102436 -0.31257,-0.395798 -0.31257,-0.496023 0,-0.05452 -0.04626,-0.106687 -0.125836,-0.141912 -0.06921,-0.03064 -0.222568,-0.146519 -0.3408,-0.25752 -0.173587,-0.162973 -0.214965,-0.228742 -0.214965,-0.34168 0,-0.120689 -0.0663,-0.207976 -0.483719,-0.63683 -0.266046,-0.273334 -0.614042,-0.669501 -0.773325,-0.880371 -0.159284,-0.210871 -0.366008,-0.469666 -0.459388,-0.575101 -0.09338,-0.105435 -0.23712,-0.297136 -0.319424,-0.426001 -0.0823,-0.128865 -0.268293,-0.36849 -0.413309,-0.532501 -0.145016,-0.16401 -0.351511,-0.41322 -0.458879,-0.553801 -0.107368,-0.14058 -0.351312,-0.40896 -0.542097,-0.5964 -0.42997,-0.422431 -0.568949,-0.61042 -0.850338,-1.150202 -0.207833,-0.398684 -0.221079,-0.442432 -0.206569,-0.682241 0.01424,-0.235378 0.03889,-0.290493 0.302773,-0.676951 0.157998,-0.231391 0.280417,-0.427563 0.272044,-0.435937 -0.01536,-0.01536 -0.754464,0.289979 -0.891648,0.368362 -0.04068,0.02325 -0.100111,0.04226 -0.132058,0.04226 -0.03195,0 -0.135721,0.05624 -0.230606,0.124972 -0.09489,0.06873 -0.181921,0.115572 -0.193411,0.104082 -0.0294,-0.0294 -0.398891,0.149128 -0.459302,0.221919 -0.02749,0.03312 -0.06643,0.06023 -0.08654,0.06023 -0.02011,0 -0.144994,0.06937 -0.277528,0.154147 -0.132534,0.08478 -0.305437,0.171948 -0.384228,0.193703 -0.126675,0.03498 -0.143256,0.05628 -0.143256,0.184042 0,0.07947 -0.04737,0.41969 -0.105258,0.756051 -0.06214,0.361023 -0.110776,0.832491 -0.118726,1.150839 -0.0074,0.296601 -0.02591,0.551719 -0.04112,0.566928 -0.01521,0.01521 -0.01093,0.07164 0.0095,0.125394 0.02044,0.05376 0.02487,0.11003 0.0098,0.125052 -0.04078,0.04078 -0.04409,0.37237 -0.0048,0.480491 0.02023,0.05565 0.01677,0.105166 -0.0084,0.120735 -0.02349,0.01452 -0.03295,0.05833 -0.02104,0.09736 0.01192,0.03903 0.03045,0.23391 0.04119,0.433065 0.01074,0.199155 0.0413,0.419212 0.06792,0.489015 0.03088,0.08096 0.03318,0.131989 0.0064,0.14093 -0.02533,0.0084 -0.01686,0.07429 0.02129,0.165609 0.03484,0.08338 0.05303,0.178449 0.04044,0.211273 -0.0126,0.03282 0.0095,0.127569 0.04904,0.210545 0.05581,0.117041 0.0601,0.158187 0.0191,0.183523 -0.03966,0.02451 -0.02478,0.08286 0.05969,0.234001 0.06189,0.110739 0.101573,0.212304 0.08818,0.2257 -0.0134,0.0134 0.01316,0.0979 0.05902,0.187785 0.09975,0.195525 0.106298,0.294627 0.01947,0.294627 -0.0747,0 -0.07937,0.05314 -0.02217,0.252565 0.02531,0.08826 0.0264,0.163974 0.0028,0.192454 -0.05507,0.06636 -0.0033,0.395392 0.07207,0.457938 0.03461,0.02872 0.104007,0.07258 0.154226,0.09747 0.05202,0.02578 0.09702,0.09434 0.104586,0.159336 0.01114,0.09573 0.05228,0.128656 0.255601,0.204615 0.133276,0.04979 0.271076,0.115822 0.306221,0.146736 0.04145,0.03646 0.197066,0.05821 0.443005,0.06189 0.208508,0.0031 0.466413,0.02525 0.573123,0.04917 0.398327,0.08927 1.004758,0.502501 0.864575,0.589141 -0.04114,0.02543 -0.02958,0.04211 0.04335,0.06256 0.156292,0.04384 0.02692,0.09594 -0.434824,0.175137 -0.22161,0.03801 -0.498777,0.09732 -0.615927,0.131809 -0.796114,0.234347 -3.983106,-0.0086 -3.983106,-0.30364 0,-0.08938 0.131149,-0.141854 0.486692,-0.194734 0.17749,-0.0264 0.322709,-0.06077 0.322709,-0.07638 0,-0.01561 -0.05673,-0.09476 -0.126069,-0.175875 -0.07128,-0.08339 -0.126821,-0.198401 -0.1278,-0.26464 -0.0011,-0.07175 -0.02508,-0.11715 -0.06196,-0.11715 -0.07381,0 -0.451475,-0.469439 -0.565485,-0.702901 -0.186584,-0.382072 -0.202846,-0.500248 -0.145437,-1.056889 0.02946,-0.285623 0.09155,-0.768524 0.13799,-1.073114 0.09626,-0.631398 0.131112,-1.564375 0.125712,-3.365405 -0.0032,-1.077738 0.02318,-1.606057 0.10962,-2.192529 0.02576,-0.174753 0.157352,-0.307758 0.907567,-0.917276 0.288384,-0.2343 0.660692,-0.536923 0.827351,-0.672496 0.166659,-0.135572 0.341356,-0.274427 0.388217,-0.308567 0.04686,-0.03414 0.196218,-0.14933 0.331906,-0.255976 0.135689,-0.106647 0.288841,-0.226587 0.340339,-0.266533 0.164357,-0.12749 0.541618,-0.537269 0.566337,-0.615154 0.01312,-0.04135 0.04174,-0.07518 0.06359,-0.07518 0.02185,0 0.03973,-0.02875 0.03973,-0.0639 0,-0.03514 0.0203,-0.0639 0.04511,-0.0639 0.02481,0 0.03485,-0.01661 0.02231,-0.03691 -0.01255,-0.0203 0.01508,-0.0712 0.06139,-0.113103 0.04631,-0.04191 0.0842,-0.101979 0.0842,-0.133493 0,-0.03151 0.01917,-0.0573 0.0426,-0.0573 0.02343,0 0.0426,-0.02914 0.0426,-0.06475 0,-0.08727 0.202758,-0.403854 0.258649,-0.403854 0.02452,0 0.03346,-0.01799 0.01987,-0.03998 -0.01359,-0.02199 0.0092,-0.05898 0.05074,-0.0822 0.0415,-0.02322 0.06593,-0.04836 0.0543,-0.05587 -0.03362,-0.0217 0.162758,-0.333147 0.210068,-0.333147 0.02348,0 0.03325,-0.02464 0.02169,-0.05475 -0.01155,-0.03011 0.0178,-0.0964 0.06524,-0.147319 0.04743,-0.05092 0.08625,-0.112545 0.08625,-0.136955 0,-0.02441 0.01917,-0.04438 0.0426,-0.04438 0.02343,0 0.03781,-0.01475 0.03195,-0.03277 -0.01757,-0.05408 0.150313,-0.205691 0.298201,-0.269288 0.07615,-0.03275 0.139555,-0.06924 0.140905,-0.08109 0.03453,-0.303186 0.03194,-0.341052 -0.02328,-0.341052 -0.03264,0 -0.07223,0.02084 -0.08797,0.04631 -0.01574,0.02547 -0.06371,0.03714 -0.106594,0.02592 -0.04377,-0.01145 -0.109897,0.01489 -0.150759,0.06004 -0.05139,0.05679 -0.0881,0.06772 -0.124895,0.03718 -0.07966,-0.06611 -0.06387,-0.248558 0.02392,-0.276422 0.04182,-0.01327 0.0971,-0.04952 0.122848,-0.08055 0.03726,-0.0449 0.02491,-0.05223 -0.06052,-0.03589 -0.05904,0.01129 -0.151908,0.07348 -0.20638,0.138222 -0.08048,0.09564 -0.113896,0.109387 -0.178314,0.07334 -0.05687,-0.03183 -0.08393,-0.0304 -0.09574,0.005 -0.0091,0.02717 -0.03609,0.04941 -0.06008,0.04941 -0.02398,0 -0.03219,-0.02975 -0.01824,-0.06611 0.01455,-0.03791 0.0074,-0.05501 -0.01674,-0.04009 -0.06642,0.04105 -0.04913,-0.02844 0.02839,-0.114098 0.08407,-0.09289 0.02741,-0.100919 -0.08929,-0.01265 -0.05382,0.04071 -0.09219,0.04717 -0.109906,0.0185 -0.04771,-0.0772 -0.172908,0.0078 -0.198273,0.134625 -0.02818,0.140881 -0.123148,0.162576 -0.162934,0.03722 -0.01487,-0.04686 -0.05451,-0.0852 -0.08807,-0.0852 -0.03357,0 -0.06103,-0.01798 -0.06103,-0.03995 0,-0.04838 -0.172787,-0.04432 -0.239551,0.0056 -0.11247,0.08414 -0.263321,-0.114487 -0.232756,-0.306472 0.0072,-0.0453 -0.01706,-0.03727 -0.08337,0.02759 l -0.09354,0.09149 -0.186148,-0.09149 c -0.124282,-0.06109 -0.181083,-0.114195 -0.170911,-0.159802 0.01168,-0.05238 -0.01266,-0.06506 -0.104429,-0.05437 -0.08887,0.01035 -0.126501,-0.0076 -0.146229,-0.06976 -0.01461,-0.04603 -0.01267,-0.107829 0.0043,-0.137326 0.01698,-0.0295 0.0166,-0.04083 -8.52e-4,-0.02518 -0.04946,0.04434 -0.194929,-0.101581 -0.194929,-0.195538 0,-0.06553 -0.01136,-0.07289 -0.05112,-0.03313 -0.08955,0.08955 -0.151578,0.05549 -0.180592,-0.09916 -0.01551,-0.08266 -0.0428,-0.141258 -0.06065,-0.130226 -0.0477,0.02948 -0.265395,-0.169502 -0.228734,-0.209077 0.03036,-0.03277 -0.116965,-0.01626 -0.412081,0.04619 -0.103099,0.02182 -0.13649,0.01681 -0.115408,-0.0173 0.06047,-0.09784 -0.199725,-0.109839 -0.453546,-0.02092 -0.135701,0.04754 -0.255458,0.07231 -0.266127,0.05505 -0.01067,-0.01726 0.06652,-0.05544 0.171528,-0.08484 0.105009,-0.0294 0.190926,-0.07219 0.190926,-0.09508 0,-0.02289 -0.03355,-0.02835 -0.07455,-0.01214 -0.041,0.01622 -0.141645,0.03684 -0.22365,0.04582 -0.082,0.009 -0.11076,0.0055 -0.0639,-0.0078 0.04686,-0.01325 0.10437,-0.04356 0.1278,-0.06735 0.02876,-0.0292 0.008,-0.03338 -0.0639,-0.01286 -0.05857,0.01671 -0.127784,0.05721 -0.153797,0.08999 -0.02601,0.03278 -0.0749,0.0596 -0.10863,0.0596 -0.03373,0 -0.08434,0.023 -0.112454,0.05112 -0.03823,0.03823 -0.05112,0.03857 -0.05112,0.0013 0,-0.02738 -0.02556,-0.03998 -0.0568,-0.02799 -0.03177,0.01219 -0.0568,-0.0063 -0.0568,-0.04206 0,-0.03512 0.0138,-0.05533 0.03067,-0.0449 0.01687,0.01043 0.05473,-0.01003 0.08413,-0.04545 0.04458,-0.05371 0.04176,-0.05992 -0.01696,-0.03739 -0.11064,0.04246 -0.03863,-0.09692 0.139599,-0.270179 0.112662,-0.109524 0.124951,-0.132392 0.04656,-0.08664 -0.05857,0.03418 -0.148198,0.07272 -0.199162,0.08563 -0.07246,0.01836 -0.08726,0.0083 -0.06789,-0.04625 0.01362,-0.03835 -0.01656,-0.01878 -0.06709,0.04349 -0.05052,0.06227 -0.09186,0.128238 -0.09186,0.146593 0,0.01835 0.02996,-0.0038 0.06658,-0.04932 0.07343,-0.09121 0.06742,-0.0578 -0.02153,0.119658 -0.0323,0.06443 -0.08768,0.117151 -0.123079,0.117151 -0.0354,0 -0.103877,0.03355 -0.152178,0.07455 -0.05867,0.04981 -0.07315,0.05334 -0.04363,0.01065 0.07263,-0.105022 0.149703,-0.305491 0.107404,-0.279349 -0.02161,0.01335 -0.04699,0.0012 -0.0564,-0.02708 -0.01062,-0.03186 -0.02799,-0.02303 -0.04575,0.02325 -0.01712,0.04461 -0.0117,0.06414 0.01348,0.04858 0.02316,-0.01431 0.04211,-0.0069 0.04211,0.01657 0,0.02343 -0.01716,0.05321 -0.03814,0.06617 -0.06184,0.03822 -0.09328,-0.102582 -0.04363,-0.195357 0.02515,-0.04699 0.0355,-0.112086 0.02301,-0.14465 -0.0125,-0.03256 -0.0014,-0.07237 0.0246,-0.08845 0.03065,-0.01894 0.03518,-0.0096 0.01286,0.02652 -0.02281,0.0369 -0.01783,0.04548 0.01472,0.02537 0.02705,-0.01672 0.04918,-0.06377 0.04918,-0.104562 0,-0.04079 0.01981,-0.09398 0.04402,-0.118186 0.03029,-0.03029 0.02424,-0.04402 -0.01943,-0.04402 -0.0349,0 -0.05516,0.01341 -0.04502,0.02981 0.01013,0.01639 -0.02043,0.06497 -0.06792,0.107949 -0.08629,0.07809 -0.08629,0.07802 0.001,-0.125638 0.105984,-0.24725 0.106289,-0.252113 0.0128,-0.203748 -0.041,0.02121 -0.108097,0.03317 -0.1491,0.02657 -0.041,-0.0066 -0.07455,0.0055 -0.07455,0.02683 0,0.02136 -0.01857,0.03883 -0.04126,0.03883 -0.02269,0 -0.02937,-0.03099 -0.01484,-0.06885 0.02331,-0.06075 0.01437,-0.06219 -0.07589,-0.01225 -0.05627,0.03113 -0.116901,0.05246 -0.134736,0.0474 -0.01783,-0.0051 -0.07384,0.07604 -0.124465,0.180234 -0.07865,0.161884 -0.103543,0.183286 -0.171117,0.147121 -0.04349,-0.02328 -0.06954,-0.05776 -0.05787,-0.07663 0.01166,-0.01887 -0.02135,-0.02617 -0.07336,-0.01623 -0.07707,0.01473 -0.09456,-0.0014 -0.09456,-0.08729 0,-0.05795 0.01763,-0.09446 0.03919,-0.08114 0.02182,0.01348 0.02654,-0.0088 0.01065,-0.05015 -0.0157,-0.04091 -0.02854,-0.08598 -0.02854,-0.10016 0,-0.01418 -0.05751,0.02931 -0.1278,0.09665 -0.134982,0.12932 -0.159215,0.118717 -0.07942,-0.03475 0.04495,-0.08645 0.04022,-0.08554 -0.06665,0.01281 l -0.115033,0.105862 0.04643,-0.122116 0.04643,-0.122116 -0.118227,0.07694 c -0.104237,0.06784 -0.111207,0.06838 -0.05891,0.0046 0.03263,-0.0398 0.04528,-0.08628 0.02813,-0.10329 -0.01715,-0.01701 -0.07332,0.0218 -0.124821,0.08623 -0.08639,0.108084 -0.235465,0.171364 -0.175631,0.07455 0.0153,-0.02475 -0.02677,-0.0426 -0.100436,-0.0426 -0.06972,0 -0.134829,-0.02396 -0.144687,-0.05325 -0.01428,-0.04243 -0.03121,-0.04228 -0.08335,7.33e-4 -0.03599,0.02969 -0.09467,0.04276 -0.130419,0.02905 -0.03575,-0.01372 -0.07765,-0.0045 -0.09311,0.02057 -0.01547,0.02503 -0.0055,0.0455 0.02221,0.0455 0.03732,0 0.03651,0.01665 -0.0031,0.06443 -0.04067,0.049 -0.06741,0.05285 -0.111717,0.01608 -0.04393,-0.03646 -0.05825,-0.03537 -0.05825,0.0044 0,0.03273 -0.03415,0.04385 -0.08991,0.02927 -0.06579,-0.01721 -0.09593,-4.78e-4 -0.112367,0.06237 -0.01532,0.05857 -0.04768,0.07928 -0.101791,0.06513 -0.04363,-0.01141 -0.07933,-0.0034 -0.07933,0.01787 0,0.02124 -0.02641,0.03861 -0.05868,0.03861 -0.03228,0 -0.08274,0.02899 -0.112152,0.06442 -0.0387,0.04663 -0.06851,0.05194 -0.107924,0.01923 -0.0379,-0.03145 -0.06285,-0.03162 -0.08206,-5.24e-4 -0.03867,0.06257 -0.266353,0.05591 -0.293456,-0.0086 -0.01614,-0.03841 -0.03525,-0.03297 -0.06858,0.01953 -0.02541,0.04003 -0.07197,0.06289 -0.103475,0.0508 -0.0315,-0.01209 -0.0692,0.0091 -0.08377,0.04707 -0.01457,0.03798 -0.04701,0.05637 -0.07208,0.04087 -0.02507,-0.0155 -0.08272,0.0054 -0.128101,0.0465 -0.07887,0.07138 -0.08258,0.07109 -0.08405,-0.0065 -0.0013,-0.06958 -0.01521,-0.06445 -0.09745,0.036 -0.0905,0.110537 -0.192179,0.166553 -0.135318,0.07455 0.01448,-0.02343 0.0066,-0.0426 -0.01745,-0.0426 -0.02408,0 -0.03201,-0.03065 -0.01764,-0.06812 0.04107,-0.107012 -0.131139,0.01373 -0.180781,0.126756 -0.04678,0.106504 -0.119468,0.08438 -0.122683,-0.03734 -0.004,-0.150975 -0.08368,-0.12194 -0.183522,0.06686 -0.103233,0.195218 -0.188129,0.239998 -0.269383,0.142092 -0.07164,-0.08632 -0.153514,-0.0736 -0.180075,0.02797 -0.0145,0.05547 -0.0513,0.08293 -0.09986,0.07455 -0.04229,-0.0073 -0.07762,0.0059 -0.0785,0.02932 -0.0033,0.08716 -0.06909,0.14455 -0.136218,0.118792 -0.05756,-0.02209 -0.0486,-0.04308 0.05295,-0.124055 0.06723,-0.05361 0.11027,-0.109431 0.09565,-0.124056 -0.03239,-0.03239 -0.246982,0.10273 -0.246982,0.155519 0,0.05636 -0.1181,0.0455 -0.137481,-0.01264 -0.01673,-0.05018 -0.471632,0.18052 -0.524434,0.265955 -0.04814,0.07789 -0.158421,0.0438 -0.135976,-0.04202 0.01505,-0.05753 0.0038,-0.07525 -0.03763,-0.05934 -0.03249,0.01247 -0.05908,0.0402 -0.05908,0.06163 0,0.02143 -0.04732,0.06052 -0.105164,0.08687 -0.05784,0.02635 -0.09476,0.06476 -0.08203,0.08534 0.01272,0.02059 0.0073,0.03468 -0.01199,0.03133 -0.01931,-0.0034 -0.0447,-0.0017 -0.05642,0.0036 -0.01171,0.0053 -0.08399,0.01497 -0.160618,0.0214 -0.08175,0.0069 -0.185368,0.05774 -0.250759,0.12313 -0.122954,0.122954 -0.283938,0.154149 -0.242843,0.04706 0.01768,-0.04607 0.0052,-0.05689 -0.04394,-0.03804 -0.03775,0.01449 -0.06864,0.04985 -0.06864,0.07858 0,0.02873 -0.02958,0.05224 -0.06573,0.05224 -0.04028,0 -0.05644,-0.02421 -0.04175,-0.06251 0.01344,-0.03503 -0.04395,-0.01069 -0.130586,0.05539 -0.112122,0.08552 -0.163379,0.103646 -0.186643,0.066 -0.02164,-0.03501 -0.04037,-0.02015 -0.05759,0.0457 -0.01404,0.05368 -0.03889,0.08422 -0.05524,0.06787 -0.01635,-0.01635 -0.05545,-0.0084 -0.08689,0.01773 -0.03985,0.03307 -0.05717,0.03355 -0.05717,0.0016 0,-0.0597 -0.290644,-0.02363 -0.376547,0.04673 -0.05463,0.04475 -0.06047,0.03802 -0.03907,-0.04499 0.02184,-0.08472 0.01297,-0.09375 -0.06716,-0.06844 -0.05078,0.01604 -0.117594,0.06507 -0.148484,0.108963 -0.03089,0.04389 -0.07271,0.06958 -0.09294,0.05708 -0.02022,-0.0125 -0.06861,0.02073 -0.107529,0.07384 l -0.07076,0.09656 0.02906,-0.09884 c 0.02286,-0.07773 0.01016,-0.103783 -0.05948,-0.121993 -0.0487,-0.01274 -0.07804,-0.04014 -0.06521,-0.06091 0.03375,-0.05461 -0.01133,-0.04665 -0.154209,0.02724 -0.06913,0.03575 -0.125685,0.09146 -0.125685,0.123812 0,0.0388 -0.03048,0.05085 -0.08956,0.0354 -0.05257,-0.01375 -0.104817,0.0011 -0.126501,0.03594 -0.03036,0.04879 -0.05251,0.04971 -0.124406,0.0051 -0.07307,-0.04529 -0.09155,-0.04358 -0.112264,0.01041 -0.01364,0.03554 -0.04196,0.05401 -0.06293,0.04105 -0.02097,-0.01296 -0.03814,-0.0059 -0.03814,0.01564 0,0.02156 -0.04793,0.03005 -0.1065,0.01885 -0.05858,-0.0112 -0.1065,-0.0021 -0.1065,0.02011 0,0.02226 -0.02853,0.04047 -0.06339,0.04047 -0.07934,0 -0.404058,0.153454 -0.404719,0.191262 -2.56e-4,0.01538 -0.0364,0.01857 -0.08028,0.0071 -0.06049,-0.01582 -0.09178,0.01349 -0.129323,0.121139 -0.03461,0.09922 -0.05987,0.125283 -0.08386,0.08651 -0.01888,-0.03052 -0.05175,-0.05222 -0.07303,-0.0482 -0.104517,0.0197 -0.108548,-0.01295 -0.01481,-0.119946 0.05645,-0.06443 0.07663,-0.09469 0.04483,-0.06723 -0.03179,0.02746 -0.08494,0.03951 -0.118099,0.02678 -0.03316,-0.01273 -0.09939,0.01224 -0.14717,0.05548 -0.08489,0.07683 -0.08875,0.07622 -0.169374,-0.02678 -0.05031,-0.06427 -0.07212,-0.07613 -0.0559,-0.03037 0.01842,0.05196 0.0088,0.0687 -0.03139,0.05443 -0.06295,-0.02236 -0.292293,0.158199 -0.292293,0.230115 0,0.05341 -0.21302,0.04569 -0.287551,-0.01042 -0.0348,-0.0262 -0.07815,-0.01983 -0.125126,0.01838 -0.06349,0.05165 -0.06835,0.04907 -0.04163,-0.02211 0.02701,-0.07194 0.02216,-0.07422 -0.04527,-0.0213 -0.04154,0.0326 -0.08795,0.07641 -0.103126,0.09735 -0.01518,0.02094 -0.09665,0.06182 -0.18105,0.09083 -0.144599,0.04971 -0.153528,0.04752 -0.154804,-0.03808 -0.0013,-0.08903 -0.0026,-0.08919 -0.0639,-0.0081 -0.04088,0.05405 -0.06255,0.06255 -0.06255,0.02452 0,-0.04024 -0.02954,-0.03097 -0.09585,0.03008 -0.100679,0.0927 -0.351657,0.124856 -0.299896,0.03842 0.01726,-0.02882 0.0027,-0.02684 -0.03665,0.005 -0.03594,0.02908 -0.07796,0.04027 -0.09338,0.02485 -0.01542,-0.01542 -0.02803,-0.0045 -0.02803,0.02418 0,0.02872 -0.01948,0.04017 -0.0433,0.02546 -0.02381,-0.01472 -0.03227,-0.0446 -0.01879,-0.06642 0.03533,-0.05716 -0.03948,-0.04885 -0.09937,0.01103 -0.02788,0.02788 -0.07484,0.05478 -0.10437,0.05978 -0.02952,0.005 -0.08723,0.02258 -0.128231,0.03907 -0.04167,0.01676 -0.07455,0.01094 -0.07455,-0.0132 0,-0.02374 -0.03834,-0.03314 -0.0852,-0.02089 -0.05784,0.01513 -0.0852,0.0013 -0.0852,-0.04304 0,-0.09873 -0.096,-0.113403 -0.1917,-0.02929 -0.112059,0.09849 -0.2769,0.148473 -0.2769,0.08397 0,-0.02698 -0.07465,0.01007 -0.165881,0.08233 -0.192043,0.152101 -0.239661,0.165678 -0.165697,0.04724 0.0409,-0.06549 0.0412,-0.09548 0.0014,-0.135314 -0.03984,-0.03984 -0.06993,-0.03421 -0.135797,0.0254 -0.08225,0.07443 -0.215593,0.06636 -0.215593,-0.01306 0,-0.06136 -0.121637,-0.09293 -0.154318,-0.04005 -0.01894,0.03065 -0.0096,0.03518 0.02652,0.01286 0.03612,-0.02232 0.04546,-0.01779 0.02652,0.01286 -0.01608,0.02603 -0.05877,0.03599 -0.09486,0.02214 -0.03609,-0.01385 -0.119525,0.01468 -0.18542,0.0634 -0.102575,0.07584 -0.130947,0.08043 -0.197234,0.03196 -0.06446,-0.04713 -0.104811,-0.04695 -0.240938,0.0011 -0.109058,0.03848 -0.153654,0.04174 -0.13391,0.0098 0.0328,-0.05307 -0.01781,-0.02814 -0.203136,0.100049 -0.06219,0.04302 -0.124495,0.07822 -0.13845,0.07822 -0.05526,0 -0.0205,-0.08642 0.06786,-0.16874 0.1439,-0.134063 0.05556,-0.102685 -0.103103,0.03662 -0.202695,0.177968 -0.658097,0.282381 -0.563411,0.129177 0.04039,-0.06535 -0.03175,-0.04487 -0.122938,0.03489 -0.04687,0.041 -0.07046,0.04937 -0.05241,0.01858 0.04756,-0.0811 -0.249022,-0.01966 -0.435139,0.09015 -0.106504,0.06284 -0.153246,0.07209 -0.176245,0.03488 -0.01721,-0.02785 -0.06331,-0.03836 -0.102443,-0.02334 -0.04005,0.01537 -0.07115,0.0067 -0.07115,-0.01986 0,-0.02594 -0.03947,-0.04716 -0.08771,-0.04716 -0.05788,0 -0.07744,-0.01811 -0.0575,-0.05325 0.01662,-0.02929 -0.03976,0.01281 -0.125286,0.09356 -0.08552,0.08074 -0.155498,0.17067 -0.155498,0.199837 0,0.02917 -0.01895,0.06474 -0.04211,0.07905 -0.02501,0.01546 -0.03072,-0.0037 -0.01406,-0.04707 0.02077,-0.05411 0.0131,-0.06386 -0.02952,-0.03752 -0.03166,0.01957 -0.0037,-0.03505 0.06215,-0.121382 0.103069,-0.13513 0.108588,-0.15523 0.03968,-0.144509 -0.04402,0.0068 -0.104004,0.02741 -0.133291,0.04569 -0.03404,0.02124 -0.05325,0.0093 -0.05325,-0.03318 0,-0.04285 -0.03868,-0.06641 -0.109015,-0.06641 -0.06886,0 -0.09828,0.01737 -0.07986,0.04716 0.01903,0.0308 0.0014,0.03838 -0.05074,0.02185 -0.04394,-0.01392 -0.135186,0.0034 -0.202775,0.03849 -0.0927,0.04813 -0.13718,0.05195 -0.181051,0.01553 -0.08924,-0.07406 -0.06946,-0.123036 0.04968,-0.123036 0.05931,0 0.118872,-0.02876 0.132358,-0.0639 0.01349,-0.03514 0.05968,-0.0639 0.10265,-0.0639 0.04297,0 0.09124,-0.02122 0.107277,-0.04716 0.03357,-0.05433 -0.100899,-0.02154 -0.29528,0.072 -0.06713,0.0323 -0.210908,0.0711 -0.319501,0.08621 -0.185371,0.0258 -0.211556,0.04656 -0.428333,0.339659 -0.261342,0.35335 -0.807883,0.914965 -1.022884,1.051093 -0.219401,0.138915 -0.769727,0.112798 -0.769727,-0.03653 0,-0.04513 -0.06393,-0.01043 -0.197654,0.107273 -0.10871,0.09569 -0.273259,0.19434 -0.365665,0.219223 -0.201153,0.05416 -0.416483,0.01618 -0.416483,-0.07347 0,-0.04157 -0.06783,-0.0044 -0.192749,0.105528 -0.255503,0.224904 -0.451981,0.313103 -0.724357,0.325167 -0.178821,0.0079 -0.259398,0.03728 -0.393267,0.143309 -0.197767,0.156635 -0.350999,0.221102 -0.525539,0.221102 -0.149059,0 -0.197783,-0.0887 -0.130204,-0.237017 0.02601,-0.05708 0.0367,-0.103784 0.02376,-0.103784 -0.01294,0 -0.151143,0.108261 -0.307113,0.24058 -0.550418,0.466953 -0.866567,0.460877 -0.668631,-0.01285 0.03514,-0.08411 0.0639,-0.160101 0.0639,-0.168859 0,-0.0088 -0.119812,0.08205 -0.26625,0.201803 -0.478462,0.391264 -0.883951,0.516626 -0.883951,0.273282 0,-0.123886 0.197014,-0.502171 0.450063,-0.864161 0.106053,-0.15171 0.186903,-0.293598 0.179667,-0.315307 -0.0072,-0.02171 -0.181963,0.14338 -0.388281,0.366865 -0.416266,0.4509 -0.831639,0.771154 -1.105142,0.852068 -0.348943,0.103233 -0.363597,0.02429 -0.08998,-0.484719 0.200756,-0.373456 0.498861,-0.821368 0.806536,-1.211847 0.327487,-0.415623 0.241964,-0.343563 -0.506847,0.427058 -0.553541,0.569664 -0.810093,0.802704 -0.973136,0.883952 -0.246419,0.122796 -0.547463,0.146715 -0.627826,0.04988 -0.08418,-0.101434 0.190487,-0.574279 0.780348,-1.343371 0.02612,-0.03406 -0.115454,0.07671 -0.314609,0.246154 -0.487511,0.414774 -0.746429,0.539968 -1.116731,0.539968 -0.211741,0 -0.304727,-0.0187 -0.358023,-0.072 -0.06759,-0.06759 -0.06721,-0.07929 0.0062,-0.191339 0.04301,-0.06564 0.173927,-0.212587 0.290929,-0.32655 l 0.212731,-0.207207 -0.221108,0.112044 c -0.474838,0.240618 -0.973689,0.292129 -1.282513,0.13243 -0.179711,-0.09293 -0.164171,-0.198244 0.05812,-0.393917 l 0.188216,-0.165674 -0.369266,0.01756 c -0.433544,0.02062 -0.657432,-0.03007 -0.85171,-0.192836 -0.181456,-0.152024 -0.156094,-0.214225 0.164733,-0.404019 l 0.253374,-0.14989 -0.329932,-0.02865 c -0.181462,-0.01576 -0.420095,-0.05797 -0.530296,-0.09382 -0.215616,-0.07013 -0.473118,-0.316527 -0.434896,-0.416133 0.02655,-0.06918 0.645853,-0.367713 0.762823,-0.367713 0.160393,0 -0.0028,-0.07427 -0.276663,-0.125891 -0.512136,-0.09655 -0.922624,-0.351714 -0.885981,-0.550741 0.01651,-0.08967 0.226762,-0.1894 0.663884,-0.314911 l 0.353004,-0.101359 -0.310404,-0.07424 c -0.341236,-0.08162 -0.502104,-0.164959 -0.502104,-0.260128 0,-0.03416 0.04313,-0.07047 0.09585,-0.0807 0.05272,-0.01023 0.244963,-0.04893 0.427212,-0.08601 0.182248,-0.03708 0.438151,-0.06742 0.568671,-0.06742 h 0.237311 l -0.261698,-0.196721 c -0.143933,-0.108197 -0.254645,-0.218425 -0.246025,-0.24495 0.0086,-0.02653 0.06683,-0.07317 0.12936,-0.103652 0.09061,-0.04417 0.201051,-0.04581 0.544016,-0.0081 0.23668,0.02604 0.477312,0.06522 0.534738,0.08705 l 0.10441,0.0397 -0.113146,-0.148341 c -0.126552,-0.165918 -0.113069,-0.277386 0.03342,-0.276271 0.19047,0.0014 0.683222,0.12582 0.910201,0.229735 0.245927,0.112589 0.262151,0.106746 0.166788,-0.06007 -0.109129,-0.190901 -0.08509,-0.226067 0.13845,-0.20257 0.278746,0.0293 0.658022,0.181424 0.885785,0.355279 0.104832,0.08002 0.199173,0.145492 0.209645,0.145492 0.01047,0 -0.0087,-0.07872 -0.04268,-0.174936 -0.03395,-0.09622 -0.05114,-0.192065 -0.0382,-0.213001 0.05382,-0.08708 0.357127,-0.03342 0.655858,0.116027 0.234184,0.117157 0.350115,0.20851 0.483686,0.381139 0.09662,0.124877 0.181586,0.22114 0.188808,0.213918 0.0072,-0.0072 -0.0065,-0.06465 -0.0304,-0.127613 -0.07781,-0.204665 -0.12399,-0.59605 -0.0771,-0.653485 0.06624,-0.08114 0.244481,-0.06323 0.480342,0.04828 0.251553,0.118922 0.373775,0.244659 0.617577,0.635334 0.09939,0.159259 0.187477,0.282786 0.195758,0.274505 0.0083,-0.0083 -0.0046,-0.08619 -0.02859,-0.173131 -0.02401,-0.08694 -0.03786,-0.258394 -0.03079,-0.381006 0.01247,-0.216305 0.01688,-0.22332 0.148589,-0.236076 0.196936,-0.01907 0.334642,0.06884 0.730635,0.466426 0.227914,0.228834 0.338812,0.316916 0.312771,0.248421 -0.02219,-0.05837 -0.04737,-0.249192 -0.05595,-0.424053 -0.01379,-0.281036 -0.0066,-0.319739 0.06232,-0.333512 0.14632,-0.02926 0.277114,0.03438 0.512148,0.249188 l 0.234984,0.214762 0.01347,-0.140143 c 0.01021,-0.106183 0.03591,-0.143337 0.106055,-0.153327 0.124979,-0.0178 0.376178,0.116124 0.618453,0.329718 l 0.199832,0.176176 0.01317,-0.182455 c 0.01237,-0.171321 0.02158,-0.183266 0.150995,-0.195757 0.116927,-0.01129 0.170341,0.01921 0.352253,0.201125 0.182726,0.182726 0.232239,0.210865 0.334906,0.190332 0.134557,-0.02691 0.458163,0.117164 0.677281,0.30154 0.111866,0.09413 0.146367,0.103055 0.248389,0.06427 0.141667,-0.05386 0.638059,-0.02399 0.719109,0.04328 0.03788,0.03144 0.06639,0.03298 0.08396,0.0045 0.03863,-0.0625 0.302085,-0.02289 0.619979,0.09322 0.275685,0.100695 0.501425,0.09914 0.479762,-0.0033 -0.0056,-0.02637 0.01666,-0.03766 0.0494,-0.0251 0.03275,0.01257 0.114584,-0.0056 0.181855,-0.0404 0.08147,-0.04213 0.145658,-0.05018 0.192237,-0.02412 0.04843,0.0271 0.09049,0.01857 0.136808,-0.02775 0.03678,-0.03678 0.08916,-0.05311 0.11639,-0.03628 0.03057,0.01889 0.03803,0.01202 0.01949,-0.01797 -0.02178,-0.03523 0.04595,-0.04273 0.246687,-0.02729 0.257308,0.01979 0.275578,0.01544 0.260653,-0.06206 -0.01191,-0.06186 0.0015,-0.07662 0.05192,-0.05726 0.05001,0.01919 0.05868,0.0101 0.03281,-0.03441 -0.01934,-0.03327 0.01107,-0.02021 0.06756,0.02902 0.05649,0.04923 0.131474,0.103371 0.166619,0.12031 0.03514,0.01694 0.02669,6.17e-4 -0.01879,-0.03626 -0.08052,-0.0653 -0.07997,-0.0671 0.0213,-0.06857 l 0.103992,-0.0015 -0.09564,-0.05313 -0.09564,-0.05313 0.123138,-0.04648 c 0.07133,-0.02693 0.147415,-0.0311 0.180844,-0.0099 0.102273,0.0648 0.365653,0.04422 0.394452,-0.03083 0.02154,-0.05612 0.03814,-0.05892 0.09073,-0.01527 0.0533,0.04424 0.05997,0.04196 0.0388,-0.01321 -0.01406,-0.03665 -0.055,-0.07793 -0.09097,-0.09173 -0.05151,-0.01977 -0.05468,-0.03803 -0.01489,-0.08596 0.02778,-0.03347 0.07947,-0.04975 0.11487,-0.03617 0.04996,0.01917 0.05226,0.03217 0.01027,0.05812 -0.04345,0.02685 -0.04296,0.04683 0.0025,0.101601 0.03112,0.0375 0.06587,0.05889 0.07721,0.04755 0.01135,-0.01135 0.0805,0.0083 0.15368,0.04368 l 0.133049,0.06431 -0.100446,-0.08721 c -0.112431,-0.09761 -0.0976,-0.231317 0.02062,-0.18595 0.0526,0.02019 0.06305,0.01252 0.03805,-0.02791 -0.02724,-0.04408 2.56e-4,-0.04926 0.131462,-0.02477 l 0.165908,0.03096 -0.103118,-0.110099 c -0.05671,-0.06055 -0.09071,-0.122502 -0.07555,-0.137663 0.01516,-0.01516 0.03992,0.0046 0.05503,0.04401 0.01511,0.03936 0.08606,0.10187 0.157665,0.138901 0.119121,0.0616 0.134488,0.06147 0.180584,-0.0016 0.02771,-0.0379 0.08757,-0.06891 0.133018,-0.06891 0.04545,0 0.103435,-0.0208 0.128859,-0.04622 0.03323,-0.03323 0.08235,-0.02754 0.174767,0.02025 0.116835,0.06042 0.130904,0.06032 0.154478,-0.0011 0.01786,-0.04654 0.0072,-0.0604 -0.03424,-0.0445 -0.03898,0.01496 -0.05648,-0.0021 -0.04967,-0.04851 0.01276,-0.08695 0.100923,-0.09543 0.214216,-0.0206 0.04622,0.03053 0.11331,0.05521 0.1491,0.05485 0.05763,-5.8e-4 0.05776,-0.0058 0.0012,-0.04584 -0.04809,-0.03401 -0.05072,-0.05054 -0.01065,-0.0668 0.02929,-0.01188 0.05325,-0.05006 0.05325,-0.08483 0,-0.04291 0.02622,-0.0549 0.08161,-0.03732 0.04489,0.01425 0.09452,0.005 0.110293,-0.0205 0.02043,-0.03305 0.04597,-0.03205 0.08879,0.0035 0.04604,0.03821 0.06011,0.03798 0.06011,-9.76e-4 0,-0.03259 0.02405,-0.02681 0.06694,0.01608 0.03682,0.03682 0.08361,0.06694 0.103986,0.06694 0.05924,0 0.09019,-0.07676 0.04277,-0.106071 -0.07726,-0.04775 -0.04574,-0.117505 0.04265,-0.09439 0.04727,0.01236 0.114201,-0.0058 0.148731,-0.04031 0.05443,-0.05443 0.07427,-0.05473 0.149172,-0.0023 0.0776,0.05435 0.297748,0.05296 0.297748,-0.0019 0,-0.01209 -0.04194,-0.05836 -0.0932,-0.102821 l -0.0932,-0.08083 0.125152,0.0045 c 0.06883,0.0025 0.201832,-0.01567 0.295552,-0.0403 0.09372,-0.02463 0.26625,-0.04719 0.3834,-0.05015 0.210287,-0.0053 0.211237,-0.0059 0.07455,-0.04978 -0.07615,-0.02443 -0.13845,-0.07107 -0.13845,-0.10365 0,-0.04743 0.01827,-0.04946 0.09166,-0.01018 0.07424,0.03973 0.08738,0.0379 0.06914,-0.0096 -0.01735,-0.04522 0.0325,-0.05991 0.217191,-0.06401 0.131841,-0.0029 0.306807,-0.0355 0.388812,-0.0724 l 0.1491,-0.06708 -0.1278,-0.005 c -0.126258,-0.005 -0.126515,-0.0055 -0.0213,-0.04078 0.05858,-0.01966 0.179795,-0.04804 0.269378,-0.06305 0.135685,-0.02275 0.154372,-0.03755 0.111934,-0.08869 -0.03613,-0.04353 -0.03704,-0.06139 -0.0031,-0.06139 0.0263,0 0.04782,-0.02876 0.04782,-0.0639 0,-0.06459 0.06943,-0.08404 0.245628,-0.06881 0.05443,0.0047 0.107723,-0.02083 0.122195,-0.05854 0.01637,-0.04267 0.05469,-0.05768 0.105823,-0.04145 0.08801,0.02793 0.112664,-0.04528 0.0269,-0.07989 -0.02929,-0.01182 -0.01604,-0.023 0.02944,-0.02485 0.07981,-0.0032 0.07996,-0.0054 0.0042,-0.06076 -0.05067,-0.03705 -0.06215,-0.0675 -0.03239,-0.08589 0.02536,-0.01567 0.05815,-0.009 0.07287,0.0148 0.04326,0.06999 0.265238,0.05105 0.294469,-0.02512 0.01893,-0.04933 0.05668,-0.06078 0.135299,-0.04105 0.09539,0.02394 0.107341,0.01517 0.09545,-0.07003 -0.0075,-0.05357 -0.03276,-0.111484 -0.05619,-0.128698 -0.02678,-0.01968 -0.02376,-0.03154 0.0081,-0.03195 0.02791,-3.41e-4 0.06258,0.01852 0.07707,0.04195 0.04149,0.06713 0.106533,0.04966 0.0793,-0.0213 -0.02769,-0.07217 0.09067,-0.09091 0.133766,-0.02119 0.01592,0.02576 0.05496,0.02805 0.09836,0.0058 0.03958,-0.02033 0.09898,-0.02735 0.132004,-0.0156 0.04249,0.01511 0.05179,-1.28e-4 0.03181,-0.0522 -0.04509,-0.11749 0.01061,-0.155679 0.121285,-0.08316 0.06719,0.04402 0.135741,0.05588 0.200129,0.03461 l 0.09794,-0.03235 -0.09836,-0.02443 c -0.147554,-0.03665 -0.09302,-0.111548 0.07037,-0.09665 0.08563,0.0078 0.132061,-0.0038 0.116455,-0.02901 -0.04119,-0.06664 0.05076,-0.09876 0.14237,-0.04974 0.05403,0.02892 0.09261,0.02994 0.109329,0.0029 0.01421,-0.02299 -0.03526,-0.06673 -0.10994,-0.0972 l -0.135773,-0.0554 0.196637,0.0037 c 0.108151,0.002 0.209907,0.01696 0.226125,0.03318 0.04363,0.04363 0.10942,0.0358 0.08131,-0.0097 -0.03186,-0.05155 0.09232,-0.173834 0.176536,-0.173834 0.04921,0 0.0544,-0.01406 0.02034,-0.0551 -0.03615,-0.04356 -0.01684,-0.05173 0.09216,-0.039 0.112029,0.01308 0.148504,-0.0037 0.194475,-0.08963 0.04929,-0.09209 0.07304,-0.101008 0.184177,-0.06913 0.119202,0.03419 0.1263,0.02984 0.107954,-0.06613 -0.01991,-0.104133 0.06941,-0.183724 0.117982,-0.105135 0.01385,0.02241 0.05348,0.04074 0.08806,0.04074 0.04821,0 0.05294,-0.01858 0.02029,-0.0796 -0.0578,-0.107997 -0.0056,-0.148983 0.08512,-0.06686 0.06736,0.06096 0.07318,0.06005 0.06736,-0.01056 -0.0055,-0.06705 0.02251,-0.07542 0.211801,-0.0632 0.203315,0.01312 0.220024,0.0067 0.245378,-0.09432 0.02052,-0.08178 0.07157,-0.121498 0.207829,-0.161728 0.09934,-0.02933 0.214169,-0.04941 0.255172,-0.04463 0.041,0.0048 0.07455,-0.01138 0.07455,-0.03591 0,-0.02454 0.02075,-0.03179 0.04612,-0.01611 0.02536,0.01568 0.01415,-0.03332 -0.02492,-0.108881 -0.05108,-0.09877 -0.05805,-0.150375 -0.02482,-0.183609 0.03323,-0.03323 0.05973,-0.03272 0.09429,0.0018 0.04538,0.04538 0.183008,0.0025 0.250134,-0.07783 0.01172,-0.01403 0.05006,-0.02748 0.0852,-0.0299 0.132859,-0.0091 0.344939,-0.07366 0.342911,-0.104348 -0.0012,-0.01757 -0.0021,-0.04221 -0.0021,-0.05475 0,-0.01254 0.03979,-0.0015 0.08843,0.02452 0.0809,0.0433 0.0844,0.0398 0.0411,-0.0411 -0.0413,-0.07717 -0.03493,-0.08907 0.05003,-0.09347 0.05354,-0.0028 0.123235,-0.0015 0.154874,0.0028 0.03164,0.0043 0.04489,-0.01256 0.02944,-0.03755 -0.03134,-0.05071 -0.03971,-0.04838 0.253624,-0.07062 0.117032,-0.0089 0.219312,-0.03572 0.227289,-0.05965 0.008,-0.02393 0.03529,-0.03066 0.0607,-0.01496 0.02939,0.01816 0.0363,0.0028 0.019,-0.04233 -0.01498,-0.03904 -0.0066,-0.07089 0.01862,-0.07089 0.0252,0 0.03479,-0.02876 0.0213,-0.0639 -0.03254,-0.08478 0.01129,-0.08083 0.111749,0.01008 0.07392,0.0669 0.08648,0.06756 0.131154,0.0069 0.02717,-0.03689 0.07816,-0.07826 0.113303,-0.09192 0.0502,-0.01952 0.05115,-0.02557 0.0044,-0.02821 -0.03836,-0.0022 -0.0204,-0.03957 0.05062,-0.105393 0.06055,-0.05612 0.0969,-0.11668 0.08077,-0.134587 -0.01613,-0.01791 0.009,-0.01699 0.05588,0.002 0.16083,0.0653 0.299342,0.04966 0.285552,-0.03224 -0.01682,-0.09988 0.08901,-0.135422 0.243196,-0.08167 0.124768,0.04349 0.125047,0.04321 0.101459,-0.102146 -0.0209,-0.128776 -0.01278,-0.145762 0.06963,-0.145762 0.05131,0 0.08281,-0.01696 0.07,-0.03768 -0.01281,-0.02073 0.06945,-0.03768 0.182802,-0.03768 0.113351,0 0.246045,-0.02138 0.294876,-0.04752 0.04883,-0.02614 0.131726,-0.04752 0.18421,-0.04752 h 0.09543 l -0.09494,-0.101056 c -0.08634,-0.09191 -0.08829,-0.103608 -0.02148,-0.129243 0.0404,-0.0155 0.08457,-0.0125 0.09816,0.0067 0.04743,0.06693 0.195628,0.03508 0.18333,-0.0394 -0.01085,-0.06571 0.07472,-0.117698 0.241812,-0.146894 0.0328,-0.0057 0.07564,-0.03566 0.0952,-0.0665 0.01956,-0.03085 0.03586,-0.03787 0.03621,-0.01561 3.41e-4,0.02226 0.02217,0.01895 0.04848,-0.0074 0.03537,-0.03537 0.07551,-0.03521 0.154104,5.96e-4 0.09271,0.04224 0.117175,0.03502 0.191628,-0.05654 0.04694,-0.05773 0.111786,-0.09933 0.144096,-0.09245 0.03485,0.0074 0.05875,-0.0229 0.05875,-0.07455 0,-0.06814 0.0275,-0.08707 0.126463,-0.08707 0.100451,0 0.120868,-0.01458 0.09926,-0.07089 -0.01724,-0.04494 -0.01036,-0.06048 0.01879,-0.04246 0.0253,0.01564 0.07809,0.01611 0.117311,0.0011 0.05128,-0.01968 0.05693,-0.03626 0.02012,-0.05901 -0.03697,-0.02285 -0.02612,-0.05673 0.03903,-0.121872 0.08006,-0.08006 0.08183,-0.0903 0.01568,-0.09088 -0.05912,-5.2e-4 -0.06237,-0.0084 -0.01567,-0.03794 0.04623,-0.02928 0.0393,-0.0435 -0.03225,-0.06621 -0.06838,-0.0217 -0.08644,-0.05477 -0.07235,-0.132457 0.01357,-0.07483 -0.0011,-0.105014 -0.05295,-0.108868 -0.0717,-0.0053 0.106929,-0.04631 0.45241,-0.103795 0.129546,-0.02156 0.176809,-0.04752 0.161087,-0.08849 -0.01398,-0.03644 0.008,-0.05798 0.0591,-0.05798 0.146571,0 0.140075,-0.08495 -0.007,-0.091 -0.11249,-0.0046 -0.119452,-0.0093 -0.03446,-0.02307 0.05858,-0.0095 0.14484,-0.03427 0.1917,-0.05504 0.04686,-0.02077 0.185902,-0.06024 0.308982,-0.08771 0.12308,-0.02747 0.234303,-0.06696 0.247163,-0.08777 0.01286,-0.02081 -0.01116,-0.02815 -0.05338,-0.01632 -0.04222,0.01183 -8.5e-5,-0.01797 0.09364,-0.06623 l 0.170401,-0.08775 -0.181051,0.02689 c -0.197551,0.02934 -0.236268,-0.0016 -0.0852,-0.06815 0.08879,-0.0391 0.08741,-0.04056 -0.01869,-0.01977 -0.120319,0.02357 -0.203829,-0.03805 -0.103663,-0.07649 0.03202,-0.01229 0.151718,-0.03592 0.266006,-0.05251 0.114288,-0.01659 0.246137,-0.05051 0.292997,-0.07537 0.08193,-0.04346 0.08111,-0.04636 -0.0213,-0.07551 -0.08078,-0.02299 -0.05505,-0.03159 0.1065,-0.0356 0.11715,-0.0029 0.299265,-0.02505 0.404701,-0.04921 0.193259,-0.04428 0.655178,-0.250217 0.626212,-0.279183 -0.0086,-0.0086 -0.129033,0.0077 -0.267661,0.03612 -0.229858,0.04718 -0.240798,0.05423 -0.124251,0.08016 0.113515,0.02525 0.106373,0.0292 -0.0639,0.03533 -0.105435,0.0038 -0.273173,0.02266 -0.372751,0.04192 -0.115016,0.02225 -0.18105,0.01959 -0.18105,-0.0073 0,-0.02522 -0.07315,-0.03246 -0.18105,-0.01791 l -0.181051,0.02441 0.127801,-0.05965 c 0.07029,-0.0328 0.156555,-0.06352 0.1917,-0.06826 0.03514,-0.0047 -0.02236,-0.02251 -0.1278,-0.03948 -0.148424,-0.0239 -0.133999,-0.02594 0.0639,-0.009 0.383717,0.03278 0.544884,0.03174 0.637807,-0.0041 0.07127,-0.02749 0.0745,-0.03903 0.0213,-0.07615 -0.04659,-0.03251 -0.03168,-0.03696 0.05801,-0.0173 0.08112,0.01778 0.111391,0.01136 0.09228,-0.01956 -0.01922,-0.0311 0.0093,-0.03654 0.08799,-0.01679 0.08234,0.02067 0.107592,0.01493 0.08625,-0.01959 -0.02826,-0.04573 0.09212,-0.05987 0.577952,-0.06789 0.06225,-10e-4 0.104255,-0.01633 0.09333,-0.03399 -0.01092,-0.01767 0.0027,-0.03213 0.03023,-0.03213 0.02974,0 0.04068,-0.03597 0.02692,-0.08856 -0.01722,-0.06586 -0.007,-0.08237 0.03984,-0.06439 0.03546,0.01361 0.05163,0.0058 0.03698,-0.01793 -0.01448,-0.02342 0.02081,-0.04211 0.0795,-0.04211 0.136163,0 0.245498,-0.04232 0.219212,-0.08485 -0.01133,-0.01833 0.0032,-0.03247 0.03219,-0.03143 0.136703,0.0049 0.204635,-0.01522 0.180894,-0.05363 -0.01546,-0.02501 0.0037,-0.03072 0.04707,-0.01406 0.04926,0.0189 0.06316,0.01196 0.0426,-0.0213 -0.01966,-0.03181 -0.0079,-0.04069 0.03302,-0.02497 0.03494,0.01341 0.09824,0.0027 0.140663,-0.02382 0.06685,-0.04177 0.06294,-0.04482 -0.02936,-0.02283 -0.07921,0.01887 -0.0898,0.01473 -0.0413,-0.01615 0.03586,-0.02283 0.0933,-0.04771 0.127646,-0.05528 0.03435,-0.0076 0.08169,-0.03486 0.105205,-0.06065 0.06404,-0.07022 0.479866,-0.223548 0.745655,-0.274941 0.128865,-0.02492 0.492815,-0.0556 0.808778,-0.06818 0.372751,-0.01484 0.615678,-0.04418 0.691805,-0.08355 0.06453,-0.03337 0.131905,-0.06028 0.149723,-0.05981 0.01782,4.73e-4 0.0324,-0.0231 0.0324,-0.05239 0,-0.07477 0.278939,-0.208806 0.392761,-0.188734 0.05201,0.0092 0.08443,2.56e-4 0.07204,-0.01977 -0.01239,-0.02005 0.06069,-0.03645 0.162405,-0.03645 0.319019,0 0.601287,-0.09894 0.828246,-0.290315 0.11629,-0.09806 0.252249,-0.178286 0.30213,-0.178286 0.04988,0 0.115743,-0.03408 0.146359,-0.07573 0.100549,-0.136787 0.29349,-0.261047 0.363573,-0.234154 0.0489,0.01877 0.05833,0.01024 0.03336,-0.03016 -0.02751,-0.04452 0.0023,-0.05135 0.142121,-0.03259 0.09731,0.01305 0.169145,0.01118 0.159628,-0.0042 -0.0095,-0.01534 0.08154,-0.02391 0.202341,-0.01903 0.156155,0.0063 0.18886,-6.05e-4 0.113144,-0.0239 -0.07663,-0.02358 0.02493,-0.04634 0.3621,-0.08114 0.257731,-0.0266 0.539417,-0.07796 0.62597,-0.114124 0.08655,-0.03617 0.190341,-0.05311 0.230637,-0.03764 0.05368,0.0206 0.06395,0.01303 0.0384,-0.0283 -0.02467,-0.03992 -0.01856,-0.04634 0.02089,-0.02196 0.114662,0.07086 0.264631,0.05989 0.285761,-0.02091 0.02281,-0.08723 0.145479,-0.128716 0.318303,-0.107657 0.06865,0.0084 0.1232,-0.0097 0.136836,-0.04519 0.01306,-0.03403 0.05178,-0.04794 0.09127,-0.03278 0.03842,0.01474 0.120554,-0.0121 0.186721,-0.06102 0.144533,-0.106857 0.454052,-0.158398 0.605159,-0.100772 0.07284,0.02778 0.12625,0.0281 0.153416,9.42e-4 0.05311,-0.05311 0.487949,-0.169273 0.459139,-0.122659 -0.02056,0.03328 0.139609,3.5e-5 0.435373,-0.09035 0.08964,-0.0274 0.18957,-0.02751 0.288023,-3.41e-4 0.08292,0.02289 0.141705,0.02698 0.130641,0.0091 -0.04559,-0.07377 0.256363,-0.297862 0.441043,-0.327312 0.14884,-0.02373 0.180471,-0.01842 0.153169,0.02576 -0.02272,0.03677 -0.01774,0.04537 0.01469,0.02533 0.027,-0.01669 0.101903,8.48e-4 0.166443,0.03897 0.12106,0.07152 0.22692,0.05218 0.40291,-0.07361 0.06,-0.04287 0.0958,-0.03497 0.20387,0.04489 0.137472,0.101638 0.194892,0.09914 0.458682,-0.01998 0.0764,-0.0345 0.16267,-0.04765 0.1917,-0.02921 0.029,0.01844 0.0671,0.03621 0.0847,0.0395 0.0176,0.0033 0.0463,0.0108 0.0639,0.01669 0.0753,0.02523 0.25205,0.02107 0.3393,-0.008 0.0519,-0.01728 0.10376,-0.01617 0.11527,0.0025 0.0267,0.04323 0.28028,0.0075 0.28028,-0.03944 0,-0.01938 0.13547,-0.03124 0.30104,-0.02635 0.16556,0.0049 0.32215,-0.0042 0.34796,-0.02011 0.0258,-0.01595 0.0931,0.0012 0.14952,0.03821 0.0969,0.06349 0.60562,0.111421 0.59981,0.05651 -0.0155,-0.146673 0.0966,-0.174828 0.25479,-0.064 0.0895,0.06267 0.10093,0.0609 0.1718,-0.02662 0.0469,-0.05797 0.12353,-0.09378 0.2006,-0.09378 0.0686,0 0.19173,-0.03594 0.27369,-0.07988 0.16216,-0.08691 0.23279,-0.101823 0.19535,-0.04125 -0.0131,0.02124 0.0153,0.02838 0.0632,0.01585 0.0502,-0.01313 0.21321,0.03534 0.3849,0.114479 0.16378,0.07549 0.32689,0.126091 0.36246,0.112441 0.0419,-0.0161 0.054,-0.0075 0.0342,0.02453 -0.0216,0.03488 -0.007,0.03894 0.051,0.01383 0.0448,-0.01954 0.32116,-0.04063 0.61404,-0.04687 0.29288,-0.0062 0.60918,-0.0285 0.7029,-0.04946 0.10154,-0.02271 0.32533,-0.02204 0.5538,0.0017 0.21087,0.02188 0.46967,0.0387 0.5751,0.03738 0.10544,-0.0013 0.29714,0.02449 0.426,0.05735 0.12887,0.03286 0.45476,0.0706 0.7242,0.08385 0.26945,0.01326 0.53783,0.03334 0.59641,0.04463 0.15973,0.03079 1.27752,0.113559 1.4471,0.107151 0.0813,-0.0031 0.16047,-0.02609 0.17596,-0.05116 0.0338,-0.05463 0.52687,-0.06501 0.67734,-0.01425 0.0939,0.03167 0.0999,0.02792 0.0512,-0.03157 -0.0738,-0.08998 0.004,-0.136894 0.11403,-0.06844 0.0601,0.03752 0.0994,0.03929 0.14018,0.0063 0.11631,-0.09396 0.59636,-0.05177 0.85055,0.07476 0.0935,0.04655 0.24986,0.0019 0.24986,-0.07139 0,-0.07737 0.0433,-0.07437 0.17157,0.0119 0.10192,0.06854 0.1016,0.0668 -0.01,-0.05368 -0.0826,-0.08916 -0.10425,-0.142443 -0.0763,-0.187675 0.032,-0.05183 0.0683,-0.03455 0.20233,0.09628 0.15181,0.148239 0.30879,0.209863 0.30879,0.121215 0,-0.05874 0.26906,-0.03312 0.33778,0.03217 0.0435,0.0413 0.11046,0.04881 0.2343,0.02628 0.0954,-0.01736 0.28204,-0.0338 0.4148,-0.03654 0.25521,-0.0052 0.40605,-0.06886 0.16332,-0.06886 -0.21068,0 -0.13193,-0.04003 0.11992,-0.06096 0.12055,-0.01002 0.26121,-0.04766 0.31259,-0.08364 0.0897,-0.06284 0.0868,-0.06465 -0.0737,-0.04575 -0.15876,0.01869 -0.15672,0.01664 0.0408,-0.04108 0.23863,-0.06974 0.2768,-0.0994 0.30299,-0.235408 0.0104,-0.05417 0.0244,-0.101869 0.031,-0.106003 0.007,-0.0041 0.15337,-0.03509 0.32617,-0.06879 0.17281,-0.0337 0.31092,-0.08044 0.30691,-0.103869 -0.004,-0.02343 -0.0457,-0.03644 -0.0927,-0.0289 -0.0829,0.01328 -0.0831,0.01097 -0.009,-0.07593 0.0422,-0.0493 0.0768,-0.112186 0.0768,-0.139753 0,-0.02757 0.0602,-0.06244 0.13384,-0.0775 0.0736,-0.01506 0.20447,-0.07102 0.29079,-0.124375 0.12722,-0.07863 0.15229,-0.115588 0.13232,-0.195126 -0.0176,-0.07031 -0.003,-0.104847 0.0501,-0.121845 0.0411,-0.01305 0.10007,-0.06428 0.13103,-0.113856 0.0309,-0.04957 0.0357,-0.07741 0.0105,-0.06186 -0.0252,0.01555 -0.0457,0.0199 -0.0457,0.0097 0,-0.01024 0.10543,-0.08251 0.2343,-0.160615 0.12886,-0.0781 0.2343,-0.158252 0.2343,-0.178114 0,-0.01986 -0.0229,-0.02194 -0.051,-0.0046 -0.0699,0.04321 0.0983,-0.182534 0.28493,-0.382449 0.0844,-0.09035 0.16476,-0.221152 0.17867,-0.290674 0.0139,-0.06952 0.0801,-0.166943 0.14713,-0.216491 0.067,-0.04955 0.12185,-0.117272 0.12185,-0.150496 0,-0.03322 0.0461,-0.09664 0.10235,-0.140918 0.10137,-0.07974 0.30684,-0.395038 0.33193,-0.509362 0.007,-0.03263 0.0536,-0.09269 0.1031,-0.133463 0.0495,-0.04078 0.11347,-0.137093 0.14205,-0.214035 0.0286,-0.07694 0.11669,-0.274084 0.19578,-0.438094 0.0791,-0.16401 0.15224,-0.355711 0.16254,-0.426001 0.0103,-0.07029 0.0429,-0.18531 0.0724,-0.2556 0.0295,-0.07029 0.0494,-0.153641 0.044,-0.185223 -0.005,-0.03158 0.024,-0.09459 0.0651,-0.140016 0.0785,-0.08679 0.11221,-0.249862 0.0516,-0.249862 -0.0882,0 -0.02,-0.131877 0.14557,-0.281401 0.0996,-0.08993 0.22523,-0.215992 0.27923,-0.280129 l 0.0982,-0.116613 -0.12996,0.01645 c -0.11609,0.01469 -0.12537,0.0079 -0.087,-0.0639 0.0237,-0.04419 0.038,-0.09587 0.0318,-0.114849 -0.006,-0.01898 0.034,-0.08205 0.0892,-0.140176 0.0553,-0.05812 0.11926,-0.15788 0.14222,-0.221682 0.023,-0.0638 0.11054,-0.158521 0.19462,-0.210486 0.15748,-0.09733 0.12857,-0.164469 -0.0335,-0.07775 -0.18794,0.100579 -0.009,-0.113198 0.21546,-0.257087 0.13654,-0.08762 0.1988,-0.150837 0.16756,-0.170146 -0.0566,-0.03495 0.0928,-0.194999 0.21957,-0.235222 0.0415,-0.01318 0.0886,-0.06522 0.10461,-0.11565 0.016,-0.05043 0.0555,-0.118087 0.0878,-0.150356 0.0323,-0.03227 0.049,-0.07439 0.0371,-0.09359 -0.0119,-0.01921 0.0573,-0.07602 0.15364,-0.12625 0.19432,-0.101288 0.3274,-0.21536 0.25124,-0.21536 -0.0582,0 -0.0387,-0.197856 0.0321,-0.32567 0.0278,-0.05025 0.10713,-0.111068 0.1762,-0.135145 0.0939,-0.03274 0.12022,-0.06424 0.10435,-0.124949 -0.0178,-0.06801 0.0414,-0.107142 0.36522,-0.241355 0.21255,-0.0881 0.38645,-0.17075 0.38645,-0.183666 0,-0.01292 -0.0942,-0.01232 -0.20937,0.0013 -0.15843,0.01876 -0.21501,0.01012 -0.23252,-0.0355 -0.0294,-0.07672 0.26608,-0.164988 0.50357,-0.150415 0.14758,0.0091 0.16147,0.0022 0.11339,-0.05569 -0.0466,-0.05621 -0.0385,-0.0701 0.055,-0.09358 0.0604,-0.01516 0.18087,-0.09263 0.26769,-0.172156 0.0868,-0.07952 0.18766,-0.144883 0.22408,-0.145242 0.0505,-4.97e-4 0.0532,-0.0089 0.0116,-0.03532 -0.0371,-0.02355 4.7e-4,-0.05285 0.11715,-0.09137 0.0945,-0.03118 0.17179,-0.07225 0.17179,-0.09126 0,-0.01901 0.0623,-0.05076 0.13845,-0.07055 0.0957,-0.02488 0.13862,-0.06142 0.139,-0.118368 4.6e-4,-0.072 0.0327,-0.08261 0.2556,-0.08422 0.34066,-0.0025 0.52249,-0.02141 0.4574,-0.04768 -0.0878,-0.03542 -0.0601,-0.1113 0.0319,-0.08725 0.0468,0.01225 0.0959,0.0049 0.10902,-0.01633 0.0131,-0.02123 -10e-4,-0.03889 -0.0319,-0.03925 -0.0447,-5.22e-4 -0.0443,-0.0079 0.002,-0.03707 0.0401,-0.02541 0.008,-0.04622 -0.1065,-0.06887 l -0.16396,-0.03245 0.1278,-0.05244 c 0.0876,-0.03593 0.20827,-0.042 0.3834,-0.01927 0.42111,0.05465 0.50883,0.05059 0.44957,-0.0208 -0.0279,-0.03364 -0.10694,-0.0735 -0.17561,-0.08859 -0.0687,-0.01508 -0.12486,-0.04659 -0.12486,-0.07002 0,-0.03976 0.0788,-0.03171 0.38335,0.03915 0.0991,0.02307 0.0963,0.01547 -0.0414,-0.110307 -0.15988,-0.146027 -0.15172,-0.15308 0.15758,-0.136222 0.0756,0.0041 0.16122,-0.0072 0.19035,-0.02525 0.0949,-0.05866 0.3089,-0.04717 0.41612,0.02233 0.0627,0.04068 0.0917,0.04659 0.072,0.01472 -0.0402,-0.06516 -0.009,-0.06737 0.11346,-0.0079 0.054,0.02628 0.0304,-0.009 -0.056,-0.08405 -0.13153,-0.114142 -0.13842,-0.12952 -0.0585,-0.130531 0.0498,-6.31e-4 0.11537,0.02866 0.14559,0.06508 0.0302,0.03642 0.0949,0.08749 0.14367,0.113474 0.0798,0.04249 0.0828,0.04011 0.0302,-0.02363 -0.0457,-0.0554 -0.0466,-0.07087 -0.004,-0.07087 0.0369,0 0.03,-0.02702 -0.0215,-0.08386 -0.0741,-0.08193 -0.0727,-0.08346 0.0608,-0.06656 0.16741,0.02119 0.26649,-0.01241 0.22912,-0.07769 -0.0154,-0.02683 0.0183,-0.0095 0.0748,0.03844 0.19762,0.1678 0.25182,0.2011 0.25182,0.154703 0,-0.02497 -0.0561,-0.07857 -0.12476,-0.119108 -0.0686,-0.04053 -0.13342,-0.106774 -0.14399,-0.147198 -0.0177,-0.06779 -0.008,-0.06867 0.12937,-0.01141 0.0817,0.03415 0.15873,0.05194 0.17113,0.03955 0.0124,-0.01239 0.0726,0.01209 0.13384,0.05442 0.0612,0.04233 0.14007,0.09336 0.17521,0.113419 0.0551,0.03143 0.0558,0.02652 0.005,-0.03561 -0.0825,-0.101663 -0.0319,-0.08978 0.17646,0.04142 0.1033,0.06506 0.15525,0.08324 0.12174,0.0426 -0.0496,-0.06009 -0.0496,-0.07111 0,-0.07226 0.0391,-9.07e-4 0.0311,-0.02204 -0.0242,-0.0639 -0.094,-0.07106 -0.005,-0.08987 0.10257,-0.02173 0.0391,0.02471 0.0817,0.02356 0.11378,-0.0031 0.097,-0.08055 0.45712,0.147151 0.61039,0.385989 0.076,0.1184 0.14621,0.215272 0.15609,0.215272 0.0188,0 -0.0691,-0.191527 -0.18209,-0.397006 -0.0647,-0.117687 -0.0643,-0.118984 0.0232,-0.0644 0.0491,0.03064 0.15729,0.180537 0.24051,0.333106 0.15514,0.284418 0.16172,0.200241 0.008,-0.106003 l -0.0854,-0.170401 0.0927,0.08281 c 0.0783,0.06994 0.0884,0.07159 0.065,0.01065 -0.0482,-0.125643 0.012,-0.07815 0.1111,0.08759 0.12629,0.21128 0.16107,0.104169 0.041,-0.126222 -0.1379,-0.264564 0.01,-0.12209 0.17775,0.171472 0.0748,0.13069 0.14363,0.21459 0.15301,0.186444 0.009,-0.02815 0.0344,-0.04048 0.0555,-0.0274 0.0212,0.01308 0.0284,-0.0024 0.0161,-0.03447 -0.0123,-0.03203 -0.006,-0.101625 0.0133,-0.154648 0.0336,-0.09079 0.0405,-0.08632 0.11869,0.07684 0.0457,0.09529 0.096,0.173467 0.11193,0.173735 0.0159,2.69e-4 0.0588,0.03039 0.0954,0.06694 0.14191,0.141915 0.5031,0.360973 0.47516,0.28819 -0.0152,-0.03953 0.0776,0.02266 0.20602,0.138199 0.12847,0.115536 0.29694,0.259983 0.37437,0.320995 0.15445,0.121694 0.68159,0.379121 0.95019,0.464016 0.0937,0.02962 0.18957,0.06826 0.213,0.08586 0.0234,0.0176 0.24388,0.133094 0.4899,0.256644 0.85622,0.429998 1.06609,0.625401 1.17605,1.094961 0.0876,0.374217 0.0626,0.410996 -0.25396,0.373357 -0.14398,-0.01712 -0.42474,-0.04614 -0.62389,-0.06449 -0.42997,-0.03962 -0.62602,-0.0875 -0.93866,-0.229249 -0.33561,-0.152164 -0.91142,-0.253566 -1.09529,-0.192884 l -0.14339,0.04733 0.16212,0.141606 c 0.25974,0.226877 1.21722,0.566332 2.14302,0.759769 0.31813,0.06647 0.31369,0.155633 -0.018,0.361197 -0.23825,0.147663 -0.27142,0.15616 -0.5964,0.152796 -0.29876,-0.0031 -0.40089,-0.0264 -0.77462,-0.176813 -0.23676,-0.09529 -0.57026,-0.194938 -0.74112,-0.221446 -0.17084,-0.02651 -0.32824,-0.05908 -0.34976,-0.07238 -0.0734,-0.04539 -0.66891,-0.05602 -0.69586,-0.01242 -0.0146,0.02354 -0.0609,0.03186 -0.10301,0.01849 -0.0476,-0.0151 -0.0864,0.0014 -0.10262,0.04357 -0.0143,0.03733 -0.0462,0.05542 -0.0708,0.0402 -0.0246,-0.01522 -0.0727,-0.0045 -0.1068,0.02382 -0.0492,0.04081 -0.0623,0.03936 -0.0634,-0.007 -9.8e-4,-0.0419 -0.0174,-0.03735 -0.0579,0.01608 -0.0311,0.041 -0.0869,0.07455 -0.12394,0.07455 -0.037,0 -0.081,0.02207 -0.0976,0.04905 -0.0213,0.03447 -0.0459,0.02777 -0.0827,-0.02255 -0.0473,-0.06463 -0.0549,-0.065 -0.0784,-0.0038 -0.0143,0.03732 -0.0437,0.05692 -0.0653,0.04357 -0.0216,-0.01336 -0.10014,0.02692 -0.17451,0.08949 -0.11051,0.09298 -0.14219,0.102769 -0.17336,0.05353 -0.0269,-0.04248 -0.0383,-0.04455 -0.0388,-0.007 -4.2e-4,0.02929 -0.0224,0.05325 -0.0489,0.05325 -0.0265,0 -0.084,0.04127 -0.1278,0.09172 -0.0627,0.07228 -0.0796,0.07736 -0.0796,0.02395 0,-0.04151 -0.033,-0.06528 -0.0852,-0.06135 -0.0469,0.0035 -0.0852,0.02264 -0.0852,0.04247 0,0.01983 -0.0192,0.0242 -0.0426,0.0097 -0.0234,-0.01448 -0.0426,-0.0066 -0.0426,0.01745 0,0.02408 -0.0288,0.03274 -0.0639,0.01926 -0.0351,-0.01349 -0.0639,-0.006 -0.0639,0.01673 0,0.02269 -0.0477,0.03213 -0.106,0.02099 -0.0631,-0.01205 -0.095,-0.03986 -0.0789,-0.06864 0.0158,-0.02829 0.003,-0.02626 -0.0303,0.0049 -0.0725,0.06732 -0.18378,0.07043 -0.14272,0.004 0.0217,-0.03516 -0.008,-0.04164 -0.10262,-0.02264 -0.10042,0.02008 -0.14313,0.0087 -0.17413,-0.0466 -0.0645,-0.115017 -0.46543,-0.09145 -0.64001,0.03762 -0.091,0.06729 -0.14518,0.08465 -0.16519,0.05295 -0.0495,-0.07853 -0.26234,-0.0549 -0.31015,0.03444 -0.0532,0.09936 -0.13977,0.05719 -0.11071,-0.05393 0.0303,-0.116015 -0.005,-0.10017 -0.16374,0.07281 -0.10521,0.114868 -0.16205,0.146304 -0.22715,0.125639 -0.0735,-0.02331 -0.1036,0.0091 -0.19557,0.210164 -0.0598,0.130748 -0.10874,0.252188 -0.10874,0.269866 0,0.01768 -0.10675,0.136923 -0.23722,0.264988 -0.13048,0.128065 -0.27473,0.314318 -0.32057,0.413896 -0.0458,0.09958 -0.10203,0.18105 -0.12488,0.18105 -0.0228,0 -0.0415,0.02652 -0.0415,0.05893 0,0.06856 -0.18482,0.129401 -0.2059,0.06778 -0.0261,-0.07622 -0.0939,-0.04272 -0.13564,0.06693 -0.0227,0.05964 -0.0653,0.105296 -0.0948,0.101453 -0.12527,-0.01634 -0.15936,0.01216 -0.20775,0.173697 -0.0429,0.143 -0.0759,0.177446 -0.20406,0.212989 -0.0841,0.02332 -0.17402,0.05678 -0.19978,0.07436 -0.0682,0.04655 -0.27267,0.581001 -0.27267,0.712692 0,0.06408 -0.0183,0.101081 -0.0426,0.08607 -0.0234,-0.01448 -0.0426,0.0036 -0.0426,0.04009 0,0.03653 -0.0192,0.06641 -0.0426,0.06641 -0.0234,0 -0.0426,0.02876 -0.0426,0.0639 0,0.03514 -0.0144,0.05983 -0.0319,0.05485 -0.0752,-0.02132 -0.21602,0.101237 -0.24152,0.210277 -0.0461,0.19686 -0.11788,0.352695 -0.15265,0.331202 -0.0476,-0.02939 -0.10432,0.05983 -0.16943,0.266323 -0.0314,0.09958 -0.0732,0.18105 -0.0929,0.18105 -0.0197,0 -0.0358,0.07668 -0.0358,0.1704 0,0.09372 -0.0183,0.1704 -0.0407,0.1704 -0.0224,0 -0.0533,0.0671 -0.0686,0.149101 -0.0154,0.08201 -0.0403,0.1491 -0.0554,0.1491 -0.0516,0 -0.12763,0.23412 -0.15752,0.485299 -0.031,0.260345 -0.10148,0.44045 -0.19505,0.498278 -0.0299,0.01846 -0.0872,0.134481 -0.12741,0.257826 -0.0633,0.194179 -0.0656,0.246187 -0.0168,0.387674 0.0576,0.16716 0.0429,0.348123 -0.0249,0.306233 -0.0208,-0.01283 -0.0378,-0.06167 -0.0378,-0.108535 0,-0.04686 -0.0177,-0.07425 -0.0394,-0.06086 -0.0217,0.01338 -0.0482,-0.0094 -0.059,-0.05074 -0.0108,-0.04129 -0.0218,0.01279 -0.0245,0.120178 -0.005,0.217337 -0.0355,0.272471 -0.11319,0.207994 -0.0695,-0.05772 -0.11204,0.0426 -0.14385,0.339559 -0.0232,0.216514 -0.0294,0.226945 -0.0959,0.160116 -0.0665,-0.06687 -0.0747,-0.06346 -0.12619,0.05288 -0.0303,0.0684 -0.0701,0.115028 -0.0886,0.10362 -0.0185,-0.01141 -0.0336,0.04619 -0.0336,0.128002 0,0.104189 -0.0223,0.155877 -0.0746,0.172558 -0.041,0.0131 -0.12837,0.119825 -0.19416,0.237172 -0.0658,0.117346 -0.14689,0.213356 -0.18023,0.213356 -0.0333,0 -0.0722,0.05272 -0.0863,0.11715 -0.0633,0.289067 -0.29648,0.752425 -0.3592,0.713665 -0.0182,-0.01125 -0.0431,0.01775 -0.0553,0.06444 -0.0133,0.05097 -0.046,0.07575 -0.0819,0.062 -0.0507,-0.01944 -0.2633,0.116819 -0.2462,0.157773 0.003,0.0076 -0.0147,0.06772 -0.0397,0.133528 -0.025,0.06581 -0.0582,0.199301 -0.0738,0.296651 -0.0225,0.140872 -0.035,0.159926 -0.061,0.09335 -0.0276,-0.07062 -0.0332,-0.06501 -0.0357,0.03601 -0.002,0.06834 -0.0213,0.108372 -0.0456,0.09334 -0.0234,-0.01448 -0.0426,-0.004 -0.0426,0.02334 0,0.02732 -0.0288,0.03864 -0.0639,0.02515 -0.0389,-0.01494 -0.0639,-8.5e-5 -0.0639,0.03804 0,0.03441 -0.024,0.05777 -0.0532,0.05191 -0.0597,-0.01195 -0.0727,0.174708 -0.0251,0.3621 0.0166,0.06517 0.0122,0.117151 -0.01,0.117151 -0.0218,0 -0.0396,-0.023 -0.0396,-0.05112 0,-0.03976 -0.0114,-0.03976 -0.0511,0 -0.0763,0.07626 -0.11928,0.06208 -0.11928,-0.0393 0,-0.07257 -0.0118,-0.08067 -0.0595,-0.04103 -0.0327,0.02716 -0.0501,0.08545 -0.0386,0.129522 0.0154,0.05891 -0.005,0.08389 -0.0765,0.09428 -0.0725,0.01052 -0.12021,0.0708 -0.18619,0.235332 -0.10572,0.263601 -0.14275,0.307476 -0.1921,0.227618 -0.0523,-0.08463 -0.15749,0.0089 -0.19328,0.171838 -0.0151,0.06867 -0.0438,0.124857 -0.0638,0.124857 -0.02,0 -0.0489,0.03973 -0.0644,0.08828 -0.0161,0.05081 -0.0524,0.07893 -0.0854,0.06626 -0.0316,-0.01211 -0.13301,0.0536 -0.22543,0.146019 -0.0924,0.09243 -0.17855,0.168044 -0.1914,0.168044 -0.0128,0 -0.0296,-0.04313 -0.0373,-0.09585 -0.0112,-0.07684 -0.0308,-0.05575 -0.0988,0.106341 -0.0473,0.112873 -0.11305,0.202416 -0.14872,0.202702 -0.0352,2.98e-4 -0.10408,0.07455 -0.15319,0.165035 -0.0804,0.148205 -0.0833,0.175986 -0.0287,0.280072 0.0715,0.13642 0.0437,0.245981 -0.0529,0.208895 -0.0542,-0.02079 -0.0624,-0.0051 -0.0414,0.07882 0.0195,0.07792 0.009,0.104788 -0.0404,0.104788 -0.0367,0 -0.0681,-0.03035 -0.0697,-0.06745 -0.003,-0.05822 -0.007,-0.05871 -0.032,-0.0035 -0.0363,0.08023 -0.13502,0.103278 -0.13675,0.03195 -7.2e-4,-0.02981 -0.0203,-0.02068 -0.0444,0.02074 -0.0292,0.05019 -0.0288,0.100673 10e-4,0.15695 0.0558,0.104371 0.0573,0.174416 0.002,0.08857 -0.0344,-0.05318 -0.042,-0.0496 -0.0453,0.0213 -0.002,0.04686 -0.0137,0.06112 -0.0256,0.03168 -0.0119,-0.02943 -0.0391,-0.04268 -0.0605,-0.02943 -0.0214,0.01324 -0.0416,-0.02977 -0.0449,-0.09558 -0.003,-0.06582 -0.0299,0.148716 -0.0592,0.476736 -0.12178,1.361249 -0.2432,1.983932 -0.43052,2.207822 -0.0554,0.06623 -0.10075,0.139249 -0.10075,0.162264 0,0.02302 -0.0191,0.03005 -0.0424,0.01563 -0.0233,-0.01442 -0.0645,0.02219 -0.0914,0.08135 -0.027,0.05916 -0.0654,0.09745 -0.0854,0.08509 -0.02,-0.01236 -0.0384,0.0026 -0.0409,0.03329 -0.003,0.03067 -0.009,0.08452 -0.014,0.119664 -0.005,0.03514 -0.0154,0.14058 -0.0226,0.234301 -0.009,0.111705 -0.0195,0.137167 -0.0316,0.07392 -0.022,-0.114228 -0.0977,-0.08507 -0.0977,0.03761 0,0.04686 -0.0178,0.07421 -0.0395,0.06077 -0.0217,-0.01344 -0.0519,0.01446 -0.067,0.062 -0.0151,0.04754 -0.0441,0.07616 -0.0644,0.0636 -0.0203,-0.01256 -0.0377,0.01112 -0.0385,0.05263 -8.6e-4,0.04151 -0.0144,0.19049 -0.0301,0.331071 -0.0209,0.186911 -0.0375,0.232704 -0.0619,0.1704 -0.0282,-0.07212 -0.0338,-0.07376 -0.0363,-0.01065 -0.002,0.041 -0.0192,0.07455 -0.0391,0.07455 -0.071,0 -0.34729,0.593396 -0.35155,0.754995 -0.004,0.143184 -0.008,0.149176 -0.0384,0.05441 l -0.0341,-0.1065 -0.004,0.11715 c -0.005,0.128015 -0.11277,0.160496 -0.2127,0.0639 -0.0448,-0.04332 -0.0513,-0.02347 -0.0345,0.1065 0.0152,0.117862 0.005,0.159751 -0.0386,0.159751 -0.0429,0 -0.0611,0.06743 -0.0659,0.24495 l -0.007,0.24495 -0.0292,-0.213 c -0.0281,-0.204643 -0.0569,-0.151718 -0.0813,0.1491 -0.005,0.0568 -0.01,0.0568 -0.0465,0 -0.0359,-0.0556 -0.0414,-0.05489 -0.0419,0.0054 -4.3e-4,0.03813 0.0281,0.0932 0.0633,0.122366 0.0351,0.02917 0.0639,0.100661 0.0639,0.158874 0,0.07658 -0.0177,0.09906 -0.0639,0.08132 -0.0471,-0.01806 -0.0641,0.006 -0.0645,0.09129 -4.7e-4,0.08021 -0.0118,0.09824 -0.0369,0.05864 -0.0518,-0.08172 -0.20486,0.02009 -0.23986,0.159536 -0.0211,0.08418 -0.0348,0.09341 -0.0657,0.04452 -0.031,-0.04902 -0.0391,-0.04981 -0.0397,-0.0039 -4.3e-4,0.03378 -0.0272,0.04762 -0.0645,0.03329 -0.0435,-0.01668 -0.0639,0.0023 -0.0639,0.05934 0,0.04612 -0.0192,0.08386 -0.0426,0.08386 -0.0234,0 -0.0426,-0.01857 -0.0426,-0.04126 0,-0.02269 -0.0268,-0.03097 -0.0596,-0.0184 -0.0328,0.01258 -0.0722,0.0024 -0.0877,-0.02264 -0.036,-0.05831 -0.10829,-0.05906 -0.10829,-0.0011 0,0.07129 0.13793,0.191967 0.28755,0.251587 0.0761,0.03034 0.13845,0.08008 0.13845,0.110516 0,0.03044 0.0563,0.0677 0.12503,0.08281 0.14512,0.03187 0.81549,0.483066 1.00641,0.677363 0.19899,0.202516 0.44345,0.409547 0.48358,0.409547 0.0198,0 0.0606,0.02966 0.0906,0.06591 0.0301,0.03625 0.15665,0.11414 0.28126,0.173091 0.12461,0.05895 0.23848,0.126449 0.25303,0.149996 0.0145,0.02355 0.0532,0.03254 0.086,0.01998 0.0645,-0.02474 0.44309,0.210795 0.44309,0.27564 0,0.02177 0.024,0.03479 0.0532,0.02893 0.0302,-0.006 0.0592,0.04142 0.0671,0.109849 0.009,0.08106 0.0328,0.113196 0.0719,0.09819 0.0387,-0.01485 0.0626,0.01608 0.0714,0.0925 0.009,0.08204 0.0345,0.111241 0.0878,0.102296 0.0508,-0.0085 0.0746,0.01526 0.0746,0.07455 0,0.06139 0.0283,0.08757 0.0958,0.08877 0.0874,0.0016 0.0845,0.0081 -0.032,0.07349 l -0.1278,0.07178 0.1065,0.01299 c 0.21786,0.02657 0.2982,0.05613 0.2982,0.109715 0,0.03028 0.0399,0.09793 0.0888,0.150326 0.10194,0.10942 0.17662,0.334075 0.1446,0.434975 -0.012,0.03786 0.0182,0.119758 0.0672,0.182 0.0809,0.102898 0.0829,0.119242 0.022,0.180136 -0.0504,0.05036 -0.0673,0.05301 -0.0683,0.01068 -8.1e-4,-0.03469 -0.0183,-0.02707 -0.0456,0.01987 -0.0333,0.05723 -0.0229,0.120763 0.0419,0.2556 0.14111,0.293691 0.18521,0.566161 0.13263,0.819415 -0.0523,0.25208 -0.13416,0.388427 -0.20633,0.343818 -0.027,-0.01668 -0.0492,-0.09149 -0.0493,-0.166258 -4.3e-4,-0.173414 -0.0671,-0.414725 -0.14386,-0.519697 -0.0532,-0.07281 -0.0682,-0.0749 -0.13885,-0.01933 -0.0718,0.05654 -0.074,0.05576 -0.0238,-0.0085 0.0354,-0.04525 0.0399,-0.08029 0.0125,-0.09721 -0.0235,-0.01455 -0.0746,0.02209 -0.11347,0.08141 -0.0827,0.12618 -0.17023,0.147417 -0.10497,0.02546 0.0585,-0.109382 0.0556,-0.142383 -0.009,-0.104492 -0.0293,0.01712 -0.0197,-0.0072 0.0213,-0.05409 0.0788,-0.09011 0.0987,-0.185018 0.0388,-0.185018 -0.0197,0 -0.0576,-0.04793 -0.0843,-0.106501 -0.0562,-0.123279 -0.16752,-0.140198 -0.21027,-0.03195 -0.0237,0.05986 -0.0357,0.04937 -0.0611,-0.05325 -0.0194,-0.07821 -0.0247,-0.01728 -0.0137,0.15704 0.01,0.156662 0.0558,0.425043 0.10196,0.596401 0.24784,0.919676 0.3094,1.282374 0.28999,1.708593 -0.0105,0.229476 -0.0309,0.429164 -0.0455,0.44375 -0.0146,0.01459 -0.0265,4.9e-4 -0.0265,-0.03132 0,-0.03748 -0.0209,-0.02918 -0.0595,0.02356 -0.0338,0.04623 -0.052,0.142274 -0.0421,0.222271 0.0115,0.0928 -0.002,0.148479 -0.0407,0.163187 -0.066,0.02532 -0.095,0.417952 -0.1551,2.100135 -0.0204,0.571126 -0.0533,1.054666 -0.0732,1.074531 -0.0199,0.01987 -0.0859,0.01028 -0.1468,-0.0213 l -0.11068,-0.05742 -0.0304,0.494054 c -0.0296,0.480577 -0.12124,1.116787 -0.17293,1.200413 -0.041,0.0664 -0.20146,0.04769 -0.34582,-0.04034 -0.1718,-0.104758 -0.34723,-0.461656 -0.38963,-0.79268 -0.0324,-0.252975 -0.033,-0.250847 -0.10878,0.363235 -0.0419,0.339735 -0.0937,0.635392 -0.11501,0.657015 -0.10327,0.104587 -0.5606,-0.277384 -0.70534,-0.589116 l -0.097,-0.209001 -0.0134,0.187333 c -0.01,0.137579 -0.0331,0.19107 -0.0876,0.201399 -0.13386,0.02539 -0.40959,-0.212318 -0.53179,-0.458451 l -0.11525,-0.23212 -0.0461,0.18932 c -0.0279,0.114626 -0.0732,0.194531 -0.11469,0.20253 -0.0936,0.01802 -0.2704,-0.226289 -0.33304,-0.46011 -0.0482,-0.179834 -0.0344,-0.645341 0.0249,-0.837776 0.0132,-0.04297 -0.004,-0.0302 -0.0375,0.02837 -0.0338,0.05857 -0.10617,0.246287 -0.16077,0.417139 -0.11953,0.374005 -0.20728,0.396338 -0.36962,0.09406 -0.0913,-0.170103 -0.10058,-0.230094 -0.0819,-0.5325 0.0116,-0.187441 0.0334,-0.379141 0.0485,-0.426001 0.0354,-0.109679 -0.0132,-0.04366 -0.20149,0.27399 -0.0755,0.127263 -0.16104,0.239049 -0.19018,0.248412 -0.0956,0.03072 -0.147,-0.212053 -0.12855,-0.607602 0.0183,-0.391654 0.10138,-0.685701 0.34614,-1.224752 0.0612,-0.134723 0.10469,-0.24495 0.0967,-0.24495 -0.008,0 -0.10374,0.13419 -0.21281,0.2982 -0.19286,0.290047 -0.2517,0.340387 -0.30226,0.25859 -0.0557,-0.09014 -0.10256,-0.688672 -0.07,-0.894503 0.0304,-0.192358 0.0262,-0.217277 -0.0327,-0.194676 -0.0466,0.01788 -0.0391,-0.0045 0.0241,-0.0723 0.0765,-0.08197 0.1123,-0.163878 0.16385,-0.375116 0.003,-0.01172 0.0281,-0.07668 0.0561,-0.144358 0.0965,-0.233386 0.0111,-0.161813 -0.12234,0.102596 -0.0736,0.145783 -0.17786,0.309114 -0.2317,0.362959 -0.0538,0.05384 -0.11146,0.171341 -0.12804,0.261102 -0.0166,0.08976 -0.0637,0.201542 -0.10478,0.248402 -0.0411,0.04686 -0.10896,0.178274 -0.15089,0.292029 -0.0853,0.231318 -0.29607,0.496073 -0.395,0.496073 -0.0657,0 -0.065,-0.02361 0.0115,-0.367781 0.0456,-0.205093 -0.4355,0.656196 -0.6456,1.155882 -0.10837,0.25773 -0.32077,0.813661 -0.472,1.235402 -0.34611,0.965183 -0.41848,1.128901 -0.49902,1.128901 -0.0792,0 -0.1599,-0.141122 -0.19494,-0.3408 -0.0252,-0.143409 -0.0308,-0.135277 -0.14739,0.213 -0.23728,0.70877 -0.62081,1.448402 -0.75105,1.448402 -0.10932,0 -0.32725,-0.272119 -0.38338,-0.478691 -0.0288,-0.106162 -0.04,-0.320562 -0.0268,-0.51608 l 0.0225,-0.334471 -0.23407,0.462271 c -0.12873,0.254249 -0.2514,0.480228 -0.2726,0.502177 -0.0593,0.06143 -0.22519,-0.118969 -0.3614,-0.393083 -0.10706,-0.215454 -0.12113,-0.29062 -0.12322,-0.658342 -0.001,-0.228315 -0.007,-0.415223 -0.0126,-0.41535 -0.006,-1.28e-4 -0.0667,0.124252 -0.13566,0.276402 -0.0835,0.184231 -0.14457,0.269288 -0.18274,0.254641 -0.0966,-0.03708 -0.32766,-0.46579 -0.37833,-0.702049 -0.0264,-0.122913 -0.0375,-0.292924 -0.0248,-0.377803 l 0.0232,-0.154325 -0.0717,0.105106 c -0.15452,0.226442 -0.25703,0.321353 -0.30057,0.278294 -0.0237,-0.02343 -0.0673,-0.133619 -0.097,-0.244864 -0.0954,-0.357875 0.0807,-0.912616 0.4129,-1.300684 0.27386,-0.319946 0.0735,-0.190655 -0.34753,0.224314 -0.22552,0.222237 -0.42551,0.3945 -0.44443,0.382807 -0.0189,-0.01169 -0.0573,-0.09073 -0.0853,-0.175633 -0.11482,-0.347883 0.0694,-0.887343 0.43649,-1.277942 0.27108,-0.288467 0.17043,-0.244679 -0.30429,0.132387 -0.19298,0.153292 -0.38055,0.278712 -0.41682,0.278712 -0.10795,0 -0.0361,-0.393996 0.13911,-0.762967 0.13018,-0.274119 0.23901,-0.409102 0.73596,-0.912779 0.63053,-0.639081 0.62464,-0.642536 -0.17577,-0.103065 -0.30726,0.207089 -0.39228,0.191582 -0.3528,-0.06435 0.0432,-0.280307 0.1869,-0.68206 0.3175,-0.887868 0.0653,-0.102891 0.28757,-0.386191 0.49393,-0.629554 0.34359,-0.405197 0.35949,-0.431612 0.18866,-0.313509 -0.1026,0.07093 -0.32073,0.236829 -0.48474,0.368655 -0.18006,0.144725 -0.33196,0.235178 -0.3834,0.228309 -0.17849,-0.02383 -0.11442,-0.483719 0.13742,-0.986472 0.11645,-0.232472 0.13151,-0.226795 -0.24022,-0.09055 -0.16579,0.06077 -0.19543,0.06148 -0.2509,0.006 -0.0977,-0.09768 0.0469,-0.348972 0.5334,-0.926716 0.0518,-0.06156 0.026,-0.06036 -0.23013,0.01065 -0.15869,0.044 -0.38001,0.08001 -0.4918,0.08001 -0.18285,0 -0.20312,-0.0096 -0.20177,-0.09585 0.002,-0.129304 0.0745,-0.251261 0.27641,-0.46527 0.0932,-0.09874 0.14063,-0.169007 0.10549,-0.156148 -0.54164,0.198175 -0.98405,0.329563 -1.03888,0.308524 -0.10835,-0.04158 -0.0812,-0.226738 0.0697,-0.476239 0.10505,-0.173612 0.22317,-0.286404 0.48956,-0.467468 0.19311,-0.131255 0.34647,-0.242821 0.3408,-0.247924 -0.006,-0.0051 -0.2691,0.07483 -0.58541,0.177637 -0.3163,0.102804 -0.59953,0.187011 -0.6294,0.187126 -0.076,2.99e-4 -0.14289,-0.197372 -0.11048,-0.326517 0.0418,-0.166444 0.26848,-0.365087 0.6956,-0.60951 0.21452,-0.122763 0.38413,-0.228894 0.37691,-0.235845 -0.0186,-0.01793 -0.65947,0.09458 -0.87549,0.153712 -0.20604,0.0564 -0.3306,-0.0025 -0.29478,-0.139506 0.0294,-0.112431 -0.0371,-0.09504 -0.13135,0.03436 -0.069,0.09476 -0.095,0.104677 -0.16948,0.0648 -0.0686,-0.03669 -0.0995,-0.03317 -0.14027,0.01592 -0.0639,0.07695 -0.15498,0.08178 -0.18404,0.0098 -0.0128,-0.03181 -0.0228,-0.02323 -0.0249,0.0213 -0.002,0.041 -0.0299,0.07455 -0.0623,0.07455 -0.0472,0 -0.11472,0.130455 -0.10758,0.207734 8.1e-4,0.0088 -0.0429,0.03877 -0.0971,0.06657 -0.1384,0.07098 -0.24839,0.0319 -0.30778,-0.109348 -0.0481,-0.114355 -0.0559,-0.117336 -0.14444,-0.0553 -0.0645,0.04516 -0.0936,0.109625 -0.0936,0.207043 0,0.174546 -0.0971,0.273036 -0.1917,0.1945 -0.0536,-0.04445 -0.0639,-0.0376 -0.0639,0.04235 0,0.07384 -0.0189,0.09044 -0.0837,0.07349 -0.0521,-0.01364 -0.12525,0.01661 -0.1939,0.08023 -0.0606,0.05617 -0.1269,0.102121 -0.14732,0.102121 -0.0204,0 -0.0959,0.05877 -0.16773,0.130606 -0.0718,0.07183 -0.14861,0.119479 -0.17061,0.105881 -0.022,-0.0136 -0.0523,0.01389 -0.0672,0.06109 -0.015,0.0472 -0.0451,0.08582 -0.067,0.08582 -0.0219,0 -0.0397,0.01998 -0.0397,0.0444 0,0.07492 -0.441312,0.552002 -0.510612,0.552002 -0.0204,0 -0.0747,0.04793 -0.12078,0.1065 -0.0461,0.05858 -0.11389,0.106501 -0.15069,0.106501 -0.0368,0 -0.0877,0.03888 -0.11316,0.08639 -0.02543,0.04752 -0.06445,0.07514 -0.0867,0.06139 -0.02225,-0.01375 -0.04046,-0.0047 -0.04046,0.02011 0,0.02481 -0.02876,0.04511 -0.0639,0.04511 -0.03515,0 -0.0639,0.0203 -0.0639,0.04511 0,0.02481 -0.01676,0.03476 -0.03724,0.0221 -0.02048,-0.01266 -0.08549,0.0217 -0.144452,0.07635 -0.101963,0.0945 -0.223825,0.16424 -0.300991,0.172264 -0.01946,0.002 -0.0578,0.03243 -0.0852,0.06758 -0.0274,0.03514 -0.121704,0.100467 -0.209567,0.145159 -0.08786,0.04469 -0.15975,0.09741 -0.15975,0.11715 0,0.01974 -0.03834,0.03589 -0.0852,0.03589 -0.04686,0 -0.0852,0.01857 -0.0852,0.04126 0,0.02269 -0.02677,0.03099 -0.05948,0.01844 -0.03272,-0.01255 -0.08576,0.01201 -0.117871,0.05459 -0.08237,0.109202 -0.333413,0.237419 -0.33536,0.17128 -8.52e-4,-0.0282 -0.02618,-0.0068 -0.05632,0.04752 -0.07241,0.1305 -0.414234,0.326638 -0.454819,0.260971 -0.01891,-0.0306 -0.06392,-1.27e-4 -0.123549,0.08361 -0.05159,0.07245 -0.118671,0.131736 -0.149057,0.131736 -0.03039,0 -0.105768,0.03973 -0.1675,0.08829 -0.06174,0.04856 -0.112247,0.07434 -0.112247,0.0573 0,-0.01705 -0.03355,-0.0022 -0.07455,0.03303 -0.06476,0.05561 -0.20025,0.125507 -0.26625,0.137337 -0.01172,0.0021 -0.0884,0.05336 -0.1704,0.113908 -0.082,0.06055 -0.221188,0.142953 -0.309294,0.18312 -0.176172,0.08031 -0.624971,0.439786 -0.80484,0.644645 -0.063,0.07175 -0.211406,0.175823 -0.329797,0.231275 -0.196366,0.09197 -0.208812,0.106141 -0.141815,0.161436 0.06818,0.05627 0.06734,0.05868 -0.01176,0.03365 -0.06101,-0.01931 -0.04692,0.0069 0.04961,0.09237 0.07415,0.06563 0.254692,0.311033 0.401213,0.545333 0.14652,0.234301 0.336416,0.512266 0.421991,0.617701 0.08558,0.105436 0.314892,0.392986 0.509596,0.639001 0.194708,0.246016 0.379076,0.461968 0.409714,0.479893 0.03064,0.01793 0.110973,0.08502 0.17852,0.149101 0.213115,0.202172 0.613999,0.53873 0.762196,0.639894 0.07846,0.05356 0.142664,0.114966 0.142664,0.136451 0,0.02149 0.06709,0.07091 0.1491,0.109819 0.082,0.03891 0.1491,0.08684 0.1491,0.1065 0,0.01966 0.06776,0.0679 0.150574,0.107199 0.08281,0.0393 0.169719,0.10723 0.193123,0.15096 0.0234,0.04373 0.117564,0.117776 0.209243,0.164548 0.09168,0.04677 0.182099,0.111332 0.200928,0.143468 0.01883,0.03214 0.09179,0.08782 0.162136,0.123738 0.167107,0.08533 0.292849,0.226594 0.255498,0.287033 -0.01631,0.02638 -0.0013,0.08031 0.03329,0.119835 0.09459,0.108008 0.201013,0.333885 0.201013,0.426635 0,0.04515 0.02875,0.105963 0.0639,0.135131 0.03514,0.02917 0.0639,0.09456 0.0639,0.145309 0,0.103457 0.104004,0.323392 0.249645,0.527929 0.05333,0.07489 0.08127,0.136746 0.06211,0.137459 -0.01917,7.11e-4 -0.0019,0.02048 0.03829,0.04393 0.11984,0.06985 0.25324,0.422875 0.26522,0.701864 0.006,0.141454 0.0333,0.29883 0.0606,0.349725 0.0272,0.0509 0.0452,0.10769 0.0399,0.126211 -0.005,0.01852 0.0165,0.08103 0.0485,0.138909 0.0343,0.06203 0.0611,0.254398 0.0653,0.4686 0.004,0.199854 0.0329,0.449635 0.0643,0.555071 0.0629,0.210964 0.0709,0.845573 0.013,1.038121 -0.0439,0.146138 -0.13582,0.159478 -0.709426,0.102948 z m -6.56709,-0.905463 c -0.342536,-0.108302 -0.446384,-0.119847 -0.446384,-0.04963 0,0.04684 0.0564,0.0694 0.20235,0.08091 0.388659,0.03065 0.425109,0.02597 0.244034,-0.03128 z M 69.360274,85.208662 c 0.01492,-0.02415 -0.0022,-0.03129 -0.04009,-0.01674 -0.0738,0.02832 -0.0873,0.05885 -0.02603,0.05885 0.02205,0 0.0518,-0.01895 0.06611,-0.04211 z m 4.306933,-0.532988 c 0.132904,-0.123171 0.08548,-0.142798 -0.05728,-0.0237 -0.08898,0.07423 -0.121973,0.130205 -0.07675,0.130205 0.01051,0 0.07082,-0.04793 0.13402,-0.1065 z m 14.117896,-1.980903 c -0.03514,-0.02271 -0.10224,-0.03968 -0.149101,-0.0377 -0.07019,0.003 -0.06644,0.0096 0.0213,0.0377 0.15062,0.04824 0.202441,0.04824 0.1278,0 z m 24.182447,-0.09585 c -0.0118,-0.02929 -0.0215,-0.0053 -0.0215,0.05325 0,0.05857 0.01,0.08254 0.0215,0.05325 0.0118,-0.02929 0.0118,-0.07721 0,-0.1065 z m -43.757177,0.05325 c -0.01448,-0.02343 -0.04916,-0.04231 -0.07706,-0.04195 -0.03048,3.83e-4 -0.02523,0.01713 0.01316,0.04195 0.08184,0.05289 0.09659,0.05289 0.0639,0 z m 18.871829,-0.0426 c 0.04241,-0.04686 0.06752,-0.0852 0.0558,-0.0852 -0.01171,0 -0.056,0.03834 -0.0984,0.0852 -0.04241,0.04686 -0.06752,0.0852 -0.05581,0.0852 0.01172,0 0.056,-0.03834 0.09841,-0.0852 z m 0.2982,-0.0426 c 0.08214,-0.0353 0.08185,-0.03672 -0.0081,-0.03961 -0.05133,-0.0016 -0.105183,0.01618 -0.119664,0.03961 -0.03114,0.05039 0.01054,0.05039 0.1278,0 z m 25.110468,-0.355975 c -0.041,-0.03781 -0.0467,-0.03124 -0.0253,0.02931 0.0152,0.04292 0.0298,0.100429 0.0325,0.1278 0.003,0.02737 0.0141,0.01418 0.0253,-0.02931 0.0112,-0.04349 -0.003,-0.101001 -0.0325,-0.1278 z m -25.315404,-0.14483 c 0.0968,-0.0968 0.134913,-0.161537 0.101631,-0.172631 -0.02929,-0.0098 -0.07458,0.0036 -0.100643,0.02964 -0.02607,0.02607 -0.07863,0.04739 -0.116805,0.04739 -0.04444,0 -0.0682,0.03423 -0.06603,0.09512 0.0019,0.05232 -0.01898,0.09545 -0.04632,0.09585 -0.0887,0.0013 -0.09828,0.04658 -0.01123,0.05314 0.04654,0.0035 0.154108,-0.06323 0.239395,-0.148515 z m -0.668365,-0.228425 c 0,-0.02343 -0.01917,-0.03075 -0.0426,-0.01627 -0.02343,0.01448 -0.0426,0.0455 -0.0426,0.06893 0,0.02343 0.01917,0.03075 0.0426,0.01627 0.02343,-0.01448 0.0426,-0.0455 0.0426,-0.06893 z m -1.980903,-0.122772 c 0.01448,-0.02343 0.006,-0.0426 -0.01879,-0.0426 -0.02481,0 -0.04511,0.01917 -0.04511,0.0426 0,0.02343 0.0085,0.0426 0.01879,0.0426 0.01033,0 0.03063,-0.01917 0.04511,-0.0426 z m 1.967403,-0.09319 c -0.0136,-0.03398 -0.02369,-0.02389 -0.02574,0.02574 -0.0018,0.04491 0.0082,0.07007 0.02237,0.05591 0.01416,-0.01416 0.01567,-0.0509 0.0034,-0.08165 z m 26.923239,-1.192802 c -0.0136,-0.03398 -0.0237,-0.02389 -0.0257,0.02574 -0.002,0.04491 0.008,0.07007 0.0224,0.05591 0.0142,-0.01416 0.0157,-0.0509 0.003,-0.08165 z m 0.38868,-0.823841 c -0.0131,-0.01312 -0.0369,0.01053 -0.0529,0.05254 -0.0231,0.06071 -0.0182,0.06561 0.0239,0.02385 0.0291,-0.0289 0.0422,-0.06327 0.0291,-0.07639 z M 84.323848,74.826994 c -0.041,-0.01071 -0.108098,-0.01071 -0.149101,0 -0.041,0.01072 -0.0075,0.01948 0.07455,0.01948 0.08201,0 0.115553,-0.0088 0.07455,-0.01948 z m 1.011449,-0.523948 c 0.01493,-0.02415 -0.0022,-0.03129 -0.04008,-0.01674 -0.0738,0.02832 -0.08731,0.05885 -0.02603,0.05885 0.02205,0 0.0518,-0.01895 0.06611,-0.04211 z m 2.662806,-1.492998 c 0.08567,-0.06823 0.08984,-0.07915 0.0213,-0.05587 -0.134357,0.04564 -0.265009,0.14276 -0.190529,0.141635 0.0345,-5.2e-4 0.110654,-0.03911 0.169229,-0.08576 z M 108.9032,70.059414 c -0.0142,-0.01416 -0.0509,-0.01567 -0.0816,-0.0034 -0.034,0.0136 -0.0239,0.02369 0.0257,0.02574 0.0449,0.0018 0.0701,-0.0082 0.0559,-0.02237 z M 97.82883,69.957352 c 0.02927,-0.04686 0.04643,-0.0852 0.03815,-0.0852 -0.0083,0 -0.04976,0.03834 -0.09216,0.0852 -0.04241,0.04686 -0.05958,0.0852 -0.03815,0.0852 0.02142,0 0.0629,-0.03834 0.09216,-0.0852 z m 29.04353,-11.597867 c -0.003,-0.118023 -0.054,-0.202777 -0.12136,-0.201055 -0.0279,7.12e-4 -0.0172,0.02084 0.0238,0.04472 0.041,0.02388 0.0746,0.06277 0.0746,0.08642 0,0.02374 -0.0238,0.0281 -0.0532,0.0097 -0.0787,-0.04919 -0.16382,-0.05541 -0.13571,-0.0099 0.0135,0.02175 0.0413,0.02912 0.062,0.01637 0.0206,-0.01275 0.0583,0.01569 0.0838,0.06321 0.0589,0.110012 0.069,0.108563 0.0662,-0.0095 z m -57.021884,26.93389 c 0,-0.02343 0.0203,-0.0426 0.04511,-0.0426 0.02481,0 0.03327,0.01917 0.01879,0.0426 -0.01448,0.02343 -0.03478,0.0426 -0.04511,0.0426 -0.01033,0 -0.01879,-0.01917 -0.01879,-0.0426 z m 1.725303,-0.213001 c 0.01448,-0.02343 0.0455,-0.0426 0.06893,-0.0426 0.02343,0 0.03075,0.01917 0.01627,0.0426 -0.01448,0.02343 -0.0455,0.0426 -0.06893,0.0426 -0.02343,0 -0.03075,-0.01917 -0.01627,-0.0426 z m 3.102704,-0.568533 c 0,-0.03346 0.02609,-0.05702 0.05797,-0.05234 0.07601,0.01116 0.0768,0.08487 0.0011,0.100775 -0.03248,0.0068 -0.05905,-0.01497 -0.05905,-0.04844 z m 2.371404,-0.347368 c 0,-0.03514 0.01917,-0.0639 0.0426,-0.0639 0.02343,0 0.0426,0.02875 0.0426,0.0639 0,0.03514 -0.01917,0.0639 -0.0426,0.0639 -0.02343,0 -0.0426,-0.02876 -0.0426,-0.0639 z M 66.345911,83.030285 c 0.0289,-0.02911 0.06327,-0.0422 0.07639,-0.02909 0.01312,0.01312 -0.01053,0.03694 -0.05254,0.05293 -0.06071,0.02312 -0.06561,0.01823 -0.02385,-0.02385 z m 9.579249,-3.608964 c -0.01092,-0.01767 -0.005,-0.05608 0.01305,-0.08536 0.02573,-0.04163 0.04393,-0.03995 0.08348,0.0077 0.03979,0.04794 0.037,0.06615 -0.01305,0.08536 -0.03499,0.01343 -0.07256,0.01 -0.08348,-0.0077 z m 1.562188,-0.717878 c 0.04145,-0.0108 0.09896,-0.01009 0.1278,0.0016 0.02884,0.01167 -0.0051,0.02051 -0.07536,0.01964 -0.07029,-8.69e-4 -0.09389,-0.01042 -0.05244,-0.02122 z m 6.666596,-4.260614 c 0.05299,-0.01019 0.129671,-0.0098 0.1704,8.61e-4 0.04073,0.01066 -0.0026,0.019 -0.09635,0.01853 -0.09372,-4.72e-4 -0.127044,-0.0092 -0.07405,-0.01939 z m 1.394655,-0.949672 c 0.01448,-0.02343 0.06833,-0.04125 0.119665,-0.03961 0.08999,0.0029 0.09028,0.0043 0.0081,0.03961 -0.117256,0.05039 -0.158941,0.05039 -0.127801,0 z m 1.245102,-0.541946 c 0.07563,-0.0094 0.209815,-0.0096 0.298201,-3.41e-4 0.08839,0.0092 0.02651,0.01692 -0.137501,0.01711 -0.16401,1.71e-4 -0.236325,-0.0074 -0.1607,-0.01677 z m 26.458259,-3.19336 c 0.0307,-0.01231 0.0675,-0.01079 0.0816,0.0034 0.0142,0.01416 -0.011,0.02422 -0.0559,0.02238 -0.0496,-0.002 -0.0597,-0.01214 -0.0257,-0.02574 z"
       id="path963"
       inkscape:connector-curvature="0" />
  </g>
</svg>
