<?xml version="1.0" encoding="UTF-8" standalone="no"?>
<!-- Created with Inkscape (http://www.inkscape.org/) -->

<svg
   xmlns:dc="http://purl.org/dc/elements/1.1/"
   xmlns:cc="http://creativecommons.org/ns#"
   xmlns:rdf="http://www.w3.org/1999/02/22-rdf-syntax-ns#"
   xmlns:svg="http://www.w3.org/2000/svg"
   xmlns="http://www.w3.org/2000/svg"
   xmlns:sodipodi="http://sodipodi.sourceforge.net/DTD/sodipodi-0.dtd"
   xmlns:inkscape="http://www.inkscape.org/namespaces/inkscape"
   width="67.141441mm"
   height="41.457489mm"
   viewBox="0 0 67.141429 41.457489"
   version="1.1"
   id="svg8"
   inkscape:version="0.92.4 (5da689c313, 2019-01-14)"
   sodipodi:docname="therizinosaurus.svg">
  <defs
     id="defs2" />
  <sodipodi:namedview
     id="base"
     pagecolor="#ffffff"
     bordercolor="#666666"
     borderopacity="1.0"
     inkscape:pageopacity="0.0"
     inkscape:pageshadow="2"
     inkscape:zoom="1.4"
     inkscape:cx="185.58252"
     inkscape:cy="24.780712"
     inkscape:document-units="mm"
     inkscape:current-layer="layer1"
     showgrid="false"
     inkscape:window-width="1366"
     inkscape:window-height="745"
     inkscape:window-x="-8"
     inkscape:window-y="-8"
     inkscape:window-maximized="1" />
  <metadata
     id="metadata5">
    <rdf:RDF>
      <cc:Work
         rdf:about="">
        <dc:format>image/svg+xml</dc:format>
        <dc:type
           rdf:resource="http://purl.org/dc/dcmitype/StillImage" />
        <dc:title></dc:title>
      </cc:Work>
    </rdf:RDF>
  </metadata>
  <g
     inkscape:label="Camada 1"
     inkscape:groupmode="layer"
     id="layer1"
     transform="translate(-59.482127,-58.29082)">
    <path
       style="fill:#d5d5d5;fill-opacity:1;stroke-width:1"
       d="m 84.915822,99.672163 c -0.0543,-0.04122 -0.09872,-0.103394 -0.09872,-0.138167 0,-0.147578 -0.757894,-0.152488 -0.934338,-0.0061 -0.0419,0.03477 -0.103787,0.04616 -0.137534,0.0253 -0.03375,-0.02086 -0.102605,-0.004 -0.153021,0.03745 -0.08246,0.06781 -0.08781,0.05555 -0.05329,-0.122075 0.05936,-0.305422 0.207975,-0.461242 0.662404,-0.6945 0.311697,-0.159994 0.505328,-0.220625 0.757059,-0.237059 0.604612,-0.03947 1.346914,-0.138767 1.655549,-0.221461 0.309505,-0.08293 0.398427,-0.140707 0.743318,-0.482995 0.109423,-0.108597 0.292626,-0.267666 0.407115,-0.353487 0.133889,-0.100362 0.266117,-0.281522 0.370589,-0.507729 0.294828,-0.638368 0.308228,-0.715678 0.21199,-1.223004 -0.23856,-1.257583 -0.464547,-1.834802 -1.039298,-2.65458 -0.824632,-1.176188 -1.314957,-1.940768 -1.432674,-2.234015 -0.130858,-0.325985 -0.308915,-0.481946 -0.775796,-0.679528 -0.04654,-0.0197 -0.262326,-0.11829 -0.479521,-0.219097 -0.217195,-0.100807 -0.483753,-0.20876 -0.59235,-0.239893 -0.425188,-0.121899 -1.229074,-0.461597 -1.542549,-0.651835 -0.181303,-0.110027 -0.406054,-0.216832 -0.499447,-0.237344 -0.205679,-0.04518 -0.8146,-0.34181 -0.863253,-0.420533 -0.03538,-0.05725 -0.29442,0.253052 -0.524403,0.628178 -0.12646,0.206268 -0.370226,0.456157 -0.267589,0.27431 0.02627,-0.04654 -0.02893,-0.01331 -0.122663,0.07385 -0.186389,0.173311 -0.228936,0.08543 -0.08364,-0.17275 l 0.07153,-0.127112 -0.228079,0.118882 c -0.125443,0.06538 -0.280095,0.191932 -0.343671,0.281215 -0.06358,0.08928 -0.144774,0.156454 -0.180441,0.149266 -0.03567,-0.0072 -0.06853,0.01232 -0.07304,0.04335 -0.0164,0.113034 -0.22371,0.534804 -0.263139,0.535362 -0.0223,3.38e-4 -0.02796,-0.04385 -0.01258,-0.09815 0.01538,-0.0543 -0.02318,0.01086 -0.08568,0.144806 -0.06646,0.142423 -0.138933,0.227898 -0.174563,0.205877 -0.03427,-0.02118 -0.07501,0.01619 -0.0931,0.0854 -0.02208,0.08442 -0.06415,0.114691 -0.134033,0.09642 -0.127592,-0.03337 -0.231028,0.08545 -0.365739,0.420116 -0.0991,0.246201 -0.250255,0.323104 -0.250255,0.127323 0,-0.04322 -0.02539,-0.07859 -0.05641,-0.07859 -0.03103,0 -0.05641,0.05077 -0.05641,0.112829 0,0.06206 -0.05077,0.163601 -0.112829,0.225657 -0.07551,0.07551 -0.112829,0.188047 -0.112829,0.340256 0,0.156688 -0.02815,0.238231 -0.0905,0.262158 -0.07081,0.02717 -0.08282,0.08279 -0.0552,0.255516 0.09153,0.572393 -0.168089,0.285519 -0.282349,-0.31199 l -0.07743,-0.404905 0.01961,0.7898 c 0.02216,0.892515 -0.04207,1.756292 -0.167796,2.256572 -0.273435,1.088029 -0.664152,1.997818 -1.076108,2.505735 -0.05402,0.0666 -0.07514,-0.05534 -0.02511,-0.144945 0.06794,-0.121669 0.272544,-0.902669 0.374626,-1.429954 0.16824,-0.869017 0.147266,-1.39508 -0.03033,-0.760765 -0.09691,0.346117 -0.610459,1.20461 -1.004907,1.679879 -0.176329,0.212457 -0.390198,0.47685 -0.475266,0.587539 -0.157427,0.204842 -0.495881,0.484866 -0.5367,0.444046 -0.01236,-0.01236 0.09312,-0.181339 0.234399,-0.375503 0.615238,-0.845518 1.094098,-2.677631 1.031,-3.944596 -0.04604,-0.924381 -0.190217,-1.485363 -0.284851,-1.108311 -0.04434,0.176654 -0.733483,1.408093 -0.967938,1.729615 -0.606048,0.831111 -2.079814,1.790061 -2.666398,1.734973 -0.174931,-0.01643 -0.190577,-0.02764 -0.09611,-0.06889 1.10655,-0.483222 2.522634,-2.322512 2.760051,-3.584911 0.156577,-0.832554 0.172147,-1.386619 0.04356,-1.550089 -0.177904,-0.226168 -0.214465,-0.655581 -0.07796,-0.915629 0.1586,-0.302136 0.348925,-0.739046 0.348925,-0.800995 0,-0.02878 0.02504,-0.06079 0.05564,-0.07113 0.0306,-0.01034 0.07203,-0.145737 0.09206,-0.300877 0.06785,-0.525547 0.474187,-1.236486 1.031799,-1.805257 0.532334,-0.542986 0.852523,-0.97201 0.849649,-1.13845 -9.76e-4,-0.05647 -0.07079,-0.15253 -0.155139,-0.213478 -0.348068,-0.251493 -1.129842,-0.936228 -1.16069,-1.016618 -0.01826,-0.04759 -0.05295,-0.08328 -0.07708,-0.07932 -0.12707,0.02086 -0.214149,-0.03181 -0.499797,-0.302332 -0.172006,-0.162896 -0.345789,-0.296558 -0.386183,-0.297025 -0.04039,-4.52e-4 -0.114965,-0.03531 -0.165712,-0.07743 -0.101977,-0.08463 -0.128435,-0.0087 -0.03094,0.08883 0.0367,0.0367 0.04011,0.07444 0.0085,0.09399 -0.02907,0.01797 -0.174368,-0.08706 -0.32289,-0.233393 -0.201289,-0.19832 -0.242945,-0.223524 -0.163619,-0.099 0.05853,0.09188 0.07625,0.14847 0.03937,0.125746 -0.0377,-0.02323 -0.08887,-0.0023 -0.116898,0.04776 -0.03967,0.07089 -0.0913,0.02191 -0.252936,-0.239957 -0.208829,-0.338327 -0.437537,-0.588905 -0.437537,-0.479373 0,0.03401 0.0258,0.07777 0.05733,0.09726 0.03153,0.01949 0.04098,0.06191 0.02098,0.09426 -0.02063,0.03338 -0.166896,-0.07812 -0.338142,-0.257762 -0.280951,-0.294731 -0.536581,-0.457221 -0.317866,-0.202051 0.054,0.06299 0.101114,0.165801 0.104708,0.228458 0.0046,0.07977 -0.134116,-0.03489 -0.462663,-0.382504 -0.429466,-0.454388 -0.469432,-0.483439 -0.471953,-0.343057 -0.0044,0.24638 -0.131527,0.135763 -0.307113,-0.267285 -0.08742,-0.200669 -0.179361,-0.352237 -0.204311,-0.336817 -0.05379,0.03324 -0.488721,-0.715607 -0.672033,-1.157074 -0.07086,-0.170653 -0.175857,-0.361569 -0.233325,-0.424258 -0.148597,-0.162092 -0.413679,-0.776901 -0.534627,-1.239964 -0.06303,-0.241307 -0.187204,-0.515579 -0.319269,-0.705178 -0.147196,-0.211322 -0.268943,-0.494008 -0.381738,-0.886359 -0.09109,-0.316844 -0.203434,-0.634174 -0.249659,-0.705178 -0.04622,-0.071 -0.121221,-0.308253 -0.166659,-0.52722 -0.101885,-0.490994 -0.23562,-0.821326 -0.324495,-0.801525 -0.0369,0.0082 -0.08984,-0.06875 -0.117656,-0.171054 -0.02782,-0.1023 -0.08797,-0.20035 -0.133676,-0.21789 -0.04571,-0.01754 -0.111152,-0.143277 -0.145432,-0.279418 -0.07636,-0.303236 -0.160657,-0.321625 -0.16492,-0.03597 -0.0029,0.193897 -0.01726,0.173887 -0.172093,-0.239761 -0.09292,-0.248223 -0.192938,-0.51478 -0.222274,-0.59235 l -0.05334,-0.141036 0.02042,0.156486 c 0.01123,0.08607 -1.13e-4,0.169187 -0.02525,0.184712 -0.08389,0.05185 -0.318499,-0.447047 -0.531856,-1.130998 -0.116148,-0.372334 -0.258794,-0.823044 -0.316989,-1.001578 -0.0582,-0.178534 -0.105811,-0.382894 -0.105811,-0.454135 0,-0.07124 -0.02341,-0.153645 -0.05203,-0.183122 -0.115562,-0.119029 -0.224069,-0.959929 -0.258058,-1.999886 -0.01977,-0.605043 -0.04731,-1.169891 -0.06119,-1.255218 -0.01513,-0.09305 4.51e-4,-0.155139 0.03889,-0.155139 0.04594,0 0.04701,-0.02062 0.0038,-0.07272 -0.04177,-0.05033 -0.04362,-0.193619 -0.006,-0.465418 0.09207,-0.665313 0.04257,-3.246766 -0.06545,-3.413407 -0.04938,-0.07617 -0.104269,-0.227348 -0.12198,-0.335945 -0.04376,-0.268287 -0.162392,-0.552072 -0.194568,-0.465418 -0.04422,0.119106 -0.118842,0.07852 -0.155594,-0.08462 -0.05922,-0.262883 -0.407623,-0.691075 -0.5623,-0.691075 -0.07473,0 -0.180437,-0.0171 -0.234903,-0.038 -0.07635,-0.0293 -0.09073,-0.01638 -0.0628,0.05641 0.05626,0.146621 -5.92e-4,0.116125 -0.349855,-0.187655 -0.279817,-0.243378 -0.357198,-0.282072 -0.56409,-0.282072 -0.131882,0 -0.524056,-0.05012 -0.8715,-0.111374 -0.751352,-0.132468 -0.958331,-0.143095 -1.700677,-0.08732 l -0.564143,0.04238 -0.253864,-0.190822 c -0.139627,-0.104952 -0.323679,-0.22639 -0.409005,-0.269861 -0.143451,-0.07308 -0.216813,-0.229217 -0.107703,-0.229217 0.02609,0 0.07857,-0.139127 0.116627,-0.309172 0.08071,-0.360636 0.21283,-0.488704 0.608974,-0.590286 0.148845,-0.03817 0.359479,-0.104396 0.468077,-0.147173 0.108597,-0.04278 0.349768,-0.120256 0.535936,-0.172173 0.186167,-0.05192 0.465418,-0.152178 0.620557,-0.2228 0.427524,-0.194617 1.470807,-0.467791 1.946293,-0.509621 0.232709,-0.02047 0.491659,-0.07216 0.575445,-0.11487 0.181999,-0.09277 0.344811,-0.106937 0.214355,-0.01866 -0.09296,0.06291 0.143747,0.0215 0.384469,-0.06725 0.164632,-0.0607 1.885158,-0.05648 1.731067,0.0042 -0.09664,0.03809 -0.0845,0.05039 0.08462,0.08577 0.277939,0.05815 0.945203,0.299024 1.182503,0.426873 0.109805,0.05916 0.473663,0.21321 0.808572,0.342335 0.334909,0.129124 0.598055,0.245642 0.58477,0.258927 -0.02197,0.02197 -0.47281,-0.122535 -0.737531,-0.236402 -0.07694,-0.0331 -0.09618,-0.02736 -0.06693,0.01997 0.02258,0.03653 0.290096,0.18974 0.594488,0.340467 0.496894,0.246048 1.075401,0.598237 1.075401,0.654692 0,0.01184 -0.115561,-0.04306 -0.256802,-0.122003 -0.317765,-0.177602 -0.365203,-0.144499 -0.142438,0.0994 0.236056,0.258449 0.175558,0.27107 -0.140942,0.0294 -0.146214,-0.111642 -0.289859,-0.202986 -0.319211,-0.202986 -0.02935,0 0.07662,0.102753 0.235505,0.228341 0.202466,0.16004 0.338394,0.330572 0.454432,0.570119 0.09106,0.187978 0.194008,0.376057 0.228779,0.417953 0.03477,0.04189 0.0473,0.101927 0.02785,0.133403 -0.01945,0.03148 0.0025,0.13037 0.04868,0.219764 0.04623,0.08939 0.07994,0.217063 0.07492,0.283705 -0.0087,0.11571 -0.01506,0.114181 -0.140751,-0.03395 l -0.131624,-0.155116 0.08095,0.169243 c 0.201785,0.421873 0.278731,0.627659 0.268025,0.716805 -0.0064,0.05294 0.0426,0.278124 0.108806,0.500416 0.0662,0.222293 0.105839,0.462052 0.08808,0.532799 -0.02557,0.101869 0.38233,1.918801 0.512664,2.283601 0.01663,0.04654 0.0379,0.173474 0.04727,0.282072 0.02484,0.287879 0.449402,1.497134 0.520553,1.482659 0.03331,-0.0068 0.07537,0.02627 0.09347,0.07345 0.02081,0.05422 0.0097,0.07143 -0.03017,0.04678 -0.03832,-0.02369 -0.05191,-0.0082 -0.03461,0.03938 0.01566,0.0431 0.05612,0.07233 0.08991,0.06494 0.03379,-0.0074 0.0499,0.018 0.0358,0.05641 -0.0141,0.03841 0.202226,0.387172 0.480727,0.77502 0.2785,0.387848 0.506736,0.731624 0.507189,0.763945 4.51e-4,0.03232 0.311809,0.365454 0.6919,0.740294 0.716942,0.707036 1.296525,1.08554 2.464979,1.609791 0.20338,0.09125 0.390395,0.202743 0.415589,0.247762 0.02519,0.04502 0.07091,0.06634 0.101589,0.04738 0.03068,-0.01896 0.14667,0.0087 0.257754,0.06136 0.15762,0.0748 0.4636,0.106326 1.393418,0.143588 1.382956,0.05542 2.18385,0.125816 2.855669,0.251002 0.263737,0.04914 0.733386,0.126829 1.043664,0.172634 0.310279,0.0458 0.741848,0.132474 0.959043,0.192599 0.217195,0.06012 0.78839,0.210456 1.269322,0.33407 1.146214,0.294609 2.071981,0.601934 2.905336,0.964479 0.952403,0.414336 1.737788,0.731894 1.811706,0.732535 0.03457,2.82e-4 0.288439,0.112543 0.564143,0.24943 0.275704,0.136887 0.780531,0.354772 1.121837,0.484188 0.341307,0.129416 0.78557,0.307043 0.987251,0.394727 0.201681,0.08768 0.772875,0.264996 1.269321,0.394027 2.075,0.539313 3.91226,1.11971 4.82343,1.523735 1.0618,0.470823 1.84211,0.767285 4.005419,1.521769 3.07479,1.072382 5.21105,2.032606 7.16817,3.222025 0.41692,0.253377 1.03729,0.626805 1.3786,0.829841 0.3413,0.203037 1.02674,0.635038 1.52318,0.960004 1.07666,0.704762 2.61062,1.603006 2.75348,1.612358 0.0561,0.0037 0.14496,0.0605 0.19745,0.126288 0.0525,0.06579 0.28584,0.228262 0.51855,0.361057 1.52488,0.870175 4.54049,2.831743 4.78998,3.115743 0.0977,0.111253 0.20352,0.13494 0.13942,0.03122 -0.0669,-0.108161 0.28987,0.162862 0.43699,0.332018 0.32704,0.375995 0.82145,0.822339 1.71361,1.546992 1.01885,0.827567 3.19759,3.035132 3.65592,3.704302 0.32905,0.480397 0.55572,1.053658 0.37166,0.939898 -0.0415,-0.02562 -0.0504,-6.14e-4 -0.0266,0.07441 0.0278,0.08751 0.006,0.118644 -0.0948,0.137988 -0.20977,0.0401 -0.25172,0.003 -0.4954,-0.438464 -0.26247,-0.475479 -0.31125,-0.522343 -0.19206,-0.184502 0.10998,0.311698 0.0622,0.341539 -0.0849,0.05308 -0.14234,-0.279017 -0.15881,-0.285023 -0.13099,-0.04778 l 0.0215,0.183346 -0.14133,-0.225657 c -0.24363,-0.389012 -0.25877,-0.402226 -0.14014,-0.122243 0.14695,0.346833 0.0977,0.409702 -0.0669,0.0854 -0.14827,-0.292104 -0.383,-0.583714 -0.46987,-0.583714 -0.0343,0 -0.12404,-0.07263 -0.19951,-0.161399 -0.12436,-0.146284 -0.14367,-0.152568 -0.20617,-0.0671 -0.0618,0.08456 -0.0922,0.07015 -0.29369,-0.13958 -0.15412,-0.160395 -0.23427,-0.210217 -0.25508,-0.158561 -0.0219,0.05427 -0.0627,0.0359 -0.14608,-0.06571 l -0.11574,-0.141036 -0.003,0.141036 c -0.003,0.134051 -0.006,0.135448 -0.0667,0.02821 -0.0814,-0.14419 -0.32774,-0.442728 -0.32774,-0.397243 0,0.01899 0.0371,0.09116 0.0825,0.160391 0.0454,0.06923 0.1212,0.239694 0.16853,0.378812 l 0.0861,0.25294 -0.14498,-0.169243 c -0.14004,-0.163492 -0.14359,-0.164451 -0.10437,-0.02821 0.0223,0.07757 0.0525,0.172769 0.0671,0.211554 0.0642,0.170854 -0.0481,0.04537 -0.2053,-0.229399 -0.0944,-0.164954 -0.22445,-0.347754 -0.28906,-0.406221 l -0.11746,-0.106304 0.11672,0.272289 c 0.21798,0.508547 0.39411,1.235558 0.40709,1.680403 0.023,0.787314 -0.11743,0.663554 -0.54339,-0.478977 -0.49936,-1.339409 -0.7251,-1.819532 -0.85009,-1.808096 -0.0581,0.0053 -0.41172,-0.195499 -0.78576,-0.44626 -0.37404,-0.250761 -0.86378,-0.578789 -1.08832,-0.728952 -0.65135,-0.435591 -0.66138,-0.396896 -0.15996,0.617113 0.19944,0.403327 0.3537,0.780573 0.3428,0.838326 -0.0109,0.05775 -0.0218,0.114773 -0.0241,0.126714 -0.0159,0.07981 -0.28738,-0.381194 -0.62336,-1.058378 -0.34124,-0.68778 -0.42467,-0.813225 -0.62506,-0.939721 -0.35179,-0.222078 -0.44051,-0.237726 -0.22196,-0.03915 0.18441,0.167555 0.18862,0.178871 0.0671,0.180421 -0.0713,9.08e-4 -0.23475,-0.04912 -0.36319,-0.111175 -0.28793,-0.139116 -0.28472,-0.139211 -0.2383,0.0071 0.0533,0.167875 -0.0779,0.08016 -0.14536,-0.09717 -0.0284,-0.07455 -0.0785,-0.135555 -0.11133,-0.135555 -0.0414,0 -0.0407,0.0357 0.002,0.115956 0.0341,0.06378 0.0518,0.146282 0.0393,0.183346 -0.0125,0.03706 -0.0668,-0.01744 -0.12061,-0.121119 -0.12142,-0.23396 -0.73384,-0.845417 -0.99512,-0.993543 l -0.19433,-0.110181 0.0986,0.150507 c 0.1793,0.273642 0.0991,0.243589 -0.18983,-0.07118 -0.15667,-0.170653 -0.26806,-0.272198 -0.24752,-0.225657 0.0205,0.04654 -0.0295,0.01188 -0.11114,-0.07703 -0.21583,-0.23497 -0.22124,-0.159246 -0.0138,0.192576 0.0998,0.169157 0.21069,0.383718 0.24654,0.476801 0.0358,0.09308 0.1812,0.431317 0.32303,0.75163 0.40534,0.915458 0.73752,1.868562 0.67352,1.932551 -0.0719,0.07187 -0.20042,0.02137 -0.28325,-0.111267 -0.0359,-0.05752 -0.23518,-0.520334 -0.44278,-1.028471 -0.43325,-1.060402 -0.66445,-1.565988 -0.85705,-1.874155 -0.15955,-0.255286 -0.23375,-0.240752 -0.0992,0.01943 0.11552,0.223402 0.0777,0.281321 -0.0533,0.08149 -0.11332,-0.172952 -0.18365,-0.147836 -0.0878,0.03134 0.13862,0.259019 0.007,0.155729 -0.19644,-0.154288 -0.38574,-0.587483 -0.60689,-0.815715 -1.11142,-1.147013 -0.27391,-0.179861 -0.59167,-0.404209 -0.70612,-0.49855 -0.26685,-0.219956 -0.30809,-0.179518 -0.0808,0.07928 0.20026,0.228082 0.23956,0.383474 0.0557,0.220229 -0.12039,-0.106893 -0.12068,-0.106789 -0.0544,0.01946 0.0366,0.06981 0.043,0.126932 0.0142,0.126932 -0.0317,0 -0.0331,0.08354 -0.003,0.211554 0.0662,0.284873 0.0648,0.845627 -0.002,0.886993 -0.0721,0.04453 -0.17607,-0.128686 -0.42257,-0.703647 -0.2007,-0.468132 -0.21591,-0.486433 -0.64023,-0.770567 -0.23906,-0.160075 -0.51082,-0.32881 -0.6039,-0.374966 -0.0931,-0.04616 -0.32791,-0.20073 -0.52183,-0.343498 -0.39701,-0.292277 -0.41243,-0.287218 -0.20477,0.06714 0.0813,0.138733 0.11539,0.232192 0.0757,0.207688 -0.0527,-0.03254 -0.0637,-0.01233 -0.0408,0.07502 0.0178,0.06825 -0.003,0.147644 -0.0475,0.184972 -0.0599,0.04971 -0.0788,0.0494 -0.0788,-0.0013 0,-0.03666 -0.023,-0.05245 -0.051,-0.0351 -0.0281,0.01735 -0.11452,-0.07635 -0.19209,-0.208225 -0.12489,-0.212324 -0.48754,-0.60969 -0.42477,-0.465429 0.0135,0.03103 0.0919,0.196039 0.17434,0.366693 0.0824,0.170653 0.16449,0.424517 0.18245,0.564143 0.0325,0.252281 0.032,0.251795 -0.0782,-0.07802 -0.15927,-0.476812 -0.25024,-0.523146 -0.11611,-0.05914 0.0622,0.215062 0.15107,0.568727 0.19756,0.785922 0.0465,0.217195 0.13057,0.597991 0.18686,0.846214 0.0563,0.248223 0.0917,0.483047 0.0788,0.521832 -0.0726,0.217182 -0.15687,-0.0021 -0.66652,-1.734739 -0.2091,-0.710852 -0.38244,-1.128286 -0.46853,-1.128286 -0.0257,0 -0.0949,-0.107892 -0.15387,-0.239761 -0.0589,-0.131868 -0.19607,-0.324601 -0.30474,-0.428294 -0.28581,-0.272733 -0.87399,-0.532656 -0.75422,-0.333298 0.0318,0.05286 0.0197,0.05218 -0.0481,-0.0027 -0.21916,-0.177544 -0.16976,0.08644 0.0982,0.524571 0.21464,0.351 0.16509,0.346161 -0.12193,-0.01191 -0.301,-0.375518 -0.42258,-0.502707 -0.28522,-0.29837 0.22562,0.335646 0.38956,0.627553 0.36579,0.651328 -0.0141,0.01412 -0.12072,-0.11233 -0.23689,-0.280999 -0.11617,-0.168671 -0.27746,-0.35008 -0.35843,-0.403133 -0.081,-0.05305 -0.20909,-0.169994 -0.28472,-0.259868 -0.0756,-0.08987 -0.15037,-0.150536 -0.1661,-0.134803 -0.0157,0.01573 -0.0824,-4.4e-5 -0.14812,-0.03506 -0.10768,-0.05736 -0.11185,-0.05437 -0.0421,0.03019 0.0426,0.05162 0.0573,0.09386 0.0328,0.09386 -0.0639,0 -0.6204,-0.318206 -0.98462,-0.562976 -0.17065,-0.114688 -0.38643,-0.235431 -0.47952,-0.268318 -0.0931,-0.03289 -0.21318,-0.07761 -0.26689,-0.09939 -0.0776,-0.03147 -0.0576,0.04701 0.0972,0.382181 0.45331,0.981125 0.85259,2.315263 0.77358,2.584798 -0.10963,0.374011 -0.2382,0.156936 -1.03535,-1.74812 -0.27662,-0.661165 -0.37667,-0.741968 -1.00708,-0.81333 -0.18625,-0.02108 -0.46813,-0.115157 -0.70517,-0.235342 -0.33565,-0.170173 -0.36951,-0.178942 -0.22566,-0.05844 0.0931,0.07798 0.32791,0.219279 0.52183,0.313999 0.33835,0.165263 0.41013,0.23706 0.30314,0.303188 -0.10166,0.06283 -0.61578,-0.143934 -1.10704,-0.445218 -0.27925,-0.171262 -0.53735,-0.311539 -0.57355,-0.311728 -0.0362,-1.69e-4 -0.0743,-0.0203 -0.0846,-0.04469 -0.0103,-0.02439 -0.10218,-0.1029 -0.20409,-0.174463 -0.18093,-0.127059 -0.18888,-0.127734 -0.33848,-0.02877 -0.0843,0.05574 -0.25475,0.115427 -0.37886,0.132641 -0.19876,0.02757 -0.22339,0.04734 -0.20664,0.165829 0.0179,0.126974 0.006,0.132793 -0.21156,0.103604 -0.20387,-0.02735 -0.23057,-0.01774 -0.23057,0.08294 0,0.09479 -0.0288,0.109641 -0.17172,0.08866 -0.0944,-0.01386 -0.18965,0.0023 -0.21156,0.03591 -0.0534,0.08199 -0.0512,0.536547 0.002,0.503562 0.0233,-0.0143 0.0426,0.08339 0.043,0.217088 3.4e-4,0.1337 0.0508,0.446182 0.11216,0.694405 0.14968,0.605876 0.13436,1.330207 -0.0282,1.333557 -0.031,6.37e-4 -0.12502,-0.248376 -0.20886,-0.553369 -0.19709,-0.716897 -0.47245,-1.752529 -0.51871,-1.950785 -0.0414,-0.177575 -0.268449,-0.215467 -0.458479,-0.07652 -0.0749,0.05475 -0.14776,0.06332 -0.24011,0.02821 -0.17787,-0.06763 -0.18381,-0.0656 -0.14112,0.04831 0.0326,0.08693 0.0255,0.08935 -0.0595,0.02023 -0.0852,-0.06933 -0.0919,-0.06669 -0.0577,0.02255 0.0338,0.08812 0.0177,0.09545 -0.12564,0.05731 -0.0904,-0.02405 -0.20249,-0.04392 -0.24904,-0.04414 -0.0465,-2.26e-4 -0.1227,-0.03212 -0.16924,-0.07087 -0.19822,-0.165036 -0.31215,-0.147795 -0.55595,0.08413 -0.13048,0.124119 -0.30521,0.242732 -0.38829,0.263584 -0.42742,0.107276 -1.10806,0.486781 -1.37802,0.768348 -0.15485,0.161508 -0.31131,0.294269 -0.34769,0.295024 -0.0364,7.56e-4 -0.14617,0.04488 -0.24399,0.09806 -0.12846,0.06984 -1.361227,0.381554 -1.508973,0.381554 -0.0075,0 0.05437,0.209897 0.137414,0.466437 0.08304,0.256541 0.16874,0.618297 0.19044,0.803904 0.131466,1.124469 0.737039,2.255266 1.562849,2.918332 0.32831,0.263614 0.34548,0.332153 0.33736,1.346578 -0.007,0.811615 0.12438,1.795945 0.27663,2.080423 0.10386,0.194078 0.0606,0.470784 -0.11391,0.728304 -0.21015,0.310139 -0.29763,0.625424 -0.25752,0.928151 0.0622,0.469359 -0.15196,0.545797 -1.810019,0.646089 -0.554186,0.03352 -0.709227,0.062 -0.803904,0.147687 -0.06452,0.05838 -0.117299,0.07921 -0.117299,0.04628 0,-0.0397 -0.294916,-0.05952 -0.875115,-0.05882 -0.549435,6.6e-4 -0.902649,-0.0218 -0.949102,-0.06035 -0.05374,-0.0446 -0.09259,-0.0428 -0.141964,0.0066 -0.05303,0.05303 -0.06452,0.03788 -0.05225,-0.06886 0.03671,-0.31942 -0.67718,-0.278904 -0.984833,0.05589 -0.19814,0.215621 -0.205389,0.212747 -0.155232,-0.06154 0.0699,-0.382281 0.663855,-0.842371 1.087451,-0.842371 0.08985,0 0.227919,-0.05077 0.30681,-0.112829 0.118835,-0.09348 0.22886,-0.112828 0.64147,-0.112828 0.665922,0 1.278758,-0.228874 1.827901,-0.682659 0.146407,-0.120983 0.28542,-0.21997 0.308919,-0.21997 0.0235,0 0.132607,-0.115368 0.242464,-0.256374 0.190223,-0.244161 0.201643,-0.284298 0.239693,-0.842553 l 0.0399,-0.58618 -0.189836,-0.367762 C 94.38079,94.417162 92.602363,92.70251 91.374175,91.97611 91.148654,91.842728 90.710738,91.531723 90.401028,91.284988 l -0.563109,-0.448611 -0.0017,0.494055 c -0.0018,0.536271 -0.134815,2.016039 -0.194741,2.166793 -0.09769,0.245755 0.100194,0.834679 0.498352,1.483143 0.265356,0.432175 0.263809,0.601184 -0.0094,1.024133 -0.242222,0.375012 -0.6622,1.218969 -0.713207,1.433207 -0.041,0.172217 -0.07214,0.477744 -0.122446,1.201467 -0.02928,0.42125 -0.05983,0.56391 -0.12846,0.599827 -0.120989,0.06332 -0.771275,0.160778 -1.359362,0.203719 -0.263737,0.01926 -0.682613,0.082 -0.930836,0.139426 -0.303289,0.07017 -0.623669,0.100137 -0.97681,0.09138 -0.289024,-0.0072 -0.538039,0.0073 -0.553369,0.03207 -0.0438,0.07087 -0.321219,0.04931 -0.430217,-0.03343 z m 41.485198,-3.681799 c -0.0629,-0.119283 -0.11554,-0.198699 -0.11691,-0.176481 -0.004,0.06487 0.18476,0.439916 0.20914,0.415533 0.0122,-0.0122 -0.0293,-0.119769 -0.0922,-0.239052 z m -1.3156,-0.637419 c -0.0379,-0.06064 -0.0798,-0.09934 -0.0931,-0.08598 -0.0242,0.02418 0.0988,0.196248 0.14022,0.196248 0.012,0 -0.009,-0.04962 -0.0471,-0.110263 z m -3.4063,-1.474562 c -0.0588,-0.06493 -0.15789,-0.142329 -0.22029,-0.171999 -0.0624,-0.02967 -0.0256,0.02345 0.0819,0.118054 0.22566,0.198715 0.29332,0.225078 0.13844,0.05395 z m -0.1081,-0.312718 c -0.31384,-0.278737 -0.80397,-0.598764 -0.87882,-0.573814 -0.0343,0.01144 0.0668,0.108871 0.22476,0.216516 0.15793,0.107646 0.2872,0.214759 0.28726,0.23803 6e-5,0.02327 0.0445,0.04234 0.0988,0.04238 0.0543,3.8e-5 0.17249,0.0635 0.26264,0.141036 0.0902,0.07753 0.17901,0.13991 0.19745,0.138618 0.0185,-0.0013 -0.068,-0.09254 -0.19212,-0.202766 z m -6.34661,-2.580485 c 0,-0.01172 -0.0444,-0.05614 -0.0987,-0.09873 -0.0895,-0.07017 -0.0915,-0.06818 -0.0213,0.0213 0.0737,0.09397 0.12002,0.123857 0.12002,0.07743 z m 5.60787,-0.774589 c -0.0591,-0.0654 -0.18363,-0.168923 -0.27671,-0.230042 -0.10464,-0.0687 -0.0723,-0.02336 0.0846,0.118765 0.27577,0.249725 0.36273,0.300107 0.19209,0.111277 z m -15.76244,-2.814626 c 0,-0.03103 -0.0269,-0.05641 -0.0597,-0.05641 -0.0329,0 -0.0441,0.02539 -0.0249,0.05641 0.0192,0.03103 0.0461,0.05641 0.0597,0.05641 0.0137,0 0.0249,-0.02539 0.0249,-0.05641 z m -0.1783,-0.507764 c -0.0577,-0.130282 -0.11149,-0.169207 -0.23396,-0.169207 h -0.15906 l 0.21514,0.211553 c 0.23586,0.23192 0.29324,0.218261 0.17788,-0.04235 z m -2.38855,-0.225622 c -0.0192,-0.03103 -0.0602,-0.05641 -0.0913,-0.05641 -0.031,0 -0.0407,0.02539 -0.0216,0.05641 0.0192,0.03103 0.0602,0.05642 0.0913,0.05642 0.031,0 0.0407,-0.02539 0.0216,-0.05642 z M 76.263559,72.050148 c -0.07186,-0.07186 -0.867649,-0.45574 -0.867649,-0.418546 0,0.02314 0.826291,0.455471 0.899808,0.470798 0.01396,0.0029 -5.08e-4,-0.0206 -0.03216,-0.05225 z"
       id="path978"
       inkscape:connector-curvature="0" />
  </g>
</svg>
