<?xml version="1.0" encoding="UTF-8" standalone="no"?>
<!-- Created with Inkscape (http://www.inkscape.org/) -->

<svg
   xmlns:dc="http://purl.org/dc/elements/1.1/"
   xmlns:cc="http://creativecommons.org/ns#"
   xmlns:rdf="http://www.w3.org/1999/02/22-rdf-syntax-ns#"
   xmlns:svg="http://www.w3.org/2000/svg"
   xmlns="http://www.w3.org/2000/svg"
   xmlns:sodipodi="http://sodipodi.sourceforge.net/DTD/sodipodi-0.dtd"
   xmlns:inkscape="http://www.inkscape.org/namespaces/inkscape"
   width="95.727959mm"
   height="35.191708mm"
   viewBox="0 0 95.72794 35.191707"
   version="1.1"
   id="svg8"
   inkscape:version="0.92.4 (5da689c313, 2019-01-14)"
   sodipodi:docname="troodon.svg">
  <defs
     id="defs2" />
  <sodipodi:namedview
     id="base"
     pagecolor="#ffffff"
     bordercolor="#666666"
     borderopacity="1.0"
     inkscape:pageopacity="0.0"
     inkscape:pageshadow="2"
     inkscape:zoom="1.4"
     inkscape:cx="185.49489"
     inkscape:cy="165.13739"
     inkscape:document-units="mm"
     inkscape:current-layer="layer1"
     showgrid="false"
     inkscape:window-width="1366"
     inkscape:window-height="745"
     inkscape:window-x="-8"
     inkscape:window-y="-8"
     inkscape:window-maximized="1" />
  <metadata
     id="metadata5">
    <rdf:RDF>
      <cc:Work
         rdf:about="">
        <dc:format>image/svg+xml</dc:format>
        <dc:type
           rdf:resource="http://purl.org/dc/dcmitype/StillImage" />
        <dc:title></dc:title>
      </cc:Work>
    </rdf:RDF>
  </metadata>
  <g
     inkscape:label="Camada 1"
     inkscape:groupmode="layer"
     id="layer1"
     transform="translate(-50.879705,-62.496086)">
    <path
       style="fill:#d5d5d5;fill-opacity:1;stroke-width:1"
       d="m 88.312251,97.4382 c -0.16594,-0.268499 1.361226,-0.793769 3.097282,-1.065312 1.162927,-0.181897 1.869958,-0.795476 1.631801,-1.416111 -0.08263,-0.215333 0.09078,-0.542034 0.385374,-0.726007 0.294585,-0.183971 0.604405,-0.636566 0.688487,-1.005762 0.08408,-0.3692 0.09137,0.09969 0.01622,1.041979 -0.103642,1.29928 -0.04668,1.683568 0.235713,1.590403 0.789934,-0.260595 1.127578,-1.533426 1.043179,-3.932495 -0.0814,-2.313955 -0.127733,-2.452373 -1.472961,-4.400647 -1.538936,-2.228797 -3.770604,-4.798623 -4.167194,-4.798623 -0.140829,0 -0.664571,-0.306398 -1.163874,-0.680884 -1.572563,-1.179454 -1.7523,-1.242295 -1.571076,-0.549285 0.191745,0.733236 -0.496305,1.419307 -1.288762,1.285055 -0.324844,-0.05503 -0.541684,0.08277 -0.541684,0.344252 0,0.51438 -1.411124,-0.06502 -2.058688,-0.84529 -0.198094,-0.238688 -0.540262,-0.433978 -0.760373,-0.433978 -0.220115,0 -0.585917,-0.429063 -0.812894,-0.953473 -0.672419,-1.553557 -1.25897,-2.183122 -1.663025,-1.784983 -0.26687,0.262964 -0.237536,0.498394 0.126938,1.018752 0.260709,0.372215 0.465412,0.944423 0.454892,1.271574 -0.0105,0.32715 -0.464773,-0.362322 -1.009459,-1.532161 l -0.990332,-2.12698 h -1.901796 c -2.29778,0 -3.39377,-0.74376 -4.361344,-2.959691 -0.682709,-1.563534 -6.185605,-6.715839 -7.968413,-7.460744 -0.605194,-0.252866 -2.893854,-0.477606 -6.215752,-0.610369 -5.295137,-0.211626 -7.164805,-0.5791 -7.164805,-1.408208 0,-0.550604 1.673219,-1.299361 4.041516,-1.808557 1.084987,-0.233278 2.500781,-0.552362 3.146209,-0.709077 0.645428,-0.156714 2.163652,-0.285185 3.37383,-0.285491 2.629066,-6.75e-4 3.701829,0.426497 6.600972,2.628426 4.182313,3.176509 5.001065,3.318634 12.76188,2.215307 5.22963,-0.743477 14.029577,-0.46892 15.094222,0.470939 0.15329,0.135322 0.936972,0.24604 1.741516,0.24604 0.804544,0 2.318551,0.214611 3.36445,0.476914 2.31116,0.579617 5.61256,0.457622 11.77785,-0.43522 17.08594,-2.474344 26.85809,-2.291965 32.79927,0.612138 1.07135,0.523684 1.20042,0.677393 0.85713,1.020691 -0.32491,0.324901 -0.68555,0.341101 -1.83903,0.0826 -0.78917,-0.176857 -1.71415,-0.251463 -2.0555,-0.165789 -0.34135,0.08567 -1.05934,0.02995 -1.59552,-0.123821 -0.77539,-0.22238 -1.04365,-0.185528 -1.31101,0.180099 -0.2845,0.389079 -0.52741,0.408185 -1.58139,0.124378 -1.15179,-0.310147 -1.28599,-0.284998 -1.78811,0.335092 -0.53682,0.662944 -0.55498,0.664622 -1.63246,0.150812 -1.00483,-0.47917 -1.11685,-0.482309 -1.44002,-0.04036 -0.31908,0.43637 -0.48345,0.43973 -1.83769,0.03757 -1.33181,-0.395506 -1.53441,-0.39453 -1.93828,0.0093 -0.37819,0.378195 -0.60903,0.393392 -1.42981,0.09413 -1.50022,-0.546988 -8.26061,-0.732371 -11.58091,-0.31757 -6.38819,0.798071 -13.31356,3.075175 -16.527299,5.434279 -0.77661,0.570079 -1.985063,1.238693 -2.685462,1.485808 -2.555406,0.901599 -2.648456,1.038239 -2.448016,3.59471 0.09744,1.242845 0.382886,2.83532 0.63431,3.538834 1.186758,3.32068 1.491171,5.298784 1.164446,7.566693 -0.231351,1.605882 -0.225137,2.413409 0.02365,3.072515 0.283476,0.751017 0.269614,0.868048 -0.08664,0.731343 -0.297662,-0.114226 -0.424116,0.04823 -0.424116,0.544848 0,1.267947 -0.968906,1.620999 -4.448613,1.620999 -1.729501,0 -3.213975,-0.112334 -3.298828,-0.249628 z"
       id="path1030"
       inkscape:connector-curvature="0" />
  </g>
</svg>
